<svg width="492" height="146" viewBox="0 0 492 146" fill="none" xmlns="http://www.w3.org/2000/svg">
<path d="M13 143L22.4 106H2.83122e-07V96H25L36.8 50H10V40H39.4L49 2.99999H61L51.4 40H87.4L97 2.99999H109L99.4 40H122V50H96.8L85 96H112V106H82.4L73 143H61L70.4 106H34.4L25 143H13ZM37 96H73L84.8 50H48.8L37 96ZM173.078 143V140L187.078 136V106H130.078L126.078 100L201.078 0.999992H220.078V97H241.078V106H220.078V136L234.078 140V143H173.078ZM137.078 97H187.078V31L137.078 97ZM309.094 146C298.294 146 288.494 143.133 279.694 137.4C270.894 131.667 263.894 123.333 258.694 112.4C253.627 101.333 251.094 88.2 251.094 73C251.094 57.8 253.627 44.7333 258.694 33.8C263.894 22.7333 270.894 14.3333 279.694 8.59999C288.494 2.86666 298.294 -6.67572e-06 309.094 -6.67572e-06C319.894 -6.67572e-06 329.694 2.86666 338.494 8.59999C347.294 14.3333 354.227 22.7333 359.294 33.8C364.494 44.7333 367.094 57.8 367.094 73C367.094 88.2 364.494 101.333 359.294 112.4C354.227 123.333 347.294 131.667 338.494 137.4C329.694 143.133 319.894 146 309.094 146ZM309.094 142C324.427 142 332.094 119 332.094 73C332.094 27 324.427 3.99999 309.094 3.99999C293.76 3.99999 286.094 27 286.094 73C286.094 119 293.76 142 309.094 142ZM423.078 143V140L437.078 136V106H380.078L376.078 100L451.078 0.999992H470.078V97H491.078V106H470.078V136L484.078 140V143H423.078ZM387.078 97H437.078V31L387.078 97Z" fill="url(#paint0_linear)"/>
<defs>
<linearGradient id="paint0_linear" x1="191.872" y1="-45.4302" x2="191.872" y2="224.582" gradientUnits="userSpaceOnUse">
<stop stop-color="#FFE249"/>
<stop offset="1" stop-color="#B36C19"/>
</linearGradient>
</defs>
</svg>
