<svg width="121" height="120" viewBox="0 0 121 120" fill="none" xmlns="http://www.w3.org/2000/svg">
<path d="M60.3645 52.996C61.6581 52.996 62.7092 51.9459 62.7092 50.6513C62.7092 49.3568 61.6581 48.3066 60.3645 48.3066C59.0699 48.3066 58.0189 49.3568 58.0189 50.6513C58.0189 51.9459 59.0699 52.996 60.3645 52.996Z" fill="url(#paint0_linear)"/>
<path d="M16.411 52.2199C18.3153 54.3348 57.5218 97.8992 58.6323 99.1315C59.1423 99.69 59.872 99.9528 60.5861 99.8841C61.14 99.8319 61.6874 99.5783 62.0949 99.1315C62.0985 99.1269 62.1031 99.1242 62.1068 99.1196L104.316 52.2199C104.328 52.2071 104.338 52.1924 104.35 52.1796C105.074 51.3364 105.103 50.1179 104.449 49.2444L90.3792 30.4844C90.37 30.4725 90.3599 30.4624 90.3508 30.4505C89.8921 29.8618 89.199 29.5469 88.5032 29.5469H32.2239C32.2102 29.5469 32.1974 29.5487 32.1846 29.5496C31.4302 29.5615 30.7618 29.9323 30.348 30.4844L16.2782 49.2444C15.609 50.1371 15.6639 51.3904 16.411 52.2199ZM31.8239 36.3346L37.8096 48.3069H22.8444L31.8239 36.3346ZM97.8837 48.3069H82.9185L88.9042 36.3346L97.8837 48.3069ZM50.984 48.3069H47.2661L60.3645 35.2085L73.462 48.3069H69.7441C68.4495 48.3069 67.3994 49.3571 67.3994 50.6516C67.3994 51.9462 68.4495 52.9963 69.7441 52.9963H75.6602L60.3645 91.2369L45.0679 52.9963H50.984C52.2786 52.9963 53.3287 51.9462 53.3287 50.6516C53.3287 49.3571 52.2795 48.3069 50.984 48.3069ZM80.7112 52.9963H97.3079L67.4342 86.1905L80.7112 52.9963ZM78.4819 46.6929L66.0252 34.2371H84.7093L78.4819 46.6929ZM42.2462 46.6929L36.0188 34.2371H54.7029L42.2462 46.6929ZM40.0169 52.9963L53.2939 86.1905L23.4193 52.9963H40.0169Z" fill="url(#paint1_linear)"/>
<defs>
<linearGradient id="paint0_linear" x1="59.8563" y1="48.1964" x2="59.8563" y2="53.6777" gradientUnits="userSpaceOnUse">
<stop stop-color="#FFE249"/>
<stop offset="1" stop-color="#B36C19"/>
</linearGradient>
<linearGradient id="paint1_linear" x1="50.7179" y1="27.8932" x2="50.7179" y2="110.122" gradientUnits="userSpaceOnUse">
<stop stop-color="#FFE249"/>
<stop offset="1" stop-color="#B36C19"/>
</linearGradient>
</defs>
</svg>
