<svg width="121" height="120" viewBox="0 0 121 120" fill="none" xmlns="http://www.w3.org/2000/svg">
<g clip-path="url(#clip0)">
<path d="M12.3577 47.0557H16.9885C18.283 47.0557 19.3323 46.0064 19.3323 44.7119C19.3323 43.4175 18.283 42.3682 16.9885 42.3682H12.3577C11.0633 42.3682 10.014 43.4175 10.014 44.7119C10.014 46.0064 11.0633 47.0557 12.3577 47.0557Z" fill="url(#paint0_linear)"/>
<path d="M7.28844 58.4766C8.58289 58.4766 9.63219 57.4273 9.63219 56.1328C9.63219 54.8384 8.58289 53.7891 7.28844 53.7891H2.84375C1.5493 53.7891 0.5 54.8384 0.5 56.1328C0.5 57.4273 1.5493 58.4766 2.84375 58.4766H7.28844Z" fill="url(#paint1_linear)"/>
<path d="M101.512 46.8366C96.6842 46.8366 92.7568 42.9089 92.7568 38.0812C92.7568 33.2536 96.6844 29.3262 101.512 29.3262C106.339 29.3262 110.267 33.2538 110.267 38.0812C110.267 42.9089 106.34 46.8366 101.512 46.8366ZM101.512 34.0134C99.2689 34.0134 97.4443 35.8383 97.4443 38.081C97.4443 40.324 99.2691 42.1488 101.512 42.1488C103.755 42.1488 105.579 40.324 105.579 38.081C105.579 35.8383 103.755 34.0134 101.512 34.0134Z" fill="url(#paint2_linear)"/>
<path d="M66.9638 44.959C57.2977 44.959 47.9531 48.9959 41.3262 56.0341C40.4388 56.9766 40.4836 58.4599 41.426 59.3473C41.8786 59.7734 42.4561 59.9845 43.0322 59.9845C43.6558 59.9845 44.2779 59.7373 44.7391 59.2474C50.5685 53.0562 58.4613 49.6465 66.964 49.6465C68.2584 49.6465 69.3077 48.5972 69.3077 47.3027C69.3077 46.0083 68.2582 44.959 66.9638 44.959Z" fill="url(#paint3_linear)"/>
<path d="M40.6074 85.1953H40.594C39.2996 85.1953 38.2568 86.2446 38.2568 87.5391C38.2568 88.8335 39.3127 89.8828 40.6071 89.8828C41.9016 89.8828 42.9509 88.8335 42.9509 87.5391C42.9509 86.2446 41.9018 85.1953 40.6074 85.1953Z" fill="url(#paint4_linear)"/>
<path d="M94.6952 85.1953H94.6887C93.3942 85.1953 92.3482 86.2446 92.3482 87.5391C92.3482 88.8335 93.4008 89.8828 94.6952 89.8828C95.9897 89.8828 97.039 88.8335 97.039 87.5391C97.039 86.2446 95.9897 85.1953 94.6952 85.1953Z" fill="url(#paint5_linear)"/>
<path d="M112.009 77.8007H111.934C111.67 72.5983 110.522 67.555 108.515 62.7599C108.515 62.7599 110.832 59.9095 111.309 59.2846C116.083 53.0188 120.593 47.0999 120.499 38.0678C120.491 27.6044 111.977 19.0938 101.512 19.0938C91.1121 19.0938 82.6425 27.5001 82.5305 37.8742C80.5392 37.1388 78.5058 36.5514 76.4377 36.1087C76.6962 35.2199 76.8286 34.292 76.8286 33.3438C76.8286 27.9044 72.4034 23.4789 66.964 23.4789C61.5209 23.4789 57.0928 27.9041 57.0928 33.3438C57.0928 34.2955 57.2264 35.2267 57.4868 36.1185C52.0599 37.2864 46.9927 39.4337 42.4812 42.3679H29.5589C28.2645 42.3679 27.2152 43.4172 27.2152 44.7116C27.2152 46.0061 28.2645 47.0554 29.5589 47.0554H36.4547C34.246 49.0937 32.2413 51.3496 30.4744 53.789H17.9517C16.6573 53.789 15.608 54.8383 15.608 56.1327C15.608 57.4272 16.6573 58.4765 17.9517 58.4765H27.4995C26.3175 60.621 25.3062 62.8717 24.4817 65.2101H4.71729C3.42283 65.2101 2.37354 66.2594 2.37354 67.5538C2.37354 68.8483 3.42283 69.8976 4.71729 69.8976H23.1101C22.5045 72.4907 22.1234 75.1691 21.9888 77.9116C18.3715 78.5277 15.6082 81.6827 15.6082 85.473C15.6082 89.7034 19.05 93.1452 23.2803 93.1452H28.4719C30.5958 97.7221 35.2322 100.905 40.601 100.905C45.9699 100.905 50.6063 97.7221 52.7302 93.1452H57.1245C58.4189 93.1452 59.4682 92.0959 59.4682 90.8015C59.4682 89.507 58.4189 88.4577 57.1245 88.4577H53.9321C53.9529 88.1537 53.9672 87.8484 53.9672 87.5392C53.9672 85.7523 53.6121 84.0475 52.9732 82.4882H82.324C81.6851 84.0477 81.33 85.7523 81.33 87.5392C81.33 87.8484 81.3443 88.1537 81.3652 88.4577H78.1718C76.8774 88.4577 75.8281 89.507 75.8281 90.8015C75.8281 92.0959 76.8774 93.1452 78.1718 93.1452H82.5661C84.69 97.7221 89.3264 100.905 94.6953 100.905C100.064 100.905 104.701 97.7221 106.824 93.1452H112.009C116.24 93.1452 119.681 89.7034 119.681 85.473C119.681 81.2425 116.24 77.8007 112.009 77.8007ZM87.2128 38.0809C87.2128 30.1961 93.6274 23.7812 101.512 23.7812C109.397 23.7812 115.811 30.1961 115.811 38.0809V38.1067C115.893 45.535 112.04 50.5902 107.58 56.4435C107.113 57.0562 106.642 57.6747 106.17 58.3023L102.571 62.4712C102.195 62.905 101.799 63.164 101.512 63.164C101.224 63.164 100.829 62.905 100.455 62.4744L96.8534 58.3023C96.3816 57.6747 95.9105 57.0564 95.4434 56.4435C90.983 50.59 87.131 45.535 87.2124 38.1067C87.2128 38.098 87.2128 38.0896 87.2128 38.0809ZM66.9638 28.1664C69.8185 28.1664 72.1409 30.4891 72.1409 33.3438C72.1409 34.0471 72.0017 34.7287 71.7338 35.3617C70.16 35.1972 68.5692 35.1128 66.9635 35.1128C65.3508 35.1128 63.758 35.1995 62.1884 35.3659C61.9193 34.732 61.7796 34.0487 61.7796 33.344C61.7799 30.4891 64.1053 28.1664 66.9638 28.1664ZM27.27 88.4577H23.2803C21.6345 88.4577 20.2957 87.1188 20.2957 85.473C20.2957 83.8272 21.6345 82.4882 23.2803 82.4882H28.2291C27.5902 84.0477 27.2351 85.7523 27.2351 87.5392C27.2349 87.8484 27.2494 88.154 27.27 88.4577ZM40.6008 96.2181C35.8156 96.2181 31.9224 92.3249 31.9224 87.5394C31.9224 82.754 35.8156 78.8608 40.6008 78.8608C45.386 78.8608 49.2792 82.754 49.2792 87.5394C49.2792 92.3249 45.386 96.2181 40.6008 96.2181ZM94.6953 96.2181C89.91 96.2181 86.0168 92.3249 86.0168 87.5394C86.0168 82.754 89.91 78.8608 94.6953 78.8608C99.4805 78.8608 103.374 82.754 103.374 87.5394C103.374 92.3249 99.4805 96.2181 94.6953 96.2181ZM103.836 77.8007C101.444 75.5537 98.2287 74.173 94.6953 74.173C91.1618 74.173 87.9467 75.5537 85.5544 77.8007H49.7417C47.3492 75.5537 44.1342 74.173 40.6008 74.173C37.0674 74.173 33.8522 75.5537 31.4599 77.8007H26.6904C27.9087 56.6416 45.5053 39.8001 66.9638 39.8001C72.5461 39.8001 77.9285 40.9117 82.9819 43.1041C84.2342 49.462 87.8885 54.2627 91.7152 59.2846C92.1914 59.9095 96.9103 65.5408 96.9103 65.5408C98.2015 67.0307 99.8356 67.8512 101.512 67.8512C102.729 67.8512 103.923 67.417 104.981 66.6086C106.264 70.2105 107.021 73.9562 107.239 77.8005H103.836V77.8007ZM112.009 88.4577H108.026C108.047 88.1537 108.061 87.8484 108.061 87.5392C108.061 85.7523 107.706 84.0475 107.067 82.4882H112.009C113.655 82.4882 114.994 83.8272 114.994 85.473C114.994 87.1188 113.655 88.4577 112.009 88.4577Z" fill="url(#paint6_linear)"/>
<path d="M67.6481 88.458C66.3537 88.458 65.3044 89.5073 65.3044 90.8018C65.3044 92.0962 66.3537 93.1455 67.6481 93.1455H67.6547C68.9491 93.1455 69.9952 92.0962 69.9952 90.8018C69.9952 89.5073 68.9423 88.458 67.6481 88.458Z" fill="url(#paint7_linear)"/>
</g>
<defs>
<linearGradient id="paint0_linear" x1="13.6644" y1="42.258" x2="13.6644" y2="47.7371" gradientUnits="userSpaceOnUse">
<stop stop-color="#FFE249"/>
<stop offset="1" stop-color="#B36C19"/>
</linearGradient>
<linearGradient id="paint1_linear" x1="4.07748" y1="53.6789" x2="4.07748" y2="59.158" gradientUnits="userSpaceOnUse">
<stop stop-color="#FFE249"/>
<stop offset="1" stop-color="#B36C19"/>
</linearGradient>
<linearGradient id="paint2_linear" x1="99.6163" y1="28.9145" x2="99.6163" y2="49.3821" gradientUnits="userSpaceOnUse">
<stop stop-color="#FFE249"/>
<stop offset="1" stop-color="#B36C19"/>
</linearGradient>
<linearGradient id="paint3_linear" x1="51.9001" y1="44.6058" x2="51.9001" y2="62.1689" gradientUnits="userSpaceOnUse">
<stop stop-color="#FFE249"/>
<stop offset="1" stop-color="#B36C19"/>
</linearGradient>
<linearGradient id="paint4_linear" x1="40.0957" y1="85.0851" x2="40.0957" y2="90.5643" gradientUnits="userSpaceOnUse">
<stop stop-color="#FFE249"/>
<stop offset="1" stop-color="#B36C19"/>
</linearGradient>
<linearGradient id="paint5_linear" x1="94.1858" y1="85.0851" x2="94.1858" y2="90.5643" gradientUnits="userSpaceOnUse">
<stop stop-color="#FFE249"/>
<stop offset="1" stop-color="#B36C19"/>
</linearGradient>
<linearGradient id="paint6_linear" x1="48.6488" y1="17.1706" x2="48.6488" y2="112.799" gradientUnits="userSpaceOnUse">
<stop stop-color="#FFE249"/>
<stop offset="1" stop-color="#B36C19"/>
</linearGradient>
<linearGradient id="paint7_linear" x1="67.142" y1="88.3478" x2="67.142" y2="93.827" gradientUnits="userSpaceOnUse">
<stop stop-color="#FFE249"/>
<stop offset="1" stop-color="#B36C19"/>
</linearGradient>
<clipPath id="clip0">
<rect width="120" height="120" fill="white" transform="translate(0.5)"/>
</clipPath>
</defs>
</svg>
