<svg width="120" height="120" viewBox="0 0 120 120" fill="none" xmlns="http://www.w3.org/2000/svg">
<path d="M86.6574 72.5412L104.319 51.2771C104.838 50.6527 104.999 49.804 104.746 49.0322C104.492 48.2605 103.859 47.6736 103.071 47.4786L75.6876 40.6964C74.4214 40.3833 73.1424 41.155 72.8284 42.4203C72.5153 43.6856 73.2871 44.9655 74.5523 45.2786L98.2837 51.1553L82.4167 70.2588C82.0258 70.7302 81.8326 71.3345 81.8784 71.9442L83.7653 96.9015L61.2891 87.38C60.7013 87.131 60.0366 87.131 59.448 87.38L36.9791 96.9015L38.866 71.9442C38.9118 71.3345 38.7186 70.7293 38.3276 70.2588L22.4615 51.1563L43.32 45.9954L46.1957 45.2786C46.8036 45.1266 47.3273 44.7384 47.6496 44.201L58.2633 26.4791L60.3699 22.9571L61.6507 25.0985C62.32 26.2164 63.7692 26.5808 64.888 25.9115C66.0068 25.2423 66.3712 23.793 65.7019 22.6742L62.3941 17.1481C61.9675 16.4358 61.1984 15.9991 60.3681 16C59.5386 16 58.7696 16.4358 58.3429 17.149L54.213 24.0548L44.1028 40.9353L42.1811 41.4141L17.6733 47.4786C16.8851 47.6736 16.2515 48.2605 15.9979 49.0322C15.7443 49.804 15.9055 50.6527 16.4246 51.2771L34.086 72.5412L31.9794 100.408C31.9171 101.229 32.2879 102.023 32.9562 102.503C33.6255 102.983 34.4962 103.08 35.2542 102.759L60.369 92.117L85.4902 102.759C85.7859 102.884 86.099 102.946 86.4103 102.946C86.8973 102.946 87.3798 102.796 87.7872 102.503C88.4555 102.023 88.8263 101.229 88.7641 100.408L86.6574 72.5412Z" fill="url(#paint0_linear)"/>
<path d="M80.0381 57.2683C79.7845 56.4965 79.1519 55.9088 78.3627 55.7137L67.9861 53.1466L62.3941 43.8082C61.9675 43.0959 61.1984 42.6602 60.368 42.6602C59.5386 42.6602 58.7695 43.0959 58.3429 43.8082L52.7509 53.1475L42.3798 55.7137C41.5915 55.9097 40.9589 56.4965 40.7053 57.2683C40.4517 58.0401 40.6119 58.8888 41.131 59.5132L48.0799 67.8784L47.2486 78.8418C47.1863 79.663 47.5562 80.4568 48.2254 80.9375C48.6328 81.2304 49.1162 81.3806 49.6024 81.3806C49.9146 81.3806 50.2277 81.3183 50.5234 81.1929L60.368 77.0199L70.22 81.1929C70.979 81.5142 71.8497 81.4172 72.518 80.9375C73.1863 80.4568 73.5571 79.663 73.4949 78.8418L72.6636 67.8784L79.6115 59.5132C80.1315 58.8879 80.2926 58.0401 80.0381 57.2683ZM68.4219 65.5969C68.031 66.0675 67.8378 66.6726 67.8845 67.2833L68.4943 75.3353L61.2891 72.2839C60.9952 72.1594 60.6812 72.0971 60.368 72.0971C60.0549 72.0971 59.7418 72.1594 59.447 72.2839L52.2492 75.3344L52.8589 67.2833C52.9056 66.6726 52.7124 66.0675 52.3215 65.5969L47.168 59.3923L54.8392 57.4935C55.4489 57.3425 55.9735 56.9543 56.2967 56.415L60.369 49.6145L64.4403 56.415C64.7635 56.9543 65.2881 57.3425 65.8987 57.4935L73.5754 59.3923L68.4219 65.5969Z" fill="url(#paint1_linear)"/>
<path d="M67.0551 42.8124C67.4982 43.5476 68.2782 43.9541 69.0784 43.9541C69.4931 43.9541 69.9143 43.8442 70.2951 43.6135C71.4112 42.9406 71.77 41.4895 71.0971 40.3735L71.077 40.3405C70.4032 39.2236 68.9521 38.8656 67.836 39.5394C66.72 40.2123 66.3611 41.6634 67.0349 42.7795L67.0551 42.8124Z" fill="url(#paint2_linear)"/>
<defs>
<linearGradient id="paint0_linear" x1="50.7387" y1="13.9561" x2="50.7387" y2="115.586" gradientUnits="userSpaceOnUse">
<stop stop-color="#FFE249"/>
<stop offset="1" stop-color="#B36C19"/>
</linearGradient>
<linearGradient id="paint1_linear" x1="56.0882" y1="41.7499" x2="56.0882" y2="87.0096" gradientUnits="userSpaceOnUse">
<stop stop-color="#FFE249"/>
<stop offset="1" stop-color="#B36C19"/>
</linearGradient>
<linearGradient id="paint2_linear" x1="68.5524" y1="39.0874" x2="68.5524" y2="44.6453" gradientUnits="userSpaceOnUse">
<stop stop-color="#FFE249"/>
<stop offset="1" stop-color="#B36C19"/>
</linearGradient>
</defs>
</svg>
