<svg width="121" height="120" viewBox="0 0 121 120" fill="none" xmlns="http://www.w3.org/2000/svg">
<path d="M27.6875 60.7031C26.3937 60.7031 25.3438 61.7531 25.3438 63.0469C25.3438 64.3406 26.3937 65.3906 27.6875 65.3906C28.9813 65.3906 30.0312 64.3406 30.0312 63.0469C30.0312 61.7531 28.9813 60.7031 27.6875 60.7031Z" fill="url(#paint0_linear)"/>
<path d="M114.406 56.0156C114.406 50.8462 110.201 46.6406 105.031 46.6406H87.5347C90.2434 39.7024 91.3398 31.5359 91.1284 24.2662C91.088 22.879 91.0348 22.0767 90.9629 21.5716C90.8417 16.5075 86.6834 12.4219 81.5938 12.4219C76.4244 12.4219 72.2188 16.6275 72.2188 21.7969V24.1406C72.2188 38.9639 53.1842 47.2924 38.8194 50.8638C37.7333 48.3809 35.2541 46.6406 32.375 46.6406H8.9375C7.64328 46.6406 6.59375 47.6902 6.59375 48.9844V105.234C6.59375 106.529 7.64328 107.578 8.9375 107.578H32.375C35.2348 107.578 37.6998 105.861 38.7971 103.404C39.9866 103.709 41.0907 103.998 42.11 104.264C50.2932 106.401 54.8009 107.578 65.7641 107.578H90.9688C96.1381 107.578 100.344 103.372 100.344 98.2031C100.344 96.2756 99.7585 94.4827 98.757 92.9911C102.378 91.7248 105.031 88.2654 105.031 84.1406C105.031 82.2202 104.46 80.4213 103.462 78.923C107.067 77.6545 109.719 74.2031 109.719 70.0781C109.719 68.1506 109.134 66.3577 108.132 64.8661C111.753 63.5998 114.406 60.1404 114.406 56.0156ZM34.7188 100.547C34.7188 101.839 33.6673 102.891 32.375 102.891H11.2812V51.3281H32.375C33.6673 51.3281 34.7188 52.3795 34.7188 53.6719V100.547ZM105.031 60.7031C100.004 60.7031 98.8058 60.7031 93.3125 60.7031C92.0183 60.7031 90.9688 61.7527 90.9688 63.0469C90.9688 64.3411 92.0183 65.3906 93.3125 65.3906H100.344C102.928 65.3906 105.031 67.4934 105.031 70.0781C105.031 72.667 102.933 74.7656 100.344 74.7656H88.625C87.3308 74.7656 86.2812 75.8152 86.2812 77.1094C86.2812 78.4036 87.3308 79.4531 88.625 79.4531H95.6562C98.2102 79.4531 100.344 81.4934 100.344 84.1406C100.344 86.7295 98.2452 88.8281 95.6562 88.8281C90.6291 88.8281 89.4308 88.8281 83.9375 88.8281C82.6433 88.8281 81.5938 89.8777 81.5938 91.1719C81.5938 92.4661 82.6433 93.5156 83.9375 93.5156H90.9688C93.5534 93.5156 95.6562 95.6184 95.6562 98.2031C95.6562 100.788 93.5534 102.891 90.9688 102.891H65.7641C55.403 102.891 51.3563 101.834 43.2945 99.7284C42.1135 99.42 40.8181 99.0818 39.4062 98.7218V55.5527C56.3675 51.5126 76.9062 41.651 76.9062 24.1406V21.7969C76.9062 19.2122 79.0091 17.1094 81.5938 17.1094C84.1738 17.1094 86.2763 19.2089 86.2812 21.7896V21.7969C86.2812 22.8155 87.5525 35.3163 82.4548 46.6406H74.5625C73.2683 46.6406 72.2188 47.6902 72.2188 48.9844C72.2188 50.2786 73.2683 51.3281 74.5625 51.3281C76.1991 51.3281 102.36 51.3281 105.031 51.3281C107.616 51.3281 109.719 53.4309 109.719 56.0156C109.719 58.6045 107.62 60.7031 105.031 60.7031Z" fill="url(#paint1_linear)"/>
<path d="M27.6875 70.0781C26.3933 70.0781 25.3438 71.1277 25.3438 72.4219V91.1719C25.3438 92.4661 26.3933 93.5156 27.6875 93.5156C28.9817 93.5156 30.0312 92.4661 30.0312 91.1719V72.4219C30.0312 71.1277 28.9817 70.0781 27.6875 70.0781Z" fill="url(#paint2_linear)"/>
<defs>
<linearGradient id="paint0_linear" x1="27.18" y1="60.5929" x2="27.18" y2="66.0721" gradientUnits="userSpaceOnUse">
<stop stop-color="#FFE249"/>
<stop offset="1" stop-color="#B36C19"/>
</linearGradient>
<linearGradient id="paint1_linear" x1="48.8286" y1="10.185" x2="48.8286" y2="121.412" gradientUnits="userSpaceOnUse">
<stop stop-color="#FFE249"/>
<stop offset="1" stop-color="#B36C19"/>
</linearGradient>
<linearGradient id="paint2_linear" x1="27.18" y1="69.5272" x2="27.18" y2="96.9229" gradientUnits="userSpaceOnUse">
<stop stop-color="#FFE249"/>
<stop offset="1" stop-color="#B36C19"/>
</linearGradient>
</defs>
</svg>
