<svg width="60" height="60" viewBox="0 0 60 60" fill="none" xmlns="http://www.w3.org/2000/svg">
<g clip-path="url(#clip0)">
<path d="M5.92886 23.5278H8.24426C8.89148 23.5278 9.41613 23.0032 9.41613 22.356C9.41613 21.7087 8.89148 21.1841 8.24426 21.1841H5.92886C5.28164 21.1841 4.75699 21.7087 4.75699 22.356C4.75699 23.0032 5.28164 23.5278 5.92886 23.5278Z" fill="url(#paint0_linear)"/>
<path d="M3.39422 29.2384C4.04145 29.2384 4.56609 28.7138 4.56609 28.0665C4.56609 27.4193 4.04145 26.8947 3.39422 26.8947H1.17188C0.524648 26.8947 0 27.4193 0 28.0665C0 28.7138 0.524648 29.2384 1.17188 29.2384H3.39422Z" fill="url(#paint1_linear)"/>
<path d="M50.5059 23.4183C48.0921 23.4183 46.1284 21.4545 46.1284 19.0406C46.1284 16.6268 48.0922 14.6631 50.5059 14.6631C52.9196 14.6631 54.8835 16.6269 54.8835 19.0406C54.8835 21.4545 52.9198 23.4183 50.5059 23.4183ZM50.5059 17.0067C49.3844 17.0067 48.4721 17.9191 48.4721 19.0405C48.4721 20.162 49.3846 21.0744 50.5059 21.0744C51.6273 21.0744 52.5397 20.162 52.5397 19.0405C52.5397 17.9191 51.6274 17.0067 50.5059 17.0067Z" fill="url(#paint2_linear)"/>
<path d="M33.2319 22.4797C28.3988 22.4797 23.7266 24.4981 20.4131 28.0173C19.9694 28.4885 19.9918 29.2301 20.463 29.6738C20.6893 29.8869 20.978 29.9925 21.2661 29.9925C21.5779 29.9925 21.8889 29.8688 22.1196 29.6239C25.0343 26.5283 28.9807 24.8234 33.232 24.8234C33.8792 24.8234 34.4039 24.2988 34.4039 23.6516C34.4039 23.0043 33.8791 22.4797 33.2319 22.4797Z" fill="url(#paint3_linear)"/>
<path d="M20.0537 42.5978H20.047C19.3998 42.5978 18.8784 43.1225 18.8784 43.7697C18.8784 44.4169 19.4063 44.9416 20.0536 44.9416C20.7008 44.9416 21.2254 44.4169 21.2254 43.7697C21.2254 43.1225 20.7009 42.5978 20.0537 42.5978Z" fill="url(#paint4_linear)"/>
<path d="M47.0976 42.5978H47.0943C46.4471 42.5978 45.9241 43.1225 45.9241 43.7697C45.9241 44.4169 46.4504 44.9416 47.0976 44.9416C47.7448 44.9416 48.2695 44.4169 48.2695 43.7697C48.2695 43.1225 47.7448 42.5978 47.0976 42.5978Z" fill="url(#paint5_linear)"/>
<path d="M55.7546 38.9005H55.717C55.5849 36.2993 55.0111 33.7776 54.0074 31.3801C54.0074 31.3801 55.1662 29.9548 55.4044 29.6424C57.7917 26.5095 60.0466 23.5501 59.9993 19.034C59.9956 13.8023 55.7383 9.547 50.506 9.547C45.3061 9.547 41.0713 13.7502 41.0152 18.9372C40.0196 18.5695 39.0029 18.2758 37.9688 18.0545C38.0981 17.6101 38.1643 17.1461 38.1643 16.672C38.1643 13.9523 35.9517 11.7396 33.232 11.7396C30.5104 11.7396 28.2964 13.9522 28.2964 16.672C28.2964 17.1479 28.3632 17.6135 28.4934 18.0594C25.7799 18.6433 23.2463 19.717 20.9906 21.1841H14.5295C13.8822 21.1841 13.3576 21.7087 13.3576 22.3559C13.3576 23.0032 13.8822 23.5278 14.5295 23.5278H17.9774C16.873 24.547 15.8707 25.6749 14.9872 26.8946H8.72587C8.07864 26.8946 7.55399 27.4193 7.55399 28.0665C7.55399 28.7137 8.07864 29.2384 8.72587 29.2384H13.4997C12.9088 30.3106 12.4031 31.436 11.9908 32.6052H2.10864C1.46142 32.6052 0.936768 33.1298 0.936768 33.777C0.936768 34.4243 1.46142 34.9489 2.10864 34.9489H11.305C11.0022 36.2455 10.8117 37.5847 10.7444 38.9559C8.93575 39.264 7.55411 40.8414 7.55411 42.7366C7.55411 44.8518 9.27501 46.5727 11.3901 46.5727H13.9859C15.0479 48.8612 17.3661 50.4528 20.0505 50.4528C22.7349 50.4528 25.0531 48.8612 26.1151 46.5727H28.3122C28.9595 46.5727 29.4841 46.0481 29.4841 45.4009C29.4841 44.7536 28.9595 44.229 28.3122 44.229H26.716C26.7265 44.077 26.7336 43.9243 26.7336 43.7697C26.7336 42.8763 26.5561 42.0239 26.2366 41.2442H40.912C40.5926 42.024 40.415 42.8763 40.415 43.7697C40.415 43.9243 40.4222 44.077 40.4326 44.229H38.8359C38.1887 44.229 37.664 44.7536 37.664 45.4009C37.664 46.0481 38.1887 46.5727 38.8359 46.5727H41.0331C42.095 48.8612 44.4132 50.4528 47.0976 50.4528C49.782 50.4528 52.1003 48.8612 53.1622 46.5727H55.7546C57.8699 46.5727 59.5906 44.8518 59.5906 42.7366C59.5906 40.6214 57.8699 38.9005 55.7546 38.9005ZM43.3564 19.0406C43.3564 15.0982 46.5637 11.8907 50.506 11.8907C54.4483 11.8907 57.6555 15.0982 57.6555 19.0406V19.0535C57.6963 22.7676 55.7702 25.2952 53.54 28.2219C53.3066 28.5282 53.071 28.8375 52.8351 29.1513L51.0355 31.2357C50.8475 31.4526 50.6496 31.5821 50.5059 31.5821C50.3622 31.5821 50.1643 31.4526 49.9777 31.2373L48.1767 29.1513C47.9408 28.8375 47.7052 28.5283 47.4717 28.2219C45.2415 25.2951 43.3155 22.7676 43.3562 19.0535C43.3564 19.0491 43.3564 19.0449 43.3564 19.0406ZM33.2319 14.0833C34.6592 14.0833 35.8204 15.2447 35.8204 16.672C35.8204 17.0237 35.7508 17.3645 35.6169 17.681C34.83 17.5987 34.0346 17.5565 33.2318 17.5565C32.4254 17.5565 31.629 17.5999 30.8442 17.6831C30.7097 17.3661 30.6398 17.0245 30.6398 16.6721C30.6399 15.2447 31.8027 14.0833 33.2319 14.0833ZM13.385 44.229H11.3901C10.5672 44.229 9.89786 43.5595 9.89786 42.7366C9.89786 41.9137 10.5672 41.2442 11.3901 41.2442H13.8645C13.5451 42.024 13.3675 42.8763 13.3675 43.7697C13.3674 43.9243 13.3747 44.0771 13.385 44.229ZM20.0504 48.1092C17.6578 48.1092 15.7112 46.1626 15.7112 43.7698C15.7112 41.3771 17.6578 39.4305 20.0504 39.4305C22.443 39.4305 24.3896 41.3771 24.3896 43.7698C24.3896 46.1626 22.443 48.1092 20.0504 48.1092ZM47.0976 48.1092C44.705 48.1092 42.7584 46.1626 42.7584 43.7698C42.7584 41.3771 44.705 39.4305 47.0976 39.4305C49.4902 39.4305 51.4369 41.3771 51.4369 43.7698C51.4369 46.1626 49.4902 48.1092 47.0976 48.1092ZM51.6681 38.9005C50.4718 37.777 48.8643 37.0866 47.0976 37.0866C45.3309 37.0866 43.7233 37.777 42.5272 38.9005H24.6208C23.4246 37.777 21.8171 37.0866 20.0504 37.0866C18.2837 37.0866 16.6761 37.777 15.48 38.9005H13.0952C13.7043 28.3209 22.5027 19.9002 33.2319 19.9002C36.0231 19.9002 38.7143 20.456 41.241 21.5522C41.8671 24.7311 43.6943 27.1314 45.6076 29.6424C45.8457 29.9548 48.2052 32.7705 48.2052 32.7705C48.8508 33.5155 49.6678 33.9257 50.5059 33.9257C51.1144 33.9257 51.7113 33.7086 52.2404 33.3044C52.882 35.1054 53.2604 36.9782 53.3694 38.9004H51.6681V38.9005ZM55.7546 44.229H53.763C53.7735 44.077 53.7806 43.9243 53.7806 43.7697C53.7806 42.8763 53.6031 42.0239 53.2836 41.2442H55.7547C56.5776 41.2442 57.247 41.9137 57.247 42.7366C57.2469 43.5595 56.5775 44.229 55.7546 44.229Z" fill="url(#paint6_linear)"/>
<path d="M33.5741 44.229C32.9268 44.229 32.4022 44.7537 32.4022 45.4009C32.4022 46.0481 32.9268 46.5728 33.5741 46.5728H33.5773C34.2246 46.5728 34.7476 46.0481 34.7476 45.4009C34.7476 44.7537 34.2212 44.229 33.5741 44.229Z" fill="url(#paint7_linear)"/>
</g>
<defs>
<linearGradient id="paint0_linear" x1="6.58218" y1="21.129" x2="6.58218" y2="23.8686" gradientUnits="userSpaceOnUse">
<stop stop-color="#FFE249"/>
<stop offset="1" stop-color="#B36C19"/>
</linearGradient>
<linearGradient id="paint1_linear" x1="1.78874" y1="26.8396" x2="1.78874" y2="29.5791" gradientUnits="userSpaceOnUse">
<stop stop-color="#FFE249"/>
<stop offset="1" stop-color="#B36C19"/>
</linearGradient>
<linearGradient id="paint2_linear" x1="49.5581" y1="14.4573" x2="49.5581" y2="24.6911" gradientUnits="userSpaceOnUse">
<stop stop-color="#FFE249"/>
<stop offset="1" stop-color="#B36C19"/>
</linearGradient>
<linearGradient id="paint3_linear" x1="25.7001" y1="22.3031" x2="25.7001" y2="31.0846" gradientUnits="userSpaceOnUse">
<stop stop-color="#FFE249"/>
<stop offset="1" stop-color="#B36C19"/>
</linearGradient>
<linearGradient id="paint4_linear" x1="19.7979" y1="42.5427" x2="19.7979" y2="45.2823" gradientUnits="userSpaceOnUse">
<stop stop-color="#FFE249"/>
<stop offset="1" stop-color="#B36C19"/>
</linearGradient>
<linearGradient id="paint5_linear" x1="46.8429" y1="42.5427" x2="46.8429" y2="45.2823" gradientUnits="userSpaceOnUse">
<stop stop-color="#FFE249"/>
<stop offset="1" stop-color="#B36C19"/>
</linearGradient>
<linearGradient id="paint6_linear" x1="24.0744" y1="8.58541" x2="24.0744" y2="56.3995" gradientUnits="userSpaceOnUse">
<stop stop-color="#FFE249"/>
<stop offset="1" stop-color="#B36C19"/>
</linearGradient>
<linearGradient id="paint7_linear" x1="33.321" y1="44.1739" x2="33.321" y2="46.9135" gradientUnits="userSpaceOnUse">
<stop stop-color="#FFE249"/>
<stop offset="1" stop-color="#B36C19"/>
</linearGradient>
<clipPath id="clip0">
<rect width="60" height="60" fill="white"/>
</clipPath>
</defs>
</svg>
