<svg width="60" height="60" viewBox="0 0 60 60" fill="none" xmlns="http://www.w3.org/2000/svg">
<path d="M43.3287 36.2706L52.1594 25.6386C52.419 25.3264 52.4996 24.902 52.3728 24.5161C52.246 24.1302 51.9296 23.8368 51.5355 23.7393L37.8438 20.3482C37.2107 20.1916 36.5712 20.5775 36.4142 21.2102C36.2576 21.8428 36.6435 22.4827 37.2762 22.6393L49.1419 25.5777L41.2084 35.1294C41.0129 35.3651 40.9163 35.6672 40.9392 35.9721L41.8826 48.4508L30.6445 43.69C30.3507 43.5655 30.0183 43.5655 29.724 43.69L18.4895 48.4508L19.433 35.9721C19.4559 35.6672 19.3593 35.3647 19.1638 35.1294L11.2308 25.5781L21.66 22.9977L23.0978 22.6393C23.4018 22.5633 23.6636 22.3692 23.8248 22.1005L29.1316 13.2396L30.1849 11.4785L30.8254 12.5493C31.16 13.1082 31.8846 13.2904 32.444 12.9558C33.0034 12.6211 33.1856 11.8965 32.851 11.3371L31.1971 8.57404C30.9837 8.2179 30.5992 7.99954 30.184 8C29.7693 8 29.3848 8.2179 29.1715 8.57449L27.1065 12.0274L22.0514 20.4677L21.0905 20.7071L8.83666 23.7393C8.44253 23.8368 8.12575 24.1302 7.99895 24.5161C7.87215 24.902 7.95272 25.3264 8.21227 25.6386L17.043 36.2706L15.9897 50.204C15.9586 50.6146 16.1439 51.0115 16.4781 51.2514C16.8127 51.4917 17.2481 51.5402 17.6271 51.3795L30.1845 46.0585L42.7451 51.3795C42.8929 51.4422 43.0495 51.4729 43.2051 51.4729C43.4487 51.4729 43.6899 51.3978 43.8936 51.2514C44.2278 51.0115 44.4132 50.6146 44.382 50.204L43.3287 36.2706Z" fill="url(#paint0_linear)"/>
<path d="M40.0191 28.6342C39.8923 28.2483 39.576 27.9544 39.1814 27.8569L33.9931 26.5733L31.1971 21.9041C30.9837 21.548 30.5992 21.3301 30.184 21.3301C29.7693 21.3301 29.3848 21.548 29.1715 21.9041L26.3754 26.5738L21.1899 27.8569C20.7958 27.9548 20.4794 28.2483 20.3526 28.6342C20.2258 29.0201 20.306 29.4444 20.5655 29.7566L24.0399 33.9392L23.6243 39.4209C23.5931 39.8315 23.7781 40.2284 24.1127 40.4687C24.3164 40.6152 24.5581 40.6903 24.8012 40.6903C24.9573 40.6903 25.1138 40.6592 25.2617 40.5964L30.184 38.51L35.11 40.5964C35.4895 40.7571 35.9248 40.7086 36.259 40.4687C36.5932 40.2284 36.7786 39.8315 36.7474 39.4209L36.3318 33.9392L39.8057 29.7566C40.0658 29.4439 40.1463 29.0201 40.0191 28.6342ZM34.211 32.7984C34.0155 33.0337 33.9189 33.3363 33.9423 33.6416L34.2471 37.6677L30.6445 36.1419C30.4976 36.0797 30.3406 36.0486 30.184 36.0486C30.0275 36.0486 29.8709 36.0797 29.7235 36.1419L26.1246 37.6672L26.4295 33.6416C26.4528 33.3363 26.3562 33.0337 26.1607 32.7984L23.584 29.6962L27.4196 28.7468C27.7245 28.6712 27.9868 28.4771 28.1484 28.2075L30.1845 24.8073L32.2202 28.2075C32.3817 28.4771 32.644 28.6712 32.9494 28.7468L36.7877 29.6962L34.211 32.7984Z" fill="url(#paint1_linear)"/>
<path d="M33.5275 21.4063C33.7491 21.7739 34.1391 21.9772 34.5392 21.9772C34.7466 21.9772 34.9571 21.9222 35.1476 21.8069C35.7056 21.4704 35.885 20.7449 35.5486 20.1869L35.5385 20.1704C35.2016 19.6119 34.476 19.4329 33.918 19.7698C33.36 20.1063 33.1806 20.8318 33.5175 21.3899L33.5275 21.4063Z" fill="url(#paint2_linear)"/>
<defs>
<linearGradient id="paint0_linear" x1="25.3693" y1="6.97806" x2="25.3693" y2="57.793" gradientUnits="userSpaceOnUse">
<stop stop-color="#FFE249"/>
<stop offset="1" stop-color="#B36C19"/>
</linearGradient>
<linearGradient id="paint1_linear" x1="28.0441" y1="20.875" x2="28.0441" y2="43.5048" gradientUnits="userSpaceOnUse">
<stop stop-color="#FFE249"/>
<stop offset="1" stop-color="#B36C19"/>
</linearGradient>
<linearGradient id="paint2_linear" x1="34.2762" y1="19.5438" x2="34.2762" y2="22.3228" gradientUnits="userSpaceOnUse">
<stop stop-color="#FFE249"/>
<stop offset="1" stop-color="#B36C19"/>
</linearGradient>
</defs>
</svg>
