<svg width="60" height="60" viewBox="0 0 60 60" fill="none" xmlns="http://www.w3.org/2000/svg">
<path d="M29.9323 26.4981C30.5791 26.4981 31.1046 25.9731 31.1046 25.3258C31.1046 24.6785 30.5791 24.1534 29.9323 24.1534C29.285 24.1534 28.7595 24.6785 28.7595 25.3258C28.7595 25.9731 29.285 26.4981 29.9323 26.4981Z" fill="url(#paint0_linear)"/>
<path d="M7.95546 26.11C8.90761 27.1674 28.5109 48.9496 29.0662 49.5658C29.3211 49.845 29.686 49.9764 30.043 49.942C30.32 49.916 30.5937 49.7892 30.7974 49.5658C30.7992 49.5635 30.8015 49.5621 30.8034 49.5598L51.9081 26.11C51.9141 26.1035 51.9191 26.0962 51.925 26.0898C52.2871 25.6682 52.3013 25.0589 51.9745 24.6222L44.9396 15.2422C44.935 15.2362 44.93 15.2312 44.9254 15.2253C44.696 14.9309 44.3495 14.7734 44.0016 14.7734H15.862C15.8551 14.7734 15.8487 14.7744 15.8423 14.7748C15.4651 14.7808 15.1309 14.9662 14.924 15.2422L7.88909 24.6222C7.55446 25.0685 7.58193 25.6952 7.95546 26.11ZM15.6619 18.1673L18.6548 24.1535H11.1722L15.6619 18.1673ZM48.6919 24.1535H41.2092L44.2021 18.1673L48.6919 24.1535ZM25.242 24.1535H23.383L29.9322 17.6042L36.481 24.1535H34.622C33.9748 24.1535 33.4497 24.6785 33.4497 25.3258C33.4497 25.9731 33.9748 26.4981 34.622 26.4981H37.5801L29.9322 45.6185L22.2839 26.4981H25.242C25.8893 26.4981 26.4143 25.9731 26.4143 25.3258C26.4143 24.6785 25.8897 24.1535 25.242 24.1535ZM40.1056 26.4981H48.4039L33.4671 43.0953L40.1056 26.4981ZM38.9909 23.3464L32.7626 17.1186H42.1046L38.9909 23.3464ZM20.8731 23.3464L17.7594 17.1186H27.1014L20.8731 23.3464ZM19.7584 26.4981L26.3969 43.0953L11.4596 26.4981H19.7584Z" fill="url(#paint1_linear)"/>
<defs>
<linearGradient id="paint0_linear" x1="29.6781" y1="24.0983" x2="29.6781" y2="26.839" gradientUnits="userSpaceOnUse">
<stop stop-color="#FFE249"/>
<stop offset="1" stop-color="#B36C19"/>
</linearGradient>
<linearGradient id="paint1_linear" x1="25.1089" y1="13.9466" x2="25.1089" y2="55.0608" gradientUnits="userSpaceOnUse">
<stop stop-color="#FFE249"/>
<stop offset="1" stop-color="#B36C19"/>
</linearGradient>
</defs>
</svg>
