<svg width="60" height="60" viewBox="0 0 60 60" fill="none" xmlns="http://www.w3.org/2000/svg">
<path d="M13.5938 30.3516C12.9469 30.3516 12.4219 30.8766 12.4219 31.5234C12.4219 32.1703 12.9469 32.6953 13.5938 32.6953C14.2406 32.6953 14.7656 32.1703 14.7656 31.5234C14.7656 30.8766 14.2406 30.3516 13.5938 30.3516Z" fill="url(#paint0_linear)"/>
<path d="M56.9531 28.0078C56.9531 25.4231 54.8503 23.3203 52.2656 23.3203H43.5173C44.8717 19.8512 45.4199 15.7679 45.3142 12.1331C45.294 11.4395 45.2674 11.0384 45.2314 10.7858C45.1709 8.25375 43.0917 6.21094 40.5469 6.21094C37.9622 6.21094 35.8594 8.31375 35.8594 10.8984V12.0703C35.8594 19.482 26.3421 23.6462 19.1597 25.4319C18.6166 24.1904 17.377 23.3203 15.9375 23.3203H4.21875C3.57164 23.3203 3.04688 23.8451 3.04688 24.4922V52.6172C3.04688 53.2643 3.57164 53.7891 4.21875 53.7891H15.9375C17.3674 53.7891 18.5999 52.9304 19.1486 51.7021C19.7433 51.8546 20.2954 51.9988 20.805 52.1319C24.8966 53.2005 27.1505 53.7891 32.632 53.7891H45.2344C47.8191 53.7891 49.9219 51.6862 49.9219 49.1016C49.9219 48.1378 49.6293 47.2413 49.1285 46.4955C50.9388 45.8624 52.2656 44.1327 52.2656 42.0703C52.2656 41.1101 51.9802 40.2107 51.4809 39.4615C53.2833 38.8273 54.6094 37.1016 54.6094 35.0391C54.6094 34.0753 54.3168 33.1788 53.816 32.433C55.6263 31.7999 56.9531 30.0702 56.9531 28.0078ZM17.1094 50.2734C17.1094 50.9196 16.5837 51.4453 15.9375 51.4453H5.39062V25.6641H15.9375C16.5837 25.6641 17.1094 26.1898 17.1094 26.8359V50.2734ZM52.2656 30.3516C49.7521 30.3516 49.1529 30.3516 46.4062 30.3516C45.7591 30.3516 45.2344 30.8763 45.2344 31.5234C45.2344 32.1705 45.7591 32.6953 46.4062 32.6953H49.9219C51.2142 32.6953 52.2656 33.7467 52.2656 35.0391C52.2656 36.3335 51.2163 37.3828 49.9219 37.3828H44.0625C43.4154 37.3828 42.8906 37.9076 42.8906 38.5547C42.8906 39.2018 43.4154 39.7266 44.0625 39.7266H47.5781C48.8551 39.7266 49.9219 40.7467 49.9219 42.0703C49.9219 43.3648 48.8726 44.4141 47.5781 44.4141C45.0646 44.4141 44.4654 44.4141 41.7188 44.4141C41.0716 44.4141 40.5469 44.9388 40.5469 45.5859C40.5469 46.233 41.0716 46.7578 41.7188 46.7578H45.2344C46.5267 46.7578 47.5781 47.8092 47.5781 49.1016C47.5781 50.3939 46.5267 51.4453 45.2344 51.4453H32.632C27.4515 51.4453 25.4282 50.9169 21.3973 49.8642C20.8068 49.71 20.1591 49.5409 19.4531 49.3609V27.7764C27.9338 25.7563 38.2031 20.8255 38.2031 12.0703V10.8984C38.2031 9.60609 39.2545 8.55469 40.5469 8.55469C41.8369 8.55469 42.8882 9.60445 42.8906 10.8948V10.8984C42.8906 11.4077 43.5263 17.6582 40.9774 23.3203H37.0312C36.3841 23.3203 35.8594 23.8451 35.8594 24.4922C35.8594 25.1393 36.3841 25.6641 37.0312 25.6641C37.8496 25.6641 50.9299 25.6641 52.2656 25.6641C53.558 25.6641 54.6094 26.7155 54.6094 28.0078C54.6094 29.3023 53.5601 30.3516 52.2656 30.3516Z" fill="url(#paint1_linear)"/>
<path d="M13.5938 35.0391C12.9466 35.0391 12.4219 35.5638 12.4219 36.2109V45.5859C12.4219 46.233 12.9466 46.7578 13.5938 46.7578C14.2409 46.7578 14.7656 46.233 14.7656 45.5859V36.2109C14.7656 35.5638 14.2409 35.0391 13.5938 35.0391Z" fill="url(#paint2_linear)"/>
<defs>
<linearGradient id="paint0_linear" x1="13.34" y1="30.2965" x2="13.34" y2="33.036" gradientUnits="userSpaceOnUse">
<stop stop-color="#FFE249"/>
<stop offset="1" stop-color="#B36C19"/>
</linearGradient>
<linearGradient id="paint1_linear" x1="24.1643" y1="5.0925" x2="24.1643" y2="60.7058" gradientUnits="userSpaceOnUse">
<stop stop-color="#FFE249"/>
<stop offset="1" stop-color="#B36C19"/>
</linearGradient>
<linearGradient id="paint2_linear" x1="13.34" y1="34.7636" x2="13.34" y2="48.4614" gradientUnits="userSpaceOnUse">
<stop stop-color="#FFE249"/>
<stop offset="1" stop-color="#B36C19"/>
</linearGradient>
</defs>
</svg>
