<svg width="6" height="10" viewBox="0 0 6 10" fill="none" xmlns="http://www.w3.org/2000/svg">
<path d="M1 5L0.646447 4.64645C0.451184 4.84171 0.451185 5.15829 0.646447 5.35355L1 5ZM5.35355 1.35355C5.54881 1.15829 5.54881 0.841709 5.35355 0.646447C5.15829 0.451184 4.84171 0.451185 4.64645 0.646447L5.35355 1.35355ZM4.64645 9.35355C4.84171 9.54881 5.15829 9.54881 5.35355 9.35355C5.54882 9.15829 5.54882 8.84171 5.35355 8.64645L4.64645 9.35355ZM1.35355 5.35355L5.35355 1.35355L4.64645 0.646447L0.646447 4.64645L1.35355 5.35355ZM5.35355 8.64645L1.35355 4.64645L0.646447 5.35355L4.64645 9.35355L5.35355 8.64645Z" fill="#7A5F46"/>
</svg>
