<svg width="16" height="17" viewBox="0 0 16 17" fill="none" xmlns="http://www.w3.org/2000/svg">
<path d="M8.70711 16.7071C8.31658 17.0976 7.68342 17.0976 7.29289 16.7071L0.928932 10.3431C0.538408 9.95262 0.538408 9.31946 0.928932 8.92893C1.31946 8.53841 1.95262 8.53841 2.34315 8.92893L8 14.5858L13.6569 8.92893C14.0474 8.53841 14.6805 8.53841 15.0711 8.92893C15.4616 9.31946 15.4616 9.95262 15.0711 10.3431L8.70711 16.7071ZM7 1C7 0.447715 7.44772 -6.58593e-09 8 0C8.55228 6.58593e-09 9 0.447715 9 1L7 1ZM7 16L7 1L9 1L9 16L7 16Z" fill="#7A5F46"/>
</svg>
