<svg width="40" height="40" viewBox="0 0 40 40" fill="none" xmlns="http://www.w3.org/2000/svg">
<path d="M11.169 28.8976L1.03589 29.599C1.03589 32.1148 3.07534 34.1541 5.59105 34.1541H15.4952L11.169 28.8976Z" fill="url(#paint0_radial)"/>
<path d="M9.21356 29.5989C9.21356 29.8453 9.22786 30.0885 9.25559 30.3275V30.3274H6.3302V29.2324L7.81864 29.1294H9.21348V29.5989H9.21356ZM9.88731 32.4276H6.3302V31.2296H9.42817C9.54075 31.6477 9.69536 32.0486 9.88731 32.4276ZM5.5877 32.4276H5.64567V31.2296H3.28091C3.79309 31.9531 4.63606 32.4265 5.5877 32.4276ZM2.85747 30.3274H5.64567V29.2798L2.76239 29.4794V29.5989C2.76231 29.8507 2.79544 30.0949 2.85747 30.3274Z" fill="url(#paint1_radial)"/>
<path d="M15.7465 16.2017L1.03589 16.9021V29.5989H10.94L15.7465 16.2017Z" fill="url(#paint2_radial)"/>
<path d="M34.4089 34.1541H15.4951C12.9793 34.1541 10.9399 32.1147 10.9399 29.5989V16.3834L38.9641 16.902V29.5989C38.9641 32.1147 36.9246 34.1541 34.4089 34.1541Z" fill="url(#paint3_radial)"/>
<path d="M15.4952 14.7512H0V16.9415H10.94L15.4952 14.7512Z" fill="url(#paint4_radial)"/>
<path d="M26.6186 14.7512H40V16.9415H26.6186V14.7512Z" fill="url(#paint5_radial)"/>
<path d="M23.6782 3.79651H24.9846C26.0201 3.79651 26.8597 4.63604 26.8597 5.67159V16.5727C26.8597 17.3743 26.2098 18.0242 25.4081 18.0242H24.1017L24.5857 6.05987L23.6782 3.79651Z" fill="url(#paint6_radial)"/>
<path d="M15.3639 5.59339C15.1304 5.59339 14.9404 5.78339 14.9404 6.0169V14.7514H13.634L13.4743 5.46362L15.3639 5.59339Z" fill="url(#paint7_radial)"/>
<path d="M14.0575 3.79651H23.6781C24.7136 3.79651 25.5532 4.63604 25.5532 5.67159V16.5727C25.5532 17.3743 24.9033 18.0242 24.1016 18.0242V6.57471C24.1016 6.03276 23.6622 5.59338 23.1203 5.59338H14.6153C14.0733 5.59338 13.6339 6.03276 13.6339 6.57471V14.7514H12.1824V5.67159C12.1824 4.63604 13.0219 3.79651 14.0575 3.79651Z" fill="url(#paint8_radial)"/>
<path d="M18.106 32.4276H15.4952C14.5422 32.4276 13.6978 31.9539 13.1851 31.2296H18.106V32.4276ZM18.106 30.3274H12.7617C12.6996 30.0949 12.6665 29.8507 12.6665 29.5989V29.1295H18.106V30.3274H18.106ZM18.106 28.2272H12.6666V27.0292H18.106V28.2272ZM18.106 26.1271H12.6666V24.9291H18.106V26.1271ZM18.106 24.0268H12.6666V22.8289H18.106V24.0268ZM18.106 21.9267H12.6666V20.7286H18.106V21.9267ZM18.106 19.8265H12.6666V18.6285H18.106V19.8265ZM24.4832 32.4276H19.0438V31.2296H24.4832V32.4276ZM24.4832 30.3274H19.0438V29.1295H24.4832V30.3274ZM24.4832 28.2272H19.0438V27.0292H24.4832V28.2272ZM24.4832 26.1271H19.0438V24.9291H24.4832V26.1271ZM24.4832 24.0268H19.0438V22.8289H24.4832V24.0268ZM24.4832 21.9267H19.0438V20.7286H24.4832V21.9267ZM24.4832 19.8265H19.0438V18.6285H24.4832V19.8265ZM30.8604 32.4276H25.421V31.2296H30.8604V32.4276ZM30.8604 30.3274H25.421V29.1295H30.8604V30.3274ZM30.8604 28.2272H25.421V27.0292H30.8604V28.2272ZM30.8604 26.1271H25.421V24.9291H30.8604V26.1271ZM30.8604 24.1731H25.421V22.9427H30.8604V24.1731ZM30.8604 22.016H25.421V20.7856H30.8604V22.016ZM30.8604 19.8265H25.421V18.6285H30.8604V19.8265ZM34.409 32.4276H31.7982V31.2296H36.7192C36.2064 31.9539 35.362 32.4276 34.409 32.4276ZM37.2377 29.5989C37.2377 29.8507 37.2046 30.0949 37.1425 30.3274H31.7981V29.1295H37.2376V29.5989H37.2377ZM37.2377 28.2272H31.7982V27.0292H37.2377V28.2272ZM37.2377 26.1271H31.7982V24.9291H37.2377V26.1271ZM37.2377 24.0268H31.7982V22.8289H37.2377V24.0268ZM37.2377 21.9267H31.7982V20.7286H37.2377V21.9267ZM37.2377 19.8265H31.7982V18.6285H37.2377V19.8265Z" fill="url(#paint9_radial)"/>
<path d="M9.21358 29.1294V29.5989H6.33022V29.1294H9.21358ZM2.76233 26.1271H5.64561V24.9291H2.76233V26.1271ZM2.76233 28.2272H5.64561V27.0292H2.76233V28.2272ZM2.76233 29.1294V29.5989H5.64561V29.1294H2.76233ZM6.33022 19.8265H9.2135V18.6285H6.33022V19.8265ZM6.33022 26.1271H9.2135V24.9291H6.33022V26.1271ZM6.33022 24.0268H9.2135V22.8289H6.33022V24.0268ZM6.33022 21.9267H9.2135V20.7287H6.33022V21.9267ZM6.33022 28.2272H9.2135V27.0292H6.33022V28.2272ZM2.76233 24.0268H5.64561V22.8289H2.76233V24.0268ZM2.76233 21.9267H5.64561V20.7287H2.76233V21.9267ZM2.76233 19.8265H5.64561V18.6285H2.76233V19.8265Z" fill="url(#paint10_radial)"/>
<path d="M9.90417 14.7512H24.8098V16.9415H9.90417V14.7512Z" fill="url(#paint11_radial)"/>
<defs>
<radialGradient id="paint0_radial" cx="0" cy="0" r="1" gradientUnits="userSpaceOnUse" gradientTransform="translate(4.94112 29.615) scale(12.2595 8.09123)">
<stop stop-color="#ECB780"/>
<stop offset="1" stop-color="#F7A831"/>
</radialGradient>
<radialGradient id="paint1_radial" cx="0" cy="0" r="1" gradientUnits="userSpaceOnUse" gradientTransform="translate(4.41739 29.4384) scale(14.3332 9.45992)">
<stop stop-color="#E49542"/>
<stop offset="1" stop-color="#F3AF48"/>
</radialGradient>
<radialGradient id="paint2_radial" cx="0" cy="0" r="1" gradientUnits="userSpaceOnUse" gradientTransform="translate(2.92691 9.45345) scale(7.27603 26.1111)">
<stop offset="0.0132" stop-color="white"/>
<stop offset="1" stop-color="#ECC180"/>
</radialGradient>
<radialGradient id="paint3_radial" cx="0" cy="0" r="1" gradientUnits="userSpaceOnUse" gradientTransform="translate(28.9213 26.6317) rotate(180) scale(23.1205 16.0225)">
<stop stop-color="#ECB780"/>
<stop offset="0.8925" stop-color="#EFB55F"/>
</radialGradient>
<radialGradient id="paint4_radial" cx="0" cy="0" r="1" gradientUnits="userSpaceOnUse" gradientTransform="translate(1.99188 13.648) scale(7.66406 4.26889)">
<stop offset="0.0132" stop-color="white"/>
<stop offset="1" stop-color="#ECC180"/>
</radialGradient>
<radialGradient id="paint5_radial" cx="0" cy="0" r="1" gradientUnits="userSpaceOnUse" gradientTransform="translate(36.2522 16.0399) rotate(180) scale(9.75428 13.3852)">
<stop stop-color="#F9CB9C"/>
<stop offset="1" stop-color="#E0A64E"/>
</radialGradient>
<radialGradient id="paint6_radial" cx="0" cy="0" r="1" gradientUnits="userSpaceOnUse" gradientTransform="translate(25.9686 12.1676) rotate(180) scale(2.31912 86.9499)">
<stop stop-color="#F9CB9C"/>
<stop offset="1" stop-color="#C88829"/>
</radialGradient>
<radialGradient id="paint7_radial" cx="0" cy="0" r="1" gradientUnits="userSpaceOnUse" gradientTransform="translate(14.8347 10.9282) rotate(180) scale(1.37742 56.7601)">
<stop stop-color="#F9CB9C"/>
<stop offset="1" stop-color="#C88829"/>
</radialGradient>
<radialGradient id="paint8_radial" cx="0" cy="0" r="1" gradientUnits="userSpaceOnUse" gradientTransform="translate(21.8083 12.1676) rotate(180) scale(9.74653 86.9499)">
<stop stop-color="#F9CB9C"/>
<stop offset="0.96875" stop-color="#F8CA86"/>
</radialGradient>
<radialGradient id="paint9_radial" cx="0" cy="0" r="1" gradientUnits="userSpaceOnUse" gradientTransform="translate(28.4323 26.5834) rotate(180) scale(19.4722 13.4942)">
<stop stop-color="#E7A561"/>
<stop offset="1" stop-color="#B37D2C"/>
</radialGradient>
<radialGradient id="paint10_radial" cx="0" cy="0" r="1" gradientUnits="userSpaceOnUse" gradientTransform="translate(1.18699 16.4221) rotate(68.9008) scale(19.51 11.4197)">
<stop offset="0.0132" stop-color="#FFEAD8"/>
<stop offset="0.074" stop-color="#FBE0C7"/>
<stop offset="0.2065" stop-color="#F5CEA8"/>
<stop offset="0.3356" stop-color="#F0C192"/>
<stop offset="0.4587" stop-color="#EDBA85"/>
<stop offset="0.5693" stop-color="#ECB780"/>
<stop offset="0.8521" stop-color="#E69F54"/>
<stop offset="1" stop-color="#E49542"/>
</radialGradient>
<radialGradient id="paint11_radial" cx="0" cy="0" r="1" gradientUnits="userSpaceOnUse" gradientTransform="translate(20.6351 16.0399) rotate(180) scale(10.8653 13.3852)">
<stop stop-color="#F9CB9C"/>
<stop offset="1" stop-color="#E0A64E"/>
</radialGradient>
</defs>
</svg>
