<svg width="30" height="30" viewBox="0 0 30 30" fill="none" xmlns="http://www.w3.org/2000/svg">
<g clip-path="url(#clip0)">
<path d="M18.1449 19.9888L16.3006 21.8331C16.0069 22.1242 15.551 22.1745 15.201 21.9538C15.1993 21.9525 15.1918 21.9453 15.1898 21.9443C12.66 20.2783 10.4961 18.1143 8.83005 15.5845C8.82857 15.583 8.81443 15.5676 8.81328 15.5661C8.59224 15.2158 8.64174 14.7597 8.93268 14.4652L10.777 12.6209C11.6581 11.7397 11.6675 10.367 10.8001 9.49959L7.86992 6.56937C7.00962 5.70052 5.60791 5.69377 4.73938 6.55407L3.96888 7.32458C0.813672 10.4798 0.317819 15.3852 2.78985 18.9884L3.93072 20.6516C5.59245 23.0768 7.68918 25.1735 10.1145 26.8354L11.7775 27.9761C15.3806 30.448 20.2855 29.9526 23.4412 26.7969L24.1971 26.041C25.0658 25.1802 25.0718 23.7785 24.2109 22.9103L21.2662 19.9656C20.3988 19.0983 19.0261 19.1076 18.1449 19.9888ZM23.1439 23.9484C23.4315 24.2262 23.4391 24.6844 23.1611 24.9719C23.1557 24.9773 23.1501 24.9829 23.1445 24.9885L22.3886 25.7443C19.7401 28.3928 15.6317 28.8153 12.6193 26.7485L10.9567 25.6077C8.68204 24.0494 6.71638 22.0837 5.15811 19.8091L4.01707 18.1464C1.95043 15.1341 2.37294 11.0256 5.02144 8.37714L5.77731 7.62127C6.05541 7.33395 6.51377 7.32688 6.80059 7.60515L9.74759 10.5521C10.0346 10.8391 10.0252 11.2676 9.7244 11.5684L7.88012 13.4126C7.08938 14.2083 6.96127 15.4485 7.57257 16.3894C7.57422 16.3914 7.58178 16.3996 7.5831 16.4019C9.35765 19.0948 11.6616 21.3988 14.3547 23.1735C14.3571 23.1749 14.3729 23.1901 14.3749 23.1917C15.3161 23.8034 16.5562 23.6761 17.3531 22.8857L19.1974 21.0414C19.4982 20.7406 19.9266 20.7312 20.2136 21.0182L23.1439 23.9484Z" fill="url(#paint0_linear)"/>
<path d="M13.3763 1.947C13.381 2.35799 13.7182 2.68725 14.129 2.68264C17.9023 2.6384 21.4313 4.06461 24.0661 6.69946C26.701 9.33431 28.1272 12.8633 28.0828 16.6364C28.0761 17.0474 28.404 17.3859 28.815 17.3926C29.2261 17.3992 29.5646 17.0716 29.5713 16.6606L29.5715 16.6539C29.6208 12.4765 28.0395 8.56775 25.1187 5.6469C22.1978 2.72606 18.2891 1.14475 14.1117 1.19409C13.7006 1.19903 13.3715 1.53634 13.3763 1.947Z" fill="url(#paint1_linear)"/>
<path d="M14.0545 6.03685C13.7874 6.03718 13.5411 6.18027 13.4088 6.41216C13.2763 6.64405 13.2786 6.92923 13.4141 7.15914C13.55 7.38906 13.7983 7.52886 14.0652 7.5254L14.072 7.52524C19.0497 7.43922 23.1549 11.4049 23.2409 16.3827C23.2425 16.4863 23.2425 16.5899 23.2407 16.694C23.234 17.105 23.5619 17.4435 23.9729 17.4502C24.3837 17.4571 24.7224 17.129 24.7293 16.7182L24.7289 16.7113C24.8247 10.9117 20.2006 6.13274 14.4009 6.03685C14.2853 6.03472 14.17 6.03488 14.0545 6.03685Z" fill="url(#paint2_linear)"/>
<path d="M13.2567 12.0905C13.2615 12.5014 13.5984 12.8309 14.0096 12.8259C16.1422 12.7883 17.9016 14.4865 17.9396 16.6194C17.9406 16.6651 17.9404 16.7107 17.9399 16.7562C17.933 17.1671 18.2609 17.5059 18.6718 17.5121C19.0826 17.519 19.4216 17.1912 19.428 16.7806L19.4281 16.7735C19.4758 13.8191 17.1191 11.3851 14.1645 11.3372C14.1066 11.3362 14.0491 11.3362 13.9918 11.3372C13.5807 11.3422 13.2514 11.6796 13.2567 12.0905Z" fill="url(#paint3_linear)"/>
</g>
<defs>
<linearGradient id="paint0_linear" x1="0.184306" y1="10.1937" x2="22.9452" y2="32.9545" gradientUnits="userSpaceOnUse">
<stop stop-color="#FFE249"/>
<stop offset="1" stop-color="#B36C19"/>
</linearGradient>
<linearGradient id="paint1_linear" x1="14.3304" y1="-0.0650233" x2="32.753" y2="18.3576" gradientUnits="userSpaceOnUse">
<stop stop-color="#FFE249"/>
<stop offset="1" stop-color="#B36C19"/>
</linearGradient>
<linearGradient id="paint2_linear" x1="13.9827" y1="5.28481" x2="26.8169" y2="18.1191" gradientUnits="userSpaceOnUse">
<stop stop-color="#FFE249"/>
<stop offset="1" stop-color="#B36C19"/>
</linearGradient>
<linearGradient id="paint3_linear" x1="13.6136" y1="11.1464" x2="20.32" y2="17.8528" gradientUnits="userSpaceOnUse">
<stop stop-color="#FFE249"/>
<stop offset="1" stop-color="#B36C19"/>
</linearGradient>
<clipPath id="clip0">
<rect width="30" height="30" fill="white"/>
</clipPath>
</defs>
</svg>
