<svg width="60" height="60" viewBox="0 0 60 60" fill="none" xmlns="http://www.w3.org/2000/svg">
<path d="M18.2812 48.75C17.6344 48.75 17.1094 49.275 17.1094 49.9219C17.1094 50.5688 17.6344 51.0938 18.2812 51.0938C18.9281 51.0938 19.4531 50.5688 19.4531 49.9219C19.4531 49.275 18.9281 48.75 18.2812 48.75Z" fill="url(#paint0_linear)"/>
<path d="M50.625 27.6562C49.226 27.6562 47.9689 28.2731 47.1094 29.2482C46.2498 28.2731 44.9927 27.6562 43.5938 27.6562C41.0091 27.6562 38.9062 29.7591 38.9062 32.3438C38.9062 34.9284 41.0091 37.0312 43.5938 37.0312C44.9927 37.0312 46.2498 36.4144 47.1094 35.4393C47.9689 36.4144 49.226 37.0312 50.625 37.0312C53.2097 37.0312 55.3125 34.9284 55.3125 32.3438C55.3125 29.7591 53.2097 27.6562 50.625 27.6562ZM43.5938 34.6875C42.3014 34.6875 41.25 33.6361 41.25 32.3438C41.25 31.0514 42.3014 30 43.5938 30C44.8861 30 45.9375 31.0514 45.9375 32.3438C45.9375 33.6361 44.8861 34.6875 43.5938 34.6875ZM50.625 34.6875C49.3327 34.6875 48.2812 33.6361 48.2812 32.3438C48.2812 31.0514 49.3327 30 50.625 30C51.9173 30 52.9688 31.0514 52.9688 32.3438C52.9688 33.6361 51.9173 34.6875 50.625 34.6875Z" fill="url(#paint1_linear)"/>
<path d="M56.4844 22.9688H50.625V5.39062C50.625 3.45211 49.0479 1.875 47.1094 1.875H3.51562C1.57711 1.875 0 3.45211 0 5.39062V33.5156C0 35.4541 1.57711 37.0312 3.51562 37.0312H10.0781V54.6094C10.0781 56.5479 11.6552 58.125 13.5938 58.125H56.4844C58.4229 58.125 60 56.5479 60 54.6094V26.4844C60 24.5459 58.4229 22.9688 56.4844 22.9688ZM2.34375 5.39062C2.34375 4.74445 2.86945 4.21875 3.51562 4.21875H47.1094C47.7555 4.21875 48.2812 4.74445 48.2812 5.39062V8.90625H2.34375V5.39062ZM2.34375 11.25H48.2812V15.9375H2.34375V11.25ZM10.0781 26.4844V34.6875H3.51562C2.86945 34.6875 2.34375 34.1618 2.34375 33.5156V18.2812H48.2812V22.9688H13.5938C11.6552 22.9688 10.0781 24.5459 10.0781 26.4844ZM57.6562 54.6094C57.6562 55.2555 57.1305 55.7812 56.4844 55.7812H13.5938C12.9476 55.7812 12.4219 55.2555 12.4219 54.6094V26.4844C12.4219 25.8382 12.9476 25.3125 13.5938 25.3125H56.4844C57.1305 25.3125 57.6562 25.8382 57.6562 26.4844V54.6094Z" fill="url(#paint2_linear)"/>
<path d="M30.3516 28.8281H18.2812C17.6341 28.8281 17.1094 29.3529 17.1094 30V34.6875C17.1094 35.3346 17.6341 35.8594 18.2812 35.8594H30.3516C30.9987 35.8594 31.5234 35.3346 31.5234 34.6875V30C31.5234 29.3529 30.9987 28.8281 30.3516 28.8281ZM29.1797 33.5156H19.4531V31.1719H29.1797V33.5156Z" fill="url(#paint3_linear)"/>
<path d="M23.3203 41.7188H18.2812C17.6341 41.7188 17.1094 42.2435 17.1094 42.8906C17.1094 43.5377 17.6341 44.0625 18.2812 44.0625H23.3203C23.9674 44.0625 24.4922 43.5377 24.4922 42.8906C24.4922 42.2435 23.9674 41.7188 23.3203 41.7188Z" fill="url(#paint4_linear)"/>
<path d="M32.6953 41.7188H28.0078C27.3607 41.7188 26.8359 42.2435 26.8359 42.8906C26.8359 43.5377 27.3607 44.0625 28.0078 44.0625H32.6953C33.3424 44.0625 33.8672 43.5377 33.8672 42.8906C33.8672 42.2435 33.3424 41.7188 32.6953 41.7188Z" fill="url(#paint5_linear)"/>
<path d="M35.3906 48.75H23.3203C22.6732 48.75 22.1484 49.2748 22.1484 49.9219C22.1484 50.569 22.6732 51.0938 23.3203 51.0938H35.3906C36.0377 51.0938 36.5625 50.569 36.5625 49.9219C36.5625 49.2748 36.0377 48.75 35.3906 48.75Z" fill="url(#paint6_linear)"/>
<path d="M42.4219 41.7188H37.7344C37.0873 41.7188 36.5625 42.2435 36.5625 42.8906C36.5625 43.5377 37.0873 44.0625 37.7344 44.0625H42.4219C43.069 44.0625 43.5938 43.5377 43.5938 42.8906C43.5938 42.2435 43.069 41.7188 42.4219 41.7188Z" fill="url(#paint7_linear)"/>
<path d="M51.7969 41.7188H47.1094C46.4623 41.7188 45.9375 42.2435 45.9375 42.8906C45.9375 43.5377 46.4623 44.0625 47.1094 44.0625H51.7969C52.444 44.0625 52.9688 43.5377 52.9688 42.8906C52.9688 42.2435 52.444 41.7188 51.7969 41.7188Z" fill="url(#paint8_linear)"/>
<defs>
<linearGradient id="paint0_linear" x1="18.0275" y1="48.6949" x2="18.0275" y2="51.4345" gradientUnits="userSpaceOnUse">
<stop stop-color="#FFE249"/>
<stop offset="1" stop-color="#B36C19"/>
</linearGradient>
<linearGradient id="paint1_linear" x1="45.3333" y1="27.4359" x2="45.3333" y2="38.3941" gradientUnits="userSpaceOnUse">
<stop stop-color="#FFE249"/>
<stop offset="1" stop-color="#B36C19"/>
</linearGradient>
<linearGradient id="paint2_linear" x1="23.5046" y1="0.552706" x2="23.5046" y2="66.3024" gradientUnits="userSpaceOnUse">
<stop stop-color="#FFE249"/>
<stop offset="1" stop-color="#B36C19"/>
</linearGradient>
<linearGradient id="paint3_linear" x1="22.756" y1="28.6628" x2="22.756" y2="36.8815" gradientUnits="userSpaceOnUse">
<stop stop-color="#FFE249"/>
<stop offset="1" stop-color="#B36C19"/>
</linearGradient>
<linearGradient id="paint4_linear" x1="20.0015" y1="41.6637" x2="20.0015" y2="44.4032" gradientUnits="userSpaceOnUse">
<stop stop-color="#FFE249"/>
<stop offset="1" stop-color="#B36C19"/>
</linearGradient>
<linearGradient id="paint5_linear" x1="29.5904" y1="41.6637" x2="29.5904" y2="44.4032" gradientUnits="userSpaceOnUse">
<stop stop-color="#FFE249"/>
<stop offset="1" stop-color="#B36C19"/>
</linearGradient>
<linearGradient id="paint6_linear" x1="27.7951" y1="48.6949" x2="27.7951" y2="51.4345" gradientUnits="userSpaceOnUse">
<stop stop-color="#FFE249"/>
<stop offset="1" stop-color="#B36C19"/>
</linearGradient>
<linearGradient id="paint7_linear" x1="39.3169" y1="41.6637" x2="39.3169" y2="44.4032" gradientUnits="userSpaceOnUse">
<stop stop-color="#FFE249"/>
<stop offset="1" stop-color="#B36C19"/>
</linearGradient>
<linearGradient id="paint8_linear" x1="48.6919" y1="41.6637" x2="48.6919" y2="44.4032" gradientUnits="userSpaceOnUse">
<stop stop-color="#FFE249"/>
<stop offset="1" stop-color="#B36C19"/>
</linearGradient>
</defs>
</svg>
