<svg width="20" height="20" viewBox="0 0 20 20" fill="none" xmlns="http://www.w3.org/2000/svg">
<path d="M13.9394 2.5C12.4659 2.5 11.1742 3.15704 10.2039 4.40013C10.0745 4.56592 9.95918 4.73178 9.85695 4.89241C9.75471 4.73174 9.63936 4.56592 9.50997 4.40013C8.53968 3.15704 7.24795 2.5 5.77445 2.5C2.99088 2.5 1 4.83073 1 7.62748C1 10.8254 3.621 13.8393 9.49841 17.3999C9.60861 17.4666 9.73278 17.5 9.85695 17.5C9.98112 17.5 10.1053 17.4666 10.2155 17.3999C16.0929 13.8394 18.7139 10.8255 18.7139 7.62751C18.7139 4.83221 16.7246 2.5 13.9394 2.5Z" fill="url(#paint0_linear)"/>
<defs>
<linearGradient id="paint0_linear" x1="7.93931" y1="2.14739" x2="7.9393" y2="19.6806" gradientUnits="userSpaceOnUse">
<stop stop-color="#FFE249"/>
<stop offset="1" stop-color="#B36C19"/>
</linearGradient>
</defs>
</svg>
