<svg width="60" height="60" viewBox="0 0 60 60" fill="none" xmlns="http://www.w3.org/2000/svg">
<path d="M53.6684 23.655H53.319V17.9203C53.319 15.1422 51.5394 12.7731 49.0604 11.8902L47.0451 5.6912C46.9577 5.42249 46.7654 5.20042 46.5119 5.07573C46.2583 4.95081 45.9651 4.9337 45.6989 5.02874L42.7488 6.0778L41.7133 2.89394C41.6259 2.62523 41.4336 2.40339 41.1801 2.27859C40.9268 2.15378 40.6334 2.13679 40.3674 2.23136L25.8644 7.38702C24.4846 3.1064 20.4643 0 15.7308 0C9.86065 0 5.0848 4.77562 5.0848 10.6458C5.0848 10.9369 5.09992 11.2289 5.12371 11.5207H3.77523C3.19703 11.5207 2.72852 11.9893 2.72852 12.5674V49.3581C2.72852 49.9362 3.19703 50.4048 3.77523 50.4048H6.60413L29.1593 59.9175C29.2914 59.9732 29.4294 59.9999 29.5656 59.9999C29.9131 59.9999 30.2494 59.8262 30.4468 59.5184L33.5925 54.6171L42.3174 56.5376C42.3931 56.5542 42.4686 56.5623 42.5431 56.5623C42.9975 56.5623 43.4121 56.265 43.5462 55.8127L45.1486 50.4049H46.9194C50.4482 50.4049 53.3192 47.534 53.3192 44.0052V38.2705H53.6687C55.6554 38.2705 57.2718 36.6542 57.2718 34.6674V27.2581C57.2715 25.2712 55.6551 23.655 53.6684 23.655ZM45.3866 7.3617L46.7387 11.5206H44.5188L43.3964 8.06928L45.3866 7.3617ZM40.0552 4.56433L42.3174 11.5208H26.3376C26.3616 11.2292 26.3764 10.9371 26.3764 10.6459C26.3764 10.2419 26.3517 9.84397 26.3076 9.45139L40.0552 4.56433ZM15.7308 2.09355C20.4464 2.09355 24.2829 5.93003 24.2829 10.6458C24.2829 10.9369 24.2677 11.2291 24.2381 11.5207H21.7421C21.7836 11.2328 21.8048 10.9407 21.8048 10.6458C21.8048 7.29643 19.08 4.57148 15.7307 4.57148C12.3813 4.57148 9.65628 7.29643 9.65628 10.6458C9.65628 10.9408 9.67749 11.2328 9.71897 11.5207H7.22312C7.1937 11.229 7.17835 10.9366 7.17835 10.6458C7.17835 5.93003 11.0149 2.09355 15.7308 2.09355ZM19.7113 10.6456C19.7113 10.9432 19.6779 11.2356 19.6141 11.5206H11.847C11.7832 11.2356 11.7498 10.9433 11.7498 10.6456C11.7498 8.45061 13.5356 6.66479 15.7307 6.66479C17.9257 6.66479 19.7113 8.45061 19.7113 10.6456ZM29.1608 57.6461L11.9913 50.4049H14.4553L31.4129 54.1375L29.1608 57.6461ZM41.8156 54.2835L24.1944 50.4048H42.9646L41.8156 54.2835ZM51.2255 44.0052H51.2254C51.2254 46.3796 49.2936 48.3114 46.9191 48.3114H4.82207V13.6141H46.9193C49.2937 13.6141 51.2255 15.5459 51.2255 17.9203V23.655H38.2535C36.2667 23.655 34.6503 25.2713 34.6503 27.2581V34.6674C34.6503 36.6542 36.2667 38.2705 38.2535 38.2705H51.2255V44.0052ZM55.1779 34.6675C55.1779 35.4999 54.5006 36.1771 53.6683 36.1771H38.2534C37.421 36.1771 36.7438 35.4999 36.7438 34.6675V27.2582C36.7438 26.4258 37.4211 25.7486 38.2534 25.7486H53.6683C54.5007 25.7486 55.1779 26.4258 55.1779 27.2582V34.6675Z" fill="url(#paint0_linear)"/>
<path d="M42.7708 27.2555C40.7267 27.2555 39.0635 28.9186 39.0635 30.9627C39.0635 33.0068 40.7266 34.67 42.7708 34.67C44.815 34.67 46.4781 33.0068 46.4781 30.9627C46.4781 28.9186 44.8151 27.2555 42.7708 27.2555ZM42.7708 32.5764C41.8809 32.5764 41.157 31.8524 41.157 30.9627C41.157 30.0731 41.881 29.3491 42.7708 29.3491C43.6606 29.3491 44.3846 30.0731 44.3846 30.9627C44.3846 31.8524 43.6607 32.5764 42.7708 32.5764Z" fill="url(#paint1_linear)"/>
<defs>
<linearGradient id="paint0_linear" x1="24.0955" y1="-1.41044" x2="24.0955" y2="68.7224" gradientUnits="userSpaceOnUse">
<stop stop-color="#FFE249"/>
<stop offset="1" stop-color="#B36C19"/>
</linearGradient>
<linearGradient id="paint1_linear" x1="41.9681" y1="27.0812" x2="41.9681" y2="35.7478" gradientUnits="userSpaceOnUse">
<stop stop-color="#FFE249"/>
<stop offset="1" stop-color="#B36C19"/>
</linearGradient>
</defs>
</svg>
