<svg width="22" height="22" viewBox="0 0 22 22" fill="none" xmlns="http://www.w3.org/2000/svg">
<g clip-path="url(#clip0)">
<path d="M20.5469 8.33489L21.1914 7.69045C21.3777 7.50418 21.4803 7.25646 21.4803 6.99302C21.4803 6.72958 21.3777 6.48187 21.1914 6.2956L20.4533 5.55744C20.267 5.37117 20.0193 5.26856 19.7559 5.26856C19.4924 5.26856 19.2447 5.37117 19.0585 5.55744L18.414 6.20193C17.5634 5.61605 16.5982 5.18533 15.5592 4.95102V3.99845H15.9513C16.4823 3.99845 16.9143 3.56644 16.9143 3.03548V1.6958C16.9143 1.16479 16.4823 0.732788 15.9513 0.732788H11.5179C10.987 0.732788 10.555 1.16479 10.555 1.6958V3.03544C10.555 3.5664 10.987 3.99841 11.5179 3.99841H11.91V4.95364C10.8758 5.1886 9.91493 5.61833 9.06772 6.20188L8.42323 5.5574C8.23696 5.37113 7.98925 5.26852 7.72585 5.26852C7.46237 5.26852 7.2147 5.37113 7.02843 5.5574L6.29027 6.29555C5.90574 6.68012 5.90574 7.30583 6.29027 7.6904L6.40452 7.80466H3.35873C3.12146 7.80466 2.92904 7.99703 2.92904 8.23434C2.92904 8.47166 3.12146 8.66403 3.35873 8.66403H6.71935C6.39919 9.1797 6.13412 9.73288 5.93264 10.3156H0.429687C0.192414 10.3156 0 10.508 0 10.7453C0 10.9826 0.192414 11.175 0.429687 11.175H5.68699C5.56577 11.708 5.49625 12.2603 5.48396 12.8266H2.74999C2.51272 12.8266 2.32031 13.0189 2.32031 13.2563C2.32031 13.4936 2.51272 13.6859 2.74999 13.6859H5.50966C5.55611 14.2546 5.66048 14.807 5.81671 15.3375H2.14843C1.91116 15.3375 1.71875 15.5299 1.71875 15.7672C1.71875 16.0045 1.91116 16.1969 2.14843 16.1969H6.12235C7.37243 19.1723 10.3165 21.2672 13.7408 21.2672C18.2949 21.2672 22 17.5622 22 13.008C22 11.2747 21.4628 9.66473 20.5469 8.33489ZM19.6661 6.1651C19.6968 6.13438 19.7319 6.12793 19.7559 6.12793C19.7799 6.12793 19.8149 6.13438 19.8456 6.1651L20.5838 6.90326C20.6145 6.93398 20.621 6.96904 20.621 6.99302C20.621 7.017 20.6145 7.05206 20.5838 7.08278L20.0188 7.64769C19.7373 7.31847 19.4304 7.01158 19.1012 6.73005L19.6661 6.1651ZM11.4143 3.03548V1.6958C11.4143 1.63865 11.4608 1.59216 11.5179 1.59216H15.9513C16.0084 1.59216 16.0549 1.63865 16.0549 1.6958V3.03544C16.0549 3.09258 16.0084 3.13903 15.9513 3.13903H15.1295H12.3397H11.5179C11.4608 3.13908 11.4143 3.09258 11.4143 3.03548ZM12.7694 3.99845H14.6998V4.80484C14.3851 4.76828 14.0652 4.74885 13.7409 4.74885C13.4122 4.74885 13.0882 4.76875 12.7694 4.80626V3.99845H12.7694ZM6.89789 6.90322L7.63605 6.16506C7.66677 6.13434 7.70179 6.12789 7.72581 6.12789C7.74978 6.12789 7.78485 6.13434 7.81557 6.16506L8.38048 6.73001C8.05125 7.01154 7.74437 7.31842 7.46284 7.64765L6.89789 7.08274C6.84839 7.03328 6.84839 6.95272 6.89789 6.90322ZM13.7408 20.4078C9.66056 20.4078 6.34101 17.0883 6.34101 13.008C6.34101 8.92773 9.66056 5.60818 13.7408 5.60818C17.8211 5.60818 21.1406 8.92773 21.1406 13.008C21.1406 17.0883 17.8211 20.4078 13.7408 20.4078Z" fill="#7A5F46"/>
<path d="M16.5769 9.5642L14.5457 11.5954C14.3082 11.4595 14.0335 11.3814 13.7408 11.3814C12.8439 11.3814 12.1143 12.111 12.1143 13.008C12.1143 13.9049 12.8439 14.6345 13.7408 14.6345C14.6377 14.6345 15.3673 13.9049 15.3673 13.008C15.3673 12.7153 15.2892 12.4406 15.1534 12.2031L17.1845 10.1719C17.3523 10.0041 17.3523 9.73204 17.1845 9.5642C17.0167 9.39641 16.7447 9.39641 16.5769 9.5642ZM13.7408 13.7752C13.3178 13.7752 12.9736 13.431 12.9736 13.008C12.9736 12.585 13.3178 12.2408 13.7408 12.2408C14.1638 12.2408 14.508 12.585 14.508 13.008C14.508 13.431 14.1638 13.7752 13.7408 13.7752Z" fill="#7A5F46"/>
<path d="M13.7412 7.43713C13.8542 7.43713 13.9651 7.39116 14.045 7.31124C14.1249 7.23131 14.1709 7.12045 14.1709 7.00745C14.1709 6.89444 14.1249 6.78358 14.045 6.70366C13.9651 6.62374 13.8542 6.57776 13.7412 6.57776C13.6282 6.57776 13.5173 6.62374 13.4374 6.70366C13.3575 6.78358 13.3115 6.89444 13.3115 7.00745C13.3115 7.12088 13.3575 7.23131 13.4374 7.31124C13.5174 7.39116 13.6282 7.43713 13.7412 7.43713Z" fill="#7A5F46"/>
<path d="M13.7412 18.5789C13.6282 18.5789 13.5173 18.6248 13.4374 18.7048C13.3575 18.7847 13.3115 18.8955 13.3115 19.0085C13.3115 19.122 13.3575 19.2324 13.4374 19.3123C13.5173 19.3927 13.6282 19.4382 13.7412 19.4382C13.8542 19.4382 13.9651 19.3927 14.045 19.3123C14.1249 19.2324 14.1709 19.1216 14.1709 19.0085C14.1709 18.8955 14.1249 18.7847 14.045 18.7048C13.9651 18.6248 13.8542 18.5789 13.7412 18.5789Z" fill="#7A5F46"/>
<path d="M9.49805 8.33508C9.38504 8.33508 9.27418 8.38106 9.19426 8.46098C9.11434 8.5409 9.06836 8.65176 9.06836 8.76477C9.06836 8.87821 9.11429 8.98864 9.19426 9.06899C9.27418 9.14891 9.38504 9.19446 9.49805 9.19446C9.61105 9.19446 9.72191 9.14891 9.80179 9.06899C9.88171 8.98864 9.92773 8.87821 9.92773 8.76477C9.92773 8.65176 9.88176 8.54133 9.80179 8.46098C9.72191 8.38106 9.61105 8.33508 9.49805 8.33508Z" fill="#7A5F46"/>
<path d="M17.9844 16.8214C17.8709 16.8214 17.7605 16.8674 17.6802 16.9473C17.6002 17.0272 17.5547 17.1381 17.5547 17.2511C17.5547 17.3641 17.6002 17.475 17.6802 17.5549C17.7605 17.6348 17.8709 17.6808 17.9844 17.6808C18.0974 17.6808 18.2082 17.6348 18.2881 17.5549C18.368 17.475 18.4141 17.3641 18.4141 17.2511C18.4141 17.1381 18.3681 17.0272 18.2881 16.9473C18.2082 16.8674 18.0974 16.8214 17.9844 16.8214Z" fill="#7A5F46"/>
<path d="M9.49805 16.8214C9.38504 16.8214 9.27418 16.8674 9.19426 16.9473C9.11434 17.0272 9.06836 17.1381 9.06836 17.2511C9.06836 17.3641 9.11429 17.475 9.19426 17.5549C9.27422 17.6348 9.38504 17.6808 9.49805 17.6808C9.61105 17.6808 9.72191 17.6348 9.80179 17.5549C9.88171 17.475 9.92773 17.3641 9.92773 17.2511C9.92773 17.1381 9.88176 17.0272 9.80179 16.9473C9.72191 16.8674 9.61105 16.8214 9.49805 16.8214Z" fill="#7A5F46"/>
<path d="M7.74121 12.5782C7.62777 12.5782 7.51734 12.6242 7.43742 12.7041C7.35711 12.7841 7.31152 12.8949 7.31152 13.0079C7.31152 13.1209 7.35711 13.2318 7.43742 13.3117C7.51734 13.3921 7.62782 13.4376 7.74121 13.4376C7.85422 13.4376 7.96508 13.3921 8.045 13.3117C8.12488 13.2318 8.1709 13.1209 8.1709 13.0079C8.1709 12.8949 8.12492 12.7841 8.045 12.7041C7.96508 12.6242 7.85422 12.5782 7.74121 12.5782Z" fill="#7A5F46"/>
<path d="M20.045 12.7041C19.9651 12.6242 19.8542 12.5782 19.7412 12.5782C19.6278 12.5782 19.5173 12.6242 19.4375 12.7041C19.3575 12.7841 19.3115 12.8949 19.3115 13.0079C19.3115 13.1214 19.3575 13.2318 19.4375 13.3117C19.5173 13.3916 19.6282 13.4376 19.7412 13.4376C19.8542 13.4376 19.9651 13.3916 20.045 13.3117C20.1249 13.2318 20.1709 13.1209 20.1709 13.0079C20.1709 12.8949 20.1249 12.7841 20.045 12.7041Z" fill="#7A5F46"/>
<path d="M0.429688 15.3376C0.31668 15.3376 0.20582 15.3832 0.125898 15.4631C0.0459766 15.5435 0 15.6539 0 15.7673C0 15.8803 0.0459336 15.9908 0.125898 16.0711C0.20582 16.151 0.31668 16.197 0.429688 16.197C0.542695 16.197 0.653555 16.151 0.733434 16.0711C0.813356 15.9912 0.859375 15.8803 0.859375 15.7673C0.859375 15.6539 0.813398 15.543 0.733434 15.4631C0.653555 15.3832 0.542695 15.3376 0.429688 15.3376Z" fill="#7A5F46"/>
<path d="M19.616 11.7034C19.8434 11.6356 19.9728 11.3963 19.9051 11.1689C19.6013 10.1496 19.0406 9.21159 18.2837 8.45628C17.5267 7.70089 16.5874 7.14225 15.5672 6.84074C15.3397 6.77345 15.1007 6.90343 15.0334 7.131C14.9661 7.35856 15.0961 7.59759 15.3237 7.66484C17.1367 8.2007 18.5415 9.60239 19.0815 11.4143C19.1371 11.6008 19.308 11.7214 19.4931 11.7214C19.5337 11.7214 19.575 11.7156 19.616 11.7034Z" fill="#7A5F46"/>
</g>
<defs>
<clipPath id="clip0">
<rect width="22" height="22" fill="white"/>
</clipPath>
</defs>
</svg>
