<svg width="18" height="18" viewBox="0 0 18 18" fill="none" xmlns="http://www.w3.org/2000/svg">
<g clip-path="url(#clip0)">
<path d="M6.43453 3.46836C6.43453 3.35632 6.45011 3.11436 6.48128 2.74403C6.51478 2.37292 6.65503 1.9847 6.90671 1.57702C7.15605 1.1709 7.56045 0.806016 8.12302 0.483143C8.68326 0.161826 9.49283 0 10.5494 0H13.5259V3.23884H11.3465C11.1307 3.23884 10.9297 3.31976 10.7481 3.47925C10.5681 3.63874 10.4754 3.79045 10.4754 3.93127V5.94631H13.5251C13.4932 6.34076 13.4581 6.72432 13.4176 7.09465L13.2968 8.07338C13.2485 8.40403 13.1994 8.71057 13.1511 8.99299H10.4536V17.9727H6.43453V8.99221H4.47409V5.94631H6.43453V3.46836Z" fill="#7A5F46"/>
</g>
<defs>
<clipPath id="clip0">
<rect width="18" height="17.9727" fill="white"/>
</clipPath>
</defs>
</svg>
