<svg width="164" height="172" viewBox="0 0 164 172" fill="none" xmlns="http://www.w3.org/2000/svg">
<g opacity="0.4">
<path d="M149.397 130.89C148.755 130.878 148.119 130.74 147.539 130.476C146.965 130.217 146.454 129.843 146.018 129.383C145.581 128.917 145.232 128.365 144.995 127.772C144.752 127.145 144.627 126.472 144.633 125.799C144.646 124.753 144.858 123.717 145.269 122.757C145.662 121.854 146.223 121.037 146.928 120.347C147.632 119.668 148.462 119.127 149.366 118.765C150.313 118.391 151.323 118.207 152.346 118.218C153.387 118.236 154.409 118.489 155.357 118.92C156.317 119.369 157.184 120.001 157.926 120.761C158.668 121.537 159.272 122.435 159.69 123.424C160.108 124.419 160.326 125.483 160.32 126.559C160.301 128.008 159.971 129.435 159.372 130.758C158.78 132.046 157.938 133.202 156.91 134.18C155.881 135.152 154.678 135.929 153.368 136.469C152.053 137.004 150.637 137.286 149.21 137.269C147.664 137.246 146.149 136.815 144.777 136.119C143.131 135.279 141.703 134.065 140.531 132.644C139.078 130.878 138.019 128.819 137.289 126.662C136.354 123.867 135.949 120.916 135.899 117.977C135.805 111.851 136.416 105.236 139.378 99.7543C140.456 97.7814 141.903 95.9637 143.854 94.7961C145.756 93.6744 147.938 93.3408 150.114 93.6227C150.182 93.0992 150.251 92.57 150.319 92.0466C147.788 91.7187 145.244 92.1329 143.037 93.4328C140.843 94.75 139.191 96.769 137.975 98.995C134.882 104.724 134.203 111.598 134.303 118.005C134.359 121.106 134.783 124.218 135.774 127.168C136.566 129.509 137.713 131.741 139.297 133.657C140.612 135.244 142.208 136.596 144.047 137.534C145.637 138.339 147.395 138.833 149.185 138.857C150.825 138.874 152.446 138.552 153.967 137.942C155.463 137.332 156.828 136.441 158.001 135.336C159.173 134.22 160.139 132.897 160.819 131.425C161.511 129.906 161.891 128.256 161.91 126.587C161.922 125.293 161.654 124.011 161.155 122.814C160.663 121.646 159.952 120.582 159.073 119.668C158.2 118.765 157.171 118.017 156.03 117.488C154.877 116.959 153.636 116.654 152.364 116.636C151.136 116.625 149.914 116.844 148.773 117.298C147.676 117.741 146.666 118.391 145.818 119.213C144.964 120.047 144.278 121.037 143.804 122.135C143.312 123.292 143.056 124.534 143.037 125.788C143.025 126.668 143.187 127.542 143.505 128.359C143.817 129.141 144.272 129.866 144.845 130.476C145.419 131.086 146.105 131.58 146.865 131.925C147.651 132.282 148.505 132.472 149.366 132.483C149.384 131.948 149.391 131.419 149.397 130.89Z" fill="#D8BF66"/>
<path fill-rule="evenodd" clip-rule="evenodd" d="M149.085 132.392C146.903 132.363 145.157 130.476 145.182 128.176C145.207 125.875 147.003 124.034 149.185 124.063C151.367 124.092 153.113 125.978 153.088 128.279C153.056 130.58 151.267 132.421 149.085 132.392Z" fill="#D8BF66"/>
<path d="M142.389 129.849C142.576 130.729 142.931 131.569 143.449 132.305C143.954 133.019 144.596 133.623 145.332 134.106C149.378 136.746 155.226 135.457 157.601 131.172C159.896 126.927 157.801 121.808 153.169 120.376C150.17 119.484 146.105 120.548 145.749 124.08C147.551 122.452 149.939 122.297 152.159 123.24C156.217 124.977 156.697 129.918 153.337 132.656C151.236 134.388 148.081 134.727 145.618 133.594C144.877 133.249 144.197 132.76 143.648 132.15C143.056 131.489 142.632 130.701 142.389 129.849Z" fill="#D8BF66"/>
<path fill-rule="evenodd" clip-rule="evenodd" d="M140.393 127.577C139.352 127.566 138.516 126.709 138.529 125.673C138.541 124.638 139.395 123.804 140.436 123.816C141.478 123.827 142.313 124.684 142.301 125.719C142.288 126.761 141.434 127.589 140.393 127.577Z" fill="#D8BF66"/>
<path fill-rule="evenodd" clip-rule="evenodd" d="M139.913 121.434C138.635 121.417 137.607 120.37 137.625 119.093C137.638 117.816 138.691 116.798 139.969 116.815C141.248 116.832 142.276 117.879 142.258 119.156C142.245 120.427 141.191 121.451 139.913 121.434Z" fill="#D8BF66"/>
<path fill-rule="evenodd" clip-rule="evenodd" d="M140.58 114.825C139.09 114.807 137.899 113.588 137.918 112.104C137.936 110.62 139.158 109.435 140.642 109.452C142.132 109.47 143.323 110.689 143.304 112.173C143.286 113.657 142.07 114.842 140.58 114.825Z" fill="#D8BF66"/>
<path fill-rule="evenodd" clip-rule="evenodd" d="M142.47 108.107C140.719 108.084 139.309 106.646 139.334 104.897C139.353 103.148 140.793 101.751 142.545 101.774C144.297 101.797 145.706 103.235 145.681 104.983C145.663 106.732 144.222 108.13 142.47 108.107Z" fill="#D8BF66"/>
<path fill-rule="evenodd" clip-rule="evenodd" d="M147.289 102.107C145.381 102.084 143.854 100.52 143.873 98.616C143.898 96.7121 145.463 95.1936 147.37 95.2166C149.278 95.2396 150.806 96.8041 150.787 98.708C150.762 100.612 149.197 102.136 147.289 102.107Z" fill="#D8BF66"/>
<path fill-rule="evenodd" clip-rule="evenodd" d="M150.587 93.5428C148.691 85.9616 152.601 82.3321 155.082 71.2595C156.672 64.1615 157.701 55.5852 156.416 45.8241C154.209 34.274 149.994 23.9031 142.432 15.3786C137.986 9.71866 133.791 7.21078 129.588 6.46877C126.321 5.89357 126.402 8.09659 119.37 6.64708C149.776 14.4008 161.522 47.9753 150.144 75.2974C147.619 81.3543 143.934 87.2271 144.246 94.0892C146.185 93.5543 148.654 93.445 150.587 93.5428Z" fill="#D8BF66"/>
<path d="M138.717 137.752C133.842 128.204 133.137 117.499 135.001 107.082C136.915 96.5677 141.074 86.611 145.606 76.9879C152.09 63.1197 154.802 47.2327 151.791 32.1106C151.274 32.2142 144.266 21.5959 143.748 21.6995C146.984 21.849 153.337 39.9967 150.912 53.0882C149.441 61.0433 147.589 69.0098 144.16 76.3149C139.577 86.0703 135.369 96.1536 133.43 106.806C131.504 117.568 132.258 128.624 137.296 138.483C137.776 138.235 138.243 137.994 138.717 137.752Z" fill="#D8BF66"/>
<path d="M115.461 73.4392C115.53 72.7317 115.648 71.9954 115.461 71.2994C115.349 70.8968 115.125 70.5402 114.788 70.2871C114.42 70.0168 113.971 69.896 113.529 69.8499C112.955 69.7924 112.382 69.7694 111.808 69.8269C111.29 69.8845 110.779 70.0168 110.324 70.2813C109.869 70.5459 109.501 70.9371 109.252 71.403C108.984 71.9149 108.853 72.4844 108.797 73.0596C108.734 73.7096 108.809 74.3653 109.009 74.9865C109.208 75.5847 109.526 76.1426 109.938 76.6201C110.355 77.1032 110.86 77.5059 111.428 77.805C112.02 78.1156 112.668 78.3054 113.329 78.3744C114.239 78.4665 115.162 78.3572 116.041 78.1041C116.952 77.8337 117.806 77.4081 118.56 76.8329C119.333 76.2404 119.982 75.4984 120.437 74.6356C120.923 73.7038 121.147 72.6684 121.116 71.6216C121.079 70.5114 120.811 69.4243 120.343 68.4177C119.869 67.4053 119.227 66.485 118.498 65.6395C116.864 63.7586 114.875 62.2113 112.936 60.6582C108.497 57.1322 104.046 53.4164 101.726 48.1016C100.087 44.2937 98.977 40.1465 98.8772 35.9878C98.8461 34.3945 98.9583 32.7725 99.4197 31.2367C99.7501 30.1495 100.28 29.0624 101.19 28.3377C100.86 27.9235 100.529 27.5094 100.199 27.0952C99.0393 28.0213 98.3286 29.373 97.8984 30.7765C97.3872 32.4676 97.25 34.2622 97.2874 36.0223C97.3871 40.3881 98.5406 44.7309 100.261 48.7285C102.693 54.2965 107.288 58.2021 111.945 61.8949C113.809 63.3789 115.723 64.863 117.294 66.6691C117.924 67.3996 118.491 68.1934 118.897 69.0734C119.271 69.8902 119.489 70.7645 119.52 71.6618C119.539 72.4384 119.377 73.2034 119.015 73.8994C118.672 74.5551 118.167 75.1188 117.581 75.5675C116.983 76.0219 116.303 76.3612 115.58 76.5741C114.9 76.7696 114.183 76.8617 113.479 76.7926C113.017 76.7466 112.569 76.6143 112.157 76.3957C111.771 76.1944 111.421 75.9183 111.135 75.5847C110.86 75.2626 110.642 74.8887 110.511 74.4861C110.374 74.0777 110.33 73.6463 110.368 73.2149C110.405 72.8525 110.474 72.4786 110.648 72.1508C110.761 71.9437 110.916 71.7711 111.116 71.6561C111.372 71.5065 111.671 71.4433 111.97 71.4087C112.431 71.3627 112.899 71.3857 113.36 71.4318C113.516 71.449 113.703 71.4663 113.828 71.564C113.878 71.6043 113.897 71.6561 113.915 71.7136C114.046 72.2083 113.915 72.795 113.865 73.2896C114.402 73.3357 114.932 73.3874 115.461 73.4392Z" fill="#D8BF66"/>
<path fill-rule="evenodd" clip-rule="evenodd" d="M113.317 75.602C111.739 75.1476 110.742 73.5485 111.085 72.03C111.428 70.5114 112.986 69.6429 114.564 70.0973C116.141 70.5517 117.139 72.1507 116.796 73.6693C116.453 75.1878 114.894 76.0564 113.317 75.602Z" fill="#D8BF66"/>
<path fill-rule="evenodd" clip-rule="evenodd" d="M127.83 68.9066C124.445 65.4784 119.638 61.5556 116.446 59.0189C110.373 54.193 105.448 50.9718 102.231 46.0999C96.5071 37.4489 95.628 28.7748 103.004 20.6357C104.113 19.4105 105.622 17.6677 107.212 16.9717C101.856 23.4772 91.7999 44.1615 123.983 53.0426C121.888 58.0986 123.453 63.7701 127.83 68.9066Z" fill="#D8BF66"/>
<path d="M129.976 29.2867C129.926 27.958 129.87 26.8996 129.215 25.4271C128.754 24.3917 128.005 23.5117 127.089 22.8329C126.222 22.1945 125.218 21.7688 124.165 21.5502C123.092 21.3374 121.989 21.3317 120.904 21.4985C118.603 21.8666 116.465 22.9767 114.819 24.6103C112.98 26.4624 111.901 28.9013 111.72 31.4955C111.614 33.1003 111.808 34.7223 112.331 36.2466C112.824 37.6674 113.597 38.9903 114.62 40.1005C115.63 41.1934 116.858 42.0619 118.229 42.6429C119.663 43.2468 121.216 43.5172 122.768 43.4712C124.788 43.4021 126.771 42.919 128.573 41.9929C130.287 41.1071 131.777 39.8474 132.974 38.3404C134.203 36.7816 135.107 34.9984 135.693 33.106C136.31 31.0756 136.566 28.9588 136.497 26.8421C136.41 24.4838 135.768 22.1887 134.839 20.0259C133.835 17.7309 132.494 15.5911 130.904 13.647C129.34 11.7488 127.544 10.0404 125.499 8.66571C123.635 7.42328 121.559 6.45694 119.333 6.11182C119.252 6.63525 119.177 7.15869 119.096 7.68212C121.091 7.98698 122.949 8.87279 124.614 9.98293C126.528 11.2714 128.211 12.8762 129.676 14.6536C131.166 16.4827 132.438 18.4959 133.38 20.6587C134.234 22.6316 134.832 24.7368 134.907 26.8939C134.969 28.838 134.739 30.7765 134.171 32.6401C133.641 34.3427 132.831 35.9533 131.727 37.3568C130.668 38.6855 129.352 39.7956 127.843 40.5836C126.26 41.4004 124.501 41.8261 122.725 41.8836C121.403 41.9239 120.081 41.6938 118.859 41.1819C117.699 40.6929 116.658 39.9509 115.804 39.0306C114.931 38.0815 114.27 36.9541 113.853 35.7405C113.398 34.4117 113.235 33.0082 113.329 31.6105C113.485 29.396 114.401 27.3195 115.966 25.7377C117.375 24.34 119.208 23.3851 121.172 23.0688C122.064 22.9307 122.98 22.9307 123.866 23.109C124.689 23.2758 125.474 23.6037 126.154 24.1041C126.858 24.6276 127.407 25.3235 127.793 26.1116C128.273 27.1182 128.479 28.2283 128.517 29.3385C129.028 29.3154 129.446 29.3039 129.976 29.2867Z" fill="#D8BF66"/>
<path fill-rule="evenodd" clip-rule="evenodd" d="M126.259 32.7089C124.202 32.6802 122.556 30.8453 122.581 28.6078C122.605 26.3702 124.295 24.5756 126.353 24.6043C128.41 24.6331 130.056 26.468 130.031 28.7055C130.006 30.9431 128.316 32.7377 126.259 32.7089Z" fill="#D8BF66"/>
<path fill-rule="evenodd" clip-rule="evenodd" d="M133.312 24.1963C134.883 27.8776 133.605 33.4513 132.052 36.0455C129.926 39.6002 126.186 41.1187 122.57 40.9577C120.431 40.8657 115.799 39.698 115.026 35.6141C114.321 31.881 116.64 25.0419 122.208 23.8052C121.31 25.5768 120.98 26.9343 121.079 28.2342C121.167 29.3789 121.584 30.4775 122.245 31.7717C119.658 33.7044 120.824 36.8738 122.432 38.0299C124.527 39.5369 128.262 39.1285 131.18 35.6946C132.42 34.2336 134.066 29.8563 133.312 24.1963Z" fill="#D8BF66"/>
<path fill-rule="evenodd" clip-rule="evenodd" d="M127.032 19.1001C122.674 15.4476 108.091 16.2356 106.988 29.0511C105.373 47.8315 127.824 49.6088 132.438 43.3794C132.425 45.4904 130.461 46.8191 127.774 47.4461C123.84 48.3664 118.353 47.7912 115.136 45.9908C109.718 42.9537 105.703 37.4491 105.423 29.8622C105.167 23.0403 107.218 18.732 110.454 15.902C112.331 14.2627 114.613 13.1238 117.082 12.284C114.662 7.90672 104.263 18.0993 98.5895 17.7714C92.9097 17.4436 89.8734 12.0194 82.741 9.05137C87.9033 10.9323 91.5817 7.67088 90.4595 3.66748C93.5955 6.16961 95.8961 10.9035 100.653 11.7433C105.404 12.5831 110.535 7.52133 116.215 9.21818C121.888 10.9323 128.254 14.9242 127.032 19.1001Z" fill="#D8BF66"/>
<path d="M128.379 119.455C127.331 112.881 128.011 106.053 130.23 99.7835C134.345 88.2737 140.493 77.6152 144.651 66.1169C150.057 50.9834 149.24 35.4357 140.574 21.7861C137.843 17.5354 134.532 13.5722 130.548 10.4374C130.174 10.144 128.379 8.85559 128.778 8.19986C129.264 7.49236 131.166 8.90161 131.533 9.18921C135.667 12.4391 139.096 16.5288 141.92 20.9348C150.855 34.9985 151.728 51.0581 146.16 66.6576C142.001 78.1559 135.854 88.8144 131.745 100.324C129.619 106.341 128.965 112.898 129.969 119.214C130.043 119.685 130.586 122.257 129.838 122.475C128.952 122.653 128.453 119.921 128.379 119.455Z" fill="#D8BF66"/>
<path d="M132.955 86.6455C137.033 79.4268 140.686 71.8744 142.694 63.7928C145.611 51.6905 143.529 39.2489 139.857 27.5436C139.72 27.1122 139.389 25.772 140.05 25.5534C140.724 25.3348 141.241 26.6348 141.378 27.0662C145.144 39.0534 147.226 51.7826 144.24 64.1724C142.201 72.392 138.491 80.0767 134.345 87.4221C134.115 87.8247 133.323 89.0441 132.699 88.6933C132.088 88.3309 132.731 87.0424 132.955 86.6455Z" fill="#D8BF66"/>
<path d="M127.344 88.6185C133.367 83.7695 137.918 77.4021 140.662 70.189C140.805 69.8151 141.291 69.7749 141.622 69.8899C141.958 70.0107 142.295 70.3673 142.152 70.7527C139.309 78.2303 134.589 84.8337 128.342 89.8609C127.157 90.7295 126.515 89.2972 127.344 88.6185Z" fill="#D8BF66"/>
<path d="M127.755 75.1932C130.343 74.1579 132.955 73.1225 135.387 71.7535C137.376 70.6261 139.202 69.2284 140.537 67.3475C143.024 63.7812 143.616 59.1854 143.984 54.9634C144.028 54.5147 144.34 53.9626 144.863 53.9913C145.387 54.0373 145.612 54.647 145.574 55.0957C145.181 59.611 144.502 64.4427 141.846 68.2563C140.381 70.3328 138.379 71.8858 136.178 73.134C133.685 74.5375 131.01 75.6074 128.354 76.6658C126.839 77.2582 126.346 75.7684 127.755 75.1932Z" fill="#D8BF66"/>
<path d="M138.842 50.5573C140.288 49.4932 141.385 48.0667 142.009 46.3814C142.713 44.4257 142.801 42.3147 142.645 40.2555C142.271 35.7171 140.805 31.3514 139.621 26.9798C139.515 26.5829 139.864 26.2436 140.219 26.1515C140.575 26.0595 141.042 26.1745 141.155 26.5657C142.37 31.035 143.854 35.4928 144.235 40.1289C144.409 42.4182 144.291 44.7478 143.505 46.9221C142.776 48.9008 141.491 50.5861 139.783 51.8343C139.428 52.0931 138.798 52.1794 138.567 51.8113C138.355 51.4892 138.511 50.7989 138.842 50.5573Z" fill="#D8BF66"/>
<path d="M138.113 36.2469C139.017 35.0908 139.522 33.6298 139.802 32.209C140.12 30.5582 140.145 28.8268 139.684 27.199C139.628 26.9747 140.239 26.7734 140.376 26.7331C140.532 26.6813 141.136 26.503 141.217 26.7619C141.747 28.6313 141.735 30.6215 141.367 32.5139C141.037 34.1877 140.426 35.873 139.366 37.2305C138.137 38.7145 137.314 37.3341 138.113 36.2469Z" fill="#D8BF66"/>
<path d="M135.331 15.2574C137.619 19.6635 138.972 22.4762 138.984 27.8314C138.997 32.3352 137.687 36.6664 135.131 40.388C134.882 40.7446 134.383 40.8079 134.034 40.5548C133.704 40.3075 133.585 39.8358 133.822 39.4849C136.191 36.0337 137.401 32.0131 137.394 27.8371C137.382 22.2864 135.462 18.2542 132.93 13.3765C132.725 12.9796 132.195 12.7611 132.619 12.531C133.516 12.0421 134.975 14.573 135.331 15.2574Z" fill="#D8BF66"/>
<path d="M134.701 39.0709C136.359 38.6568 137.862 38.9961 139.115 40.2213C140.181 41.2567 140.499 42.8845 140.181 44.2937C139.894 45.5477 139.121 46.6233 138.217 47.5149C137.257 48.4582 136.135 49.2232 134.944 49.8444C132.637 51.0466 130.006 52.3063 128.298 54.331C126.565 56.3845 126.216 60.0485 128.204 62.0445C129.875 63.7125 131.191 63.586 133.011 62.5276C133.442 62.2803 133.828 61.9179 134.003 61.4462C134.495 60.1463 135.985 60.664 135.499 62.0042C135.081 63.1488 134.009 63.9254 132.799 64.351C129.832 65.3921 127.126 64.1957 125.81 61.36C124.657 58.8751 125.349 55.3779 127.082 53.3071C128.934 51.1156 131.715 49.7409 134.215 48.4294C135.262 47.8772 136.26 47.2043 137.108 46.376C137.787 45.703 138.417 44.8862 138.635 43.9371C138.828 43.0628 138.679 41.9987 138.012 41.3487C137.145 40.5032 136.229 40.3248 135.094 40.6067C134.526 40.7735 133.934 40.6987 133.735 40.2271C133.491 39.6691 134.252 39.1802 134.701 39.0709Z" fill="#D8BF66"/>
<path d="M134.906 62.5736C134.788 62.6772 134.669 62.7692 134.538 62.8612C134.065 63.2006 133.516 63.4479 132.93 63.5055C132.363 63.563 131.789 63.4479 131.278 63.1891C130.798 62.9418 130.386 62.5794 130.062 62.1537C129.738 61.7281 129.501 61.2392 129.364 60.7215C129.227 60.1923 129.189 59.6401 129.283 59.0994C129.438 58.2194 129.769 57.3738 130.255 56.6203C132.687 52.8642 137.687 52.8872 140.592 56.3097C143.959 60.3419 142.095 66.6403 137.506 68.9584C132.593 71.403 128.871 69.7522 125.847 74.7622C124.887 76.3612 124.114 78.0581 123.335 79.7492C123.135 80.1748 122.605 80.9858 122.069 80.7328C121.539 80.4797 121.689 79.5133 121.888 79.0877C122.686 77.3448 123.491 75.5905 124.482 73.9454C127.817 68.4177 131.521 70.1605 136.789 67.5376C140.443 65.697 142.082 60.5777 139.37 57.3335C137.169 54.7394 133.46 54.6013 131.596 57.4831C131.228 58.0583 130.972 58.7083 130.854 59.3813C130.798 59.6919 130.823 60.014 130.904 60.3188C130.991 60.6352 131.134 60.9401 131.334 61.1989C131.515 61.4347 131.739 61.6418 132.007 61.7741C132.244 61.8949 132.506 61.9467 132.768 61.9237C133.073 61.8892 133.36 61.7396 133.609 61.567C133.697 61.5038 133.778 61.4405 133.859 61.3715C134.183 61.0954 134.894 60.6064 135.33 60.9056C135.879 61.3197 135.255 62.2688 134.906 62.5736Z" fill="#D8BF66"/>
<path d="M123.342 79.7147C125.873 79.5939 128.162 78.8232 130.337 77.575C131.503 76.9077 132.813 75.9586 134.24 76.183C136.086 76.4821 136.117 78.3802 135.057 79.6514C134.558 80.2439 133.922 80.6926 133.268 81.101C131.778 82.0213 130.207 82.7863 128.835 83.8907C127.588 84.9088 126.478 86.111 125.749 87.5605C125.219 88.6246 124.926 89.7692 124.739 90.9369C124.564 92.024 124.589 93.3413 124.271 94.3996C124.04 95.1819 123.666 95.9066 123.136 96.5279C122.831 96.8787 122.133 97.1663 121.783 96.7062C121.515 96.3553 121.665 95.7974 121.927 95.4867C122.313 95.0381 122.575 94.5031 122.744 93.9395C123.037 92.9501 123.005 91.7019 123.161 90.6838C123.373 89.3551 123.71 88.0494 124.321 86.8415C125.15 85.1964 126.403 83.8159 127.825 82.654C129.246 81.5036 130.874 80.7041 132.42 79.7435C132.931 79.4271 133.442 79.082 133.829 78.6218C134.415 77.9201 134.29 77.5232 133.324 77.8108C132.538 78.0466 131.834 78.5413 131.129 78.9439C128.729 80.3187 126.191 81.1642 123.411 81.2965C122.949 81.3138 121.734 81.0894 121.752 80.1921C121.771 79.6342 122.893 79.7377 123.342 79.7147Z" fill="#D8BF66"/>
<path d="M122.656 95.5502C123.392 95.4409 124.078 95.2741 124.708 94.8887C125.45 94.4343 126.167 93.8361 126.653 93.1114C127.208 92.2773 127.844 91.449 128.611 90.7818C130.537 89.1022 132.57 90.2353 131.634 92.8353C131.335 93.6635 130.93 94.4516 130.537 95.2396C129.727 96.8674 128.773 98.5298 128.374 100.324C126.896 106.905 127.912 114.578 130.138 120.905C130.288 121.336 130.381 122.171 129.832 122.383C129.271 122.596 128.935 121.871 128.779 121.434C126.453 114.825 125.269 106.847 126.815 99.9735C127.245 98.0581 128.236 96.2865 129.109 94.5379C129.477 93.7958 129.783 93.0251 130.144 92.2831C130.381 91.7999 130.163 91.3857 129.814 91.7654C129.128 92.5016 128.548 93.1631 127.993 93.9972C127.382 94.9175 126.466 95.6307 125.556 96.2462C125.044 96.5913 121.74 97.897 121.547 96.2462C121.484 95.7803 122.239 95.6077 122.656 95.5502Z" fill="#D8BF66"/>
<path d="M10.1708 8.98215C9.23559 8.79808 8.60588 7.8605 8.66823 6.92868C8.76175 5.83579 9.80916 5.18582 10.8566 5.36988C11.0436 5.40439 11.2244 5.46766 11.3928 5.55394C12.1347 5.94508 12.515 6.77912 12.303 7.59016C12.0973 8.33792 11.4302 8.92463 10.6446 8.9994C10.4825 9.02241 10.3267 9.01091 10.1708 8.98215Z" fill="#D8BF66"/>
<path d="M13.7053 9.74724C12.8637 9.45964 12.4272 8.53357 12.6517 7.69377C12.9135 6.80221 13.8674 6.32479 14.7528 6.61239C14.9959 6.69292 15.2204 6.83097 15.4074 7.01503C15.8501 7.46944 15.9872 8.13093 15.7753 8.72338C15.5633 9.30434 15.0333 9.72999 14.4223 9.81051C14.1792 9.84503 13.936 9.82202 13.7053 9.74724Z" fill="#D8BF66"/>
<path d="M6.82239 8.59128C7.63913 8.49925 8.25013 7.69396 8.29378 6.90594C8.33119 5.90509 7.44586 5.2091 6.47949 5.30113C5.93084 5.35865 5.41336 5.66351 5.1702 6.16393C4.9894 6.5033 4.96447 6.89444 5.08293 7.26256C5.19515 7.61344 5.41959 7.91829 5.69391 8.15988C5.99941 8.44173 6.39219 8.63154 6.82239 8.59128Z" fill="#D8BF66"/>
<path d="M16.9788 10.7599C17.7394 11.0417 18.5873 10.6506 18.8866 9.9028C19.1796 9.14354 18.8055 8.28073 18.0449 7.97587C17.278 7.68827 16.4177 8.07941 16.1246 8.84443C15.8566 9.6037 16.2182 10.4607 16.9788 10.7599Z" fill="#D8BF66"/>
<path d="M4.33369 9.2814C4.25264 9.33892 4.16536 9.38494 4.07184 9.41945C3.54813 9.58051 2.87478 9.40219 2.44459 9.08583C1.85853 8.64868 1.75877 7.87791 2.16402 7.28545C2.27001 7.14165 2.39471 7.00935 2.5381 6.90582C3.27379 6.36513 4.35862 6.48592 4.72024 7.39474C4.95092 7.96994 4.86987 8.87301 4.33369 9.2814Z" fill="#D8BF66"/>
<path d="M19.9716 11.7716C19.2921 11.4955 18.9741 10.7132 19.2359 10.0402C19.5103 9.36149 20.2834 9.02213 20.9692 9.28672C21.6487 9.56281 21.973 10.3451 21.7049 11.0238C21.4243 11.6968 20.6512 12.0419 19.9716 11.7716Z" fill="#D8BF66"/>
<path d="M2.91895 11.0641C3.13093 10.4314 2.78801 9.72391 2.2456 9.37304C1.47873 8.89562 0.649523 9.41905 0.375197 10.1956C0.356493 10.2416 0.344038 10.2934 0.331569 10.3394C0.175703 11.0411 0.612114 11.7486 1.3291 11.8809C1.90269 11.9787 2.62592 11.7084 2.88154 11.1562C2.90025 11.1274 2.91272 11.0986 2.91895 11.0641Z" fill="#D8BF66"/>
<path d="M22.7095 12.7257C23.3266 12.9672 24.0246 12.6567 24.2677 12.0472C24.5045 11.4377 24.2116 10.7362 23.6008 10.4889C22.9838 10.2474 22.292 10.5579 22.0427 11.1617C21.8058 11.7769 22.0988 12.4784 22.7095 12.7257Z" fill="#D8BF66"/>
<path d="M2.41466 13.4161C2.44582 13.9739 1.93476 14.4856 1.43616 14.6524C0.694499 14.8881 0.058778 14.3074 0.00268602 13.5771C-0.0160112 13.2436 0.0774891 12.8986 0.289392 12.6399C0.53869 12.3524 0.893931 12.2086 1.27411 12.2604C1.62936 12.3121 1.94722 12.5191 2.15289 12.8181C2.29 12.9906 2.40219 13.1919 2.41466 13.4161Z" fill="#D8BF66"/>
<path d="M25.2335 13.5829C24.6788 13.3644 24.4046 12.7377 24.6165 12.1799C24.8347 11.6337 25.4517 11.3462 26.0064 11.5532C26.5611 11.7717 26.8291 12.3927 26.6296 12.9447C26.4177 13.5024 25.7945 13.7899 25.2335 13.5829Z" fill="#D8BF66"/>
<path d="M2.9825 15.3208C2.67711 14.8953 2.02893 14.8205 1.57396 15.0045C0.944484 15.2748 0.832296 16.028 1.20001 16.5627C1.34959 16.7755 1.5615 16.9422 1.8108 17.017C2.16605 17.1205 2.53999 17.017 2.79552 16.7525C3.02612 16.511 3.14453 16.1717 3.14453 15.8383C3.13207 15.6543 3.08222 15.4703 2.9825 15.3208Z" fill="#D8BF66"/>
<path d="M27.5652 14.3307C28.0763 14.5089 28.631 14.2387 28.8117 13.7327C28.98 13.2324 28.7245 12.6747 28.2196 12.4907C27.7148 12.3182 27.1663 12.5884 26.9794 13.0772C26.7986 13.5832 27.0604 14.1467 27.5652 14.3307Z" fill="#D8BF66"/>
<path d="M4.34775 16.6898C4.40384 16.7243 4.45994 16.7646 4.5098 16.8105C4.79649 17.0923 4.87128 17.5638 4.74663 17.9375C4.58459 18.386 4.1234 18.616 3.66219 18.501C3.56871 18.478 3.48144 18.4435 3.40042 18.3975C2.89559 18.11 2.68992 17.4718 3.0701 17.0003C3.36303 16.6381 3.92394 16.4598 4.34775 16.6898Z" fill="#D8BF66"/>
<path d="M29.7284 14.958C29.2672 14.8085 29.0117 14.3082 29.1675 13.8483C29.3233 13.3998 29.8157 13.1468 30.2706 13.2848C30.4327 13.3365 30.576 13.44 30.6882 13.5723C30.8814 13.7965 30.9624 14.107 30.8752 14.3945C30.7817 14.682 30.5386 14.889 30.2519 14.9637C30.0774 15.0155 29.8967 15.0155 29.7284 14.958Z" fill="#D8BF66"/>
<path d="M6.06755 17.3456C5.62504 17.2996 5.2137 17.6331 5.09529 18.0471C4.95194 18.5703 5.34459 19.0246 5.86189 19.0936C5.93044 19.0993 5.99899 19.1051 6.06131 19.0993C6.51005 19.0648 6.87153 18.7198 6.85906 18.2598C6.84036 17.8746 6.58485 17.5008 6.2109 17.3801C6.16727 17.3628 6.11741 17.3513 6.06755 17.3456Z" fill="#D8BF66"/>
<path d="M31.8667 15.5213C32.2967 15.642 32.7828 15.4408 32.9075 14.9923C33.0259 14.5553 32.7267 14.1241 32.3092 14.0033C31.8854 13.8826 31.3992 14.0838 31.2621 14.5208C31.1312 14.9635 31.4366 15.3948 31.8667 15.5213Z" fill="#D8BF66"/>
<path d="M7.80682 17.3285C7.88784 17.3113 7.96885 17.3055 8.04988 17.317C8.35527 17.3573 8.6295 17.5758 8.74169 17.8575C8.87257 18.1795 8.75416 18.5303 8.4737 18.7315C8.38644 18.7948 8.28671 18.8408 8.18699 18.8638C7.73826 18.9673 7.28952 18.6913 7.23343 18.2255C7.19603 17.8518 7.42041 17.4263 7.80682 17.3285Z" fill="#D8BF66"/>
<path d="M33.8568 15.9817C33.4704 15.8782 33.1962 15.4987 33.2959 15.102C33.4018 14.711 33.8256 14.5097 34.2058 14.6075C34.586 14.7052 34.8478 15.0847 34.7605 15.4757C34.6608 15.8725 34.2432 16.0795 33.8568 15.9817Z" fill="#D8BF66"/>
<path d="M9.30421 16.7643C9.00505 16.9655 8.93649 17.391 9.08607 17.7073C9.27304 18.0868 9.74672 18.1788 10.0895 17.9545C10.2391 17.8568 10.3575 17.7015 10.4011 17.5233C10.451 17.3163 10.4011 17.0978 10.2578 16.9368C10.1207 16.7815 9.92746 16.6895 9.72179 16.6723C9.57221 16.655 9.42886 16.6838 9.30421 16.7643Z" fill="#D8BF66"/>
<path d="M35.6577 16.3385C36.0067 16.4133 36.3682 16.2063 36.443 15.8498C36.5116 15.4991 36.281 15.1656 35.932 15.0851C35.5892 15.0103 35.2277 15.2173 35.1467 15.5623C35.0656 15.9188 35.3087 16.258 35.6577 16.3385Z" fill="#D8BF66"/>
<path d="M10.4383 15.815C10.6377 15.562 11.0304 15.5275 11.3046 15.6827C11.6349 15.8782 11.6848 16.3037 11.4604 16.597C11.2298 16.8902 10.806 16.9477 10.5318 16.6832C10.3074 16.459 10.2388 16.0737 10.4383 15.815Z" fill="#D8BF66"/>
<path d="M37.2847 16.5974C36.9731 16.5399 36.7549 16.2351 36.811 15.9246C36.8733 15.6141 37.1787 15.4129 37.4841 15.4646C37.7957 15.5221 38.0014 15.8211 37.9515 16.1316C37.9017 16.4421 37.6025 16.6549 37.2847 16.5974Z" fill="#D8BF66"/>
<path d="M11.1424 14.6477C11.0489 14.9237 11.2172 15.2342 11.4727 15.3607C11.7781 15.5044 12.1209 15.3434 12.2393 15.0329C12.3453 14.7167 12.1832 14.3717 11.8467 14.2912C11.5662 14.2337 11.2421 14.3717 11.1424 14.6477Z" fill="#D8BF66"/>
<path d="M38.7555 16.7758C39.036 16.8103 39.2915 16.6033 39.3227 16.3273C39.3539 16.057 39.1731 15.7868 38.8927 15.7465C38.6122 15.712 38.3629 15.9133 38.3193 16.1893C38.2819 16.4653 38.4689 16.7355 38.7555 16.7758Z" fill="#D8BF66"/>
<path d="M11.4299 13.3936C11.4299 13.1349 11.6605 12.9221 11.9098 12.8819C12.2276 12.8359 12.4707 13.0889 12.4707 13.3936C12.4707 13.5086 12.4395 13.6179 12.3772 13.7156C12.2713 13.8651 12.0968 13.9456 11.9098 13.9169C11.7415 13.8939 11.5857 13.7846 11.4984 13.6351C11.461 13.5661 11.4361 13.4799 11.4299 13.3936Z" fill="#D8BF66"/>
<path d="M40.0772 16.8737C39.8217 16.8507 39.6534 16.6092 39.6784 16.362C39.7033 16.1205 39.9152 15.9192 40.1645 15.9422C40.4138 15.9652 40.5758 16.2067 40.5571 16.4425C40.5384 16.6955 40.3328 16.8967 40.0772 16.8737Z" fill="#D8BF66"/>
<path d="M11.2433 12.2836C11.2807 12.3641 11.343 12.4273 11.4116 12.4733C11.5362 12.5423 11.6858 12.5653 11.8229 12.5251C11.9725 12.4848 12.0847 12.3698 12.1221 12.2261C12.147 12.1168 12.1345 12.0076 12.0909 11.9098C11.9787 11.6626 11.6858 11.5476 11.449 11.6913C11.2682 11.8063 11.1498 12.0651 11.2433 12.2836Z" fill="#D8BF66"/>
<path d="M41.2689 16.9138C41.4995 16.9196 41.6615 16.7241 41.6678 16.5056C41.674 16.2928 41.5307 16.0858 41.3063 16.0743C41.0819 16.0686 40.9199 16.2641 40.9012 16.4711C40.895 16.6896 41.0445 16.9023 41.2689 16.9138Z" fill="#D8BF66"/>
<path d="M10.6694 11.3689C10.5198 11.2136 10.5323 10.9606 10.6569 10.7996C10.8127 10.6099 11.0932 10.6099 11.2677 10.7766C11.3238 10.8284 11.3612 10.8974 11.3799 10.9721C11.4235 11.1274 11.3674 11.2884 11.2428 11.3861C11.1244 11.4781 10.9685 11.5069 10.8252 11.4609C10.7691 11.4436 10.713 11.4091 10.6694 11.3689Z" fill="#D8BF66"/>
<path d="M42.3417 16.8967C42.136 16.8967 42.0052 16.7069 42.0052 16.5172C42.0114 16.3332 42.1423 16.1434 42.3355 16.1377C42.5349 16.1377 42.6658 16.3274 42.6658 16.5114C42.672 16.7012 42.5474 16.8909 42.3417 16.8967Z" fill="#D8BF66"/>
<path d="M9.85239 10.7306C9.85862 10.7306 9.85862 10.7306 9.85239 10.7306C10.0331 10.8169 10.2513 10.7421 10.351 10.5811C10.4694 10.3914 10.3884 10.1614 10.1952 10.0579H10.1889C9.99574 9.96587 9.76514 10.0464 9.68412 10.2476C9.6218 10.4144 9.68411 10.6386 9.85239 10.7306Z" fill="#D8BF66"/>
<path d="M43.3071 16.8276C43.4879 16.8161 43.5876 16.6321 43.5751 16.4711C43.5627 16.3101 43.4442 16.1433 43.2697 16.1491C43.0952 16.1606 42.9955 16.3388 43.0017 16.5056C43.0017 16.6666 43.1264 16.8391 43.3071 16.8276Z" fill="#D8BF66"/>
<path d="M8.94827 10.3911C8.77376 10.3566 8.64911 10.1841 8.66158 10.0116C8.68028 9.81037 8.87348 9.68962 9.06668 9.72412C9.25989 9.75862 9.39077 9.94262 9.34091 10.1324C9.29105 10.2934 9.12277 10.4199 8.94827 10.3911Z" fill="#D8BF66"/>
<path d="M98.0409 25.4907C96.875 25.6805 95.9773 26.388 95.2416 27.2853C93.7826 29.0857 92.9784 31.2714 92.0182 33.3537C91.002 35.5509 89.7987 37.7712 88.0031 39.4335C84.8671 42.3038 80.2908 41.8551 77.5226 38.7951C74.4302 35.3439 75.4091 30.6215 80.2098 29.8967C80.8707 29.7989 81.544 29.7989 82.1986 29.9427C84.3434 30.4201 85.821 32.5886 85.1476 34.7054C84.7549 35.9133 83.7074 36.7301 82.4979 37.0004C82.0428 37.0982 81.0016 36.9832 81.0328 36.316C81.0889 35.4819 82.6662 35.4474 83.2211 34.8952C83.4082 34.7054 83.5516 34.4753 83.6326 34.2222C84.0254 32.9855 83.084 31.7719 81.862 31.5015C81.4006 31.4037 80.9205 31.4095 80.4529 31.4785C76.9054 32.0134 76.4628 35.2288 78.7135 37.7425C80.8956 40.1583 84.4431 40.5437 86.9245 38.2716C88.5642 36.7531 89.6491 34.6939 90.578 32.6922C91.5943 30.4834 92.4609 28.1999 94.0071 26.2902C94.9922 25.088 96.2391 24.1792 97.7915 23.9319C99.319 23.6845 99.5996 25.2376 98.0409 25.4907Z" fill="#D8BF66"/>
<path fill-rule="evenodd" clip-rule="evenodd" d="M81.3137 36.9946C80.0356 36.9774 79.0069 35.9018 79.0256 34.596C79.0381 33.2903 80.0917 32.2435 81.3698 32.255C82.6479 32.2722 83.6767 33.3479 83.658 34.6536C83.6392 35.965 82.5918 37.0119 81.3137 36.9946Z" fill="#D8BF66"/>
<path fill-rule="evenodd" clip-rule="evenodd" d="M93.4219 24.3804C91.1213 25.2662 88.4653 26.1462 86.1523 26.3303C88.9017 29.885 87.474 35.0849 85.2919 38.2772C85.9403 38.0989 87.5488 36.0627 88.5526 34.2796C89.7434 32.1628 90.4666 29.8045 91.4829 27.6763C92.1812 26.2095 92.8919 24.6967 93.4219 24.3804Z" fill="#D8BF66"/>
<path d="M84.8047 31.1101C84.3745 30.2645 83.8508 29.7353 82.953 29.3787C76.9116 27.0089 71.4001 33.3879 65.0782 30.6959C62.6966 29.6778 60.8885 28.5677 58.2076 28.6827C57.3597 28.7172 56.1377 29.9252 55.4643 29.4995C55.0154 29.2119 55.1214 28.5792 55.4519 28.2456C56.1689 27.5323 57.1228 27.1412 58.1328 27.1009C61.1005 26.9744 63.0769 28.119 65.7017 29.2407C71.8054 31.8463 77.3106 25.4674 83.5328 27.912C84.7735 28.4066 85.7898 29.2924 86.2823 30.5406C86.8746 32.0304 85.5902 32.6574 84.8047 31.1101Z" fill="#D8BF66"/>
<path d="M54.8234 28.7863C55.1663 25.2833 61.6504 21.0383 61.4072 19.6463C61.3885 19.3012 62.9409 18.8353 62.9971 19.5256C63.2402 22.4016 56.937 24.9612 56.5504 28.9704C56.4008 30.184 54.7424 29.8677 54.8234 28.7863Z" fill="#D8BF66"/>
<path d="M62.8539 20.1521C58.8326 24.7537 47.8596 19.784 42.5539 20.0486C42.2359 20.0601 42.105 19.5194 42.0738 19.2951C42.0426 19.019 42.0925 18.4898 42.4666 18.4668C46.9805 18.2424 58.7889 22.683 61.925 18.8694C62.7168 18.0814 63.3589 19.5712 62.8539 20.1521Z" fill="#D8BF66"/>
<path d="M42.2103 18.4325C43.7004 17.5121 45.3651 17.19 46.9985 16.6436C47.7218 16.402 48.657 16.1432 49.3802 15.9016C50.2655 15.6025 50.5772 14.8374 49.4051 14.6074C47.6656 14.2622 45.9885 14.176 44.3301 14.1242C39.6977 13.9861 35.9569 13.434 31.7735 11.484C27.509 9.49382 23.4377 6.91692 20.0772 3.81658C19.7406 3.50022 19.485 2.89051 19.8653 2.50512C20.2393 2.1485 20.8254 2.34407 21.1558 2.64892C24.4041 5.63997 28.3507 8.12484 32.4718 10.046C36.4744 11.9097 39.9284 12.088 44.355 12.203C47.1669 12.2778 49.7106 12.4791 50.9077 13.5893C51.8616 14.4751 52.2294 16.2467 50.6146 17.098C49.6483 17.6099 48.5385 17.794 47.5035 18.1391C45.9948 18.6453 44.4236 18.9214 43.052 19.7727C41.5868 20.693 40.7826 19.3355 42.2103 18.4325Z" fill="#D8BF66"/>
<path d="M21.3554 2.3789C25.1586 4.13902 29.4667 4.40361 33.5941 4.27131C38.8998 4.093 44.1494 3.23019 49.4114 2.59172C53.9191 2.05678 58.5826 2.17183 62.922 3.63284C64.9108 4.31733 66.7874 5.28942 68.4396 6.58937C69.7302 7.61898 70.8587 8.83266 71.7939 10.1901C72.7852 11.6569 71.5008 12.5657 70.4784 11.0817C69.6367 9.85652 68.6142 8.75788 67.4483 7.83181C65.9395 6.64114 64.225 5.75533 62.4107 5.13411C58.3021 3.74788 53.8754 3.65585 49.6109 4.16778C44.3052 4.812 39.0058 5.68055 33.6564 5.85887C29.2735 5.99691 24.7222 5.68631 20.6883 3.8169C19.2107 3.12666 19.8653 1.69441 21.3554 2.3789Z" fill="#D8BF66"/>
<path d="M102.069 20.837C101.577 21.1821 101.003 21.3949 100.411 21.5215C99.6875 21.6768 98.9394 21.6825 98.2037 21.5905C96.67 21.4007 95.2048 20.8197 93.8394 20.118C92.58 19.468 91.3767 18.6857 90.267 17.8057C89.8492 17.4721 89.444 17.127 89.0699 16.7473C88.9016 16.5805 88.7457 16.4022 88.6023 16.2181C88.3779 15.9018 88.434 14.7571 88.6584 14.6651C89.3255 14.389 89.737 15.1598 90.2046 15.6372C90.535 15.9708 90.8904 16.2757 91.2583 16.569C92.287 17.3858 93.403 18.1105 94.5689 18.7145C95.7659 19.33 97.0565 19.8534 98.397 20.0202C98.9518 20.0892 99.5192 20.0892 100.074 19.9742C100.467 19.8879 100.847 19.7384 101.184 19.514C102.518 18.6455 103.029 20.1583 102.069 20.837Z" fill="#D8BF66"/>
<path d="M89.9614 15.9761C89.9864 16.1487 90.0051 16.327 90.0113 16.4996C90.0238 17.3279 89.7619 18.1216 89.2694 18.7889C88.7207 19.5194 87.9476 20.0371 87.1122 20.3822C86.0585 20.8136 84.9113 20.9804 83.7829 21.0092C79.4061 21.1012 75.3411 20.1233 71.6938 17.6672C68.7698 15.6885 66.1824 13.2957 62.9217 11.8404C53.021 7.50917 41.9358 6.85919 31.3057 7.96933C30.8443 8.01535 29.5475 8.06711 29.4478 7.38838C29.3729 6.69238 30.6697 6.43929 31.1311 6.39327C42.0418 5.25438 53.4076 5.94462 63.5638 10.3909C66.9181 11.8922 69.5741 14.3196 72.5854 16.3558C75.9521 18.6278 79.6929 19.5079 83.7392 19.4216C84.6744 19.3986 85.6283 19.2663 86.5012 18.9154C87.0685 18.6796 87.6172 18.3402 87.9913 17.8398C88.2718 17.4602 88.4277 17.0057 88.4215 16.5341C88.4215 16.4305 88.409 16.327 88.3903 16.2235C88.3217 15.8036 88.116 14.8545 88.5462 14.5611C89.2444 14.1125 89.8866 15.5217 89.9614 15.9761Z" fill="#D8BF66"/>
<path fill-rule="evenodd" clip-rule="evenodd" d="M85.41 7.08391C83.7266 7.0609 82.3799 5.68617 82.4049 4.01233C82.4236 2.3385 83.8014 0.99828 85.4848 1.02129C87.1681 1.0443 88.5148 2.41903 88.4899 4.09286C88.465 5.7667 87.0871 7.10692 85.41 7.08391Z" fill="#D8BF66"/>
<path fill-rule="evenodd" clip-rule="evenodd" d="M78.8567 8.90163C77.4851 8.88437 76.3878 7.76273 76.4065 6.3995C76.4252 5.03628 77.5474 3.94339 78.9128 3.96065C80.2844 3.97791 81.3817 5.09955 81.363 6.46278C81.3506 7.826 80.2283 8.91889 78.8567 8.90163Z" fill="#D8BF66"/>
<path fill-rule="evenodd" clip-rule="evenodd" d="M74.8553 12.4219C73.8079 12.4104 72.9725 11.5533 72.9849 10.5122C72.9974 9.47109 73.8516 8.63705 74.899 8.64856C75.9464 8.66006 76.7819 9.51711 76.7694 10.5582C76.7569 11.6051 75.8965 12.4334 74.8553 12.4219Z" fill="#D8BF66"/>
<path fill-rule="evenodd" clip-rule="evenodd" d="M75.629 16.3966C74.7436 16.3851 74.0329 15.6603 74.0453 14.7803C74.0578 13.9002 74.781 13.1927 75.6664 13.2042C76.5517 13.2157 77.2562 13.9405 77.25 14.8206C77.2375 15.7006 76.5143 16.4081 75.629 16.3966Z" fill="#D8BF66"/>
<path fill-rule="evenodd" clip-rule="evenodd" d="M78.9501 18.3058C78.2145 18.2943 77.6284 17.6961 77.6346 16.9655C77.6409 16.235 78.2456 15.6483 78.9813 15.6598C79.717 15.6713 80.3031 16.2695 80.2968 17.0001C80.2906 17.7306 79.6858 18.3115 78.9501 18.3058Z" fill="#D8BF66"/>
<path fill-rule="evenodd" clip-rule="evenodd" d="M82.2553 16.8499C81.5759 16.8384 81.0275 16.2864 81.0399 15.608C81.0462 14.9295 81.6071 14.3832 82.2864 14.3947C82.9658 14.4062 83.5142 14.9582 83.5017 15.6367C83.4955 16.3152 82.9346 16.8557 82.2553 16.8499Z" fill="#D8BF66"/>
<path fill-rule="evenodd" clip-rule="evenodd" d="M83.8403 14.1639C83.2918 14.1581 82.8555 13.7096 82.8618 13.1634C82.868 12.6171 83.3167 12.1801 83.8652 12.1916C84.4136 12.1974 84.8499 12.6459 84.8437 13.1921C84.8312 13.7326 84.3825 14.1696 83.8403 14.1639Z" fill="#D8BF66"/>
<path d="M93.3213 22.505C89.9358 23.0802 86.5504 23.7934 83.1089 23.8797C79.0127 23.966 75.1036 22.9479 71.768 20.532C68.1706 17.9149 64.4984 15.5738 60.3399 13.9345C56.4058 12.4044 52.16 11.7142 47.9828 11.2253C47.5277 11.1735 46.3618 10.9147 46.4179 10.2589C46.4927 9.59171 47.7085 9.59747 48.1698 9.64923C52.4842 10.1497 56.861 10.8744 60.926 12.4562C65.2154 14.1416 69.0061 16.5517 72.7095 19.2493C75.7645 21.4639 79.3307 22.3669 83.0715 22.2922C86.4382 22.2116 89.7488 21.5041 93.0532 20.9404C93.5083 20.8657 94.3562 20.9232 94.456 21.5156C94.5433 22.0966 93.7826 22.4302 93.3213 22.505Z" fill="#D8BF66"/>
<path d="M92.885 22.6488C87.7289 24.5757 82.0429 25.3868 76.5502 25.3177C73.8755 25.2832 71.2071 24.9841 68.5324 25.0186C66.0822 25.0589 63.6132 25.3695 61.3687 26.3934C60.9822 26.5659 60.4897 26.4279 60.2777 26.0482C60.0532 25.6283 60.2839 25.1394 60.6954 24.9496C63.1456 23.8337 65.8328 23.4771 68.5074 23.4311C71.2008 23.3966 73.8817 23.6957 76.5751 23.7302C81.8683 23.7934 87.3611 23.0169 92.3301 21.1648C92.7291 21.0152 93.1655 21.2453 93.3276 21.6249C93.4773 22.0276 93.2902 22.4877 92.885 22.6488Z" fill="#D8BF66"/>
<path d="M80.6912 24.7999C77.5115 24.9897 74.4939 24.1959 71.7008 22.7061C68.8266 21.1703 66.2455 19.1456 63.4336 17.5121C61.8126 16.586 59.9235 16.1373 58.0594 16.2006C57.2052 16.2351 56.3511 16.3789 55.5468 16.6665C55.0418 16.8506 54.5555 17.0979 54.1253 17.4143C53.8073 17.6444 53.346 17.5121 53.0841 17.2532C52.7661 16.9196 52.816 16.4077 53.1776 16.1316C53.7325 15.7232 54.3497 15.4126 54.9981 15.1767C55.9583 14.8259 56.9808 14.6533 58.0033 14.613C60.1667 14.5383 62.355 15.0559 64.2379 16.1373C67.0373 17.7651 69.5997 19.7784 72.4614 21.3026C74.999 22.6486 77.7173 23.3791 80.6039 23.2066C81.0341 23.1835 81.4768 23.4769 81.5329 23.9198C81.5703 24.4087 81.1401 24.7711 80.6912 24.7999Z" fill="#D8BF66"/>
<path fill-rule="evenodd" clip-rule="evenodd" d="M144.009 152.869C143.935 152.086 143.816 151.482 143.66 150.999C143.211 149.63 141.809 148.399 140.774 147.45C139.514 146.3 137.831 145.052 137.681 146.674C137.594 147.634 137.394 148.572 136.509 149.958C136.858 149.107 137.114 148.325 137.17 147.26C137.22 146.323 137.089 145.092 137.207 144.522C137.089 144.08 137.22 142.941 136.864 140.807C137.812 144.131 142.8 148.946 145.811 151.028C146.291 151.362 146.566 151.465 147.195 152.282C145.936 151.275 145.113 150.832 144.614 150.982C144.053 151.143 143.903 152.017 144.009 152.869Z" fill="#D8BF66"/>
<path fill-rule="evenodd" clip-rule="evenodd" d="M130.593 160.277C131.641 159.788 131.641 158.598 131.541 157.499C131.204 153.818 130.288 153.283 131.828 149.659C132.333 148.468 133.511 146.846 133.686 146.029C134.334 142.975 133.324 139.616 134.665 135.659C134.789 134.52 134.845 133.341 134.933 132.443C135.126 130.47 135.55 129.78 137.059 134.019C138.337 137.39 141.242 142.406 145.214 146.438C148.855 150.136 152.546 153.162 155.339 157.102C158.917 162.141 159.341 167.111 159.21 172C157.508 168.474 151.797 165.512 149.397 163.044C146.99 160.571 147.732 155.244 145.638 155.492C143.817 155.71 145.974 159.351 146.529 161.238C147.296 163.861 145.837 166.662 144.783 168.928C145.295 165.684 142.24 162.365 140.344 160.11C139.291 158.856 140.22 156.251 140.276 155.681C140.382 154.6 141.703 152.57 140.444 151.166C138.505 149.003 138.53 153.938 137.919 155.083C136.766 157.252 133.842 159.529 130.593 160.277ZM149.029 157.798C149.578 159.788 150.045 160.559 150.937 161.376C152.839 163.13 155.887 164.672 157.477 166.409C157.097 164.655 156.554 162.515 155.526 160.743C152.676 155.842 147.614 151.091 144.085 147.795C142.676 146.478 141.186 144.845 140.014 143.222C138.599 141.261 137.252 138.782 136.242 136.959C135.737 138.857 135.17 140.433 135.631 143.447C135.643 148.733 134.004 148.808 132.981 152.029C132.607 153.283 132.975 155.325 133.287 157.114C134.939 155.934 136.342 155.037 136.915 153.127C137.395 151.523 137.389 149.4 138.468 148.727C140.731 147.318 142.62 150.907 142.788 152.903C142.901 154.226 141.76 155.808 141.672 157.303C141.404 161.226 144.091 160.484 145.201 164.931C146.174 162.457 145.207 161.445 144.216 159.196C143.218 156.947 143.518 154.238 144.958 153.777C146.392 153.306 147.963 153.915 149.029 157.798Z" fill="#D8BF66"/>
<path fill-rule="evenodd" clip-rule="evenodd" d="M150.83 6.46842C148.654 6.61797 147.014 8.59666 147.176 10.8917C147.338 13.1868 149.228 14.9239 151.41 14.7801C153.586 14.6305 155.225 12.6518 155.063 10.3625C154.901 8.06173 153.006 6.31887 150.83 6.46842Z" fill="#D8BF66"/>
<path d="M144.297 9.37339C144.434 8.48758 144.74 7.63053 145.213 6.86551C145.675 6.1235 146.286 5.48503 146.99 4.96735C148.474 3.87446 150.32 3.33377 152.159 3.32227C158.063 3.31652 163.07 9.91983 159.329 15.4015C157.296 18.3753 151.666 20.1297 148.967 17.0638C148.443 16.4714 148.113 15.7351 147.988 14.9528C148.524 15.3842 149.116 15.7351 149.771 15.9422C152.153 16.7475 155.239 15.6028 156.679 13.5839C159.192 9.99461 156.093 5.38724 152.053 4.73151C150.444 4.46692 148.749 4.697 147.302 5.46202C146.579 5.84741 145.93 6.37084 145.419 7.01506C144.864 7.69955 144.49 8.51059 144.297 9.37339Z" fill="#D8BF66"/>
<path d="M151.236 7.94669C150.594 7.99271 149.97 8.16527 149.403 8.45862C148.848 8.75198 148.355 9.14887 147.95 9.63204C147.539 10.121 147.227 10.6904 147.021 11.2944C146.809 11.9328 146.728 12.6116 146.778 13.2846C146.853 14.3257 147.121 15.3495 147.589 16.2929C148.031 17.1729 148.642 17.961 149.384 18.6109C150.126 19.2494 150.98 19.7441 151.909 20.0547C152.876 20.3768 153.898 20.5033 154.914 20.4401C155.955 20.3653 156.959 20.0604 157.882 19.5773C158.817 19.0768 159.646 18.3981 160.338 17.5986C161.037 16.7875 161.585 15.8557 161.947 14.8491C162.302 13.8368 162.464 12.7611 162.396 11.6855C162.29 10.236 161.885 8.8325 161.205 7.54405C160.538 6.29011 159.628 5.17997 158.549 4.25965C157.464 3.34508 156.224 2.63183 154.883 2.17167C153.536 1.71151 152.109 1.50444 150.687 1.60222C149.147 1.71151 147.657 2.22344 146.329 2.99421C144.733 3.92603 143.38 5.20873 142.289 6.69275C141.017 8.42411 139.858 12.8359 143.947 17.0291L134.97 8.78073L136.946 9.82185C138.187 10.4718 138.604 10.0634 139.122 8.94754C139.639 7.8259 140.263 6.75602 140.998 5.75517C142.22 4.09859 143.736 2.66634 145.519 1.62523C147.059 0.733667 148.786 0.146958 150.569 0.0261652C152.202 -0.0831231 153.842 0.152709 155.394 0.681895C156.922 1.21108 158.337 2.02212 159.572 3.06323C160.806 4.11585 161.847 5.38705 162.608 6.81355C163.387 8.29181 163.861 9.91964 163.979 11.5877C164.067 12.8819 163.873 14.1761 163.443 15.3956C163.013 16.5862 162.365 17.6906 161.542 18.6512C160.719 19.6003 159.734 20.3998 158.63 20.9923C157.514 21.5847 156.286 21.9529 155.02 22.0391C153.792 22.1197 152.564 21.9644 151.398 21.5732C150.276 21.1936 149.234 20.5954 148.337 19.8189C147.439 19.0366 146.697 18.0817 146.161 17.0119C145.6 15.8845 145.275 14.6593 145.188 13.4054C145.126 12.531 145.238 11.6452 145.512 10.8112C145.774 10.0117 146.192 9.2639 146.728 8.61968C147.264 7.9812 147.925 7.44627 148.661 7.06088C149.422 6.66399 150.263 6.42816 151.124 6.37064C151.161 6.88832 151.198 7.41751 151.236 7.94669Z" fill="#D8BF66"/>
<path fill-rule="evenodd" clip-rule="evenodd" d="M136.011 26.7331C135.7 25.1167 135.868 23.6442 135.669 22.3558C135.475 21.0961 134.278 17.4838 133.006 15.2348C134.291 16.4427 135.101 17.248 136.267 19.6753C137.19 21.5908 136.791 19.7559 135.899 17.1962C134.334 12.6924 131.89 9.83363 128.33 8.14254C127.146 7.57884 125.843 7.25098 124.427 7.24523C122.32 7.23948 120.905 5.61166 119.664 5.87625C118.43 6.14084 117.507 6.91161 118.754 7.53858C121.098 8.46466 123.835 9.37923 126.179 10.3111C128.573 12.9627 130.968 15.6144 133.368 18.2718C134.397 21.0903 134.989 23.9203 136.011 26.7331Z" fill="#D8BF66"/>
<path d="M2.95777 16.6898C2.90168 16.7243 2.84558 16.7646 2.79572 16.8105C2.50903 17.0923 2.43424 17.5638 2.55889 17.9375C2.72093 18.386 3.18215 18.616 3.64335 18.501C3.73683 18.478 3.82408 18.4435 3.9051 18.3975C4.40993 18.11 4.6156 17.4718 4.23542 17.0003C3.94249 16.6381 3.38781 16.4598 2.95777 16.6898Z" fill="#D8BF66"/>
</g>
</svg>
