<svg width="164" height="172" viewBox="0 0 164 172" fill="none" xmlns="http://www.w3.org/2000/svg">
<g opacity="0.4">
<path d="M14.6032 41.11C15.2454 41.1215 15.8813 41.2596 16.4612 41.5242C17.0348 41.783 17.546 42.1569 17.9824 42.6171C18.4188 43.083 18.768 43.6352 19.0049 44.2276C19.2481 44.8546 19.3728 45.5276 19.3665 46.2006C19.354 47.2474 19.1421 48.2828 18.7306 49.2434C18.3378 50.1465 17.7767 50.9632 17.0722 51.6535C16.3676 52.3322 15.5384 52.8729 14.6344 53.2353C13.6867 53.6092 12.6767 53.7932 11.6542 53.7817C10.613 53.7645 9.59056 53.5114 8.64289 53.08C7.68275 52.6313 6.81614 51.9986 6.07421 51.2393C5.33229 50.4628 4.72752 49.5655 4.3098 48.5761C3.89208 47.5811 3.67386 46.5169 3.6801 45.4413C3.6988 43.9918 4.02924 42.5653 4.62777 41.2423C5.22006 39.9539 6.06174 38.7977 7.09046 37.8199C8.11918 36.8478 9.32247 36.0713 10.6318 35.5306C11.9473 34.9956 13.3625 34.7138 14.7903 34.731C16.3365 34.754 17.8515 35.1855 19.2231 35.8814C20.8691 36.7212 22.2968 37.9349 23.4689 39.3557C24.9216 41.1215 25.9815 43.1808 26.711 45.3378C27.6462 48.1332 28.0514 51.084 28.1013 54.0233C28.1948 60.1492 27.5838 66.764 24.6223 72.2457C23.5437 74.2186 22.0973 76.0363 20.1459 77.2039C18.2443 78.3256 16.0621 78.6592 13.8862 78.3773C13.8177 78.9008 13.7491 79.43 13.6805 79.9534C16.2118 80.2813 18.7555 79.8671 20.9626 78.5672C23.1572 77.25 24.8094 75.231 26.0251 73.005C29.1175 67.276 29.7971 60.4023 29.6974 53.9946C29.6412 50.8942 29.2173 47.7824 28.226 44.8316C27.4342 42.4905 26.287 40.2587 24.7034 38.3433C23.3879 36.7557 21.7918 35.404 19.9526 34.4665C18.3627 33.6612 16.6046 33.1665 14.8152 33.1435C13.1755 33.1262 11.5545 33.4484 10.0332 34.0581C8.5369 34.6678 7.17151 35.5593 5.9994 36.6637C4.82728 37.7796 3.8609 39.1026 3.18133 40.5751C2.48928 42.0936 2.10896 43.7445 2.09026 45.4125C2.07779 46.7067 2.34588 47.9894 2.84465 49.1859C3.33719 50.3535 4.04794 51.4176 4.92703 52.3322C5.79989 53.2353 6.82861 53.983 7.96955 54.5122C9.12296 55.0414 10.3637 55.3463 11.6355 55.3635C12.8638 55.375 14.0858 55.1565 15.2267 54.702C16.324 54.2591 17.334 53.6092 18.1819 52.7866C19.0361 51.9526 19.7219 50.9632 20.1957 49.8646C20.6883 48.7084 20.9439 47.466 20.9626 46.2121C20.9751 45.332 20.813 44.4577 20.495 43.6409C20.1833 42.8587 19.7281 42.1339 19.1545 41.5242C18.5809 40.9145 17.8951 40.4198 17.1345 40.0747C16.3489 39.718 15.4948 39.5282 14.6344 39.5167C14.6157 40.0517 14.6095 40.5808 14.6032 41.11Z" fill="#D8BF66"/>
<path fill-rule="evenodd" clip-rule="evenodd" d="M14.915 39.6082C17.0972 39.637 18.8429 41.5237 18.8179 43.8245C18.793 46.1253 16.9974 47.9659 14.8153 47.9372C12.6331 47.9084 10.8874 46.0217 10.9124 43.7209C10.9435 41.4201 12.7329 39.5795 14.915 39.6082Z" fill="#D8BF66"/>
<path d="M21.6111 42.1507C21.4241 41.2707 21.0687 40.4309 20.5512 39.6946C20.0462 38.9814 19.404 38.3774 18.6683 37.8942C14.622 35.2541 8.77393 36.5425 6.39852 40.8278C4.10417 45.0728 6.19902 50.1921 10.8314 51.6243C13.8302 52.5159 17.8952 51.4517 18.2506 47.92C16.4488 49.5478 14.0609 49.7031 11.8414 48.7598C7.78262 47.0227 7.30255 42.0817 10.663 39.3438C12.7641 37.6124 15.9189 37.273 18.3816 38.4062C19.1235 38.7513 19.8031 39.2402 20.3517 39.8499C20.944 40.5114 21.368 41.2994 21.6111 42.1507Z" fill="#D8BF66"/>
<path fill-rule="evenodd" clip-rule="evenodd" d="M23.6072 44.4226C24.6484 44.4341 25.4838 45.2912 25.4713 46.3265C25.4589 47.3619 24.6047 48.196 23.5635 48.1845C22.5223 48.1729 21.6869 47.3159 21.6994 46.2805C21.7118 45.2394 22.566 44.4111 23.6072 44.4226Z" fill="#D8BF66"/>
<path fill-rule="evenodd" clip-rule="evenodd" d="M24.0867 50.566C25.3648 50.5832 26.3935 51.6301 26.3748 52.907C26.3623 54.184 25.3087 55.2021 24.0306 55.1848C22.7525 55.1676 21.7237 54.1207 21.7424 52.8438C21.7549 51.5726 22.8086 50.5487 24.0867 50.566Z" fill="#D8BF66"/>
<path fill-rule="evenodd" clip-rule="evenodd" d="M23.4201 57.1753C24.9102 57.1925 26.101 58.412 26.0823 59.896C26.0636 61.38 24.8416 62.5649 23.3577 62.5477C21.8676 62.5304 20.6768 61.311 20.6955 59.827C20.7142 58.3429 21.93 57.158 23.4201 57.1753Z" fill="#D8BF66"/>
<path fill-rule="evenodd" clip-rule="evenodd" d="M21.5295 63.8933C23.2815 63.9163 24.6905 65.3543 24.6656 67.1029C24.6469 68.8515 23.2067 70.2493 21.4547 70.2263C19.7028 70.2033 18.2937 68.7653 18.3187 67.0166C18.3374 65.268 19.7776 63.8703 21.5295 63.8933Z" fill="#D8BF66"/>
<path fill-rule="evenodd" clip-rule="evenodd" d="M16.7107 69.8925C18.6185 69.9155 20.146 71.4801 20.1273 73.384C20.1024 75.2879 18.5375 76.8064 16.6297 76.7834C14.7218 76.7604 13.1944 75.1959 13.2131 73.292C13.238 71.388 14.8029 69.8638 16.7107 69.8925Z" fill="#D8BF66"/>
<path fill-rule="evenodd" clip-rule="evenodd" d="M13.4132 78.4572C15.3086 86.0384 11.3994 89.6679 8.91805 100.741C7.32821 107.839 6.29949 116.415 7.58383 126.176C9.7909 137.726 14.0055 148.097 21.5682 156.621C26.0135 162.281 30.2094 164.789 34.4116 165.531C37.6786 166.106 37.5975 163.903 44.6302 165.353C14.2237 157.599 2.47764 124.025 13.8559 96.7026C16.3809 90.6457 20.0656 84.7729 19.7539 77.9108C17.8149 78.4457 15.346 78.555 13.4132 78.4572Z" fill="#D8BF66"/>
<path d="M25.283 34.2478C30.1585 43.7962 30.863 54.5007 28.9988 64.9176C27.0848 75.4323 22.9263 85.389 18.3937 95.0121C11.9096 108.88 9.19754 124.767 12.2089 139.889C12.7264 139.786 19.7341 150.404 20.2516 150.301C17.0158 150.151 10.6627 132.003 13.088 118.912C14.5593 110.957 16.411 102.99 19.8401 95.6851C24.4226 85.9297 28.631 75.8464 30.57 65.1937C32.4965 54.4317 31.7421 43.3763 26.7045 33.5173C26.2244 33.7647 25.7568 34.0062 25.283 34.2478Z" fill="#D8BF66"/>
<path d="M48.5386 98.5608C48.47 99.2683 48.3515 100.005 48.5386 100.701C48.6508 101.103 48.8752 101.46 49.2119 101.713C49.5797 101.983 50.0286 102.104 50.4713 102.15C51.0449 102.208 51.6185 102.231 52.1921 102.173C52.7095 102.116 53.2208 101.983 53.6759 101.719C54.131 101.454 54.4989 101.063 54.7483 100.597C55.0164 100.085 55.1473 99.5156 55.2034 98.9404C55.2658 98.2904 55.1909 97.6347 54.9914 97.0135C54.7919 96.4153 54.474 95.8574 54.0625 95.3799C53.6447 94.8968 53.1397 94.4941 52.5724 94.195C51.9801 93.8844 51.3317 93.6946 50.6708 93.6256C49.7605 93.5335 48.8378 93.6428 47.9587 93.8959C47.0485 94.1663 46.1943 94.5919 45.4399 95.1671C44.6668 95.7596 44.0184 96.5016 43.5633 97.3644C43.077 98.2962 42.8525 99.3316 42.8837 100.378C42.9211 101.489 43.1892 102.576 43.6568 103.582C44.1306 104.595 44.7728 105.515 45.5023 106.361C47.1358 108.241 49.1246 109.789 51.0636 111.342C55.5027 114.868 59.9542 118.584 62.2735 123.898C63.9132 127.706 65.023 131.853 65.1228 136.012C65.1539 137.605 65.0417 139.228 64.5803 140.763C64.2499 141.85 63.72 142.938 62.8097 143.662C63.1401 144.076 63.4706 144.491 63.801 144.905C64.9607 143.979 65.6714 142.627 66.1016 141.223C66.6128 139.532 66.75 137.738 66.7126 135.978C66.6129 131.612 65.4594 127.269 63.7387 123.271C61.3071 117.704 56.7122 113.798 52.0549 110.105C50.1907 108.621 48.2767 107.137 46.7056 105.331C46.0759 104.6 45.5085 103.807 45.1033 102.927C44.7292 102.11 44.511 101.235 44.4798 100.338C44.4611 99.5616 44.6232 98.7966 44.9848 98.1006C45.3277 97.4449 45.8327 96.8812 46.4188 96.4325C47.0173 95.9781 47.6969 95.6388 48.4201 95.4259C49.0997 95.2304 49.8167 95.1383 50.5212 95.2074C50.9825 95.2534 51.4314 95.3857 51.8429 95.6043C52.2295 95.8056 52.5786 96.0817 52.8654 96.4153C53.1397 96.7374 53.3579 97.1113 53.4889 97.5139C53.626 97.9223 53.6697 98.3537 53.6323 98.7851C53.5949 99.1475 53.5263 99.5214 53.3517 99.8492C53.2395 100.056 53.0836 100.229 52.8841 100.344C52.6285 100.493 52.3292 100.557 52.03 100.591C51.5686 100.637 51.101 100.614 50.6396 100.568C50.4838 100.551 50.2967 100.534 50.172 100.436C50.1222 100.396 50.1035 100.344 50.0847 100.286C49.9538 99.7917 50.0848 99.205 50.1346 98.7104C49.5984 98.6643 49.0685 98.6126 48.5386 98.5608Z" fill="#D8BF66"/>
<path fill-rule="evenodd" clip-rule="evenodd" d="M50.6831 96.398C52.2605 96.8524 53.2581 98.4515 52.9151 99.97C52.5722 101.489 51.0136 102.357 49.4362 101.903C47.8588 101.448 46.8613 99.8493 47.2042 98.3307C47.5471 96.8122 49.1058 95.9436 50.6831 96.398Z" fill="#D8BF66"/>
<path fill-rule="evenodd" clip-rule="evenodd" d="M36.1699 103.093C39.5553 106.522 44.3623 110.444 47.5544 112.981C53.627 117.807 58.5524 121.028 61.7695 125.9C67.4929 134.551 68.372 143.225 60.9964 151.364C59.8866 152.589 58.3778 154.332 56.788 155.028C62.1435 148.523 72.2001 127.839 40.0167 118.957C42.1116 113.901 40.5467 108.23 36.1699 103.093Z" fill="#D8BF66"/>
<path d="M34.0245 142.713C34.0744 144.042 34.1305 145.1 34.7851 146.573C35.2465 147.608 35.9946 148.488 36.9111 149.167C37.7778 149.806 38.7815 150.231 39.8352 150.45C40.9076 150.663 42.0111 150.668 43.0959 150.502C45.3965 150.133 47.535 149.023 49.181 147.39C51.0202 145.538 52.0988 143.099 52.2796 140.505C52.3856 138.9 52.1923 137.278 51.6686 135.753C51.1761 134.333 50.403 133.01 49.3805 131.9C48.3705 130.807 47.1422 129.938 45.7706 129.357C44.3366 128.753 42.7842 128.483 41.2318 128.529C39.2117 128.598 37.2291 129.081 35.4273 130.007C33.7128 130.893 32.2227 132.153 31.0256 133.66C29.7974 135.218 28.8934 137.002 28.3073 138.894C27.6901 140.924 27.4344 143.041 27.503 145.158C27.5903 147.516 28.2325 149.811 29.1614 151.974C30.1652 154.269 31.5057 156.409 33.0955 158.353C34.6604 160.251 36.456 161.96 38.501 163.334C40.3651 164.577 42.4413 165.543 44.6671 165.888C44.7481 165.365 44.8229 164.841 44.904 164.318C42.9089 164.013 41.051 163.127 39.3863 162.017C37.4723 160.729 35.7889 159.124 34.3238 157.346C32.8337 155.517 31.5618 153.504 30.6204 151.341C29.7662 149.368 29.1677 147.263 29.0929 145.106C29.0305 143.162 29.2612 141.224 29.8286 139.36C30.3585 137.657 31.169 136.047 32.2725 134.643C33.3324 133.315 34.6479 132.204 36.1567 131.416C37.7403 130.6 39.4985 130.174 41.2754 130.116C42.5972 130.076 43.9189 130.306 45.1409 130.818C46.3005 131.307 47.3417 132.049 48.1959 132.969C49.0687 133.918 49.7296 135.046 50.1473 136.26C50.6025 137.588 50.7646 138.992 50.671 140.389C50.5152 142.604 49.5987 144.68 48.0338 146.262C46.6247 147.66 44.7918 148.615 42.8278 148.931C41.9363 149.069 41.0198 149.069 40.1345 148.891C39.3115 148.724 38.5259 148.396 37.8463 147.896C37.1418 147.372 36.5932 146.676 36.2066 145.888C35.7265 144.882 35.5208 143.772 35.4834 142.662C34.9722 142.685 34.5544 142.696 34.0245 142.713Z" fill="#D8BF66"/>
<path fill-rule="evenodd" clip-rule="evenodd" d="M37.741 139.291C39.7984 139.32 41.4444 141.155 41.4195 143.392C41.3945 145.63 39.7049 147.424 37.6475 147.396C35.59 147.367 33.9441 145.532 33.969 143.294C33.994 141.057 35.6836 139.262 37.741 139.291Z" fill="#D8BF66"/>
<path fill-rule="evenodd" clip-rule="evenodd" d="M30.6881 147.804C29.117 144.122 30.3951 138.549 31.9475 135.955C34.0736 132.4 37.8144 130.881 41.4305 131.042C43.569 131.134 48.2013 132.302 48.9744 136.386C49.6789 140.119 47.3596 146.958 41.7921 148.195C42.6899 146.423 43.0203 145.066 42.9205 143.766C42.8333 142.621 42.4155 141.522 41.7547 140.228C44.342 138.296 43.1762 135.126 41.5676 133.97C39.4728 132.463 35.7382 132.871 32.8204 136.305C31.5797 137.766 29.9337 142.144 30.6881 147.804Z" fill="#D8BF66"/>
<path fill-rule="evenodd" clip-rule="evenodd" d="M36.968 152.9C41.326 156.552 55.9089 155.764 57.0124 142.949C58.6272 124.169 36.1762 122.391 31.5625 128.621C31.575 126.51 33.5389 125.181 36.226 124.554C40.1601 123.634 45.6466 124.209 48.8637 126.009C54.2816 129.046 58.2967 134.551 58.5773 142.138C58.8329 148.96 56.7817 153.268 53.5459 156.098C51.6693 157.737 49.3874 158.876 46.9185 159.716C49.3375 164.093 59.7369 153.901 65.4105 154.229C71.0903 154.556 74.1266 159.981 81.259 162.949C76.0967 161.068 72.4183 164.329 73.5405 168.333C70.4045 165.83 68.1039 161.096 63.3468 160.257C58.596 159.417 53.4649 164.479 47.7851 162.782C42.1116 161.068 35.746 157.076 36.968 152.9Z" fill="#D8BF66"/>
<path d="M35.6213 52.5446C36.6687 59.1192 35.9892 65.9468 33.7696 72.2165C29.6547 83.7263 23.5074 94.3848 19.3488 105.883C13.9434 121.017 14.7601 136.564 23.4263 150.214C26.1571 154.465 29.4677 158.428 33.4517 161.563C33.8257 161.856 35.6213 163.144 35.2223 163.8C34.736 164.508 32.8344 163.098 32.4666 162.811C28.333 159.561 24.9039 155.471 22.0796 151.065C13.1454 137.001 12.2725 120.942 17.8401 105.342C21.9986 93.8441 28.146 83.1856 32.2546 71.6758C34.3806 65.6592 35.0353 59.1019 34.0315 52.7862C33.9567 52.3146 33.4143 49.7434 34.1624 49.5248C35.0477 49.3465 35.5465 52.0787 35.6213 52.5446Z" fill="#D8BF66"/>
<path d="M31.0449 85.3545C26.9674 92.5732 23.3139 100.126 21.3063 108.207C18.3885 120.309 20.4709 132.751 24.1431 144.456C24.2803 144.888 24.6107 146.228 23.9498 146.447C23.2765 146.665 22.759 145.365 22.6218 144.934C18.8561 132.947 16.7737 120.217 19.7601 107.828C21.7989 99.608 25.5085 91.9233 29.6546 84.5779C29.8852 84.1753 30.677 82.9559 31.3005 83.3067C31.9115 83.6691 31.2693 84.9576 31.0449 85.3545Z" fill="#D8BF66"/>
<path d="M36.6557 83.3815C30.633 88.2305 26.0817 94.5979 23.3385 101.811C23.1951 102.185 22.7088 102.225 22.3783 102.11C22.0417 101.989 21.705 101.633 21.8484 101.247C24.6914 93.7697 29.411 87.1663 35.6582 82.1391C36.8428 81.2705 37.4849 82.7028 36.6557 83.3815Z" fill="#D8BF66"/>
<path d="M36.2445 96.8068C33.6572 97.8421 31.0448 98.8775 28.6133 100.246C26.6245 101.374 24.7977 102.772 23.4635 104.653C20.9758 108.219 20.3836 112.815 20.0157 117.037C19.9721 117.485 19.6603 118.037 19.1366 118.009C18.6129 117.963 18.3885 117.353 18.4259 116.904C18.8187 112.389 19.4982 107.557 22.1542 103.744C23.6193 101.667 25.6207 100.114 27.8215 98.866C30.3154 97.4625 32.99 96.3926 35.646 95.3342C37.161 94.7418 37.6536 96.2316 36.2445 96.8068Z" fill="#D8BF66"/>
<path d="M25.1585 121.443C23.712 122.507 22.6147 123.933 21.9913 125.619C21.2868 127.574 21.1995 129.685 21.3553 131.745C21.7294 136.283 23.1946 140.649 24.3791 145.02C24.4851 145.417 24.136 145.756 23.7806 145.848C23.4252 145.94 22.9576 145.825 22.8454 145.434C21.6297 140.965 20.1458 136.507 19.7655 131.871C19.5909 129.582 19.7094 127.252 20.4949 125.078C21.2244 123.099 22.5087 121.414 24.217 120.166C24.5724 119.907 25.2021 119.821 25.4328 120.189C25.6448 120.511 25.4889 121.201 25.1585 121.443Z" fill="#D8BF66"/>
<path d="M25.8875 135.753C24.9834 136.909 24.4784 138.37 24.1979 139.791C23.8799 141.442 23.855 143.173 24.3163 144.801C24.3724 145.025 23.7614 145.227 23.6243 145.267C23.4684 145.319 22.8637 145.497 22.7826 145.238C22.2527 143.369 22.2651 141.379 22.633 139.486C22.9634 137.812 23.5744 136.127 24.6343 134.769C25.8625 133.285 26.6855 134.666 25.8875 135.753Z" fill="#D8BF66"/>
<path d="M28.6692 156.743C26.3811 152.337 25.0282 149.524 25.0157 144.169C25.0032 139.665 26.3125 135.334 28.8687 131.612C29.1181 131.255 29.6169 131.192 29.966 131.445C30.2965 131.693 30.4149 132.164 30.178 132.515C27.8088 135.966 26.5993 139.987 26.6056 144.163C26.618 149.714 28.5383 153.746 31.0696 158.623C31.2753 159.02 31.8053 159.239 31.3813 159.469C30.4835 159.958 29.0246 157.427 28.6692 156.743Z" fill="#D8BF66"/>
<path d="M29.299 132.929C27.6406 133.343 26.138 133.004 24.8848 131.779C23.8187 130.743 23.5007 129.116 23.8187 127.706C24.1055 126.452 24.8786 125.377 25.7826 124.485C26.7428 123.542 27.865 122.777 29.0558 122.156C31.3627 120.953 33.9937 119.694 35.702 117.669C37.4352 115.616 37.7844 111.951 35.7955 109.956C34.1246 108.287 32.8091 108.414 30.9886 109.472C30.5584 109.72 30.1718 110.082 29.9973 110.554C29.5047 111.854 28.0146 111.336 28.5009 109.996C28.9187 108.851 29.991 108.075 31.2006 107.649C34.1683 106.608 36.8741 107.804 38.1896 110.64C39.343 113.125 38.651 116.622 36.9177 118.693C35.066 120.884 32.2854 122.259 29.7853 123.571C28.7379 124.123 27.7403 124.796 26.8924 125.624C26.2128 126.297 25.5831 127.114 25.3649 128.063C25.1716 128.937 25.3213 130.001 25.9884 130.651C26.855 131.497 27.7715 131.675 28.9062 131.393C29.4736 131.227 30.0658 131.301 30.2654 131.773C30.5085 132.331 29.7479 132.82 29.299 132.929Z" fill="#D8BF66"/>
<path d="M29.0937 109.426C29.2122 109.323 29.3306 109.231 29.4616 109.139C29.9354 108.799 30.484 108.552 31.0701 108.495C31.6375 108.437 32.211 108.552 32.7223 108.811C33.2024 109.058 33.6138 109.421 33.938 109.846C34.2622 110.272 34.4992 110.761 34.6363 111.279C34.7735 111.808 34.8109 112.36 34.7174 112.901C34.5615 113.781 34.2311 114.626 33.7448 115.38C31.3132 119.136 26.313 119.113 23.4077 115.69C20.041 111.658 21.9051 105.36 26.4938 103.042C31.4068 100.597 35.1289 102.248 38.1527 97.2378C39.1128 95.6388 39.8859 93.9419 40.6652 92.2508C40.8648 91.8252 41.3947 91.0142 41.9309 91.2672C42.4608 91.5203 42.3112 92.4867 42.1117 92.9123C41.3137 94.6552 40.5094 96.4095 39.5181 98.0546C36.1825 103.582 32.4791 101.839 27.2108 104.462C23.5573 106.303 21.9176 111.422 24.6297 114.666C26.8305 117.261 30.5401 117.399 32.4043 114.517C32.7722 113.942 33.0278 113.292 33.1462 112.619C33.2024 112.308 33.1774 111.986 33.0964 111.681C33.0091 111.365 32.8657 111.06 32.6662 110.801C32.4854 110.565 32.2609 110.358 31.9928 110.226C31.7559 110.105 31.4941 110.053 31.2322 110.076C30.9267 110.111 30.6399 110.26 30.3905 110.433C30.3032 110.496 30.2222 110.56 30.1411 110.629C29.8169 110.905 29.1062 111.394 28.6698 111.094C28.1211 110.68 28.7446 109.731 29.0937 109.426Z" fill="#D8BF66"/>
<path d="M40.6578 92.2853C38.1266 92.4061 35.8384 93.1768 33.6625 94.425C32.4967 95.0923 31.1874 96.0414 29.7596 95.817C27.9142 95.5179 27.883 93.6198 28.9429 92.3486C29.4417 91.7561 30.0776 91.3074 30.7323 90.899C32.2223 89.9787 33.7935 89.2137 35.1651 88.1093C36.412 87.0912 37.5218 85.889 38.2513 84.4395C38.7812 83.3754 39.0742 82.2308 39.2613 81.0631C39.4359 79.976 39.4109 78.6587 39.7289 77.6004C39.9596 76.8181 40.3336 76.0934 40.8636 75.4721C41.1691 75.1213 41.8674 74.8337 42.2165 75.2938C42.4846 75.6447 42.335 76.2026 42.0731 76.5133C41.6866 76.9619 41.4247 77.4969 41.2564 78.0605C40.9633 79.0499 40.9945 80.2981 40.8386 81.3162C40.6267 82.6449 40.29 83.9506 39.679 85.1585C38.8498 86.8036 37.5966 88.1841 36.1751 89.346C34.7536 90.4964 33.1264 91.2959 31.5802 92.2565C31.0689 92.5729 30.5577 92.918 30.1711 93.3782C29.5851 94.0799 29.7098 94.4768 30.6761 94.1892C31.4617 93.9534 32.1662 93.4587 32.8707 93.0561C35.2711 91.6813 37.8086 90.8358 40.5893 90.7035C41.0506 90.6862 42.2664 90.9106 42.2477 91.8079C42.229 92.3658 41.1067 92.2623 40.6578 92.2853Z" fill="#D8BF66"/>
<path d="M41.3436 76.4498C40.6079 76.5591 39.9221 76.7259 39.2924 77.1113C38.5505 77.5657 37.8335 78.1639 37.3472 78.8886C36.7923 79.7227 36.1564 80.551 35.3895 81.2182C33.463 82.8978 31.4305 81.7647 32.3657 79.1647C32.6649 78.3365 33.0702 77.5484 33.463 76.7604C34.2735 75.1326 35.2274 73.4702 35.6264 71.6756C37.104 65.0953 36.0878 57.4221 33.862 51.0949C33.7124 50.6635 33.6188 49.8295 34.1675 49.6166C34.7286 49.4038 35.0653 50.1286 35.2212 50.5657C37.5467 57.1748 38.7313 65.1528 37.1851 72.0265C36.7549 73.9419 35.7636 75.7135 34.8907 77.4621C34.5229 78.2042 34.2174 78.9749 33.8558 79.7169C33.6188 80.2001 33.8371 80.6143 34.1862 80.2346C34.872 79.4984 35.4518 78.8369 36.0067 78.0028C36.6177 77.0825 37.5342 76.3693 38.4445 75.7538C38.9557 75.4087 42.2601 74.103 42.4534 75.7538C42.5157 76.2197 41.7613 76.3923 41.3436 76.4498Z" fill="#D8BF66"/>
<path d="M153.829 163.018C154.764 163.202 155.394 164.139 155.332 165.071C155.238 166.164 154.191 166.814 153.143 166.63C152.956 166.596 152.776 166.532 152.607 166.446C151.865 166.055 151.485 165.221 151.697 164.41C151.903 163.662 152.57 163.075 153.355 163.001C153.517 162.978 153.673 162.989 153.829 163.018Z" fill="#D8BF66"/>
<path d="M150.295 162.253C151.136 162.54 151.573 163.466 151.348 164.306C151.086 165.198 150.133 165.675 149.247 165.388C149.004 165.307 148.78 165.169 148.593 164.985C148.15 164.531 148.013 163.869 148.225 163.277C148.437 162.696 148.967 162.27 149.578 162.189C149.821 162.155 150.064 162.178 150.295 162.253Z" fill="#D8BF66"/>
<path d="M157.178 163.409C156.361 163.501 155.75 164.306 155.706 165.094C155.669 166.095 156.554 166.791 157.521 166.699C158.069 166.641 158.587 166.336 158.83 165.836C159.011 165.497 159.036 165.106 158.917 164.737C158.805 164.387 158.58 164.082 158.306 163.84C158.001 163.558 157.608 163.368 157.178 163.409Z" fill="#D8BF66"/>
<path d="M147.021 161.24C146.261 160.958 145.413 161.349 145.113 162.097C144.82 162.856 145.194 163.719 145.955 164.024C146.722 164.312 147.582 163.921 147.875 163.156C148.143 162.396 147.782 161.539 147.021 161.24Z" fill="#D8BF66"/>
<path d="M159.666 162.719C159.747 162.661 159.835 162.615 159.928 162.581C160.452 162.419 161.125 162.598 161.555 162.914C162.141 163.351 162.241 164.122 161.836 164.715C161.73 164.858 161.605 164.991 161.462 165.094C160.726 165.635 159.641 165.514 159.28 164.605C159.049 164.03 159.13 163.127 159.666 162.719Z" fill="#D8BF66"/>
<path d="M144.028 160.228C144.708 160.505 145.026 161.287 144.764 161.96C144.49 162.639 143.717 162.978 143.031 162.713C142.351 162.437 142.027 161.655 142.295 160.976C142.576 160.303 143.349 159.958 144.028 160.228Z" fill="#D8BF66"/>
<path d="M161.081 160.936C160.869 161.569 161.212 162.276 161.754 162.627C162.521 163.104 163.35 162.581 163.625 161.804C163.644 161.758 163.656 161.707 163.668 161.661C163.824 160.959 163.388 160.251 162.671 160.119C162.097 160.021 161.374 160.292 161.118 160.844C161.1 160.873 161.087 160.901 161.081 160.936Z" fill="#D8BF66"/>
<path d="M141.29 159.274C140.673 159.033 139.975 159.343 139.732 159.953C139.496 160.562 139.788 161.264 140.399 161.511C141.016 161.753 141.708 161.442 141.957 160.838C142.194 160.223 141.901 159.522 141.29 159.274Z" fill="#D8BF66"/>
<path d="M161.585 158.584C161.554 158.026 162.065 157.514 162.564 157.348C163.306 157.112 163.941 157.693 163.997 158.423C164.016 158.756 163.923 159.101 163.711 159.36C163.461 159.648 163.106 159.791 162.726 159.74C162.371 159.688 162.053 159.481 161.847 159.182C161.71 159.009 161.598 158.808 161.585 158.584Z" fill="#D8BF66"/>
<path d="M138.766 158.417C139.321 158.636 139.595 159.262 139.383 159.82C139.165 160.366 138.548 160.654 137.994 160.447C137.439 160.228 137.171 159.607 137.37 159.055C137.582 158.498 138.206 158.21 138.766 158.417Z" fill="#D8BF66"/>
<path d="M161.017 156.679C161.323 157.105 161.971 157.179 162.426 156.995C163.056 156.725 163.168 155.972 162.8 155.437C162.65 155.225 162.439 155.058 162.189 154.983C161.834 154.88 161.46 154.983 161.204 155.248C160.974 155.489 160.855 155.828 160.855 156.162C160.868 156.346 160.918 156.53 161.017 156.679Z" fill="#D8BF66"/>
<path d="M136.435 157.669C135.924 157.491 135.369 157.761 135.188 158.267C135.02 158.768 135.276 159.325 135.78 159.509C136.285 159.682 136.834 159.412 137.021 158.923C137.201 158.417 136.94 157.853 136.435 157.669Z" fill="#D8BF66"/>
<path d="M159.652 155.31C159.596 155.276 159.54 155.235 159.49 155.189C159.204 154.908 159.129 154.436 159.253 154.062C159.415 153.614 159.877 153.384 160.338 153.499C160.431 153.522 160.519 153.556 160.6 153.602C161.104 153.89 161.31 154.528 160.93 155C160.637 155.362 160.076 155.54 159.652 155.31Z" fill="#D8BF66"/>
<path d="M134.272 157.042C134.733 157.192 134.988 157.692 134.833 158.152C134.677 158.6 134.184 158.853 133.729 158.715C133.567 158.663 133.424 158.56 133.312 158.428C133.119 158.204 133.038 157.893 133.125 157.606C133.218 157.318 133.461 157.111 133.748 157.036C133.923 156.985 134.103 156.985 134.272 157.042Z" fill="#D8BF66"/>
<path d="M157.932 154.654C158.375 154.7 158.786 154.367 158.905 153.953C159.048 153.43 158.655 152.975 158.138 152.906C158.07 152.901 158.001 152.895 157.939 152.901C157.49 152.935 157.128 153.28 157.141 153.74C157.16 154.125 157.415 154.499 157.789 154.62C157.833 154.637 157.883 154.649 157.932 154.654Z" fill="#D8BF66"/>
<path d="M132.133 156.479C131.703 156.358 131.217 156.559 131.093 157.008C130.974 157.445 131.273 157.876 131.691 157.997C132.115 158.117 132.601 157.916 132.738 157.479C132.869 157.036 132.563 156.605 132.133 156.479Z" fill="#D8BF66"/>
<path d="M156.193 154.671C156.112 154.689 156.031 154.694 155.95 154.683C155.645 154.643 155.37 154.424 155.258 154.142C155.127 153.82 155.246 153.47 155.526 153.268C155.614 153.205 155.713 153.159 155.813 153.136C156.262 153.033 156.71 153.309 156.767 153.774C156.804 154.148 156.58 154.574 156.193 154.671Z" fill="#D8BF66"/>
<path d="M130.143 156.018C130.53 156.122 130.804 156.501 130.704 156.898C130.598 157.289 130.174 157.49 129.794 157.393C129.414 157.295 129.152 156.915 129.239 156.524C129.339 156.128 129.757 155.921 130.143 156.018Z" fill="#D8BF66"/>
<path d="M154.696 155.236C154.995 155.034 155.064 154.609 154.914 154.293C154.727 153.913 154.253 153.821 153.91 154.045C153.761 154.143 153.643 154.298 153.599 154.477C153.549 154.684 153.599 154.902 153.742 155.063C153.879 155.218 154.073 155.31 154.278 155.328C154.428 155.345 154.571 155.316 154.696 155.236Z" fill="#D8BF66"/>
<path d="M128.342 155.661C127.993 155.587 127.632 155.794 127.557 156.15C127.488 156.501 127.719 156.834 128.068 156.915C128.411 156.99 128.772 156.783 128.853 156.438C128.934 156.081 128.691 155.742 128.342 155.661Z" fill="#D8BF66"/>
<path d="M153.562 156.185C153.362 156.438 152.97 156.473 152.695 156.317C152.365 156.122 152.315 155.696 152.54 155.403C152.77 155.11 153.194 155.052 153.468 155.317C153.693 155.541 153.761 155.926 153.562 156.185Z" fill="#D8BF66"/>
<path d="M126.715 155.403C127.027 155.46 127.245 155.765 127.189 156.075C127.127 156.386 126.821 156.587 126.516 156.535C126.204 156.478 125.999 156.179 126.048 155.868C126.098 155.558 126.397 155.345 126.715 155.403Z" fill="#D8BF66"/>
<path d="M152.858 157.352C152.951 157.076 152.783 156.766 152.527 156.639C152.222 156.496 151.879 156.657 151.761 156.967C151.655 157.283 151.817 157.628 152.153 157.709C152.434 157.766 152.758 157.628 152.858 157.352Z" fill="#D8BF66"/>
<path d="M125.244 155.224C124.964 155.19 124.708 155.397 124.677 155.673C124.646 155.943 124.827 156.213 125.107 156.253C125.388 156.288 125.637 156.087 125.681 155.811C125.718 155.535 125.531 155.264 125.244 155.224Z" fill="#D8BF66"/>
<path d="M152.57 158.606C152.57 158.865 152.34 159.078 152.09 159.118C151.772 159.164 151.529 158.911 151.529 158.606C151.529 158.491 151.56 158.382 151.623 158.284C151.729 158.135 151.903 158.054 152.09 158.083C152.258 158.106 152.414 158.215 152.502 158.365C152.539 158.434 152.564 158.52 152.57 158.606Z" fill="#D8BF66"/>
<path d="M123.923 155.126C124.178 155.149 124.347 155.391 124.322 155.638C124.297 155.88 124.085 156.081 123.836 156.058C123.586 156.035 123.424 155.793 123.443 155.558C123.462 155.305 123.667 155.103 123.923 155.126Z" fill="#D8BF66"/>
<path d="M152.757 159.716C152.719 159.636 152.657 159.573 152.588 159.527C152.464 159.458 152.314 159.435 152.177 159.475C152.028 159.515 151.915 159.63 151.878 159.774C151.853 159.883 151.865 159.992 151.909 160.09C152.021 160.337 152.314 160.452 152.551 160.309C152.732 160.194 152.85 159.935 152.757 159.716Z" fill="#D8BF66"/>
<path d="M122.731 155.086C122.501 155.08 122.338 155.276 122.332 155.494C122.326 155.707 122.469 155.914 122.694 155.926C122.918 155.931 123.08 155.736 123.099 155.529C123.105 155.31 122.955 155.098 122.731 155.086Z" fill="#D8BF66"/>
<path d="M153.331 160.631C153.48 160.786 153.468 161.039 153.343 161.2C153.187 161.39 152.907 161.39 152.732 161.223C152.676 161.172 152.639 161.103 152.62 161.028C152.577 160.873 152.633 160.712 152.757 160.614C152.876 160.522 153.031 160.493 153.175 160.539C153.231 160.556 153.287 160.591 153.331 160.631Z" fill="#D8BF66"/>
<path d="M121.658 155.103C121.864 155.103 121.995 155.293 121.995 155.483C121.989 155.667 121.858 155.857 121.665 155.862C121.465 155.862 121.334 155.673 121.334 155.489C121.328 155.299 121.453 155.109 121.658 155.103Z" fill="#D8BF66"/>
<path d="M154.148 161.269C154.141 161.269 154.141 161.269 154.148 161.269C153.967 161.183 153.749 161.258 153.649 161.419C153.531 161.609 153.612 161.839 153.805 161.942H153.811C154.004 162.034 154.235 161.954 154.316 161.752C154.378 161.586 154.316 161.361 154.148 161.269Z" fill="#D8BF66"/>
<path d="M120.693 155.172C120.512 155.184 120.412 155.368 120.425 155.529C120.437 155.69 120.556 155.857 120.73 155.851C120.905 155.839 121.004 155.661 120.998 155.494C120.998 155.333 120.874 155.161 120.693 155.172Z" fill="#D8BF66"/>
<path d="M155.052 161.609C155.226 161.643 155.351 161.816 155.338 161.988C155.32 162.19 155.127 162.31 154.933 162.276C154.74 162.241 154.609 162.057 154.659 161.868C154.709 161.707 154.877 161.58 155.052 161.609Z" fill="#D8BF66"/>
<path d="M65.9591 146.509C67.125 146.32 68.0227 145.612 68.7584 144.715C70.2174 142.914 71.0216 140.729 71.9818 138.646C72.998 136.449 74.2013 134.229 75.9969 132.566C79.1329 129.696 83.7092 130.145 86.4774 133.205C89.5698 136.656 88.5909 141.379 83.7902 142.103C83.1293 142.201 82.456 142.201 81.8014 142.057C79.6566 141.58 78.179 139.411 78.8524 137.295C79.2451 136.087 80.2926 135.27 81.5021 135C81.9572 134.902 82.9984 135.017 82.9672 135.684C82.9111 136.518 81.3338 136.553 80.7789 137.105C80.5918 137.295 80.4484 137.525 80.3674 137.778C79.9746 139.014 80.916 140.228 82.138 140.498C82.5994 140.596 83.0795 140.591 83.5471 140.521C87.0946 139.987 87.5372 136.771 85.2865 134.258C83.1044 131.842 79.5569 131.456 77.0755 133.728C75.4358 135.247 74.3509 137.306 73.422 139.308C72.4057 141.517 71.5391 143.8 69.9929 145.71C69.0078 146.912 67.7609 147.821 66.2085 148.068C64.681 148.315 64.4004 146.762 65.9591 146.509Z" fill="#D8BF66"/>
<path fill-rule="evenodd" clip-rule="evenodd" d="M82.6863 135.005C83.9644 135.023 84.9931 136.098 84.9744 137.404C84.9619 138.71 83.9083 139.757 82.6302 139.745C81.3521 139.728 80.3233 138.652 80.342 137.346C80.3608 136.035 81.4082 134.988 82.6863 135.005Z" fill="#D8BF66"/>
<path fill-rule="evenodd" clip-rule="evenodd" d="M70.5781 147.62C72.8787 146.734 75.5347 145.854 77.8477 145.67C75.0983 142.115 76.526 136.915 78.7081 133.723C78.0597 133.901 76.4512 135.937 75.4474 137.72C74.2566 139.837 73.5334 142.195 72.5171 144.324C71.8188 145.79 71.1081 147.303 70.5781 147.62Z" fill="#D8BF66"/>
<path d="M79.1953 140.89C79.6255 141.735 80.1492 142.265 81.047 142.621C87.0884 144.991 92.5999 138.612 98.9218 141.304C101.303 142.322 103.112 143.432 105.792 143.317C106.64 143.283 107.862 142.075 108.536 142.5C108.985 142.788 108.879 143.421 108.548 143.754C107.831 144.468 106.877 144.859 105.867 144.899C102.9 145.026 100.923 143.881 98.2983 142.759C92.1946 140.154 86.6894 146.533 80.4672 144.088C79.2265 143.593 78.2102 142.708 77.7177 141.459C77.1254 139.97 78.4098 139.343 79.1953 140.89Z" fill="#D8BF66"/>
<path d="M109.177 143.214C108.834 146.717 102.35 150.962 102.593 152.354C102.611 152.699 101.059 153.165 101.003 152.474C100.76 149.598 107.063 147.039 107.45 143.03C107.599 141.816 109.258 142.132 109.177 143.214Z" fill="#D8BF66"/>
<path d="M101.146 151.848C105.167 147.246 116.14 152.216 121.446 151.951C121.764 151.94 121.895 152.481 121.926 152.705C121.957 152.981 121.908 153.51 121.533 153.533C117.02 153.758 105.211 149.317 102.075 153.131C101.283 153.919 100.641 152.429 101.146 151.848Z" fill="#D8BF66"/>
<path d="M121.79 153.568C120.3 154.488 118.635 154.81 117.001 155.356C116.278 155.598 115.343 155.857 114.62 156.098C113.735 156.398 113.423 157.163 114.595 157.393C116.334 157.738 118.011 157.824 119.67 157.876C124.302 158.014 128.043 158.566 132.227 160.516C136.491 162.506 140.562 165.083 143.923 168.183C144.259 168.5 144.515 169.109 144.135 169.495C143.761 169.852 143.175 169.656 142.844 169.351C139.596 166.36 135.649 163.875 131.528 161.954C127.526 160.09 124.072 159.912 119.645 159.797C116.833 159.722 114.289 159.521 113.092 158.411C112.138 157.525 111.771 155.753 113.385 154.902C114.352 154.39 115.462 154.206 116.496 153.861C118.005 153.355 119.576 153.079 120.948 152.227C122.413 151.307 123.217 152.664 121.79 153.568Z" fill="#D8BF66"/>
<path d="M142.645 169.621C138.841 167.861 134.533 167.596 130.406 167.729C125.1 167.907 119.851 168.77 114.589 169.408C110.081 169.943 105.417 169.828 101.078 168.367C99.0892 167.683 97.2126 166.711 95.5604 165.411C94.2698 164.381 93.1413 163.167 92.2061 161.81C91.2148 160.343 92.4992 159.434 93.5216 160.918C94.3633 162.143 95.3858 163.242 96.5517 164.168C98.0605 165.359 99.775 166.245 101.589 166.866C105.698 168.252 110.125 168.344 114.389 167.832C119.695 167.188 124.994 166.319 130.344 166.141C134.727 166.003 139.278 166.314 143.312 168.183C144.789 168.873 144.135 170.306 142.645 169.621Z" fill="#D8BF66"/>
<path d="M61.9308 151.163C62.4234 150.818 62.9969 150.605 63.5892 150.479C64.3125 150.323 65.0606 150.317 65.7963 150.409C67.33 150.599 68.7952 151.18 70.1606 151.882C71.42 152.532 72.6233 153.314 73.733 154.194C74.1508 154.528 74.556 154.873 74.9301 155.253C75.0984 155.419 75.2543 155.598 75.3977 155.782C75.6221 156.098 75.566 157.243 75.3416 157.335C74.6745 157.611 74.263 156.84 73.7954 156.363C73.465 156.029 73.1096 155.724 72.7417 155.431C71.713 154.614 70.597 153.889 69.4311 153.285C68.2341 152.67 66.9435 152.147 65.603 151.98C65.0482 151.911 64.4808 151.911 63.9259 152.026C63.5331 152.112 63.1528 152.262 62.8161 152.486C61.4819 153.355 60.9707 151.842 61.9308 151.163Z" fill="#D8BF66"/>
<path d="M74.0386 156.024C74.0136 155.851 73.9949 155.673 73.9887 155.5C73.9762 154.672 74.2381 153.878 74.7306 153.211C75.2793 152.481 76.0524 151.963 76.8878 151.618C77.9415 151.186 79.0887 151.02 80.2171 150.991C84.5939 150.899 88.6589 151.877 92.3062 154.333C95.2302 156.311 97.8176 158.704 101.078 160.16C110.979 164.491 122.064 165.141 132.694 164.031C133.156 163.985 134.452 163.933 134.552 164.612C134.627 165.308 133.33 165.561 132.869 165.607C121.958 166.746 110.592 166.055 100.436 161.609C97.0819 160.108 94.4259 157.68 91.4146 155.644C88.0479 153.372 84.3071 152.492 80.2608 152.578C79.3256 152.601 78.3717 152.734 77.4988 153.085C76.9315 153.32 76.3828 153.66 76.0087 154.16C75.7282 154.54 75.5723 154.994 75.5785 155.466C75.5785 155.569 75.591 155.673 75.6097 155.777C75.6783 156.196 75.884 157.146 75.4538 157.439C74.7556 157.888 74.1134 156.478 74.0386 156.024Z" fill="#D8BF66"/>
<path fill-rule="evenodd" clip-rule="evenodd" d="M78.59 164.916C80.2734 164.939 81.6201 166.314 81.5951 167.988C81.5764 169.662 80.1986 171.002 78.5152 170.979C76.8319 170.956 75.4852 169.581 75.5101 167.907C75.535 166.233 76.9129 164.893 78.59 164.916Z" fill="#D8BF66"/>
<path fill-rule="evenodd" clip-rule="evenodd" d="M85.1433 163.098C86.5149 163.116 87.6122 164.237 87.5935 165.6C87.5748 166.964 86.4526 168.057 85.0872 168.039C83.7156 168.022 82.6183 166.9 82.637 165.537C82.6494 164.174 83.7717 163.081 85.1433 163.098Z" fill="#D8BF66"/>
<path fill-rule="evenodd" clip-rule="evenodd" d="M89.1447 159.578C90.1921 159.59 91.0275 160.447 91.0151 161.488C91.0026 162.529 90.1484 163.363 89.101 163.351C88.0536 163.34 87.2181 162.483 87.2306 161.442C87.2431 160.395 88.1035 159.567 89.1447 159.578Z" fill="#D8BF66"/>
<path fill-rule="evenodd" clip-rule="evenodd" d="M88.371 155.603C89.2564 155.615 89.9671 156.34 89.9547 157.22C89.9422 158.1 89.219 158.807 88.3336 158.796C87.4483 158.784 86.7438 158.06 86.75 157.179C86.7625 156.299 87.4857 155.592 88.371 155.603Z" fill="#D8BF66"/>
<path fill-rule="evenodd" clip-rule="evenodd" d="M85.0499 153.694C85.7855 153.706 86.3716 154.304 86.3654 155.034C86.3591 155.765 85.7544 156.352 85.0187 156.34C84.283 156.329 83.6969 155.73 83.7032 155C83.7094 154.269 84.3142 153.688 85.0499 153.694Z" fill="#D8BF66"/>
<path fill-rule="evenodd" clip-rule="evenodd" d="M81.7447 155.15C82.4241 155.162 82.9725 155.714 82.9601 156.392C82.9538 157.071 82.3929 157.617 81.7136 157.605C81.0342 157.594 80.4858 157.042 80.4983 156.363C80.5045 155.685 81.0654 155.144 81.7447 155.15Z" fill="#D8BF66"/>
<path fill-rule="evenodd" clip-rule="evenodd" d="M80.1597 157.836C80.7082 157.842 81.1445 158.29 81.1382 158.837C81.132 159.383 80.6833 159.82 80.1348 159.808C79.5864 159.803 79.1501 159.354 79.1563 158.808C79.1688 158.267 79.6175 157.83 80.1597 157.836Z" fill="#D8BF66"/>
<path d="M70.6787 149.495C74.0642 148.92 77.4496 148.207 80.8911 148.12C84.9873 148.034 88.8964 149.052 92.232 151.468C95.8294 154.085 99.5016 156.426 103.66 158.066C107.594 159.596 111.84 160.286 116.017 160.775C116.472 160.826 117.638 161.085 117.582 161.741C117.507 162.408 116.292 162.403 115.83 162.351C111.516 161.85 107.139 161.126 103.074 159.544C98.7846 157.858 94.9939 155.448 91.2905 152.751C88.2355 150.536 84.6693 149.633 80.9285 149.708C77.5618 149.788 74.2512 150.496 70.9468 151.06C70.4917 151.134 69.6438 151.077 69.544 150.484C69.4567 149.903 70.2174 149.57 70.6787 149.495Z" fill="#D8BF66"/>
<path d="M71.115 149.351C76.2711 147.424 81.9571 146.613 87.4498 146.682C90.1245 146.717 92.7929 147.016 95.4676 146.981C97.9178 146.941 100.387 146.631 102.631 145.607C103.018 145.434 103.51 145.572 103.722 145.952C103.947 146.372 103.716 146.861 103.305 147.05C100.854 148.166 98.1672 148.523 95.4926 148.569C92.7992 148.603 90.1183 148.304 87.4249 148.27C82.1317 148.207 76.6389 148.983 71.6699 150.835C71.2709 150.985 70.8345 150.755 70.6724 150.375C70.5227 149.972 70.7098 149.512 71.115 149.351Z" fill="#D8BF66"/>
<path d="M83.3088 147.2C86.4885 147.01 89.5061 147.804 92.2992 149.294C95.1734 150.83 97.7545 152.854 100.566 154.488C102.187 155.414 104.076 155.863 105.941 155.799C106.795 155.765 107.649 155.621 108.453 155.333C108.958 155.149 109.445 154.902 109.875 154.586C110.193 154.356 110.654 154.488 110.916 154.747C111.234 155.08 111.184 155.592 110.822 155.868C110.267 156.277 109.65 156.587 109.002 156.823C108.042 157.174 107.019 157.347 105.997 157.387C103.833 157.462 101.645 156.944 99.7621 155.863C96.9627 154.235 94.4003 152.222 91.5386 150.697C89.001 149.351 86.2827 148.621 83.3961 148.793C82.9659 148.816 82.5232 148.523 82.4671 148.08C82.4297 147.591 82.8599 147.229 83.3088 147.2Z" fill="#D8BF66"/>
<path fill-rule="evenodd" clip-rule="evenodd" d="M19.9906 19.1314C20.0654 19.9137 20.1839 20.5176 20.3397 21.0008C20.7886 22.3698 22.1914 23.6007 23.2264 24.5498C24.4858 25.7002 26.1692 26.9484 26.3188 25.3263C26.4061 24.3657 26.6056 23.4281 27.4909 22.0419C27.1418 22.8932 26.8861 23.6755 26.83 24.7396C26.7801 25.6772 26.9111 26.9081 26.7926 27.4776C26.9111 27.9205 26.7802 29.0594 27.1355 31.1934C26.1879 27.8687 21.2001 23.0543 18.1888 20.972C17.7087 20.6384 17.4344 20.5349 16.8047 19.7181C18.0641 20.7247 18.8871 21.1676 19.3858 21.018C19.947 20.857 20.0966 19.9827 19.9906 19.1314Z" fill="#D8BF66"/>
<path fill-rule="evenodd" clip-rule="evenodd" d="M33.4067 11.7228C32.3593 12.2117 32.3593 13.4024 32.459 14.501C32.7957 18.1823 33.7122 18.7172 32.1722 22.341C31.6672 23.5317 30.4889 25.1538 30.3143 25.9705C29.6659 29.0249 30.6759 32.384 29.3355 36.3414C29.2108 37.4803 29.1547 38.6595 29.0674 39.5568C28.8741 41.5297 28.4502 42.22 26.9414 37.9807C25.6633 34.6101 22.7579 29.5943 18.7864 25.5621C15.1454 21.8636 11.4545 18.838 8.66133 14.8979C5.08263 9.85914 4.65867 4.8894 4.7896 0.00018692C6.49166 3.52617 12.2026 6.48845 14.603 8.95606C17.0095 11.4294 16.2676 16.7558 18.3625 16.5085C20.183 16.2899 18.0258 12.6489 17.4709 10.7622C16.704 8.13928 18.163 5.33805 19.2166 3.07176C18.7054 6.3159 21.7604 9.6348 23.6557 11.8896C24.7094 13.1435 23.7804 15.7492 23.7243 16.3187C23.6183 17.4 22.2965 19.4305 23.5559 20.834C25.4949 22.9967 25.47 18.0615 26.081 16.9169C27.2344 14.7483 30.1585 12.4705 33.4067 11.7228ZM14.9708 14.2019C14.4222 12.2117 13.9546 11.4409 13.063 10.6241C11.1614 8.86978 8.11268 7.32824 6.52284 5.59113C6.90315 7.34549 7.44556 9.48525 8.47428 11.2569C11.3235 16.1576 16.3861 20.9088 19.9149 24.2047C21.3239 25.5219 22.814 27.1555 23.9861 28.7775C25.4014 30.739 26.7481 33.2181 27.7581 35.0415C28.2631 33.1433 28.8305 31.5672 28.3691 28.5532C28.3566 23.2671 29.9963 23.1923 31.0188 19.9712C31.3929 18.7172 31.0251 16.6753 30.7133 14.8864C29.0612 16.0656 27.6584 16.9629 27.0848 18.8725C26.6047 20.4774 26.6109 22.5999 25.5323 23.2728C23.2691 24.6821 21.38 21.0928 21.2117 19.0969C21.0995 17.7739 22.2404 16.1921 22.3277 14.6966C22.5958 10.7737 19.9087 11.5157 18.7989 7.0694C17.8263 9.54277 18.7927 10.5551 19.784 12.8042C20.7815 15.0532 20.4823 17.7624 19.042 18.2226C17.6081 18.6942 16.0369 18.0845 14.9708 14.2019Z" fill="#D8BF66"/>
<path fill-rule="evenodd" clip-rule="evenodd" d="M13.1702 165.532C15.3461 165.382 16.9858 163.403 16.8237 161.108C16.6616 158.813 14.7725 157.076 12.5904 157.22C10.4145 157.369 8.77474 159.348 8.93684 161.637C9.09894 163.938 10.9943 165.681 13.1702 165.532Z" fill="#D8BF66"/>
<path d="M19.703 162.627C19.5658 163.512 19.2603 164.369 18.7865 165.134C18.3251 165.877 17.7141 166.515 17.0096 167.033C15.5258 168.126 13.6803 168.666 11.8411 168.678C5.93686 168.683 0.930428 162.08 4.67123 156.598C6.70373 153.625 12.3336 151.87 15.0332 154.936C15.557 155.529 15.8874 156.265 16.0121 157.047C15.4759 156.616 14.8836 156.265 14.229 156.058C11.8473 155.253 8.76117 156.397 7.32096 158.416C4.80839 162.005 7.90702 166.613 11.9471 167.268C13.5556 167.533 15.2515 167.303 16.6979 166.538C17.4211 166.153 18.0695 165.629 18.5808 164.985C19.1357 164.3 19.5097 163.489 19.703 162.627Z" fill="#D8BF66"/>
<path d="M12.7642 164.053C13.4064 164.007 14.0298 163.835 14.5972 163.541C15.1521 163.248 15.6446 162.851 16.0499 162.368C16.4613 161.879 16.7731 161.31 16.9788 160.706C17.1908 160.067 17.2719 159.388 17.222 158.715C17.1472 157.674 16.8791 156.65 16.4115 155.707C15.9688 154.827 15.3578 154.039 14.6159 153.389C13.874 152.751 13.0198 152.256 12.0908 151.945C11.1245 151.623 10.102 151.497 9.08574 151.56C8.04455 151.635 7.04077 151.94 6.11804 152.423C5.18284 152.923 4.35363 153.602 3.66158 154.401C2.9633 155.212 2.41464 156.144 2.05303 157.151C1.69766 158.163 1.53556 159.239 1.60414 160.314C1.71013 161.764 2.11538 163.167 2.79496 164.456C3.46207 165.71 4.37233 166.82 5.45093 167.74C6.53576 168.655 7.77646 169.368 9.11691 169.828C10.4636 170.288 11.8913 170.496 13.3128 170.398C14.8528 170.288 16.3429 169.777 17.6709 169.006C19.2669 168.074 20.6199 166.791 21.7109 165.307C22.9828 163.576 24.1425 159.164 20.0525 154.971L29.0304 163.219L27.054 162.178C25.8133 161.528 25.3956 161.937 24.8781 163.052C24.3607 164.174 23.7372 165.244 23.0015 166.245C21.7795 167.901 20.2645 169.334 18.4814 170.375C16.9414 171.266 15.2144 171.853 13.4313 171.974C11.7978 172.083 10.1581 171.847 8.60567 171.318C7.07818 170.789 5.66291 169.978 4.42844 168.937C3.19398 167.884 2.15279 166.613 1.39216 165.186C0.612828 163.708 0.138993 162.08 0.0205339 160.412C-0.0667514 159.118 0.126524 157.824 0.556715 156.604C0.986907 155.414 1.63531 154.309 2.45829 153.349C3.28126 152.4 4.26634 151.6 5.36988 151.008C6.48588 150.415 7.71411 150.047 8.97975 149.961C10.208 149.88 11.4362 150.036 12.6021 150.427C13.7243 150.806 14.7655 151.405 15.6633 152.181C16.5611 152.963 17.303 153.918 17.8392 154.988C18.4003 156.116 18.7245 157.341 18.8118 158.595C18.8742 159.469 18.7619 160.355 18.4876 161.189C18.2258 161.988 17.808 162.736 17.2719 163.38C16.7357 164.019 16.0748 164.554 15.3391 164.939C14.5785 165.336 13.7368 165.572 12.8764 165.629C12.839 165.112 12.8016 164.582 12.7642 164.053Z" fill="#D8BF66"/>
<path fill-rule="evenodd" clip-rule="evenodd" d="M27.9886 145.267C28.3003 146.883 28.132 148.356 28.3315 149.644C28.5247 150.904 29.7218 154.516 30.9937 156.765C29.7093 155.557 28.8988 154.752 27.7329 152.325C26.8102 150.409 27.2092 152.244 28.1008 154.804C29.6657 159.308 32.1097 162.166 35.6697 163.857C36.8543 164.421 38.1573 164.749 39.5726 164.755C41.6799 164.761 43.0952 166.388 44.3359 166.124C45.5703 165.859 46.493 165.088 45.2461 164.461C42.9019 163.535 40.1649 162.621 37.8206 161.689C35.4265 159.037 33.0324 156.386 30.6321 153.728C29.6033 150.91 29.011 148.08 27.9886 145.267Z" fill="#D8BF66"/>
<path d="M161.042 155.31C161.098 155.276 161.154 155.235 161.204 155.189C161.491 154.908 161.566 154.436 161.441 154.062C161.279 153.614 160.818 153.384 160.357 153.499C160.263 153.522 160.176 153.556 160.095 153.602C159.59 153.89 159.384 154.528 159.765 155C160.058 155.362 160.612 155.54 161.042 155.31Z" fill="#D8BF66"/>
</g>
</svg>
