<svg width="164" height="172" viewBox="0 0 164 172" fill="none" xmlns="http://www.w3.org/2000/svg">
<g opacity="0.4">
<path d="M149.397 41.11C148.755 41.1215 148.119 41.2596 147.539 41.5242C146.965 41.783 146.454 42.1569 146.018 42.6171C145.581 43.083 145.232 43.6352 144.995 44.2276C144.752 44.8546 144.627 45.5276 144.633 46.2006C144.646 47.2474 144.858 48.2828 145.269 49.2434C145.662 50.1465 146.223 50.9632 146.928 51.6535C147.632 52.3322 148.462 52.8729 149.366 53.2353C150.313 53.6092 151.323 53.7932 152.346 53.7817C153.387 53.7645 154.409 53.5114 155.357 53.08C156.317 52.6313 157.184 51.9986 157.926 51.2393C158.668 50.4628 159.272 49.5655 159.69 48.5761C160.108 47.5811 160.326 46.5169 160.32 45.4413C160.301 43.9918 159.971 42.5653 159.372 41.2423C158.78 39.9539 157.938 38.7977 156.91 37.8199C155.881 36.8478 154.678 36.0713 153.368 35.5306C152.053 34.9956 150.637 34.7138 149.21 34.731C147.664 34.754 146.149 35.1855 144.777 35.8814C143.131 36.7212 141.703 37.9349 140.531 39.3557C139.078 41.1215 138.019 43.1808 137.289 45.3378C136.354 48.1332 135.949 51.084 135.899 54.0233C135.805 60.1492 136.416 66.764 139.378 72.2457C140.456 74.2186 141.903 76.0363 143.854 77.2039C145.756 78.3256 147.938 78.6592 150.114 78.3773C150.182 78.9008 150.251 79.43 150.319 79.9534C147.788 80.2813 145.244 79.8671 143.037 78.5672C140.843 77.25 139.191 75.231 137.975 73.005C134.882 67.276 134.203 60.4023 134.303 53.9946C134.359 50.8942 134.783 47.7824 135.774 44.8316C136.566 42.4905 137.713 40.2587 139.297 38.3433C140.612 36.7557 142.208 35.404 144.047 34.4665C145.637 33.6612 147.395 33.1665 149.185 33.1435C150.825 33.1262 152.446 33.4484 153.967 34.0581C155.463 34.6678 156.828 35.5593 158.001 36.6637C159.173 37.7796 160.139 39.1026 160.819 40.5751C161.511 42.0936 161.891 43.7445 161.91 45.4125C161.922 46.7067 161.654 47.9894 161.155 49.1859C160.663 50.3535 159.952 51.4176 159.073 52.3322C158.2 53.2353 157.171 53.983 156.03 54.5122C154.877 55.0414 153.636 55.3463 152.364 55.3635C151.136 55.375 149.914 55.1565 148.773 54.702C147.676 54.2591 146.666 53.6092 145.818 52.7866C144.964 51.9526 144.278 50.9632 143.804 49.8646C143.312 48.7084 143.056 47.466 143.037 46.2121C143.025 45.332 143.187 44.4577 143.505 43.6409C143.817 42.8587 144.272 42.1339 144.845 41.5242C145.419 40.9145 146.105 40.4198 146.865 40.0747C147.651 39.718 148.505 39.5282 149.366 39.5167C149.384 40.0517 149.391 40.5808 149.397 41.11Z" fill="#D8BF66"/>
<path fill-rule="evenodd" clip-rule="evenodd" d="M149.085 39.6082C146.903 39.637 145.157 41.5237 145.182 43.8245C145.207 46.1253 147.003 47.9659 149.185 47.9372C151.367 47.9084 153.113 46.0217 153.088 43.7209C153.056 41.4201 151.267 39.5795 149.085 39.6082Z" fill="#D8BF66"/>
<path d="M142.389 42.1507C142.576 41.2707 142.931 40.4309 143.449 39.6946C143.954 38.9814 144.596 38.3774 145.332 37.8942C149.378 35.2541 155.226 36.5425 157.601 40.8278C159.896 45.0728 157.801 50.1921 153.169 51.6243C150.17 52.5159 146.105 51.4517 145.749 47.92C147.551 49.5478 149.939 49.7031 152.159 48.7598C156.217 47.0227 156.697 42.0817 153.337 39.3438C151.236 37.6124 148.081 37.273 145.618 38.4062C144.877 38.7513 144.197 39.2402 143.648 39.8499C143.056 40.5114 142.632 41.2994 142.389 42.1507Z" fill="#D8BF66"/>
<path fill-rule="evenodd" clip-rule="evenodd" d="M140.393 44.4226C139.352 44.4341 138.516 45.2912 138.529 46.3265C138.541 47.3619 139.395 48.196 140.436 48.1845C141.478 48.1729 142.313 47.3159 142.301 46.2805C142.288 45.2394 141.434 44.4111 140.393 44.4226Z" fill="#D8BF66"/>
<path fill-rule="evenodd" clip-rule="evenodd" d="M139.913 50.566C138.635 50.5832 137.607 51.6301 137.625 52.907C137.638 54.184 138.691 55.2021 139.969 55.1848C141.248 55.1676 142.276 54.1207 142.258 52.8438C142.245 51.5726 141.191 50.5487 139.913 50.566Z" fill="#D8BF66"/>
<path fill-rule="evenodd" clip-rule="evenodd" d="M140.58 57.1753C139.09 57.1925 137.899 58.412 137.918 59.896C137.936 61.38 139.158 62.5649 140.642 62.5477C142.132 62.5304 143.323 61.311 143.304 59.827C143.286 58.3429 142.07 57.158 140.58 57.1753Z" fill="#D8BF66"/>
<path fill-rule="evenodd" clip-rule="evenodd" d="M142.47 63.8933C140.719 63.9163 139.309 65.3543 139.334 67.1029C139.353 68.8515 140.793 70.2493 142.545 70.2263C144.297 70.2033 145.706 68.7653 145.681 67.0166C145.663 65.268 144.222 63.8703 142.47 63.8933Z" fill="#D8BF66"/>
<path fill-rule="evenodd" clip-rule="evenodd" d="M147.289 69.8925C145.381 69.9155 143.854 71.4801 143.873 73.384C143.898 75.2879 145.463 76.8064 147.37 76.7834C149.278 76.7604 150.806 75.1959 150.787 73.292C150.762 71.388 149.197 69.8638 147.289 69.8925Z" fill="#D8BF66"/>
<path fill-rule="evenodd" clip-rule="evenodd" d="M150.587 78.4572C148.691 86.0384 152.601 89.6679 155.082 100.741C156.672 107.839 157.701 116.415 156.416 126.176C154.209 137.726 149.994 148.097 142.432 156.621C137.986 162.281 133.791 164.789 129.588 165.531C126.321 166.106 126.402 163.903 119.37 165.353C149.776 157.599 161.522 124.025 150.144 96.7026C147.619 90.6457 143.934 84.7729 144.246 77.9108C146.185 78.4457 148.654 78.555 150.587 78.4572Z" fill="#D8BF66"/>
<path d="M138.717 34.2478C133.842 43.7962 133.137 54.5007 135.001 64.9176C136.915 75.4323 141.074 85.389 145.606 95.0121C152.09 108.88 154.802 124.767 151.791 139.889C151.274 139.786 144.266 150.404 143.748 150.301C146.984 150.151 153.337 132.003 150.912 118.912C149.441 110.957 147.589 102.99 144.16 95.6851C139.577 85.9297 135.369 75.8464 133.43 65.1937C131.504 54.4317 132.258 43.3763 137.296 33.5173C137.776 33.7647 138.243 34.0062 138.717 34.2478Z" fill="#D8BF66"/>
<path d="M115.461 98.5608C115.53 99.2683 115.648 100.005 115.461 100.701C115.349 101.103 115.125 101.46 114.788 101.713C114.42 101.983 113.971 102.104 113.529 102.15C112.955 102.208 112.382 102.231 111.808 102.173C111.29 102.116 110.779 101.983 110.324 101.719C109.869 101.454 109.501 101.063 109.252 100.597C108.984 100.085 108.853 99.5156 108.797 98.9404C108.734 98.2904 108.809 97.6347 109.009 97.0135C109.208 96.4153 109.526 95.8574 109.938 95.3799C110.355 94.8968 110.86 94.4941 111.428 94.195C112.02 93.8844 112.668 93.6946 113.329 93.6256C114.239 93.5335 115.162 93.6428 116.041 93.8959C116.952 94.1663 117.806 94.5919 118.56 95.1671C119.333 95.7596 119.982 96.5016 120.437 97.3644C120.923 98.2962 121.147 99.3316 121.116 100.378C121.079 101.489 120.811 102.576 120.343 103.582C119.869 104.595 119.227 105.515 118.498 106.361C116.864 108.241 114.875 109.789 112.936 111.342C108.497 114.868 104.046 118.584 101.726 123.898C100.087 127.706 98.977 131.853 98.8772 136.012C98.8461 137.605 98.9583 139.228 99.4197 140.763C99.7501 141.85 100.28 142.938 101.19 143.662C100.86 144.076 100.529 144.491 100.199 144.905C99.0393 143.979 98.3286 142.627 97.8984 141.223C97.3872 139.532 97.25 137.738 97.2874 135.978C97.3871 131.612 98.5406 127.269 100.261 123.271C102.693 117.704 107.288 113.798 111.945 110.105C113.809 108.621 115.723 107.137 117.294 105.331C117.924 104.6 118.491 103.807 118.897 102.927C119.271 102.11 119.489 101.235 119.52 100.338C119.539 99.5616 119.377 98.7966 119.015 98.1006C118.672 97.4449 118.167 96.8812 117.581 96.4325C116.983 95.9781 116.303 95.6388 115.58 95.4259C114.9 95.2304 114.183 95.1383 113.479 95.2074C113.017 95.2534 112.569 95.3857 112.157 95.6043C111.771 95.8056 111.421 96.0817 111.135 96.4153C110.86 96.7374 110.642 97.1113 110.511 97.5139C110.374 97.9223 110.33 98.3537 110.368 98.7851C110.405 99.1475 110.474 99.5214 110.648 99.8492C110.761 100.056 110.916 100.229 111.116 100.344C111.372 100.493 111.671 100.557 111.97 100.591C112.431 100.637 112.899 100.614 113.36 100.568C113.516 100.551 113.703 100.534 113.828 100.436C113.878 100.396 113.897 100.344 113.915 100.286C114.046 99.7917 113.915 99.205 113.865 98.7104C114.402 98.6643 114.932 98.6126 115.461 98.5608Z" fill="#D8BF66"/>
<path fill-rule="evenodd" clip-rule="evenodd" d="M113.317 96.398C111.739 96.8524 110.742 98.4515 111.085 99.97C111.428 101.489 112.986 102.357 114.564 101.903C116.141 101.448 117.139 99.8493 116.796 98.3307C116.453 96.8122 114.894 95.9436 113.317 96.398Z" fill="#D8BF66"/>
<path fill-rule="evenodd" clip-rule="evenodd" d="M127.83 103.093C124.445 106.522 119.638 110.444 116.446 112.981C110.373 117.807 105.448 121.028 102.231 125.9C96.5071 134.551 95.628 143.225 103.004 151.364C104.113 152.589 105.622 154.332 107.212 155.028C101.856 148.523 91.7999 127.839 123.983 118.957C121.888 113.901 123.453 108.23 127.83 103.093Z" fill="#D8BF66"/>
<path d="M129.976 142.713C129.926 144.042 129.87 145.1 129.215 146.573C128.754 147.608 128.005 148.488 127.089 149.167C126.222 149.806 125.218 150.231 124.165 150.45C123.092 150.663 121.989 150.668 120.904 150.502C118.603 150.133 116.465 149.023 114.819 147.39C112.98 145.538 111.901 143.099 111.72 140.505C111.614 138.9 111.808 137.278 112.331 135.753C112.824 134.333 113.597 133.01 114.62 131.9C115.63 130.807 116.858 129.938 118.229 129.357C119.663 128.753 121.216 128.483 122.768 128.529C124.788 128.598 126.771 129.081 128.573 130.007C130.287 130.893 131.777 132.153 132.974 133.66C134.203 135.218 135.107 137.002 135.693 138.894C136.31 140.924 136.566 143.041 136.497 145.158C136.41 147.516 135.768 149.811 134.839 151.974C133.835 154.269 132.494 156.409 130.904 158.353C129.34 160.251 127.544 161.96 125.499 163.334C123.635 164.577 121.559 165.543 119.333 165.888C119.252 165.365 119.177 164.841 119.096 164.318C121.091 164.013 122.949 163.127 124.614 162.017C126.528 160.729 128.211 159.124 129.676 157.346C131.166 155.517 132.438 153.504 133.38 151.341C134.234 149.368 134.832 147.263 134.907 145.106C134.969 143.162 134.739 141.224 134.171 139.36C133.641 137.657 132.831 136.047 131.727 134.643C130.668 133.315 129.352 132.204 127.843 131.416C126.26 130.6 124.501 130.174 122.725 130.116C121.403 130.076 120.081 130.306 118.859 130.818C117.699 131.307 116.658 132.049 115.804 132.969C114.931 133.918 114.27 135.046 113.853 136.26C113.398 137.588 113.235 138.992 113.329 140.389C113.485 142.604 114.401 144.68 115.966 146.262C117.375 147.66 119.208 148.615 121.172 148.931C122.064 149.069 122.98 149.069 123.866 148.891C124.689 148.724 125.474 148.396 126.154 147.896C126.858 147.372 127.407 146.676 127.793 145.888C128.273 144.882 128.479 143.772 128.517 142.662C129.028 142.685 129.446 142.696 129.976 142.713Z" fill="#D8BF66"/>
<path fill-rule="evenodd" clip-rule="evenodd" d="M126.259 139.291C124.202 139.32 122.556 141.155 122.581 143.392C122.605 145.63 124.295 147.424 126.353 147.396C128.41 147.367 130.056 145.532 130.031 143.294C130.006 141.057 128.316 139.262 126.259 139.291Z" fill="#D8BF66"/>
<path fill-rule="evenodd" clip-rule="evenodd" d="M133.312 147.804C134.883 144.122 133.605 138.549 132.052 135.955C129.926 132.4 126.186 130.881 122.57 131.042C120.431 131.134 115.799 132.302 115.026 136.386C114.321 140.119 116.64 146.958 122.208 148.195C121.31 146.423 120.98 145.066 121.079 143.766C121.167 142.621 121.584 141.522 122.245 140.228C119.658 138.296 120.824 135.126 122.432 133.97C124.527 132.463 128.262 132.871 131.18 136.305C132.42 137.766 134.066 142.144 133.312 147.804Z" fill="#D8BF66"/>
<path fill-rule="evenodd" clip-rule="evenodd" d="M127.032 152.9C122.674 156.552 108.091 155.764 106.988 142.949C105.373 124.169 127.824 122.391 132.438 128.621C132.425 126.51 130.461 125.181 127.774 124.554C123.84 123.634 118.353 124.209 115.136 126.009C109.718 129.046 105.703 134.551 105.423 142.138C105.167 148.96 107.218 153.268 110.454 156.098C112.331 157.737 114.613 158.876 117.082 159.716C114.662 164.093 104.263 153.901 98.5895 154.229C92.9097 154.556 89.8734 159.981 82.741 162.949C87.9033 161.068 91.5817 164.329 90.4595 168.333C93.5955 165.83 95.8961 161.096 100.653 160.257C105.404 159.417 110.535 164.479 116.215 162.782C121.888 161.068 128.254 157.076 127.032 152.9Z" fill="#D8BF66"/>
<path d="M128.379 52.5446C127.331 59.1192 128.011 65.9468 130.23 72.2165C134.345 83.7263 140.493 94.3848 144.651 105.883C150.057 121.017 149.24 136.564 140.574 150.214C137.843 154.465 134.532 158.428 130.548 161.563C130.174 161.856 128.379 163.144 128.778 163.8C129.264 164.508 131.166 163.098 131.533 162.811C135.667 159.561 139.096 155.471 141.92 151.065C150.855 137.001 151.728 120.942 146.16 105.342C142.001 93.8441 135.854 83.1856 131.745 71.6758C129.619 65.6592 128.965 59.1019 129.969 52.7862C130.043 52.3146 130.586 49.7434 129.838 49.5248C128.952 49.3465 128.453 52.0787 128.379 52.5446Z" fill="#D8BF66"/>
<path d="M132.955 85.3545C137.033 92.5732 140.686 100.126 142.694 108.207C145.611 120.309 143.529 132.751 139.857 144.456C139.72 144.888 139.389 146.228 140.05 146.447C140.724 146.665 141.241 145.365 141.378 144.934C145.144 132.947 147.226 120.217 144.24 107.828C142.201 99.608 138.491 91.9233 134.345 84.5779C134.115 84.1753 133.323 82.9559 132.699 83.3067C132.088 83.6691 132.731 84.9576 132.955 85.3545Z" fill="#D8BF66"/>
<path d="M127.344 83.3815C133.367 88.2305 137.918 94.5979 140.662 101.811C140.805 102.185 141.291 102.225 141.622 102.11C141.958 101.989 142.295 101.633 142.152 101.247C139.309 93.7697 134.589 87.1663 128.342 82.1391C127.157 81.2705 126.515 82.7028 127.344 83.3815Z" fill="#D8BF66"/>
<path d="M127.755 96.8068C130.343 97.8421 132.955 98.8775 135.387 100.246C137.376 101.374 139.202 102.772 140.537 104.653C143.024 108.219 143.616 112.815 143.984 117.037C144.028 117.485 144.34 118.037 144.863 118.009C145.387 117.963 145.612 117.353 145.574 116.904C145.181 112.389 144.502 107.557 141.846 103.744C140.381 101.667 138.379 100.114 136.178 98.866C133.685 97.4625 131.01 96.3926 128.354 95.3342C126.839 94.7418 126.346 96.2316 127.755 96.8068Z" fill="#D8BF66"/>
<path d="M138.842 121.443C140.288 122.507 141.385 123.933 142.009 125.619C142.713 127.574 142.801 129.685 142.645 131.745C142.271 136.283 140.805 140.649 139.621 145.02C139.515 145.417 139.864 145.756 140.219 145.848C140.575 145.94 141.042 145.825 141.155 145.434C142.37 140.965 143.854 136.507 144.235 131.871C144.409 129.582 144.291 127.252 143.505 125.078C142.776 123.099 141.491 121.414 139.783 120.166C139.428 119.907 138.798 119.821 138.567 120.189C138.355 120.511 138.511 121.201 138.842 121.443Z" fill="#D8BF66"/>
<path d="M138.113 135.753C139.017 136.909 139.522 138.37 139.802 139.791C140.12 141.442 140.145 143.173 139.684 144.801C139.628 145.025 140.239 145.227 140.376 145.267C140.532 145.319 141.136 145.497 141.217 145.238C141.747 143.369 141.735 141.379 141.367 139.486C141.037 137.812 140.426 136.127 139.366 134.769C138.137 133.285 137.314 134.666 138.113 135.753Z" fill="#D8BF66"/>
<path d="M135.331 156.743C137.619 152.337 138.972 149.524 138.984 144.169C138.997 139.665 137.687 135.334 135.131 131.612C134.882 131.255 134.383 131.192 134.034 131.445C133.704 131.693 133.585 132.164 133.822 132.515C136.191 135.966 137.401 139.987 137.394 144.163C137.382 149.714 135.462 153.746 132.93 158.623C132.725 159.02 132.195 159.239 132.619 159.469C133.516 159.958 134.975 157.427 135.331 156.743Z" fill="#D8BF66"/>
<path d="M134.701 132.929C136.359 133.343 137.862 133.004 139.115 131.779C140.181 130.743 140.499 129.116 140.181 127.706C139.894 126.452 139.121 125.377 138.217 124.485C137.257 123.542 136.135 122.777 134.944 122.156C132.637 120.953 130.006 119.694 128.298 117.669C126.565 115.616 126.216 111.951 128.204 109.956C129.875 108.287 131.191 108.414 133.011 109.472C133.442 109.72 133.828 110.082 134.003 110.554C134.495 111.854 135.985 111.336 135.499 109.996C135.081 108.851 134.009 108.075 132.799 107.649C129.832 106.608 127.126 107.804 125.81 110.64C124.657 113.125 125.349 116.622 127.082 118.693C128.934 120.884 131.715 122.259 134.215 123.571C135.262 124.123 136.26 124.796 137.108 125.624C137.787 126.297 138.417 127.114 138.635 128.063C138.828 128.937 138.679 130.001 138.012 130.651C137.145 131.497 136.229 131.675 135.094 131.393C134.526 131.227 133.934 131.301 133.735 131.773C133.491 132.331 134.252 132.82 134.701 132.929Z" fill="#D8BF66"/>
<path d="M134.906 109.426C134.788 109.323 134.669 109.231 134.538 109.139C134.065 108.799 133.516 108.552 132.93 108.495C132.363 108.437 131.789 108.552 131.278 108.811C130.798 109.058 130.386 109.421 130.062 109.846C129.738 110.272 129.501 110.761 129.364 111.279C129.227 111.808 129.189 112.36 129.283 112.901C129.438 113.781 129.769 114.626 130.255 115.38C132.687 119.136 137.687 119.113 140.592 115.69C143.959 111.658 142.095 105.36 137.506 103.042C132.593 100.597 128.871 102.248 125.847 97.2378C124.887 95.6388 124.114 93.9419 123.335 92.2508C123.135 91.8252 122.605 91.0142 122.069 91.2672C121.539 91.5203 121.689 92.4867 121.888 92.9123C122.686 94.6552 123.491 96.4095 124.482 98.0546C127.817 103.582 131.521 101.839 136.789 104.462C140.443 106.303 142.082 111.422 139.37 114.666C137.169 117.261 133.46 117.399 131.596 114.517C131.228 113.942 130.972 113.292 130.854 112.619C130.798 112.308 130.823 111.986 130.904 111.681C130.991 111.365 131.134 111.06 131.334 110.801C131.515 110.565 131.739 110.358 132.007 110.226C132.244 110.105 132.506 110.053 132.768 110.076C133.073 110.111 133.36 110.26 133.609 110.433C133.697 110.496 133.778 110.56 133.859 110.629C134.183 110.905 134.894 111.394 135.33 111.094C135.879 110.68 135.255 109.731 134.906 109.426Z" fill="#D8BF66"/>
<path d="M123.342 92.2853C125.873 92.4061 128.162 93.1768 130.337 94.425C131.503 95.0923 132.813 96.0414 134.24 95.817C136.086 95.5179 136.117 93.6198 135.057 92.3486C134.558 91.7561 133.922 91.3074 133.268 90.899C131.778 89.9787 130.207 89.2137 128.835 88.1093C127.588 87.0912 126.478 85.889 125.749 84.4395C125.219 83.3754 124.926 82.2308 124.739 81.0631C124.564 79.976 124.589 78.6587 124.271 77.6004C124.04 76.8181 123.666 76.0934 123.136 75.4721C122.831 75.1213 122.133 74.8337 121.783 75.2938C121.515 75.6447 121.665 76.2026 121.927 76.5133C122.313 76.9619 122.575 77.4969 122.744 78.0605C123.037 79.0499 123.005 80.2981 123.161 81.3162C123.373 82.6449 123.71 83.9506 124.321 85.1585C125.15 86.8036 126.403 88.1841 127.825 89.346C129.246 90.4964 130.874 91.2959 132.42 92.2565C132.931 92.5729 133.442 92.918 133.829 93.3782C134.415 94.0799 134.29 94.4768 133.324 94.1892C132.538 93.9534 131.834 93.4587 131.129 93.0561C128.729 91.6813 126.191 90.8358 123.411 90.7035C122.949 90.6862 121.734 90.9106 121.752 91.8079C121.771 92.3658 122.893 92.2623 123.342 92.2853Z" fill="#D8BF66"/>
<path d="M122.656 76.4498C123.392 76.5591 124.078 76.7259 124.708 77.1113C125.45 77.5657 126.167 78.1639 126.653 78.8886C127.208 79.7227 127.844 80.551 128.611 81.2182C130.537 82.8978 132.57 81.7647 131.634 79.1647C131.335 78.3365 130.93 77.5484 130.537 76.7604C129.727 75.1326 128.773 73.4702 128.374 71.6756C126.896 65.0953 127.912 57.4221 130.138 51.0949C130.288 50.6635 130.381 49.8295 129.832 49.6166C129.271 49.4038 128.935 50.1286 128.779 50.5657C126.453 57.1748 125.269 65.1528 126.815 72.0265C127.245 73.9419 128.236 75.7135 129.109 77.4621C129.477 78.2042 129.783 78.9749 130.144 79.7169C130.381 80.2001 130.163 80.6143 129.814 80.2346C129.128 79.4984 128.548 78.8369 127.993 78.0028C127.382 77.0825 126.466 76.3693 125.556 75.7538C125.044 75.4087 121.74 74.103 121.547 75.7538C121.484 76.2197 122.239 76.3923 122.656 76.4498Z" fill="#D8BF66"/>
<path d="M10.1708 163.018C9.23559 163.202 8.60588 164.139 8.66823 165.071C8.76175 166.164 9.80916 166.814 10.8566 166.63C11.0436 166.596 11.2244 166.532 11.3928 166.446C12.1347 166.055 12.515 165.221 12.303 164.41C12.0973 163.662 11.4302 163.075 10.6446 163.001C10.4825 162.978 10.3267 162.989 10.1708 163.018Z" fill="#D8BF66"/>
<path d="M13.7053 162.253C12.8637 162.54 12.4272 163.466 12.6517 164.306C12.9135 165.198 13.8674 165.675 14.7528 165.388C14.9959 165.307 15.2204 165.169 15.4074 164.985C15.8501 164.531 15.9872 163.869 15.7753 163.277C15.5633 162.696 15.0333 162.27 14.4223 162.189C14.1792 162.155 13.936 162.178 13.7053 162.253Z" fill="#D8BF66"/>
<path d="M6.82239 163.409C7.63913 163.501 8.25013 164.306 8.29378 165.094C8.33119 166.095 7.44586 166.791 6.47949 166.699C5.93084 166.641 5.41336 166.336 5.1702 165.836C4.9894 165.497 4.96447 165.106 5.08293 164.737C5.19515 164.387 5.41959 164.082 5.69391 163.84C5.99941 163.558 6.39219 163.368 6.82239 163.409Z" fill="#D8BF66"/>
<path d="M16.9788 161.24C17.7394 160.958 18.5873 161.349 18.8866 162.097C19.1796 162.856 18.8055 163.719 18.0449 164.024C17.278 164.312 16.4177 163.921 16.1246 163.156C15.8566 162.396 16.2182 161.539 16.9788 161.24Z" fill="#D8BF66"/>
<path d="M4.33369 162.719C4.25264 162.661 4.16536 162.615 4.07184 162.581C3.54813 162.419 2.87478 162.598 2.44459 162.914C1.85853 163.351 1.75877 164.122 2.16402 164.715C2.27001 164.858 2.39471 164.991 2.5381 165.094C3.27379 165.635 4.35862 165.514 4.72024 164.605C4.95092 164.03 4.86987 163.127 4.33369 162.719Z" fill="#D8BF66"/>
<path d="M19.9716 160.228C19.2921 160.505 18.9741 161.287 19.2359 161.96C19.5103 162.639 20.2834 162.978 20.9692 162.713C21.6487 162.437 21.973 161.655 21.7049 160.976C21.4243 160.303 20.6512 159.958 19.9716 160.228Z" fill="#D8BF66"/>
<path d="M2.91895 160.936C3.13093 161.569 2.78801 162.276 2.2456 162.627C1.47873 163.104 0.649523 162.581 0.375197 161.804C0.356493 161.758 0.344038 161.707 0.331569 161.661C0.175703 160.959 0.612114 160.251 1.3291 160.119C1.90269 160.021 2.62592 160.292 2.88154 160.844C2.90025 160.873 2.91272 160.901 2.91895 160.936Z" fill="#D8BF66"/>
<path d="M22.7095 159.274C23.3266 159.033 24.0246 159.343 24.2677 159.953C24.5045 160.562 24.2116 161.264 23.6008 161.511C22.9838 161.753 22.292 161.442 22.0427 160.838C21.8058 160.223 22.0988 159.522 22.7095 159.274Z" fill="#D8BF66"/>
<path d="M2.41466 158.584C2.44582 158.026 1.93476 157.514 1.43616 157.348C0.694499 157.112 0.058778 157.693 0.00268602 158.423C-0.0160112 158.756 0.0774891 159.101 0.289392 159.36C0.53869 159.648 0.893931 159.791 1.27411 159.74C1.62936 159.688 1.94722 159.481 2.15289 159.182C2.29 159.009 2.40219 158.808 2.41466 158.584Z" fill="#D8BF66"/>
<path d="M25.2335 158.417C24.6788 158.636 24.4046 159.262 24.6165 159.82C24.8347 160.366 25.4517 160.654 26.0064 160.447C26.5611 160.228 26.8291 159.607 26.6296 159.055C26.4177 158.498 25.7945 158.21 25.2335 158.417Z" fill="#D8BF66"/>
<path d="M2.9825 156.679C2.67711 157.105 2.02893 157.179 1.57396 156.995C0.944484 156.725 0.832296 155.972 1.20001 155.437C1.34959 155.225 1.5615 155.058 1.8108 154.983C2.16605 154.88 2.53999 154.983 2.79552 155.248C3.02612 155.489 3.14453 155.828 3.14453 156.162C3.13207 156.346 3.08222 156.53 2.9825 156.679Z" fill="#D8BF66"/>
<path d="M27.5652 157.669C28.0763 157.491 28.631 157.761 28.8117 158.267C28.98 158.768 28.7245 159.325 28.2196 159.509C27.7148 159.682 27.1663 159.412 26.9794 158.923C26.7986 158.417 27.0604 157.853 27.5652 157.669Z" fill="#D8BF66"/>
<path d="M4.34775 155.31C4.40384 155.276 4.45994 155.235 4.5098 155.189C4.79649 154.908 4.87128 154.436 4.74663 154.062C4.58459 153.614 4.1234 153.384 3.66219 153.499C3.56871 153.522 3.48144 153.556 3.40042 153.602C2.89559 153.89 2.68992 154.528 3.0701 155C3.36303 155.362 3.92394 155.54 4.34775 155.31Z" fill="#D8BF66"/>
<path d="M29.7284 157.042C29.2672 157.192 29.0117 157.692 29.1675 158.152C29.3233 158.6 29.8157 158.853 30.2706 158.715C30.4327 158.663 30.576 158.56 30.6882 158.428C30.8814 158.204 30.9624 157.893 30.8752 157.606C30.7817 157.318 30.5386 157.111 30.2519 157.036C30.0774 156.985 29.8967 156.985 29.7284 157.042Z" fill="#D8BF66"/>
<path d="M6.06755 154.654C5.62504 154.7 5.2137 154.367 5.09529 153.953C4.95194 153.43 5.34459 152.975 5.86189 152.906C5.93044 152.901 5.99899 152.895 6.06131 152.901C6.51005 152.935 6.87153 153.28 6.85906 153.74C6.84036 154.125 6.58485 154.499 6.2109 154.62C6.16727 154.637 6.11741 154.649 6.06755 154.654Z" fill="#D8BF66"/>
<path d="M31.8667 156.479C32.2967 156.358 32.7828 156.559 32.9075 157.008C33.0259 157.445 32.7267 157.876 32.3092 157.997C31.8854 158.117 31.3992 157.916 31.2621 157.479C31.1312 157.036 31.4366 156.605 31.8667 156.479Z" fill="#D8BF66"/>
<path d="M7.80682 154.671C7.88784 154.689 7.96885 154.694 8.04988 154.683C8.35527 154.643 8.6295 154.424 8.74169 154.142C8.87257 153.82 8.75416 153.47 8.4737 153.268C8.38644 153.205 8.28671 153.159 8.18699 153.136C7.73826 153.033 7.28952 153.309 7.23343 153.774C7.19603 154.148 7.42041 154.574 7.80682 154.671Z" fill="#D8BF66"/>
<path d="M33.8568 156.018C33.4704 156.122 33.1962 156.501 33.2959 156.898C33.4018 157.289 33.8256 157.49 34.2058 157.393C34.586 157.295 34.8478 156.915 34.7605 156.524C34.6608 156.128 34.2432 155.921 33.8568 156.018Z" fill="#D8BF66"/>
<path d="M9.30421 155.236C9.00505 155.034 8.93649 154.609 9.08607 154.293C9.27304 153.913 9.74672 153.821 10.0895 154.045C10.2391 154.143 10.3575 154.298 10.4011 154.477C10.451 154.684 10.4011 154.902 10.2578 155.063C10.1207 155.218 9.92746 155.31 9.72179 155.328C9.57221 155.345 9.42886 155.316 9.30421 155.236Z" fill="#D8BF66"/>
<path d="M35.6577 155.661C36.0067 155.587 36.3682 155.794 36.443 156.15C36.5116 156.501 36.281 156.834 35.932 156.915C35.5892 156.99 35.2277 156.783 35.1467 156.438C35.0656 156.081 35.3087 155.742 35.6577 155.661Z" fill="#D8BF66"/>
<path d="M10.4383 156.185C10.6377 156.438 11.0304 156.473 11.3046 156.317C11.6349 156.122 11.6848 155.696 11.4604 155.403C11.2298 155.11 10.806 155.052 10.5318 155.317C10.3074 155.541 10.2388 155.926 10.4383 156.185Z" fill="#D8BF66"/>
<path d="M37.2847 155.403C36.9731 155.46 36.7549 155.765 36.811 156.075C36.8733 156.386 37.1787 156.587 37.4841 156.535C37.7957 156.478 38.0014 156.179 37.9515 155.868C37.9017 155.558 37.6025 155.345 37.2847 155.403Z" fill="#D8BF66"/>
<path d="M11.1424 157.352C11.0489 157.076 11.2172 156.766 11.4727 156.639C11.7781 156.496 12.1209 156.657 12.2393 156.967C12.3453 157.283 12.1832 157.628 11.8467 157.709C11.5662 157.766 11.2421 157.628 11.1424 157.352Z" fill="#D8BF66"/>
<path d="M38.7555 155.224C39.036 155.19 39.2915 155.397 39.3227 155.673C39.3539 155.943 39.1731 156.213 38.8927 156.253C38.6122 156.288 38.3629 156.087 38.3193 155.811C38.2819 155.535 38.4689 155.264 38.7555 155.224Z" fill="#D8BF66"/>
<path d="M11.4299 158.606C11.4299 158.865 11.6605 159.078 11.9098 159.118C12.2276 159.164 12.4707 158.911 12.4707 158.606C12.4707 158.491 12.4395 158.382 12.3772 158.284C12.2713 158.135 12.0968 158.054 11.9098 158.083C11.7415 158.106 11.5857 158.215 11.4984 158.365C11.461 158.434 11.4361 158.52 11.4299 158.606Z" fill="#D8BF66"/>
<path d="M40.0772 155.126C39.8217 155.149 39.6534 155.391 39.6784 155.638C39.7033 155.88 39.9152 156.081 40.1645 156.058C40.4138 156.035 40.5758 155.793 40.5571 155.558C40.5384 155.305 40.3328 155.103 40.0772 155.126Z" fill="#D8BF66"/>
<path d="M11.2433 159.716C11.2807 159.636 11.343 159.573 11.4116 159.527C11.5362 159.458 11.6858 159.435 11.8229 159.475C11.9725 159.515 12.0847 159.63 12.1221 159.774C12.147 159.883 12.1345 159.992 12.0909 160.09C11.9787 160.337 11.6858 160.452 11.449 160.309C11.2682 160.194 11.1498 159.935 11.2433 159.716Z" fill="#D8BF66"/>
<path d="M41.2689 155.086C41.4995 155.08 41.6615 155.276 41.6678 155.494C41.674 155.707 41.5307 155.914 41.3063 155.926C41.0819 155.931 40.9199 155.736 40.9012 155.529C40.895 155.31 41.0445 155.098 41.2689 155.086Z" fill="#D8BF66"/>
<path d="M10.6694 160.631C10.5198 160.786 10.5323 161.039 10.6569 161.2C10.8127 161.39 11.0932 161.39 11.2677 161.223C11.3238 161.172 11.3612 161.103 11.3799 161.028C11.4235 160.873 11.3674 160.712 11.2428 160.614C11.1244 160.522 10.9685 160.493 10.8252 160.539C10.7691 160.556 10.713 160.591 10.6694 160.631Z" fill="#D8BF66"/>
<path d="M42.3417 155.103C42.136 155.103 42.0052 155.293 42.0052 155.483C42.0114 155.667 42.1423 155.857 42.3355 155.862C42.5349 155.862 42.6658 155.673 42.6658 155.489C42.672 155.299 42.5474 155.109 42.3417 155.103Z" fill="#D8BF66"/>
<path d="M9.85239 161.269C9.85862 161.269 9.85862 161.269 9.85239 161.269C10.0331 161.183 10.2513 161.258 10.351 161.419C10.4694 161.609 10.3884 161.839 10.1952 161.942H10.1889C9.99574 162.034 9.76514 161.954 9.68412 161.752C9.6218 161.586 9.68411 161.361 9.85239 161.269Z" fill="#D8BF66"/>
<path d="M43.3071 155.172C43.4879 155.184 43.5876 155.368 43.5751 155.529C43.5627 155.69 43.4442 155.857 43.2697 155.851C43.0952 155.839 42.9955 155.661 43.0017 155.494C43.0017 155.333 43.1264 155.161 43.3071 155.172Z" fill="#D8BF66"/>
<path d="M8.94827 161.609C8.77376 161.643 8.64911 161.816 8.66158 161.988C8.68028 162.19 8.87348 162.31 9.06668 162.276C9.25989 162.241 9.39077 162.057 9.34091 161.868C9.29105 161.707 9.12277 161.58 8.94827 161.609Z" fill="#D8BF66"/>
<path d="M98.0409 146.509C96.875 146.32 95.9773 145.612 95.2416 144.715C93.7826 142.914 92.9784 140.729 92.0182 138.646C91.002 136.449 89.7987 134.229 88.0031 132.566C84.8671 129.696 80.2908 130.145 77.5226 133.205C74.4302 136.656 75.4091 141.379 80.2098 142.103C80.8707 142.201 81.544 142.201 82.1986 142.057C84.3434 141.58 85.821 139.411 85.1476 137.295C84.7549 136.087 83.7074 135.27 82.4979 135C82.0428 134.902 81.0016 135.017 81.0328 135.684C81.0889 136.518 82.6662 136.553 83.2211 137.105C83.4082 137.295 83.5516 137.525 83.6326 137.778C84.0254 139.014 83.084 140.228 81.862 140.498C81.4006 140.596 80.9205 140.591 80.4529 140.521C76.9054 139.987 76.4628 136.771 78.7135 134.258C80.8956 131.842 84.4431 131.456 86.9245 133.728C88.5642 135.247 89.6491 137.306 90.578 139.308C91.5943 141.517 92.4609 143.8 94.0071 145.71C94.9922 146.912 96.2391 147.821 97.7915 148.068C99.319 148.315 99.5996 146.762 98.0409 146.509Z" fill="#D8BF66"/>
<path fill-rule="evenodd" clip-rule="evenodd" d="M81.3137 135.005C80.0356 135.023 79.0069 136.098 79.0256 137.404C79.0381 138.71 80.0917 139.757 81.3698 139.745C82.6479 139.728 83.6767 138.652 83.658 137.346C83.6392 136.035 82.5918 134.988 81.3137 135.005Z" fill="#D8BF66"/>
<path fill-rule="evenodd" clip-rule="evenodd" d="M93.4219 147.62C91.1213 146.734 88.4653 145.854 86.1523 145.67C88.9017 142.115 87.474 136.915 85.2919 133.723C85.9403 133.901 87.5488 135.937 88.5526 137.72C89.7434 139.837 90.4666 142.195 91.4829 144.324C92.1812 145.79 92.8919 147.303 93.4219 147.62Z" fill="#D8BF66"/>
<path d="M84.8047 140.89C84.3745 141.735 83.8508 142.265 82.953 142.621C76.9116 144.991 71.4001 138.612 65.0782 141.304C62.6966 142.322 60.8885 143.432 58.2076 143.317C57.3597 143.283 56.1377 142.075 55.4643 142.5C55.0154 142.788 55.1214 143.421 55.4519 143.754C56.1689 144.468 57.1228 144.859 58.1328 144.899C61.1005 145.026 63.0769 143.881 65.7017 142.759C71.8054 140.154 77.3106 146.533 83.5328 144.088C84.7735 143.593 85.7898 142.708 86.2823 141.459C86.8746 139.97 85.5902 139.343 84.8047 140.89Z" fill="#D8BF66"/>
<path d="M54.8234 143.214C55.1663 146.717 61.6504 150.962 61.4072 152.354C61.3885 152.699 62.9409 153.165 62.9971 152.474C63.2402 149.598 56.937 147.039 56.5504 143.03C56.4008 141.816 54.7424 142.132 54.8234 143.214Z" fill="#D8BF66"/>
<path d="M62.8539 151.848C58.8326 147.246 47.8596 152.216 42.5539 151.951C42.2359 151.94 42.105 152.481 42.0738 152.705C42.0426 152.981 42.0925 153.51 42.4666 153.533C46.9805 153.758 58.7889 149.317 61.925 153.131C62.7168 153.919 63.3589 152.429 62.8539 151.848Z" fill="#D8BF66"/>
<path d="M42.2103 153.568C43.7004 154.488 45.3651 154.81 46.9985 155.356C47.7218 155.598 48.657 155.857 49.3802 156.098C50.2655 156.398 50.5772 157.163 49.4051 157.393C47.6656 157.738 45.9885 157.824 44.3301 157.876C39.6977 158.014 35.9569 158.566 31.7735 160.516C27.509 162.506 23.4377 165.083 20.0772 168.183C19.7406 168.5 19.485 169.109 19.8653 169.495C20.2393 169.852 20.8254 169.656 21.1558 169.351C24.4041 166.36 28.3507 163.875 32.4718 161.954C36.4744 160.09 39.9284 159.912 44.355 159.797C47.1669 159.722 49.7106 159.521 50.9077 158.411C51.8616 157.525 52.2294 155.753 50.6146 154.902C49.6483 154.39 48.5385 154.206 47.5035 153.861C45.9948 153.355 44.4236 153.079 43.052 152.227C41.5868 151.307 40.7826 152.664 42.2103 153.568Z" fill="#D8BF66"/>
<path d="M21.3554 169.621C25.1586 167.861 29.4667 167.596 33.5941 167.729C38.8998 167.907 44.1494 168.77 49.4114 169.408C53.9191 169.943 58.5826 169.828 62.922 168.367C64.9108 167.683 66.7874 166.711 68.4396 165.411C69.7302 164.381 70.8587 163.167 71.7939 161.81C72.7852 160.343 71.5008 159.434 70.4784 160.918C69.6367 162.143 68.6142 163.242 67.4483 164.168C65.9395 165.359 64.225 166.245 62.4107 166.866C58.3021 168.252 53.8754 168.344 49.6109 167.832C44.3052 167.188 39.0058 166.319 33.6564 166.141C29.2735 166.003 24.7222 166.314 20.6883 168.183C19.2107 168.873 19.8653 170.306 21.3554 169.621Z" fill="#D8BF66"/>
<path d="M102.069 151.163C101.577 150.818 101.003 150.605 100.411 150.479C99.6875 150.323 98.9394 150.317 98.2037 150.409C96.67 150.599 95.2048 151.18 93.8394 151.882C92.58 152.532 91.3767 153.314 90.267 154.194C89.8492 154.528 89.444 154.873 89.0699 155.253C88.9016 155.419 88.7457 155.598 88.6023 155.782C88.3779 156.098 88.434 157.243 88.6584 157.335C89.3255 157.611 89.737 156.84 90.2046 156.363C90.535 156.029 90.8904 155.724 91.2583 155.431C92.287 154.614 93.403 153.889 94.5689 153.285C95.7659 152.67 97.0565 152.147 98.397 151.98C98.9518 151.911 99.5192 151.911 100.074 152.026C100.467 152.112 100.847 152.262 101.184 152.486C102.518 153.355 103.029 151.842 102.069 151.163Z" fill="#D8BF66"/>
<path d="M89.9614 156.024C89.9864 155.851 90.0051 155.673 90.0113 155.5C90.0238 154.672 89.7619 153.878 89.2694 153.211C88.7207 152.481 87.9476 151.963 87.1122 151.618C86.0585 151.186 84.9113 151.02 83.7829 150.991C79.4061 150.899 75.3411 151.877 71.6938 154.333C68.7698 156.311 66.1824 158.704 62.9217 160.16C53.021 164.491 41.9358 165.141 31.3057 164.031C30.8443 163.985 29.5475 163.933 29.4478 164.612C29.3729 165.308 30.6697 165.561 31.1311 165.607C42.0418 166.746 53.4076 166.055 63.5638 161.609C66.9181 160.108 69.5741 157.68 72.5854 155.644C75.9521 153.372 79.6929 152.492 83.7392 152.578C84.6744 152.601 85.6283 152.734 86.5012 153.085C87.0685 153.32 87.6172 153.66 87.9913 154.16C88.2718 154.54 88.4277 154.994 88.4215 155.466C88.4215 155.569 88.409 155.673 88.3903 155.777C88.3217 156.196 88.116 157.146 88.5462 157.439C89.2444 157.888 89.8866 156.478 89.9614 156.024Z" fill="#D8BF66"/>
<path fill-rule="evenodd" clip-rule="evenodd" d="M85.41 164.916C83.7266 164.939 82.3799 166.314 82.4049 167.988C82.4236 169.662 83.8014 171.002 85.4848 170.979C87.1681 170.956 88.5148 169.581 88.4899 167.907C88.465 166.233 87.0871 164.893 85.41 164.916Z" fill="#D8BF66"/>
<path fill-rule="evenodd" clip-rule="evenodd" d="M78.8567 163.098C77.4851 163.116 76.3878 164.237 76.4065 165.6C76.4252 166.964 77.5474 168.057 78.9128 168.039C80.2844 168.022 81.3817 166.9 81.363 165.537C81.3506 164.174 80.2283 163.081 78.8567 163.098Z" fill="#D8BF66"/>
<path fill-rule="evenodd" clip-rule="evenodd" d="M74.8553 159.578C73.8079 159.59 72.9725 160.447 72.9849 161.488C72.9974 162.529 73.8516 163.363 74.899 163.351C75.9464 163.34 76.7819 162.483 76.7694 161.442C76.7569 160.395 75.8965 159.567 74.8553 159.578Z" fill="#D8BF66"/>
<path fill-rule="evenodd" clip-rule="evenodd" d="M75.629 155.603C74.7436 155.615 74.0329 156.34 74.0453 157.22C74.0578 158.1 74.781 158.807 75.6664 158.796C76.5517 158.784 77.2562 158.06 77.25 157.179C77.2375 156.299 76.5143 155.592 75.629 155.603Z" fill="#D8BF66"/>
<path fill-rule="evenodd" clip-rule="evenodd" d="M78.9501 153.694C78.2145 153.706 77.6284 154.304 77.6346 155.034C77.6409 155.765 78.2456 156.352 78.9813 156.34C79.717 156.329 80.3031 155.73 80.2968 155C80.2906 154.269 79.6858 153.688 78.9501 153.694Z" fill="#D8BF66"/>
<path fill-rule="evenodd" clip-rule="evenodd" d="M82.2553 155.15C81.5759 155.162 81.0275 155.714 81.0399 156.392C81.0462 157.071 81.6071 157.617 82.2864 157.605C82.9658 157.594 83.5142 157.042 83.5017 156.363C83.4955 155.685 82.9346 155.144 82.2553 155.15Z" fill="#D8BF66"/>
<path fill-rule="evenodd" clip-rule="evenodd" d="M83.8403 157.836C83.2918 157.842 82.8555 158.29 82.8618 158.837C82.868 159.383 83.3167 159.82 83.8652 159.808C84.4136 159.803 84.8499 159.354 84.8437 158.808C84.8312 158.267 84.3825 157.83 83.8403 157.836Z" fill="#D8BF66"/>
<path d="M93.3213 149.495C89.9358 148.92 86.5504 148.207 83.1089 148.12C79.0127 148.034 75.1036 149.052 71.768 151.468C68.1706 154.085 64.4984 156.426 60.3399 158.066C56.4058 159.596 52.16 160.286 47.9828 160.775C47.5277 160.826 46.3618 161.085 46.4179 161.741C46.4927 162.408 47.7085 162.403 48.1698 162.351C52.4842 161.85 56.861 161.126 60.926 159.544C65.2154 157.858 69.0061 155.448 72.7095 152.751C75.7645 150.536 79.3307 149.633 83.0715 149.708C86.4382 149.788 89.7488 150.496 93.0532 151.06C93.5083 151.134 94.3562 151.077 94.456 150.484C94.5433 149.903 93.7826 149.57 93.3213 149.495Z" fill="#D8BF66"/>
<path d="M92.885 149.351C87.7289 147.424 82.0429 146.613 76.5502 146.682C73.8755 146.717 71.2071 147.016 68.5324 146.981C66.0822 146.941 63.6132 146.631 61.3687 145.607C60.9822 145.434 60.4897 145.572 60.2777 145.952C60.0532 146.372 60.2839 146.861 60.6954 147.05C63.1456 148.166 65.8328 148.523 68.5074 148.569C71.2008 148.603 73.8817 148.304 76.5751 148.27C81.8683 148.207 87.3611 148.983 92.3301 150.835C92.7291 150.985 93.1655 150.755 93.3276 150.375C93.4773 149.972 93.2902 149.512 92.885 149.351Z" fill="#D8BF66"/>
<path d="M80.6912 147.2C77.5115 147.01 74.4939 147.804 71.7008 149.294C68.8266 150.83 66.2455 152.854 63.4336 154.488C61.8126 155.414 59.9235 155.863 58.0594 155.799C57.2052 155.765 56.3511 155.621 55.5468 155.333C55.0418 155.149 54.5555 154.902 54.1253 154.586C53.8073 154.356 53.346 154.488 53.0841 154.747C52.7661 155.08 52.816 155.592 53.1776 155.868C53.7325 156.277 54.3497 156.587 54.9981 156.823C55.9583 157.174 56.9808 157.347 58.0033 157.387C60.1667 157.462 62.355 156.944 64.2379 155.863C67.0373 154.235 69.5997 152.222 72.4614 150.697C74.999 149.351 77.7173 148.621 80.6039 148.793C81.0341 148.816 81.4768 148.523 81.5329 148.08C81.5703 147.591 81.1401 147.229 80.6912 147.2Z" fill="#D8BF66"/>
<path fill-rule="evenodd" clip-rule="evenodd" d="M144.009 19.1314C143.935 19.9137 143.816 20.5176 143.66 21.0008C143.211 22.3698 141.809 23.6007 140.774 24.5498C139.514 25.7002 137.831 26.9484 137.681 25.3263C137.594 24.3657 137.394 23.4281 136.509 22.0419C136.858 22.8932 137.114 23.6755 137.17 24.7396C137.22 25.6772 137.089 26.9081 137.207 27.4776C137.089 27.9205 137.22 29.0594 136.864 31.1934C137.812 27.8687 142.8 23.0543 145.811 20.972C146.291 20.6384 146.566 20.5349 147.195 19.7181C145.936 20.7247 145.113 21.1676 144.614 21.018C144.053 20.857 143.903 19.9827 144.009 19.1314Z" fill="#D8BF66"/>
<path fill-rule="evenodd" clip-rule="evenodd" d="M130.593 11.7228C131.641 12.2117 131.641 13.4024 131.541 14.501C131.204 18.1823 130.288 18.7172 131.828 22.341C132.333 23.5317 133.511 25.1538 133.686 25.9705C134.334 29.0249 133.324 32.384 134.665 36.3414C134.789 37.4803 134.845 38.6595 134.933 39.5568C135.126 41.5297 135.55 42.22 137.059 37.9807C138.337 34.6101 141.242 29.5943 145.214 25.5621C148.855 21.8636 152.546 18.838 155.339 14.8979C158.917 9.85914 159.341 4.8894 159.21 0.00018692C157.508 3.52617 151.797 6.48845 149.397 8.95606C146.99 11.4294 147.732 16.7558 145.638 16.5085C143.817 16.2899 145.974 12.6489 146.529 10.7622C147.296 8.13928 145.837 5.33805 144.783 3.07176C145.295 6.3159 142.24 9.6348 140.344 11.8896C139.291 13.1435 140.22 15.7492 140.276 16.3187C140.382 17.4 141.703 19.4305 140.444 20.834C138.505 22.9967 138.53 18.0615 137.919 16.9169C136.766 14.7483 133.842 12.4705 130.593 11.7228ZM149.029 14.2019C149.578 12.2117 150.045 11.4409 150.937 10.6241C152.839 8.86978 155.887 7.32824 157.477 5.59113C157.097 7.34549 156.554 9.48525 155.526 11.2569C152.676 16.1576 147.614 20.9088 144.085 24.2047C142.676 25.5219 141.186 27.1555 140.014 28.7775C138.599 30.739 137.252 33.2181 136.242 35.0415C135.737 33.1433 135.17 31.5672 135.631 28.5532C135.643 23.2671 134.004 23.1923 132.981 19.9712C132.607 18.7172 132.975 16.6753 133.287 14.8864C134.939 16.0656 136.342 16.9629 136.915 18.8725C137.395 20.4774 137.389 22.5999 138.468 23.2728C140.731 24.6821 142.62 21.0928 142.788 19.0969C142.901 17.7739 141.76 16.1921 141.672 14.6966C141.404 10.7737 144.091 11.5157 145.201 7.0694C146.174 9.54277 145.207 10.5551 144.216 12.8042C143.218 15.0532 143.518 17.7624 144.958 18.2226C146.392 18.6942 147.963 18.0845 149.029 14.2019Z" fill="#D8BF66"/>
<path fill-rule="evenodd" clip-rule="evenodd" d="M150.83 165.532C148.654 165.382 147.014 163.403 147.176 161.108C147.338 158.813 149.228 157.076 151.41 157.22C153.586 157.369 155.225 159.348 155.063 161.637C154.901 163.938 153.006 165.681 150.83 165.532Z" fill="#D8BF66"/>
<path d="M144.297 162.627C144.434 163.512 144.74 164.369 145.213 165.134C145.675 165.877 146.286 166.515 146.99 167.033C148.474 168.126 150.32 168.666 152.159 168.678C158.063 168.683 163.07 162.08 159.329 156.598C157.296 153.625 151.666 151.87 148.967 154.936C148.443 155.529 148.113 156.265 147.988 157.047C148.524 156.616 149.116 156.265 149.771 156.058C152.153 155.253 155.239 156.397 156.679 158.416C159.192 162.005 156.093 166.613 152.053 167.268C150.444 167.533 148.749 167.303 147.302 166.538C146.579 166.153 145.93 165.629 145.419 164.985C144.864 164.3 144.49 163.489 144.297 162.627Z" fill="#D8BF66"/>
<path d="M151.236 164.053C150.594 164.007 149.97 163.835 149.403 163.541C148.848 163.248 148.355 162.851 147.95 162.368C147.539 161.879 147.227 161.31 147.021 160.706C146.809 160.067 146.728 159.388 146.778 158.715C146.853 157.674 147.121 156.65 147.589 155.707C148.031 154.827 148.642 154.039 149.384 153.389C150.126 152.751 150.98 152.256 151.909 151.945C152.876 151.623 153.898 151.497 154.914 151.56C155.955 151.635 156.959 151.94 157.882 152.423C158.817 152.923 159.646 153.602 160.338 154.401C161.037 155.212 161.585 156.144 161.947 157.151C162.302 158.163 162.464 159.239 162.396 160.314C162.29 161.764 161.885 163.167 161.205 164.456C160.538 165.71 159.628 166.82 158.549 167.74C157.464 168.655 156.224 169.368 154.883 169.828C153.536 170.288 152.109 170.496 150.687 170.398C149.147 170.288 147.657 169.777 146.329 169.006C144.733 168.074 143.38 166.791 142.289 165.307C141.017 163.576 139.858 159.164 143.947 154.971L134.97 163.219L136.946 162.178C138.187 161.528 138.604 161.937 139.122 163.052C139.639 164.174 140.263 165.244 140.998 166.245C142.22 167.901 143.736 169.334 145.519 170.375C147.059 171.266 148.786 171.853 150.569 171.974C152.202 172.083 153.842 171.847 155.394 171.318C156.922 170.789 158.337 169.978 159.572 168.937C160.806 167.884 161.847 166.613 162.608 165.186C163.387 163.708 163.861 162.08 163.979 160.412C164.067 159.118 163.873 157.824 163.443 156.604C163.013 155.414 162.365 154.309 161.542 153.349C160.719 152.4 159.734 151.6 158.63 151.008C157.514 150.415 156.286 150.047 155.02 149.961C153.792 149.88 152.564 150.036 151.398 150.427C150.276 150.806 149.234 151.405 148.337 152.181C147.439 152.963 146.697 153.918 146.161 154.988C145.6 156.116 145.275 157.341 145.188 158.595C145.126 159.469 145.238 160.355 145.512 161.189C145.774 161.988 146.192 162.736 146.728 163.38C147.264 164.019 147.925 164.554 148.661 164.939C149.422 165.336 150.263 165.572 151.124 165.629C151.161 165.112 151.198 164.582 151.236 164.053Z" fill="#D8BF66"/>
<path fill-rule="evenodd" clip-rule="evenodd" d="M136.011 145.267C135.7 146.883 135.868 148.356 135.669 149.644C135.475 150.904 134.278 154.516 133.006 156.765C134.291 155.557 135.101 154.752 136.267 152.325C137.19 150.409 136.791 152.244 135.899 154.804C134.334 159.308 131.89 162.166 128.33 163.857C127.146 164.421 125.843 164.749 124.427 164.755C122.32 164.761 120.905 166.388 119.664 166.124C118.43 165.859 117.507 165.088 118.754 164.461C121.098 163.535 123.835 162.621 126.179 161.689C128.573 159.037 130.968 156.386 133.368 153.728C134.397 150.91 134.989 148.08 136.011 145.267Z" fill="#D8BF66"/>
<path d="M2.95777 155.31C2.90168 155.276 2.84558 155.235 2.79572 155.189C2.50903 154.908 2.43424 154.436 2.55889 154.062C2.72093 153.614 3.18215 153.384 3.64335 153.499C3.73683 153.522 3.82408 153.556 3.9051 153.602C4.40993 153.89 4.6156 154.528 4.23542 155C3.94249 155.362 3.38781 155.54 2.95777 155.31Z" fill="#D8BF66"/>
</g>
</svg>
