<svg width="164" height="172" viewBox="0 0 164 172" fill="none" xmlns="http://www.w3.org/2000/svg">
<g opacity="0.4">
<path d="M14.6032 130.89C15.2454 130.878 15.8813 130.74 16.4612 130.476C17.0348 130.217 17.546 129.843 17.9824 129.383C18.4188 128.917 18.768 128.365 19.0049 127.772C19.2481 127.145 19.3728 126.472 19.3665 125.799C19.354 124.753 19.1421 123.717 18.7306 122.757C18.3378 121.854 17.7767 121.037 17.0722 120.347C16.3676 119.668 15.5384 119.127 14.6344 118.765C13.6867 118.391 12.6767 118.207 11.6542 118.218C10.613 118.236 9.59056 118.489 8.64289 118.92C7.68275 119.369 6.81614 120.001 6.07421 120.761C5.33229 121.537 4.72752 122.435 4.3098 123.424C3.89208 124.419 3.67386 125.483 3.6801 126.559C3.6988 128.008 4.02924 129.435 4.62777 130.758C5.22006 132.046 6.06174 133.202 7.09046 134.18C8.11918 135.152 9.32247 135.929 10.6318 136.469C11.9473 137.004 13.3625 137.286 14.7903 137.269C16.3365 137.246 17.8515 136.815 19.2231 136.119C20.8691 135.279 22.2968 134.065 23.4689 132.644C24.9216 130.878 25.9815 128.819 26.711 126.662C27.6462 123.867 28.0514 120.916 28.1013 117.977C28.1948 111.851 27.5838 105.236 24.6223 99.7543C23.5437 97.7814 22.0973 95.9637 20.1459 94.7961C18.2443 93.6744 16.0621 93.3408 13.8862 93.6227C13.8177 93.0992 13.7491 92.57 13.6805 92.0466C16.2118 91.7187 18.7555 92.1329 20.9626 93.4328C23.1572 94.75 24.8094 96.769 26.0251 98.995C29.1175 104.724 29.7971 111.598 29.6974 118.005C29.6412 121.106 29.2173 124.218 28.226 127.168C27.4342 129.509 26.287 131.741 24.7034 133.657C23.3879 135.244 21.7918 136.596 19.9526 137.534C18.3627 138.339 16.6046 138.833 14.8152 138.857C13.1755 138.874 11.5545 138.552 10.0332 137.942C8.5369 137.332 7.17151 136.441 5.9994 135.336C4.82728 134.22 3.8609 132.897 3.18133 131.425C2.48928 129.906 2.10896 128.256 2.09026 126.587C2.07779 125.293 2.34588 124.011 2.84465 122.814C3.33719 121.646 4.04794 120.582 4.92703 119.668C5.79989 118.765 6.82861 118.017 7.96955 117.488C9.12296 116.959 10.3637 116.654 11.6355 116.636C12.8638 116.625 14.0858 116.844 15.2267 117.298C16.324 117.741 17.334 118.391 18.1819 119.213C19.0361 120.047 19.7219 121.037 20.1957 122.135C20.6883 123.292 20.9439 124.534 20.9626 125.788C20.9751 126.668 20.813 127.542 20.495 128.359C20.1833 129.141 19.7281 129.866 19.1545 130.476C18.5809 131.086 17.8951 131.58 17.1345 131.925C16.3489 132.282 15.4948 132.472 14.6344 132.483C14.6157 131.948 14.6095 131.419 14.6032 130.89Z" fill="#D8BF66"/>
<path fill-rule="evenodd" clip-rule="evenodd" d="M14.915 132.392C17.0972 132.363 18.8429 130.476 18.8179 128.176C18.793 125.875 16.9974 124.034 14.8153 124.063C12.6331 124.092 10.8874 125.978 10.9124 128.279C10.9435 130.58 12.7329 132.421 14.915 132.392Z" fill="#D8BF66"/>
<path d="M21.6111 129.849C21.4241 130.729 21.0687 131.569 20.5512 132.305C20.0462 133.019 19.404 133.623 18.6683 134.106C14.622 136.746 8.77393 135.457 6.39852 131.172C4.10417 126.927 6.19902 121.808 10.8314 120.376C13.8302 119.484 17.8952 120.548 18.2506 124.08C16.4488 122.452 14.0609 122.297 11.8414 123.24C7.78262 124.977 7.30255 129.918 10.663 132.656C12.7641 134.388 15.9189 134.727 18.3816 133.594C19.1235 133.249 19.8031 132.76 20.3517 132.15C20.944 131.489 21.368 130.701 21.6111 129.849Z" fill="#D8BF66"/>
<path fill-rule="evenodd" clip-rule="evenodd" d="M23.6072 127.577C24.6484 127.566 25.4838 126.709 25.4713 125.673C25.4589 124.638 24.6047 123.804 23.5635 123.816C22.5223 123.827 21.6869 124.684 21.6994 125.719C21.7118 126.761 22.566 127.589 23.6072 127.577Z" fill="#D8BF66"/>
<path fill-rule="evenodd" clip-rule="evenodd" d="M24.0867 121.434C25.3648 121.417 26.3935 120.37 26.3748 119.093C26.3623 117.816 25.3087 116.798 24.0306 116.815C22.7525 116.832 21.7237 117.879 21.7424 119.156C21.7549 120.427 22.8086 121.451 24.0867 121.434Z" fill="#D8BF66"/>
<path fill-rule="evenodd" clip-rule="evenodd" d="M23.4201 114.825C24.9102 114.807 26.101 113.588 26.0823 112.104C26.0636 110.62 24.8416 109.435 23.3577 109.452C21.8676 109.47 20.6768 110.689 20.6955 112.173C20.7142 113.657 21.93 114.842 23.4201 114.825Z" fill="#D8BF66"/>
<path fill-rule="evenodd" clip-rule="evenodd" d="M21.5295 108.107C23.2815 108.084 24.6905 106.646 24.6656 104.897C24.6469 103.148 23.2067 101.751 21.4547 101.774C19.7028 101.797 18.2937 103.235 18.3187 104.983C18.3374 106.732 19.7776 108.13 21.5295 108.107Z" fill="#D8BF66"/>
<path fill-rule="evenodd" clip-rule="evenodd" d="M16.7107 102.107C18.6185 102.084 20.146 100.52 20.1273 98.616C20.1024 96.7121 18.5375 95.1936 16.6297 95.2166C14.7218 95.2396 13.1944 96.8041 13.2131 98.708C13.238 100.612 14.8029 102.136 16.7107 102.107Z" fill="#D8BF66"/>
<path fill-rule="evenodd" clip-rule="evenodd" d="M13.4132 93.5428C15.3086 85.9616 11.3994 82.3321 8.91805 71.2595C7.32821 64.1615 6.29949 55.5852 7.58383 45.8241C9.7909 34.274 14.0055 23.9031 21.5682 15.3786C26.0135 9.71866 30.2094 7.21078 34.4116 6.46877C37.6786 5.89357 37.5975 8.09659 44.6302 6.64708C14.2237 14.4008 2.47764 47.9753 13.8559 75.2974C16.3809 81.3543 20.0656 87.2271 19.7539 94.0892C17.8149 93.5543 15.346 93.445 13.4132 93.5428Z" fill="#D8BF66"/>
<path d="M25.283 137.752C30.1585 128.204 30.863 117.499 28.9988 107.082C27.0848 96.5677 22.9263 86.611 18.3937 76.9879C11.9096 63.1197 9.19754 47.2327 12.2089 32.1106C12.7264 32.2142 19.7341 21.5959 20.2516 21.6995C17.0158 21.849 10.6627 39.9967 13.088 53.0882C14.5593 61.0433 16.411 69.0098 19.8401 76.3149C24.4226 86.0703 28.631 96.1536 30.57 106.806C32.4965 117.568 31.7421 128.624 26.7045 138.483C26.2244 138.235 25.7568 137.994 25.283 137.752Z" fill="#D8BF66"/>
<path d="M48.5386 73.4392C48.47 72.7317 48.3515 71.9954 48.5386 71.2994C48.6508 70.8968 48.8752 70.5402 49.2119 70.2871C49.5797 70.0168 50.0286 69.896 50.4713 69.8499C51.0449 69.7924 51.6185 69.7694 52.1921 69.8269C52.7095 69.8845 53.2208 70.0168 53.6759 70.2813C54.131 70.5459 54.4989 70.9371 54.7483 71.403C55.0164 71.9149 55.1473 72.4844 55.2034 73.0596C55.2658 73.7096 55.1909 74.3653 54.9914 74.9865C54.7919 75.5847 54.474 76.1426 54.0625 76.6201C53.6447 77.1032 53.1397 77.5059 52.5724 77.805C51.9801 78.1156 51.3317 78.3054 50.6708 78.3744C49.7605 78.4665 48.8378 78.3572 47.9587 78.1041C47.0485 77.8337 46.1943 77.4081 45.4399 76.8329C44.6668 76.2404 44.0184 75.4984 43.5633 74.6356C43.077 73.7038 42.8525 72.6684 42.8837 71.6216C42.9211 70.5114 43.1892 69.4243 43.6568 68.4177C44.1306 67.4053 44.7728 66.485 45.5023 65.6395C47.1358 63.7586 49.1246 62.2113 51.0636 60.6582C55.5027 57.1322 59.9542 53.4164 62.2735 48.1016C63.9132 44.2937 65.023 40.1465 65.1228 35.9878C65.1539 34.3945 65.0417 32.7725 64.5803 31.2367C64.2499 30.1495 63.72 29.0624 62.8097 28.3377C63.1401 27.9235 63.4706 27.5094 63.801 27.0952C64.9607 28.0213 65.6714 29.373 66.1016 30.7765C66.6128 32.4676 66.75 34.2622 66.7126 36.0223C66.6129 40.3881 65.4594 44.7309 63.7387 48.7285C61.3071 54.2965 56.7122 58.2021 52.0549 61.8949C50.1907 63.3789 48.2767 64.863 46.7056 66.6691C46.0759 67.3996 45.5085 68.1934 45.1033 69.0734C44.7292 69.8902 44.511 70.7645 44.4798 71.6618C44.4611 72.4384 44.6232 73.2034 44.9848 73.8994C45.3277 74.5551 45.8327 75.1188 46.4188 75.5675C47.0173 76.0219 47.6969 76.3612 48.4201 76.5741C49.0997 76.7696 49.8167 76.8617 50.5212 76.7926C50.9825 76.7466 51.4314 76.6143 51.8429 76.3957C52.2295 76.1944 52.5786 75.9183 52.8654 75.5847C53.1397 75.2626 53.3579 74.8887 53.4889 74.4861C53.626 74.0777 53.6697 73.6463 53.6323 73.2149C53.5949 72.8525 53.5263 72.4786 53.3517 72.1508C53.2395 71.9437 53.0836 71.7711 52.8841 71.6561C52.6285 71.5065 52.3292 71.4433 52.03 71.4087C51.5686 71.3627 51.101 71.3857 50.6396 71.4318C50.4838 71.449 50.2967 71.4663 50.172 71.564C50.1222 71.6043 50.1035 71.6561 50.0847 71.7136C49.9538 72.2083 50.0848 72.795 50.1346 73.2896C49.5984 73.3357 49.0685 73.3874 48.5386 73.4392Z" fill="#D8BF66"/>
<path fill-rule="evenodd" clip-rule="evenodd" d="M50.6831 75.602C52.2605 75.1476 53.2581 73.5485 52.9151 72.03C52.5722 70.5114 51.0136 69.6429 49.4362 70.0973C47.8588 70.5517 46.8613 72.1507 47.2042 73.6693C47.5471 75.1878 49.1058 76.0564 50.6831 75.602Z" fill="#D8BF66"/>
<path fill-rule="evenodd" clip-rule="evenodd" d="M36.1699 68.9066C39.5553 65.4784 44.3623 61.5556 47.5544 59.0189C53.627 54.193 58.5524 50.9718 61.7695 46.0999C67.4929 37.4489 68.372 28.7748 60.9964 20.6357C59.8866 19.4105 58.3778 17.6677 56.788 16.9717C62.1435 23.4772 72.2001 44.1615 40.0167 53.0426C42.1116 58.0986 40.5467 63.7701 36.1699 68.9066Z" fill="#D8BF66"/>
<path d="M34.0245 29.2867C34.0744 27.958 34.1305 26.8996 34.7851 25.4271C35.2465 24.3917 35.9946 23.5117 36.9111 22.8329C37.7778 22.1945 38.7815 21.7688 39.8352 21.5502C40.9076 21.3374 42.0111 21.3317 43.0959 21.4985C45.3965 21.8666 47.535 22.9767 49.181 24.6103C51.0202 26.4624 52.0988 28.9013 52.2796 31.4955C52.3856 33.1003 52.1923 34.7223 51.6686 36.2466C51.1761 37.6674 50.403 38.9903 49.3805 40.1005C48.3705 41.1934 47.1422 42.0619 45.7706 42.6429C44.3366 43.2468 42.7842 43.5172 41.2318 43.4712C39.2117 43.4021 37.2291 42.919 35.4273 41.9929C33.7128 41.1071 32.2227 39.8474 31.0256 38.3404C29.7974 36.7816 28.8934 34.9984 28.3073 33.106C27.6901 31.0756 27.4344 28.9588 27.503 26.8421C27.5903 24.4838 28.2325 22.1887 29.1614 20.0259C30.1652 17.7309 31.5057 15.5911 33.0955 13.647C34.6604 11.7488 36.456 10.0404 38.501 8.66571C40.3651 7.42328 42.4413 6.45694 44.6671 6.11182C44.7481 6.63525 44.8229 7.15869 44.904 7.68212C42.9089 7.98698 41.051 8.87279 39.3863 9.98293C37.4723 11.2714 35.7889 12.8762 34.3238 14.6536C32.8337 16.4827 31.5618 18.4959 30.6204 20.6587C29.7662 22.6316 29.1677 24.7368 29.0929 26.8939C29.0305 28.838 29.2612 30.7765 29.8286 32.6401C30.3585 34.3427 31.169 35.9533 32.2725 37.3568C33.3324 38.6855 34.6479 39.7956 36.1567 40.5836C37.7403 41.4004 39.4985 41.8261 41.2754 41.8836C42.5972 41.9239 43.9189 41.6938 45.1409 41.1819C46.3005 40.6929 47.3417 39.9509 48.1959 39.0306C49.0687 38.0815 49.7296 36.9541 50.1473 35.7405C50.6025 34.4117 50.7646 33.0082 50.671 31.6105C50.5152 29.396 49.5987 27.3195 48.0338 25.7377C46.6247 24.34 44.7918 23.3851 42.8278 23.0688C41.9363 22.9307 41.0198 22.9307 40.1345 23.109C39.3115 23.2758 38.5259 23.6037 37.8463 24.1041C37.1418 24.6276 36.5932 25.3235 36.2066 26.1116C35.7265 27.1182 35.5208 28.2283 35.4834 29.3385C34.9722 29.3154 34.5544 29.3039 34.0245 29.2867Z" fill="#D8BF66"/>
<path fill-rule="evenodd" clip-rule="evenodd" d="M37.741 32.7089C39.7984 32.6802 41.4444 30.8453 41.4195 28.6078C41.3945 26.3702 39.7049 24.5756 37.6475 24.6043C35.59 24.6331 33.9441 26.468 33.969 28.7055C33.994 30.9431 35.6836 32.7377 37.741 32.7089Z" fill="#D8BF66"/>
<path fill-rule="evenodd" clip-rule="evenodd" d="M30.6881 24.1963C29.117 27.8776 30.3951 33.4513 31.9475 36.0455C34.0736 39.6002 37.8144 41.1187 41.4305 40.9577C43.569 40.8657 48.2013 39.698 48.9744 35.6141C49.6789 31.881 47.3596 25.0419 41.7921 23.8052C42.6899 25.5768 43.0203 26.9343 42.9205 28.2342C42.8333 29.3789 42.4155 30.4775 41.7547 31.7717C44.342 33.7044 43.1762 36.8738 41.5676 38.0299C39.4728 39.5369 35.7382 39.1285 32.8204 35.6946C31.5797 34.2336 29.9337 29.8563 30.6881 24.1963Z" fill="#D8BF66"/>
<path fill-rule="evenodd" clip-rule="evenodd" d="M36.968 19.1001C41.326 15.4476 55.9089 16.2356 57.0124 29.0511C58.6272 47.8315 36.1762 49.6088 31.5625 43.3794C31.575 45.4904 33.5389 46.8191 36.226 47.4461C40.1601 48.3664 45.6466 47.7912 48.8637 45.9908C54.2816 42.9537 58.2967 37.4491 58.5773 29.8622C58.8329 23.0403 56.7817 18.732 53.5459 15.902C51.6693 14.2627 49.3874 13.1238 46.9185 12.284C49.3375 7.90672 59.7369 18.0993 65.4105 17.7714C71.0903 17.4436 74.1266 12.0194 81.259 9.05137C76.0967 10.9323 72.4183 7.67088 73.5405 3.66748C70.4045 6.16961 68.1039 10.9035 63.3468 11.7433C58.596 12.5831 53.4649 7.52133 47.7851 9.21818C42.1116 10.9323 35.746 14.9242 36.968 19.1001Z" fill="#D8BF66"/>
<path d="M35.6213 119.455C36.6687 112.881 35.9892 106.053 33.7696 99.7835C29.6547 88.2737 23.5074 77.6152 19.3488 66.1169C13.9434 50.9834 14.7601 35.4357 23.4263 21.7861C26.1571 17.5354 29.4677 13.5722 33.4517 10.4374C33.8257 10.144 35.6213 8.85559 35.2223 8.19986C34.736 7.49236 32.8344 8.90161 32.4666 9.18921C28.333 12.4391 24.9039 16.5288 22.0796 20.9348C13.1454 34.9985 12.2725 51.0581 17.8401 66.6576C21.9986 78.1559 28.146 88.8144 32.2546 100.324C34.3806 106.341 35.0353 112.898 34.0315 119.214C33.9567 119.685 33.4143 122.257 34.1624 122.475C35.0477 122.653 35.5465 119.921 35.6213 119.455Z" fill="#D8BF66"/>
<path d="M31.0449 86.6455C26.9674 79.4268 23.3139 71.8744 21.3063 63.7928C18.3885 51.6905 20.4709 39.2489 24.1431 27.5436C24.2803 27.1122 24.6107 25.772 23.9498 25.5534C23.2765 25.3348 22.759 26.6348 22.6218 27.0662C18.8561 39.0534 16.7737 51.7826 19.7601 64.1724C21.7989 72.392 25.5085 80.0767 29.6546 87.4221C29.8852 87.8247 30.677 89.0441 31.3005 88.6933C31.9115 88.3309 31.2693 87.0424 31.0449 86.6455Z" fill="#D8BF66"/>
<path d="M36.6557 88.6185C30.633 83.7695 26.0817 77.4021 23.3385 70.189C23.1951 69.8151 22.7088 69.7749 22.3783 69.8899C22.0417 70.0107 21.705 70.3673 21.8484 70.7527C24.6914 78.2303 29.411 84.8337 35.6582 89.8609C36.8428 90.7295 37.4849 89.2972 36.6557 88.6185Z" fill="#D8BF66"/>
<path d="M36.2445 75.1932C33.6572 74.1579 31.0448 73.1225 28.6133 71.7535C26.6245 70.6261 24.7977 69.2284 23.4635 67.3475C20.9758 63.7812 20.3836 59.1854 20.0157 54.9634C19.9721 54.5147 19.6603 53.9626 19.1366 53.9913C18.6129 54.0373 18.3885 54.647 18.4259 55.0957C18.8187 59.611 19.4982 64.4427 22.1542 68.2563C23.6193 70.3328 25.6207 71.8858 27.8215 73.134C30.3154 74.5375 32.99 75.6074 35.646 76.6658C37.161 77.2582 37.6536 75.7684 36.2445 75.1932Z" fill="#D8BF66"/>
<path d="M25.1585 50.5573C23.712 49.4932 22.6147 48.0667 21.9913 46.3814C21.2868 44.4257 21.1995 42.3147 21.3553 40.2555C21.7294 35.7171 23.1946 31.3514 24.3791 26.9798C24.4851 26.5829 24.136 26.2436 23.7806 26.1515C23.4252 26.0595 22.9576 26.1745 22.8454 26.5657C21.6297 31.035 20.1458 35.4928 19.7655 40.1289C19.5909 42.4182 19.7094 44.7478 20.4949 46.9221C21.2244 48.9008 22.5087 50.5861 24.217 51.8343C24.5724 52.0931 25.2021 52.1794 25.4328 51.8113C25.6448 51.4892 25.4889 50.7989 25.1585 50.5573Z" fill="#D8BF66"/>
<path d="M25.8875 36.2469C24.9834 35.0908 24.4784 33.6298 24.1979 32.209C23.8799 30.5582 23.855 28.8268 24.3163 27.199C24.3724 26.9747 23.7614 26.7734 23.6243 26.7331C23.4684 26.6813 22.8637 26.503 22.7826 26.7619C22.2527 28.6313 22.2651 30.6215 22.633 32.5139C22.9634 34.1877 23.5744 35.873 24.6343 37.2305C25.8625 38.7145 26.6855 37.3341 25.8875 36.2469Z" fill="#D8BF66"/>
<path d="M28.6692 15.2574C26.3811 19.6635 25.0282 22.4762 25.0157 27.8314C25.0032 32.3352 26.3125 36.6664 28.8687 40.388C29.1181 40.7446 29.6169 40.8079 29.966 40.5548C30.2965 40.3075 30.4149 39.8358 30.178 39.4849C27.8088 36.0337 26.5993 32.0131 26.6056 27.8371C26.618 22.2864 28.5383 18.2542 31.0696 13.3765C31.2753 12.9796 31.8053 12.7611 31.3813 12.531C30.4835 12.0421 29.0246 14.573 28.6692 15.2574Z" fill="#D8BF66"/>
<path d="M29.299 39.0709C27.6406 38.6568 26.138 38.9961 24.8848 40.2213C23.8187 41.2567 23.5007 42.8845 23.8187 44.2937C24.1055 45.5477 24.8786 46.6233 25.7826 47.5149C26.7428 48.4582 27.865 49.2232 29.0558 49.8444C31.3627 51.0466 33.9937 52.3063 35.702 54.331C37.4352 56.3845 37.7844 60.0485 35.7955 62.0445C34.1246 63.7125 32.8091 63.586 30.9886 62.5276C30.5584 62.2803 30.1718 61.9179 29.9973 61.4462C29.5047 60.1463 28.0146 60.664 28.5009 62.0042C28.9187 63.1488 29.991 63.9254 31.2006 64.351C34.1683 65.3921 36.8741 64.1957 38.1896 61.36C39.343 58.8751 38.651 55.3779 36.9177 53.3071C35.066 51.1156 32.2854 49.7409 29.7853 48.4294C28.7379 47.8772 27.7403 47.2043 26.8924 46.376C26.2128 45.703 25.5831 44.8862 25.3649 43.9371C25.1716 43.0628 25.3213 41.9987 25.9884 41.3487C26.855 40.5032 27.7715 40.3248 28.9062 40.6067C29.4736 40.7735 30.0658 40.6987 30.2654 40.2271C30.5085 39.6691 29.7479 39.1802 29.299 39.0709Z" fill="#D8BF66"/>
<path d="M29.0937 62.5736C29.2122 62.6772 29.3306 62.7692 29.4616 62.8612C29.9354 63.2006 30.484 63.4479 31.0701 63.5055C31.6375 63.563 32.211 63.4479 32.7223 63.1891C33.2024 62.9418 33.6138 62.5794 33.938 62.1537C34.2622 61.7281 34.4992 61.2392 34.6363 60.7215C34.7735 60.1923 34.8109 59.6401 34.7174 59.0994C34.5615 58.2194 34.2311 57.3738 33.7448 56.6203C31.3132 52.8642 26.313 52.8872 23.4077 56.3097C20.041 60.3419 21.9051 66.6403 26.4938 68.9584C31.4068 71.403 35.1289 69.7522 38.1527 74.7622C39.1128 76.3612 39.8859 78.0581 40.6652 79.7492C40.8648 80.1748 41.3947 80.9858 41.9309 80.7328C42.4608 80.4797 42.3112 79.5133 42.1117 79.0877C41.3137 77.3448 40.5094 75.5905 39.5181 73.9454C36.1825 68.4177 32.4791 70.1605 27.2108 67.5376C23.5573 65.697 21.9176 60.5777 24.6297 57.3335C26.8305 54.7394 30.5401 54.6013 32.4043 57.4831C32.7722 58.0583 33.0278 58.7083 33.1462 59.3813C33.2024 59.6919 33.1774 60.014 33.0964 60.3188C33.0091 60.6352 32.8657 60.9401 32.6662 61.1989C32.4854 61.4347 32.2609 61.6418 31.9928 61.7741C31.7559 61.8949 31.4941 61.9467 31.2322 61.9237C30.9267 61.8892 30.6399 61.7396 30.3905 61.567C30.3032 61.5038 30.2222 61.4405 30.1411 61.3715C29.8169 61.0954 29.1062 60.6064 28.6698 60.9056C28.1211 61.3197 28.7446 62.2688 29.0937 62.5736Z" fill="#D8BF66"/>
<path d="M40.6578 79.7147C38.1266 79.5939 35.8384 78.8232 33.6625 77.575C32.4967 76.9077 31.1874 75.9586 29.7596 76.183C27.9142 76.4821 27.883 78.3802 28.9429 79.6514C29.4417 80.2439 30.0776 80.6926 30.7323 81.101C32.2223 82.0213 33.7935 82.7863 35.1651 83.8907C36.412 84.9088 37.5218 86.111 38.2513 87.5605C38.7812 88.6246 39.0742 89.7692 39.2613 90.9369C39.4359 92.024 39.4109 93.3413 39.7289 94.3996C39.9596 95.1819 40.3336 95.9066 40.8636 96.5279C41.1691 96.8787 41.8674 97.1663 42.2165 96.7062C42.4846 96.3553 42.335 95.7974 42.0731 95.4867C41.6866 95.0381 41.4247 94.5031 41.2564 93.9395C40.9633 92.9501 40.9945 91.7019 40.8386 90.6838C40.6267 89.3551 40.29 88.0494 39.679 86.8415C38.8498 85.1964 37.5966 83.8159 36.1751 82.654C34.7536 81.5036 33.1264 80.7041 31.5802 79.7435C31.0689 79.4271 30.5577 79.082 30.1711 78.6218C29.5851 77.9201 29.7098 77.5232 30.6761 77.8108C31.4617 78.0466 32.1662 78.5413 32.8707 78.9439C35.2711 80.3187 37.8086 81.1642 40.5893 81.2965C41.0506 81.3138 42.2664 81.0894 42.2477 80.1921C42.229 79.6342 41.1067 79.7377 40.6578 79.7147Z" fill="#D8BF66"/>
<path d="M41.3436 95.5502C40.6079 95.4409 39.9221 95.2741 39.2924 94.8887C38.5505 94.4343 37.8335 93.8361 37.3472 93.1114C36.7923 92.2773 36.1564 91.449 35.3895 90.7818C33.463 89.1022 31.4305 90.2353 32.3657 92.8353C32.6649 93.6635 33.0702 94.4516 33.463 95.2396C34.2735 96.8674 35.2274 98.5298 35.6264 100.324C37.104 106.905 36.0878 114.578 33.862 120.905C33.7124 121.336 33.6188 122.171 34.1675 122.383C34.7286 122.596 35.0653 121.871 35.2212 121.434C37.5467 114.825 38.7313 106.847 37.1851 99.9735C36.7549 98.0581 35.7636 96.2865 34.8907 94.5379C34.5229 93.7958 34.2174 93.0251 33.8558 92.2831C33.6188 91.7999 33.8371 91.3857 34.1862 91.7654C34.872 92.5016 35.4518 93.1631 36.0067 93.9972C36.6177 94.9175 37.5342 95.6307 38.4445 96.2462C38.9557 96.5913 42.2601 97.897 42.4534 96.2462C42.5157 95.7803 41.7613 95.6077 41.3436 95.5502Z" fill="#D8BF66"/>
<path d="M153.829 8.98215C154.764 8.79808 155.394 7.8605 155.332 6.92868C155.238 5.83579 154.191 5.18582 153.143 5.36988C152.956 5.40439 152.776 5.46766 152.607 5.55394C151.865 5.94508 151.485 6.77912 151.697 7.59016C151.903 8.33792 152.57 8.92463 153.355 8.9994C153.517 9.02241 153.673 9.01091 153.829 8.98215Z" fill="#D8BF66"/>
<path d="M150.295 9.74724C151.136 9.45964 151.573 8.53357 151.348 7.69377C151.086 6.80221 150.133 6.32479 149.247 6.61239C149.004 6.69292 148.78 6.83097 148.593 7.01503C148.15 7.46944 148.013 8.13093 148.225 8.72338C148.437 9.30434 148.967 9.72999 149.578 9.81051C149.821 9.84503 150.064 9.82202 150.295 9.74724Z" fill="#D8BF66"/>
<path d="M157.178 8.59128C156.361 8.49925 155.75 7.69396 155.706 6.90594C155.669 5.90509 156.554 5.2091 157.521 5.30113C158.069 5.35865 158.587 5.66351 158.83 6.16393C159.011 6.5033 159.036 6.89444 158.917 7.26256C158.805 7.61344 158.58 7.91829 158.306 8.15988C158.001 8.44173 157.608 8.63154 157.178 8.59128Z" fill="#D8BF66"/>
<path d="M147.021 10.7599C146.261 11.0417 145.413 10.6506 145.113 9.9028C144.82 9.14354 145.194 8.28073 145.955 7.97587C146.722 7.68827 147.582 8.07941 147.875 8.84443C148.143 9.6037 147.782 10.4607 147.021 10.7599Z" fill="#D8BF66"/>
<path d="M159.666 9.2814C159.747 9.33892 159.835 9.38494 159.928 9.41945C160.452 9.58051 161.125 9.40219 161.555 9.08583C162.141 8.64868 162.241 7.87791 161.836 7.28545C161.73 7.14165 161.605 7.00935 161.462 6.90582C160.726 6.36513 159.641 6.48592 159.28 7.39474C159.049 7.96994 159.13 8.87301 159.666 9.2814Z" fill="#D8BF66"/>
<path d="M144.028 11.7716C144.708 11.4955 145.026 10.7132 144.764 10.0402C144.49 9.36149 143.717 9.02213 143.031 9.28672C142.351 9.56281 142.027 10.3451 142.295 11.0238C142.576 11.6968 143.349 12.0419 144.028 11.7716Z" fill="#D8BF66"/>
<path d="M161.081 11.0641C160.869 10.4314 161.212 9.72391 161.754 9.37304C162.521 8.89562 163.35 9.41905 163.625 10.1956C163.644 10.2416 163.656 10.2934 163.668 10.3394C163.824 11.0411 163.388 11.7486 162.671 11.8809C162.097 11.9787 161.374 11.7084 161.118 11.1562C161.1 11.1274 161.087 11.0986 161.081 11.0641Z" fill="#D8BF66"/>
<path d="M141.29 12.7257C140.673 12.9672 139.975 12.6567 139.732 12.0472C139.496 11.4377 139.788 10.7362 140.399 10.4889C141.016 10.2474 141.708 10.5579 141.957 11.1617C142.194 11.7769 141.901 12.4784 141.29 12.7257Z" fill="#D8BF66"/>
<path d="M161.585 13.4161C161.554 13.9739 162.065 14.4856 162.564 14.6524C163.306 14.8881 163.941 14.3074 163.997 13.5771C164.016 13.2436 163.923 12.8986 163.711 12.6399C163.461 12.3524 163.106 12.2086 162.726 12.2604C162.371 12.3121 162.053 12.5191 161.847 12.8181C161.71 12.9906 161.598 13.1919 161.585 13.4161Z" fill="#D8BF66"/>
<path d="M138.766 13.5829C139.321 13.3644 139.595 12.7377 139.383 12.1799C139.165 11.6337 138.548 11.3462 137.994 11.5532C137.439 11.7717 137.171 12.3927 137.37 12.9447C137.582 13.5024 138.206 13.7899 138.766 13.5829Z" fill="#D8BF66"/>
<path d="M161.017 15.3208C161.323 14.8953 161.971 14.8205 162.426 15.0045C163.056 15.2748 163.168 16.028 162.8 16.5627C162.65 16.7755 162.439 16.9422 162.189 17.017C161.834 17.1205 161.46 17.017 161.204 16.7525C160.974 16.511 160.855 16.1717 160.855 15.8383C160.868 15.6543 160.918 15.4703 161.017 15.3208Z" fill="#D8BF66"/>
<path d="M136.435 14.3307C135.924 14.5089 135.369 14.2387 135.188 13.7327C135.02 13.2324 135.276 12.6747 135.78 12.4907C136.285 12.3182 136.834 12.5884 137.021 13.0772C137.201 13.5832 136.94 14.1467 136.435 14.3307Z" fill="#D8BF66"/>
<path d="M159.652 16.6898C159.596 16.7243 159.54 16.7646 159.49 16.8105C159.204 17.0923 159.129 17.5638 159.253 17.9375C159.415 18.386 159.877 18.616 160.338 18.501C160.431 18.478 160.519 18.4435 160.6 18.3975C161.104 18.11 161.31 17.4718 160.93 17.0003C160.637 16.6381 160.076 16.4598 159.652 16.6898Z" fill="#D8BF66"/>
<path d="M134.272 14.958C134.733 14.8085 134.988 14.3082 134.833 13.8483C134.677 13.3998 134.184 13.1468 133.729 13.2848C133.567 13.3365 133.424 13.44 133.312 13.5723C133.119 13.7965 133.038 14.107 133.125 14.3945C133.218 14.682 133.461 14.889 133.748 14.9637C133.923 15.0155 134.103 15.0155 134.272 14.958Z" fill="#D8BF66"/>
<path d="M157.932 17.3456C158.375 17.2996 158.786 17.6331 158.905 18.0471C159.048 18.5703 158.655 19.0246 158.138 19.0936C158.07 19.0993 158.001 19.1051 157.939 19.0993C157.49 19.0648 157.128 18.7198 157.141 18.2598C157.16 17.8746 157.415 17.5008 157.789 17.3801C157.833 17.3628 157.883 17.3513 157.932 17.3456Z" fill="#D8BF66"/>
<path d="M132.133 15.5213C131.703 15.642 131.217 15.4408 131.093 14.9923C130.974 14.5553 131.273 14.1241 131.691 14.0033C132.115 13.8826 132.601 14.0838 132.738 14.5208C132.869 14.9635 132.563 15.3948 132.133 15.5213Z" fill="#D8BF66"/>
<path d="M156.193 17.3285C156.112 17.3113 156.031 17.3055 155.95 17.317C155.645 17.3573 155.37 17.5758 155.258 17.8575C155.127 18.1795 155.246 18.5303 155.526 18.7315C155.614 18.7948 155.713 18.8408 155.813 18.8638C156.262 18.9673 156.71 18.6913 156.767 18.2255C156.804 17.8518 156.58 17.4263 156.193 17.3285Z" fill="#D8BF66"/>
<path d="M130.143 15.9817C130.53 15.8782 130.804 15.4987 130.704 15.102C130.598 14.711 130.174 14.5097 129.794 14.6075C129.414 14.7052 129.152 15.0847 129.239 15.4757C129.339 15.8725 129.757 16.0795 130.143 15.9817Z" fill="#D8BF66"/>
<path d="M154.696 16.7643C154.995 16.9655 155.064 17.391 154.914 17.7073C154.727 18.0868 154.253 18.1788 153.91 17.9545C153.761 17.8568 153.643 17.7015 153.599 17.5233C153.549 17.3163 153.599 17.0978 153.742 16.9368C153.879 16.7815 154.073 16.6895 154.278 16.6723C154.428 16.655 154.571 16.6838 154.696 16.7643Z" fill="#D8BF66"/>
<path d="M128.342 16.3385C127.993 16.4133 127.632 16.2063 127.557 15.8498C127.488 15.4991 127.719 15.1656 128.068 15.0851C128.411 15.0103 128.772 15.2173 128.853 15.5623C128.934 15.9188 128.691 16.258 128.342 16.3385Z" fill="#D8BF66"/>
<path d="M153.562 15.815C153.362 15.562 152.97 15.5275 152.695 15.6827C152.365 15.8782 152.315 16.3037 152.54 16.597C152.77 16.8902 153.194 16.9477 153.468 16.6832C153.693 16.459 153.761 16.0737 153.562 15.815Z" fill="#D8BF66"/>
<path d="M126.715 16.5974C127.027 16.5399 127.245 16.2351 127.189 15.9246C127.127 15.6141 126.821 15.4129 126.516 15.4646C126.204 15.5221 125.999 15.8211 126.048 16.1316C126.098 16.4421 126.397 16.6549 126.715 16.5974Z" fill="#D8BF66"/>
<path d="M152.858 14.6477C152.951 14.9237 152.783 15.2342 152.527 15.3607C152.222 15.5044 151.879 15.3434 151.761 15.0329C151.655 14.7167 151.817 14.3717 152.153 14.2912C152.434 14.2337 152.758 14.3717 152.858 14.6477Z" fill="#D8BF66"/>
<path d="M125.244 16.7758C124.964 16.8103 124.708 16.6033 124.677 16.3273C124.646 16.057 124.827 15.7868 125.107 15.7465C125.388 15.712 125.637 15.9133 125.681 16.1893C125.718 16.4653 125.531 16.7355 125.244 16.7758Z" fill="#D8BF66"/>
<path d="M152.57 13.3936C152.57 13.1349 152.34 12.9221 152.09 12.8819C151.772 12.8359 151.529 13.0889 151.529 13.3936C151.529 13.5086 151.56 13.6179 151.623 13.7156C151.729 13.8651 151.903 13.9456 152.09 13.9169C152.258 13.8939 152.414 13.7846 152.502 13.6351C152.539 13.5661 152.564 13.4799 152.57 13.3936Z" fill="#D8BF66"/>
<path d="M123.923 16.8737C124.178 16.8507 124.347 16.6092 124.322 16.362C124.297 16.1205 124.085 15.9192 123.836 15.9422C123.586 15.9652 123.424 16.2067 123.443 16.4425C123.462 16.6955 123.667 16.8967 123.923 16.8737Z" fill="#D8BF66"/>
<path d="M152.757 12.2836C152.719 12.3641 152.657 12.4273 152.588 12.4733C152.464 12.5423 152.314 12.5653 152.177 12.5251C152.028 12.4848 151.915 12.3698 151.878 12.2261C151.853 12.1168 151.865 12.0076 151.909 11.9098C152.021 11.6626 152.314 11.5476 152.551 11.6913C152.732 11.8063 152.85 12.0651 152.757 12.2836Z" fill="#D8BF66"/>
<path d="M122.731 16.9138C122.501 16.9196 122.338 16.7241 122.332 16.5056C122.326 16.2928 122.469 16.0858 122.694 16.0743C122.918 16.0686 123.08 16.2641 123.099 16.4711C123.105 16.6896 122.955 16.9023 122.731 16.9138Z" fill="#D8BF66"/>
<path d="M153.331 11.3689C153.48 11.2136 153.468 10.9606 153.343 10.7996C153.187 10.6099 152.907 10.6099 152.732 10.7766C152.676 10.8284 152.639 10.8974 152.62 10.9721C152.577 11.1274 152.633 11.2884 152.757 11.3861C152.876 11.4781 153.031 11.5069 153.175 11.4609C153.231 11.4436 153.287 11.4091 153.331 11.3689Z" fill="#D8BF66"/>
<path d="M121.658 16.8967C121.864 16.8967 121.995 16.7069 121.995 16.5172C121.989 16.3332 121.858 16.1434 121.665 16.1377C121.465 16.1377 121.334 16.3274 121.334 16.5114C121.328 16.7012 121.453 16.8909 121.658 16.8967Z" fill="#D8BF66"/>
<path d="M154.148 10.7306C154.141 10.7306 154.141 10.7306 154.148 10.7306C153.967 10.8169 153.749 10.7421 153.649 10.5811C153.531 10.3914 153.612 10.1614 153.805 10.0579H153.811C154.004 9.96587 154.235 10.0464 154.316 10.2476C154.378 10.4144 154.316 10.6386 154.148 10.7306Z" fill="#D8BF66"/>
<path d="M120.693 16.8276C120.512 16.8161 120.412 16.6321 120.425 16.4711C120.437 16.3101 120.556 16.1433 120.73 16.1491C120.905 16.1606 121.004 16.3388 120.998 16.5056C120.998 16.6666 120.874 16.8391 120.693 16.8276Z" fill="#D8BF66"/>
<path d="M155.052 10.3911C155.226 10.3566 155.351 10.1841 155.338 10.0116C155.32 9.81037 155.127 9.68962 154.933 9.72412C154.74 9.75862 154.609 9.94262 154.659 10.1324C154.709 10.2934 154.877 10.4199 155.052 10.3911Z" fill="#D8BF66"/>
<path d="M65.9591 25.4907C67.125 25.6805 68.0227 26.388 68.7584 27.2853C70.2174 29.0857 71.0216 31.2714 71.9818 33.3537C72.998 35.5509 74.2013 37.7712 75.9969 39.4335C79.1329 42.3038 83.7092 41.8551 86.4774 38.7951C89.5698 35.3439 88.5909 30.6215 83.7902 29.8967C83.1293 29.7989 82.456 29.7989 81.8014 29.9427C79.6566 30.4201 78.179 32.5886 78.8524 34.7054C79.2451 35.9133 80.2926 36.7301 81.5021 37.0004C81.9572 37.0982 82.9984 36.9832 82.9672 36.316C82.9111 35.4819 81.3338 35.4474 80.7789 34.8952C80.5918 34.7054 80.4484 34.4753 80.3674 34.2222C79.9746 32.9855 80.916 31.7719 82.138 31.5015C82.5994 31.4037 83.0795 31.4095 83.5471 31.4785C87.0946 32.0134 87.5372 35.2288 85.2865 37.7425C83.1044 40.1583 79.5569 40.5437 77.0755 38.2716C75.4358 36.7531 74.3509 34.6939 73.422 32.6922C72.4057 30.4834 71.5391 28.1999 69.9929 26.2902C69.0078 25.088 67.7609 24.1792 66.2085 23.9319C64.681 23.6845 64.4004 25.2376 65.9591 25.4907Z" fill="#D8BF66"/>
<path fill-rule="evenodd" clip-rule="evenodd" d="M82.6863 36.9946C83.9644 36.9774 84.9931 35.9018 84.9744 34.596C84.9619 33.2903 83.9083 32.2435 82.6302 32.255C81.3521 32.2722 80.3233 33.3479 80.342 34.6536C80.3608 35.965 81.4082 37.0119 82.6863 36.9946Z" fill="#D8BF66"/>
<path fill-rule="evenodd" clip-rule="evenodd" d="M70.5781 24.3804C72.8787 25.2662 75.5347 26.1462 77.8477 26.3303C75.0983 29.885 76.526 35.0849 78.7081 38.2772C78.0597 38.0989 76.4512 36.0627 75.4474 34.2796C74.2566 32.1628 73.5334 29.8045 72.5171 27.6763C71.8188 26.2095 71.1081 24.6967 70.5781 24.3804Z" fill="#D8BF66"/>
<path d="M79.1953 31.1101C79.6255 30.2645 80.1492 29.7353 81.047 29.3787C87.0884 27.0089 92.5999 33.3879 98.9218 30.6959C101.303 29.6778 103.112 28.5677 105.792 28.6827C106.64 28.7172 107.862 29.9252 108.536 29.4995C108.985 29.2119 108.879 28.5792 108.548 28.2456C107.831 27.5323 106.877 27.1412 105.867 27.1009C102.9 26.9744 100.923 28.119 98.2983 29.2407C92.1946 31.8463 86.6894 25.4674 80.4672 27.912C79.2265 28.4066 78.2102 29.2924 77.7177 30.5406C77.1254 32.0304 78.4098 32.6574 79.1953 31.1101Z" fill="#D8BF66"/>
<path d="M109.177 28.7863C108.834 25.2833 102.35 21.0383 102.593 19.6463C102.611 19.3012 101.059 18.8353 101.003 19.5256C100.76 22.4016 107.063 24.9612 107.45 28.9704C107.599 30.184 109.258 29.8677 109.177 28.7863Z" fill="#D8BF66"/>
<path d="M101.146 20.1521C105.167 24.7537 116.14 19.784 121.446 20.0486C121.764 20.0601 121.895 19.5194 121.926 19.2951C121.957 19.019 121.908 18.4898 121.533 18.4668C117.02 18.2424 105.211 22.683 102.075 18.8694C101.283 18.0814 100.641 19.5712 101.146 20.1521Z" fill="#D8BF66"/>
<path d="M121.79 18.4325C120.3 17.5121 118.635 17.19 117.001 16.6436C116.278 16.402 115.343 16.1432 114.62 15.9016C113.735 15.6025 113.423 14.8374 114.595 14.6074C116.334 14.2622 118.011 14.176 119.67 14.1242C124.302 13.9861 128.043 13.434 132.227 11.484C136.491 9.49382 140.562 6.91692 143.923 3.81658C144.259 3.50022 144.515 2.89051 144.135 2.50512C143.761 2.1485 143.175 2.34407 142.844 2.64892C139.596 5.63997 135.649 8.12484 131.528 10.046C127.526 11.9097 124.072 12.088 119.645 12.203C116.833 12.2778 114.289 12.4791 113.092 13.5893C112.138 14.4751 111.771 16.2467 113.385 17.098C114.352 17.6099 115.462 17.794 116.496 18.1391C118.005 18.6453 119.576 18.9214 120.948 19.7727C122.413 20.693 123.217 19.3355 121.79 18.4325Z" fill="#D8BF66"/>
<path d="M142.645 2.3789C138.841 4.13902 134.533 4.40361 130.406 4.27131C125.1 4.093 119.851 3.23019 114.589 2.59172C110.081 2.05678 105.417 2.17183 101.078 3.63284C99.0892 4.31733 97.2126 5.28942 95.5604 6.58937C94.2698 7.61898 93.1413 8.83266 92.2061 10.1901C91.2148 11.6569 92.4992 12.5657 93.5216 11.0817C94.3633 9.85652 95.3858 8.75788 96.5517 7.83181C98.0605 6.64114 99.775 5.75533 101.589 5.13411C105.698 3.74788 110.125 3.65585 114.389 4.16778C119.695 4.812 124.994 5.68055 130.344 5.85887C134.727 5.99691 139.278 5.68631 143.312 3.8169C144.789 3.12666 144.135 1.69441 142.645 2.3789Z" fill="#D8BF66"/>
<path d="M61.9308 20.837C62.4234 21.1821 62.9969 21.3949 63.5892 21.5215C64.3125 21.6768 65.0606 21.6825 65.7963 21.5905C67.33 21.4007 68.7952 20.8197 70.1606 20.118C71.42 19.468 72.6233 18.6857 73.733 17.8057C74.1508 17.4721 74.556 17.127 74.9301 16.7473C75.0984 16.5805 75.2543 16.4022 75.3977 16.2181C75.6221 15.9018 75.566 14.7571 75.3416 14.6651C74.6745 14.389 74.263 15.1598 73.7954 15.6372C73.465 15.9708 73.1096 16.2757 72.7417 16.569C71.713 17.3858 70.597 18.1105 69.4311 18.7145C68.2341 19.33 66.9435 19.8534 65.603 20.0202C65.0482 20.0892 64.4808 20.0892 63.9259 19.9742C63.5331 19.8879 63.1528 19.7384 62.8161 19.514C61.4819 18.6455 60.9707 20.1583 61.9308 20.837Z" fill="#D8BF66"/>
<path d="M74.0386 15.9761C74.0136 16.1487 73.9949 16.327 73.9887 16.4996C73.9762 17.3279 74.2381 18.1216 74.7306 18.7889C75.2793 19.5194 76.0524 20.0371 76.8878 20.3822C77.9415 20.8136 79.0887 20.9804 80.2171 21.0092C84.5939 21.1012 88.6589 20.1233 92.3062 17.6672C95.2302 15.6885 97.8176 13.2957 101.078 11.8404C110.979 7.50917 122.064 6.85919 132.694 7.96933C133.156 8.01535 134.452 8.06711 134.552 7.38838C134.627 6.69238 133.33 6.43929 132.869 6.39327C121.958 5.25438 110.592 5.94462 100.436 10.3909C97.0819 11.8922 94.4259 14.3196 91.4146 16.3558C88.0479 18.6278 84.3071 19.5079 80.2608 19.4216C79.3256 19.3986 78.3717 19.2663 77.4988 18.9154C76.9315 18.6796 76.3828 18.3402 76.0087 17.8398C75.7282 17.4602 75.5723 17.0057 75.5785 16.5341C75.5785 16.4305 75.591 16.327 75.6097 16.2235C75.6783 15.8036 75.884 14.8545 75.4538 14.5611C74.7556 14.1125 74.1134 15.5217 74.0386 15.9761Z" fill="#D8BF66"/>
<path fill-rule="evenodd" clip-rule="evenodd" d="M78.59 7.08391C80.2734 7.0609 81.6201 5.68617 81.5951 4.01233C81.5764 2.3385 80.1986 0.99828 78.5152 1.02129C76.8319 1.0443 75.4852 2.41903 75.5101 4.09286C75.535 5.7667 76.9129 7.10692 78.59 7.08391Z" fill="#D8BF66"/>
<path fill-rule="evenodd" clip-rule="evenodd" d="M85.1433 8.90163C86.5149 8.88437 87.6122 7.76273 87.5935 6.3995C87.5748 5.03628 86.4526 3.94339 85.0872 3.96065C83.7156 3.97791 82.6183 5.09955 82.637 6.46278C82.6494 7.826 83.7717 8.91889 85.1433 8.90163Z" fill="#D8BF66"/>
<path fill-rule="evenodd" clip-rule="evenodd" d="M89.1447 12.4219C90.1921 12.4104 91.0275 11.5533 91.0151 10.5122C91.0026 9.47109 90.1484 8.63705 89.101 8.64856C88.0536 8.66006 87.2181 9.51711 87.2306 10.5582C87.2431 11.6051 88.1035 12.4334 89.1447 12.4219Z" fill="#D8BF66"/>
<path fill-rule="evenodd" clip-rule="evenodd" d="M88.371 16.3966C89.2564 16.3851 89.9671 15.6603 89.9547 14.7803C89.9422 13.9002 89.219 13.1927 88.3336 13.2042C87.4483 13.2157 86.7438 13.9405 86.75 14.8206C86.7625 15.7006 87.4857 16.4081 88.371 16.3966Z" fill="#D8BF66"/>
<path fill-rule="evenodd" clip-rule="evenodd" d="M85.0499 18.3058C85.7855 18.2943 86.3716 17.6961 86.3654 16.9655C86.3591 16.235 85.7544 15.6483 85.0187 15.6598C84.283 15.6713 83.6969 16.2695 83.7032 17.0001C83.7094 17.7306 84.3142 18.3115 85.0499 18.3058Z" fill="#D8BF66"/>
<path fill-rule="evenodd" clip-rule="evenodd" d="M81.7447 16.8499C82.4241 16.8384 82.9725 16.2864 82.9601 15.608C82.9538 14.9295 82.3929 14.3832 81.7136 14.3947C81.0342 14.4062 80.4858 14.9582 80.4983 15.6367C80.5045 16.3152 81.0654 16.8557 81.7447 16.8499Z" fill="#D8BF66"/>
<path fill-rule="evenodd" clip-rule="evenodd" d="M80.1597 14.1639C80.7082 14.1581 81.1445 13.7096 81.1382 13.1634C81.132 12.6171 80.6833 12.1801 80.1348 12.1916C79.5864 12.1974 79.1501 12.6459 79.1563 13.1921C79.1688 13.7326 79.6175 14.1696 80.1597 14.1639Z" fill="#D8BF66"/>
<path d="M70.6787 22.505C74.0642 23.0802 77.4496 23.7934 80.8911 23.8797C84.9873 23.966 88.8964 22.9479 92.232 20.532C95.8294 17.9149 99.5016 15.5738 103.66 13.9345C107.594 12.4044 111.84 11.7142 116.017 11.2253C116.472 11.1735 117.638 10.9147 117.582 10.2589C117.507 9.59171 116.292 9.59747 115.83 9.64923C111.516 10.1497 107.139 10.8744 103.074 12.4562C98.7846 14.1416 94.9939 16.5517 91.2905 19.2493C88.2355 21.4639 84.6693 22.3669 80.9285 22.2922C77.5618 22.2116 74.2512 21.5041 70.9468 20.9404C70.4917 20.8657 69.6438 20.9232 69.544 21.5156C69.4567 22.0966 70.2174 22.4302 70.6787 22.505Z" fill="#D8BF66"/>
<path d="M71.115 22.6488C76.2711 24.5757 81.9571 25.3868 87.4498 25.3177C90.1245 25.2832 92.7929 24.9841 95.4676 25.0186C97.9178 25.0589 100.387 25.3695 102.631 26.3934C103.018 26.5659 103.51 26.4279 103.722 26.0482C103.947 25.6283 103.716 25.1394 103.305 24.9496C100.854 23.8337 98.1672 23.4771 95.4926 23.4311C92.7992 23.3966 90.1183 23.6957 87.4249 23.7302C82.1317 23.7934 76.6389 23.0169 71.6699 21.1648C71.2709 21.0152 70.8345 21.2453 70.6724 21.6249C70.5227 22.0276 70.7098 22.4877 71.115 22.6488Z" fill="#D8BF66"/>
<path d="M83.3088 24.7999C86.4885 24.9897 89.5061 24.1959 92.2992 22.7061C95.1734 21.1703 97.7545 19.1456 100.566 17.5121C102.187 16.586 104.076 16.1373 105.941 16.2006C106.795 16.2351 107.649 16.3789 108.453 16.6665C108.958 16.8506 109.445 17.0979 109.875 17.4143C110.193 17.6444 110.654 17.5121 110.916 17.2532C111.234 16.9196 111.184 16.4077 110.822 16.1316C110.267 15.7232 109.65 15.4126 109.002 15.1767C108.042 14.8259 107.019 14.6533 105.997 14.613C103.833 14.5383 101.645 15.0559 99.7621 16.1373C96.9627 17.7651 94.4003 19.7784 91.5386 21.3026C89.001 22.6486 86.2827 23.3791 83.3961 23.2066C82.9659 23.1835 82.5232 23.4769 82.4671 23.9198C82.4297 24.4087 82.8599 24.7711 83.3088 24.7999Z" fill="#D8BF66"/>
<path fill-rule="evenodd" clip-rule="evenodd" d="M19.9906 152.869C20.0654 152.086 20.1839 151.482 20.3397 150.999C20.7886 149.63 22.1914 148.399 23.2264 147.45C24.4858 146.3 26.1692 145.052 26.3188 146.674C26.4061 147.634 26.6056 148.572 27.4909 149.958C27.1418 149.107 26.8861 148.325 26.83 147.26C26.7801 146.323 26.9111 145.092 26.7926 144.522C26.9111 144.08 26.7802 142.941 27.1355 140.807C26.1879 144.131 21.2001 148.946 18.1888 151.028C17.7087 151.362 17.4344 151.465 16.8047 152.282C18.0641 151.275 18.8871 150.832 19.3858 150.982C19.947 151.143 20.0966 152.017 19.9906 152.869Z" fill="#D8BF66"/>
<path fill-rule="evenodd" clip-rule="evenodd" d="M33.4067 160.277C32.3593 159.788 32.3593 158.598 32.459 157.499C32.7957 153.818 33.7122 153.283 32.1722 149.659C31.6672 148.468 30.4889 146.846 30.3143 146.029C29.6659 142.975 30.6759 139.616 29.3355 135.659C29.2108 134.52 29.1547 133.341 29.0674 132.443C28.8741 130.47 28.4502 129.78 26.9414 134.019C25.6633 137.39 22.7579 142.406 18.7864 146.438C15.1454 150.136 11.4545 153.162 8.66133 157.102C5.08263 162.141 4.65867 167.111 4.7896 172C6.49166 168.474 12.2026 165.512 14.603 163.044C17.0095 160.571 16.2676 155.244 18.3625 155.492C20.183 155.71 18.0258 159.351 17.4709 161.238C16.704 163.861 18.163 166.662 19.2166 168.928C18.7054 165.684 21.7604 162.365 23.6557 160.11C24.7094 158.856 23.7804 156.251 23.7243 155.681C23.6183 154.6 22.2965 152.57 23.5559 151.166C25.4949 149.003 25.47 153.938 26.081 155.083C27.2344 157.252 30.1585 159.529 33.4067 160.277ZM14.9708 157.798C14.4222 159.788 13.9546 160.559 13.063 161.376C11.1614 163.13 8.11268 164.672 6.52284 166.409C6.90315 164.655 7.44556 162.515 8.47428 160.743C11.3235 155.842 16.3861 151.091 19.9149 147.795C21.3239 146.478 22.814 144.845 23.9861 143.222C25.4014 141.261 26.7481 138.782 27.7581 136.959C28.2631 138.857 28.8305 140.433 28.3691 143.447C28.3566 148.733 29.9963 148.808 31.0188 152.029C31.3929 153.283 31.0251 155.325 30.7133 157.114C29.0612 155.934 27.6584 155.037 27.0848 153.127C26.6047 151.523 26.6109 149.4 25.5323 148.727C23.2691 147.318 21.38 150.907 21.2117 152.903C21.0995 154.226 22.2404 155.808 22.3277 157.303C22.5958 161.226 19.9087 160.484 18.7989 164.931C17.8263 162.457 18.7927 161.445 19.784 159.196C20.7815 156.947 20.4823 154.238 19.042 153.777C17.6081 153.306 16.0369 153.915 14.9708 157.798Z" fill="#D8BF66"/>
<path fill-rule="evenodd" clip-rule="evenodd" d="M13.1702 6.46842C15.3461 6.61797 16.9858 8.59666 16.8237 10.8917C16.6616 13.1868 14.7725 14.9239 12.5904 14.7801C10.4145 14.6305 8.77474 12.6518 8.93684 10.3625C9.09894 8.06173 10.9943 6.31887 13.1702 6.46842Z" fill="#D8BF66"/>
<path d="M19.703 9.37339C19.5658 8.48758 19.2603 7.63053 18.7865 6.86551C18.3251 6.1235 17.7141 5.48503 17.0096 4.96735C15.5258 3.87446 13.6803 3.33377 11.8411 3.32227C5.93686 3.31652 0.930428 9.91983 4.67123 15.4015C6.70373 18.3753 12.3336 20.1297 15.0332 17.0638C15.557 16.4714 15.8874 15.7351 16.0121 14.9528C15.4759 15.3842 14.8836 15.7351 14.229 15.9422C11.8473 16.7475 8.76117 15.6028 7.32096 13.5839C4.80839 9.99461 7.90702 5.38724 11.9471 4.73151C13.5556 4.46692 15.2515 4.697 16.6979 5.46202C17.4211 5.84741 18.0695 6.37084 18.5808 7.01506C19.1357 7.69955 19.5097 8.51059 19.703 9.37339Z" fill="#D8BF66"/>
<path d="M12.7642 7.94669C13.4064 7.99271 14.0298 8.16527 14.5972 8.45862C15.1521 8.75198 15.6446 9.14887 16.0499 9.63204C16.4613 10.121 16.7731 10.6904 16.9788 11.2944C17.1908 11.9328 17.2719 12.6116 17.222 13.2846C17.1472 14.3257 16.8791 15.3495 16.4115 16.2929C15.9688 17.1729 15.3578 17.961 14.6159 18.6109C13.874 19.2494 13.0198 19.7441 12.0908 20.0547C11.1245 20.3768 10.102 20.5033 9.08574 20.4401C8.04455 20.3653 7.04077 20.0604 6.11804 19.5773C5.18284 19.0768 4.35363 18.3981 3.66158 17.5986C2.9633 16.7875 2.41464 15.8557 2.05303 14.8491C1.69766 13.8368 1.53556 12.7611 1.60414 11.6855C1.71013 10.236 2.11538 8.8325 2.79496 7.54405C3.46207 6.29011 4.37233 5.17997 5.45093 4.25965C6.53576 3.34508 7.77646 2.63183 9.11691 2.17167C10.4636 1.71151 11.8913 1.50444 13.3128 1.60222C14.8528 1.71151 16.3429 2.22344 17.6709 2.99421C19.2669 3.92603 20.6199 5.20873 21.7109 6.69275C22.9828 8.42411 24.1425 12.8359 20.0525 17.0291L29.0304 8.78073L27.054 9.82185C25.8133 10.4718 25.3956 10.0634 24.8781 8.94754C24.3607 7.8259 23.7372 6.75602 23.0015 5.75517C21.7795 4.09859 20.2645 2.66634 18.4814 1.62523C16.9414 0.733667 15.2144 0.146958 13.4313 0.0261652C11.7978 -0.0831231 10.1581 0.152709 8.60567 0.681895C7.07818 1.21108 5.66291 2.02212 4.42844 3.06323C3.19398 4.11585 2.15279 5.38705 1.39216 6.81355C0.612828 8.29181 0.138993 9.91964 0.0205339 11.5877C-0.0667514 12.8819 0.126524 14.1761 0.556715 15.3956C0.986907 16.5862 1.63531 17.6906 2.45829 18.6512C3.28126 19.6003 4.26634 20.3998 5.36988 20.9923C6.48588 21.5847 7.71411 21.9529 8.97975 22.0391C10.208 22.1197 11.4362 21.9644 12.6021 21.5732C13.7243 21.1936 14.7655 20.5954 15.6633 19.8189C16.5611 19.0366 17.303 18.0817 17.8392 17.0119C18.4003 15.8845 18.7245 14.6593 18.8118 13.4054C18.8742 12.531 18.7619 11.6452 18.4876 10.8112C18.2258 10.0117 17.808 9.2639 17.2719 8.61968C16.7357 7.9812 16.0748 7.44627 15.3391 7.06088C14.5785 6.66399 13.7368 6.42816 12.8764 6.37064C12.839 6.88832 12.8016 7.41751 12.7642 7.94669Z" fill="#D8BF66"/>
<path fill-rule="evenodd" clip-rule="evenodd" d="M27.9886 26.7331C28.3003 25.1167 28.132 23.6442 28.3315 22.3558C28.5247 21.0961 29.7218 17.4838 30.9937 15.2348C29.7093 16.4427 28.8988 17.248 27.7329 19.6753C26.8102 21.5908 27.2092 19.7559 28.1008 17.1962C29.6657 12.6924 32.1097 9.83363 35.6697 8.14254C36.8543 7.57884 38.1573 7.25098 39.5726 7.24523C41.6799 7.23948 43.0952 5.61166 44.3359 5.87625C45.5703 6.14084 46.493 6.91161 45.2461 7.53858C42.9019 8.46466 40.1649 9.37923 37.8206 10.3111C35.4265 12.9627 33.0324 15.6144 30.6321 18.2718C29.6033 21.0903 29.011 23.9203 27.9886 26.7331Z" fill="#D8BF66"/>
<path d="M161.042 16.6898C161.098 16.7243 161.154 16.7646 161.204 16.8105C161.491 17.0923 161.566 17.5638 161.441 17.9375C161.279 18.386 160.818 18.616 160.357 18.501C160.263 18.478 160.176 18.4435 160.095 18.3975C159.59 18.11 159.384 17.4718 159.765 17.0003C160.058 16.6381 160.612 16.4598 161.042 16.6898Z" fill="#D8BF66"/>
</g>
</svg>
