<svg width="8" height="8" viewBox="0 0 8 8" fill="none" xmlns="http://www.w3.org/2000/svg">
<path d="M7.35355 3.64645C7.54882 3.84171 7.54882 4.15829 7.35355 4.35355L4.17157 7.53553C3.97631 7.7308 3.65973 7.7308 3.46447 7.53553C3.2692 7.34027 3.2692 7.02369 3.46447 6.82843L6.29289 4L3.46447 1.17157C3.2692 0.976311 3.2692 0.659728 3.46447 0.464466C3.65973 0.269204 3.97631 0.269204 4.17157 0.464466L7.35355 3.64645ZM1 4.5C0.723857 4.5 0.5 4.27614 0.5 4C0.5 3.72386 0.723857 3.5 1 3.5V4.5ZM7 4.5H1V3.5H7V4.5Z" fill="#7A5F46"/>
</svg>
