<svg width="40" height="40" viewBox="0 0 40 40" fill="none" xmlns="http://www.w3.org/2000/svg">
<g opacity="0.3">
<path d="M27.8789 5C24.9319 5 22.3484 6.31408 20.4078 8.80025C20.1491 9.13183 19.9184 9.46356 19.7139 9.78483C19.5094 9.46349 19.2787 9.13183 19.0199 8.80025C17.0794 6.31408 14.4959 5 11.5489 5C5.98175 5 2 9.66145 2 15.255C2 21.6509 7.242 27.6787 18.9968 34.7998C19.2172 34.9332 19.4656 35 19.7139 35C19.9622 35 20.2106 34.9333 20.431 34.7998C32.1858 27.6788 37.4278 21.6509 37.4278 15.255C37.4278 9.66443 33.4493 5 27.8789 5Z" fill="#7A5F46"/>
</g>
</svg>
