<svg width="110" height="40" viewBox="0 0 110 40" fill="none" xmlns="http://www.w3.org/2000/svg">
<path d="M110 1.31134e-06C105.481 3.55049 102.373 8.59246 101.23 14.2245L98.4383 27.9827C97.0196 34.9748 90.8723 40 83.7378 40L26.2622 40C19.1277 40 12.9804 34.9747 11.5617 27.9827L8.77018 14.2245C7.62746 8.59245 4.5188 3.55048 0 -4.80825e-06L110 1.31134e-06Z" fill="#DE4A2E"/>
<path d="M35.7902 28L39.3762 22.874L42.9842 28L47.6262 28L41.7302 19.706L46.7462 12.6L42.1922 12.6L39.4422 16.56L36.7142 12.6L32.0942 12.6L37.1102 19.728L31.2142 28L35.7902 28ZM52.3194 28L58.7874 19.222L58.7874 28L62.7474 28L62.7474 12.6L59.3154 12.6L52.9574 21.29L52.9574 12.6L48.9974 12.6L48.9974 28L52.3194 28ZM73.4128 28L73.4128 16.076L78.0548 16.076L78.0548 12.6L64.8328 12.6L64.8328 16.076L69.4528 16.076L69.4528 28L73.4128 28Z" fill="white"/>
</svg>
