<svg width="18" height="18" viewBox="0 0 18 18" fill="none" xmlns="http://www.w3.org/2000/svg">
<g clip-path="url(#clip0)">
<path d="M13.0325 0H4.96721C2.22829 0 0 2.22503 0 4.9598V13.0128C0 15.7477 2.22829 17.9726 4.96721 17.9726H13.0325C15.7716 17.9726 17.9999 15.7476 17.9999 13.0128V4.9598C18 2.22503 15.7716 0 13.0325 0ZM16.403 13.0128C16.403 14.8684 14.891 16.378 13.0326 16.378H4.96721C3.1089 16.3781 1.59704 14.8684 1.59704 13.0128V4.9598C1.59704 3.1043 3.1089 1.59462 4.96721 1.59462H13.0325C14.8909 1.59462 16.4029 3.1043 16.4029 4.9598V13.0128H16.403Z" fill="#7A5F46"/>
<path d="M8.99993 4.35547C6.44244 4.35547 4.36182 6.43294 4.36182 8.98656C4.36182 11.5401 6.44244 13.6174 8.99993 13.6174C11.5574 13.6174 13.638 11.5401 13.638 8.98656C13.638 6.43294 11.5574 4.35547 8.99993 4.35547ZM8.99993 12.0227C7.32315 12.0227 5.95885 10.6607 5.95885 8.98646C5.95885 7.31211 7.32304 5.94998 8.99993 5.94998C10.6768 5.94998 12.041 7.31211 12.041 8.98646C12.041 10.6607 10.6767 12.0227 8.99993 12.0227Z" fill="#7A5F46"/>
<path d="M13.8326 3.00342C13.5249 3.00342 13.2226 3.1278 13.0053 3.34573C12.7869 3.5626 12.6614 3.86451 12.6614 4.17281C12.6614 4.48014 12.787 4.78195 13.0053 4.99988C13.2225 5.21675 13.5249 5.34219 13.8326 5.34219C14.1413 5.34219 14.4426 5.21675 14.6609 4.99988C14.8791 4.78195 15.0037 4.48004 15.0037 4.17281C15.0037 3.86451 14.8791 3.5626 14.6609 3.34573C14.4437 3.1278 14.1413 3.00342 13.8326 3.00342Z" fill="#7A5F46"/>
</g>
<defs>
<clipPath id="clip0">
<rect width="18" height="17.9727" fill="white"/>
</clipPath>
</defs>
</svg>
