<svg width="320" height="172" viewBox="0 0 320 172" fill="none" xmlns="http://www.w3.org/2000/svg">
<g opacity="0.4">
<path d="M305.428 41.1098C304.787 41.1213 304.152 41.2593 303.574 41.5239C303.001 41.7828 302.491 42.1567 302.056 42.6168C301.62 43.0827 301.272 43.6349 301.035 44.2274C300.793 44.8543 300.668 45.5273 300.675 46.2003C300.687 47.2472 300.899 48.2826 301.309 49.2431C301.701 50.1462 302.261 50.963 302.964 51.6532C303.667 52.332 304.494 52.8727 305.396 53.235C306.342 53.6089 307.35 53.793 308.37 53.7815C309.409 53.7642 310.429 53.5111 311.375 53.0797C312.333 52.6311 313.198 51.9984 313.938 51.2391C314.679 50.4626 315.282 49.5653 315.699 48.5759C316.116 47.5808 316.333 46.5167 316.327 45.4411C316.309 43.9916 315.979 42.565 315.382 41.2421C314.791 39.9536 313.951 38.7975 312.924 37.8196C311.898 36.8476 310.697 36.071 309.391 35.5303C308.078 34.9954 306.666 34.7135 305.241 34.7308C303.698 34.7538 302.186 35.1852 300.818 35.8812C299.175 36.721 297.751 37.9347 296.581 39.3554C295.131 41.1213 294.074 43.1805 293.346 45.3375C292.413 48.133 292.008 51.0838 291.959 54.0231C291.865 60.149 292.475 66.7638 295.43 72.2454C296.506 74.2184 297.95 76.036 299.897 77.2037C301.794 78.3253 303.972 78.6589 306.143 78.3771C306.211 78.9005 306.28 79.4297 306.348 79.9532C303.823 80.281 301.284 79.8669 299.082 78.5669C296.892 77.2497 295.243 75.2307 294.03 73.0047C290.945 67.2757 290.266 60.4021 290.366 53.9943C290.422 50.894 290.845 47.7821 291.834 44.8313C292.624 42.4903 293.769 40.2585 295.349 38.3431C296.662 36.7555 298.254 35.4038 300.09 34.4662C301.676 33.6609 303.431 33.1663 305.216 33.1433C306.852 33.126 308.47 33.4481 309.988 34.0578C311.481 34.6675 312.843 35.5591 314.013 36.6635C315.183 37.7794 316.147 39.1023 316.825 40.5748C317.515 42.0934 317.895 43.7442 317.914 45.4123C317.926 46.7065 317.659 47.9892 317.161 49.1856C316.669 50.3533 315.96 51.4174 315.083 52.332C314.212 53.235 313.185 53.9828 312.047 54.512C310.896 55.0412 309.658 55.346 308.389 55.3633C307.163 55.3748 305.944 55.1562 304.805 54.7018C303.711 54.2589 302.703 53.6089 301.857 52.7864C301.004 51.9523 300.32 50.963 299.847 49.8643C299.356 48.7082 299.101 47.4658 299.082 46.2118C299.069 45.3318 299.231 44.4575 299.549 43.6407C299.86 42.8584 300.314 42.1336 300.886 41.5239C301.458 40.9142 302.143 40.4195 302.902 40.0744C303.686 39.7178 304.538 39.528 305.396 39.5165C305.415 40.0514 305.421 40.5806 305.428 41.1098Z" fill="#D8BF66"/>
<path fill-rule="evenodd" clip-rule="evenodd" d="M305.117 39.6085C302.939 39.6372 301.198 41.5239 301.222 43.8247C301.247 46.1255 303.039 47.9662 305.216 47.9374C307.394 47.9087 309.136 46.022 309.111 43.7212C309.08 41.4204 307.294 39.5797 305.117 39.6085Z" fill="#D8BF66"/>
<path d="M298.435 42.1507C298.622 41.2707 298.977 40.4309 299.493 39.6946C299.997 38.9814 300.638 38.3774 301.372 37.8942C305.409 35.2541 311.245 36.5425 313.615 40.8278C315.905 45.0728 313.814 50.1921 309.192 51.6243C306.199 52.5159 302.143 51.4517 301.789 47.92C303.587 49.5478 305.969 49.7031 308.184 48.7598C312.234 47.0227 312.713 42.0817 309.36 39.3438C307.263 37.6124 304.115 37.273 301.658 38.4062C300.918 38.7513 300.24 39.2402 299.692 39.8499C299.101 40.5114 298.678 41.2994 298.435 42.1507Z" fill="#D8BF66"/>
<path fill-rule="evenodd" clip-rule="evenodd" d="M296.444 44.4229C295.405 44.4344 294.571 45.2914 294.584 46.3268C294.596 47.3622 295.449 48.1962 296.488 48.1847C297.527 48.1732 298.361 47.3161 298.348 46.2808C298.336 45.2397 297.483 44.4114 296.444 44.4229Z" fill="#D8BF66"/>
<path fill-rule="evenodd" clip-rule="evenodd" d="M295.965 50.566C294.689 50.5832 293.663 51.6301 293.681 52.907C293.694 54.184 294.745 55.2021 296.021 55.1848C297.297 55.1676 298.323 54.1207 298.305 52.8438C298.292 51.5726 297.241 50.5487 295.965 50.566Z" fill="#D8BF66"/>
<path fill-rule="evenodd" clip-rule="evenodd" d="M296.631 57.1753C295.144 57.1925 293.956 58.412 293.975 59.896C293.993 61.38 295.213 62.5649 296.693 62.5477C298.18 62.5304 299.369 61.311 299.35 59.827C299.331 58.3429 298.118 57.158 296.631 57.1753Z" fill="#D8BF66"/>
<path fill-rule="evenodd" clip-rule="evenodd" d="M298.516 63.8933C296.768 63.9163 295.362 65.3543 295.387 67.1029C295.406 68.8515 296.843 70.2493 298.591 70.2263C300.339 70.2033 301.745 68.7653 301.72 67.0166C301.701 65.268 300.264 63.8703 298.516 63.8933Z" fill="#D8BF66"/>
<path fill-rule="evenodd" clip-rule="evenodd" d="M303.325 69.8928C301.422 69.9158 299.897 71.4803 299.916 73.3842C299.941 75.2882 301.502 76.8067 303.406 76.7837C305.31 76.7607 306.834 75.1961 306.815 73.2922C306.79 71.3883 305.229 69.864 303.325 69.8928Z" fill="#D8BF66"/>
<path fill-rule="evenodd" clip-rule="evenodd" d="M306.616 78.4575C304.725 86.0386 308.626 89.6681 311.102 100.741C312.688 107.839 313.715 116.415 312.433 126.176C310.231 137.726 306.025 148.097 298.479 156.622C294.043 162.282 289.856 164.789 285.663 165.531C282.403 166.107 282.484 163.904 275.466 165.353C305.807 157.599 317.528 124.025 306.175 96.7028C303.655 90.646 299.978 84.7732 300.289 77.911C302.224 78.4459 304.688 78.5552 306.616 78.4575Z" fill="#D8BF66"/>
<path d="M294.771 34.2478C289.906 43.7962 289.203 54.5007 291.063 64.9176C292.973 75.4323 297.123 85.389 301.646 95.0121C308.116 108.88 310.822 124.767 307.817 139.889C307.301 139.786 300.308 150.404 299.792 150.301C303.02 150.151 309.36 132.003 306.94 118.912C305.472 110.957 303.624 102.99 300.202 95.6851C295.63 85.9297 291.43 75.8464 289.495 65.1937C287.573 54.4317 288.326 43.3763 293.353 33.5173C293.832 33.7647 294.298 34.0062 294.771 34.2478Z" fill="#D8BF66"/>
<path d="M271.566 98.5608C271.634 99.2683 271.752 100.005 271.566 100.701C271.454 101.103 271.23 101.46 270.894 101.713C270.527 101.983 270.079 102.104 269.637 102.15C269.065 102.208 268.492 102.231 267.92 102.173C267.404 102.116 266.894 101.983 266.439 101.719C265.985 101.454 265.618 101.063 265.369 100.597C265.102 100.085 264.971 99.5156 264.915 98.9404C264.853 98.2904 264.928 97.6347 265.127 97.0135C265.326 96.4153 265.643 95.8574 266.054 95.3799C266.471 94.8968 266.974 94.4941 267.541 94.195C268.132 93.8844 268.779 93.6946 269.438 93.6256C270.346 93.5335 271.267 93.6428 272.144 93.8959C273.053 94.1663 273.905 94.5919 274.658 95.1671C275.429 95.7596 276.076 96.5016 276.53 97.3644C277.016 98.2962 277.24 99.3316 277.208 100.378C277.171 101.489 276.904 102.576 276.437 103.582C275.964 104.595 275.323 105.515 274.595 106.361C272.966 108.241 270.981 109.789 269.046 111.342C264.617 114.868 260.175 118.584 257.86 123.898C256.224 127.706 255.117 131.853 255.017 136.012C254.986 137.605 255.098 139.228 255.558 140.763C255.888 141.85 256.417 142.938 257.325 143.662C256.996 144.076 256.666 144.491 256.336 144.905C255.179 143.979 254.47 142.627 254.04 141.223C253.53 139.532 253.393 137.738 253.431 135.978C253.53 131.612 254.681 127.269 256.398 123.271C258.825 117.704 263.41 113.798 268.057 110.105C269.917 108.621 271.827 107.137 273.395 105.331C274.023 104.6 274.589 103.807 274.994 102.927C275.367 102.11 275.585 101.235 275.616 100.338C275.634 99.5616 275.473 98.7966 275.112 98.1006C274.77 97.4449 274.266 96.8812 273.681 96.4325C273.084 95.9781 272.406 95.6388 271.684 95.4259C271.006 95.2304 270.29 95.1383 269.587 95.2074C269.127 95.2534 268.679 95.3857 268.268 95.6043C267.883 95.8056 267.534 96.0817 267.248 96.4153C266.974 96.7374 266.757 97.1113 266.626 97.5139C266.489 97.9223 266.446 98.3537 266.483 98.7851C266.52 99.1475 266.589 99.5214 266.763 99.8492C266.875 100.056 267.03 100.229 267.23 100.344C267.485 100.493 267.783 100.557 268.082 100.591C268.542 100.637 269.009 100.614 269.469 100.568C269.625 100.551 269.811 100.534 269.936 100.436C269.986 100.396 270.004 100.344 270.023 100.286C270.154 99.7917 270.023 99.205 269.973 98.7103C270.508 98.6643 271.037 98.6126 271.566 98.5608Z" fill="#D8BF66"/>
<path fill-rule="evenodd" clip-rule="evenodd" d="M269.426 96.398C267.852 96.8524 266.856 98.4515 267.198 99.97C267.541 101.489 269.096 102.357 270.67 101.903C272.244 101.448 273.239 99.8493 272.897 98.3307C272.555 96.8122 271 95.9436 269.426 96.398Z" fill="#D8BF66"/>
<path fill-rule="evenodd" clip-rule="evenodd" d="M283.909 103.093C280.531 106.522 275.734 110.444 272.549 112.981C266.489 117.807 261.574 121.028 258.364 125.9C252.653 134.551 251.776 143.225 259.136 151.364C260.243 152.589 261.749 154.332 263.335 155.028C257.991 148.523 247.956 127.839 280.07 118.957C277.98 113.901 279.541 108.23 283.909 103.093Z" fill="#D8BF66"/>
<path d="M286.049 142.713C285.999 144.042 285.943 145.1 285.29 146.573C284.829 147.608 284.083 148.488 283.168 149.167C282.304 149.806 281.302 150.231 280.251 150.45C279.181 150.663 278.079 150.668 276.997 150.502C274.701 150.133 272.567 149.023 270.925 147.39C269.09 145.538 268.013 143.099 267.833 140.505C267.727 138.9 267.92 137.278 268.443 135.753C268.934 134.333 269.706 133.01 270.726 131.9C271.734 130.807 272.959 129.938 274.328 129.357C275.759 128.753 277.308 128.483 278.857 128.529C280.873 128.598 282.851 129.081 284.649 130.007C286.36 130.893 287.847 132.153 289.041 133.66C290.267 135.218 291.169 137.002 291.754 138.894C292.37 140.924 292.625 143.041 292.556 145.158C292.469 147.516 291.828 149.811 290.901 151.974C289.9 154.269 288.562 156.409 286.976 158.353C285.414 160.251 283.622 161.96 281.582 163.334C279.722 164.577 277.65 165.543 275.429 165.888C275.348 165.365 275.274 164.841 275.193 164.318C277.183 164.013 279.037 163.127 280.698 162.017C282.608 160.729 284.288 159.124 285.75 157.346C287.237 155.517 288.506 153.504 289.446 151.341C290.298 149.368 290.895 147.263 290.97 145.106C291.032 143.162 290.802 141.224 290.236 139.36C289.707 137.657 288.898 136.047 287.797 134.643C286.739 133.315 285.427 132.204 283.921 131.416C282.341 130.6 280.587 130.174 278.813 130.116C277.495 130.076 276.176 130.306 274.956 130.818C273.799 131.307 272.76 132.049 271.908 132.969C271.037 133.918 270.377 135.046 269.961 136.26C269.506 137.588 269.345 138.992 269.438 140.389C269.594 142.604 270.508 144.68 272.07 146.262C273.476 147.66 275.305 148.615 277.264 148.931C278.154 149.069 279.069 149.069 279.952 148.891C280.773 148.724 281.557 148.396 282.235 147.896C282.938 147.372 283.486 146.676 283.871 145.888C284.35 144.882 284.556 143.772 284.593 142.662C285.103 142.685 285.52 142.696 286.049 142.713Z" fill="#D8BF66"/>
<path fill-rule="evenodd" clip-rule="evenodd" d="M282.341 139.291C280.288 139.32 278.645 141.155 278.67 143.392C278.695 145.63 280.381 147.424 282.434 147.396C284.487 147.367 286.13 145.532 286.105 143.294C286.08 141.057 284.394 139.262 282.341 139.291Z" fill="#D8BF66"/>
<path fill-rule="evenodd" clip-rule="evenodd" d="M289.377 147.804C290.945 144.122 289.67 138.549 288.121 135.955C285.999 132.4 282.266 130.881 278.658 131.042C276.524 131.134 271.902 132.302 271.13 136.386C270.427 140.119 272.742 146.958 278.297 148.195C277.401 146.423 277.072 145.066 277.171 143.766C277.258 142.621 277.675 141.522 278.334 140.228C275.753 138.296 276.916 135.126 278.521 133.97C280.611 132.463 284.338 132.871 287.25 136.305C288.488 137.766 290.13 142.144 289.377 147.804Z" fill="#D8BF66"/>
<path fill-rule="evenodd" clip-rule="evenodd" d="M283.112 152.9C278.764 156.552 264.212 155.764 263.111 142.949C261.5 124.169 283.903 122.391 288.506 128.621C288.494 126.51 286.534 125.181 283.853 124.554C279.927 123.634 274.452 124.209 271.242 126.009C265.836 129.046 261.829 134.551 261.55 142.138C261.294 148.96 263.341 153.268 266.57 156.098C268.443 157.737 270.72 158.876 273.183 159.716C270.769 164.093 260.392 153.901 254.731 154.229C249.063 154.556 246.034 159.981 238.917 162.949C244.068 161.068 247.738 164.329 246.619 168.333C249.748 165.83 252.043 161.096 256.79 160.257C261.531 159.417 266.651 164.479 272.319 162.782C277.98 161.068 284.332 157.076 283.112 152.9Z" fill="#D8BF66"/>
<path d="M284.456 52.5446C283.411 59.1192 284.089 65.9468 286.304 72.2165C290.41 83.7263 296.544 94.3848 300.694 105.883C306.087 121.017 305.272 136.564 296.625 150.214C293.9 154.465 290.597 158.428 286.621 161.563C286.248 161.856 284.456 163.144 284.854 163.8C285.34 164.508 287.237 163.098 287.604 162.811C291.729 159.561 295.151 155.471 297.969 151.065C306.884 137.001 307.755 120.942 302.199 105.342C298.05 93.8441 291.915 83.1856 287.816 71.6758C285.694 65.6592 285.041 59.1019 286.043 52.7862C286.117 52.3146 286.659 49.7434 285.912 49.5248C285.029 49.3465 284.531 52.0787 284.456 52.5446Z" fill="#D8BF66"/>
<path d="M289.023 85.3544C293.091 92.5732 296.737 100.126 298.74 108.207C301.652 120.309 299.574 132.751 295.909 144.456C295.773 144.888 295.443 146.228 296.102 146.447C296.774 146.665 297.291 145.365 297.427 144.934C301.185 132.947 303.263 120.217 300.283 107.828C298.249 99.608 294.547 91.9233 290.41 84.5779C290.18 84.1753 289.39 82.9559 288.767 83.3067C288.158 83.6691 288.799 84.9576 289.023 85.3544Z" fill="#D8BF66"/>
<path d="M283.423 83.3813C289.433 88.2302 293.975 94.5977 296.712 101.811C296.855 102.185 297.34 102.225 297.67 102.11C298.006 101.989 298.342 101.632 298.199 101.247C295.362 93.7694 290.653 87.1661 284.419 82.1388C283.237 81.2703 282.596 82.7025 283.423 83.3813Z" fill="#D8BF66"/>
<path d="M283.834 96.8065C286.416 97.8419 289.023 98.8772 291.449 100.246C293.433 101.374 295.256 102.771 296.588 104.652C299.07 108.219 299.661 112.814 300.028 117.036C300.072 117.485 300.383 118.037 300.905 118.008C301.428 117.962 301.652 117.353 301.614 116.904C301.222 112.389 300.544 107.557 297.894 103.743C296.432 101.667 294.435 100.114 292.239 98.8657C289.75 97.4622 287.082 96.3924 284.431 95.334C282.92 94.7415 282.428 96.2313 283.834 96.8065Z" fill="#D8BF66"/>
<path d="M294.895 121.442C296.339 122.507 297.434 123.933 298.056 125.618C298.759 127.574 298.846 129.685 298.69 131.744C298.317 136.283 296.855 140.648 295.673 145.02C295.567 145.417 295.916 145.756 296.27 145.848C296.625 145.94 297.091 145.825 297.203 145.434C298.417 140.965 299.897 136.507 300.277 131.871C300.451 129.582 300.333 127.252 299.549 125.078C298.821 123.099 297.539 121.414 295.835 120.165C295.48 119.907 294.852 119.82 294.622 120.188C294.41 120.511 294.566 121.201 294.895 121.442Z" fill="#D8BF66"/>
<path d="M294.167 135.753C295.069 136.909 295.573 138.37 295.853 139.791C296.171 141.442 296.195 143.173 295.735 144.801C295.679 145.026 296.289 145.227 296.426 145.267C296.581 145.319 297.185 145.497 297.266 145.238C297.795 143.369 297.782 141.379 297.415 139.486C297.085 137.813 296.475 136.127 295.418 134.77C294.192 133.286 293.37 134.666 294.167 135.753Z" fill="#D8BF66"/>
<path d="M291.393 156.743C293.676 152.337 295.026 149.524 295.039 144.169C295.051 139.665 293.745 135.334 291.194 131.612C290.945 131.256 290.447 131.192 290.099 131.445C289.769 131.693 289.651 132.164 289.887 132.515C292.251 135.967 293.458 139.987 293.452 144.163C293.44 149.714 291.524 153.746 288.998 158.624C288.792 159.021 288.264 159.239 288.687 159.469C289.583 159.958 291.038 157.427 291.393 156.743Z" fill="#D8BF66"/>
<path d="M290.765 132.929C292.419 133.343 293.919 133.004 295.169 131.779C296.233 130.743 296.55 129.116 296.233 127.706C295.947 126.452 295.175 125.377 294.273 124.485C293.315 123.542 292.195 122.777 291.007 122.156C288.705 120.953 286.08 119.694 284.375 117.669C282.646 115.616 282.297 111.951 284.282 109.956C285.949 108.287 287.262 108.414 289.079 109.472C289.508 109.72 289.894 110.082 290.068 110.554C290.559 111.854 292.046 111.336 291.561 109.996C291.144 108.851 290.074 108.075 288.867 107.649C285.906 106.608 283.206 107.804 281.893 110.64C280.742 113.125 281.433 116.622 283.162 118.693C285.01 120.884 287.785 122.259 290.279 123.571C291.324 124.123 292.32 124.796 293.166 125.624C293.844 126.297 294.472 127.114 294.69 128.063C294.883 128.937 294.734 130.001 294.068 130.651C293.203 131.497 292.289 131.675 291.157 131.393C290.59 131.227 289.999 131.301 289.8 131.773C289.558 132.331 290.317 132.82 290.765 132.929Z" fill="#D8BF66"/>
<path d="M290.97 109.426C290.852 109.323 290.733 109.231 290.603 109.139C290.13 108.799 289.582 108.552 288.998 108.495C288.432 108.437 287.859 108.552 287.349 108.811C286.87 109.058 286.459 109.421 286.136 109.846C285.812 110.272 285.576 110.761 285.439 111.279C285.302 111.808 285.265 112.36 285.358 112.901C285.514 113.781 285.843 114.626 286.329 115.38C288.755 119.136 293.744 119.113 296.644 115.69C300.003 111.658 298.143 105.36 293.564 103.042C288.662 100.597 284.948 102.248 281.93 97.2378C280.972 95.6388 280.201 93.9419 279.423 92.2508C279.224 91.8252 278.695 91.0142 278.16 91.2672C277.631 91.5203 277.781 92.4867 277.98 92.9123C278.776 94.6552 279.579 96.4095 280.568 98.0546C283.896 103.582 287.592 101.839 292.849 104.462C296.494 106.303 298.13 111.422 295.424 114.666C293.228 117.261 289.526 117.399 287.666 114.517C287.299 113.942 287.044 113.292 286.926 112.619C286.87 112.308 286.895 111.986 286.976 111.681C287.063 111.365 287.206 111.06 287.405 110.801C287.585 110.565 287.809 110.358 288.077 110.226C288.313 110.105 288.575 110.053 288.836 110.076C289.141 110.111 289.427 110.26 289.676 110.433C289.763 110.496 289.844 110.56 289.925 110.629C290.248 110.905 290.957 111.394 291.393 111.094C291.94 110.68 291.318 109.731 290.97 109.426Z" fill="#D8BF66"/>
<path d="M279.429 92.2853C281.955 92.4061 284.238 93.1768 286.41 94.425C287.573 95.0923 288.88 96.0413 290.304 95.817C292.146 95.5179 292.177 93.6198 291.119 92.3486C290.621 91.7561 289.987 91.3074 289.334 90.899C287.847 89.9787 286.279 89.2137 284.91 88.1093C283.666 87.0912 282.559 85.889 281.831 84.4395C281.302 83.3754 281.01 82.2308 280.823 81.0631C280.649 79.976 280.674 78.6587 280.356 77.6004C280.126 76.8181 279.753 76.0934 279.224 75.4721C278.919 75.1213 278.223 74.8337 277.874 75.2938C277.607 75.6447 277.756 76.2026 278.017 76.5133C278.403 76.9619 278.664 77.4968 278.832 78.0605C279.125 79.0499 279.093 80.2981 279.249 81.3162C279.461 82.6449 279.796 83.9506 280.406 85.1585C281.234 86.8036 282.484 88.1841 283.903 89.346C285.321 90.4964 286.945 91.2959 288.488 92.2565C288.998 92.5729 289.508 92.918 289.894 93.3782C290.478 94.0799 290.354 94.4768 289.39 94.1892C288.606 93.9534 287.903 93.4587 287.2 93.0561C284.805 91.6813 282.273 90.8358 279.498 90.7035C279.037 90.6862 277.824 90.9105 277.843 91.8079C277.862 92.3658 278.981 92.2623 279.429 92.2853Z" fill="#D8BF66"/>
<path d="M278.745 76.45C279.479 76.5593 280.164 76.7261 280.792 77.1115C281.532 77.5659 282.248 78.1641 282.733 78.8889C283.287 79.7229 283.921 80.5512 284.686 81.2185C286.609 82.898 288.637 81.7649 287.704 79.165C287.405 78.3367 287.001 77.5487 286.609 76.7606C285.8 75.1328 284.848 73.4705 284.45 71.6759C282.976 65.0956 283.99 57.4224 286.211 51.0951C286.36 50.6637 286.453 49.8297 285.906 49.6169C285.346 49.404 285.01 50.1288 284.854 50.566C282.534 57.175 281.352 65.1531 282.895 72.0267C283.324 73.9421 284.313 75.7138 285.184 77.4624C285.551 78.2044 285.856 78.9752 286.217 79.7172C286.453 80.2003 286.235 80.6145 285.887 80.2349C285.203 79.4986 284.624 78.8371 284.07 78.0031C283.461 77.0828 282.546 76.3695 281.638 75.754C281.128 75.4089 277.831 74.1032 277.638 75.754C277.575 76.22 278.328 76.3925 278.745 76.45Z" fill="#D8BF66"/>
<path d="M166.501 163.018C165.567 163.202 164.939 164.139 165.001 165.071C165.095 166.164 166.14 166.814 167.185 166.63C167.372 166.596 167.552 166.532 167.72 166.446C168.461 166.055 168.84 165.221 168.629 164.41C168.423 163.662 167.758 163.075 166.974 163.001C166.812 162.978 166.656 162.989 166.501 163.018Z" fill="#D8BF66"/>
<path d="M170.028 162.253C169.188 162.541 168.753 163.467 168.977 164.306C169.238 165.198 170.19 165.675 171.074 165.388C171.316 165.307 171.54 165.169 171.727 164.985C172.169 164.531 172.306 163.869 172.094 163.277C171.883 162.696 171.354 162.27 170.744 162.19C170.501 162.155 170.259 162.178 170.028 162.253Z" fill="#D8BF66"/>
<path d="M163.16 163.409C163.975 163.501 164.585 164.306 164.629 165.094C164.666 166.095 163.782 166.791 162.818 166.699C162.27 166.642 161.754 166.337 161.511 165.836C161.331 165.497 161.306 165.106 161.424 164.738C161.536 164.387 161.76 164.082 162.034 163.84C162.339 163.559 162.731 163.369 163.16 163.409Z" fill="#D8BF66"/>
<path d="M173.294 161.24C174.054 160.959 174.9 161.35 175.198 162.097C175.491 162.857 175.118 163.72 174.358 164.024C173.593 164.312 172.734 163.921 172.442 163.156C172.174 162.397 172.535 161.539 173.294 161.24Z" fill="#D8BF66"/>
<path d="M160.678 162.719C160.597 162.661 160.51 162.615 160.417 162.581C159.894 162.42 159.222 162.598 158.793 162.914C158.208 163.352 158.108 164.122 158.513 164.715C158.618 164.859 158.743 164.991 158.886 165.094C159.62 165.635 160.703 165.514 161.064 164.606C161.294 164.03 161.213 163.127 160.678 162.719Z" fill="#D8BF66"/>
<path d="M176.281 160.228C175.602 160.505 175.285 161.287 175.546 161.96C175.82 162.639 176.592 162.978 177.276 162.713C177.954 162.437 178.278 161.655 178.01 160.976C177.73 160.303 176.959 159.958 176.281 160.228Z" fill="#D8BF66"/>
<path d="M159.266 160.936C159.478 161.569 159.135 162.276 158.594 162.627C157.829 163.104 157.001 162.581 156.727 161.804C156.709 161.758 156.696 161.707 156.684 161.661C156.528 160.959 156.964 160.251 157.679 160.119C158.252 160.021 158.973 160.292 159.229 160.844C159.247 160.873 159.26 160.901 159.266 160.936Z" fill="#D8BF66"/>
<path d="M179.013 159.274C179.628 159.033 180.325 159.343 180.568 159.953C180.804 160.562 180.512 161.264 179.902 161.511C179.286 161.753 178.596 161.442 178.347 160.838C178.111 160.223 178.403 159.522 179.013 159.274Z" fill="#D8BF66"/>
<path d="M158.762 158.584C158.793 158.026 158.283 157.514 157.785 157.347C157.045 157.112 156.411 157.692 156.355 158.423C156.336 158.756 156.429 159.101 156.641 159.36C156.89 159.647 157.244 159.791 157.624 159.739C157.978 159.688 158.295 159.481 158.501 159.182C158.638 159.009 158.75 158.808 158.762 158.584Z" fill="#D8BF66"/>
<path d="M181.532 158.417C180.978 158.635 180.705 159.262 180.916 159.82C181.134 160.366 181.75 160.654 182.303 160.447C182.857 160.228 183.124 159.607 182.925 159.055C182.714 158.497 182.092 158.21 181.532 158.417Z" fill="#D8BF66"/>
<path d="M159.328 156.679C159.023 157.105 158.376 157.179 157.922 156.995C157.294 156.725 157.182 155.972 157.549 155.437C157.698 155.225 157.91 155.058 158.159 154.983C158.513 154.88 158.887 154.983 159.142 155.248C159.372 155.489 159.49 155.828 159.49 156.162C159.477 156.346 159.428 156.53 159.328 156.679Z" fill="#D8BF66"/>
<path d="M183.859 157.669C184.369 157.491 184.922 157.761 185.103 158.267C185.271 158.768 185.016 159.325 184.512 159.509C184.008 159.682 183.461 159.412 183.274 158.923C183.094 158.417 183.355 157.853 183.859 157.669Z" fill="#D8BF66"/>
<path d="M160.691 155.31C160.747 155.276 160.803 155.235 160.852 155.189C161.138 154.908 161.213 154.436 161.089 154.062C160.927 153.614 160.467 153.384 160.006 153.499C159.913 153.522 159.826 153.556 159.745 153.602C159.241 153.89 159.036 154.528 159.415 155C159.708 155.362 160.268 155.54 160.691 155.31Z" fill="#D8BF66"/>
<path d="M186.017 157.042C185.557 157.192 185.302 157.692 185.458 158.152C185.613 158.6 186.105 158.853 186.559 158.715C186.72 158.663 186.863 158.56 186.975 158.428C187.168 158.204 187.249 157.893 187.162 157.606C187.069 157.318 186.826 157.111 186.54 157.036C186.366 156.985 186.185 156.985 186.017 157.042Z" fill="#D8BF66"/>
<path d="M162.408 154.654C161.966 154.7 161.556 154.367 161.437 153.953C161.294 153.43 161.686 152.975 162.202 152.906C162.271 152.901 162.339 152.895 162.402 152.901C162.849 152.935 163.21 153.28 163.198 153.74C163.179 154.125 162.924 154.499 162.551 154.62C162.507 154.637 162.457 154.649 162.408 154.654Z" fill="#D8BF66"/>
<path d="M188.151 156.478C188.58 156.358 189.066 156.559 189.19 157.007C189.308 157.444 189.01 157.876 188.593 157.996C188.17 158.117 187.685 157.916 187.548 157.479C187.417 157.036 187.722 156.605 188.151 156.478Z" fill="#D8BF66"/>
<path d="M164.144 154.672C164.224 154.689 164.305 154.695 164.386 154.683C164.691 154.643 164.965 154.424 165.077 154.143C165.207 153.821 165.089 153.47 164.809 153.269C164.722 153.205 164.622 153.159 164.523 153.136C164.075 153.033 163.627 153.309 163.571 153.775C163.534 154.148 163.758 154.574 164.144 154.672Z" fill="#D8BF66"/>
<path d="M190.136 156.018C189.75 156.122 189.477 156.501 189.576 156.898C189.682 157.289 190.105 157.49 190.484 157.393C190.864 157.295 191.125 156.915 191.038 156.524C190.938 156.128 190.522 155.921 190.136 156.018Z" fill="#D8BF66"/>
<path d="M165.637 155.235C165.338 155.034 165.27 154.609 165.419 154.292C165.606 153.913 166.078 153.821 166.42 154.045C166.57 154.143 166.688 154.298 166.731 154.476C166.781 154.683 166.731 154.902 166.588 155.063C166.452 155.218 166.259 155.31 166.053 155.327C165.904 155.345 165.761 155.316 165.637 155.235Z" fill="#D8BF66"/>
<path d="M191.934 155.662C192.282 155.587 192.643 155.794 192.718 156.15C192.786 156.501 192.556 156.835 192.208 156.915C191.865 156.99 191.505 156.783 191.424 156.438C191.343 156.081 191.585 155.742 191.934 155.662Z" fill="#D8BF66"/>
<path d="M166.769 156.185C166.968 156.438 167.36 156.472 167.633 156.317C167.963 156.122 168.013 155.696 167.789 155.403C167.559 155.11 167.136 155.052 166.862 155.317C166.638 155.541 166.57 155.926 166.769 156.185Z" fill="#D8BF66"/>
<path d="M193.558 155.403C193.247 155.46 193.029 155.765 193.085 156.075C193.147 156.386 193.452 156.587 193.757 156.535C194.068 156.478 194.273 156.179 194.223 155.868C194.173 155.558 193.875 155.345 193.558 155.403Z" fill="#D8BF66"/>
<path d="M167.472 157.352C167.379 157.076 167.547 156.766 167.802 156.639C168.106 156.496 168.449 156.657 168.567 156.967C168.672 157.283 168.511 157.628 168.175 157.709C167.895 157.766 167.571 157.628 167.472 157.352Z" fill="#D8BF66"/>
<path d="M195.026 155.224C195.306 155.19 195.561 155.397 195.592 155.673C195.623 155.943 195.443 156.213 195.163 156.253C194.883 156.288 194.634 156.087 194.59 155.811C194.553 155.535 194.74 155.264 195.026 155.224Z" fill="#D8BF66"/>
<path d="M167.758 158.606C167.758 158.865 167.988 159.078 168.237 159.118C168.554 159.164 168.797 158.911 168.797 158.606C168.797 158.491 168.766 158.382 168.704 158.284C168.598 158.135 168.424 158.054 168.237 158.083C168.069 158.106 167.914 158.215 167.827 158.365C167.789 158.434 167.764 158.52 167.758 158.606Z" fill="#D8BF66"/>
<path d="M196.345 155.127C196.09 155.15 195.922 155.391 195.947 155.638C195.971 155.88 196.183 156.081 196.432 156.058C196.681 156.035 196.842 155.794 196.824 155.558C196.805 155.305 196.6 155.104 196.345 155.127Z" fill="#D8BF66"/>
<path d="M167.571 159.716C167.609 159.636 167.671 159.573 167.739 159.527C167.864 159.458 168.013 159.435 168.15 159.475C168.299 159.515 168.411 159.63 168.448 159.774C168.473 159.883 168.461 159.992 168.417 160.09C168.305 160.337 168.013 160.452 167.777 160.309C167.596 160.194 167.478 159.935 167.571 159.716Z" fill="#D8BF66"/>
<path d="M197.533 155.086C197.763 155.08 197.925 155.276 197.931 155.494C197.937 155.707 197.794 155.914 197.57 155.925C197.346 155.931 197.185 155.736 197.166 155.529C197.16 155.31 197.309 155.097 197.533 155.086Z" fill="#D8BF66"/>
<path d="M166.999 160.631C166.85 160.786 166.862 161.039 166.987 161.2C167.142 161.39 167.422 161.39 167.596 161.223C167.652 161.172 167.689 161.103 167.708 161.028C167.752 160.873 167.696 160.712 167.571 160.614C167.453 160.522 167.298 160.493 167.155 160.539C167.099 160.556 167.043 160.591 166.999 160.631Z" fill="#D8BF66"/>
<path d="M198.603 155.104C198.398 155.104 198.267 155.293 198.267 155.483C198.273 155.667 198.404 155.857 198.597 155.863C198.796 155.863 198.926 155.673 198.926 155.489C198.933 155.299 198.808 155.109 198.603 155.104Z" fill="#D8BF66"/>
<path d="M166.184 161.269C166.19 161.269 166.19 161.269 166.184 161.269C166.364 161.183 166.582 161.258 166.682 161.419C166.8 161.609 166.719 161.839 166.526 161.942L166.52 161.942C166.327 162.034 166.097 161.954 166.016 161.752C165.954 161.586 166.016 161.361 166.184 161.269Z" fill="#D8BF66"/>
<path d="M199.567 155.172C199.748 155.184 199.847 155.368 199.835 155.529C199.822 155.69 199.704 155.856 199.53 155.851C199.356 155.839 199.256 155.661 199.262 155.494C199.262 155.333 199.387 155.161 199.567 155.172Z" fill="#D8BF66"/>
<path d="M165.282 161.609C165.108 161.643 164.983 161.816 164.996 161.988C165.014 162.19 165.207 162.31 165.4 162.276C165.593 162.241 165.724 162.057 165.674 161.868C165.624 161.707 165.456 161.58 165.282 161.609Z" fill="#D8BF66"/>
<path d="M254.184 146.51C253.02 146.32 252.124 145.612 251.39 144.715C249.934 142.915 249.132 140.729 248.174 138.647C247.16 136.449 245.959 134.229 244.167 132.567C241.038 129.696 236.472 130.145 233.709 133.205C230.624 136.656 231.6 141.379 236.391 142.104C237.05 142.201 237.722 142.201 238.375 142.058C240.515 141.58 241.99 139.412 241.318 137.295C240.926 136.087 239.881 135.27 238.674 135C238.22 134.902 237.181 135.017 237.212 135.684C237.268 136.518 238.842 136.553 239.396 137.105C239.582 137.295 239.725 137.525 239.806 137.778C240.198 139.015 239.259 140.228 238.039 140.499C237.579 140.597 237.1 140.591 236.633 140.522C233.093 139.987 232.652 136.771 234.898 134.258C237.075 131.842 240.615 131.457 243.091 133.729C244.727 135.247 245.81 137.306 246.737 139.308C247.751 141.517 248.616 143.8 250.158 145.71C251.141 146.912 252.386 147.821 253.935 148.068C255.459 148.316 255.739 146.763 254.184 146.51Z" fill="#D8BF66"/>
<path fill-rule="evenodd" clip-rule="evenodd" d="M237.492 135.005C236.216 135.023 235.189 136.098 235.208 137.404C235.22 138.71 236.272 139.757 237.548 139.745C238.823 139.728 239.85 138.652 239.831 137.346C239.813 136.035 238.767 134.988 237.492 135.005Z" fill="#D8BF66"/>
<path fill-rule="evenodd" clip-rule="evenodd" d="M249.574 147.62C247.278 146.734 244.628 145.854 242.32 145.67C245.063 142.115 243.639 136.915 241.461 133.723C242.108 133.901 243.713 135.938 244.715 137.721C245.903 139.837 246.625 142.196 247.639 144.324C248.336 145.791 249.045 147.304 249.574 147.62Z" fill="#D8BF66"/>
<path d="M240.976 140.89C240.547 141.735 240.024 142.265 239.128 142.621C233.1 144.991 227.6 138.612 221.292 141.304C218.915 142.322 217.111 143.432 214.436 143.317C213.59 143.283 212.371 142.075 211.699 142.5C211.251 142.788 211.356 143.421 211.686 143.754C212.402 144.468 213.353 144.859 214.361 144.899C217.323 145.026 219.295 143.881 221.914 142.759C228.005 140.154 233.498 146.533 239.707 144.088C240.945 143.593 241.959 142.708 242.45 141.459C243.041 139.97 241.76 139.343 240.976 140.89Z" fill="#D8BF66"/>
<path d="M211.058 143.214C211.4 146.717 217.87 150.962 217.628 152.354C217.609 152.699 219.158 153.165 219.214 152.474C219.457 149.598 213.167 147.039 212.781 143.03C212.632 141.816 210.977 142.132 211.058 143.214Z" fill="#D8BF66"/>
<path d="M219.071 151.848C215.058 147.246 204.109 152.216 198.814 151.951C198.497 151.94 198.366 152.48 198.335 152.705C198.304 152.981 198.354 153.51 198.727 153.533C203.231 153.757 215.015 149.317 218.144 153.13C218.934 153.918 219.575 152.429 219.071 151.848Z" fill="#D8BF66"/>
<path d="M198.472 153.568C199.959 154.488 201.62 154.81 203.25 155.356C203.972 155.598 204.905 155.857 205.627 156.098C206.51 156.398 206.821 157.163 205.652 157.393C203.916 157.738 202.242 157.824 200.588 157.876C195.965 158.014 192.232 158.566 188.058 160.516C183.803 162.506 179.74 165.083 176.387 168.183C176.051 168.5 175.796 169.109 176.175 169.495C176.549 169.851 177.133 169.656 177.463 169.351C180.704 166.36 184.642 163.875 188.755 161.954C192.749 160.09 196.195 159.912 200.612 159.797C203.418 159.722 205.956 159.521 207.151 158.411C208.103 157.525 208.47 155.753 206.859 154.902C205.894 154.39 204.787 154.206 203.754 153.861C202.249 153.355 200.681 153.079 199.312 152.227C197.85 151.307 197.048 152.664 198.472 153.568Z" fill="#D8BF66"/>
<path d="M177.662 169.621C181.457 167.861 185.756 167.596 189.874 167.729C195.169 167.907 200.407 168.77 205.658 169.408C210.156 169.943 214.809 169.828 219.139 168.367C221.124 167.683 222.996 166.711 224.645 165.411C225.933 164.381 227.059 163.167 227.992 161.81C228.981 160.343 227.7 159.434 226.679 160.918C225.84 162.143 224.819 163.242 223.656 164.168C222.15 165.359 220.439 166.245 218.629 166.866C214.529 168.252 210.112 168.344 205.857 167.832C200.563 167.188 195.275 166.319 189.937 166.141C185.563 166.003 181.022 166.314 176.996 168.183C175.522 168.873 176.175 170.306 177.662 169.621Z" fill="#D8BF66"/>
<path d="M258.203 151.163C257.711 150.818 257.139 150.605 256.548 150.479C255.826 150.323 255.079 150.318 254.345 150.41C252.815 150.6 251.353 151.18 249.99 151.882C248.734 152.532 247.533 153.314 246.426 154.195C246.009 154.528 245.604 154.873 245.231 155.253C245.063 155.42 244.908 155.598 244.765 155.782C244.541 156.098 244.597 157.243 244.821 157.335C245.486 157.611 245.897 156.84 246.363 156.363C246.693 156.029 247.048 155.725 247.415 155.431C248.441 154.614 249.555 153.89 250.718 153.286C251.913 152.67 253.201 152.147 254.538 151.98C255.092 151.911 255.658 151.911 256.212 152.026C256.604 152.112 256.983 152.262 257.319 152.486C258.65 153.355 259.161 151.842 258.203 151.163Z" fill="#D8BF66"/>
<path d="M246.121 156.024C246.146 155.851 246.164 155.673 246.171 155.5C246.183 154.672 245.922 153.878 245.43 153.211C244.883 152.48 244.111 151.963 243.278 151.618C242.226 151.186 241.082 151.019 239.956 150.991C235.588 150.899 231.532 151.876 227.893 154.333C224.975 156.311 222.393 158.704 219.139 160.159C209.26 164.491 198.199 165.141 187.591 164.03C187.131 163.984 185.837 163.933 185.737 164.611C185.663 165.307 186.957 165.56 187.417 165.606C198.304 166.745 209.646 166.055 219.78 161.609C223.127 160.108 225.777 157.68 228.782 155.644C232.142 153.372 235.874 152.492 239.912 152.578C240.845 152.601 241.797 152.733 242.668 153.084C243.234 153.32 243.782 153.66 244.155 154.16C244.435 154.54 244.59 154.994 244.584 155.466C244.584 155.569 244.572 155.673 244.553 155.776C244.485 156.196 244.279 157.145 244.709 157.439C245.405 157.887 246.046 156.478 246.121 156.024Z" fill="#D8BF66"/>
<path fill-rule="evenodd" clip-rule="evenodd" d="M241.579 164.916C239.9 164.939 238.556 166.314 238.581 167.988C238.599 169.662 239.974 171.002 241.654 170.979C243.334 170.956 244.677 169.581 244.653 167.907C244.628 166.234 243.253 164.893 241.579 164.916Z" fill="#D8BF66"/>
<path fill-rule="evenodd" clip-rule="evenodd" d="M235.04 163.098C233.671 163.116 232.576 164.237 232.595 165.6C232.614 166.964 233.734 168.057 235.096 168.039C236.465 168.022 237.56 166.9 237.542 165.537C237.529 164.174 236.409 163.081 235.04 163.098Z" fill="#D8BF66"/>
<path fill-rule="evenodd" clip-rule="evenodd" d="M231.046 159.578C230.001 159.59 229.167 160.447 229.18 161.488C229.192 162.529 230.045 163.363 231.09 163.351C232.135 163.34 232.969 162.483 232.957 161.442C232.944 160.395 232.086 159.567 231.046 159.578Z" fill="#D8BF66"/>
<path fill-rule="evenodd" clip-rule="evenodd" d="M231.818 155.603C230.934 155.615 230.225 156.34 230.237 157.22C230.25 158.1 230.972 158.807 231.855 158.796C232.739 158.784 233.442 158.06 233.436 157.179C233.423 156.299 232.701 155.592 231.818 155.603Z" fill="#D8BF66"/>
<path fill-rule="evenodd" clip-rule="evenodd" d="M235.134 153.694C234.4 153.706 233.815 154.304 233.821 155.034C233.827 155.765 234.431 156.352 235.165 156.34C235.899 156.329 236.484 155.73 236.478 155C236.472 154.269 235.868 153.688 235.134 153.694Z" fill="#D8BF66"/>
<path fill-rule="evenodd" clip-rule="evenodd" d="M238.432 155.15C237.754 155.162 237.206 155.714 237.219 156.392C237.225 157.071 237.785 157.617 238.463 157.605C239.141 157.594 239.688 157.042 239.676 156.363C239.669 155.685 239.11 155.144 238.432 155.15Z" fill="#D8BF66"/>
<path fill-rule="evenodd" clip-rule="evenodd" d="M240.012 157.836C239.464 157.842 239.029 158.29 239.035 158.837C239.041 159.383 239.489 159.82 240.037 159.808C240.584 159.803 241.019 159.354 241.013 158.808C241.001 158.267 240.553 157.83 240.012 157.836Z" fill="#D8BF66"/>
<path d="M249.474 149.495C246.096 148.92 242.718 148.207 239.284 148.12C235.196 148.034 231.296 149.052 227.967 151.468C224.378 154.085 220.713 156.426 216.564 158.066C212.638 159.596 208.401 160.286 204.233 160.775C203.779 160.826 202.616 161.085 202.672 161.741C202.746 162.408 203.959 162.403 204.42 162.351C208.725 161.85 213.092 161.126 217.148 159.544C221.429 157.858 225.211 155.448 228.907 152.751C231.955 150.536 235.514 149.633 239.246 149.708C242.606 149.788 245.909 150.496 249.207 151.06C249.661 151.134 250.507 151.077 250.606 150.484C250.693 149.903 249.934 149.57 249.474 149.495Z" fill="#D8BF66"/>
<path d="M249.039 149.351C243.894 147.424 238.22 146.613 232.739 146.682C230.07 146.717 227.407 147.016 224.738 146.981C222.293 146.941 219.83 146.63 217.59 145.606C217.204 145.434 216.713 145.572 216.501 145.952C216.277 146.371 216.508 146.86 216.918 147.05C219.363 148.166 222.045 148.523 224.713 148.569C227.401 148.603 230.076 148.304 232.764 148.27C238.046 148.206 243.527 148.983 248.485 150.835C248.883 150.985 249.319 150.754 249.48 150.375C249.63 149.972 249.443 149.512 249.039 149.351Z" fill="#D8BF66"/>
<path d="M236.87 147.2C233.697 147.01 230.686 147.804 227.899 149.294C225.031 150.83 222.455 152.854 219.649 154.488C218.032 155.414 216.147 155.863 214.287 155.799C213.434 155.765 212.582 155.621 211.78 155.333C211.276 155.149 210.79 154.902 210.361 154.586C210.044 154.356 209.583 154.488 209.322 154.747C209.005 155.08 209.055 155.592 209.415 155.868C209.969 156.277 210.585 156.587 211.232 156.823C212.19 157.174 213.21 157.347 214.231 157.387C216.389 157.462 218.573 156.944 220.452 155.863C223.245 154.235 225.802 152.222 228.658 150.697C231.19 149.351 233.902 148.621 236.783 148.793C237.212 148.816 237.654 148.523 237.71 148.08C237.747 147.591 237.318 147.229 236.87 147.2Z" fill="#D8BF66"/>
<path fill-rule="evenodd" clip-rule="evenodd" d="M300.053 19.1314C299.978 19.9137 299.86 20.5176 299.704 21.0008C299.257 22.3698 297.857 23.6007 296.824 24.5498C295.567 25.7002 293.888 26.9484 293.738 25.3263C293.651 24.3657 293.452 23.4281 292.569 22.0419C292.917 22.8932 293.172 23.6755 293.228 24.7396C293.278 25.6772 293.147 26.9081 293.265 27.4776C293.147 27.9205 293.278 29.0594 292.923 31.1934C293.869 27.8687 298.846 23.0543 301.851 20.972C302.33 20.6384 302.604 20.5349 303.232 19.7181C301.975 20.7247 301.154 21.1676 300.656 21.018C300.096 20.857 299.947 19.9827 300.053 19.1314Z" fill="#D8BF66"/>
<path fill-rule="evenodd" clip-rule="evenodd" d="M286.664 11.7228C287.709 12.2117 287.709 13.4024 287.609 14.501C287.273 18.1823 286.359 18.7172 287.896 22.341C288.4 23.5317 289.575 25.1537 289.75 25.9705C290.397 29.0249 289.389 32.384 290.726 36.3414C290.851 37.4803 290.907 38.6595 290.994 39.5568C291.187 41.5297 291.61 42.22 293.115 37.9807C294.391 34.6101 297.29 29.5943 301.253 25.5621C304.886 21.8636 308.569 18.838 311.356 14.8979C314.927 9.85914 315.35 4.8894 315.219 0.000186918C313.521 3.52617 307.822 6.48844 305.427 8.95606C303.026 11.4294 303.766 16.7558 301.676 16.5085C299.859 16.2899 302.012 12.6489 302.565 10.7622C303.331 8.13928 301.875 5.33805 300.823 3.07176C301.334 6.3159 298.285 9.6348 296.394 11.8896C295.342 13.1435 296.269 15.7492 296.325 16.3187C296.431 17.4 297.75 19.4305 296.493 20.834C294.559 22.9967 294.583 18.0615 293.974 16.9168C292.823 14.7483 289.905 12.4705 286.664 11.7228ZM305.06 14.2019C305.608 12.2117 306.074 11.4409 306.964 10.6241C308.861 8.86978 311.903 7.32824 313.49 5.59113C313.11 7.34549 312.569 9.48525 311.543 11.2569C308.699 16.1576 303.648 20.9088 300.127 24.2047C298.721 25.5219 297.234 27.1555 296.064 28.7775C294.652 30.739 293.308 33.2181 292.3 35.0415C291.796 33.1433 291.23 31.5672 291.691 28.5532C291.703 23.2671 290.067 23.1923 289.047 19.9712C288.673 18.7172 289.04 16.6753 289.351 14.8864C291 16.0655 292.4 16.9629 292.972 18.8725C293.451 20.4774 293.445 22.5999 294.521 23.2728C296.78 24.6821 298.665 21.0928 298.833 19.0969C298.945 17.7739 297.806 16.1921 297.719 14.6966C297.451 10.7737 300.133 11.5157 301.24 7.0694C302.211 9.54277 301.246 10.5551 300.257 12.8042C299.262 15.0532 299.56 17.7624 300.998 18.2226C302.428 18.6942 303.996 18.0845 305.06 14.2019Z" fill="#D8BF66"/>
<path fill-rule="evenodd" clip-rule="evenodd" d="M306.859 165.532C304.688 165.382 303.052 163.403 303.213 161.108C303.375 158.813 305.26 157.076 307.437 157.22C309.609 157.369 311.245 159.348 311.083 161.637C310.921 163.938 309.03 165.681 306.859 165.532Z" fill="#D8BF66"/>
<path d="M300.338 162.627C300.475 163.513 300.78 164.37 301.253 165.135C301.713 165.877 302.323 166.515 303.026 167.033C304.507 168.126 306.348 168.666 308.183 168.678C314.075 168.684 319.071 162.08 315.338 156.599C313.31 153.625 307.692 151.871 304.998 154.936C304.476 155.529 304.146 156.265 304.021 157.047C304.556 156.616 305.147 156.265 305.801 156.058C308.177 155.253 311.257 156.397 312.694 158.416C315.201 162.006 312.109 166.613 308.078 167.269C306.473 167.533 304.78 167.303 303.337 166.538C302.615 166.153 301.968 165.629 301.458 164.985C300.905 164.301 300.531 163.49 300.338 162.627Z" fill="#D8BF66"/>
<path d="M307.263 164.053C306.622 164.007 306 163.835 305.434 163.541C304.881 163.248 304.389 162.851 303.985 162.368C303.574 161.879 303.263 161.31 303.058 160.706C302.846 160.067 302.765 159.388 302.815 158.715C302.89 157.674 303.157 156.65 303.624 155.707C304.066 154.827 304.675 154.039 305.416 153.389C306.156 152.751 307.008 152.256 307.935 151.945C308.899 151.623 309.92 151.497 310.934 151.56C311.973 151.635 312.974 151.94 313.895 152.423C314.828 152.923 315.656 153.602 316.346 154.401C317.043 155.212 317.591 156.144 317.951 157.151C318.306 158.163 318.468 159.239 318.399 160.314C318.294 161.764 317.889 163.167 317.211 164.456C316.545 165.71 315.637 166.82 314.561 167.74C313.478 168.655 312.24 169.368 310.903 169.828C309.559 170.288 308.134 170.496 306.716 170.398C305.179 170.288 303.692 169.777 302.367 169.006C300.775 168.074 299.424 166.791 298.336 165.307C297.067 163.576 295.909 159.164 299.991 154.971L291.032 163.219L293.004 162.178C294.242 161.528 294.659 161.937 295.175 163.052C295.692 164.174 296.314 165.244 297.048 166.245C298.267 167.901 299.779 169.334 301.558 170.375C303.095 171.266 304.818 171.853 306.598 171.974C308.228 172.083 309.864 171.847 311.413 171.318C312.937 170.789 314.349 169.978 315.581 168.937C316.813 167.884 317.852 166.613 318.611 165.186C319.388 163.708 319.861 162.08 319.98 160.412C320.067 159.118 319.874 157.824 319.444 156.604C319.015 155.414 318.368 154.309 317.547 153.349C316.726 152.4 315.743 151.6 314.642 151.008C313.528 150.415 312.302 150.047 311.04 149.961C309.814 149.88 308.588 150.036 307.425 150.427C306.305 150.806 305.266 151.405 304.37 152.181C303.475 152.963 302.734 153.918 302.199 154.988C301.639 156.116 301.316 157.341 301.229 158.595C301.166 159.469 301.278 160.355 301.552 161.189C301.813 161.988 302.23 162.736 302.765 163.38C303.3 164.019 303.96 164.554 304.694 164.939C305.453 165.336 306.293 165.572 307.151 165.629C307.189 165.112 307.226 164.582 307.263 164.053Z" fill="#D8BF66"/>
<path fill-rule="evenodd" clip-rule="evenodd" d="M292.071 145.267C291.76 146.884 291.928 148.356 291.729 149.644C291.536 150.904 290.341 154.516 289.072 156.765C290.354 155.558 291.163 154.752 292.326 152.325C293.247 150.409 292.849 152.244 291.959 154.804C290.397 159.308 287.959 162.167 284.406 163.858C283.224 164.421 281.924 164.749 280.512 164.755C278.409 164.761 276.997 166.389 275.759 166.124C274.527 165.859 273.606 165.089 274.851 164.462C277.19 163.536 279.921 162.621 282.26 161.689C284.649 159.038 287.038 156.386 289.433 153.728C290.46 150.91 291.051 148.08 292.071 145.267Z" fill="#D8BF66"/>
<path d="M14.5658 41.1098C15.2066 41.1213 15.8412 41.2593 16.4198 41.5239C16.9921 41.7828 17.5085 42.1567 17.9378 42.6168C18.3732 43.0827 18.7216 43.6349 18.958 44.2274C19.2007 44.8544 19.3251 45.5273 19.3189 46.2003C19.3064 47.2472 19.0949 48.2826 18.6843 49.2431C18.2924 50.1462 17.7324 50.963 17.0294 51.6532C16.3264 52.332 15.499 52.8727 14.5969 53.235C13.6513 53.6089 12.6434 53.793 11.6232 53.7815C10.5842 53.7642 9.56396 53.5111 8.61832 53.0797C7.66025 52.6311 6.7955 51.9984 6.05517 51.2391C5.31484 50.4626 4.71137 49.5653 4.29455 48.5759C3.87772 47.5808 3.65997 46.5167 3.6662 45.4411C3.68486 43.9916 4.0146 42.565 4.61184 41.2421C5.20286 39.9536 6.04273 38.7975 7.06924 37.8196C8.09575 36.8476 9.29645 36.071 10.6029 35.5303C11.9156 34.9954 13.3278 34.7135 14.7525 34.7308C16.2953 34.7538 17.8071 35.1852 19.1758 35.8812C20.8182 36.721 22.2366 37.9347 23.4124 39.3554C24.862 41.1213 25.9196 43.1805 26.6475 45.3375C27.5807 48.133 27.9851 51.0838 28.0349 54.0231C28.1282 60.149 27.5185 66.7638 24.5634 72.2454C23.4871 74.2184 22.0438 76.036 20.0965 77.2037C18.1991 78.3253 16.0216 78.6589 13.8504 78.3771C13.7819 78.9005 13.7135 79.4297 13.6451 79.9532C16.1709 80.281 18.7092 79.8669 20.9115 78.5669C23.1076 77.2497 24.75 75.2307 25.9632 73.0047C29.0489 67.2757 29.7208 60.4021 29.6275 53.9943C29.5715 50.894 29.1484 47.7821 28.1593 44.8313C27.3692 42.4903 26.2183 40.2585 24.6443 38.3431C23.3316 36.7555 21.739 35.4038 19.9037 34.4662C18.3173 33.6609 16.5628 33.1663 14.7773 33.1433C13.1412 33.126 11.5236 33.4481 10.0119 34.0578C8.51878 34.6675 7.15631 35.5591 5.98671 36.6635C4.81712 37.7794 3.85285 39.1023 3.18096 40.5748C2.4904 42.0934 2.1109 43.7442 2.09224 45.4123C2.07979 46.7065 2.34106 47.9892 2.84498 49.1856C3.33646 50.3533 4.0457 51.4174 4.9229 52.332C5.79388 53.235 6.82039 53.9828 7.95887 54.512C9.10981 55.0412 10.3478 55.346 11.617 55.3633C12.8426 55.3748 14.0619 55.1562 15.2004 54.7018C16.2953 54.2589 17.3032 53.6089 18.1493 52.7864C19.0016 51.9523 19.6859 50.963 20.1587 49.8644C20.6502 48.7082 20.9053 47.4658 20.9239 46.2118C20.9364 45.3318 20.7746 44.4575 20.4574 43.6407C20.1463 42.8584 19.6922 42.1336 19.1198 41.5239C18.5474 40.9142 17.8631 40.4195 17.1041 40.0744C16.3202 39.7178 15.4679 39.528 14.6094 39.5165C14.5783 40.0514 14.5721 40.5806 14.5658 41.1098Z" fill="#D8BF66"/>
<path fill-rule="evenodd" clip-rule="evenodd" d="M14.8831 39.6085C17.0605 39.6372 18.8025 41.5239 18.7776 43.8247C18.7527 46.1255 16.961 47.9662 14.7835 47.9374C12.6061 47.9087 10.8641 46.022 10.889 43.7212C10.9201 41.4204 12.7057 39.5797 14.8831 39.6085Z" fill="#D8BF66"/>
<path d="M21.5585 42.1507C21.3718 41.2707 21.0172 40.4309 20.5009 39.6946C19.9969 38.9814 19.3561 38.3774 18.622 37.8942C14.5844 35.2541 8.7489 36.5425 6.3786 40.8278C4.08918 45.0728 6.17955 50.1921 10.8019 51.6243C13.7944 52.5159 17.8506 51.4517 18.2052 47.92C16.4073 49.5478 14.0245 49.7031 11.8098 48.7598C7.75975 47.0227 7.2807 42.0817 10.634 39.3438C12.7305 37.6124 15.8785 37.273 18.3359 38.4062C19.0762 38.7513 19.7543 39.2402 20.3018 39.8499C20.899 40.5114 21.3221 41.2994 21.5585 42.1507Z" fill="#D8BF66"/>
<path fill-rule="evenodd" clip-rule="evenodd" d="M23.5553 44.4229C24.5944 44.4344 25.4282 45.2914 25.4158 46.3268C25.4033 47.3622 24.5508 48.1962 23.5117 48.1847C22.4726 48.1732 21.6388 47.3161 21.6512 46.2808C21.6636 45.2397 22.5161 44.4114 23.5553 44.4229Z" fill="#D8BF66"/>
<path fill-rule="evenodd" clip-rule="evenodd" d="M24.0341 50.566C25.3097 50.5832 26.3364 51.6301 26.3177 52.907C26.2991 54.184 25.2537 55.2021 23.9781 55.1848C22.7025 55.1676 21.6758 54.1207 21.6945 52.8438C21.7069 51.5726 22.7585 50.5487 24.0341 50.566Z" fill="#D8BF66"/>
<path fill-rule="evenodd" clip-rule="evenodd" d="M23.3689 57.1753C24.8557 57.1925 26.044 58.412 26.0254 59.896C26.0067 61.38 24.7873 62.5649 23.3067 62.5477C21.8198 62.5304 20.6315 61.311 20.6502 59.827C20.6626 58.3429 21.882 57.158 23.3689 57.1753Z" fill="#D8BF66"/>
<path fill-rule="evenodd" clip-rule="evenodd" d="M21.4838 63.8933C23.232 63.9163 24.638 65.3543 24.6193 67.1029C24.6007 68.8515 23.1636 70.2493 21.4154 70.2263C19.6672 70.2033 18.2612 68.7653 18.2799 67.0166C18.2985 65.268 19.7294 63.8703 21.4838 63.8933Z" fill="#D8BF66"/>
<path fill-rule="evenodd" clip-rule="evenodd" d="M16.6748 69.8928C18.5785 69.9158 20.1027 71.4803 20.0841 73.3842C20.0592 75.2882 18.4976 76.8067 16.5939 76.7837C14.6902 76.7607 13.166 75.1961 13.1847 73.2922C13.2096 71.3883 14.7711 69.864 16.6748 69.8928Z" fill="#D8BF66"/>
<path fill-rule="evenodd" clip-rule="evenodd" d="M13.3838 78.4574C15.275 86.0386 11.3743 89.6681 8.89826 100.741C7.31184 107.839 6.28533 116.415 7.5669 126.176C9.76922 137.726 13.9748 148.097 21.5212 156.622C25.9569 162.282 30.1438 164.789 34.3369 165.531C37.5969 166.107 37.516 163.904 44.5336 165.353C14.1925 157.599 2.4717 124.025 13.8255 96.7028C16.3451 90.646 20.0218 84.7732 19.7108 77.911C17.776 78.4459 15.3124 78.5552 13.3838 78.4574Z" fill="#D8BF66"/>
<path d="M25.2291 34.2476C30.0941 43.7959 30.797 54.5004 28.9369 64.9173C27.027 75.432 22.8774 85.3888 18.3545 95.0119C11.8844 108.88 9.1782 124.767 12.1831 139.889C12.6994 139.786 19.6921 150.404 20.2085 150.3C16.9797 150.151 10.6402 132.003 13.0603 118.912C14.5285 110.956 16.3762 102.99 19.7979 95.6849C24.3705 85.9295 28.5699 75.8462 30.5047 65.1934C32.427 54.4314 31.6743 43.376 26.6475 33.5171C26.1684 33.7644 25.6956 34.006 25.2291 34.2476Z" fill="#D8BF66"/>
<path d="M48.4343 98.5608C48.3659 99.2683 48.2477 100.005 48.4343 100.701C48.5463 101.103 48.7702 101.46 49.1062 101.713C49.4732 101.983 49.9212 102.104 50.3629 102.15C50.9352 102.208 51.5076 102.231 52.0799 102.173C52.5963 102.116 53.1065 101.983 53.5606 101.719C54.0148 101.454 54.3818 101.063 54.6307 100.597C54.8982 100.085 55.0288 99.5156 55.0848 98.9404C55.147 98.2904 55.0724 97.6347 54.8733 97.0135C54.6742 96.4153 54.3569 95.8574 53.9463 95.3799C53.5295 94.8968 53.0256 94.4941 52.4594 94.195C51.8684 93.8844 51.2214 93.6946 50.562 93.6256C49.6537 93.5335 48.7329 93.6428 47.8557 93.8959C46.9474 94.1663 46.0951 94.5919 45.3423 95.1671C44.5709 95.7596 43.9239 96.5016 43.4697 97.3644C42.9845 98.2962 42.7605 99.3316 42.7916 100.378C42.8289 101.489 43.0965 102.576 43.563 103.582C44.0359 104.595 44.6766 105.515 45.4045 106.361C47.0345 108.241 49.0191 109.789 50.9539 111.342C55.3834 114.868 59.8254 118.584 62.1397 123.898C63.7759 127.706 64.8833 131.853 64.9828 136.012C65.0139 137.605 64.9019 139.228 64.4416 140.763C64.1118 141.85 63.583 142.938 62.6747 143.662C63.0045 144.076 63.3342 144.491 63.6639 144.905C64.8211 143.979 65.5303 142.627 65.9595 141.223C66.4697 139.532 66.6066 137.738 66.5692 135.978C66.4697 131.612 65.3188 127.269 63.6017 123.271C61.1754 117.704 56.5903 113.798 51.9431 110.105C50.0829 108.621 48.173 107.137 46.6052 105.331C45.9769 104.6 45.4108 103.807 45.0064 102.927C44.6331 102.11 44.4091 101.235 44.3843 100.338C44.3656 99.5616 44.5273 98.7966 44.8882 98.1006C45.2303 97.4449 45.7343 96.8812 46.3191 96.4325C46.9163 95.9781 47.5944 95.6388 48.3161 95.4259C48.9942 95.2304 49.7096 95.1383 50.4126 95.2074C50.873 95.2534 51.321 95.3857 51.7316 95.6043C52.1173 95.8056 52.4657 96.0817 52.7518 96.4153C53.0256 96.7374 53.2433 97.1113 53.374 97.5139C53.5108 97.9223 53.5544 98.3537 53.517 98.7851C53.4797 99.1475 53.4113 99.5214 53.2371 99.8492C53.1251 100.056 52.9696 100.229 52.7705 100.344C52.5092 100.493 52.2168 100.557 51.9182 100.591C51.4578 100.637 50.9912 100.614 50.5371 100.568C50.3815 100.551 50.1949 100.534 50.0705 100.436C50.0207 100.396 50.002 100.344 49.9834 100.286C49.8527 99.7917 49.9834 99.205 50.0331 98.7103C49.4919 98.6643 48.9631 98.6126 48.4343 98.5608Z" fill="#D8BF66"/>
<path fill-rule="evenodd" clip-rule="evenodd" d="M50.5743 96.398C52.1483 96.8524 53.1437 98.4515 52.8016 99.97C52.4594 101.489 50.9041 102.357 49.3301 101.903C47.7561 101.448 46.7607 99.8492 47.1029 98.3307C47.4451 96.8122 49.0004 95.9436 50.5743 96.398Z" fill="#D8BF66"/>
<path fill-rule="evenodd" clip-rule="evenodd" d="M36.0913 103.093C39.4695 106.522 44.2661 110.444 47.4514 112.981C53.5109 117.807 58.4256 121.028 61.6358 125.9C67.3469 134.551 68.2241 143.225 60.8644 151.364C59.757 152.589 58.2514 154.332 56.665 155.028C62.0091 148.523 72.044 127.839 39.9299 118.957C42.0202 113.901 40.4587 108.23 36.0913 103.093Z" fill="#D8BF66"/>
<path d="M33.9513 142.713C34.0011 144.042 34.0571 145.1 34.7103 146.573C35.1707 147.608 35.9172 148.488 36.8317 149.167C37.6965 149.806 38.6981 150.231 39.7495 150.45C40.8196 150.663 41.927 150.668 43.0032 150.502C45.2989 150.133 47.4328 149.023 49.0752 147.39C50.9105 145.538 51.9867 143.099 52.1671 140.505C52.2729 138.9 52.08 137.278 51.5575 135.753C51.066 134.333 50.2945 133.01 49.2743 131.9C48.2664 130.807 47.0408 129.938 45.6722 129.357C44.2413 128.753 42.6922 128.483 41.1369 128.529C39.1212 128.598 37.1428 129.081 35.3511 130.007C33.6402 130.893 32.1534 132.153 30.9589 133.66C29.7333 135.218 28.8312 137.002 28.2464 138.894C27.6305 140.924 27.3754 143.041 27.4439 145.158C27.531 147.516 28.1718 149.811 29.0987 151.974C30.1004 154.269 31.4379 156.409 33.0243 158.353C34.5859 160.251 36.3776 161.96 38.4182 163.334C40.2783 164.577 42.35 165.543 44.571 165.888C44.6519 165.365 44.7265 164.841 44.8074 164.318C42.8166 164.013 40.9627 163.127 39.3016 162.017C37.3917 160.729 35.7119 159.124 34.2499 157.346C32.7631 155.517 31.5001 153.504 30.5545 151.341C29.7022 149.368 29.105 147.263 29.0303 145.106C28.9681 143.162 29.1983 141.224 29.7644 139.36C30.2932 137.657 31.102 136.047 32.2031 134.643C33.2607 133.315 34.5734 132.204 36.079 131.416C37.6592 130.6 39.4136 130.174 41.1866 130.116C42.5055 130.076 43.8244 130.306 45.0438 130.818C46.201 131.307 47.2399 132.049 48.0922 132.969C48.9632 133.918 49.6226 135.046 50.0395 136.26C50.4936 137.588 50.6554 138.992 50.5621 140.389C50.4065 142.604 49.492 144.68 47.9305 146.262C46.5245 147.66 44.6954 148.615 42.7357 148.931C41.8461 149.069 40.9316 149.069 40.0481 148.891C39.2269 148.724 38.4431 148.396 37.7649 147.896C37.0619 147.372 36.5145 146.676 36.1287 145.888C35.6497 144.882 35.4444 143.772 35.4071 142.662C34.897 142.685 34.4801 142.696 33.9513 142.713Z" fill="#D8BF66"/>
<path fill-rule="evenodd" clip-rule="evenodd" d="M37.6529 139.291C39.7059 139.32 41.3483 141.155 41.3235 143.392C41.2986 145.63 39.6126 147.424 37.5596 147.396C35.5066 147.367 33.8642 145.532 33.8891 143.294C33.914 141.057 35.5999 139.262 37.6529 139.291Z" fill="#D8BF66"/>
<path fill-rule="evenodd" clip-rule="evenodd" d="M30.6229 147.804C29.0551 144.122 30.3305 138.549 31.8796 135.955C34.001 132.4 37.7338 130.881 41.3421 131.042C43.476 131.134 48.0984 132.302 48.8698 136.386C49.5728 140.119 47.2585 146.958 41.7029 148.195C42.5988 146.423 42.9285 145.066 42.829 143.766C42.7419 142.621 42.3251 141.522 41.6656 140.228C44.2474 138.296 43.0841 135.126 41.479 133.97C39.3824 132.463 35.6621 132.871 32.7506 136.305C31.5125 137.766 29.8701 142.144 30.6229 147.804Z" fill="#D8BF66"/>
<path fill-rule="evenodd" clip-rule="evenodd" d="M36.8877 152.9C41.2363 156.552 55.7878 155.764 56.889 142.949C58.5003 124.169 36.0976 122.391 31.4938 128.621C31.5063 126.51 33.466 125.181 36.1473 124.554C40.073 123.634 45.5477 124.209 48.7578 126.009C54.1641 129.046 58.1706 134.551 58.4505 142.138C58.7056 148.96 56.6588 153.268 53.43 156.098C51.5574 157.737 49.2804 158.876 46.8168 159.716C49.2306 164.093 59.6015 153.901 65.269 154.229C70.9366 154.556 73.9725 159.981 81.0834 162.949C75.9322 161.068 72.2679 164.329 73.3815 168.333C70.2522 165.83 67.9566 161.096 63.216 160.257C58.4754 159.417 53.3553 164.479 47.6878 162.782C42.014 161.068 35.6621 157.076 36.8877 152.9Z" fill="#D8BF66"/>
<path d="M35.5438 52.5446C36.589 59.1192 35.9109 65.9468 33.6961 72.2165C29.5901 83.7263 23.4559 94.3848 19.3064 105.883C13.9125 121.017 14.7275 136.564 23.3751 150.214C26.1 154.465 29.4035 158.428 33.3788 161.563C33.7521 161.856 35.5438 163.144 35.1457 163.8C34.6604 164.508 32.7629 163.098 32.3959 162.811C28.2712 159.561 24.8557 155.471 22.0313 151.065C13.1162 137.001 12.239 120.942 17.8008 105.342C21.9504 93.8441 28.0845 83.1856 32.1844 71.6758C34.3058 65.6592 34.959 59.1019 33.9574 52.7862C33.8828 52.3146 33.3415 49.7434 34.0881 49.5248C34.9715 49.3465 35.4692 52.0787 35.5438 52.5446Z" fill="#D8BF66"/>
<path d="M30.9712 85.3542C26.9025 92.573 23.2569 100.125 21.2536 108.207C18.3421 120.309 20.42 132.751 24.0843 144.456C24.2212 144.888 24.5509 146.228 23.8914 146.446C23.2195 146.665 22.7032 145.365 22.5663 144.934C18.8087 132.946 16.7307 120.217 19.7107 107.827C21.7451 99.6077 25.4467 91.923 29.5839 84.5777C29.8141 84.175 30.6042 82.9556 31.2263 83.3065C31.836 83.6689 31.2014 84.9573 30.9712 85.3542Z" fill="#D8BF66"/>
<path d="M36.5767 83.3813C30.5669 88.2302 26.0254 94.5977 23.2881 101.811C23.145 102.185 22.6597 102.225 22.33 102.11C21.9941 101.989 21.6581 101.632 21.8012 101.247C24.6381 93.7694 29.3476 87.1661 35.5813 82.1388C36.7571 81.2703 37.4041 82.7025 36.5767 83.3813Z" fill="#D8BF66"/>
<path d="M36.1597 96.8065C33.5779 97.8419 30.9712 98.8772 28.5449 100.246C26.5541 101.374 24.7375 102.771 23.4061 104.652C20.9239 108.219 20.3329 112.814 19.9658 117.036C19.9223 117.485 19.6112 118.037 19.0886 118.008C18.566 117.962 18.3421 117.353 18.3794 116.904C18.7713 112.389 19.4494 107.557 22.0997 103.743C23.5617 101.667 25.5587 100.114 27.7548 98.8657C30.2433 97.4622 32.9122 96.3924 35.5625 95.334C37.0805 94.7415 37.572 96.2313 36.1597 96.8065Z" fill="#D8BF66"/>
<path d="M25.1046 121.442C23.6551 122.507 22.5664 123.933 21.9442 125.618C21.2412 127.574 21.1541 129.685 21.3096 131.744C21.6829 136.283 23.1449 140.648 24.327 145.02C24.4327 145.417 24.0843 145.756 23.7297 145.848C23.3751 145.94 22.9085 145.825 22.7965 145.434C21.5834 140.965 20.1027 136.507 19.7232 131.871C19.549 129.582 19.6673 127.252 20.4449 125.078C21.1728 123.099 22.4606 121.414 24.159 120.165C24.5136 119.907 25.142 119.82 25.3721 120.188C25.5837 120.511 25.4281 121.201 25.1046 121.442Z" fill="#D8BF66"/>
<path d="M25.8262 135.753C24.924 136.909 24.42 138.37 24.14 139.791C23.8226 141.442 23.7977 143.173 24.2582 144.801C24.3142 145.026 23.7044 145.227 23.5675 145.267C23.4119 145.319 22.8083 145.497 22.7275 145.238C22.1985 143.369 22.211 141.379 22.5781 139.486C22.9079 137.813 23.5177 136.127 24.5755 134.77C25.8075 133.286 26.6289 134.666 25.8262 135.753Z" fill="#D8BF66"/>
<path d="M28.6072 156.743C26.324 152.337 24.974 149.524 24.9616 144.169C24.9491 139.665 26.2556 135.334 28.8063 131.612C29.0552 131.256 29.5529 131.192 29.9013 131.445C30.231 131.693 30.3492 132.164 30.1128 132.515C27.7487 135.967 26.5418 139.987 26.548 144.163C26.5605 149.714 28.4766 153.746 31.0024 158.624C31.2077 159.021 31.7365 159.239 31.3135 159.469C30.4176 159.958 28.9618 157.427 28.6072 156.743Z" fill="#D8BF66"/>
<path d="M29.2293 132.929C27.5745 133.343 26.0751 133.004 24.8247 131.779C23.7608 130.743 23.4435 129.116 23.7608 127.706C24.047 126.452 24.8185 125.377 25.7205 124.485C26.6786 123.542 27.7984 122.777 28.9867 122.156C31.2886 120.953 33.9139 119.694 35.6186 117.669C37.3481 115.616 37.6964 111.951 35.7119 109.956C34.0446 108.287 32.7319 108.414 30.9153 109.472C30.486 109.72 30.1003 110.082 29.9261 110.554C29.4346 111.854 27.9477 111.336 28.433 109.996C28.8498 108.851 29.9199 108.075 31.1268 107.649C34.0881 106.608 36.7881 107.804 38.1008 110.64C39.2518 113.125 38.5612 116.622 36.8317 118.693C34.984 120.884 32.2093 122.259 29.7146 123.571C28.6694 124.123 27.674 124.796 26.8279 125.624C26.1498 126.297 25.5215 127.114 25.3037 128.063C25.1109 128.937 25.2602 130.001 25.9259 130.651C26.7906 131.497 27.6989 131.675 28.8374 131.393C29.4035 131.227 29.9945 131.301 30.1936 131.773C30.4425 132.331 29.6772 132.82 29.2293 132.929Z" fill="#D8BF66"/>
<path d="M29.0302 109.426C29.1484 109.323 29.2666 109.231 29.3973 109.139C29.8701 108.799 30.4176 108.552 31.0023 108.495C31.5685 108.437 32.1408 108.552 32.651 108.811C33.13 109.058 33.5406 109.421 33.8641 109.846C34.1876 110.272 34.424 110.761 34.5609 111.279C34.6978 111.808 34.7351 112.36 34.6418 112.901C34.4863 113.781 34.1565 114.626 33.6713 115.38C31.245 119.136 26.2555 119.113 23.3564 115.69C19.997 111.658 21.8571 105.36 26.436 103.042C31.3383 100.597 35.0524 102.248 38.0697 97.2378C39.0278 95.6388 39.7992 93.9419 40.5769 92.2508C40.7759 91.8252 41.3048 91.0142 41.8398 91.2672C42.3686 91.5203 42.2193 92.4867 42.0202 92.9123C41.2239 94.6552 40.4213 96.4095 39.4322 98.0546C36.0976 103.582 32.4084 101.839 27.1514 104.462C23.5057 106.303 21.8695 111.422 24.5758 114.666C26.7719 117.261 30.4736 117.399 32.3337 114.517C32.7008 113.942 32.9558 113.292 33.074 112.619C33.13 112.308 33.1051 111.986 33.0243 111.681C32.9372 111.365 32.7941 111.06 32.595 110.801C32.4146 110.565 32.1906 110.358 31.9231 110.226C31.6867 110.105 31.4254 110.053 31.1641 110.076C30.8593 110.111 30.5731 110.26 30.3242 110.433C30.2371 110.496 30.1563 110.56 30.0816 110.629C29.7581 110.905 29.0489 111.394 28.6134 111.094C28.0597 110.68 28.6818 109.731 29.0302 109.426Z" fill="#D8BF66"/>
<path d="M40.5644 92.2853C38.0448 92.4061 35.7554 93.1768 33.5842 94.425C32.4208 95.0923 31.1143 96.0413 29.6897 95.817C27.8482 95.5179 27.8171 93.6198 28.8747 92.3486C29.3724 91.7561 30.007 91.3074 30.6602 90.899C32.1409 89.9787 33.7148 89.2137 35.0835 88.1093C36.3277 87.0912 37.4351 85.889 38.163 84.4395C38.6918 83.3754 38.9842 82.2308 39.1709 81.0631C39.3451 79.976 39.3202 78.6587 39.6375 77.6004C39.8676 76.8181 40.2409 76.0934 40.7697 75.4721C41.0746 75.1213 41.7713 74.8337 42.1197 75.2938C42.3872 75.6447 42.2379 76.2026 41.9767 76.5133C41.5909 76.9619 41.3296 77.4969 41.1617 78.0605C40.8693 79.0499 40.9004 80.2981 40.7448 81.3162C40.5333 82.6449 40.1974 83.9506 39.5877 85.1585C38.7603 86.8036 37.5098 88.1841 36.0913 89.346C34.6729 90.4964 33.0491 91.2959 31.5063 92.2565C30.9961 92.5729 30.486 92.918 30.1003 93.3782C29.5155 94.0799 29.6399 94.4768 30.6042 94.1892C31.3881 93.9534 32.0911 93.4587 32.7941 93.0561C35.1893 91.6813 37.7213 90.8358 40.496 90.7035C40.9564 90.6862 42.1695 90.9106 42.1508 91.8079C42.1384 92.3658 41.0123 92.2623 40.5644 92.2853Z" fill="#D8BF66"/>
<path d="M41.255 76.45C40.5208 76.5593 39.8365 76.7261 39.2019 77.1115C38.4616 77.5659 37.7462 78.1641 37.2609 78.8889C36.7072 79.7229 36.0727 80.5512 35.3074 81.2185C33.3913 82.898 31.3569 81.7649 32.2901 79.165C32.5888 78.3367 32.9931 77.5487 33.3851 76.7606C34.1938 75.1328 35.1457 73.4705 35.5439 71.6759C37.0183 65.0956 36.0042 57.4224 33.7832 51.0951C33.6339 50.6637 33.5406 49.8297 34.0881 49.6169C34.648 49.404 34.9839 50.1288 35.1395 50.566C37.46 57.175 38.642 65.1531 37.0992 72.0267C36.6699 73.9421 35.6807 75.7138 34.816 77.4624C34.4489 78.2044 34.1441 78.9752 33.7832 79.7172C33.5468 80.2003 33.7646 80.6145 34.113 80.2349C34.7973 79.4986 35.3759 78.8371 35.9296 78.0031C36.5392 77.0828 37.4538 76.3695 38.3621 75.754C38.8722 75.4089 42.1695 74.1032 42.3623 75.754C42.4246 76.22 41.6718 76.3925 41.255 76.45Z" fill="#D8BF66"/>
<path d="M153.498 163.018C154.432 163.202 155.06 164.139 154.998 165.071C154.911 166.164 153.859 166.814 152.814 166.63C152.627 166.596 152.447 166.532 152.279 166.446C151.538 166.055 151.159 165.221 151.37 164.41C151.576 163.662 152.242 163.075 153.026 163.001C153.187 162.978 153.343 162.989 153.498 163.018Z" fill="#D8BF66"/>
<path d="M149.971 162.253C150.811 162.541 151.247 163.467 151.023 164.306C150.761 165.198 149.809 165.675 148.926 165.388C148.683 165.307 148.459 165.169 148.279 164.985C147.837 164.531 147.7 163.869 147.912 163.277C148.123 162.696 148.652 162.27 149.262 162.19C149.498 162.155 149.741 162.178 149.971 162.253Z" fill="#D8BF66"/>
<path d="M156.839 163.409C156.024 163.501 155.414 164.306 155.371 165.094C155.333 166.095 156.217 166.791 157.181 166.699C157.729 166.642 158.246 166.337 158.488 165.836C158.669 165.497 158.694 165.106 158.575 164.738C158.463 164.387 158.239 164.082 157.966 163.84C157.661 163.559 157.262 163.369 156.839 163.409Z" fill="#D8BF66"/>
<path d="M146.705 161.24C145.946 160.959 145.1 161.35 144.801 162.097C144.508 162.857 144.882 163.72 145.641 164.024C146.413 164.312 147.265 163.921 147.557 163.156C147.825 162.397 147.464 161.539 146.705 161.24Z" fill="#D8BF66"/>
<path d="M159.315 162.719C159.396 162.661 159.483 162.615 159.577 162.581C160.099 162.42 160.771 162.598 161.201 162.914C161.785 163.352 161.885 164.122 161.481 164.715C161.375 164.859 161.25 164.991 161.107 165.094C160.373 165.635 159.29 165.514 158.929 164.606C158.705 164.03 158.78 163.127 159.315 162.719Z" fill="#D8BF66"/>
<path d="M143.719 160.228C144.397 160.505 144.714 161.287 144.453 161.96C144.179 162.639 143.408 162.978 142.723 162.713C142.045 162.437 141.721 161.655 141.989 160.976C142.269 160.303 143.041 159.958 143.719 160.228Z" fill="#D8BF66"/>
<path d="M160.727 160.936C160.516 161.569 160.858 162.276 161.399 162.627C162.165 163.104 162.992 162.581 163.266 161.804C163.285 161.758 163.297 161.707 163.31 161.661C163.471 160.959 163.03 160.251 162.314 160.119C161.742 160.021 161.02 160.292 160.765 160.844C160.752 160.873 160.74 160.901 160.727 160.936Z" fill="#D8BF66"/>
<path d="M140.988 159.274C140.372 159.033 139.676 159.343 139.433 159.953C139.197 160.562 139.489 161.264 140.099 161.511C140.714 161.753 141.405 161.442 141.654 160.838C141.884 160.223 141.598 159.522 140.988 159.274Z" fill="#D8BF66"/>
<path d="M161.232 158.584C161.201 158.026 161.711 157.514 162.209 157.347C162.949 157.112 163.583 157.692 163.639 158.423C163.664 158.756 163.565 159.101 163.353 159.36C163.104 159.647 162.75 159.791 162.371 159.739C162.016 159.688 161.699 159.481 161.493 159.182C161.357 159.009 161.251 158.808 161.232 158.584Z" fill="#D8BF66"/>
<path d="M138.468 158.417C139.022 158.635 139.296 159.262 139.084 159.82C138.866 160.366 138.251 160.654 137.691 160.447C137.137 160.228 136.87 159.607 137.069 159.055C137.287 158.497 137.909 158.21 138.468 158.417Z" fill="#D8BF66"/>
<path d="M160.672 156.679C160.977 157.105 161.624 157.179 162.078 156.995C162.712 156.725 162.818 155.972 162.451 155.437C162.302 155.225 162.09 155.058 161.842 154.983C161.487 154.88 161.114 154.983 160.859 155.248C160.629 155.489 160.511 155.828 160.511 156.162C160.523 156.346 160.567 156.53 160.672 156.679Z" fill="#D8BF66"/>
<path d="M136.142 157.669C135.632 157.491 135.078 157.761 134.898 158.267C134.73 158.768 134.985 159.325 135.488 159.509C135.992 159.682 136.54 159.412 136.726 158.923C136.907 158.417 136.645 157.853 136.142 157.669Z" fill="#D8BF66"/>
<path d="M159.303 155.31C159.247 155.276 159.191 155.235 159.142 155.189C158.856 154.908 158.781 154.436 158.905 154.062C159.067 153.614 159.527 153.384 159.988 153.499C160.081 153.522 160.168 153.556 160.249 153.602C160.753 153.89 160.958 154.528 160.579 155C160.286 155.362 159.733 155.54 159.303 155.31Z" fill="#D8BF66"/>
<path d="M133.983 157.042C134.443 157.192 134.698 157.692 134.543 158.152C134.387 158.6 133.896 158.853 133.442 158.715C133.28 158.663 133.131 158.56 133.025 158.428C132.832 158.204 132.751 157.893 132.838 157.606C132.932 157.318 133.174 157.111 133.46 157.036C133.634 156.985 133.815 156.985 133.983 157.042Z" fill="#D8BF66"/>
<path d="M157.593 154.654C158.034 154.7 158.445 154.367 158.563 153.953C158.706 153.43 158.314 152.975 157.798 152.906C157.729 152.901 157.661 152.895 157.599 152.901C157.151 152.935 156.79 153.28 156.803 153.74C156.821 154.125 157.076 154.499 157.449 154.62C157.493 154.637 157.543 154.649 157.593 154.654Z" fill="#D8BF66"/>
<path d="M131.849 156.478C131.42 156.358 130.935 156.559 130.81 157.007C130.692 157.444 130.991 157.876 131.407 157.996C131.83 158.117 132.316 157.916 132.452 157.479C132.583 157.036 132.272 156.605 131.849 156.478Z" fill="#D8BF66"/>
<path d="M155.857 154.672C155.776 154.689 155.695 154.695 155.614 154.683C155.309 154.643 155.036 154.424 154.924 154.143C154.793 153.821 154.911 153.47 155.191 153.269C155.278 153.205 155.378 153.159 155.477 153.136C155.925 153.033 156.373 153.309 156.429 153.775C156.466 154.148 156.242 154.574 155.857 154.672Z" fill="#D8BF66"/>
<path d="M129.864 156.018C130.25 156.122 130.524 156.501 130.424 156.898C130.318 157.289 129.895 157.49 129.516 157.393C129.137 157.295 128.875 156.915 128.962 156.524C129.056 156.128 129.479 155.921 129.864 156.018Z" fill="#D8BF66"/>
<path d="M154.364 155.235C154.662 155.034 154.731 154.609 154.581 154.292C154.395 153.913 153.922 153.821 153.58 154.045C153.431 154.143 153.312 154.298 153.269 154.476C153.219 154.683 153.269 154.902 153.412 155.063C153.549 155.218 153.742 155.31 153.947 155.327C154.09 155.345 154.239 155.316 154.364 155.235Z" fill="#D8BF66"/>
<path d="M128.066 155.662C127.718 155.587 127.357 155.794 127.283 156.15C127.214 156.501 127.444 156.835 127.793 156.915C128.135 156.99 128.496 156.783 128.576 156.438C128.657 156.081 128.415 155.742 128.066 155.662Z" fill="#D8BF66"/>
<path d="M153.231 156.185C153.032 156.438 152.64 156.472 152.367 156.317C152.037 156.122 151.987 155.696 152.211 155.403C152.441 155.11 152.864 155.052 153.138 155.317C153.362 155.541 153.43 155.926 153.231 156.185Z" fill="#D8BF66"/>
<path d="M126.443 155.403C126.754 155.46 126.971 155.765 126.915 156.075C126.853 156.386 126.548 156.587 126.244 156.535C125.933 156.478 125.727 156.179 125.777 155.868C125.827 155.558 126.125 155.345 126.443 155.403Z" fill="#D8BF66"/>
<path d="M152.522 157.352C152.615 157.076 152.447 156.766 152.192 156.639C151.888 156.496 151.539 156.657 151.433 156.967C151.328 157.283 151.489 157.628 151.825 157.709C152.105 157.766 152.422 157.628 152.522 157.352Z" fill="#D8BF66"/>
<path d="M124.974 155.224C124.688 155.19 124.44 155.397 124.408 155.673C124.377 155.943 124.558 156.213 124.838 156.253C125.118 156.288 125.366 156.087 125.41 155.811C125.447 155.535 125.254 155.264 124.974 155.224Z" fill="#D8BF66"/>
<path d="M152.236 158.606C152.236 158.865 152.006 159.078 151.757 159.118C151.44 159.164 151.197 158.911 151.197 158.606C151.197 158.491 151.228 158.382 151.29 158.284C151.396 158.135 151.57 158.054 151.757 158.083C151.925 158.106 152.08 158.215 152.167 158.365C152.211 158.434 152.236 158.52 152.236 158.606Z" fill="#D8BF66"/>
<path d="M123.656 155.127C123.911 155.15 124.079 155.391 124.054 155.638C124.029 155.88 123.817 156.081 123.568 156.058C123.32 156.035 123.158 155.794 123.177 155.558C123.195 155.305 123.401 155.104 123.656 155.127Z" fill="#D8BF66"/>
<path d="M152.423 159.716C152.385 159.636 152.323 159.573 152.255 159.527C152.13 159.458 151.981 159.435 151.844 159.475C151.695 159.515 151.583 159.63 151.545 159.774C151.521 159.883 151.533 159.992 151.577 160.09C151.689 160.337 151.981 160.452 152.223 160.309C152.404 160.194 152.516 159.935 152.423 159.716Z" fill="#D8BF66"/>
<path d="M122.467 155.086C122.237 155.08 122.075 155.276 122.069 155.494C122.063 155.707 122.206 155.914 122.43 155.925C122.654 155.931 122.816 155.736 122.834 155.529C122.841 155.31 122.691 155.097 122.467 155.086Z" fill="#D8BF66"/>
<path d="M153.001 160.631C153.15 160.786 153.138 161.039 153.014 161.2C152.858 161.39 152.578 161.39 152.41 161.223C152.354 161.172 152.317 161.103 152.298 161.028C152.255 160.873 152.304 160.712 152.435 160.614C152.553 160.522 152.709 160.493 152.852 160.539C152.902 160.556 152.958 160.591 153.001 160.631Z" fill="#D8BF66"/>
<path d="M121.397 155.104C121.602 155.104 121.733 155.293 121.733 155.483C121.727 155.667 121.596 155.857 121.403 155.863C121.204 155.863 121.074 155.673 121.068 155.489C121.061 155.299 121.192 155.109 121.397 155.104Z" fill="#D8BF66"/>
<path d="M153.81 161.269C153.629 161.183 153.412 161.258 153.312 161.419C153.194 161.609 153.275 161.839 153.468 161.942L153.474 161.942C153.667 162.034 153.897 161.954 153.978 161.752C154.04 161.586 153.984 161.361 153.81 161.269Z" fill="#D8BF66"/>
<path d="M120.433 155.172C120.253 155.184 120.153 155.368 120.165 155.529C120.178 155.69 120.296 155.856 120.47 155.851C120.644 155.839 120.744 155.661 120.738 155.494C120.738 155.333 120.613 155.161 120.433 155.172Z" fill="#D8BF66"/>
<path d="M154.718 161.609C154.892 161.643 155.017 161.816 155.004 161.988C154.986 162.19 154.793 162.31 154.6 162.276C154.407 162.241 154.277 162.057 154.326 161.868C154.376 161.707 154.544 161.58 154.718 161.609Z" fill="#D8BF66"/>
<path d="M65.8164 146.51C66.9798 146.32 67.8757 145.612 68.6098 144.715C70.0655 142.915 70.8681 140.729 71.8261 138.647C72.8402 136.449 74.0409 134.229 75.8326 132.567C78.9619 129.696 83.5283 130.145 86.2906 133.205C89.3763 136.656 88.3996 141.379 83.6092 142.104C82.9497 142.201 82.2779 142.201 81.6246 142.058C79.4845 141.58 78.0101 139.412 78.682 137.295C79.0739 136.087 80.1191 135.27 81.326 135C81.7802 134.902 82.8191 135.017 82.788 135.684C82.732 136.518 81.158 136.553 80.6043 137.105C80.4177 137.295 80.2746 137.525 80.1937 137.778C79.8018 139.015 80.7412 140.228 81.9606 140.499C82.4209 140.597 82.9 140.591 83.3666 140.522C86.9065 139.987 87.3482 136.771 85.1023 134.258C82.9249 131.842 79.385 131.457 76.9089 133.729C75.2727 135.247 74.1902 137.306 73.2633 139.308C72.2492 141.517 71.3844 143.8 69.8416 145.71C68.8586 146.912 67.6144 147.821 66.0653 148.068C64.5411 148.316 64.2549 146.763 65.8164 146.51Z" fill="#D8BF66"/>
<path fill-rule="evenodd" clip-rule="evenodd" d="M82.5076 135.005C83.7832 135.023 84.8099 136.098 84.7913 137.404C84.7788 138.71 83.7272 139.757 82.4516 139.745C81.176 139.728 80.1493 138.652 80.168 137.346C80.1804 136.035 81.232 134.988 82.5076 135.005Z" fill="#D8BF66"/>
<path fill-rule="evenodd" clip-rule="evenodd" d="M70.4203 147.62C72.7159 146.734 75.3662 145.854 77.6743 145.67C74.9307 142.115 76.3553 136.915 78.5328 133.723C77.8858 133.901 76.2807 135.938 75.2791 137.721C74.0908 139.837 73.3691 142.196 72.3551 144.324C71.6645 145.791 70.9553 147.304 70.4203 147.62Z" fill="#D8BF66"/>
<path d="M79.0242 140.89C79.4535 141.735 79.9761 142.265 80.872 142.621C86.9003 144.991 92.3999 138.612 98.7083 141.304C101.085 142.322 102.889 143.432 105.564 143.317C106.41 143.283 107.63 142.075 108.301 142.5C108.749 142.788 108.644 143.421 108.314 143.754C107.598 144.468 106.647 144.859 105.639 144.899C102.677 145.026 100.705 143.881 98.0862 142.759C91.9956 140.154 86.5022 146.533 80.2934 144.088C79.0554 143.593 78.0413 142.708 77.5498 141.459C76.9526 139.97 78.2404 139.343 79.0242 140.89Z" fill="#D8BF66"/>
<path d="M108.936 143.214C108.594 146.717 102.124 150.962 102.366 152.354C102.385 152.699 100.836 153.165 100.78 152.474C100.537 149.598 106.827 147.039 107.213 143.03C107.368 141.816 109.023 142.132 108.936 143.214Z" fill="#D8BF66"/>
<path d="M100.929 151.848C104.942 147.246 115.891 152.216 121.186 151.951C121.503 151.94 121.64 152.48 121.665 152.705C121.696 152.981 121.646 153.51 121.273 153.533C116.769 153.757 104.985 149.317 101.856 153.13C101.06 153.918 100.425 152.429 100.929 151.848Z" fill="#D8BF66"/>
<path d="M121.528 153.568C120.041 154.488 118.386 154.81 116.75 155.356C116.028 155.598 115.095 155.857 114.373 156.098C113.49 156.398 113.179 157.163 114.348 157.393C116.084 157.738 117.758 157.824 119.413 157.876C124.029 158.014 127.768 158.566 131.942 160.516C136.197 162.506 140.26 165.083 143.613 168.183C143.949 168.5 144.204 169.109 143.825 169.495C143.451 169.852 142.867 169.656 142.531 169.351C139.289 166.36 135.351 163.875 131.239 161.954C127.245 160.09 123.798 159.912 119.381 159.797C116.576 159.722 114.037 159.521 112.843 158.411C111.891 157.525 111.524 155.753 113.135 154.902C114.1 154.39 115.207 154.206 116.24 153.861C117.745 153.355 119.313 153.079 120.682 152.227C122.15 151.307 122.946 152.664 121.528 153.568Z" fill="#D8BF66"/>
<path d="M142.338 169.621C138.543 167.861 134.25 167.596 130.126 167.729C124.831 167.907 119.593 168.77 114.342 169.408C109.844 169.943 105.191 169.828 100.861 168.367C98.8762 167.683 97.0036 166.711 95.355 165.411C94.0672 164.381 92.9411 163.167 92.0079 161.81C91.0188 160.343 92.3066 159.434 93.3206 160.918C94.1605 162.143 95.1808 163.242 96.3441 164.168C97.8497 165.359 99.5605 166.245 101.371 166.866C105.471 168.252 109.888 168.344 114.143 167.832C119.437 167.188 124.726 166.319 130.063 166.141C134.437 166.003 138.978 166.314 143.004 168.183C144.478 168.873 143.825 170.306 142.338 169.621Z" fill="#D8BF66"/>
<path d="M61.7975 151.163C62.289 150.818 62.8613 150.605 63.4524 150.479C64.174 150.323 64.9206 150.318 65.6547 150.41C67.1851 150.6 68.6471 151.18 70.0096 151.882C71.2663 152.532 72.4669 153.314 73.5743 154.195C73.9912 154.528 74.3955 154.873 74.7688 155.253C74.9368 155.42 75.0923 155.598 75.2354 155.782C75.4594 156.098 75.4034 157.243 75.1794 157.335C74.5138 157.611 74.1031 156.84 73.6365 156.363C73.3068 156.029 72.9522 155.725 72.5852 155.431C71.5586 154.614 70.445 153.89 69.2817 153.286C68.0872 152.67 66.7994 152.147 65.4618 151.98C64.9081 151.911 64.342 151.911 63.7945 152.026C63.4026 152.112 63.0231 152.262 62.6871 152.486C61.3496 153.355 60.8332 151.842 61.7975 151.163Z" fill="#D8BF66"/>
<path d="M73.8729 156.024C73.8481 155.851 73.8294 155.673 73.8232 155.5C73.8107 154.672 74.072 153.878 74.5635 153.211C75.111 152.48 75.8824 151.963 76.7161 151.618C77.7675 151.186 78.9122 151.019 80.0382 150.991C84.4055 150.899 88.4618 151.876 92.1012 154.333C95.019 156.311 97.6008 158.704 100.855 160.159C110.734 164.491 121.795 165.141 132.402 164.03C132.863 163.984 134.157 163.933 134.256 164.611C134.331 165.307 133.037 165.56 132.577 165.606C121.69 166.745 110.348 166.055 100.214 161.609C96.8667 160.108 94.2164 157.68 91.2116 155.644C87.8459 153.372 84.1194 152.492 80.0818 152.578C79.1486 152.601 78.1967 152.733 77.3257 153.084C76.7596 153.32 76.2121 153.66 75.8389 154.16C75.5589 154.54 75.4034 154.994 75.4096 155.466C75.4096 155.569 75.422 155.673 75.4407 155.776C75.5091 156.196 75.7144 157.145 75.2852 157.439C74.5946 157.887 73.9538 156.478 73.8729 156.024Z" fill="#D8BF66"/>
<path fill-rule="evenodd" clip-rule="evenodd" d="M78.4208 164.916C80.1005 164.939 81.4443 166.314 81.4194 167.988C81.4007 169.662 80.0258 171.002 78.3461 170.979C76.6664 170.956 75.3226 169.581 75.3475 167.907C75.3661 166.234 76.7472 164.893 78.4208 164.916Z" fill="#D8BF66"/>
<path fill-rule="evenodd" clip-rule="evenodd" d="M84.9588 163.098C86.3278 163.116 87.4229 164.237 87.4042 165.6C87.3856 166.964 86.2655 168.057 84.9028 168.039C83.5339 168.022 82.4387 166.9 82.4574 165.537C82.4699 164.174 83.5899 163.081 84.9588 163.098Z" fill="#D8BF66"/>
<path fill-rule="evenodd" clip-rule="evenodd" d="M88.953 159.578C89.9984 159.59 90.8322 160.447 90.8197 161.488C90.8073 162.529 89.9548 163.363 88.9095 163.351C87.8703 163.34 87.0303 162.483 87.0428 161.442C87.0552 160.395 87.9139 159.567 88.953 159.578Z" fill="#D8BF66"/>
<path fill-rule="evenodd" clip-rule="evenodd" d="M88.1816 155.603C89.0652 155.615 89.7746 156.34 89.7621 157.22C89.7497 158.1 89.0279 158.807 88.1443 158.796C87.2607 158.784 86.5576 158.06 86.5638 157.179C86.5762 156.299 87.298 155.592 88.1816 155.603Z" fill="#D8BF66"/>
<path fill-rule="evenodd" clip-rule="evenodd" d="M84.8657 153.694C85.5999 153.706 86.1848 154.304 86.1786 155.034C86.1724 155.765 85.5688 156.352 84.8346 156.34C84.1003 156.329 83.5154 155.73 83.5216 155C83.5279 154.269 84.1314 153.688 84.8657 153.694Z" fill="#D8BF66"/>
<path fill-rule="evenodd" clip-rule="evenodd" d="M81.5689 155.15C82.247 155.162 82.7943 155.714 82.7819 156.392C82.7757 157.071 82.2159 157.617 81.5379 157.605C80.8599 157.594 80.3125 157.042 80.3249 156.363C80.3311 155.685 80.8847 155.144 81.5689 155.15Z" fill="#D8BF66"/>
<path fill-rule="evenodd" clip-rule="evenodd" d="M79.9886 157.836C80.536 157.842 80.9714 158.29 80.9652 158.837C80.959 159.383 80.5111 159.82 79.9638 159.808C79.4164 159.803 78.981 159.354 78.9872 158.808C78.9934 158.267 79.4413 157.83 79.9886 157.836Z" fill="#D8BF66"/>
<path d="M70.5197 149.495C73.8979 148.92 77.276 148.207 80.7101 148.12C84.7975 148.034 88.6982 149.052 92.0266 151.468C95.6163 154.085 99.2806 156.426 103.43 158.066C107.356 159.596 111.592 160.286 115.761 160.775C116.215 160.826 117.378 161.085 117.322 161.741C117.248 162.408 116.034 162.403 115.574 162.351C111.269 161.85 106.902 161.126 102.845 159.544C98.5651 157.858 94.7826 155.448 91.0872 152.751C88.0388 150.536 84.4802 149.633 80.7475 149.708C77.388 149.788 74.0845 150.496 70.7873 151.06C70.3331 151.134 69.487 151.077 69.3875 150.484C69.3004 149.903 70.0656 149.57 70.5197 149.495Z" fill="#D8BF66"/>
<path d="M70.9615 149.351C76.1065 147.424 81.7803 146.613 87.2674 146.682C89.9363 146.717 92.599 147.016 95.2679 146.981C97.7067 146.941 100.176 146.63 102.416 145.606C102.802 145.434 103.293 145.572 103.505 145.952C103.729 146.371 103.499 146.86 103.088 147.05C100.643 148.166 97.9617 148.523 95.2928 148.569C92.6052 148.603 89.9301 148.304 87.2425 148.27C81.9607 148.206 76.4797 148.983 71.5214 150.835C71.1232 150.985 70.6878 150.754 70.526 150.375C70.3705 149.972 70.5509 149.512 70.9615 149.351Z" fill="#D8BF66"/>
<path d="M83.1302 147.2C86.303 147.01 89.3141 147.804 92.1012 149.294C94.9692 150.83 97.5448 152.854 100.351 154.488C101.968 155.414 103.853 155.863 105.713 155.799C106.566 155.765 107.418 155.621 108.221 155.333C108.724 155.149 109.21 154.902 109.639 154.586C109.956 154.356 110.417 154.488 110.678 154.747C110.995 155.08 110.945 155.592 110.585 155.868C110.031 156.277 109.415 156.587 108.768 156.823C107.81 157.174 106.79 157.347 105.769 157.387C103.611 157.462 101.427 156.944 99.5481 155.863C96.7547 154.235 94.1978 152.222 91.3422 150.697C88.8102 149.351 86.0977 148.621 83.2173 148.793C82.788 148.816 82.3463 148.523 82.2903 148.08C82.253 147.591 82.6823 147.229 83.1302 147.2Z" fill="#D8BF66"/>
<path fill-rule="evenodd" clip-rule="evenodd" d="M19.941 19.1311C20.0157 19.9134 20.1339 20.5174 20.2894 21.0005C20.7373 22.3695 22.1371 23.6005 23.1699 24.5495C24.4265 25.6999 26.1063 26.9481 26.2556 25.3261C26.3427 24.3655 26.5418 23.4279 27.4252 22.0417C27.0768 22.893 26.8217 23.6752 26.7657 24.7394C26.716 25.6769 26.8466 26.9079 26.7284 27.4773C26.8404 27.9202 26.7159 29.0591 27.0706 31.1931C26.1249 27.8684 21.1479 23.054 18.1431 20.9718C17.664 20.6382 17.3903 20.5346 16.7619 19.7179C18.0186 20.7245 18.8398 21.1673 19.3375 21.0178C19.9037 20.8567 20.053 19.9824 19.941 19.1311Z" fill="#D8BF66"/>
<path fill-rule="evenodd" clip-rule="evenodd" d="M33.3353 11.7228C32.2902 12.2117 32.2902 13.4024 32.3897 14.501C32.7257 18.1823 33.6402 18.7172 32.1035 22.341C31.5996 23.5317 30.4238 25.1538 30.2496 25.9705C29.6026 29.0249 30.6104 32.384 29.2729 36.3414C29.1484 37.4803 29.0924 38.6595 29.0053 39.5568C28.8125 41.5297 28.3894 42.22 26.8839 37.9807C25.6085 34.6101 22.7094 29.5943 18.7465 25.5621C15.1133 21.8636 11.4303 18.838 8.64318 14.8979C5.07218 9.85914 4.64912 4.8894 4.77977 0.000184424C6.47817 3.52617 12.1769 6.48844 14.5721 8.95606C16.9735 11.4294 16.2331 16.7558 18.3234 16.5085C20.1401 16.2899 17.9875 12.6489 17.4338 10.7622C16.6686 8.13928 18.1244 5.33805 19.182 3.07176C18.6718 6.3159 21.7202 9.6348 23.6115 11.8896C24.6629 13.1435 23.7359 15.7492 23.6799 16.3187C23.5742 17.4 22.2553 19.4305 23.512 20.834C25.4468 22.9967 25.4219 18.0615 26.0316 16.9169C27.1763 14.7483 30.0941 12.4705 33.3353 11.7228ZM14.9391 14.2019C14.3978 12.2117 13.925 11.4409 13.0416 10.6241C11.1441 8.86978 8.10194 7.32824 6.51552 5.59113C6.89502 7.34549 7.43627 9.48524 8.46278 11.2569C11.3059 16.1576 16.3575 20.9088 19.8788 24.2047C21.2848 25.5219 22.7717 27.1555 23.9413 28.7775C25.3535 30.739 26.6973 33.2181 27.7051 35.0415C28.209 33.1433 28.7752 31.5672 28.3086 28.5532C28.2961 23.2671 29.9323 23.1923 30.9526 19.9712C31.3259 18.7172 30.9588 16.6753 30.6477 14.8864C28.9991 16.0656 27.5993 16.9629 27.027 18.8725C26.5479 20.4774 26.5542 22.5999 25.4779 23.2728C23.2133 24.6821 21.3345 21.0928 21.1666 19.0969C21.0546 17.7739 22.1931 16.1921 22.2802 14.6966C22.5477 10.7737 19.8663 11.5157 18.7589 7.0694C17.7884 9.54277 18.7527 10.5551 19.7419 12.8042C20.7373 15.0532 20.4387 17.7624 19.0016 18.2226C17.5707 18.6942 16.0029 18.0845 14.9391 14.2019Z" fill="#D8BF66"/>
<path fill-rule="evenodd" clip-rule="evenodd" d="M13.1412 165.532C15.3124 165.382 16.9486 163.403 16.7869 161.108C16.6314 158.813 14.7401 157.076 12.5626 157.22C10.3914 157.369 8.75523 159.348 8.91698 161.637C9.07251 163.938 10.9638 165.681 13.1412 165.532Z" fill="#D8BF66"/>
<path d="M19.6611 162.627C19.5242 163.513 19.2193 164.37 18.7465 165.135C18.2862 165.877 17.6765 166.515 16.9735 167.033C15.4928 168.126 13.6514 168.666 11.8161 168.678C5.92456 168.684 0.928891 162.08 4.66164 156.599C6.68977 153.625 12.3076 151.871 15.0014 154.936C15.5239 155.529 15.8536 156.265 15.9781 157.047C15.443 156.616 14.852 156.265 14.1988 156.058C11.8223 155.253 8.74278 156.397 7.30568 158.416C4.79851 162.006 7.89046 166.613 11.9218 167.269C13.5269 167.533 15.2191 167.303 16.6624 166.538C17.3841 166.153 18.0311 165.629 18.5413 164.985C19.0887 164.301 19.4682 163.49 19.6611 162.627Z" fill="#D8BF66"/>
<path d="M12.7367 164.053C13.3775 164.007 13.9996 163.835 14.5658 163.541C15.1195 163.248 15.6109 162.851 16.0153 162.368C16.4259 161.879 16.7432 161.31 16.9423 160.706C17.1538 160.067 17.2347 159.388 17.1849 158.715C17.1102 157.674 16.8427 156.65 16.3761 155.707C15.9344 154.827 15.3247 154.039 14.5844 153.389C13.8441 152.751 12.9918 152.256 12.0648 151.945C11.1005 151.623 10.0802 151.497 9.06616 151.56C8.02721 151.635 7.02558 151.94 6.10484 152.423C5.17165 152.923 4.34422 153.602 3.65366 154.401C2.95688 155.212 2.40944 156.144 2.0486 157.151C1.68777 158.163 1.53222 159.239 1.60065 160.314C1.70642 161.764 2.11082 163.167 2.78893 164.456C3.45461 165.71 4.36292 166.82 5.43919 167.74C6.52169 168.655 7.75969 169.368 9.09726 169.828C10.441 170.288 11.8657 170.496 13.2842 170.398C14.8208 170.288 16.3077 169.777 17.6328 169.006C19.2255 168.074 20.5755 166.791 21.6642 165.307C22.9333 163.576 24.0905 159.164 20.0094 154.971L28.968 163.219L26.9958 162.178C25.7578 161.528 25.341 161.937 24.8246 163.052C24.3082 164.174 23.6861 165.244 22.952 166.245C21.7389 167.901 20.2209 169.334 18.4416 170.375C16.9049 171.266 15.1817 171.853 13.4024 171.974C11.7724 172.083 10.1362 171.847 8.58714 171.318C7.06294 170.789 5.65071 169.978 4.4189 168.937C3.18709 167.884 2.14814 166.613 1.38915 165.186C0.611497 163.708 0.138673 162.08 0.0204688 160.412C-0.0666283 159.118 0.126222 157.824 0.555488 156.604C0.978534 155.414 1.63176 154.309 2.45296 153.349C3.27417 152.4 4.25715 151.6 5.35832 151.008C6.47192 150.415 7.69749 150.047 8.96041 149.961C10.186 149.88 11.4116 150.036 12.575 150.427C13.6948 150.806 14.7337 151.405 15.6296 152.181C16.5254 152.963 17.2658 153.918 17.8008 154.988C18.3607 156.116 18.6842 157.341 18.7713 158.595C18.8335 159.469 18.7216 160.355 18.4478 161.189C18.1865 161.988 17.7697 162.736 17.2347 163.38C16.6996 164.019 16.0402 164.554 15.3061 164.939C14.5471 165.336 13.7072 165.572 12.8487 165.629C12.8114 165.112 12.774 164.582 12.7367 164.053Z" fill="#D8BF66"/>
<path fill-rule="evenodd" clip-rule="evenodd" d="M27.9291 145.267C28.2402 146.884 28.0722 148.356 28.2713 149.644C28.4641 150.904 29.6586 154.516 30.9277 156.765C29.6462 155.558 28.8374 154.752 27.674 152.325C26.7533 150.409 27.1514 152.244 28.0411 154.804C29.6026 159.308 32.0413 162.167 35.5937 163.858C36.7757 164.421 38.076 164.749 39.4882 164.755C41.591 164.761 43.0032 166.389 44.2412 166.124C45.473 165.859 46.3938 165.089 45.1495 164.462C42.8103 163.536 40.0792 162.621 37.74 161.689C35.3511 159.038 32.9621 156.386 30.5669 153.728C29.5404 150.91 28.9494 148.08 27.9291 145.267Z" fill="#D8BF66"/>
</g>
</svg>
