<svg width="320" height="172" viewBox="0 0 320 172" fill="none" xmlns="http://www.w3.org/2000/svg">
<g opacity="0.4">
<path d="M14.5724 130.89C15.2132 130.879 15.8478 130.741 16.4263 130.476C16.9987 130.217 17.5088 129.843 17.9443 129.383C18.3798 128.917 18.7282 128.365 18.9646 127.773C19.2072 127.146 19.3317 126.473 19.3254 125.8C19.313 124.753 19.1015 123.717 18.6909 122.757C18.2989 121.854 17.739 121.037 17.036 120.347C16.333 119.668 15.5056 119.127 14.6035 118.765C13.6579 118.391 12.65 118.207 11.6298 118.219C10.5908 118.236 9.57052 118.489 8.62489 118.92C7.66681 119.369 6.80206 120.002 6.06173 120.761C5.3214 121.537 4.71794 122.435 4.30112 123.424C3.88429 124.419 3.66655 125.483 3.67277 126.559C3.69144 128.008 4.02116 129.435 4.6184 130.758C5.20942 132.046 6.04929 133.203 7.0758 134.18C8.1023 135.152 9.30301 135.929 10.6095 136.47C11.9222 137.005 13.3344 137.286 14.759 137.269C16.3019 137.246 17.8137 136.815 19.1824 136.119C20.8248 135.279 22.2494 134.065 23.419 132.645C24.8686 130.879 25.9262 128.819 26.6541 126.662C27.5873 123.867 27.9916 120.916 28.0414 117.977C28.1347 111.851 27.525 105.236 24.57 99.7546C23.4937 97.7816 22.0504 95.964 20.1031 94.7963C18.2056 93.6747 16.0282 93.3411 13.857 93.6229C13.7885 93.0995 13.7201 92.5703 13.6517 92.0468C16.1775 91.719 18.7158 92.1331 20.9181 93.4331C23.108 94.7503 24.7566 96.7693 25.9697 98.9953C29.0555 104.724 29.7336 111.598 29.6341 118.006C29.5781 121.106 29.155 124.218 28.1658 127.169C27.3757 129.51 26.231 131.742 24.6508 133.657C23.3382 135.244 21.7455 136.596 19.9102 137.534C18.3238 138.339 16.5694 138.834 14.7839 138.857C13.1477 138.874 11.5302 138.552 10.0122 137.942C8.51913 137.332 7.15667 136.441 5.98708 135.337C4.81748 134.221 3.85319 132.898 3.17507 131.425C2.48451 129.907 2.10502 128.256 2.08635 126.588C2.07391 125.293 2.34142 124.011 2.83912 122.814C3.3306 121.647 4.03983 120.583 4.91702 119.668C5.788 118.765 6.8145 118.017 7.95299 117.488C9.10393 116.959 10.342 116.654 11.6111 116.637C12.8367 116.625 14.056 116.844 15.1945 117.298C16.2895 117.741 17.2973 118.391 18.1434 119.214C18.9957 120.048 19.6801 121.037 20.1529 122.136C20.6443 123.292 20.8994 124.534 20.9181 125.788C20.9305 126.668 20.7688 127.543 20.4515 128.359C20.1404 129.142 19.6863 129.866 19.1139 130.476C18.5416 131.086 17.8572 131.58 17.0982 131.926C16.3144 132.282 15.462 132.472 14.6035 132.484C14.5848 131.949 14.5786 131.419 14.5724 130.89Z" fill="#D8BF66"/>
<path fill-rule="evenodd" clip-rule="evenodd" d="M14.8831 132.392C17.0605 132.363 18.8025 130.476 18.7776 128.175C18.7527 125.874 16.961 124.034 14.7836 124.063C12.6061 124.091 10.8642 125.978 10.8891 128.279C10.9202 130.58 12.7057 132.42 14.8831 132.392Z" fill="#D8BF66"/>
<path d="M21.5646 129.849C21.378 130.729 21.0234 131.569 20.507 132.305C20.0031 133.019 19.3623 133.623 18.6282 134.106C14.5906 136.746 8.75509 135.457 6.38479 131.172C4.09537 126.927 6.18571 121.808 10.8081 120.376C13.8005 119.484 17.8568 120.548 18.2114 124.08C16.4135 122.452 14.0307 122.297 11.8159 123.24C7.76591 124.977 7.28687 129.918 10.6401 132.656C12.7367 134.388 15.8846 134.727 18.342 133.594C19.0824 133.249 19.7605 132.76 20.308 132.15C20.899 131.489 21.322 130.701 21.5646 129.849Z" fill="#D8BF66"/>
<path fill-rule="evenodd" clip-rule="evenodd" d="M23.5558 127.577C24.595 127.566 25.4288 126.709 25.4163 125.673C25.4039 124.638 24.5514 123.804 23.5123 123.815C22.4731 123.827 21.6393 124.684 21.6517 125.719C21.6642 126.76 22.5167 127.589 23.5558 127.577Z" fill="#D8BF66"/>
<path fill-rule="evenodd" clip-rule="evenodd" d="M24.035 121.434C25.3105 121.417 26.3372 120.37 26.3186 119.093C26.3061 117.816 25.2545 116.798 23.9789 116.815C22.7033 116.832 21.6767 117.879 21.6953 119.156C21.7078 120.427 22.7594 121.451 24.035 121.434Z" fill="#D8BF66"/>
<path fill-rule="evenodd" clip-rule="evenodd" d="M23.3688 114.825C24.8557 114.807 26.0439 113.588 26.0253 112.104C26.0066 110.62 24.7873 109.435 23.3066 109.452C21.8197 109.47 20.6315 110.689 20.6501 112.173C20.6688 113.657 21.8819 114.842 23.3688 114.825Z" fill="#D8BF66"/>
<path fill-rule="evenodd" clip-rule="evenodd" d="M21.4838 108.107C23.232 108.084 24.638 106.646 24.6131 104.897C24.5944 103.148 23.1573 101.751 21.4092 101.774C19.661 101.797 18.255 103.235 18.2799 104.983C18.2985 106.732 19.7356 108.13 21.4838 108.107Z" fill="#D8BF66"/>
<path fill-rule="evenodd" clip-rule="evenodd" d="M16.6747 102.107C18.5784 102.084 20.1026 100.52 20.084 98.6158C20.0591 96.7118 18.4976 95.1933 16.5939 95.2163C14.6902 95.2393 13.166 96.8039 13.1846 98.7078C13.2095 100.612 14.771 102.136 16.6747 102.107Z" fill="#D8BF66"/>
<path fill-rule="evenodd" clip-rule="evenodd" d="M13.3838 93.5425C15.275 85.9614 11.3743 82.3319 8.89824 71.2592C7.31182 64.1613 6.28531 55.585 7.56689 45.8238C9.76922 34.2738 13.9748 23.9029 21.5212 15.3784C25.9569 9.71842 30.1438 7.21054 34.3369 6.46853C37.5969 5.89333 37.516 8.09635 44.5336 6.64684C14.1925 14.4006 2.47169 47.9751 13.8255 75.2972C16.3451 81.354 20.0218 87.2268 19.7108 94.089C17.776 93.5541 15.3124 93.4448 13.3838 93.5425Z" fill="#D8BF66"/>
<path d="M25.229 137.752C30.094 128.204 30.797 117.499 28.9368 107.082C27.0269 96.5677 22.8773 86.611 18.3545 76.9879C11.8844 63.1197 9.17812 47.2327 12.183 32.1106C12.6994 32.2142 19.692 21.5959 20.2084 21.6995C16.9796 21.849 10.6401 39.9967 13.0602 53.0882C14.5284 61.0433 16.3761 69.0098 19.7978 76.3149C24.3704 86.0703 28.5698 96.1536 30.5046 106.806C32.4269 117.568 31.6742 128.624 26.6474 138.483C26.1684 138.235 25.7018 137.994 25.229 137.752Z" fill="#D8BF66"/>
<path d="M48.4343 73.4392C48.3658 72.7317 48.2476 71.9954 48.4343 71.2994C48.5463 70.8968 48.7702 70.5402 49.1062 70.2871C49.4732 70.0168 49.9212 69.896 50.3629 69.8499C50.9352 69.7924 51.5076 69.7694 52.0799 69.8269C52.5963 69.8845 53.1064 70.0168 53.5606 70.2813C54.0147 70.5459 54.3818 70.9371 54.6306 71.403C54.8982 71.9149 55.0288 72.4844 55.0848 73.0596C55.147 73.7096 55.0724 74.3653 54.8733 74.9865C54.6742 75.5847 54.3569 76.1426 53.9463 76.6201C53.5295 77.1032 53.0256 77.5059 52.4594 77.805C51.8684 78.1156 51.2214 78.3054 50.5619 78.3744C49.6536 78.4665 48.7329 78.3572 47.8557 78.1041C46.9474 77.8337 46.0951 77.4081 45.3423 76.8329C44.5709 76.2404 43.9239 75.4984 43.4697 74.6356C42.9845 73.7038 42.7605 72.6684 42.7916 71.6216C42.8289 70.5114 43.0964 69.4243 43.563 68.4177C44.0359 67.4053 44.6766 66.485 45.4045 65.6395C47.0345 63.7586 49.0191 62.2113 50.9539 60.6582C55.3834 57.1322 59.8254 53.4164 62.1397 48.1016C63.7759 44.2937 64.8833 40.1465 64.9828 35.9878C65.0139 34.3945 64.9019 32.7725 64.4416 31.2367C64.1118 30.1495 63.583 29.0624 62.6747 28.3377C63.0044 27.9235 63.3342 27.5094 63.6639 27.0952C64.8211 28.0213 65.5303 29.373 65.9595 30.7765C66.4697 32.4676 66.6066 34.2622 66.5692 36.0223C66.4697 40.3881 65.3188 44.7309 63.6017 48.7285C61.1754 54.2965 56.5903 58.2021 51.9431 61.8949C50.0829 63.3789 48.173 64.863 46.6052 66.6691C45.9769 67.3996 45.4108 68.1934 45.0064 69.0734C44.6331 69.8902 44.4154 70.7645 44.3842 71.6618C44.3656 72.4384 44.5273 73.2034 44.8882 73.8994C45.2303 74.5551 45.7343 75.1188 46.3191 75.5675C46.9163 76.0219 47.5944 76.3612 48.3161 76.5741C48.9942 76.7696 49.7096 76.8617 50.4126 76.7926C50.873 76.7466 51.3209 76.6143 51.7315 76.3957C52.1173 76.1944 52.4656 75.9183 52.7518 75.5847C53.0256 75.2626 53.2433 74.8887 53.374 74.4861C53.5108 74.0777 53.5544 73.6463 53.517 73.2149C53.4797 72.8525 53.4113 72.4786 53.2371 72.1508C53.1251 71.9437 52.9696 71.7711 52.7705 71.6561C52.5154 71.5065 52.2168 71.4433 51.9182 71.4087C51.4578 71.3627 50.9912 71.3857 50.5308 71.4318C50.3753 71.449 50.1887 71.4663 50.0642 71.564C50.0145 71.6043 49.9958 71.6561 49.9771 71.7136C49.8465 72.2083 49.9772 72.795 50.0269 73.2896C49.4919 73.3357 48.9631 73.3874 48.4343 73.4392Z" fill="#D8BF66"/>
<path fill-rule="evenodd" clip-rule="evenodd" d="M50.5744 75.602C52.1484 75.1476 53.1438 73.5485 52.8016 72.03C52.4594 70.5114 50.9041 69.6429 49.3301 70.0973C47.7561 70.5517 46.7607 72.1507 47.1029 73.6693C47.4451 75.1878 49.0004 76.0564 50.5744 75.602Z" fill="#D8BF66"/>
<path fill-rule="evenodd" clip-rule="evenodd" d="M36.0913 68.9066C39.4694 65.4784 44.266 61.5556 47.4513 59.0189C53.5108 54.193 58.4256 50.9718 61.6358 46.0999C67.3469 37.4489 68.2241 28.7748 60.8643 20.6357C59.7569 19.4105 58.2514 17.6677 56.665 16.9717C62.009 23.4772 72.0439 44.1615 39.9298 53.0426C42.0202 58.0986 40.4586 63.7701 36.0913 68.9066Z" fill="#D8BF66"/>
<path d="M33.9512 29.2867C34.001 27.958 34.057 26.8996 34.7102 25.4271C35.1706 24.3917 35.9171 23.5117 36.8317 22.8329C37.6964 22.1945 38.698 21.7688 39.7494 21.5502C40.8195 21.3374 41.9207 21.3317 43.0031 21.4985C45.2988 21.8666 47.4327 22.9767 49.0751 24.6103C50.9104 26.4624 51.9866 28.9013 52.167 31.4955C52.2728 33.1003 52.08 34.7223 51.5574 36.2466C51.0659 37.6674 50.2945 38.9903 49.2742 40.1005C48.2663 41.1934 47.0407 42.0619 45.6721 42.6429C44.2412 43.2468 42.6921 43.5172 41.143 43.4712C39.1273 43.4021 37.1489 42.919 35.351 41.9929C33.6402 41.1071 32.1533 39.8474 30.9588 38.3404C29.7332 36.7816 28.8311 34.9984 28.2463 33.106C27.6304 31.0756 27.3754 28.9588 27.4438 26.8421C27.5309 24.4838 28.1717 22.1887 29.0987 20.0259C30.1003 17.7309 31.4378 15.5911 33.0243 13.647C34.5858 11.7488 36.3775 10.0404 38.4181 8.66571C40.2782 7.42328 42.3499 6.45694 44.5709 6.11182C44.6518 6.63525 44.7264 7.15869 44.8073 7.68212C42.8165 7.98698 40.9626 8.87279 39.3015 9.98293C37.3916 11.2714 35.7118 12.8762 34.2498 14.6536C32.763 16.4827 31.4938 18.4959 30.5544 20.6587C29.7021 22.6316 29.1049 24.7368 29.0302 26.8939C28.968 28.838 29.1982 30.7765 29.7643 32.6401C30.2931 34.3427 31.1019 35.9533 32.2031 37.3568C33.2607 38.6855 34.5733 39.7956 36.0789 40.5836C37.6591 41.4004 39.4135 41.8261 41.1865 41.8836C42.5055 41.9239 43.8244 41.6938 45.0437 41.1819C46.2009 40.6929 47.2398 39.9509 48.0921 39.0306C48.9631 38.0815 49.6226 36.9541 50.0394 35.7405C50.4935 34.4117 50.6553 33.0082 50.562 31.6105C50.4064 29.396 49.4919 27.3195 47.9304 25.7377C46.5244 24.34 44.6953 23.3851 42.7356 23.0688C41.846 22.9307 40.9315 22.9307 40.0481 23.109C39.2268 23.2758 38.443 23.6037 37.7649 24.1041C37.0619 24.6276 36.5144 25.3235 36.1287 26.1116C35.6496 27.1182 35.4443 28.2283 35.407 29.3385C34.8969 29.3154 34.48 29.3039 33.9512 29.2867Z" fill="#D8BF66"/>
<path fill-rule="evenodd" clip-rule="evenodd" d="M37.6591 32.7089C39.7121 32.6802 41.3545 30.8453 41.3296 28.6078C41.3047 26.3702 39.6188 24.5756 37.5658 24.6043C35.5128 24.6331 33.8704 26.468 33.8952 28.7055C33.9201 30.9431 35.6061 32.7377 37.6591 32.7089Z" fill="#D8BF66"/>
<path fill-rule="evenodd" clip-rule="evenodd" d="M30.6228 24.1963C29.055 27.8776 30.3304 33.4513 31.8795 36.0455C34.0009 39.6002 37.7337 41.1187 41.342 40.9577C43.4759 40.8657 48.0983 39.698 48.8697 35.6141C49.5727 31.881 47.2584 25.0419 41.7029 23.8052C42.5987 25.5768 42.9284 26.9343 42.8289 28.2342C42.7418 29.3789 42.325 30.4775 41.6655 31.7717C44.2473 33.7044 43.084 36.8738 41.4789 38.0299C39.3885 39.5369 35.662 39.1285 32.7505 35.6946C31.5124 34.2336 29.87 29.8563 30.6228 24.1963Z" fill="#D8BF66"/>
<path fill-rule="evenodd" clip-rule="evenodd" d="M36.8876 19.1001C41.2363 15.4476 55.7878 16.2356 56.8889 29.0511C58.5002 47.8315 36.0975 49.6088 31.4938 43.3794C31.5062 45.4904 33.4659 46.8191 36.1473 47.4461C40.0729 48.3664 45.5476 47.7912 48.7577 45.9908C54.164 42.9537 58.1705 37.4491 58.4505 29.8622C58.7055 23.0403 56.6587 18.732 53.4299 15.902C51.5573 14.2627 49.2803 13.1238 46.8167 12.284C49.2306 7.90672 59.6076 18.0993 65.2689 17.7714C70.9365 17.4436 73.9663 12.0194 81.0834 9.05137C75.9322 10.9323 72.2616 7.67088 73.3815 3.66748C70.2522 6.16961 67.9565 10.9035 63.2097 11.7433C58.4691 12.5831 53.349 7.52133 47.6815 9.21818C42.0201 10.9323 35.6682 14.9242 36.8876 19.1001Z" fill="#D8BF66"/>
<path d="M35.5438 119.455C36.589 112.881 35.9109 106.053 33.6961 99.7835C29.5901 88.2737 23.4559 77.6152 19.3064 66.1169C13.9125 50.9834 14.7275 35.4357 23.3751 21.7861C26.1 17.5354 29.4034 13.5722 33.3788 10.4374C33.7521 10.144 35.5438 8.85559 35.1457 8.19986C34.6604 7.49236 32.7629 8.90161 32.3959 9.18921C28.2712 12.4391 24.8495 16.5288 22.0313 20.9348C13.1162 34.9985 12.2452 51.0581 17.8008 66.6576C21.9504 78.1559 28.0845 88.8144 32.1843 100.324C34.3058 106.341 34.959 112.898 33.9574 119.214C33.8827 119.685 33.3415 122.257 34.0881 122.475C34.9715 122.653 35.4692 119.921 35.5438 119.455Z" fill="#D8BF66"/>
<path d="M30.9774 86.6455C26.9087 79.4268 23.2631 71.8744 21.2598 63.7928C18.3483 51.6905 20.4262 39.2489 24.0905 27.5436C24.2274 27.1122 24.5571 25.772 23.8977 25.5534C23.2258 25.3348 22.7094 26.6348 22.5725 27.0662C18.8149 39.0534 16.737 51.7826 19.717 64.1724C21.7513 72.392 25.453 80.0767 29.5901 87.4221C29.8203 87.8247 30.6104 89.0441 31.2325 88.6933C31.8422 88.3309 31.2014 87.0424 30.9774 86.6455Z" fill="#D8BF66"/>
<path d="M36.5765 88.6187C30.5668 83.7698 26.0253 77.4023 23.288 70.1893C23.1449 69.8154 22.6596 69.7751 22.3299 69.8902C21.9939 70.011 21.658 70.3676 21.8011 70.753C24.638 78.2306 29.3475 84.8339 35.5811 89.8612C36.7632 90.7297 37.404 89.2975 36.5765 88.6187Z" fill="#D8BF66"/>
<path d="M36.1659 75.1935C33.5841 74.1581 30.9774 73.1228 28.5511 71.7538C26.5665 70.6264 24.7437 69.2286 23.4124 67.3477C20.9301 63.7815 20.339 59.1856 19.972 54.9636C19.9284 54.515 19.6174 53.9628 19.0948 53.9916C18.5722 54.0376 18.3483 54.6473 18.3856 55.0959C18.7775 59.6113 19.4556 64.443 22.1059 68.2566C23.5679 70.333 25.5649 71.8861 27.761 73.1343C30.2495 74.5378 32.9184 75.6076 35.5687 76.666C37.0804 77.2585 37.5719 75.7687 36.1659 75.1935Z" fill="#D8BF66"/>
<path d="M25.1046 50.5576C23.6613 49.4935 22.5663 48.067 21.9442 46.3816C21.2412 44.4259 21.1541 42.315 21.3096 40.2557C21.6829 35.7174 23.1449 31.3516 24.327 26.9801C24.4327 26.5832 24.0843 26.2438 23.7297 26.1518C23.3751 26.0598 22.9085 26.1748 22.7965 26.5659C21.5834 31.0352 20.1027 35.4931 19.7232 40.1292C19.549 42.4185 19.6672 44.7481 20.4511 46.9223C21.179 48.901 22.4606 50.5863 24.1652 51.8345C24.5198 52.0934 25.1482 52.1797 25.3783 51.8115C25.5899 51.4894 25.4343 50.7992 25.1046 50.5576Z" fill="#D8BF66"/>
<path d="M25.8331 36.2467C24.9308 35.0905 24.4268 33.6295 24.1468 32.2088C23.8295 30.5579 23.8046 28.8266 24.265 27.1988C24.321 26.9744 23.7112 26.7731 23.5743 26.7328C23.4188 26.6811 22.8152 26.5028 22.7343 26.7616C22.2054 28.631 22.2178 30.6212 22.585 32.5136C22.9148 34.1875 23.5246 35.8728 24.5824 37.2303C25.8082 38.7143 26.6295 37.3338 25.8331 36.2467Z" fill="#D8BF66"/>
<path d="M28.6071 15.2572C26.3239 19.6632 24.9739 22.476 24.9615 27.8311C24.949 32.3349 26.2555 36.6662 28.8062 40.3878C29.055 40.7444 29.5527 40.8077 29.9011 40.5546C30.2309 40.3072 30.3491 39.8356 30.1126 39.4847C27.7486 36.0335 26.5416 32.0128 26.5479 27.8369C26.5603 22.2862 28.4765 18.254 31.0023 13.3763C31.2076 12.9794 31.7364 12.7608 31.3134 12.5307C30.4175 12.0418 28.9617 14.5727 28.6071 15.2572Z" fill="#D8BF66"/>
<path d="M29.2354 39.0709C27.5806 38.6568 26.0813 38.9961 24.8308 40.2213C23.7669 41.2567 23.4497 42.8845 23.7669 44.2937C24.0531 45.5477 24.8246 46.6233 25.7266 47.5149C26.6847 48.4582 27.8045 49.2232 28.9928 49.8444C31.2947 51.0466 33.92 52.3063 35.6247 54.331C37.3542 56.3845 37.7025 60.0485 35.718 62.0445C34.0507 63.7125 32.738 63.586 30.9214 62.5276C30.4921 62.2803 30.1064 61.9179 29.9322 61.4462C29.4407 60.1463 27.9538 60.664 28.4391 62.0042C28.8559 63.1488 29.926 63.9254 31.1329 64.351C34.0942 65.3921 36.7942 64.1957 38.1069 61.36C39.2579 58.8751 38.5673 55.3779 36.8378 53.3071C34.9901 51.1156 32.2154 49.7409 29.7207 48.4294C28.6755 47.8772 27.6801 47.2043 26.834 46.376C26.1559 45.703 25.5276 44.8862 25.3098 43.9371C25.117 43.0628 25.2663 41.9987 25.9319 41.3487C26.7967 40.5032 27.7112 40.3248 28.8435 40.6067C29.4096 40.7735 30.0006 40.6987 30.1997 40.2271C30.4423 39.6691 29.6834 39.1802 29.2354 39.0709Z" fill="#D8BF66"/>
<path d="M29.0302 62.5736C29.1484 62.6772 29.2666 62.7692 29.3973 62.8612C29.8701 63.2006 30.4176 63.4479 31.0024 63.5055C31.5685 63.563 32.1409 63.4479 32.651 63.1891C33.13 62.9418 33.5406 62.5794 33.8641 62.1537C34.1876 61.7281 34.4241 61.2392 34.5609 60.7215C34.6978 60.1923 34.7351 59.6401 34.6418 59.0994C34.4863 58.2194 34.1565 57.3738 33.6713 56.6203C31.245 52.8642 26.2555 52.8872 23.3564 56.3097C19.997 60.3419 21.8571 66.6403 26.436 68.9584C31.3383 71.403 35.0524 69.7522 38.0697 74.7622C39.0278 76.3612 39.7992 78.0581 40.5769 79.7492C40.776 80.1748 41.3048 80.9858 41.8398 80.7328C42.3686 80.4797 42.2193 79.5133 42.0202 79.0877C41.2239 77.3448 40.4213 75.5905 39.4322 73.9454C36.1038 68.4177 32.4084 70.1605 27.1514 67.5376C23.5058 65.697 21.8696 60.5777 24.5758 57.3335C26.7719 54.7394 30.4736 54.6013 32.3337 57.4831C32.7008 58.0583 32.9558 58.7083 33.074 59.3813C33.13 59.6919 33.1051 60.014 33.0243 60.3188C32.9372 60.6352 32.7941 60.9401 32.595 61.1989C32.4146 61.4347 32.1906 61.6418 31.9231 61.7741C31.6867 61.8949 31.4254 61.9467 31.1641 61.9237C30.8593 61.8892 30.5731 61.7396 30.3242 61.567C30.2371 61.5038 30.1563 61.4405 30.0754 61.3715C29.7519 61.0954 29.0427 60.6064 28.6072 60.9056C28.0597 61.3197 28.6818 62.2688 29.0302 62.5736Z" fill="#D8BF66"/>
<path d="M40.5706 79.7147C38.0447 79.5939 35.7615 78.8232 33.5903 77.575C32.427 76.9077 31.1205 75.9586 29.6958 76.183C27.8543 76.4821 27.8232 78.3802 28.8808 79.6514C29.3785 80.2439 30.0131 80.6926 30.6663 81.101C32.1532 82.0213 33.721 82.7863 35.0897 83.8907C36.3339 84.9088 37.4413 86.111 38.1692 87.5605C38.698 88.6246 38.9904 89.7692 39.177 90.9369C39.3512 92.024 39.3263 93.3413 39.6436 94.3996C39.8738 95.1819 40.2471 95.9066 40.7759 96.5279C41.0807 96.8787 41.7775 97.1663 42.1259 96.7062C42.3934 96.3553 42.2441 95.7974 41.9828 95.4867C41.5971 95.0381 41.3358 94.5031 41.1678 93.9395C40.8754 92.9501 40.9065 91.7019 40.751 90.6838C40.5395 89.3551 40.2035 88.0494 39.5938 86.8415C38.7664 85.1964 37.5159 83.8159 36.0975 82.654C34.6791 81.5036 33.0553 80.7041 31.5124 79.7435C31.0023 79.4271 30.4921 79.082 30.1064 78.6218C29.5216 77.9201 29.6461 77.5232 30.6104 77.8108C31.3942 78.0466 32.0972 78.5413 32.8002 78.9439C35.1954 80.3187 37.7275 81.1642 40.5021 81.2965C40.9625 81.3138 42.1757 81.0894 42.157 80.1921C42.1383 79.6342 41.0185 79.7377 40.5706 79.7147Z" fill="#D8BF66"/>
<path d="M41.2549 95.55C40.5208 95.4407 39.8365 95.2739 39.2081 94.8885C38.4678 94.4341 37.7524 93.8359 37.2671 93.1111C36.7134 92.2771 36.0788 91.4488 35.3136 90.7815C33.3913 89.102 31.3631 90.2351 32.2963 92.835C32.5949 93.6633 32.9993 94.4513 33.3913 95.2394C34.2 96.8672 35.1519 98.5295 35.55 100.324C37.0245 106.904 36.0104 114.578 33.7894 120.905C33.6401 121.336 33.5468 122.17 34.0943 122.383C34.6542 122.596 34.9901 121.871 35.1457 121.434C37.4662 114.825 38.6482 106.847 37.1054 99.9733C36.6761 98.0579 35.6869 96.2862 34.8159 94.5376C34.4489 93.7956 34.144 93.0248 33.7832 92.2828C33.5468 91.7997 33.7645 91.3855 34.1129 91.7651C34.7973 92.5014 35.3758 93.1629 35.9295 93.9969C36.5392 94.9172 37.4537 95.6305 38.3621 96.246C38.8722 96.5911 42.1695 97.8968 42.3623 96.246C42.4245 95.78 41.6718 95.6075 41.2549 95.55Z" fill="#D8BF66"/>
<path d="M153.499 8.98215C154.433 8.79808 155.061 7.8605 154.999 6.92868C154.905 5.83579 153.86 5.18582 152.815 5.36988C152.628 5.40439 152.448 5.46766 152.28 5.55394C151.539 5.94508 151.16 6.77912 151.371 7.59016C151.577 8.33792 152.242 8.92463 153.026 8.9994C153.188 9.02241 153.344 9.01091 153.499 8.98215Z" fill="#D8BF66"/>
<path d="M149.972 9.747C150.812 9.4594 151.247 8.53332 151.023 7.69353C150.762 6.80197 149.81 6.32455 148.926 6.61215C148.684 6.69268 148.46 6.83073 148.273 7.01479C147.831 7.4692 147.694 8.13068 147.906 8.72314C148.118 9.30409 148.646 9.72974 149.256 9.81027C149.499 9.84478 149.742 9.82177 149.972 9.747Z" fill="#D8BF66"/>
<path d="M156.84 8.59103C156.025 8.499 155.415 7.69372 155.371 6.90569C155.334 5.90484 156.218 5.20885 157.182 5.30088C157.73 5.3584 158.246 5.66326 158.489 6.16369C158.669 6.50306 158.694 6.89419 158.576 7.26232C158.464 7.61319 158.24 7.91805 157.966 8.15963C157.661 8.44148 157.269 8.6313 156.84 8.59103Z" fill="#D8BF66"/>
<path d="M146.706 10.7596C145.946 11.0415 145.1 10.6503 144.802 9.90256C144.509 9.14329 144.882 8.28049 145.642 7.97563C146.407 7.68803 147.266 8.07917 147.558 8.84419C147.826 9.60345 147.465 10.4605 146.706 10.7596Z" fill="#D8BF66"/>
<path d="M159.322 9.28116C159.403 9.33868 159.49 9.38469 159.583 9.4192C160.106 9.58026 160.778 9.40195 161.207 9.08559C161.792 8.64843 161.892 7.87766 161.487 7.28521C161.382 7.14141 161.257 7.00911 161.114 6.90557C160.38 6.36488 159.297 6.48568 158.936 7.3945C158.706 7.9697 158.787 8.87276 159.322 9.28116Z" fill="#D8BF66"/>
<path d="M143.719 11.7716C144.398 11.4955 144.715 10.7132 144.454 10.0402C144.18 9.36149 143.408 9.02213 142.724 9.28672C142.046 9.56281 141.722 10.3451 141.99 11.0238C142.27 11.6968 143.041 12.0419 143.719 11.7716Z" fill="#D8BF66"/>
<path d="M160.734 11.0641C160.522 10.4314 160.865 9.72391 161.406 9.37304C162.171 8.89562 162.999 9.41905 163.273 10.1956C163.291 10.2416 163.304 10.2934 163.316 10.3394C163.472 11.0411 163.036 11.7486 162.321 11.8809C161.748 11.9787 161.027 11.7084 160.771 11.1562C160.753 11.1274 160.74 11.0986 160.734 11.0641Z" fill="#D8BF66"/>
<path d="M140.988 12.7257C140.372 12.9672 139.675 12.6567 139.432 12.0472C139.196 11.4377 139.488 10.7362 140.098 10.4889C140.714 10.2474 141.404 10.5579 141.653 11.1617C141.889 11.7769 141.597 12.4784 140.988 12.7257Z" fill="#D8BF66"/>
<path d="M161.238 13.4164C161.207 13.9741 161.717 14.4859 162.215 14.6526C162.955 14.8884 163.589 14.3076 163.645 13.5774C163.664 13.2439 163.571 12.8989 163.359 12.6401C163.11 12.3526 162.756 12.2089 162.376 12.2606C162.022 12.3124 161.705 12.5194 161.499 12.8184C161.362 12.9909 161.25 13.1921 161.238 13.4164Z" fill="#D8BF66"/>
<path d="M138.468 13.5832C139.022 13.3647 139.295 12.7379 139.084 12.1802C138.866 11.6339 138.25 11.3464 137.697 11.5534C137.143 11.7719 136.876 12.3929 137.075 12.9449C137.286 13.5027 137.908 13.7902 138.468 13.5832Z" fill="#D8BF66"/>
<path d="M160.672 15.3208C160.977 14.8953 161.624 14.8205 162.078 15.0045C162.706 15.2748 162.818 16.028 162.451 16.5627C162.302 16.7755 162.09 16.9422 161.841 17.017C161.487 17.1205 161.113 17.017 160.858 16.7525C160.628 16.511 160.51 16.1717 160.51 15.8383C160.523 15.6543 160.572 15.4703 160.672 15.3208Z" fill="#D8BF66"/>
<path d="M136.141 14.3307C135.631 14.5089 135.078 14.2387 134.897 13.7327C134.729 13.2324 134.984 12.6747 135.488 12.4907C135.992 12.3182 136.539 12.5884 136.726 13.0772C136.906 13.5832 136.645 14.1467 136.141 14.3307Z" fill="#D8BF66"/>
<path d="M159.309 16.6898C159.253 16.7243 159.197 16.7646 159.148 16.8105C158.862 17.0923 158.787 17.5638 158.911 17.9375C159.073 18.386 159.533 18.616 159.994 18.501C160.087 18.478 160.174 18.4435 160.255 18.3975C160.759 18.11 160.964 17.4718 160.585 17.0003C160.292 16.6381 159.732 16.4598 159.309 16.6898Z" fill="#D8BF66"/>
<path d="M133.983 14.958C134.443 14.8085 134.698 14.3082 134.542 13.8483C134.387 13.3998 133.895 13.1468 133.441 13.2848C133.28 13.3365 133.137 13.44 133.025 13.5723C132.832 13.7965 132.751 14.107 132.838 14.3945C132.931 14.682 133.174 14.889 133.46 14.9637C133.634 15.0155 133.815 15.0155 133.983 14.958Z" fill="#D8BF66"/>
<path d="M157.592 17.3456C158.034 17.2996 158.444 17.6331 158.563 18.0471C158.706 18.5703 158.314 19.0246 157.798 19.0936C157.729 19.0993 157.661 19.1051 157.598 19.0993C157.151 19.0648 156.79 18.7198 156.802 18.2598C156.821 17.8746 157.076 17.5008 157.449 17.3801C157.493 17.3628 157.543 17.3513 157.592 17.3456Z" fill="#D8BF66"/>
<path d="M131.849 15.5215C131.42 15.6423 130.934 15.441 130.81 14.9925C130.692 14.5555 130.99 14.1243 131.407 14.0035C131.83 13.8828 132.315 14.084 132.452 14.521C132.583 14.9638 132.278 15.395 131.849 15.5215Z" fill="#D8BF66"/>
<path d="M155.856 17.3283C155.776 17.311 155.695 17.3053 155.614 17.3168C155.309 17.357 155.035 17.5755 154.923 17.8573C154.793 18.1793 154.911 18.53 155.191 18.7313C155.278 18.7945 155.378 18.8405 155.477 18.8635C155.925 18.967 156.373 18.691 156.429 18.2253C156.466 17.8515 156.242 17.426 155.856 17.3283Z" fill="#D8BF66"/>
<path d="M129.864 15.9817C130.25 15.8782 130.524 15.4987 130.424 15.102C130.318 14.711 129.895 14.5097 129.516 14.6075C129.136 14.7052 128.875 15.0847 128.962 15.4757C129.062 15.8725 129.479 16.0795 129.864 15.9817Z" fill="#D8BF66"/>
<path d="M154.363 16.7645C154.662 16.9658 154.73 17.3913 154.581 17.7075C154.394 18.087 153.922 18.179 153.58 17.9548C153.43 17.857 153.312 17.7018 153.269 17.5235C153.219 17.3165 153.269 17.098 153.412 16.937C153.548 16.7818 153.741 16.6898 153.947 16.6725C154.096 16.6553 154.239 16.684 154.363 16.7645Z" fill="#D8BF66"/>
<path d="M128.066 16.3383C127.718 16.4131 127.357 16.2061 127.282 15.8496C127.214 15.4988 127.444 15.1653 127.792 15.0848C128.135 15.0101 128.495 15.2171 128.576 15.5621C128.657 15.9186 128.415 16.2578 128.066 16.3383Z" fill="#D8BF66"/>
<path d="M153.231 15.8152C153.032 15.5622 152.64 15.5277 152.367 15.683C152.037 15.8785 151.987 16.304 152.211 16.5972C152.441 16.8905 152.864 16.948 153.138 16.6835C153.362 16.4592 153.43 16.074 153.231 15.8152Z" fill="#D8BF66"/>
<path d="M126.442 16.5974C126.753 16.5399 126.971 16.2351 126.915 15.9246C126.853 15.6141 126.548 15.4129 126.243 15.4646C125.932 15.5221 125.727 15.8211 125.777 16.1316C125.827 16.4421 126.125 16.6549 126.442 16.5974Z" fill="#D8BF66"/>
<path d="M152.528 14.6477C152.621 14.9237 152.453 15.2342 152.198 15.3607C151.894 15.5044 151.552 15.3434 151.433 15.0329C151.328 14.7167 151.489 14.3717 151.825 14.2912C152.105 14.2337 152.429 14.3717 152.528 14.6477Z" fill="#D8BF66"/>
<path d="M124.974 16.7758C124.694 16.8103 124.439 16.6033 124.408 16.3273C124.377 16.057 124.558 15.7868 124.837 15.7465C125.117 15.712 125.366 15.9133 125.41 16.1893C125.447 16.4653 125.26 16.7355 124.974 16.7758Z" fill="#D8BF66"/>
<path d="M152.242 13.3936C152.242 13.1349 152.012 12.9221 151.763 12.8819C151.446 12.8359 151.203 13.0889 151.203 13.3936C151.203 13.5086 151.234 13.6179 151.296 13.7156C151.402 13.8651 151.576 13.9456 151.763 13.9169C151.931 13.8939 152.086 13.7846 152.173 13.6351C152.211 13.5661 152.236 13.4799 152.242 13.3936Z" fill="#D8BF66"/>
<path d="M123.655 16.8735C123.91 16.8505 124.078 16.609 124.053 16.3617C124.029 16.1202 123.817 15.919 123.568 15.942C123.319 15.965 123.158 16.2065 123.176 16.4422C123.195 16.6952 123.4 16.8965 123.655 16.8735Z" fill="#D8BF66"/>
<path d="M152.429 12.2836C152.391 12.3641 152.329 12.4273 152.261 12.4733C152.136 12.5423 151.987 12.5653 151.85 12.5251C151.701 12.4848 151.589 12.3698 151.552 12.2261C151.527 12.1168 151.539 12.0076 151.583 11.9098C151.695 11.6626 151.987 11.5476 152.223 11.6913C152.404 11.8063 152.522 12.0651 152.429 12.2836Z" fill="#D8BF66"/>
<path d="M122.467 16.9141C122.237 16.9198 122.075 16.7243 122.069 16.5058C122.063 16.2931 122.206 16.0861 122.43 16.0746C122.654 16.0688 122.815 16.2643 122.834 16.4713C122.84 16.6898 122.691 16.9026 122.467 16.9141Z" fill="#D8BF66"/>
<path d="M153.001 11.3689C153.15 11.2136 153.138 10.9606 153.013 10.7996C152.858 10.6099 152.578 10.6099 152.404 10.7766C152.348 10.8284 152.311 10.8974 152.292 10.9721C152.248 11.1274 152.304 11.2884 152.429 11.3861C152.547 11.4781 152.702 11.5069 152.845 11.4609C152.901 11.4436 152.957 11.4091 153.001 11.3689Z" fill="#D8BF66"/>
<path d="M121.397 16.8964C121.602 16.8964 121.733 16.7067 121.733 16.517C121.727 16.333 121.596 16.1432 121.403 16.1375C121.204 16.1375 121.074 16.3272 121.074 16.5112C121.067 16.7009 121.192 16.8907 121.397 16.8964Z" fill="#D8BF66"/>
<path d="M153.816 10.7306C153.81 10.7306 153.81 10.7306 153.816 10.7306C153.636 10.8169 153.418 10.7421 153.318 10.5811C153.2 10.3914 153.281 10.1614 153.474 10.0579H153.48C153.673 9.96587 153.903 10.0464 153.984 10.2476C154.046 10.4144 153.984 10.6386 153.816 10.7306Z" fill="#D8BF66"/>
<path d="M120.433 16.8276C120.252 16.8161 120.153 16.6321 120.165 16.4711C120.178 16.3101 120.296 16.1433 120.47 16.1491C120.644 16.1606 120.744 16.3388 120.738 16.5056C120.738 16.6666 120.613 16.8391 120.433 16.8276Z" fill="#D8BF66"/>
<path d="M154.718 10.3911C154.892 10.3566 155.017 10.1841 155.004 10.0116C154.986 9.81037 154.793 9.68962 154.6 9.72412C154.407 9.75862 154.276 9.94262 154.326 10.1324C154.376 10.2934 154.544 10.4199 154.718 10.3911Z" fill="#D8BF66"/>
<path d="M65.8165 25.4904C66.9798 25.6802 67.8757 26.3877 68.6098 27.285C70.0656 29.0854 70.8681 31.2712 71.8262 33.3534C72.8402 35.5507 74.041 37.771 75.8327 39.4333C78.962 42.3036 83.5284 41.8549 86.2906 38.7948C89.3763 35.3436 88.3996 30.6212 83.6092 29.8965C82.9498 29.7987 82.2779 29.7987 81.6247 29.9425C79.4845 30.4199 78.0101 32.5884 78.682 34.7051C79.0739 35.9131 80.1191 36.7299 81.326 37.0002C81.7802 37.098 82.8191 36.9829 82.788 36.3157C82.732 35.4817 81.1581 35.4472 80.6044 34.895C80.4177 34.7051 80.2746 34.4751 80.1938 34.222C79.8018 32.9853 80.7412 31.7716 81.9606 31.5013C82.421 31.4035 82.9 31.4092 83.3666 31.4783C86.9065 32.0132 87.3482 35.2286 85.1023 37.7422C82.9249 40.1581 79.385 40.5434 76.9089 38.2714C75.2728 36.7529 74.1903 34.6936 73.2633 32.6919C72.2492 30.4832 71.3845 28.1996 69.8416 26.2899C68.8586 25.0878 67.6144 24.179 66.0653 23.9316C64.5411 23.6843 64.2611 25.2373 65.8165 25.4904Z" fill="#D8BF66"/>
<path fill-rule="evenodd" clip-rule="evenodd" d="M82.5085 36.9946C83.7841 36.9774 84.8108 35.9018 84.7921 34.596C84.7796 33.2903 83.7281 32.2435 82.4525 32.255C81.1769 32.2722 80.1502 33.3479 80.1688 34.6536C80.1875 35.965 81.2329 37.0119 82.5085 36.9946Z" fill="#D8BF66"/>
<path fill-rule="evenodd" clip-rule="evenodd" d="M70.4264 24.3801C72.722 25.2659 75.3723 26.146 77.6804 26.3301C74.9368 29.8848 76.3615 35.0846 78.5389 38.277C77.8919 38.0987 76.2868 36.0625 75.2852 34.2793C74.0969 32.1626 73.3753 29.8043 72.3612 27.676C71.6644 26.2093 70.9552 24.6965 70.4264 24.3801Z" fill="#D8BF66"/>
<path d="M79.0242 31.1101C79.4534 30.2645 79.976 29.7353 80.8719 29.3787C86.9003 27.0089 92.3998 33.3879 98.7082 30.6959C101.085 29.6778 102.889 28.5677 105.564 28.6827C106.41 28.7172 107.629 29.9252 108.301 29.4995C108.749 29.2119 108.644 28.5792 108.314 28.2456C107.598 27.5323 106.647 27.1412 105.639 27.1009C102.677 26.9744 100.705 28.119 98.0861 29.2407C91.9955 31.8463 86.5021 25.4674 80.2933 27.912C79.0553 28.4066 78.0412 29.2924 77.5497 30.5406C76.9587 32.0304 78.2403 32.6574 79.0242 31.1101Z" fill="#D8BF66"/>
<path d="M108.942 28.7863C108.6 25.2833 102.13 21.0383 102.372 19.6463C102.391 19.3012 100.842 18.8353 100.786 19.5256C100.543 22.4016 106.833 24.9612 107.219 28.9704C107.368 30.184 109.023 29.8677 108.942 28.7863Z" fill="#D8BF66"/>
<path d="M100.929 20.1524C104.942 24.754 115.891 19.7842 121.186 20.0488C121.503 20.0603 121.634 19.5196 121.665 19.2953C121.696 19.0192 121.646 18.49 121.273 18.467C116.769 18.2427 104.985 22.6832 101.856 18.8697C101.066 18.0816 100.425 19.5714 100.929 20.1524Z" fill="#D8BF66"/>
<path d="M121.528 18.4325C120.041 17.5121 118.38 17.19 116.75 16.6436C116.028 16.402 115.095 16.1432 114.373 15.9016C113.49 15.6025 113.179 14.8374 114.348 14.6074C116.084 14.2622 117.758 14.176 119.413 14.1242C124.035 13.9861 127.768 13.434 131.942 11.484C136.197 9.49382 140.26 6.91692 143.613 3.81658C143.949 3.50022 144.204 2.89051 143.825 2.50512C143.451 2.1485 142.867 2.34407 142.537 2.64892C139.296 5.63997 135.358 8.12484 131.245 10.046C127.251 11.9097 123.805 12.088 119.388 12.203C116.582 12.2778 114.044 12.4791 112.849 13.5893C111.897 14.4751 111.53 16.2467 113.142 17.098C114.106 17.6099 115.213 17.794 116.246 18.1391C117.751 18.6453 119.319 18.9214 120.688 19.7727C122.15 20.693 122.952 19.3355 121.528 18.4325Z" fill="#D8BF66"/>
<path d="M142.338 2.3789C138.543 4.13902 134.244 4.40361 130.126 4.27131C124.831 4.093 119.593 3.23019 114.342 2.59172C109.844 2.05678 105.191 2.17183 100.861 3.63284C98.8762 4.31733 97.0036 5.28942 95.3549 6.58937C94.0671 7.61898 92.9411 8.83266 92.0079 10.1901C91.0187 11.6569 92.3003 12.5657 93.3206 11.0817C94.1605 9.85652 95.1807 8.75788 96.3441 7.83181C97.8497 6.64114 99.5605 5.75533 101.371 5.13411C105.471 3.74788 109.888 3.65585 114.143 4.16778C119.437 4.812 124.725 5.68055 130.063 5.85887C134.437 5.99691 138.978 5.68631 143.004 3.8169C144.478 3.12666 143.825 1.69441 142.338 2.3789Z" fill="#D8BF66"/>
<path d="M61.7975 20.8368C62.289 21.1819 62.8614 21.3947 63.4524 21.5212C64.1741 21.6766 64.9206 21.6823 65.6547 21.5903C67.1852 21.4005 68.6472 20.8195 70.0096 20.1178C71.2663 19.4678 72.467 18.6855 73.5744 17.8054C73.9912 17.4718 74.3956 17.1267 74.7689 16.7471C74.9368 16.5803 75.0924 16.402 75.2355 16.2179C75.4594 15.9015 75.4034 14.7569 75.1795 14.6648C74.5138 14.3888 74.1032 15.1595 73.6366 15.6369C73.3069 15.9706 72.9523 16.2754 72.5852 16.5688C71.5587 17.3855 70.4451 18.1103 69.2817 18.7143C68.0872 19.3297 66.7994 19.8532 65.4619 20.02C64.9082 20.089 64.342 20.089 63.7884 19.974C63.3964 19.8877 63.0169 19.7381 62.681 19.5138C61.3496 18.6452 60.8395 20.158 61.7975 20.8368Z" fill="#D8BF66"/>
<path d="M73.8792 15.9764C73.8543 16.1489 73.8356 16.3273 73.8294 16.4998C73.817 17.3281 74.0783 18.1219 74.5697 18.7891C75.1172 19.5196 75.8886 20.0373 76.7223 20.3824C77.7737 20.8138 78.9184 20.9806 80.0444 21.0094C84.4117 21.1014 88.468 20.1236 92.1074 17.6675C95.0252 15.6888 97.607 13.2959 100.861 11.8407C110.74 7.50941 121.801 6.85944 132.409 7.96957C132.869 8.01559 134.163 8.06736 134.263 7.38862C134.337 6.69263 133.043 6.43954 132.583 6.39352C121.696 5.25462 110.354 5.94486 100.22 10.3912C96.8729 11.8924 94.2227 14.3198 91.2178 16.356C87.8583 18.6281 84.1256 19.5081 80.088 19.4218C79.1548 19.3988 78.2029 19.2665 77.332 18.9157C76.7658 18.6798 76.2184 18.3405 75.8451 17.84C75.5651 17.4604 75.4096 17.006 75.4158 16.5343C75.4158 16.4308 75.4283 16.3273 75.4469 16.2237C75.5154 15.8038 75.7207 14.8547 75.2914 14.5614C74.5946 14.1127 73.9538 15.522 73.8792 15.9764Z" fill="#D8BF66"/>
<path fill-rule="evenodd" clip-rule="evenodd" d="M78.4207 7.08367C80.1005 7.06066 81.4443 5.68593 81.4194 4.01209C81.4007 2.33825 80.0258 0.998036 78.3461 1.02104C76.6663 1.04405 75.3226 2.41878 75.3474 4.09262C75.3723 5.76645 76.7472 7.10668 78.4207 7.08367Z" fill="#D8BF66"/>
<path fill-rule="evenodd" clip-rule="evenodd" d="M84.9597 8.90163C86.3286 8.88437 87.4237 7.76273 87.4051 6.3995C87.3864 5.03628 86.2664 3.94339 84.9037 3.96065C83.5347 3.97791 82.4396 5.09955 82.4582 6.46278C82.4707 7.826 83.5907 8.91889 84.9597 8.90163Z" fill="#D8BF66"/>
<path fill-rule="evenodd" clip-rule="evenodd" d="M88.9536 12.4219C89.999 12.4104 90.8328 11.5533 90.8204 10.5122C90.8079 9.47109 89.9554 8.63705 88.9101 8.64856C87.8647 8.66006 87.0309 9.51711 87.0434 10.5582C87.0558 11.6051 87.9145 12.4334 88.9536 12.4219Z" fill="#D8BF66"/>
<path fill-rule="evenodd" clip-rule="evenodd" d="M88.1822 16.3966C89.0658 16.3851 89.7751 15.6603 89.7627 14.7803C89.7503 13.9002 89.0284 13.1927 88.1449 13.2042C87.2613 13.2157 86.5581 13.9405 86.5644 14.8206C86.5768 15.7006 87.2986 16.4081 88.1822 16.3966Z" fill="#D8BF66"/>
<path fill-rule="evenodd" clip-rule="evenodd" d="M84.8662 18.3058C85.6004 18.2943 86.1853 17.6961 86.1791 16.9655C86.1729 16.235 85.5693 15.6483 84.8351 15.6598C84.1008 15.6713 83.5159 16.2695 83.5221 17.0001C83.5284 17.7306 84.1319 18.3115 84.8662 18.3058Z" fill="#D8BF66"/>
<path fill-rule="evenodd" clip-rule="evenodd" d="M81.5685 16.8499C82.2465 16.8384 82.7938 16.2864 82.7814 15.608C82.7752 14.9295 82.2154 14.3832 81.5374 14.3947C80.8594 14.4062 80.312 14.9582 80.3244 15.6367C80.3306 16.3152 80.8905 16.8557 81.5685 16.8499Z" fill="#D8BF66"/>
<path fill-rule="evenodd" clip-rule="evenodd" d="M79.9883 14.1639C80.5357 14.1581 80.9711 13.7096 80.9649 13.1634C80.9587 12.6171 80.5108 12.1801 79.9635 12.1916C79.4161 12.1974 78.9807 12.6459 78.9869 13.1921C78.9993 13.7326 79.4472 14.1696 79.9883 14.1639Z" fill="#D8BF66"/>
<path d="M70.5259 22.505C73.9041 23.0802 77.2822 23.7934 80.7163 23.8797C84.8037 23.966 88.7044 22.9479 92.0328 20.532C95.6225 17.9149 99.2868 15.5738 103.436 13.9345C107.362 12.4044 111.599 11.7142 115.767 11.2253C116.221 11.1735 117.384 10.9147 117.328 10.2589C117.254 9.59171 116.041 9.59747 115.58 9.64923C111.275 10.1497 106.908 10.8744 102.852 12.4562C98.5713 14.1416 94.7888 16.5517 91.0934 19.2493C88.045 21.4639 84.4864 22.3669 80.7537 22.2922C77.3942 22.2116 74.0907 21.5041 70.7935 20.9404C70.3393 20.8657 69.4932 20.9232 69.3937 21.5156C69.3066 22.0966 70.0656 22.4302 70.5259 22.505Z" fill="#D8BF66"/>
<path d="M70.9614 22.649C76.1064 24.576 81.7802 25.387 87.2611 25.318C89.93 25.2835 92.5927 24.9844 95.2616 25.0189C97.7066 25.0591 100.17 25.3697 102.41 26.3936C102.796 26.5662 103.287 26.4281 103.499 26.0485C103.723 25.6286 103.492 25.1397 103.082 24.9498C100.637 23.834 97.9554 23.4773 95.2865 23.4313C92.5989 23.3968 89.9238 23.6959 87.2362 23.7304C81.9544 23.7937 76.4735 23.0172 71.5151 21.165C71.117 21.0155 70.6815 21.2455 70.5197 21.6252C70.3704 22.0278 70.557 22.488 70.9614 22.649Z" fill="#D8BF66"/>
<path d="M83.1302 24.7999C86.303 24.9897 89.3141 24.1959 92.1012 22.7061C94.9692 21.1703 97.5448 19.1456 100.351 17.5121C101.968 16.586 103.853 16.1373 105.713 16.2006C106.566 16.2351 107.418 16.3789 108.22 16.6665C108.724 16.8506 109.21 17.0979 109.639 17.4143C109.956 17.6444 110.417 17.5121 110.678 17.2532C110.995 16.9196 110.945 16.4077 110.585 16.1316C110.031 15.7232 109.415 15.4126 108.768 15.1767C107.81 14.8259 106.79 14.6533 105.769 14.613C103.611 14.5383 101.427 15.0559 99.548 16.1373C96.7547 17.7651 94.1978 19.7784 91.3422 21.3026C88.8102 22.6486 86.0977 23.3791 83.2173 23.2066C82.788 23.1835 82.3463 23.4769 82.2903 23.9198C82.253 24.4087 82.6822 24.7711 83.1302 24.7999Z" fill="#D8BF66"/>
<path fill-rule="evenodd" clip-rule="evenodd" d="M19.9471 152.869C20.0218 152.086 20.14 151.482 20.2955 150.999C20.7434 149.63 22.1432 148.399 23.176 147.45C24.4326 146.3 26.1124 145.052 26.2617 146.674C26.3488 147.634 26.5479 148.572 27.4313 149.958C27.0829 149.107 26.8278 148.325 26.7718 147.26C26.7221 146.323 26.8527 145.092 26.7345 144.522C26.8527 144.08 26.7221 142.941 27.0767 140.807C26.1311 144.131 21.154 148.946 18.1492 151.028C17.6701 151.362 17.3964 151.465 16.7681 152.282C18.0248 151.275 18.846 150.832 19.3437 150.982C19.9036 151.143 20.0529 152.017 19.9471 152.869Z" fill="#D8BF66"/>
<path fill-rule="evenodd" clip-rule="evenodd" d="M33.3362 160.277C32.291 159.788 32.291 158.598 32.3906 157.499C32.7265 153.818 33.641 153.283 32.1044 149.659C31.6005 148.468 30.4246 146.846 30.2505 146.029C29.6034 142.975 30.6113 139.616 29.2737 135.659C29.1493 134.52 29.0933 133.341 29.0062 132.443C28.8133 130.47 28.3903 129.78 26.8848 134.019C25.6094 137.39 22.7103 142.406 18.7474 146.438C15.1141 150.136 11.4312 153.162 8.64404 157.102C5.07304 162.141 4.65 167.111 4.78064 172C6.47904 168.474 12.1777 165.512 14.5729 163.044C16.9743 160.571 16.234 155.244 18.3243 155.492C20.1409 155.71 17.9884 159.351 17.4347 161.238C16.6695 163.861 18.1252 166.662 19.1766 168.928C18.6665 165.684 21.7149 162.365 23.6062 160.11C24.6575 158.856 23.7306 156.251 23.6746 155.681C23.5688 154.6 22.2499 152.57 23.5066 151.166C25.4414 149.003 25.4165 153.938 26.0262 155.083C27.1772 157.252 30.0949 159.529 33.3362 160.277ZM14.9399 157.798C14.3925 159.788 13.9259 160.559 13.0362 161.376C11.1388 163.13 8.09657 164.672 6.51015 166.409C6.88965 164.655 7.4309 162.515 8.4574 160.743C11.3005 155.842 16.3522 151.091 19.8734 147.795C21.2794 146.478 22.7663 144.845 23.9359 143.222C25.3481 141.261 26.6919 138.782 27.6997 136.959C28.2037 138.857 28.7698 140.433 28.3094 143.447C28.297 148.733 29.9332 148.808 30.9535 152.029C31.3267 153.283 30.9597 155.325 30.6486 157.114C29 155.934 27.6002 155.037 27.0278 153.127C26.5488 151.523 26.555 149.4 25.4788 148.727C23.2204 147.318 21.3354 150.907 21.1674 152.903C21.0554 154.226 22.1939 155.808 22.281 157.303C22.5485 161.226 19.8672 160.484 18.7598 164.931C17.7893 162.457 18.7536 161.445 19.7428 159.196C20.7382 156.947 20.4395 154.238 19.0024 153.777C17.5715 153.306 16.0038 153.915 14.9399 157.798Z" fill="#D8BF66"/>
<path fill-rule="evenodd" clip-rule="evenodd" d="M13.1411 6.46842C15.3123 6.61797 16.9485 8.59666 16.7867 10.8917C16.625 13.1868 14.7399 14.9239 12.5625 14.7801C10.3913 14.6305 8.7551 12.6518 8.91685 10.3625C9.07861 8.06173 10.9699 6.31887 13.1411 6.46842Z" fill="#D8BF66"/>
<path d="M19.6616 9.37314C19.5247 8.48733 19.2199 7.63028 18.7471 6.86527C18.2867 6.12326 17.677 5.48478 16.974 4.9671C15.4934 3.87422 13.6519 3.33353 11.8166 3.32203C5.92508 3.31627 0.929413 9.91959 4.66216 15.4013C6.69029 18.3751 12.3081 20.1294 15.0019 17.0636C15.5245 16.4711 15.8542 15.7349 15.9786 14.9526C15.4436 15.384 14.8526 15.7349 14.1993 15.9419C11.8228 16.7472 8.74331 15.6026 7.3062 13.5836C4.79903 9.99436 7.89099 5.387 11.9224 4.73127C13.5274 4.46667 15.2196 4.69676 16.663 5.46178C17.3846 5.84716 18.0316 6.37059 18.5418 7.01482C19.0955 7.69931 19.4687 8.51034 19.6616 9.37314Z" fill="#D8BF66"/>
<path d="M12.7367 7.94669C13.3775 7.99271 13.9996 8.16527 14.5658 8.45862C15.1195 8.75198 15.6109 9.14887 16.0153 9.63204C16.4259 10.121 16.737 10.6904 16.9423 11.2944C17.1538 11.9328 17.2347 12.6116 17.1849 13.2846C17.1103 14.3257 16.8428 15.3495 16.3762 16.2929C15.9345 17.1729 15.3248 17.961 14.5844 18.6109C13.8441 19.2494 12.9918 19.7441 12.0648 20.0547C11.1005 20.3768 10.0803 20.5033 9.06619 20.4401C8.02724 20.3653 7.02562 20.0604 6.10487 19.5773C5.17169 19.0768 4.34426 18.3981 3.6537 17.5986C2.95692 16.7875 2.40945 15.8557 2.04862 14.8491C1.69401 13.8368 1.53225 12.7611 1.60069 11.6855C1.70645 10.236 2.11083 8.8325 2.78895 7.54405C3.45462 6.29011 4.36292 5.17997 5.4392 4.25965C6.5217 3.34508 7.75973 2.63183 9.0973 2.17167C10.4411 1.71151 11.8658 1.50444 13.2842 1.60222C14.8208 1.71151 16.3077 2.22344 17.6329 2.99421C19.2255 3.92603 20.5755 5.20873 21.6642 6.69275C22.9334 8.42411 24.0905 12.8359 20.0094 17.0291L28.968 8.78073L26.9958 9.82185C25.7578 10.4718 25.341 10.0634 24.8246 8.94754C24.3083 7.8259 23.6861 6.75602 22.952 5.75517C21.7327 4.09859 20.2209 2.66634 18.4416 1.62523C16.905 0.733667 15.1817 0.146958 13.4024 0.0261652C11.7724 -0.0831231 10.1362 0.152709 8.58716 0.681895C7.06295 1.21108 5.65072 2.02212 4.41892 3.06323C3.18711 4.11585 2.14816 5.38705 1.38917 6.81355C0.611509 8.29181 0.138693 9.91964 0.0204897 11.5877C-0.0666078 12.8819 0.126251 14.1761 0.555518 15.3956C0.984784 16.5862 1.63179 17.6906 2.453 18.6512C3.2742 19.6003 4.25716 20.3998 5.35832 20.9923C6.47193 21.5847 7.69752 21.9529 8.96043 22.0391C10.186 22.1197 11.4116 21.9644 12.575 21.5732C13.6948 21.1936 14.7338 20.5954 15.6296 19.8189C16.5255 19.0366 17.2658 18.0817 17.8008 17.0119C18.3607 15.8845 18.6842 14.6593 18.7713 13.4054C18.8336 12.531 18.7216 11.6452 18.4478 10.8112C18.1865 10.0117 17.7697 9.2639 17.2347 8.61968C16.6997 7.9812 16.0402 7.44627 15.3061 7.06088C14.5471 6.66399 13.7072 6.42816 12.8487 6.37064C12.8114 6.88832 12.7741 7.41751 12.7367 7.94669Z" fill="#D8BF66"/>
<path fill-rule="evenodd" clip-rule="evenodd" d="M27.929 26.7328C28.2401 25.1165 28.0721 23.644 28.2712 22.3555C28.464 21.0958 29.6585 17.4836 30.9277 15.2345C29.6461 16.4425 28.8373 17.2477 27.6739 19.6751C26.7532 21.5905 27.1514 19.7556 28.041 17.196C29.6025 12.6921 32.0413 9.83339 35.5936 8.1423C36.7756 7.5786 38.0759 7.25074 39.4881 7.24498C41.5909 7.23923 43.0031 5.61141 44.2411 5.87601C45.4729 6.1406 46.3937 6.91137 45.1494 7.53834C42.8103 8.46441 40.0791 9.37898 37.7399 10.3108C35.351 12.9625 32.962 15.6142 30.5668 18.2716C29.5403 21.0901 28.9493 23.9201 27.929 26.7328Z" fill="#D8BF66"/>
<path d="M305.434 130.89C304.793 130.879 304.159 130.741 303.58 130.476C303.008 130.217 302.492 129.843 302.062 129.383C301.627 128.917 301.278 128.365 301.042 127.773C300.799 127.146 300.675 126.473 300.681 125.8C300.694 124.753 300.905 123.717 301.316 122.757C301.708 121.854 302.268 121.037 302.971 120.347C303.674 119.668 304.501 119.127 305.403 118.765C306.349 118.391 307.357 118.207 308.377 118.219C309.416 118.236 310.436 118.489 311.382 118.92C312.34 119.369 313.205 120.002 313.945 120.761C314.685 121.537 315.289 122.435 315.705 123.424C316.122 124.419 316.34 125.483 316.334 126.559C316.315 128.008 315.985 129.435 315.388 130.758C314.797 132.046 313.957 133.203 312.931 134.18C311.904 135.152 310.704 135.929 309.397 136.47C308.084 137.005 306.672 137.286 305.248 137.269C303.705 137.246 302.193 136.815 300.824 136.119C299.182 135.279 297.763 134.065 296.588 132.645C295.138 130.879 294.08 128.819 293.352 126.662C292.419 123.867 292.015 120.916 291.965 117.977C291.872 111.851 292.482 105.236 295.437 99.7546C296.513 97.7816 297.956 95.964 299.903 94.7963C301.801 93.6747 303.978 93.3411 306.15 93.6229C306.218 93.0995 306.286 92.5703 306.355 92.0468C303.829 91.719 301.291 92.1331 299.088 93.4331C296.892 94.7503 295.25 96.7693 294.037 98.9953C290.951 104.724 290.279 111.598 290.373 118.006C290.429 121.106 290.852 124.218 291.841 127.169C292.631 129.51 293.782 131.742 295.356 133.657C296.668 135.244 298.261 136.596 300.096 137.534C301.683 138.339 303.437 138.834 305.223 138.857C306.859 138.874 308.476 138.552 309.988 137.942C311.481 137.332 312.844 136.441 314.013 135.337C315.183 134.221 316.147 132.898 316.819 131.425C317.51 129.907 317.889 128.256 317.908 126.588C317.92 125.293 317.659 124.011 317.155 122.814C316.664 121.647 315.954 120.583 315.077 119.668C314.206 118.765 313.18 118.017 312.041 117.488C310.89 116.959 309.652 116.654 308.383 116.637C307.157 116.625 305.938 116.844 304.8 117.298C303.705 117.741 302.697 118.391 301.851 119.214C300.998 120.048 300.314 121.037 299.841 122.136C299.35 123.292 299.095 124.534 299.076 125.788C299.064 126.668 299.225 127.543 299.543 128.359C299.854 129.142 300.308 129.866 300.88 130.476C301.453 131.086 302.137 131.58 302.896 131.926C303.68 132.282 304.532 132.472 305.391 132.484C305.422 131.949 305.428 131.419 305.434 130.89Z" fill="#D8BF66"/>
<path fill-rule="evenodd" clip-rule="evenodd" d="M305.117 132.392C302.939 132.363 301.198 130.476 301.222 128.175C301.247 125.874 303.039 124.034 305.216 124.063C307.394 124.091 309.136 125.978 309.111 128.279C309.08 130.58 307.294 132.42 305.117 132.392Z" fill="#D8BF66"/>
<path d="M298.442 129.849C298.628 130.729 298.983 131.569 299.499 132.305C300.003 133.019 300.644 133.623 301.378 134.106C305.416 136.746 311.251 135.457 313.621 131.172C315.911 126.927 313.82 121.808 309.198 120.376C306.206 119.484 302.149 120.548 301.795 124.08C303.593 122.452 305.975 122.297 308.19 123.24C312.24 124.977 312.719 129.918 309.366 132.656C307.269 134.388 304.122 134.727 301.664 133.594C300.924 133.249 300.246 132.76 299.698 132.15C299.101 131.489 298.678 130.701 298.442 129.849Z" fill="#D8BF66"/>
<path fill-rule="evenodd" clip-rule="evenodd" d="M296.445 127.577C295.406 127.566 294.572 126.709 294.584 125.673C294.597 124.638 295.449 123.804 296.488 123.815C297.527 123.827 298.361 124.684 298.349 125.719C298.336 126.76 297.484 127.589 296.445 127.577Z" fill="#D8BF66"/>
<path fill-rule="evenodd" clip-rule="evenodd" d="M295.966 121.434C294.69 121.417 293.664 120.37 293.682 119.093C293.701 117.816 294.746 116.798 296.022 116.815C297.297 116.832 298.324 117.879 298.306 119.156C298.293 120.427 297.242 121.451 295.966 121.434Z" fill="#D8BF66"/>
<path fill-rule="evenodd" clip-rule="evenodd" d="M296.631 114.825C295.144 114.807 293.956 113.588 293.975 112.104C293.993 110.62 295.213 109.435 296.693 109.452C298.18 109.47 299.368 110.689 299.35 112.173C299.337 113.657 298.118 114.842 296.631 114.825Z" fill="#D8BF66"/>
<path fill-rule="evenodd" clip-rule="evenodd" d="M298.516 108.107C296.768 108.084 295.362 106.646 295.381 104.897C295.399 103.148 296.836 101.751 298.585 101.774C300.333 101.797 301.739 103.235 301.72 104.983C301.701 106.732 300.271 108.13 298.516 108.107Z" fill="#D8BF66"/>
<path fill-rule="evenodd" clip-rule="evenodd" d="M303.325 102.107C301.421 102.084 299.897 100.52 299.916 98.6158C299.941 96.7118 301.502 95.1933 303.406 95.2163C305.31 95.2393 306.834 96.8039 306.815 98.7078C306.79 100.612 305.229 102.136 303.325 102.107Z" fill="#D8BF66"/>
<path fill-rule="evenodd" clip-rule="evenodd" d="M306.616 93.5425C304.725 85.9614 308.626 82.3319 311.102 71.2592C312.688 64.1613 313.715 55.585 312.433 45.8238C310.231 34.2738 306.025 23.9029 298.479 15.3784C294.043 9.71842 289.856 7.21054 285.663 6.46853C282.403 5.89333 282.484 8.09635 275.466 6.64684C305.807 14.4006 317.528 47.9751 306.175 75.2972C303.655 81.354 299.978 87.2268 300.289 94.089C302.224 93.5541 304.688 93.4448 306.616 93.5425Z" fill="#D8BF66"/>
<path d="M294.771 137.752C289.906 128.204 289.203 117.499 291.063 107.082C292.973 96.5677 297.123 86.611 301.645 76.9879C308.116 63.1197 310.822 47.2327 307.817 32.1106C307.301 32.2142 300.308 21.5959 299.792 21.6995C303.02 21.849 309.36 39.9967 306.94 53.0882C305.472 61.0433 303.624 69.0098 300.202 76.3149C295.63 86.0703 291.43 96.1536 289.495 106.806C287.573 117.568 288.326 128.624 293.353 138.483C293.832 138.235 294.304 137.994 294.771 137.752Z" fill="#D8BF66"/>
<path d="M271.566 73.4392C271.634 72.7317 271.752 71.9954 271.566 71.2994C271.454 70.8968 271.23 70.5402 270.894 70.2871C270.527 70.0168 270.079 69.896 269.637 69.8499C269.065 69.7924 268.492 69.7694 267.92 69.8269C267.404 69.8845 266.894 70.0168 266.439 70.2813C265.985 70.5459 265.618 70.9371 265.369 71.403C265.102 71.9149 264.971 72.4844 264.915 73.0596C264.853 73.7096 264.928 74.3653 265.127 74.9865C265.326 75.5847 265.643 76.1426 266.054 76.6201C266.471 77.1032 266.974 77.5059 267.541 77.805C268.132 78.1156 268.779 78.3054 269.438 78.3744C270.346 78.4665 271.267 78.3572 272.144 78.1041C273.053 77.8337 273.905 77.4081 274.658 76.8329C275.429 76.2404 276.076 75.4984 276.53 74.6356C277.016 73.7038 277.239 72.6684 277.208 71.6216C277.171 70.5114 276.904 69.4243 276.437 68.4177C275.964 67.4053 275.323 66.485 274.595 65.6395C272.966 63.7586 270.981 62.2113 269.046 60.6582C264.617 57.1322 260.175 53.4164 257.86 48.1016C256.224 44.2937 255.117 40.1465 255.017 35.9878C254.986 34.3945 255.098 32.7725 255.558 31.2367C255.888 30.1495 256.417 29.0624 257.325 28.3377C256.996 27.9235 256.666 27.5094 256.336 27.0952C255.179 28.0213 254.47 29.373 254.04 30.7765C253.53 32.4676 253.393 34.2622 253.431 36.0223C253.53 40.3881 254.681 44.7309 256.398 48.7285C258.825 54.2965 263.41 58.2021 268.057 61.8949C269.917 63.3789 271.827 64.863 273.395 66.6691C274.023 67.3996 274.589 68.1934 274.994 69.0734C275.367 69.8902 275.591 70.7645 275.616 71.6618C275.634 72.4384 275.473 73.2034 275.112 73.8994C274.77 74.5551 274.266 75.1188 273.681 75.5675C273.084 76.0219 272.406 76.3612 271.684 76.5741C271.006 76.7696 270.29 76.8617 269.587 76.7926C269.127 76.7466 268.679 76.6143 268.268 76.3957C267.883 76.1944 267.534 75.9183 267.248 75.5847C266.974 75.2626 266.757 74.8887 266.626 74.4861C266.489 74.0777 266.446 73.6463 266.483 73.2149C266.52 72.8525 266.589 72.4786 266.763 72.1508C266.875 71.9437 267.03 71.7711 267.23 71.6561C267.491 71.5065 267.783 71.4433 268.082 71.4087C268.542 71.3627 269.009 71.3857 269.463 71.4318C269.618 71.449 269.805 71.4663 269.93 71.564C269.979 71.6043 269.998 71.6561 270.017 71.7136C270.147 72.2083 270.017 72.795 269.967 73.2896C270.508 73.3357 271.037 73.3874 271.566 73.4392Z" fill="#D8BF66"/>
<path fill-rule="evenodd" clip-rule="evenodd" d="M269.426 75.602C267.852 75.1476 266.856 73.5485 267.198 72.03C267.541 70.5114 269.096 69.6429 270.67 70.0973C272.244 70.5517 273.239 72.1507 272.897 73.6693C272.555 75.1878 271 76.0564 269.426 75.602Z" fill="#D8BF66"/>
<path fill-rule="evenodd" clip-rule="evenodd" d="M283.909 68.9066C280.531 65.4784 275.734 61.5556 272.549 59.0189C266.489 54.193 261.574 50.9718 258.364 46.0999C252.653 37.4489 251.776 28.7748 259.136 20.6357C260.243 19.4105 261.749 17.6677 263.335 16.9717C257.991 23.4772 247.956 44.1615 280.07 53.0426C277.98 58.0986 279.541 63.7701 283.909 68.9066Z" fill="#D8BF66"/>
<path d="M286.049 29.2867C285.999 27.958 285.943 26.8996 285.29 25.4271C284.829 24.3917 284.083 23.5117 283.168 22.8329C282.304 22.1945 281.302 21.7688 280.25 21.5502C279.18 21.3374 278.073 21.3317 276.997 21.4985C274.701 21.8666 272.567 22.9767 270.925 24.6103C269.09 26.4624 268.013 28.9013 267.833 31.4955C267.727 33.1003 267.92 34.7223 268.443 36.2466C268.934 37.6674 269.705 38.9903 270.726 40.1005C271.734 41.1934 272.959 42.0619 274.328 42.6429C275.759 43.2468 277.308 43.5172 278.863 43.4712C280.879 43.4021 282.857 42.919 284.649 41.9929C286.36 41.1071 287.847 39.8474 289.041 38.3404C290.267 36.7816 291.169 34.9984 291.754 33.106C292.369 31.0756 292.625 28.9588 292.556 26.8421C292.469 24.4838 291.828 22.1887 290.901 20.0259C289.9 17.7309 288.562 15.5911 286.976 13.647C285.414 11.7488 283.622 10.0404 281.582 8.66571C279.722 7.42328 277.65 6.45694 275.429 6.11182C275.348 6.63525 275.273 7.15869 275.193 7.68212C277.183 7.98698 279.037 8.87279 280.698 9.98293C282.608 11.2714 284.288 12.8762 285.75 14.6536C287.237 16.4827 288.5 18.4959 289.445 20.6587C290.298 22.6316 290.895 24.7368 290.97 26.8939C291.032 28.838 290.802 30.7765 290.236 32.6401C289.707 34.3427 288.898 35.9533 287.797 37.3568C286.739 38.6855 285.427 39.7956 283.921 40.5836C282.341 41.4004 280.586 41.8261 278.813 41.8836C277.494 41.9239 276.176 41.6938 274.956 41.1819C273.799 40.6929 272.76 39.9509 271.908 39.0306C271.037 38.0815 270.377 36.9541 269.961 35.7405C269.506 34.4117 269.345 33.0082 269.438 31.6105C269.593 29.396 270.508 27.3195 272.07 25.7377C273.476 24.34 275.305 23.3851 277.264 23.0688C278.154 22.9307 279.068 22.9307 279.952 23.109C280.773 23.2758 281.557 23.6037 282.235 24.1041C282.938 24.6276 283.486 25.3235 283.871 26.1116C284.35 27.1182 284.556 28.2283 284.593 29.3385C285.103 29.3154 285.52 29.3039 286.049 29.2867Z" fill="#D8BF66"/>
<path fill-rule="evenodd" clip-rule="evenodd" d="M282.347 32.7089C280.294 32.6802 278.652 30.8453 278.677 28.6078C278.701 26.3702 280.387 24.5756 282.44 24.6043C284.493 24.6331 286.136 26.468 286.111 28.7055C286.086 30.9431 284.4 32.7377 282.347 32.7089Z" fill="#D8BF66"/>
<path fill-rule="evenodd" clip-rule="evenodd" d="M289.377 24.1963C290.945 27.8776 289.67 33.4513 288.12 36.0455C285.999 39.6002 282.266 41.1187 278.658 40.9577C276.524 40.8657 271.902 39.698 271.13 35.6141C270.427 31.881 272.741 25.0419 278.297 23.8052C277.401 25.5768 277.071 26.9343 277.171 28.2342C277.258 29.3789 277.675 30.4775 278.334 31.7717C275.753 33.7044 276.916 36.8738 278.521 38.0299C280.618 39.5369 284.338 39.1285 287.249 35.6946C288.487 34.2336 290.13 29.8563 289.377 24.1963Z" fill="#D8BF66"/>
<path fill-rule="evenodd" clip-rule="evenodd" d="M283.112 19.1001C278.764 15.4476 264.212 16.2356 263.111 29.0511C261.5 47.8315 283.902 49.6088 288.506 43.3794C288.494 45.4904 286.534 46.8191 283.853 47.4461C279.927 48.3664 274.452 47.7912 271.242 45.9908C265.836 42.9537 261.829 37.4491 261.549 29.8622C261.294 23.0403 263.341 18.732 266.57 15.902C268.443 14.2627 270.72 13.1238 273.183 12.284C270.769 7.90672 260.399 18.0993 254.731 17.7714C249.063 17.4436 246.027 12.0194 238.917 9.05137C244.068 10.9323 247.732 7.67088 246.618 3.66748C249.748 6.16961 252.043 10.9035 256.784 11.7433C261.525 12.5831 266.645 7.52133 272.312 9.21818C277.986 10.9323 284.338 14.9242 283.112 19.1001Z" fill="#D8BF66"/>
<path d="M284.456 119.455C283.411 112.881 284.089 106.053 286.304 99.7835C290.41 88.2737 296.544 77.6152 300.694 66.1169C306.087 50.9834 305.272 35.4357 296.625 21.7861C293.9 17.5354 290.597 13.5722 286.621 10.4374C286.248 10.144 284.456 8.85559 284.854 8.19986C285.34 7.49236 287.237 8.90161 287.604 9.18921C291.729 12.4391 295.144 16.5288 297.969 20.9348C306.884 34.9985 307.761 51.0581 302.199 66.6576C298.05 78.1559 291.915 88.8144 287.816 100.324C285.694 106.341 285.041 112.898 286.043 119.214C286.117 119.685 286.659 122.257 285.912 122.475C285.029 122.653 284.531 119.921 284.456 119.455Z" fill="#D8BF66"/>
<path d="M289.029 86.6455C293.097 79.4268 296.743 71.8744 298.746 63.7928C301.658 51.6905 299.58 39.2489 295.916 27.5436C295.779 27.1122 295.449 25.772 296.109 25.5534C296.78 25.3348 297.297 26.6348 297.434 27.0662C301.191 39.0534 303.269 51.7826 300.289 64.1724C298.255 72.392 294.553 80.0767 290.416 87.4221C290.186 87.8247 289.396 89.0441 288.774 88.6933C288.164 88.3309 288.799 87.0424 289.029 86.6455Z" fill="#D8BF66"/>
<path d="M283.423 88.6187C289.433 83.7698 293.975 77.4023 296.712 70.1893C296.855 69.8154 297.34 69.7751 297.67 69.8902C298.006 70.011 298.342 70.3676 298.199 70.753C295.362 78.2306 290.652 84.8339 284.419 89.8612C283.243 90.7297 282.596 89.2975 283.423 88.6187Z" fill="#D8BF66"/>
<path d="M283.84 75.1935C286.422 74.1581 289.029 73.1228 291.455 71.7538C293.446 70.6264 295.263 69.2286 296.594 67.3477C299.076 63.7815 299.667 59.1856 300.034 54.9636C300.078 54.515 300.389 53.9628 300.911 53.9916C301.434 54.0376 301.658 54.6473 301.621 55.0959C301.229 59.6113 300.551 64.443 297.9 68.2566C296.438 70.333 294.441 71.8861 292.245 73.1343C289.757 74.5378 287.088 75.6076 284.438 76.666C282.92 77.2585 282.428 75.7687 283.84 75.1935Z" fill="#D8BF66"/>
<path d="M294.895 50.5576C296.345 49.4935 297.434 48.067 298.056 46.3816C298.759 44.4259 298.846 42.315 298.69 40.2557C298.317 35.7174 296.855 31.3516 295.673 26.9801C295.567 26.5832 295.916 26.2438 296.27 26.1518C296.625 26.0598 297.091 26.1748 297.203 26.5659C298.417 31.0352 299.897 35.4931 300.277 40.1292C300.451 42.4185 300.333 44.7481 299.555 46.9223C298.827 48.901 297.539 50.5863 295.841 51.8345C295.486 52.0934 294.858 52.1797 294.628 51.8115C294.416 51.4894 294.572 50.7992 294.895 50.5576Z" fill="#D8BF66"/>
<path d="M294.174 36.2467C295.076 35.0905 295.58 33.6295 295.86 32.2088C296.177 30.5579 296.202 28.8266 295.742 27.1988C295.686 26.9744 296.296 26.7731 296.433 26.7328C296.588 26.6811 297.192 26.5028 297.273 26.7616C297.802 28.631 297.789 30.6212 297.422 32.5136C297.092 34.1875 296.482 35.8728 295.425 37.2303C294.193 38.7143 293.371 37.3338 294.174 36.2467Z" fill="#D8BF66"/>
<path d="M291.393 15.2572C293.676 19.6632 295.026 22.476 295.038 27.8311C295.051 32.3349 293.744 36.6662 291.194 40.3878C290.945 40.7444 290.447 40.8077 290.099 40.5546C289.769 40.3072 289.651 39.8356 289.887 39.4847C292.251 36.0335 293.458 32.0128 293.452 27.8369C293.44 22.2862 291.523 18.254 288.998 13.3763C288.792 12.9794 288.263 12.7608 288.687 12.5307C289.582 12.0418 291.038 14.5727 291.393 15.2572Z" fill="#D8BF66"/>
<path d="M290.771 39.0709C292.426 38.6568 293.925 38.9961 295.175 40.2213C296.239 41.2567 296.556 42.8845 296.239 44.2937C295.953 45.5477 295.182 46.6233 294.279 47.5149C293.321 48.4582 292.202 49.2232 291.013 49.8444C288.711 51.0466 286.086 52.3063 284.381 54.331C282.652 56.3845 282.304 60.0485 284.288 62.0445C285.955 63.7125 287.268 63.586 289.085 62.5276C289.514 62.2803 289.9 61.9179 290.074 61.4462C290.565 60.1463 292.052 60.664 291.567 62.0042C291.15 63.1488 290.08 63.9254 288.873 64.351C285.912 65.3921 283.212 64.1957 281.899 61.36C280.748 58.8751 281.439 55.3779 283.168 53.3071C285.016 51.1156 287.791 49.7409 290.285 48.4294C291.331 47.8772 292.326 47.2043 293.172 46.376C293.85 45.703 294.479 44.8862 294.696 43.9371C294.889 43.0628 294.74 41.9987 294.074 41.3487C293.209 40.5032 292.301 40.3248 291.163 40.6067C290.596 40.7735 290.005 40.6987 289.806 40.2271C289.558 39.6691 290.323 39.1802 290.771 39.0709Z" fill="#D8BF66"/>
<path d="M290.97 62.5736C290.852 62.6772 290.733 62.7692 290.603 62.8612C290.13 63.2006 289.582 63.4479 288.998 63.5055C288.432 63.563 287.859 63.4479 287.349 63.1891C286.87 62.9418 286.459 62.5794 286.136 62.1537C285.812 61.7281 285.576 61.2392 285.439 60.7215C285.302 60.1923 285.265 59.6401 285.358 59.0994C285.514 58.2194 285.843 57.3738 286.329 56.6203C288.755 52.8642 293.744 52.8872 296.644 56.3097C300.003 60.3419 298.143 66.6403 293.564 68.9584C288.662 71.403 284.948 69.7522 281.93 74.7622C280.972 76.3612 280.201 78.0581 279.423 79.7492C279.224 80.1748 278.695 80.9858 278.16 80.7328C277.631 80.4797 277.781 79.5133 277.98 79.0877C278.776 77.3448 279.579 75.5905 280.568 73.9454C283.902 68.4177 287.592 70.1605 292.849 67.5376C296.494 65.697 298.13 60.5777 295.424 57.3335C293.228 54.7394 289.526 54.6013 287.666 57.4831C287.299 58.0583 287.044 58.7083 286.926 59.3813C286.87 59.6919 286.895 60.014 286.976 60.3188C287.063 60.6352 287.206 60.9401 287.405 61.1989C287.585 61.4347 287.809 61.6418 288.077 61.7741C288.313 61.8949 288.575 61.9467 288.836 61.9237C289.141 61.8892 289.427 61.7396 289.676 61.567C289.763 61.5038 289.844 61.4405 289.918 61.3715C290.242 61.0954 290.951 60.6064 291.387 60.9056C291.94 61.3197 291.318 62.2688 290.97 62.5736Z" fill="#D8BF66"/>
<path d="M279.436 79.7147C281.955 79.5939 284.245 78.8232 286.416 77.575C287.579 76.9077 288.886 75.9586 290.31 76.183C292.152 76.4821 292.183 78.3802 291.125 79.6514C290.628 80.2439 289.993 80.6926 289.34 81.101C287.859 82.0213 286.285 82.7863 284.917 83.8907C283.672 84.9088 282.565 86.111 281.837 87.5605C281.308 88.6246 281.016 89.7692 280.829 90.9369C280.655 92.024 280.68 93.3413 280.363 94.3996C280.132 95.1819 279.759 95.9066 279.23 96.5279C278.925 96.8787 278.229 97.1663 277.88 96.7062C277.613 96.3553 277.762 95.7974 278.023 95.4867C278.409 95.0381 278.67 94.5031 278.838 93.9395C279.131 92.9501 279.1 91.7019 279.255 90.6838C279.467 89.3551 279.803 88.0494 280.412 86.8415C281.24 85.1964 282.49 83.8159 283.909 82.654C285.327 81.5036 286.951 80.7041 288.494 79.7435C289.004 79.4271 289.514 79.082 289.9 78.6218C290.485 77.9201 290.36 77.5232 289.396 77.8108C288.612 78.0466 287.909 78.5413 287.206 78.9439C284.811 80.3187 282.279 81.1642 279.504 81.2965C279.044 81.3138 277.83 81.0894 277.849 80.1921C277.862 79.6342 278.988 79.7377 279.436 79.7147Z" fill="#D8BF66"/>
<path d="M278.745 95.55C279.479 95.4407 280.164 95.2739 280.798 94.8885C281.538 94.4341 282.254 93.8359 282.739 93.1111C283.293 92.2771 283.927 91.4488 284.693 90.7815C286.609 89.102 288.643 90.2351 287.71 92.835C287.411 93.6633 287.007 94.4513 286.615 95.2394C285.806 96.8672 284.854 98.5295 284.456 100.324C282.982 106.904 283.996 114.578 286.217 120.905C286.366 121.336 286.459 122.17 285.912 122.383C285.352 122.596 285.016 121.871 284.861 121.434C282.54 114.825 281.358 106.847 282.901 99.9733C283.33 98.0579 284.319 96.2862 285.184 94.5376C285.551 93.7956 285.856 93.0248 286.217 92.2828C286.453 91.7997 286.235 91.3855 285.887 91.7651C285.203 92.5014 284.624 93.1629 284.07 93.9969C283.461 94.9172 282.546 95.6305 281.638 96.246C281.128 96.5911 277.831 97.8968 277.638 96.246C277.575 95.78 278.328 95.6075 278.745 95.55Z" fill="#D8BF66"/>
<path d="M166.502 8.98215C165.568 8.79808 164.94 7.8605 165.002 6.92868C165.089 5.83579 166.141 5.18582 167.186 5.36988C167.373 5.40439 167.553 5.46766 167.721 5.55394C168.462 5.94508 168.841 6.77912 168.63 7.59016C168.424 8.33792 167.758 8.92463 166.974 8.9994C166.813 9.02241 166.657 9.01091 166.502 8.98215Z" fill="#D8BF66"/>
<path d="M170.029 9.747C169.189 9.4594 168.753 8.53332 168.977 7.69353C169.239 6.80197 170.191 6.32455 171.074 6.61215C171.317 6.69268 171.541 6.83073 171.721 7.01479C172.163 7.4692 172.3 8.13068 172.089 8.72314C171.877 9.30409 171.348 9.72974 170.738 9.81027C170.502 9.84478 170.259 9.82177 170.029 9.747Z" fill="#D8BF66"/>
<path d="M163.161 8.59103C163.976 8.499 164.586 7.69372 164.629 6.90569C164.667 5.90484 163.783 5.20885 162.819 5.30088C162.271 5.3584 161.754 5.66326 161.512 6.16369C161.331 6.50306 161.306 6.89419 161.425 7.26232C161.537 7.61319 161.761 7.91805 162.034 8.15963C162.339 8.44148 162.738 8.6313 163.161 8.59103Z" fill="#D8BF66"/>
<path d="M173.295 10.7596C174.054 11.0415 174.9 10.6503 175.199 9.90256C175.492 9.14329 175.118 8.28049 174.359 7.97563C173.587 7.68803 172.735 8.07917 172.443 8.84419C172.175 9.60345 172.536 10.4605 173.295 10.7596Z" fill="#D8BF66"/>
<path d="M160.685 9.28116C160.604 9.33868 160.517 9.38469 160.423 9.4192C159.901 9.58026 159.229 9.40195 158.799 9.08559C158.215 8.64843 158.115 7.87766 158.519 7.28521C158.625 7.14141 158.75 7.00911 158.893 6.90557C159.627 6.36488 160.71 6.48568 161.071 7.3945C161.295 7.9697 161.22 8.87276 160.685 9.28116Z" fill="#D8BF66"/>
<path d="M176.281 11.7716C175.603 11.4955 175.286 10.7132 175.547 10.0402C175.821 9.36149 176.592 9.02213 177.277 9.28672C177.955 9.56281 178.279 10.3451 178.011 11.0238C177.731 11.6968 176.959 12.0419 176.281 11.7716Z" fill="#D8BF66"/>
<path d="M159.273 11.0641C159.484 10.4314 159.142 9.72391 158.601 9.37304C157.835 8.89562 157.008 9.41905 156.734 10.1956C156.715 10.2416 156.703 10.2934 156.69 10.3394C156.529 11.0411 156.97 11.7486 157.686 11.8809C158.258 11.9787 158.98 11.7084 159.235 11.1562C159.248 11.1274 159.26 11.0986 159.273 11.0641Z" fill="#D8BF66"/>
<path d="M179.012 12.7257C179.628 12.9672 180.324 12.6567 180.567 12.0472C180.803 11.4377 180.511 10.7362 179.901 10.4889C179.286 10.2474 178.595 10.5579 178.346 11.1617C178.116 11.7769 178.402 12.4784 179.012 12.7257Z" fill="#D8BF66"/>
<path d="M158.768 13.4164C158.799 13.9741 158.289 14.4859 157.791 14.6526C157.051 14.8884 156.417 14.3076 156.361 13.5774C156.336 13.2439 156.435 12.8989 156.647 12.6401C156.896 12.3526 157.25 12.2089 157.629 12.2606C157.984 12.3124 158.301 12.5194 158.507 12.8184C158.643 12.9909 158.749 13.1921 158.768 13.4164Z" fill="#D8BF66"/>
<path d="M181.532 13.5832C180.978 13.3647 180.704 12.7379 180.916 12.1802C181.134 11.6339 181.749 11.3464 182.309 11.5534C182.863 11.7719 183.13 12.3929 182.931 12.9449C182.713 13.5027 182.091 13.7902 181.532 13.5832Z" fill="#D8BF66"/>
<path d="M159.328 15.3208C159.023 14.8953 158.376 14.8205 157.922 15.0045C157.288 15.2748 157.182 16.028 157.549 16.5627C157.698 16.7755 157.91 16.9422 158.158 17.017C158.513 17.1205 158.886 17.017 159.141 16.7525C159.371 16.511 159.489 16.1717 159.489 15.8383C159.477 15.6543 159.433 15.4703 159.328 15.3208Z" fill="#D8BF66"/>
<path d="M183.858 14.3307C184.368 14.5089 184.922 14.2387 185.102 13.7327C185.27 13.2324 185.015 12.6747 184.511 12.4907C184.008 12.3182 183.46 12.5884 183.274 13.0772C183.093 13.5832 183.355 14.1467 183.858 14.3307Z" fill="#D8BF66"/>
<path d="M160.697 16.6898C160.753 16.7243 160.809 16.7646 160.858 16.8105C161.144 17.0923 161.219 17.5638 161.095 17.9375C160.933 18.386 160.473 18.616 160.012 18.501C159.919 18.478 159.832 18.4435 159.751 18.3975C159.247 18.11 159.042 17.4718 159.421 17.0003C159.714 16.6381 160.267 16.4598 160.697 16.6898Z" fill="#D8BF66"/>
<path d="M186.017 14.958C185.557 14.8085 185.302 14.3082 185.457 13.8483C185.613 13.3998 186.104 13.1468 186.558 13.2848C186.72 13.3365 186.869 13.44 186.975 13.5723C187.168 13.7965 187.249 14.107 187.162 14.3945C187.068 14.682 186.826 14.889 186.54 14.9637C186.366 15.0155 186.185 15.0155 186.017 14.958Z" fill="#D8BF66"/>
<path d="M162.407 17.3456C161.966 17.2996 161.555 17.6331 161.437 18.0471C161.294 18.5703 161.686 19.0246 162.202 19.0936C162.271 19.0993 162.339 19.1051 162.401 19.0993C162.849 19.0648 163.21 18.7198 163.197 18.2598C163.179 17.8746 162.924 17.5008 162.551 17.3801C162.507 17.3628 162.457 17.3513 162.407 17.3456Z" fill="#D8BF66"/>
<path d="M188.151 15.5215C188.58 15.6423 189.065 15.441 189.19 14.9925C189.308 14.5555 189.009 14.1243 188.593 14.0035C188.17 13.8828 187.684 14.084 187.548 14.521C187.417 14.9638 187.728 15.395 188.151 15.5215Z" fill="#D8BF66"/>
<path d="M164.143 17.3283C164.224 17.311 164.305 17.3053 164.386 17.3168C164.691 17.357 164.964 17.5755 165.076 17.8573C165.207 18.1793 165.089 18.53 164.809 18.7313C164.722 18.7945 164.622 18.8405 164.523 18.8635C164.075 18.967 163.627 18.691 163.571 18.2253C163.534 17.8515 163.758 17.426 164.143 17.3283Z" fill="#D8BF66"/>
<path d="M190.136 15.9817C189.75 15.8782 189.476 15.4987 189.576 15.102C189.682 14.711 190.105 14.5097 190.484 14.6075C190.863 14.7052 191.125 15.0847 191.038 15.4757C190.944 15.8725 190.521 16.0795 190.136 15.9817Z" fill="#D8BF66"/>
<path d="M165.636 16.7645C165.338 16.9658 165.269 17.3913 165.419 17.7075C165.605 18.087 166.078 18.179 166.42 17.9548C166.569 17.857 166.688 17.7018 166.731 17.5235C166.781 17.3165 166.731 17.098 166.588 16.937C166.451 16.7818 166.258 16.6898 166.053 16.6725C165.91 16.6553 165.761 16.684 165.636 16.7645Z" fill="#D8BF66"/>
<path d="M191.934 16.3383C192.282 16.4131 192.643 16.2061 192.717 15.8496C192.786 15.4988 192.556 15.1653 192.207 15.0848C191.865 15.0101 191.504 15.2171 191.424 15.5621C191.343 15.9186 191.585 16.2578 191.934 16.3383Z" fill="#D8BF66"/>
<path d="M166.769 15.8152C166.968 15.5622 167.36 15.5277 167.633 15.683C167.963 15.8785 168.013 16.304 167.789 16.5972C167.559 16.8905 167.136 16.948 166.862 16.6835C166.638 16.4592 166.57 16.074 166.769 15.8152Z" fill="#D8BF66"/>
<path d="M193.557 16.5974C193.246 16.5399 193.029 16.2351 193.085 15.9246C193.147 15.6141 193.452 15.4129 193.756 15.4646C194.067 15.5221 194.273 15.8211 194.223 16.1316C194.173 16.4421 193.875 16.6549 193.557 16.5974Z" fill="#D8BF66"/>
<path d="M167.478 14.6477C167.385 14.9237 167.553 15.2342 167.808 15.3607C168.112 15.5044 168.461 15.3434 168.567 15.0329C168.672 14.7167 168.511 14.3717 168.175 14.2912C167.895 14.2337 167.578 14.3717 167.478 14.6477Z" fill="#D8BF66"/>
<path d="M195.026 16.7758C195.312 16.8103 195.56 16.6033 195.592 16.3273C195.623 16.057 195.442 15.7868 195.162 15.7465C194.882 15.712 194.634 15.9133 194.59 16.1893C194.553 16.4653 194.746 16.7355 195.026 16.7758Z" fill="#D8BF66"/>
<path d="M167.764 13.3936C167.764 13.1349 167.994 12.9221 168.243 12.8819C168.56 12.8359 168.803 13.0889 168.803 13.3936C168.803 13.5086 168.772 13.6179 168.71 13.7156C168.604 13.8651 168.43 13.9456 168.243 13.9169C168.075 13.8939 167.92 13.7846 167.833 13.6351C167.789 13.5661 167.764 13.4799 167.764 13.3936Z" fill="#D8BF66"/>
<path d="M196.345 16.8735C196.089 16.8505 195.922 16.609 195.946 16.3617C195.971 16.1202 196.183 15.919 196.432 15.942C196.68 15.965 196.842 16.2065 196.823 16.4422C196.805 16.6952 196.6 16.8965 196.345 16.8735Z" fill="#D8BF66"/>
<path d="M167.577 12.2836C167.615 12.3641 167.677 12.4273 167.745 12.4733C167.87 12.5423 168.019 12.5653 168.156 12.5251C168.305 12.4848 168.417 12.3698 168.455 12.2261C168.479 12.1168 168.467 12.0076 168.423 11.9098C168.311 11.6626 168.019 11.5476 167.777 11.6913C167.596 11.8063 167.484 12.0651 167.577 12.2836Z" fill="#D8BF66"/>
<path d="M197.533 16.9141C197.763 16.9198 197.925 16.7243 197.931 16.5058C197.937 16.2931 197.794 16.0861 197.57 16.0746C197.346 16.0688 197.184 16.2643 197.166 16.4713C197.159 16.6898 197.309 16.9026 197.533 16.9141Z" fill="#D8BF66"/>
<path d="M166.999 11.3689C166.85 11.2136 166.862 10.9606 166.986 10.7996C167.142 10.6099 167.422 10.6099 167.59 10.7766C167.646 10.8284 167.683 10.8974 167.702 10.9721C167.745 11.1274 167.696 11.2884 167.565 11.3861C167.447 11.4781 167.291 11.5069 167.148 11.4609C167.098 11.4436 167.042 11.4091 166.999 11.3689Z" fill="#D8BF66"/>
<path d="M198.603 16.8964C198.398 16.8964 198.267 16.7067 198.267 16.517C198.273 16.333 198.404 16.1432 198.597 16.1375C198.796 16.1375 198.926 16.3272 198.932 16.5112C198.939 16.7009 198.808 16.8907 198.603 16.8964Z" fill="#D8BF66"/>
<path d="M166.19 10.7306C166.371 10.8169 166.588 10.7421 166.688 10.5811C166.806 10.3914 166.725 10.1614 166.532 10.0579H166.526C166.333 9.96587 166.103 10.0464 166.022 10.2476C165.96 10.4144 166.016 10.6386 166.19 10.7306Z" fill="#D8BF66"/>
<path d="M199.567 16.8276C199.747 16.8161 199.847 16.6321 199.835 16.4711C199.822 16.3101 199.704 16.1433 199.53 16.1491C199.356 16.1606 199.256 16.3388 199.262 16.5056C199.262 16.6666 199.387 16.8391 199.567 16.8276Z" fill="#D8BF66"/>
<path d="M165.282 10.3911C165.108 10.3566 164.983 10.1841 164.996 10.0116C165.014 9.81037 165.207 9.68962 165.4 9.72412C165.593 9.75862 165.723 9.94262 165.674 10.1324C165.624 10.2934 165.456 10.4199 165.282 10.3911Z" fill="#D8BF66"/>
<path d="M254.184 25.4904C253.02 25.6802 252.124 26.3877 251.39 27.285C249.934 29.0854 249.132 31.2712 248.174 33.3534C247.16 35.5507 245.959 37.771 244.167 39.4333C241.038 42.3036 236.472 41.8549 233.709 38.7948C230.624 35.3436 231.6 30.6212 236.391 29.8965C237.05 29.7987 237.722 29.7987 238.375 29.9425C240.515 30.4199 241.99 32.5884 241.318 34.7051C240.926 35.9131 239.881 36.7299 238.674 37.0002C238.22 37.098 237.181 36.9829 237.212 36.3157C237.268 35.4817 238.842 35.4472 239.396 34.895C239.582 34.7051 239.725 34.4751 239.806 34.222C240.198 32.9853 239.259 31.7716 238.039 31.5013C237.579 31.4035 237.1 31.4092 236.633 31.4783C233.094 32.0132 232.652 35.2286 234.898 37.7422C237.075 40.1581 240.615 40.5434 243.091 38.2714C244.727 36.7529 245.81 34.6936 246.737 32.6919C247.751 30.4832 248.616 28.1996 250.158 26.2899C251.141 25.0878 252.386 24.179 253.935 23.9316C255.459 23.6843 255.745 25.2373 254.184 25.4904Z" fill="#D8BF66"/>
<path fill-rule="evenodd" clip-rule="evenodd" d="M237.492 36.9946C236.217 36.9774 235.19 35.9018 235.209 34.596C235.221 33.2903 236.273 32.2435 237.548 32.255C238.824 32.2722 239.851 33.3479 239.832 34.6536C239.82 35.965 238.768 37.0119 237.492 36.9946Z" fill="#D8BF66"/>
<path fill-rule="evenodd" clip-rule="evenodd" d="M249.58 24.3801C247.284 25.2659 244.634 26.146 242.326 26.3301C245.069 29.8848 243.645 35.0846 241.467 38.277C242.114 38.0987 243.719 36.0625 244.721 34.2793C245.909 32.1626 246.631 29.8043 247.645 27.676C248.336 26.2093 249.045 24.6965 249.58 24.3801Z" fill="#D8BF66"/>
<path d="M240.976 31.1101C240.546 30.2645 240.024 29.7353 239.128 29.3787C233.1 27.0089 227.6 33.3879 221.292 30.6959C218.915 29.6778 217.111 28.5677 214.436 28.6827C213.59 28.7172 212.37 29.9252 211.699 29.4995C211.251 29.2119 211.356 28.5792 211.686 28.2456C212.402 27.5323 213.353 27.1412 214.361 27.1009C217.323 26.9744 219.295 28.119 221.914 29.2407C228.004 31.8463 233.498 25.4674 239.707 27.912C240.945 28.4066 241.959 29.2924 242.45 30.5406C243.047 32.0304 241.76 32.6574 240.976 31.1101Z" fill="#D8BF66"/>
<path d="M211.064 28.7863C211.406 25.2833 217.876 21.0383 217.634 19.6463C217.615 19.3012 219.164 18.8353 219.22 19.5256C219.463 22.4016 213.173 24.9612 212.787 28.9704C212.632 30.184 210.977 29.8677 211.064 28.7863Z" fill="#D8BF66"/>
<path d="M219.071 20.1524C215.058 24.754 204.109 19.7842 198.814 20.0488C198.497 20.0603 198.36 19.5196 198.335 19.2953C198.304 19.0192 198.354 18.49 198.727 18.467C203.231 18.2427 215.015 22.6832 218.144 18.8697C218.94 18.0816 219.575 19.5714 219.071 20.1524Z" fill="#D8BF66"/>
<path d="M198.472 18.4325C199.959 17.5121 201.614 17.19 203.25 16.6436C203.972 16.402 204.905 16.1432 205.627 15.9016C206.51 15.6025 206.821 14.8374 205.652 14.6074C203.916 14.2622 202.242 14.176 200.587 14.1242C195.971 13.9861 192.232 13.434 188.058 11.484C183.803 9.49382 179.74 6.91692 176.387 3.81658C176.051 3.50022 175.796 2.89051 176.175 2.50512C176.549 2.1485 177.133 2.34407 177.469 2.64892C180.711 5.63997 184.649 8.12484 188.761 10.046C192.755 11.9097 196.202 12.088 200.619 12.203C203.424 12.2778 205.963 12.4791 207.157 13.5893C208.109 14.4751 208.476 16.2467 206.865 17.098C205.9 17.6099 204.793 17.794 203.76 18.1391C202.255 18.6453 200.687 18.9214 199.318 19.7727C197.85 20.693 197.054 19.3355 198.472 18.4325Z" fill="#D8BF66"/>
<path d="M177.662 2.3789C181.457 4.13902 185.75 4.40361 189.874 4.27131C195.169 4.093 200.407 3.23019 205.658 2.59172C210.156 2.05678 214.809 2.17183 219.139 3.63284C221.124 4.31733 222.996 5.28942 224.645 6.58937C225.933 7.61898 227.059 8.83266 227.992 10.1901C228.981 11.6569 227.693 12.5657 226.679 11.0817C225.84 9.85652 224.819 8.75788 223.656 7.83181C222.15 6.64114 220.439 5.75533 218.629 5.13411C214.529 3.74788 210.112 3.65585 205.857 4.16778C200.563 4.812 195.274 5.68055 189.937 5.85887C185.563 5.99691 181.022 5.68631 176.996 3.8169C175.522 3.12666 176.175 1.69441 177.662 2.3789Z" fill="#D8BF66"/>
<path d="M258.202 20.8368C257.711 21.1819 257.139 21.3947 256.548 21.5212C255.826 21.6766 255.079 21.6823 254.345 21.5903C252.815 21.4005 251.353 20.8195 249.99 20.1178C248.734 19.4678 247.533 18.6855 246.426 17.8054C246.009 17.4718 245.604 17.1267 245.231 16.7471C245.063 16.5803 244.908 16.402 244.765 16.2179C244.541 15.9015 244.597 14.7569 244.821 14.6648C245.486 14.3888 245.897 15.1595 246.363 15.6369C246.693 15.9706 247.048 16.2754 247.415 16.5688C248.441 17.3855 249.555 18.1103 250.718 18.7143C251.913 19.3297 253.201 19.8532 254.538 20.02C255.092 20.089 255.658 20.089 256.205 19.974C256.597 19.8877 256.977 19.7381 257.313 19.5138C258.65 18.6452 259.167 20.158 258.202 20.8368Z" fill="#D8BF66"/>
<path d="M246.127 15.9764C246.152 16.1489 246.171 16.3273 246.177 16.4998C246.189 17.3281 245.928 18.1219 245.436 18.7891C244.889 19.5196 244.118 20.0373 243.284 20.3824C242.233 20.8138 241.088 20.9806 239.962 21.0094C235.594 21.1014 231.538 20.1236 227.899 17.6675C224.981 15.6888 222.399 13.2959 219.145 11.8407C209.266 7.50941 198.205 6.85944 187.598 7.96957C187.137 8.01559 185.843 8.06736 185.744 7.38862C185.669 6.69263 186.963 6.43954 187.423 6.39352C198.31 5.25462 209.652 5.94486 219.786 10.3912C223.133 11.8924 225.784 14.3198 228.788 16.356C232.154 18.6281 235.881 19.5081 239.918 19.4218C240.851 19.3988 241.803 19.2665 242.674 18.9157C243.24 18.6798 243.788 18.3405 244.161 17.84C244.441 17.4604 244.597 17.006 244.59 16.5343C244.59 16.4308 244.578 16.3273 244.559 16.2237C244.491 15.8038 244.286 14.8547 244.715 14.5614C245.405 14.1127 246.046 15.522 246.127 15.9764Z" fill="#D8BF66"/>
<path fill-rule="evenodd" clip-rule="evenodd" d="M241.579 7.08367C239.9 7.06066 238.556 5.68593 238.581 4.01209C238.599 2.33825 239.974 0.998036 241.654 1.02104C243.334 1.04405 244.677 2.41878 244.653 4.09262C244.634 5.76645 243.253 7.10668 241.579 7.08367Z" fill="#D8BF66"/>
<path fill-rule="evenodd" clip-rule="evenodd" d="M235.041 8.90163C233.672 8.88437 232.577 7.76273 232.596 6.3995C232.614 5.03628 233.734 3.94339 235.097 3.96065C236.466 3.97791 237.561 5.09955 237.543 6.46278C237.53 7.826 236.41 8.91889 235.041 8.90163Z" fill="#D8BF66"/>
<path fill-rule="evenodd" clip-rule="evenodd" d="M231.047 12.4219C230.002 12.4104 229.168 11.5533 229.18 10.5122C229.193 9.47109 230.045 8.63705 231.091 8.64856C232.13 8.66006 232.97 9.51711 232.957 10.5582C232.945 11.6051 232.086 12.4334 231.047 12.4219Z" fill="#D8BF66"/>
<path fill-rule="evenodd" clip-rule="evenodd" d="M231.818 16.3966C230.935 16.3851 230.225 15.6603 230.238 14.7803C230.25 13.9002 230.972 13.1927 231.856 13.2042C232.739 13.2157 233.442 13.9405 233.436 14.8206C233.424 15.7006 232.702 16.4081 231.818 16.3966Z" fill="#D8BF66"/>
<path fill-rule="evenodd" clip-rule="evenodd" d="M235.134 18.3058C234.4 18.2943 233.815 17.6961 233.821 16.9655C233.828 16.235 234.431 15.6483 235.165 15.6598C235.9 15.6713 236.485 16.2695 236.478 17.0001C236.472 17.7306 235.869 18.3115 235.134 18.3058Z" fill="#D8BF66"/>
<path fill-rule="evenodd" clip-rule="evenodd" d="M238.431 16.8499C237.753 16.8384 237.206 16.2864 237.218 15.608C237.224 14.9295 237.784 14.3832 238.462 14.3947C239.14 14.4062 239.688 14.9582 239.675 15.6367C239.669 16.3152 239.115 16.8557 238.431 16.8499Z" fill="#D8BF66"/>
<path fill-rule="evenodd" clip-rule="evenodd" d="M240.011 14.1639C239.464 14.1581 239.029 13.7096 239.035 13.1634C239.041 12.6171 239.489 12.1801 240.036 12.1916C240.584 12.1974 241.019 12.6459 241.013 13.1921C241.007 13.7326 240.559 14.1696 240.011 14.1639Z" fill="#D8BF66"/>
<path d="M249.48 22.505C246.102 23.0802 242.724 23.7934 239.29 23.8797C235.203 23.966 231.302 22.9479 227.973 20.532C224.384 17.9149 220.719 15.5738 216.57 13.9345C212.644 12.4044 208.408 11.7142 204.239 11.2253C203.785 11.1735 202.622 10.9147 202.678 10.2589C202.752 9.59171 203.966 9.59747 204.426 9.64923C208.731 10.1497 213.098 10.8744 217.155 12.4562C221.435 14.1416 225.217 16.5517 228.913 19.2493C231.961 21.4639 235.52 22.3669 239.253 22.2922C242.612 22.2116 245.915 21.5041 249.213 20.9404C249.667 20.8657 250.513 20.9232 250.613 21.5156C250.7 22.0966 249.934 22.4302 249.48 22.505Z" fill="#D8BF66"/>
<path d="M249.039 22.649C243.894 24.576 238.22 25.387 232.733 25.318C230.064 25.2835 227.401 24.9844 224.732 25.0189C222.293 25.0591 219.824 25.3697 217.584 26.3936C217.198 26.5662 216.707 26.4281 216.495 26.0485C216.271 25.6286 216.501 25.1397 216.912 24.9498C219.357 23.834 222.038 23.4773 224.707 23.4313C227.395 23.3968 230.07 23.6959 232.758 23.7304C238.039 23.7937 243.52 23.0172 248.479 21.165C248.877 21.0155 249.312 21.2455 249.474 21.6252C249.63 22.0278 249.449 22.488 249.039 22.649Z" fill="#D8BF66"/>
<path d="M236.87 24.7999C233.697 24.9897 230.686 24.1959 227.899 22.7061C225.031 21.1703 222.455 19.1456 219.649 17.5121C218.032 16.586 216.147 16.1373 214.287 16.2006C213.434 16.2351 212.582 16.3789 211.779 16.6665C211.276 16.8506 210.79 17.0979 210.361 17.4143C210.044 17.6444 209.583 17.5121 209.322 17.2532C209.005 16.9196 209.055 16.4077 209.415 16.1316C209.969 15.7232 210.585 15.4126 211.232 15.1767C212.19 14.8259 213.21 14.6533 214.231 14.613C216.389 14.5383 218.573 15.0559 220.452 16.1373C223.245 17.7651 225.802 19.7784 228.658 21.3026C231.19 22.6486 233.902 23.3791 236.783 23.2066C237.212 23.1835 237.654 23.4769 237.71 23.9198C237.747 24.4087 237.318 24.7711 236.87 24.7999Z" fill="#D8BF66"/>
<path fill-rule="evenodd" clip-rule="evenodd" d="M300.059 152.869C299.984 152.086 299.866 151.482 299.711 150.999C299.263 149.63 297.863 148.399 296.83 147.45C295.573 146.3 293.894 145.052 293.744 146.674C293.657 147.634 293.458 148.572 292.575 149.958C292.923 149.107 293.178 148.325 293.234 147.26C293.284 146.323 293.153 145.092 293.272 144.522C293.16 144.08 293.284 142.941 292.929 140.807C293.875 144.131 298.852 148.946 301.857 151.028C302.336 151.362 302.61 151.465 303.238 152.282C301.981 151.275 301.16 150.832 300.662 150.982C300.096 151.143 299.947 152.017 300.059 152.869Z" fill="#D8BF66"/>
<path fill-rule="evenodd" clip-rule="evenodd" d="M286.665 160.277C287.71 159.788 287.71 158.598 287.61 157.499C287.274 153.818 286.36 153.283 287.896 149.659C288.4 148.468 289.576 146.846 289.75 146.029C290.397 142.975 289.39 139.616 290.727 135.659C290.852 134.52 290.908 133.341 290.995 132.443C291.188 130.47 291.611 129.78 293.116 134.019C294.391 137.39 297.291 142.406 301.254 146.438C304.887 150.136 308.57 153.162 311.357 157.102C314.928 162.141 315.351 167.111 315.22 172C313.522 168.474 307.823 165.512 305.428 163.044C303.027 160.571 303.767 155.244 301.677 155.492C299.86 155.71 302.012 159.351 302.566 161.238C303.331 163.861 301.876 166.662 300.818 168.928C301.328 165.684 298.28 162.365 296.388 160.11C295.337 158.856 296.264 156.251 296.32 155.681C296.426 154.6 297.745 152.57 296.488 151.166C294.553 149.003 294.578 153.938 293.968 155.083C292.824 157.252 289.906 159.529 286.665 160.277ZM305.061 157.798C305.602 159.788 306.075 160.559 306.958 161.376C308.856 163.13 311.898 164.672 313.484 166.409C313.105 164.655 312.564 162.515 311.537 160.743C308.694 155.842 303.642 151.091 300.121 147.795C298.715 146.478 297.228 144.845 296.059 143.222C294.647 141.261 293.303 138.782 292.295 136.959C291.791 138.857 291.225 140.433 291.691 143.447C291.704 148.733 290.068 148.808 289.047 152.029C288.674 153.283 289.041 155.325 289.352 157.114C291.001 155.934 292.401 155.037 292.973 153.127C293.452 151.523 293.446 149.4 294.522 148.727C296.787 147.318 298.665 150.907 298.833 152.903C298.945 154.226 297.807 155.808 297.72 157.303C297.452 161.226 300.134 160.484 301.241 164.931C302.212 162.457 301.247 161.445 300.258 159.196C299.263 156.947 299.561 154.238 300.998 153.777C302.429 153.306 303.997 153.915 305.061 157.798Z" fill="#D8BF66"/>
<path fill-rule="evenodd" clip-rule="evenodd" d="M306.859 6.46842C304.688 6.61797 303.051 8.59666 303.213 10.8917C303.369 13.1868 305.26 14.9239 307.437 14.7801C309.609 14.6305 311.245 12.6518 311.083 10.3625C310.928 8.06173 309.036 6.31887 306.859 6.46842Z" fill="#D8BF66"/>
<path d="M300.339 9.37314C300.476 8.48733 300.781 7.63028 301.254 6.86527C301.714 6.12326 302.324 5.48478 303.027 4.9671C304.507 3.87422 306.349 3.33353 308.184 3.32203C314.076 3.31627 319.071 9.91959 315.338 15.4013C313.31 18.3751 307.693 20.1294 304.999 17.0636C304.476 16.4711 304.146 15.7349 304.022 14.9526C304.557 15.384 305.148 15.7349 305.801 15.9419C308.178 16.7472 311.257 15.6026 312.694 13.5836C315.202 9.99436 312.11 5.387 308.078 4.73127C306.473 4.46667 304.781 4.69676 303.338 5.46178C302.616 5.84716 301.969 6.37059 301.459 7.01482C300.911 7.69931 300.532 8.51034 300.339 9.37314Z" fill="#D8BF66"/>
<path d="M307.263 7.94669C306.623 7.99271 306 8.16527 305.434 8.45862C304.881 8.75198 304.389 9.14887 303.985 9.63204C303.574 10.121 303.257 10.6904 303.058 11.2944C302.846 11.9328 302.765 12.6116 302.815 13.2846C302.89 14.3257 303.157 15.3495 303.624 16.2929C304.066 17.1729 304.675 17.961 305.416 18.6109C306.156 19.2494 307.008 19.7441 307.935 20.0547C308.899 20.3768 309.92 20.5033 310.934 20.4401C311.973 20.3653 312.974 20.0604 313.895 19.5773C314.828 19.0768 315.656 18.3981 316.346 17.5986C317.043 16.7875 317.591 15.8557 317.951 14.8491C318.312 13.8368 318.468 12.7611 318.399 11.6855C318.294 10.236 317.889 8.8325 317.211 7.54405C316.545 6.29011 315.637 5.17997 314.561 4.25965C313.478 3.34508 312.24 2.63183 310.903 2.17167C309.559 1.71151 308.134 1.50444 306.716 1.60222C305.179 1.71151 303.692 2.22344 302.367 2.99421C300.775 3.92603 299.425 5.20873 298.336 6.69275C297.067 8.42411 295.91 12.8359 299.991 17.0291L291.032 8.78073L293.004 9.82185C294.242 10.4718 294.659 10.0634 295.175 8.94754C295.692 7.8259 296.314 6.75602 297.048 5.75517C298.261 4.09859 299.779 2.66634 301.558 1.62523C303.095 0.733667 304.818 0.146958 306.598 0.0261652C308.228 -0.0831231 309.864 0.152709 311.413 0.681895C312.937 1.21108 314.349 2.02212 315.581 3.06323C316.813 4.11585 317.852 5.38705 318.611 6.81355C319.389 8.29181 319.861 9.91964 319.98 11.5877C320.067 12.8819 319.874 14.1761 319.445 15.3956C319.021 16.5862 318.368 17.6906 317.547 18.6512C316.726 19.6003 315.743 20.3998 314.642 20.9923C313.528 21.5847 312.303 21.9529 311.04 22.0391C309.814 22.1197 308.588 21.9644 307.425 21.5732C306.305 21.1936 305.266 20.5954 304.37 19.8189C303.475 19.0366 302.734 18.0817 302.199 17.0119C301.639 15.8845 301.316 14.6593 301.229 13.4054C301.166 12.531 301.278 11.6452 301.552 10.8112C301.813 10.0117 302.23 9.2639 302.765 8.61968C303.3 7.9812 303.96 7.44627 304.694 7.06088C305.453 6.66399 306.293 6.42816 307.151 6.37064C307.189 6.88832 307.226 7.41751 307.263 7.94669Z" fill="#D8BF66"/>
<path fill-rule="evenodd" clip-rule="evenodd" d="M292.071 26.7328C291.76 25.1165 291.928 23.644 291.729 22.3555C291.536 21.0958 290.341 17.4836 289.072 15.2345C290.354 16.4425 291.163 17.2477 292.326 19.6751C293.247 21.5905 292.849 19.7556 291.959 17.196C290.397 12.6921 287.959 9.83339 284.406 8.1423C283.224 7.5786 281.924 7.25074 280.512 7.24498C278.409 7.23923 276.997 5.61141 275.759 5.87601C274.527 6.1406 273.606 6.91137 274.851 7.53834C277.19 8.46441 279.921 9.37898 282.26 10.3108C284.649 12.9625 287.038 15.6142 289.433 18.2716C290.46 21.0901 291.051 23.9201 292.071 26.7328Z" fill="#D8BF66"/>
</g>
</svg>
