<svg width="180" height="40" viewBox="0 0 180 40" fill="none" xmlns="http://www.w3.org/2000/svg">
<path d="M180 0C175.481 3.55048 172.373 8.59246 171.23 14.2245L168.438 27.9827C167.02 34.9748 160.872 40 153.738 40L26.2622 40C19.1276 40 12.9804 34.9747 11.5617 27.9827L8.77019 14.2245C7.62746 8.59245 4.5188 3.55048 0 -6.11959e-06L180 0Z" fill="#D7C480"/>
<path d="M36.7924 28L36.7924 21.598L42.6004 21.598L42.6004 28L46.5604 28L46.5604 12.6L42.6004 12.6L42.6004 18.078L36.7924 18.078L36.7924 12.6L32.8324 12.6L32.8324 28L36.7924 28ZM54.2343 23.424C53.4643 22.61 53.0903 21.554 53.0903 20.3C53.0903 19.046 53.4643 17.99 54.2343 17.176C55.0043 16.362 55.9723 15.944 57.1383 15.944C58.3043 15.944 59.2503 16.362 60.0203 17.176C60.7903 17.99 61.1863 19.046 61.1863 20.3C61.1863 21.554 60.7903 22.61 60.0203 23.424C59.2503 24.238 58.3043 24.656 57.1383 24.656C55.9723 24.656 55.0043 24.238 54.2343 23.424ZM62.9463 25.976C64.4863 24.414 65.2563 22.522 65.2563 20.3C65.2563 18.078 64.4863 16.186 62.9463 14.624C61.4063 13.062 59.4703 12.292 57.1383 12.292C54.8063 12.292 52.8703 13.062 51.3303 14.624C49.7903 16.186 49.0203 18.078 49.0203 20.3C49.0203 22.522 49.7903 24.414 51.3303 25.976C52.8703 27.538 54.8063 28.308 57.1383 28.308C59.4703 28.308 61.4063 27.538 62.9463 25.976ZM75.643 28C77.293 28 78.635 27.604 79.625 26.79C80.637 25.976 81.143 24.898 81.143 23.578C81.143 22.456 80.835 21.554 80.241 20.828C79.647 20.102 78.965 19.662 78.217 19.486C79.163 19.046 80.021 17.99 80.021 16.494C80.021 13.964 78.041 12.6 75.225 12.6L67.723 12.6L67.723 28L75.643 28ZM71.683 21.422L74.873 21.422C76.039 21.422 76.809 22.038 76.809 23.072C76.809 24.106 76.083 24.7 74.873 24.7L71.683 24.7L71.683 21.422ZM71.683 15.812L74.631 15.812C75.599 15.812 76.215 16.318 76.215 17.176C76.215 17.99 75.599 18.496 74.631 18.496L71.683 18.496L71.683 15.812ZM86.7071 28L93.1751 19.222L93.1751 28L97.1351 28L97.1351 12.6L93.7031 12.6L87.3451 21.29L87.3451 12.6L83.3851 12.6L83.3851 28L86.7071 28ZM104.038 28L104.038 21.598L109.846 21.598L109.846 28L113.806 28L113.806 12.6L109.846 12.6L109.846 18.078L104.038 18.078L104.038 12.6L100.078 12.6L100.078 28L104.038 28ZM120.71 28L120.71 21.158L126.738 28L131.556 28L124.494 19.684L130.456 12.6L125.704 12.6L120.71 18.474L120.71 12.6L116.75 12.6L116.75 28L120.71 28ZM135.854 28L137.152 24.744L142.872 24.744L144.17 28L148.416 28L141.948 12.512L138.142 12.512L131.674 28L135.854 28ZM140.012 17.462L141.618 21.576L138.406 21.576L140.012 17.462Z" fill="white"/>
</svg>
