<svg width="22" height="22" viewBox="0 0 22 22" fill="none" xmlns="http://www.w3.org/2000/svg">
<path d="M19.3421 8.16414L21.8742 5.63204C21.9807 5.52552 22.0237 5.371 21.9874 5.22482C21.9512 5.0786 21.841 4.96207 21.6971 4.91764L15.5311 3.01455C14.9752 1.22787 13.3232 0.00012207 11.4297 0.00012207C9.66949 0.00012207 8.09529 1.07284 7.44375 2.69104L0.301746 4.91802C0.158188 4.9628 0.0484454 5.07942 0.0124805 5.22547C-0.0234843 5.37147 0.0194844 5.52573 0.125832 5.63208L2.72454 8.23079L1.08554 10.9625C1.01846 11.0743 1.00579 11.2105 1.05099 11.3327C1.0962 11.4549 1.19446 11.55 1.31813 11.5912L3.69529 12.3836V18.9923C3.69529 19.1714 3.80641 19.3317 3.97411 19.3946C5.42762 19.9396 10.8281 21.9651 10.8571 21.9753C10.9424 22.0054 11.0384 22.0094 11.1321 21.9792C11.1333 21.9787 11.1346 21.9785 11.1358 21.978L18.8702 19.3999C19.0457 19.3414 19.164 19.1772 19.164 18.9923V12.2066L21.6991 11.41C21.8425 11.365 21.9519 11.2484 21.9876 11.1024C22.0234 10.9565 21.9804 10.8025 21.8742 10.6962L19.3421 8.16414ZM15.7265 4.297C15.7265 4.18781 15.7219 4.07889 15.7137 3.97031L20.7623 5.52857L18.6183 7.67254L15.1151 6.50495C15.5118 5.8419 15.7265 5.07679 15.7265 4.297ZM8.17809 3.17861C8.65509 1.79149 9.96181 0.859497 11.4297 0.859497C13.011 0.859497 14.3824 1.92908 14.7648 3.46048C14.8327 3.7326 14.8672 4.01405 14.8672 4.297C14.8672 5.0951 14.6023 5.84314 14.1011 6.46056C13.4447 7.27018 12.471 7.7345 11.4297 7.7345C10.3041 7.7345 9.24827 7.18201 8.6052 6.2562C8.20417 5.68016 7.99216 5.00263 7.99216 4.297C7.99216 3.91324 8.05468 3.53697 8.17809 3.17861ZM1.23597 5.52689L7.17855 3.67391C7.14873 3.87921 7.13279 4.08718 7.13279 4.29695C7.13279 4.98879 7.29667 5.65889 7.60905 6.2635L3.38166 7.67254L1.23597 5.52689ZM2.09805 10.9453L3.45673 8.6808L10.3559 10.9805L8.99729 13.2451C8.26059 12.9995 2.88464 11.2075 2.09805 10.9453ZM10.5703 20.9504L4.55466 18.6945V12.6701C9.28767 14.2394 9.05654 14.1915 9.18833 14.1915C9.33605 14.1915 9.47751 14.115 9.55687 13.9828L10.5703 12.2937V20.9504ZM11 10.2894L4.62445 8.16423L8.09606 7.00708C8.9086 8.00597 10.1318 8.59387 11.4297 8.59387C12.6303 8.59387 13.7587 8.09977 14.5703 7.22923L17.3755 8.16418L11 10.2894ZM18.3047 18.6826L11.4297 20.9742V11.9671L12.9529 13.8711C13.0638 14.0096 13.2482 14.0657 13.4173 14.0126L18.3047 12.4767V18.6826ZM13.4403 13.1046L11.7205 10.955L18.6183 8.65579L20.7652 10.8027L13.4403 13.1046Z" fill="#7A5F46"/>
</svg>
