<svg width="22" height="22" viewBox="0 0 22 22" fill="none" xmlns="http://www.w3.org/2000/svg">
<path d="M17.1875 0.34375H4.8125C3.29622 0.34375 2.0625 1.57747 2.0625 3.09375V19.25C2.0625 20.5769 3.14222 21.6562 4.46875 21.6562H19.5938C19.7838 21.6562 19.9375 21.5023 19.9375 21.3125V3.09375C19.9375 1.57747 18.7038 0.34375 17.1875 0.34375ZM2.75 3.09375C2.75 1.95628 3.67503 1.03125 4.8125 1.03125H17.1875C18.325 1.03125 19.25 1.95628 19.25 3.09375V16.8438H4.46875C3.79603 16.8438 3.18691 17.1212 2.75 17.5673V3.09375ZM4.46875 20.9688C3.52103 20.9688 2.75 20.1977 2.75 19.25C2.75 18.3023 3.52103 17.5312 4.46875 17.5312H19.25V18.2188H4.46875C3.90019 18.2188 3.4375 18.6814 3.4375 19.25C3.4375 19.8186 3.90019 20.2812 4.46875 20.2812H19.25V20.9688H4.46875ZM19.25 18.9062V19.5938H4.46875C4.279 19.5938 4.125 19.4394 4.125 19.25C4.125 19.0606 4.279 18.9062 4.46875 18.9062H19.25Z" fill="#7A5F46"/>
<path d="M7.21875 9.26234V13.75C7.21875 13.9397 7.37241 14.0938 7.5625 14.0938H14.4375C14.6276 14.0938 14.7812 13.9397 14.7812 13.75V9.26234C16.3261 9.09081 17.5312 7.77734 17.5312 6.1875C17.5312 4.48181 16.1435 3.09375 14.4375 3.09375C14.1642 3.09375 13.8964 3.13156 13.6362 3.20134C13.0917 2.31412 12.1155 1.71875 11 1.71875C9.88453 1.71875 8.90828 2.31412 8.36378 3.20134C8.10356 3.13156 7.83578 3.09375 7.5625 3.09375C5.85647 3.09375 4.46875 4.48181 4.46875 6.1875C4.46875 7.77734 5.67394 9.09081 7.21875 9.26234ZM7.90625 13.4062V12.7188H14.0938V13.4062H7.90625ZM7.5625 3.78125C7.73369 3.78125 7.90212 3.8005 8.06678 3.83591C7.964 4.14322 7.90625 4.47081 7.90625 4.8125H8.59375C8.59375 3.48563 9.67347 2.40625 11 2.40625C12.3265 2.40625 13.4062 3.48563 13.4062 4.8125H14.0938C14.0938 4.47081 14.036 4.14322 13.9332 3.83591C14.0979 3.8005 14.2663 3.78125 14.4375 3.78125C15.764 3.78125 16.8438 4.86063 16.8438 6.1875C16.8438 7.51437 15.764 8.59375 14.4375 8.59375C14.2474 8.59375 14.0938 8.74775 14.0938 8.9375V12.0312H7.90625V8.9375C7.90625 8.74775 7.75259 8.59375 7.5625 8.59375C6.23597 8.59375 5.15625 7.51437 5.15625 6.1875C5.15625 4.86063 6.23597 3.78125 7.5625 3.78125Z" fill="#7A5F46"/>
<path d="M16.1562 6.1875H15.4688C15.4688 6.75606 15.0061 7.21875 14.4375 7.21875V7.90625C15.3852 7.90625 16.1562 7.13522 16.1562 6.1875Z" fill="#7A5F46"/>
<path d="M6.53125 14.7812H15.4688V15.4688H6.53125V14.7812Z" fill="#7A5F46"/>
</svg>
