<svg width="52" height="40" viewBox="0 0 52 40" fill="none" xmlns="http://www.w3.org/2000/svg">
<path d="M7.29289 0.292893C7.68342 -0.0976311 8.31658 -0.0976311 8.70711 0.292893L15.0711 6.65685C15.4616 7.04738 15.4616 7.68054 15.0711 8.07107C14.6805 8.46159 14.0474 8.46159 13.6569 8.07107L8 2.41421L2.34315 8.07107C1.95262 8.46159 1.31946 8.46159 0.928932 8.07107C0.538408 7.68054 0.538408 7.04738 0.928932 6.65685L7.29289 0.292893ZM50.5 38C51.0523 38 51.5 38.4477 51.5 39C51.5 39.5523 51.0523 40 50.5 40L50.5 38ZM9 1L9 19L7 19L7 1L9 1ZM28 38L50.5 38L50.5 40L28 40L28 38ZM9 19C9 29.4934 17.5066 38 28 38L28 40C16.402 40 7 30.598 7 19L9 19Z" fill="#7A5F46"/>
</svg>
