<svg width="40" height="40" viewBox="0 0 40 40" fill="none" xmlns="http://www.w3.org/2000/svg">
<path d="M35.3581 32.2886L26.4177 23.3482C29.7641 18.5501 29.2978 11.9 25.0185 7.61813C20.1983 2.795 12.4319 2.79381 7.61026 7.61544C2.80388 12.4218 2.80388 20.2145 7.61032 25.0209C11.8921 29.3027 18.5439 29.7699 23.3431 26.4228L32.2835 35.3633C33.1325 36.2122 34.5091 36.2122 35.3581 35.3633C36.2071 34.5142 36.2071 33.1376 35.3581 32.2886ZM23.0616 23.0146C19.3488 26.7273 13.3293 26.7273 9.61663 23.0146C5.90395 19.3018 5.90388 13.2823 9.61663 9.56962C13.3294 5.85687 19.3489 5.85687 23.0616 9.56962C26.7743 13.2823 26.7743 19.3018 23.0616 23.0146Z" fill="#EDA500"/>
<path d="M29.0064 25.9366L25.786 28.8654L32.2832 35.3626C33.1322 36.2116 34.5087 36.2116 35.3578 35.3626C36.2068 34.5136 36.2068 33.137 35.3578 32.288L29.0064 25.9366Z" fill="#877873"/>
<path d="M29.9698 26.9009L26.4172 23.3484C26.4172 23.3484 25.5328 24.5031 24.8516 25.1404C24.1703 25.7777 23.3427 26.423 23.3427 26.423L26.8952 29.9756L29.9698 26.9009Z" fill="#F6D36C"/>
</svg>
