<svg width="172" height="320" viewBox="0 0 172 320" fill="none" xmlns="http://www.w3.org/2000/svg">
<g opacity="0.4">
<path d="M41.1099 305.428C41.1214 304.787 41.2595 304.153 41.524 303.574C41.7829 303.002 42.1568 302.492 42.6169 302.056C43.0829 301.621 43.635 301.272 44.2275 301.036C44.8545 300.793 45.5275 300.669 46.2004 300.675C47.2473 300.687 48.2827 300.899 49.2433 301.31C50.1463 301.702 50.9631 302.261 51.6534 302.964C52.3321 303.667 52.8728 304.495 53.2352 305.397C53.609 306.343 53.7931 307.35 53.7816 308.371C53.7644 309.41 53.5113 310.43 53.0799 311.376C52.6312 312.334 51.9985 313.198 51.2392 313.939C50.4627 314.679 49.5654 315.283 48.576 315.699C47.5809 316.116 46.5168 316.334 45.4412 316.328C43.9917 316.309 42.5652 315.979 41.2422 315.382C39.9538 314.791 38.7976 313.951 37.8198 312.925C36.8477 311.898 36.0711 310.697 35.5305 309.391C34.9955 308.078 34.7137 306.666 34.7309 305.241C34.7539 303.699 35.1853 302.187 35.8813 300.818C36.7211 299.176 37.9348 297.751 39.3555 296.581C41.1214 295.132 43.1806 294.074 45.3376 293.346C48.1331 292.413 51.0839 292.009 54.0232 291.959C60.1491 291.866 66.7639 292.475 72.2456 295.431C74.2185 296.507 76.0361 297.95 77.2038 299.897C78.3254 301.795 78.6591 303.972 78.3772 306.144C78.9007 306.212 79.4298 306.28 79.9533 306.349C80.2811 303.823 79.867 301.285 78.567 299.082C77.2498 296.893 75.2309 295.244 73.0048 294.031C67.2758 290.945 60.4022 290.267 53.9944 290.366C50.8941 290.422 47.7822 290.845 44.8315 291.835C42.4904 292.625 40.2586 293.769 38.3432 295.35C36.7556 296.662 35.4039 298.255 34.4663 300.09C33.661 301.677 33.1664 303.431 33.1434 305.217C33.1261 306.853 33.4482 308.47 34.0579 309.988C34.6677 311.481 35.5592 312.844 36.6636 314.013C37.7795 315.183 39.1025 316.147 40.575 316.825C42.0935 317.516 43.7443 317.895 45.4124 317.914C46.7066 317.927 47.9893 317.659 49.1857 317.161C50.3534 316.67 51.4175 315.961 52.3321 315.083C53.2352 314.212 53.9829 313.186 54.5121 312.047C55.0413 310.897 55.3462 309.659 55.3634 308.389C55.3749 307.164 55.1563 305.944 54.7019 304.806C54.259 303.711 53.609 302.703 52.7865 301.857C51.9525 301.005 50.9631 300.32 49.8645 299.848C48.7083 299.356 47.4659 299.101 46.212 299.082C45.3319 299.07 44.4576 299.232 43.6408 299.549C42.8585 299.86 42.1338 300.314 41.524 300.887C40.9143 301.459 40.4197 302.143 40.0745 302.902C39.7179 303.686 39.5281 304.538 39.5166 305.397C40.0515 305.416 40.5807 305.422 41.1099 305.428Z" fill="#D8BF66"/>
<path fill-rule="evenodd" clip-rule="evenodd" d="M39.6084 305.117C39.6371 302.94 41.5238 301.198 43.8246 301.223C46.1254 301.247 47.966 303.039 47.9373 305.217C47.9085 307.394 46.0219 309.136 43.7211 309.111C41.4202 309.08 39.5796 307.294 39.6084 305.117Z" fill="#D8BF66"/>
<path d="M42.1509 298.435C41.2708 298.622 40.431 298.977 39.6947 299.493C38.9815 299.997 38.3775 300.638 37.8944 301.372C35.2542 305.409 36.5426 311.245 40.8279 313.615C45.0729 315.905 50.1922 313.814 51.6244 309.192C52.516 306.199 51.4519 302.143 47.9201 301.789C49.548 303.587 49.7033 305.969 48.7599 308.184C47.0228 312.234 42.0818 312.713 39.3439 309.36C37.6125 307.263 37.2731 304.115 38.4063 301.658C38.7514 300.918 39.2403 300.24 39.8501 299.692C40.5115 299.101 41.2996 298.678 42.1509 298.435Z" fill="#D8BF66"/>
<path fill-rule="evenodd" clip-rule="evenodd" d="M44.4229 296.444C44.4344 295.405 45.2914 294.571 46.3268 294.583C47.3622 294.596 48.1962 295.448 48.1847 296.488C48.1732 297.527 47.3161 298.36 46.2808 298.348C45.2397 298.336 44.4114 297.483 44.4229 296.444Z" fill="#D8BF66"/>
<path fill-rule="evenodd" clip-rule="evenodd" d="M50.566 295.965C50.5832 294.689 51.6301 293.663 52.907 293.681C54.184 293.694 55.2021 294.745 55.1848 296.021C55.1676 297.296 54.1207 298.323 52.8438 298.304C51.5726 298.292 50.5487 297.24 50.566 295.965Z" fill="#D8BF66"/>
<path fill-rule="evenodd" clip-rule="evenodd" d="M57.1752 296.631C57.1924 295.144 58.4118 293.956 59.8959 293.975C61.3799 293.993 62.5648 295.213 62.5475 296.693C62.5303 298.18 61.3109 299.369 59.8268 299.35C58.3428 299.331 57.1579 298.118 57.1752 296.631Z" fill="#D8BF66"/>
<path fill-rule="evenodd" clip-rule="evenodd" d="M63.8934 298.516C63.9164 296.768 65.3544 295.362 67.103 295.387C68.8517 295.405 70.2494 296.842 70.2264 298.591C70.2034 300.339 68.7654 301.745 67.0168 301.72C65.2682 301.701 63.8704 300.264 63.8934 298.516Z" fill="#D8BF66"/>
<path fill-rule="evenodd" clip-rule="evenodd" d="M69.8928 303.325C69.9158 301.421 71.4803 299.897 73.3842 299.916C75.2882 299.941 76.8067 301.502 76.7837 303.406C76.7607 305.31 75.1961 306.834 73.2922 306.815C71.3883 306.79 69.864 305.229 69.8928 303.325Z" fill="#D8BF66"/>
<path fill-rule="evenodd" clip-rule="evenodd" d="M78.4575 306.616C86.0386 304.725 89.6681 308.625 100.741 311.101C107.839 312.688 116.415 313.714 126.176 312.433C137.726 310.23 148.097 306.025 156.622 298.479C162.282 294.043 164.789 289.856 165.531 285.663C166.107 282.403 163.904 282.484 165.353 275.466C157.599 305.807 124.025 317.528 96.7028 306.174C90.646 303.655 84.7732 299.978 77.911 300.289C78.4459 302.224 78.5552 304.687 78.4575 306.616Z" fill="#D8BF66"/>
<path d="M34.2477 294.771C43.7961 289.906 54.5006 289.203 64.9175 291.063C75.4321 292.973 85.3889 297.122 95.012 301.645C108.88 308.115 124.767 310.822 139.889 307.817C139.786 307.3 150.404 300.308 150.3 299.791C150.151 303.02 132.003 309.36 118.912 306.94C110.957 305.471 102.99 303.624 95.685 300.202C85.9296 295.629 75.8463 291.43 65.1936 289.495C54.4315 287.573 43.3762 288.326 33.5172 293.352C33.7645 293.831 34.0061 294.298 34.2477 294.771Z" fill="#D8BF66"/>
<path d="M98.5608 271.566C99.2683 271.634 100.005 271.752 100.701 271.566C101.103 271.454 101.46 271.23 101.713 270.894C101.983 270.527 102.104 270.079 102.15 269.637C102.208 269.065 102.231 268.492 102.173 267.92C102.116 267.404 101.983 266.893 101.719 266.439C101.454 265.985 101.063 265.618 100.597 265.369C100.085 265.102 99.5156 264.971 98.9404 264.915C98.2904 264.853 97.6347 264.928 97.0135 265.127C96.4153 265.326 95.8574 265.643 95.3799 266.054C94.8968 266.47 94.4941 266.974 94.195 267.541C93.8844 268.132 93.6946 268.779 93.6256 269.438C93.5335 270.346 93.6428 271.267 93.8959 272.144C94.1663 273.053 94.5919 273.905 95.1671 274.658C95.7596 275.429 96.5016 276.076 97.3644 276.53C98.2962 277.015 99.3316 277.239 100.378 277.208C101.489 277.171 102.576 276.903 103.582 276.437C104.595 275.964 105.515 275.323 106.361 274.595C108.241 272.965 109.789 270.981 111.342 269.046C114.868 264.617 118.584 260.175 123.898 257.86C127.706 256.224 131.853 255.117 136.012 255.017C137.605 254.986 139.228 255.098 140.763 255.558C141.85 255.888 142.938 256.417 143.662 257.325C144.076 256.995 144.491 256.666 144.905 256.336C143.979 255.179 142.627 254.47 141.223 254.04C139.532 253.53 137.738 253.393 135.978 253.431C131.612 253.53 127.269 254.681 123.271 256.398C117.704 258.825 113.798 263.41 110.105 268.057C108.621 269.917 107.137 271.827 105.331 273.395C104.6 274.023 103.807 274.589 102.927 274.994C102.11 275.367 101.235 275.585 100.338 275.616C99.5616 275.634 98.7966 275.473 98.1006 275.112C97.4449 274.77 96.8812 274.266 96.4325 273.681C95.9781 273.084 95.6388 272.406 95.4259 271.684C95.2304 271.006 95.1383 270.29 95.2074 269.587C95.2534 269.127 95.3857 268.679 95.6043 268.268C95.8056 267.883 96.0817 267.534 96.4153 267.248C96.7374 266.974 97.1113 266.757 97.5139 266.626C97.9223 266.489 98.3537 266.446 98.7851 266.483C99.1475 266.52 99.5214 266.589 99.8492 266.763C100.056 266.875 100.229 267.03 100.344 267.229C100.493 267.485 100.557 267.783 100.591 268.082C100.637 268.542 100.614 269.009 100.568 269.469C100.551 269.625 100.534 269.811 100.436 269.936C100.396 269.985 100.344 270.004 100.286 270.023C99.7917 270.153 99.205 270.023 98.7104 269.973C98.6643 270.508 98.6126 271.037 98.5608 271.566Z" fill="#D8BF66"/>
<path fill-rule="evenodd" clip-rule="evenodd" d="M96.3982 269.426C96.8526 267.852 98.4516 266.856 99.9702 267.198C101.489 267.541 102.357 269.096 101.903 270.67C101.448 272.244 99.8494 273.239 98.3308 272.897C96.8123 272.555 95.9438 271 96.3982 269.426Z" fill="#D8BF66"/>
<path fill-rule="evenodd" clip-rule="evenodd" d="M103.093 283.909C106.522 280.531 110.444 275.734 112.981 272.549C117.807 266.489 121.028 261.574 125.9 258.364C134.551 252.653 143.225 251.776 151.364 259.136C152.589 260.243 154.332 261.749 155.028 263.335C148.523 257.991 127.839 247.956 118.957 280.07C113.901 277.98 108.23 279.541 103.093 283.909Z" fill="#D8BF66"/>
<path d="M142.713 286.049C144.042 285.999 145.101 285.943 146.573 285.29C147.608 284.83 148.488 284.083 149.167 283.168C149.806 282.304 150.231 281.302 150.45 280.251C150.663 279.181 150.668 278.079 150.502 276.997C150.134 274.701 149.023 272.567 147.39 270.925C145.538 269.09 143.099 268.013 140.505 267.833C138.9 267.727 137.278 267.92 135.753 268.443C134.333 268.934 133.01 269.706 131.9 270.726C130.807 271.734 129.938 272.959 129.357 274.328C128.753 275.759 128.483 277.308 128.529 278.857C128.598 280.873 129.081 282.851 130.007 284.649C130.893 286.36 132.153 287.847 133.66 289.041C135.219 290.267 137.002 291.169 138.894 291.754C140.925 292.37 143.041 292.625 145.158 292.556C147.516 292.469 149.811 291.828 151.974 290.901C154.269 289.9 156.409 288.562 158.353 286.976C160.251 285.414 161.96 283.623 163.334 281.582C164.577 279.722 165.543 277.65 165.888 275.429C165.365 275.348 164.841 275.274 164.318 275.193C164.013 277.184 163.127 279.038 162.017 280.699C160.729 282.609 159.124 284.288 157.347 285.75C155.517 287.237 153.504 288.506 151.341 289.446C149.369 290.298 147.263 290.895 145.106 290.97C143.162 291.032 141.224 290.802 139.36 290.236C137.657 289.707 136.047 288.898 134.643 287.797C133.315 286.739 132.204 285.427 131.416 283.921C130.6 282.341 130.174 280.587 130.117 278.814C130.076 277.495 130.306 276.176 130.818 274.956C131.307 273.799 132.049 272.76 132.97 271.908C133.919 271.037 135.046 270.378 136.26 269.961C137.588 269.507 138.992 269.345 140.39 269.438C142.604 269.594 144.681 270.508 146.262 272.07C147.66 273.476 148.615 275.305 148.931 277.264C149.069 278.154 149.069 279.069 148.891 279.952C148.724 280.773 148.396 281.557 147.896 282.235C147.373 282.938 146.677 283.486 145.889 283.871C144.882 284.35 143.772 284.556 142.662 284.593C142.685 285.103 142.696 285.52 142.713 286.049Z" fill="#D8BF66"/>
<path fill-rule="evenodd" clip-rule="evenodd" d="M139.291 282.341C139.32 280.288 141.155 278.645 143.392 278.67C145.63 278.695 147.424 280.381 147.396 282.434C147.367 284.487 145.532 286.13 143.294 286.105C141.057 286.08 139.262 284.394 139.291 282.341Z" fill="#D8BF66"/>
<path fill-rule="evenodd" clip-rule="evenodd" d="M147.804 289.377C144.122 290.945 138.549 289.67 135.955 288.12C132.4 285.999 130.881 282.266 131.042 278.658C131.134 276.524 132.302 271.902 136.386 271.13C140.119 270.427 146.958 272.741 148.195 278.297C146.423 277.401 145.066 277.071 143.766 277.171C142.621 277.258 141.522 277.675 140.228 278.334C138.296 275.753 135.126 276.916 133.97 278.521C132.463 280.611 132.871 284.338 136.305 287.249C137.766 288.487 142.144 290.13 147.804 289.377Z" fill="#D8BF66"/>
<path fill-rule="evenodd" clip-rule="evenodd" d="M152.9 283.113C156.553 278.764 155.764 264.212 142.949 263.111C124.169 261.5 122.391 283.903 128.621 288.506C126.51 288.494 125.181 286.534 124.554 283.853C123.634 279.927 124.209 274.453 126.009 271.242C129.046 265.836 134.551 261.83 142.138 261.55C148.96 261.295 153.268 263.341 156.098 266.57C157.737 268.443 158.876 270.72 159.716 273.183C164.093 270.77 153.901 260.392 154.229 254.731C154.557 249.064 159.981 246.034 162.949 238.917C161.068 244.068 164.329 247.738 168.333 246.619C165.831 249.748 161.097 252.044 160.257 256.79C159.417 261.531 164.479 266.651 162.782 272.319C161.068 277.98 157.076 284.332 152.9 283.113Z" fill="#D8BF66"/>
<path d="M52.5446 284.456C59.1192 283.411 65.9468 284.089 72.2165 286.304C83.7263 290.41 94.3848 296.544 105.883 300.693C121.017 306.087 136.564 305.272 150.214 296.625C154.465 293.9 158.428 290.596 161.563 286.621C161.856 286.248 163.144 284.456 163.8 284.854C164.508 285.339 163.098 287.237 162.811 287.604C159.561 291.729 155.471 295.15 151.065 297.968C137.001 306.884 120.942 307.755 105.342 302.199C93.8441 298.049 83.1856 291.915 71.6758 287.815C65.6592 285.694 59.1019 285.041 52.7862 286.042C52.3146 286.117 49.7434 286.658 49.5248 285.912C49.3465 285.028 52.0787 284.531 52.5446 284.456Z" fill="#D8BF66"/>
<path d="M85.3543 289.022C92.5731 293.091 100.126 296.737 108.207 298.74C120.309 301.652 132.751 299.574 144.456 295.909C144.888 295.773 146.228 295.443 146.446 296.102C146.665 296.774 145.365 297.291 144.934 297.427C132.947 301.185 120.217 303.263 107.827 300.283C99.6078 298.249 91.9231 294.547 84.5778 290.41C84.1752 290.18 82.9557 289.39 83.3066 288.767C83.669 288.158 84.9574 288.799 85.3543 289.022Z" fill="#D8BF66"/>
<path d="M83.3814 283.423C88.2303 289.433 94.5978 293.974 101.811 296.712C102.185 296.855 102.225 297.34 102.11 297.67C101.989 298.006 101.633 298.342 101.247 298.199C93.7695 295.362 87.1662 290.652 82.139 284.418C81.2704 283.236 82.7027 282.596 83.3814 283.423Z" fill="#D8BF66"/>
<path d="M96.8066 283.834C97.842 286.416 98.8774 289.022 100.246 291.449C101.374 293.433 102.771 295.256 104.652 296.587C108.219 299.07 112.814 299.661 117.036 300.028C117.485 300.071 118.037 300.382 118.009 300.905C117.963 301.428 117.353 301.652 116.904 301.614C112.389 301.222 107.557 300.544 103.744 297.894C101.667 296.432 100.114 294.435 98.8659 292.239C97.4624 289.75 96.3925 287.081 95.3341 284.431C94.7417 282.919 96.2314 282.428 96.8066 283.834Z" fill="#D8BF66"/>
<path d="M121.442 294.896C122.507 296.339 123.933 297.434 125.618 298.056C127.574 298.759 129.685 298.846 131.744 298.69C136.283 298.317 140.648 296.855 145.02 295.673C145.417 295.567 145.756 295.916 145.848 296.27C145.94 296.625 145.825 297.092 145.434 297.204C140.965 298.417 136.507 299.897 131.871 300.277C129.582 300.451 127.252 300.333 125.078 299.549C123.099 298.821 121.414 297.54 120.165 295.835C119.907 295.48 119.82 294.852 120.188 294.622C120.511 294.41 121.201 294.566 121.442 294.896Z" fill="#D8BF66"/>
<path d="M135.753 294.167C136.909 295.069 138.37 295.573 139.791 295.853C141.442 296.171 143.173 296.196 144.801 295.735C145.025 295.679 145.227 296.289 145.267 296.426C145.319 296.581 145.497 297.185 145.238 297.266C143.369 297.795 141.379 297.782 139.486 297.415C137.812 297.085 136.127 296.476 134.77 295.418C133.286 294.192 134.666 293.371 135.753 294.167Z" fill="#D8BF66"/>
<path d="M156.743 291.393C152.337 293.676 149.524 295.026 144.169 295.038C139.665 295.051 135.334 293.744 131.612 291.194C131.255 290.945 131.192 290.447 131.445 290.099C131.693 289.769 132.164 289.651 132.515 289.887C135.966 292.251 139.987 293.458 144.163 293.452C149.714 293.439 153.746 291.523 158.624 288.997C159.02 288.792 159.239 288.263 159.469 288.686C159.958 289.582 157.427 291.038 156.743 291.393Z" fill="#D8BF66"/>
<path d="M132.929 290.764C133.343 292.419 133.004 293.919 131.779 295.169C130.743 296.233 129.116 296.55 127.706 296.233C126.452 295.947 125.377 295.175 124.485 294.273C123.542 293.315 122.777 292.195 122.156 291.007C120.954 288.705 119.694 286.08 117.669 284.375C115.616 282.646 111.952 282.297 109.956 284.282C108.288 285.949 108.414 287.262 109.473 289.078C109.72 289.508 110.082 289.893 110.554 290.068C111.854 290.559 111.336 292.046 109.996 291.561C108.851 291.144 108.075 290.074 107.649 288.867C106.608 285.906 107.804 283.206 110.64 281.893C113.125 280.742 116.622 281.432 118.693 283.162C120.885 285.01 122.259 287.784 123.571 290.279C124.123 291.324 124.796 292.32 125.624 293.166C126.297 293.844 127.114 294.472 128.063 294.69C128.937 294.883 130.001 294.733 130.651 294.068C131.497 293.203 131.675 292.289 131.393 291.156C131.227 290.59 131.301 289.999 131.773 289.8C132.331 289.557 132.82 290.316 132.929 290.764Z" fill="#D8BF66"/>
<path d="M109.426 290.97C109.323 290.851 109.231 290.733 109.139 290.603C108.799 290.13 108.552 289.582 108.495 288.997C108.437 288.431 108.552 287.859 108.811 287.349C109.058 286.87 109.421 286.459 109.846 286.136C110.272 285.812 110.761 285.576 111.279 285.439C111.808 285.302 112.36 285.265 112.901 285.358C113.781 285.514 114.626 285.843 115.38 286.329C119.136 288.755 119.113 293.744 115.69 296.643C111.658 300.003 105.36 298.143 103.042 293.564C100.597 288.662 102.248 284.947 97.2378 281.93C95.6388 280.972 93.9419 280.201 92.2508 279.423C91.8252 279.224 91.0142 278.695 91.2672 278.16C91.5203 277.631 92.4867 277.781 92.9123 277.98C94.6552 278.776 96.4096 279.578 98.0546 280.568C103.582 283.896 101.839 287.591 104.462 292.848C106.303 296.494 111.422 298.13 114.666 295.424C117.261 293.228 117.399 289.526 114.517 287.666C113.942 287.299 113.292 287.044 112.619 286.926C112.308 286.87 111.986 286.895 111.681 286.976C111.365 287.063 111.06 287.206 110.801 287.405C110.565 287.585 110.358 287.809 110.226 288.077C110.105 288.313 110.053 288.574 110.076 288.836C110.111 289.141 110.26 289.427 110.433 289.676C110.496 289.763 110.56 289.844 110.629 289.924C110.905 290.248 111.394 290.957 111.094 291.393C110.68 291.94 109.731 291.318 109.426 290.97Z" fill="#D8BF66"/>
<path d="M92.2853 279.429C92.4061 281.955 93.1768 284.238 94.425 286.41C95.0923 287.573 96.0414 288.88 95.817 290.304C95.5179 292.146 93.6198 292.177 92.3486 291.119C91.7561 290.621 91.3074 289.987 90.899 289.334C89.9787 287.847 89.2137 286.279 88.1093 284.91C87.0912 283.666 85.889 282.559 84.4395 281.831C83.3754 281.302 82.2308 281.01 81.0631 280.823C79.976 280.649 78.6587 280.674 77.6004 280.356C76.8181 280.126 76.0934 279.753 75.4721 279.224C75.1213 278.919 74.8337 278.222 75.2938 277.874C75.6447 277.607 76.2026 277.756 76.5133 278.017C76.9619 278.403 77.4969 278.664 78.0605 278.832C79.0499 279.125 80.2981 279.093 81.3162 279.249C82.6449 279.461 83.9506 279.796 85.1585 280.406C86.8036 281.234 88.1841 282.484 89.346 283.902C90.4964 285.321 91.2959 286.945 92.2565 288.488C92.5729 288.998 92.918 289.508 93.3782 289.894C94.0799 290.478 94.4768 290.354 94.1892 289.39C93.9534 288.606 93.4587 287.903 93.0561 287.2C91.6813 284.805 90.8358 282.273 90.7035 279.498C90.6862 279.037 90.9106 277.824 91.8079 277.843C92.3658 277.862 92.2623 278.981 92.2853 279.429Z" fill="#D8BF66"/>
<path d="M76.45 278.745C76.5593 279.479 76.7261 280.164 77.1115 280.792C77.5659 281.532 78.1641 282.248 78.8889 282.733C79.7229 283.287 80.5512 283.921 81.2185 284.686C82.898 286.609 81.7649 288.637 79.165 287.704C78.3367 287.405 77.5487 287.001 76.7606 286.609C75.1328 285.8 73.4705 284.848 71.6759 284.45C65.0956 282.976 57.4224 283.99 51.0951 286.211C50.6637 286.36 49.8297 286.453 49.6169 285.906C49.404 285.346 50.1288 285.01 50.566 284.854C57.175 282.534 65.1531 281.352 72.0267 282.895C73.9421 283.324 75.7138 284.313 77.4624 285.184C78.2044 285.551 78.9752 285.856 79.7172 286.217C80.2003 286.453 80.6145 286.235 80.2349 285.887C79.4986 285.203 78.8371 284.624 78.0031 284.07C77.0828 283.461 76.3695 282.546 75.754 281.638C75.4089 281.128 74.1032 277.831 75.754 277.638C76.22 277.575 76.3925 278.328 76.45 278.745Z" fill="#D8BF66"/>
<path d="M163.018 166.501C163.202 165.567 164.14 164.939 165.071 165.001C166.164 165.095 166.814 166.14 166.63 167.185C166.596 167.372 166.532 167.552 166.446 167.72C166.055 168.461 165.221 168.84 164.41 168.629C163.662 168.423 163.075 167.758 163.001 166.974C162.978 166.812 162.989 166.656 163.018 166.501Z" fill="#D8BF66"/>
<path d="M162.253 170.028C162.541 169.188 163.467 168.753 164.306 168.977C165.198 169.238 165.675 170.19 165.388 171.074C165.307 171.316 165.169 171.54 164.985 171.727C164.531 172.169 163.869 172.306 163.277 172.094C162.696 171.882 162.27 171.354 162.19 170.744C162.155 170.501 162.178 170.258 162.253 170.028Z" fill="#D8BF66"/>
<path d="M163.409 163.16C163.501 163.975 164.306 164.585 165.094 164.628C166.095 164.666 166.791 163.782 166.699 162.818C166.642 162.27 166.337 161.754 165.836 161.511C165.497 161.331 165.106 161.306 164.738 161.424C164.387 161.536 164.082 161.76 163.84 162.034C163.559 162.339 163.369 162.731 163.409 163.16Z" fill="#D8BF66"/>
<path d="M161.24 173.294C160.959 174.054 161.35 174.9 162.097 175.199C162.857 175.491 163.72 175.118 164.024 174.359C164.312 173.593 163.921 172.734 163.156 172.442C162.397 172.174 161.539 172.535 161.24 173.294Z" fill="#D8BF66"/>
<path d="M162.719 160.678C162.661 160.597 162.615 160.51 162.581 160.417C162.42 159.894 162.598 159.222 162.914 158.793C163.352 158.208 164.122 158.108 164.715 158.513C164.859 158.618 164.991 158.743 165.094 158.886C165.635 159.62 165.514 160.703 164.606 161.064C164.03 161.294 163.127 161.213 162.719 160.678Z" fill="#D8BF66"/>
<path d="M160.228 176.281C160.504 175.602 161.287 175.285 161.96 175.546C162.638 175.82 162.978 176.592 162.713 177.276C162.437 177.954 161.655 178.278 160.976 178.01C160.303 177.73 159.958 176.959 160.228 176.281Z" fill="#D8BF66"/>
<path d="M160.936 159.266C161.568 159.478 162.276 159.135 162.627 158.594C163.104 157.829 162.581 157.001 161.804 156.727C161.758 156.709 161.707 156.696 161.661 156.684C160.959 156.528 160.251 156.964 160.119 157.679C160.021 158.252 160.292 158.974 160.844 159.229C160.872 159.247 160.901 159.26 160.936 159.266Z" fill="#D8BF66"/>
<path d="M159.274 179.012C159.033 179.628 159.343 180.325 159.953 180.567C160.562 180.804 161.264 180.511 161.511 179.902C161.753 179.286 161.442 178.596 160.838 178.347C160.223 178.11 159.522 178.403 159.274 179.012Z" fill="#D8BF66"/>
<path d="M158.584 158.762C158.026 158.793 157.514 158.283 157.347 157.785C157.112 157.045 157.692 156.41 158.423 156.354C158.756 156.336 159.101 156.429 159.36 156.64C159.647 156.889 159.791 157.244 159.739 157.623C159.688 157.978 159.481 158.295 159.182 158.5C159.009 158.637 158.808 158.749 158.584 158.762Z" fill="#D8BF66"/>
<path d="M158.417 181.532C158.635 180.978 159.262 180.705 159.82 180.916C160.366 181.134 160.654 181.75 160.447 182.303C160.228 182.857 159.607 183.124 159.055 182.925C158.497 182.714 158.21 182.092 158.417 181.532Z" fill="#D8BF66"/>
<path d="M156.679 159.328C157.105 159.023 157.18 158.376 156.996 157.922C156.725 157.294 155.972 157.182 155.437 157.549C155.225 157.698 155.058 157.91 154.983 158.158C154.88 158.513 154.983 158.886 155.248 159.141C155.489 159.371 155.828 159.49 156.162 159.49C156.346 159.477 156.53 159.427 156.679 159.328Z" fill="#D8BF66"/>
<path d="M157.669 183.859C157.491 184.369 157.761 184.922 158.267 185.103C158.767 185.271 159.325 185.015 159.509 184.512C159.682 184.008 159.411 183.46 158.923 183.274C158.417 183.093 157.853 183.355 157.669 183.859Z" fill="#D8BF66"/>
<path d="M155.31 160.69C155.276 160.746 155.235 160.802 155.189 160.852C154.908 161.138 154.436 161.213 154.062 161.089C153.614 160.927 153.384 160.467 153.499 160.006C153.522 159.913 153.556 159.826 153.602 159.745C153.89 159.241 154.528 159.036 155 159.415C155.362 159.708 155.54 160.267 155.31 160.69Z" fill="#D8BF66"/>
<path d="M157.042 186.017C157.192 185.557 157.692 185.302 158.152 185.458C158.6 185.613 158.853 186.104 158.715 186.559C158.664 186.72 158.56 186.863 158.428 186.975C158.204 187.168 157.893 187.249 157.606 187.162C157.318 187.069 157.111 186.826 157.036 186.54C156.985 186.366 156.985 186.185 157.042 186.017Z" fill="#D8BF66"/>
<path d="M154.654 162.407C154.7 161.966 154.367 161.555 153.953 161.437C153.43 161.294 152.975 161.686 152.906 162.202C152.901 162.271 152.895 162.339 152.901 162.401C152.935 162.849 153.28 163.21 153.74 163.197C154.125 163.179 154.499 162.924 154.62 162.551C154.637 162.507 154.649 162.457 154.654 162.407Z" fill="#D8BF66"/>
<path d="M156.479 188.151C156.358 188.58 156.559 189.065 157.008 189.19C157.445 189.308 157.876 189.009 157.997 188.593C158.117 188.17 157.916 187.684 157.479 187.548C157.036 187.417 156.605 187.722 156.479 188.151Z" fill="#D8BF66"/>
<path d="M154.672 164.143C154.689 164.224 154.695 164.305 154.683 164.386C154.643 164.691 154.424 164.964 154.143 165.076C153.821 165.207 153.47 165.089 153.269 164.809C153.205 164.722 153.159 164.622 153.136 164.523C153.033 164.075 153.309 163.627 153.775 163.571C154.148 163.534 154.574 163.758 154.672 164.143Z" fill="#D8BF66"/>
<path d="M156.018 190.136C156.122 189.75 156.501 189.476 156.898 189.576C157.289 189.682 157.49 190.105 157.393 190.484C157.295 190.863 156.915 191.125 156.524 191.038C156.128 190.938 155.921 190.521 156.018 190.136Z" fill="#D8BF66"/>
<path d="M155.236 165.636C155.034 165.338 154.609 165.269 154.293 165.419C153.913 165.605 153.821 166.078 154.045 166.42C154.143 166.569 154.298 166.687 154.477 166.731C154.684 166.781 154.902 166.731 155.063 166.588C155.218 166.451 155.31 166.258 155.328 166.053C155.345 165.904 155.316 165.761 155.236 165.636Z" fill="#D8BF66"/>
<path d="M155.662 191.933C155.587 192.282 155.794 192.643 156.15 192.717C156.501 192.786 156.835 192.555 156.915 192.207C156.99 191.865 156.783 191.504 156.438 191.423C156.081 191.343 155.742 191.585 155.662 191.933Z" fill="#D8BF66"/>
<path d="M156.185 166.769C156.438 166.968 156.472 167.36 156.317 167.633C156.122 167.963 155.696 168.013 155.403 167.789C155.11 167.559 155.052 167.136 155.317 166.862C155.541 166.638 155.926 166.57 156.185 166.769Z" fill="#D8BF66"/>
<path d="M155.403 193.557C155.46 193.246 155.765 193.029 156.075 193.085C156.386 193.147 156.587 193.452 156.535 193.757C156.478 194.068 156.179 194.273 155.868 194.223C155.558 194.173 155.345 193.875 155.403 193.557Z" fill="#D8BF66"/>
<path d="M157.352 167.472C157.076 167.378 156.766 167.546 156.639 167.801C156.496 168.106 156.657 168.448 156.967 168.567C157.283 168.672 157.628 168.511 157.709 168.175C157.766 167.895 157.628 167.571 157.352 167.472Z" fill="#D8BF66"/>
<path d="M155.224 195.025C155.19 195.305 155.397 195.56 155.673 195.591C155.943 195.623 156.213 195.442 156.254 195.162C156.288 194.882 156.087 194.634 155.811 194.59C155.535 194.553 155.265 194.739 155.224 195.025Z" fill="#D8BF66"/>
<path d="M158.606 167.758C158.865 167.758 159.078 167.988 159.118 168.237C159.164 168.554 158.911 168.797 158.606 168.797C158.491 168.797 158.382 168.766 158.284 168.704C158.135 168.598 158.054 168.424 158.083 168.237C158.106 168.069 158.215 167.914 158.365 167.827C158.434 167.789 158.52 167.764 158.606 167.758Z" fill="#D8BF66"/>
<path d="M155.126 196.344C155.149 196.089 155.391 195.921 155.638 195.946C155.88 195.971 156.081 196.183 156.058 196.431C156.035 196.68 155.793 196.842 155.558 196.823C155.305 196.805 155.103 196.599 155.126 196.344Z" fill="#D8BF66"/>
<path d="M159.716 167.571C159.636 167.609 159.573 167.671 159.527 167.739C159.458 167.864 159.435 168.013 159.475 168.15C159.515 168.299 159.63 168.411 159.774 168.448C159.883 168.473 159.992 168.461 160.09 168.417C160.337 168.305 160.452 168.013 160.309 167.776C160.194 167.596 159.935 167.478 159.716 167.571Z" fill="#D8BF66"/>
<path d="M155.086 197.533C155.08 197.763 155.276 197.924 155.494 197.931C155.707 197.937 155.914 197.794 155.926 197.57C155.931 197.346 155.736 197.184 155.529 197.166C155.31 197.159 155.098 197.309 155.086 197.533Z" fill="#D8BF66"/>
<path d="M160.631 166.999C160.786 166.85 161.039 166.862 161.2 166.986C161.39 167.142 161.39 167.422 161.223 167.596C161.172 167.652 161.103 167.689 161.028 167.708C160.873 167.752 160.712 167.696 160.614 167.571C160.522 167.453 160.493 167.297 160.539 167.154C160.556 167.098 160.591 167.042 160.631 166.999Z" fill="#D8BF66"/>
<path d="M155.103 198.603C155.103 198.398 155.293 198.267 155.483 198.267C155.667 198.273 155.857 198.404 155.862 198.597C155.862 198.796 155.673 198.926 155.489 198.926C155.299 198.933 155.109 198.808 155.103 198.603Z" fill="#D8BF66"/>
<path d="M161.27 166.184C161.27 166.19 161.27 166.19 161.27 166.184C161.183 166.364 161.258 166.582 161.419 166.681C161.609 166.8 161.839 166.719 161.942 166.526L161.942 166.52C162.034 166.327 161.954 166.097 161.753 166.016C161.586 165.954 161.362 166.016 161.27 166.184Z" fill="#D8BF66"/>
<path d="M155.172 199.567C155.184 199.747 155.368 199.847 155.529 199.834C155.69 199.822 155.857 199.704 155.851 199.53C155.839 199.355 155.661 199.256 155.494 199.262C155.333 199.262 155.161 199.387 155.172 199.567Z" fill="#D8BF66"/>
<path d="M161.609 165.282C161.644 165.107 161.816 164.983 161.989 164.995C162.19 165.014 162.311 165.207 162.276 165.4C162.242 165.593 162.058 165.723 161.868 165.673C161.707 165.624 161.58 165.456 161.609 165.282Z" fill="#D8BF66"/>
<path d="M146.509 254.184C146.32 253.02 145.612 252.125 144.715 251.39C142.914 249.935 140.729 249.132 138.646 248.174C136.449 247.16 134.229 245.959 132.567 244.168C129.696 241.038 130.145 236.472 133.205 233.71C136.656 230.624 141.379 231.601 142.103 236.391C142.201 237.05 142.201 237.722 142.057 238.376C141.58 240.516 139.411 241.99 137.295 241.318C136.087 240.926 135.27 239.881 135 238.674C134.902 238.22 135.017 237.181 135.684 237.212C136.518 237.268 136.553 238.842 137.105 239.396C137.295 239.582 137.525 239.726 137.778 239.806C139.015 240.198 140.228 239.259 140.499 238.04C140.596 237.579 140.591 237.1 140.522 236.634C139.987 233.094 136.771 232.652 134.258 234.898C131.842 237.075 131.456 240.615 133.728 243.091C135.247 244.727 137.306 245.81 139.308 246.737C141.517 247.751 143.8 248.616 145.71 250.159C146.912 251.142 147.821 252.386 148.068 253.935C148.316 255.459 146.763 255.739 146.509 254.184Z" fill="#D8BF66"/>
<path fill-rule="evenodd" clip-rule="evenodd" d="M135.005 237.491C135.023 236.216 136.098 235.189 137.404 235.208C138.71 235.22 139.757 236.272 139.745 237.547C139.728 238.823 138.652 239.85 137.347 239.831C136.035 239.812 134.988 238.767 135.005 237.491Z" fill="#D8BF66"/>
<path fill-rule="evenodd" clip-rule="evenodd" d="M147.62 249.574C146.734 247.278 145.854 244.628 145.67 242.32C142.115 245.063 136.915 243.639 133.723 241.461C133.901 242.108 135.937 243.713 137.721 244.715C139.837 245.903 142.196 246.625 144.324 247.639C145.791 248.336 147.303 249.045 147.62 249.574Z" fill="#D8BF66"/>
<path d="M140.89 240.976C141.735 240.547 142.265 240.024 142.621 239.128C144.991 233.1 138.612 227.6 141.304 221.292C142.322 218.915 143.432 217.111 143.317 214.436C143.283 213.59 142.075 212.371 142.5 211.699C142.788 211.251 143.421 211.356 143.754 211.686C144.468 212.402 144.859 213.354 144.899 214.361C145.026 217.323 143.881 219.295 142.759 221.914C140.154 228.005 146.533 233.498 144.088 239.707C143.593 240.945 142.708 241.959 141.459 242.45C139.97 243.041 139.343 241.76 140.89 240.976Z" fill="#D8BF66"/>
<path d="M143.214 211.058C146.717 211.4 150.962 217.87 152.354 217.627C152.699 217.609 153.165 219.158 152.475 219.214C149.599 219.456 147.039 213.167 143.03 212.781C141.816 212.632 142.132 210.977 143.214 211.058Z" fill="#D8BF66"/>
<path d="M151.848 219.071C147.246 215.058 152.216 204.109 151.951 198.814C151.94 198.497 152.48 198.367 152.705 198.335C152.981 198.304 153.51 198.354 153.533 198.727C153.757 203.232 149.317 215.015 153.13 218.144C153.918 218.934 152.429 219.575 151.848 219.071Z" fill="#D8BF66"/>
<path d="M153.568 198.472C154.488 199.959 154.81 201.62 155.356 203.25C155.598 203.972 155.857 204.905 156.098 205.626C156.398 206.51 157.163 206.821 157.393 205.651C157.738 203.916 157.824 202.242 157.876 200.587C158.014 195.965 158.566 192.232 160.516 188.058C162.506 183.802 165.083 179.74 168.183 176.387C168.5 176.051 169.109 175.796 169.495 176.175C169.852 176.548 169.656 177.133 169.351 177.463C166.36 180.704 163.875 184.642 161.954 188.754C160.09 192.748 159.912 196.195 159.797 200.612C159.722 203.418 159.521 205.956 158.411 207.151C157.525 208.102 155.753 208.47 154.902 206.858C154.39 205.894 154.206 204.787 153.861 203.754C153.355 202.248 153.079 200.681 152.227 199.312C151.307 197.85 152.664 197.047 153.568 198.472Z" fill="#D8BF66"/>
<path d="M169.621 177.662C167.861 181.457 167.597 185.756 167.729 189.874C167.907 195.169 168.77 200.407 169.408 205.658C169.943 210.156 169.828 214.809 168.367 219.139C167.683 221.124 166.711 222.996 165.411 224.645C164.381 225.933 163.167 227.059 161.81 227.992C160.343 228.981 159.434 227.7 160.918 226.679C162.144 225.839 163.242 224.819 164.168 223.656C165.359 222.15 166.245 220.439 166.866 218.629C168.252 214.529 168.344 210.112 167.832 205.857C167.188 200.562 166.32 195.274 166.141 189.936C166.003 185.563 166.314 181.021 168.183 176.996C168.873 175.522 170.306 176.175 169.621 177.662Z" fill="#D8BF66"/>
<path d="M151.163 258.202C150.818 257.711 150.605 257.138 150.479 256.547C150.323 255.826 150.318 255.079 150.41 254.345C150.6 252.815 151.18 251.353 151.882 249.99C152.532 248.734 153.314 247.533 154.195 246.425C154.528 246.009 154.873 245.604 155.253 245.231C155.42 245.063 155.598 244.908 155.782 244.764C156.098 244.54 157.243 244.596 157.335 244.82C157.611 245.486 156.84 245.897 156.363 246.363C156.029 246.693 155.725 247.048 155.431 247.415C154.614 248.441 153.89 249.555 153.286 250.718C152.67 251.913 152.147 253.2 151.98 254.538C151.911 255.092 151.911 255.658 152.026 256.212C152.112 256.603 152.262 256.983 152.486 257.319C153.355 258.65 151.842 259.16 151.163 258.202Z" fill="#D8BF66"/>
<path d="M156.024 246.121C155.851 246.146 155.673 246.164 155.5 246.17C154.672 246.183 153.878 245.922 153.211 245.43C152.481 244.883 151.963 244.111 151.618 243.278C151.186 242.226 151.019 241.081 150.991 239.955C150.899 235.588 151.877 231.532 154.333 227.892C156.311 224.975 158.704 222.393 160.159 219.139C164.491 209.26 165.141 198.198 164.031 187.591C163.985 187.131 163.933 185.837 164.612 185.737C165.307 185.663 165.561 186.957 165.607 187.417C166.746 198.304 166.055 209.645 161.609 219.78C160.108 223.127 157.68 225.777 155.644 228.782C153.372 232.142 152.492 235.874 152.578 239.912C152.601 240.845 152.734 241.797 153.084 242.668C153.32 243.234 153.66 243.782 154.16 244.155C154.54 244.435 154.994 244.59 155.466 244.584C155.569 244.584 155.673 244.572 155.776 244.553C156.196 244.485 157.145 244.279 157.439 244.708C157.887 245.405 156.478 246.046 156.024 246.121Z" fill="#D8BF66"/>
<path fill-rule="evenodd" clip-rule="evenodd" d="M164.916 241.579C164.939 239.899 166.314 238.556 167.988 238.581C169.662 238.599 171.002 239.974 170.979 241.654C170.956 243.334 169.581 244.677 167.907 244.652C166.234 244.628 164.893 243.253 164.916 241.579Z" fill="#D8BF66"/>
<path fill-rule="evenodd" clip-rule="evenodd" d="M163.098 235.04C163.116 233.671 164.237 232.576 165.6 232.595C166.964 232.613 168.056 233.733 168.039 235.096C168.022 236.465 166.9 237.56 165.537 237.542C164.174 237.529 163.081 236.409 163.098 235.04Z" fill="#D8BF66"/>
<path fill-rule="evenodd" clip-rule="evenodd" d="M159.578 231.046C159.59 230.001 160.447 229.167 161.488 229.18C162.529 229.192 163.363 230.045 163.351 231.09C163.34 232.135 162.483 232.969 161.442 232.957C160.395 232.944 159.567 232.086 159.578 231.046Z" fill="#D8BF66"/>
<path fill-rule="evenodd" clip-rule="evenodd" d="M155.603 231.818C155.615 230.934 156.34 230.225 157.22 230.237C158.1 230.25 158.807 230.971 158.796 231.855C158.784 232.739 158.06 233.442 157.179 233.436C156.299 233.423 155.592 232.701 155.603 231.818Z" fill="#D8BF66"/>
<path fill-rule="evenodd" clip-rule="evenodd" d="M153.694 235.134C153.706 234.4 154.304 233.815 155.034 233.821C155.765 233.827 156.352 234.431 156.34 235.165C156.329 235.899 155.73 236.484 155 236.478C154.269 236.472 153.688 235.868 153.694 235.134Z" fill="#D8BF66"/>
<path fill-rule="evenodd" clip-rule="evenodd" d="M155.15 238.431C155.162 237.753 155.714 237.206 156.392 237.218C157.071 237.225 157.617 237.784 157.605 238.462C157.594 239.14 157.042 239.688 156.363 239.675C155.685 239.669 155.144 239.109 155.15 238.431Z" fill="#D8BF66"/>
<path fill-rule="evenodd" clip-rule="evenodd" d="M157.836 240.012C157.842 239.464 158.29 239.029 158.837 239.035C159.383 239.041 159.82 239.489 159.808 240.037C159.803 240.584 159.354 241.019 158.808 241.013C158.267 241.001 157.83 240.553 157.836 240.012Z" fill="#D8BF66"/>
<path d="M149.495 249.474C148.92 246.096 148.207 242.718 148.12 239.283C148.034 235.196 149.052 231.295 151.468 227.967C154.085 224.377 156.426 220.713 158.066 216.563C159.596 212.638 160.286 208.401 160.775 204.233C160.827 203.779 161.085 202.615 161.741 202.671C162.408 202.746 162.403 203.959 162.351 204.42C161.85 208.725 161.126 213.092 159.544 217.148C157.859 221.428 155.448 225.211 152.751 228.906C150.536 231.955 149.633 235.513 149.708 239.246C149.788 242.606 150.496 245.909 151.06 249.206C151.134 249.661 151.077 250.507 150.484 250.606C149.904 250.693 149.57 249.934 149.495 249.474Z" fill="#D8BF66"/>
<path d="M149.351 249.038C147.424 243.893 146.613 238.22 146.682 232.739C146.717 230.07 147.016 227.407 146.981 224.738C146.941 222.293 146.63 219.83 145.607 217.59C145.434 217.204 145.572 216.713 145.952 216.501C146.372 216.277 146.86 216.507 147.05 216.918C148.166 219.363 148.523 222.044 148.569 224.713C148.603 227.401 148.304 230.076 148.27 232.764C148.206 238.045 148.983 243.526 150.835 248.485C150.985 248.883 150.755 249.318 150.375 249.48C149.972 249.629 149.512 249.443 149.351 249.038Z" fill="#D8BF66"/>
<path d="M147.2 236.87C147.01 233.697 147.804 230.686 149.294 227.898C150.83 225.03 152.854 222.455 154.488 219.649C155.414 218.032 155.863 216.147 155.799 214.286C155.765 213.434 155.621 212.582 155.333 211.779C155.149 211.275 154.902 210.79 154.586 210.361C154.356 210.043 154.488 209.583 154.747 209.322C155.08 209.005 155.592 209.054 155.868 209.415C156.277 209.969 156.587 210.585 156.823 211.232C157.174 212.19 157.347 213.21 157.387 214.23C157.462 216.389 156.944 218.573 155.863 220.452C154.235 223.245 152.222 225.802 150.697 228.657C149.351 231.19 148.621 233.902 148.793 236.782C148.816 237.212 148.523 237.653 148.08 237.709C147.591 237.747 147.229 237.317 147.2 236.87Z" fill="#D8BF66"/>
<path fill-rule="evenodd" clip-rule="evenodd" d="M19.1313 300.053C19.9135 299.978 20.5175 299.86 21.0007 299.704C22.3696 299.256 23.6006 297.857 24.5497 296.824C25.7001 295.567 26.9483 293.887 25.3262 293.738C24.3656 293.651 23.428 293.452 22.0418 292.568C22.8931 292.917 23.6754 293.172 24.7395 293.228C25.6771 293.278 26.908 293.147 27.4774 293.265C27.9203 293.147 29.0592 293.278 31.1932 292.923C27.8686 293.869 23.0541 298.846 20.9719 301.851C20.6383 302.33 20.5348 302.603 19.718 303.232C20.7246 301.975 21.1675 301.154 21.0179 300.656C20.8569 300.096 19.9826 299.947 19.1313 300.053Z" fill="#D8BF66"/>
<path fill-rule="evenodd" clip-rule="evenodd" d="M11.7227 286.665C12.2116 287.71 13.4023 287.71 14.5009 287.61C18.1822 287.274 18.7171 286.36 22.3409 287.896C23.5316 288.4 25.1536 289.576 25.9704 289.75C29.0247 290.397 32.3839 289.39 36.3413 290.727C37.4802 290.852 38.6594 290.908 39.5567 290.995C41.5296 291.187 42.2199 291.611 37.9806 293.116C34.6099 294.391 29.5942 297.291 25.562 301.253C21.8635 304.887 18.8379 308.57 14.8978 311.357C9.85902 314.928 4.88928 315.351 6.48507e-05 315.22C3.52605 313.522 6.48832 307.823 8.95594 305.428C11.4293 303.027 16.7557 303.767 16.5083 301.677C16.2898 299.86 12.6487 302.012 10.7621 302.566C8.13916 303.331 5.33793 301.876 3.07164 300.824C6.31578 301.334 9.63468 298.286 11.8895 296.395C13.1434 295.343 15.7491 296.27 16.3185 296.326C17.3999 296.432 19.4304 297.751 20.8338 296.494C22.9966 294.559 18.0614 294.584 16.9167 293.975C14.7482 292.824 12.4704 289.906 11.7227 286.665ZM14.2018 305.061C12.2116 305.608 11.4408 306.075 10.624 306.965C8.86966 308.862 7.32812 311.904 5.59101 313.491C7.34537 313.111 9.48512 312.57 11.2567 311.543C16.1575 308.7 20.9086 303.649 24.2045 300.127C25.5218 298.721 27.1553 297.235 28.7774 296.065C30.7388 294.653 33.2179 293.309 35.0413 292.301C33.1432 291.797 31.5671 291.231 28.5531 291.691C23.267 291.704 23.1922 290.068 19.971 289.047C18.7171 288.674 16.6751 289.041 14.8863 289.352C16.0654 291.001 16.9628 292.401 18.8724 292.973C20.4772 293.452 22.5997 293.446 23.2727 294.522C24.682 296.78 21.0927 298.665 19.0967 298.833C17.7738 298.945 16.192 297.807 14.6965 297.72C10.7736 297.452 11.5156 300.134 7.06928 301.241C9.54265 302.212 10.555 301.247 12.804 300.258C15.0531 299.263 17.7623 299.561 18.2224 300.998C18.6941 302.429 18.0844 303.997 14.2018 305.061Z" fill="#D8BF66"/>
<path fill-rule="evenodd" clip-rule="evenodd" d="M165.532 306.859C165.382 304.688 163.403 303.051 161.108 303.213C158.813 303.375 157.076 305.26 157.22 307.437C157.369 309.609 159.348 311.245 161.637 311.083C163.938 310.921 165.681 309.03 165.532 306.859Z" fill="#D8BF66"/>
<path d="M162.627 300.339C163.513 300.476 164.37 300.781 165.135 301.253C165.877 301.714 166.515 302.324 167.033 303.027C168.126 304.507 168.666 306.349 168.678 308.184C168.684 314.075 162.08 319.071 156.599 315.338C153.625 313.31 151.871 307.692 154.936 304.999C155.529 304.476 156.265 304.146 157.047 304.022C156.616 304.557 156.265 305.148 156.058 305.801C155.253 308.178 156.397 311.257 158.416 312.694C162.006 315.202 166.613 312.11 167.269 308.078C167.533 306.473 167.303 304.781 166.538 303.338C166.153 302.616 165.629 301.969 164.985 301.459C164.301 300.905 163.49 300.532 162.627 300.339Z" fill="#D8BF66"/>
<path d="M164.053 307.263C164.007 306.622 163.835 306 163.541 305.434C163.248 304.881 162.851 304.389 162.368 303.985C161.879 303.574 161.31 303.263 160.706 303.058C160.067 302.846 159.388 302.765 158.715 302.815C157.674 302.89 156.65 303.157 155.707 303.624C154.827 304.066 154.039 304.675 153.389 305.416C152.751 306.156 152.256 307.008 151.945 307.935C151.623 308.899 151.497 309.92 151.56 310.934C151.635 311.973 151.94 312.974 152.423 313.895C152.923 314.828 153.602 315.656 154.401 316.346C155.212 317.043 156.144 317.591 157.151 317.951C158.163 318.306 159.239 318.468 160.314 318.399C161.764 318.294 163.167 317.889 164.456 317.211C165.71 316.545 166.82 315.637 167.74 314.561C168.655 313.478 169.368 312.24 169.828 310.903C170.288 309.559 170.496 308.134 170.398 306.716C170.288 305.179 169.777 303.692 169.006 302.367C168.074 300.774 166.791 299.424 165.307 298.336C163.576 297.067 159.164 295.909 154.971 299.991L163.219 291.032L162.178 293.004C161.528 294.242 161.937 294.659 163.052 295.175C164.174 295.692 165.244 296.314 166.245 297.048C167.901 298.267 169.334 299.779 170.375 301.558C171.266 303.095 171.853 304.818 171.974 306.598C172.083 308.228 171.847 309.864 171.318 311.413C170.789 312.937 169.978 314.349 168.937 315.581C167.884 316.813 166.613 317.852 165.186 318.611C163.708 319.388 162.08 319.861 160.412 319.98C159.118 320.067 157.824 319.874 156.604 319.444C155.414 319.015 154.309 318.368 153.349 317.547C152.4 316.726 151.6 315.743 151.008 314.642C150.415 313.528 150.047 312.302 149.961 311.04C149.88 309.814 150.036 308.588 150.427 307.425C150.806 306.305 151.405 305.266 152.181 304.37C152.963 303.475 153.918 302.734 154.988 302.199C156.116 301.639 157.341 301.316 158.595 301.229C159.469 301.166 160.355 301.278 161.189 301.552C161.988 301.813 162.736 302.23 163.38 302.765C164.019 303.3 164.554 303.96 164.939 304.694C165.336 305.453 165.572 306.293 165.629 307.151C165.112 307.189 164.582 307.226 164.053 307.263Z" fill="#D8BF66"/>
<path fill-rule="evenodd" clip-rule="evenodd" d="M145.267 292.071C146.883 291.76 148.356 291.928 149.644 291.729C150.904 291.536 154.516 290.341 156.765 289.072C155.557 290.354 154.752 291.163 152.325 292.326C150.409 293.247 152.244 292.849 154.804 291.959C159.308 290.397 162.166 287.959 163.858 284.406C164.421 283.224 164.749 281.924 164.755 280.512C164.761 278.409 166.388 276.997 166.124 275.759C165.859 274.527 165.089 273.606 164.462 274.851C163.535 277.19 162.621 279.921 161.689 282.26C159.037 284.649 156.386 287.038 153.728 289.433C150.91 290.46 148.08 291.051 145.267 292.071Z" fill="#D8BF66"/>
<path d="M41.1099 14.5654C41.1214 15.2062 41.2595 15.8407 41.524 16.4193C41.7829 16.9917 42.1568 17.508 42.6169 17.9373C43.0829 18.3728 43.635 18.7212 44.2275 18.9576C44.8545 19.2002 45.5275 19.3247 46.2004 19.3185C47.2473 19.306 48.2827 19.0945 49.2433 18.6839C50.1463 18.2919 50.9631 17.732 51.6534 17.029C52.3321 16.326 52.8728 15.4986 53.2352 14.5965C53.609 13.6509 53.7931 12.643 53.7816 11.6227C53.7644 10.5838 53.5113 9.56351 53.0799 8.61788C52.6312 7.65981 51.9985 6.79506 51.2392 6.05473C50.4627 5.3144 49.5654 4.71093 48.576 4.2941C47.5809 3.87728 46.5168 3.65953 45.4412 3.66575C43.9917 3.68441 42.5652 4.01415 41.2422 4.61139C39.9538 5.20241 38.7976 6.04229 37.8198 7.06879C36.8477 8.0953 36.0711 9.296 35.5305 10.6025C34.9955 11.9151 34.7137 13.3274 34.7309 14.752C34.7539 16.2949 35.1853 17.8067 35.8813 19.1753C36.7211 20.8177 37.9348 22.2362 39.3555 23.412C41.1214 24.8616 43.1806 25.9192 45.3376 26.6471C48.1331 27.5803 51.0839 27.9846 54.0232 28.0344C60.1491 28.1277 66.7639 27.5181 72.2456 24.563C74.2185 23.4867 76.0361 22.0434 77.2038 20.0961C78.3254 18.1986 78.6591 16.0212 78.3772 13.8499C78.9007 13.7815 79.4298 13.7131 79.9533 13.6446C80.2811 16.1705 79.867 18.7088 78.567 20.9111C77.2498 23.1072 75.2309 24.7496 73.0048 25.9627C67.2758 29.0485 60.4022 29.7204 53.9944 29.6271C50.8941 29.5711 47.7822 29.148 44.8315 28.1588C42.4904 27.3687 40.2586 26.2178 38.3432 24.6438C36.7556 23.3312 35.4039 21.7385 34.4663 19.9033C33.661 18.3168 33.1664 16.5624 33.1434 14.7769C33.1261 13.1407 33.4482 11.5232 34.0579 10.0114C34.6677 8.51834 35.5592 7.15586 36.6636 5.98627C37.7795 4.81667 39.1025 3.85241 40.575 3.18051C42.0935 2.48995 43.7443 2.11045 45.4124 2.09179C46.7066 2.07935 47.9893 2.34062 49.1857 2.84454C50.3534 3.33602 51.4175 4.04526 52.3321 4.92246C53.2352 5.79343 53.9829 6.81994 54.5121 7.95843C55.0413 9.10936 55.3462 10.3474 55.3634 11.6165C55.3749 12.8421 55.1563 14.0615 54.7019 15.1999C54.259 16.2949 53.609 17.3028 52.7865 18.1489C51.9525 19.0012 50.9631 19.6855 49.8645 20.1583C48.7083 20.6498 47.4659 20.9048 46.212 20.9235C45.3319 20.936 44.4576 20.7742 43.6408 20.4569C42.8585 20.1459 42.1338 19.6917 41.524 19.1194C40.9143 18.547 40.4197 17.8627 40.0745 17.1037C39.7179 16.3198 39.5281 15.4675 39.5166 14.609C40.0515 14.5778 40.5807 14.5716 41.1099 14.5654Z" fill="#D8BF66"/>
<path fill-rule="evenodd" clip-rule="evenodd" d="M39.6084 14.8828C39.6371 17.0603 41.5238 18.8022 43.8246 18.7773C46.1254 18.7524 47.966 16.9607 47.9373 14.7833C47.9085 12.6058 46.0219 10.8639 43.7211 10.8888C41.4202 10.9199 39.5796 12.7054 39.6084 14.8828Z" fill="#D8BF66"/>
<path d="M42.1509 21.5581C41.2708 21.3715 40.431 21.0168 39.6947 20.5005C38.9815 19.9966 38.3775 19.3558 37.8944 18.6217C35.2542 14.5841 36.5426 8.74852 40.8279 6.37822C45.0729 4.0888 50.1922 6.17917 51.6244 10.8016C52.516 13.794 51.4519 17.8502 47.9201 18.2048C49.548 16.4069 49.7033 14.0242 48.7599 11.8094C47.0228 7.75937 42.0818 7.28032 39.3439 10.6336C37.6125 12.7301 37.2731 15.8781 38.4063 18.3355C38.7514 19.0758 39.2403 19.7539 39.8501 20.3014C40.5115 20.8986 41.2996 21.3217 42.1509 21.5581Z" fill="#D8BF66"/>
<path fill-rule="evenodd" clip-rule="evenodd" d="M44.4229 23.5549C44.4344 24.594 45.2914 25.4278 46.3268 25.4154C47.3622 25.4029 48.1962 24.5505 48.1847 23.5113C48.1732 22.4722 47.3161 21.6384 46.2808 21.6508C45.2397 21.6633 44.4114 22.5157 44.4229 23.5549Z" fill="#D8BF66"/>
<path fill-rule="evenodd" clip-rule="evenodd" d="M50.566 24.0337C50.5832 25.3093 51.6301 26.336 52.907 26.3174C54.184 26.2987 55.2021 25.2533 55.1848 23.9777C55.1676 22.7021 54.1207 21.6754 52.8438 21.6941C51.5726 21.7065 50.5487 22.7581 50.566 24.0337Z" fill="#D8BF66"/>
<path fill-rule="evenodd" clip-rule="evenodd" d="M57.1752 23.3684C57.1924 24.8553 58.4118 26.0436 59.8959 26.0249C61.3799 26.0063 62.5648 24.7869 62.5475 23.3062C62.5303 21.8194 61.3109 20.6311 59.8268 20.6498C58.3428 20.6622 57.1579 21.8816 57.1752 23.3684Z" fill="#D8BF66"/>
<path fill-rule="evenodd" clip-rule="evenodd" d="M63.8934 21.4835C63.9164 23.2316 65.3544 24.6376 67.103 24.619C68.8517 24.6003 70.2494 23.1632 70.2264 21.415C70.2034 19.6669 68.7654 18.2608 67.0168 18.2795C65.2682 18.2982 63.8704 19.7291 63.8934 21.4835Z" fill="#D8BF66"/>
<path fill-rule="evenodd" clip-rule="evenodd" d="M69.8928 16.6746C69.9158 18.5783 71.4803 20.1025 73.3842 20.0838C75.2882 20.0589 76.8067 18.4974 76.7837 16.5937C76.7607 14.69 75.1961 13.1658 73.2922 13.1844C71.3883 13.2093 69.864 14.7709 69.8928 16.6746Z" fill="#D8BF66"/>
<path fill-rule="evenodd" clip-rule="evenodd" d="M78.4575 13.3836C86.0386 15.2749 89.6681 11.3742 100.741 8.89811C107.839 7.31169 116.415 6.28517 126.176 7.56675C137.726 9.76908 148.097 13.9746 156.622 21.521C162.282 25.9568 164.789 30.1437 165.531 34.3368C166.107 37.5968 163.904 37.5159 165.353 44.5334C157.599 14.1924 124.025 2.47154 96.7028 13.8253C90.646 16.3449 84.7732 20.0217 77.911 19.7106C78.4459 17.7758 78.5552 15.3122 78.4575 13.3836Z" fill="#D8BF66"/>
<path d="M34.2477 25.2289C43.7961 30.0939 54.5006 30.7969 64.9175 28.9368C75.4321 27.0268 85.3889 22.8773 95.012 18.3544C108.88 11.8843 124.767 9.17806 139.889 12.1829C139.786 12.6993 150.404 19.692 150.3 20.2084C150.151 16.9795 132.003 10.6401 118.912 13.0601C110.957 14.5284 102.99 16.376 95.685 19.7977C85.9296 24.3704 75.8463 28.5697 65.1936 30.5045C54.4315 32.4269 43.3762 31.6741 33.5172 26.6473C33.7645 26.1683 34.0061 25.6955 34.2477 25.2289Z" fill="#D8BF66"/>
<path d="M98.5608 48.434C99.2683 48.3655 100.005 48.2473 100.701 48.434C101.103 48.546 101.46 48.7699 101.713 49.1059C101.983 49.4729 102.104 49.9208 102.15 50.3625C102.208 50.9349 102.231 51.5073 102.173 52.0796C102.116 52.596 101.983 53.1061 101.719 53.5603C101.454 54.0144 101.063 54.3815 100.597 54.6303C100.085 54.8979 99.5156 55.0285 98.9404 55.0845C98.2904 55.1467 97.6347 55.072 97.0135 54.873C96.4153 54.6739 95.8574 54.3566 95.3799 53.946C94.8968 53.5292 94.4941 53.0252 94.195 52.4591C93.8844 51.8681 93.6946 51.2211 93.6256 50.5616C93.5335 49.6533 93.6428 48.7326 93.8959 47.8554C94.1663 46.9471 94.5919 46.0948 95.1671 45.342C95.7596 44.5706 96.5016 43.9236 97.3644 43.4694C98.2962 42.9841 99.3316 42.7602 100.378 42.7913C101.489 42.8286 102.576 43.0961 103.582 43.5627C104.595 44.0355 105.515 44.6763 106.361 45.4042C108.241 47.0342 109.789 49.0188 111.342 50.9536C114.868 55.3831 118.584 59.8251 123.898 62.1394C127.706 63.7756 131.853 64.883 136.012 64.9825C137.605 65.0136 139.228 64.9016 140.763 64.4413C141.85 64.1115 142.938 63.5827 143.662 62.6744C144.076 63.0041 144.491 63.3339 144.905 63.6636C143.979 64.8208 142.627 65.53 141.223 65.9592C139.532 66.4694 137.738 66.6063 135.978 66.5689C131.612 66.4694 127.269 65.3184 123.271 63.6014C117.704 61.1751 113.798 56.59 110.105 51.9428C108.621 50.0826 107.137 48.1727 105.331 46.6049C104.6 45.9766 103.807 45.4104 102.927 45.0061C102.11 44.6328 101.235 44.4088 100.338 44.3839C99.5617 44.3653 98.7966 44.527 98.1006 44.8878C97.4449 45.23 96.8812 45.7339 96.4325 46.3187C95.9781 46.916 95.6388 47.5941 95.4259 48.3158C95.2304 48.9939 95.1383 49.7093 95.2074 50.4123C95.2534 50.8727 95.3857 51.3206 95.6043 51.7312C95.8056 52.1169 96.0817 52.4653 96.4153 52.7515C96.7374 53.0252 97.1113 53.243 97.5139 53.3736C97.9223 53.5105 98.3537 53.5541 98.7851 53.5167C99.1475 53.4794 99.5214 53.411 99.8492 53.2368C100.056 53.1248 100.229 52.9692 100.344 52.7702C100.493 52.5089 100.557 52.2165 100.591 51.9179C100.637 51.4575 100.614 50.9909 100.568 50.5367C100.551 50.3812 100.534 50.1946 100.436 50.0701C100.396 50.0204 100.344 50.0017 100.286 49.9831C99.7917 49.8524 99.205 49.983 98.7104 50.0328C98.6643 49.4916 98.6126 48.9628 98.5608 48.434Z" fill="#D8BF66"/>
<path fill-rule="evenodd" clip-rule="evenodd" d="M96.3982 50.5741C96.8526 52.1481 98.4516 53.1435 99.9702 52.8013C101.489 52.4592 102.357 50.9038 101.903 49.3299C101.448 47.7559 99.8494 46.7605 98.3308 47.1026C96.8123 47.4448 95.9438 49.0001 96.3982 50.5741Z" fill="#D8BF66"/>
<path fill-rule="evenodd" clip-rule="evenodd" d="M103.093 36.0909C106.522 39.4691 110.444 44.2657 112.981 47.451C117.807 53.5105 121.028 58.4253 125.9 61.6354C134.551 67.3465 143.225 68.2237 151.364 60.864C152.589 59.7566 154.332 58.2511 155.028 56.6647C148.523 62.0087 127.839 72.0436 118.957 39.9295C113.901 42.0198 108.23 40.4583 103.093 36.0909Z" fill="#D8BF66"/>
<path d="M142.713 33.9508C144.042 34.0006 145.101 34.0566 146.573 34.7098C147.608 35.1702 148.488 35.9167 149.167 36.8312C149.806 37.696 150.231 38.6976 150.45 39.749C150.663 40.8191 150.668 41.9265 150.502 43.0027C150.134 45.2984 149.023 47.4323 147.39 49.0747C145.538 50.91 143.099 51.9862 140.505 52.1667C138.9 52.2724 137.278 52.0796 135.753 51.557C134.333 51.0655 133.01 50.294 131.9 49.2738C130.807 48.2659 129.938 47.0403 129.357 45.6717C128.753 44.2408 128.483 42.6917 128.529 41.1364C128.598 39.1207 129.081 37.1423 130.007 35.3506C130.893 33.6397 132.153 32.1529 133.66 30.9584C135.219 29.7328 137.002 28.8307 138.894 28.2459C140.925 27.63 143.041 27.3749 145.158 27.4434C147.516 27.5305 149.811 28.1713 151.974 29.0982C154.269 30.0999 156.409 31.4374 158.353 33.0238C160.251 34.5854 161.96 36.3771 163.334 38.4177C164.577 40.2778 165.543 42.3495 165.888 44.5705C165.365 44.6514 164.841 44.726 164.318 44.8069C164.013 42.8161 163.127 40.9622 162.017 39.3011C160.729 37.3912 159.124 35.7114 157.347 34.2494C155.517 32.7625 153.504 31.4996 151.341 30.554C149.369 29.7017 147.263 29.1045 145.106 29.0298C143.162 28.9676 141.224 29.1978 139.36 29.7639C137.657 30.2927 136.047 31.1015 134.643 32.2026C133.315 33.2602 132.204 34.5729 131.416 36.0785C130.6 37.6587 130.174 39.4131 130.117 41.1861C130.076 42.505 130.306 43.8239 130.818 45.0433C131.307 46.2005 132.049 47.2394 132.97 48.0917C133.919 48.9627 135.046 49.6222 136.26 50.039C137.588 50.4931 138.992 50.6549 140.39 50.5616C142.604 50.406 144.681 49.4915 146.262 47.93C147.66 46.524 148.615 44.6949 148.931 42.7352C149.069 41.8456 149.069 40.9311 148.891 40.0476C148.724 39.2264 148.396 38.4426 147.896 37.7644C147.373 37.0614 146.677 36.514 145.889 36.1282C144.882 35.6492 143.772 35.4439 142.662 35.4066C142.685 34.8964 142.696 34.4796 142.713 33.9508Z" fill="#D8BF66"/>
<path fill-rule="evenodd" clip-rule="evenodd" d="M139.291 37.6527C139.32 39.7057 141.155 41.3481 143.392 41.3232C145.63 41.2983 147.424 39.6124 147.396 37.5594C147.367 35.5063 145.532 33.8639 143.294 33.8888C141.057 33.9137 139.262 35.5997 139.291 37.6527Z" fill="#D8BF66"/>
<path fill-rule="evenodd" clip-rule="evenodd" d="M147.804 30.6225C144.122 29.0548 138.549 30.3301 135.955 31.8792C132.4 34.0006 130.881 37.7334 131.042 41.3417C131.134 43.4756 132.302 48.098 136.386 48.8695C140.119 49.5725 146.958 47.2582 148.195 41.7026C146.423 42.5984 145.066 42.9282 143.766 42.8286C142.621 42.7415 141.522 42.3247 140.228 41.6652C138.296 44.2471 135.126 43.0837 133.97 41.4786C132.463 39.382 132.871 35.6617 136.305 32.7502C137.766 31.5121 142.144 29.8697 147.804 30.6225Z" fill="#D8BF66"/>
<path fill-rule="evenodd" clip-rule="evenodd" d="M152.9 36.8874C156.553 41.2361 155.764 55.7876 142.949 56.8888C124.169 58.5001 122.391 36.0974 128.621 31.4936C126.51 31.5061 125.181 33.4658 124.554 36.1471C123.634 40.0727 124.209 45.5474 126.009 48.7576C129.046 54.1639 134.551 58.1704 142.138 58.4503C148.96 58.7054 153.268 56.6586 156.098 53.4298C157.737 51.5572 158.876 49.2802 159.716 46.8166C164.093 49.2304 153.901 59.6013 154.229 65.2688C154.557 70.9364 159.981 73.9724 162.949 81.0833C161.068 75.9321 164.329 72.2677 168.333 73.3813C165.831 70.252 161.097 67.9564 160.257 63.2158C159.417 58.4752 164.479 53.3551 162.782 47.6876C161.068 42.0138 157.076 35.6619 152.9 36.8874Z" fill="#D8BF66"/>
<path d="M52.5446 35.5434C59.1192 36.5886 65.9468 35.9105 72.2165 33.6957C83.7263 29.5897 94.3848 23.4555 105.883 19.3059C121.017 13.9121 136.564 14.7271 150.214 23.3746C154.465 26.0995 158.428 29.403 161.563 33.3784C161.856 33.7517 163.144 35.5434 163.8 35.1452C164.508 34.66 163.098 32.7625 162.811 32.3954C159.561 28.2707 155.471 24.8553 151.065 22.0308C137.001 13.1158 120.942 12.2386 105.342 17.8004C93.8441 21.95 83.1856 28.0841 71.6758 32.1839C65.6592 34.3054 59.1019 34.9586 52.7862 33.957C52.3146 33.8823 49.7434 33.3411 49.5248 34.0876C49.3465 34.971 52.0787 35.4688 52.5446 35.5434Z" fill="#D8BF66"/>
<path d="M85.3543 30.9712C92.5731 26.9025 100.126 23.2568 108.207 21.2536C120.309 18.342 132.751 20.4199 144.456 24.0842C144.888 24.2211 146.228 24.5508 146.446 23.8914C146.665 23.2195 145.365 22.7031 144.934 22.5662C132.947 18.8086 120.217 16.7307 107.827 19.7107C99.6078 21.745 91.9231 25.4467 84.5778 29.5838C84.1752 29.814 82.9557 30.6041 83.3066 31.2262C83.669 31.8359 84.9574 31.2013 85.3543 30.9712Z" fill="#D8BF66"/>
<path d="M83.3814 36.5764C88.2303 30.5666 94.5978 26.0251 101.811 23.2877C102.185 23.1447 102.225 22.6594 102.11 22.3297C101.989 21.9937 101.633 21.6578 101.247 21.8009C93.7695 24.6378 87.1662 29.3473 82.139 35.581C81.2704 36.7568 82.7027 37.4038 83.3814 36.5764Z" fill="#D8BF66"/>
<path d="M96.8066 36.1594C97.842 33.5775 98.8774 30.9708 100.246 28.5446C101.374 26.5538 102.771 24.7371 104.652 23.4058C108.219 20.9235 112.814 20.3325 117.036 19.9654C117.485 19.9219 118.037 19.6108 118.009 19.0882C117.963 18.5656 117.353 18.3417 116.904 18.379C112.389 18.771 107.557 19.4491 103.744 22.0993C101.667 23.5613 100.114 25.5583 98.8659 27.7544C97.4624 30.2429 96.3925 32.9119 95.3341 35.5621C94.7417 37.0801 96.2314 37.5716 96.8066 36.1594Z" fill="#D8BF66"/>
<path d="M121.442 25.1041C122.507 23.6546 123.933 22.5659 125.618 21.9437C127.574 21.2407 129.685 21.1536 131.744 21.3092C136.283 21.6824 140.648 23.1445 145.02 24.3265C145.417 24.4323 145.756 24.0838 145.848 23.7292C145.94 23.3746 145.825 22.908 145.434 22.796C140.965 21.5829 136.507 20.1022 131.871 19.7227C129.582 19.5485 127.252 19.6668 125.078 20.4444C123.099 21.1723 121.414 22.4601 120.165 24.1585C119.907 24.5131 119.82 25.1415 120.188 25.3717C120.511 25.5832 121.201 25.4277 121.442 25.1041Z" fill="#D8BF66"/>
<path d="M135.753 25.8258C136.909 24.9235 138.37 24.4195 139.791 24.1395C141.442 23.8222 143.173 23.7973 144.801 24.2578C145.025 24.3138 145.227 23.7039 145.267 23.567C145.319 23.4115 145.497 22.8079 145.238 22.727C143.369 22.1981 141.379 22.2106 139.486 22.5777C137.812 22.9075 136.127 23.5173 134.77 24.5751C133.286 25.8071 134.666 26.6285 135.753 25.8258Z" fill="#D8BF66"/>
<path d="M156.743 28.607C152.337 26.3238 149.524 24.9738 144.169 24.9614C139.665 24.9489 135.334 26.2554 131.612 28.8061C131.255 29.055 131.192 29.5527 131.445 29.9011C131.693 30.2308 132.164 30.349 132.515 30.1126C135.966 27.7485 139.987 26.5416 144.163 26.5478C149.714 26.5603 153.746 28.4764 158.624 31.0022C159.02 31.2075 159.239 31.7363 159.469 31.3133C159.958 30.4174 157.427 28.9617 156.743 28.607Z" fill="#D8BF66"/>
<path d="M132.929 29.2288C133.343 27.574 133.004 26.0747 131.779 24.8242C130.743 23.7603 129.116 23.443 127.706 23.7603C126.452 24.0465 125.377 24.818 124.485 25.72C123.542 26.6781 122.777 27.7979 122.156 28.9862C120.954 31.2881 119.694 33.9134 117.669 35.6181C115.616 37.3476 111.952 37.696 109.956 35.7114C108.288 34.0441 108.414 32.7314 109.473 30.9148C109.72 30.4855 110.082 30.0998 110.554 29.9256C111.854 29.4341 111.336 27.9472 109.996 28.4325C108.851 28.8493 108.075 29.9194 107.649 31.1263C106.608 34.0876 107.804 36.7877 110.64 38.1003C113.125 39.2513 116.622 38.5607 118.693 36.8312C120.885 34.9835 122.259 32.2088 123.571 29.7141C124.123 28.6689 124.796 27.6735 125.624 26.8274C126.297 26.1493 127.114 25.521 128.063 25.3032C128.937 25.1104 130.001 25.2597 130.651 25.9254C131.497 26.7901 131.675 27.6984 131.393 28.8369C131.227 29.403 131.301 29.994 131.773 30.1931C132.331 30.442 132.82 29.6768 132.929 29.2288Z" fill="#D8BF66"/>
<path d="M109.426 29.03C109.323 29.1482 109.231 29.2664 109.139 29.3971C108.799 29.8699 108.552 30.4174 108.495 31.0022C108.437 31.5683 108.552 32.1406 108.811 32.6508C109.058 33.1298 109.421 33.5404 109.846 33.8639C110.272 34.1874 110.761 34.4239 111.279 34.5607C111.808 34.6976 112.36 34.7349 112.901 34.6416C113.781 34.4861 114.626 34.1563 115.38 33.6711C119.136 31.2448 119.113 26.2554 115.69 23.3562C111.658 19.9968 105.36 21.8569 103.042 26.4358C100.597 31.3381 102.248 35.0522 97.2378 38.0695C95.6388 39.0276 93.9419 39.799 92.2508 40.5767C91.8252 40.7758 91.0142 41.3046 91.2672 41.8396C91.5203 42.3684 92.4867 42.2191 92.9123 42.02C94.6552 41.2237 96.4095 40.4212 98.0546 39.432C103.582 36.0974 101.839 32.4082 104.462 27.1512C106.303 23.5055 111.422 21.8693 114.666 24.5756C117.261 26.7717 117.399 30.4734 114.517 32.3335C113.942 32.7006 113.292 32.9556 112.619 33.0738C112.308 33.1298 111.986 33.1049 111.681 33.0241C111.365 32.937 111.06 32.7939 110.801 32.5948C110.565 32.4144 110.358 32.1904 110.226 31.9229C110.105 31.6865 110.053 31.4252 110.076 31.1639C110.111 30.8591 110.26 30.5729 110.433 30.324C110.496 30.2369 110.56 30.1561 110.629 30.0814C110.905 29.7579 111.394 29.0487 111.094 28.6132C110.68 28.0595 109.731 28.6816 109.426 29.03Z" fill="#D8BF66"/>
<path d="M92.2853 40.5645C92.4061 38.0449 93.1768 35.7554 94.425 33.5842C95.0923 32.4208 96.0414 31.1144 95.817 29.6897C95.5179 27.8482 93.6198 27.8171 92.3486 28.8747C91.7561 29.3724 91.3074 30.007 90.899 30.6602C89.9787 32.1409 89.2137 33.7149 88.1093 35.0835C87.0912 36.3278 85.889 37.4352 84.4395 38.1631C83.3754 38.6919 82.2308 38.9843 81.0631 39.1709C79.976 39.3451 78.6587 39.3202 77.6004 39.6375C76.8181 39.8677 76.0934 40.241 75.4721 40.7698C75.1213 41.0746 74.8337 41.7714 75.2938 42.1198C75.6447 42.3873 76.2026 42.238 76.5133 41.9767C76.9619 41.591 77.4969 41.3297 78.0605 41.1617C79.0499 40.8693 80.2981 40.9004 81.3162 40.7449C82.6449 40.5334 83.9506 40.1974 85.1585 39.5878C86.8036 38.7603 88.1841 37.5098 89.346 36.0914C90.4964 34.6729 91.2959 33.0492 92.2565 31.5063C92.5729 30.9962 92.918 30.4861 93.3782 30.1003C94.0799 29.5155 94.4768 29.64 94.1892 30.6043C93.9534 31.3881 93.4587 32.0911 93.0561 32.7941C91.6813 35.1893 90.8358 37.7214 90.7035 40.496C90.6862 40.9564 90.9106 42.1696 91.8079 42.1509C92.3658 42.1385 92.2623 41.0124 92.2853 40.5645Z" fill="#D8BF66"/>
<path d="M76.45 41.255C76.5593 40.5208 76.7261 39.8365 77.1115 39.2019C77.5659 38.4616 78.1641 37.7462 78.8889 37.2609C79.7229 36.7072 80.5512 36.0727 81.2185 35.3074C82.898 33.3913 81.7649 31.3569 79.165 32.2901C78.3367 32.5887 77.5487 32.9931 76.7606 33.3851C75.1328 34.1938 73.4705 35.1457 71.6759 35.5438C65.0956 37.0183 57.4224 36.0042 51.0951 33.7832C50.6637 33.6339 49.8297 33.5406 49.6169 34.0881C49.404 34.648 50.1288 34.9839 50.566 35.1394C57.175 37.46 65.1531 38.642 72.0267 37.0992C73.9421 36.6699 75.7138 35.6807 77.4624 34.816C78.2044 34.4489 78.9752 34.1441 79.7172 33.7832C80.2003 33.5468 80.6145 33.7646 80.2349 34.1129C79.4986 34.7973 78.8371 35.3759 78.0031 35.9296C77.0828 36.5392 76.3695 37.4538 75.754 38.3621C75.4089 38.8722 74.1032 42.1695 75.754 42.3623C76.22 42.4246 76.3925 41.6718 76.45 41.255Z" fill="#D8BF66"/>
<path d="M163.018 153.498C163.202 154.431 164.14 155.06 165.071 154.998C166.164 154.911 166.814 153.859 166.63 152.814C166.596 152.627 166.532 152.447 166.446 152.279C166.055 151.538 165.221 151.158 164.41 151.37C163.662 151.575 163.075 152.241 163.001 153.025C162.978 153.187 162.989 153.343 163.018 153.498Z" fill="#D8BF66"/>
<path d="M162.253 149.971C162.541 150.811 163.467 151.246 164.306 151.022C165.198 150.761 165.675 149.809 165.388 148.925C165.307 148.683 165.169 148.459 164.985 148.278C164.531 147.837 163.869 147.7 163.277 147.911C162.696 148.123 162.27 148.652 162.19 149.261C162.155 149.498 162.178 149.741 162.253 149.971Z" fill="#D8BF66"/>
<path d="M163.409 156.839C163.501 156.024 164.306 155.414 165.094 155.371C166.095 155.333 166.791 156.217 166.699 157.181C166.642 157.729 166.337 158.245 165.836 158.488C165.497 158.668 165.106 158.693 164.738 158.575C164.387 158.463 164.082 158.239 163.84 157.965C163.559 157.66 163.369 157.262 163.409 156.839Z" fill="#D8BF66"/>
<path d="M161.24 146.705C160.959 145.946 161.35 145.099 162.097 144.801C162.857 144.508 163.72 144.882 164.024 145.641C164.312 146.412 163.921 147.265 163.156 147.557C162.397 147.825 161.539 147.464 161.24 146.705Z" fill="#D8BF66"/>
<path d="M162.719 159.315C162.661 159.396 162.615 159.483 162.581 159.576C162.42 160.099 162.598 160.771 162.914 161.2C163.352 161.785 164.122 161.885 164.715 161.48C164.859 161.374 164.991 161.25 165.094 161.107C165.635 160.373 165.514 159.29 164.606 158.929C164.03 158.705 163.127 158.78 162.719 159.315Z" fill="#D8BF66"/>
<path d="M160.228 143.718C160.504 144.397 161.287 144.714 161.96 144.453C162.638 144.179 162.978 143.407 162.713 142.723C162.437 142.045 161.655 141.721 160.976 141.989C160.303 142.269 159.958 143.04 160.228 143.718Z" fill="#D8BF66"/>
<path d="M160.936 160.727C161.568 160.516 162.276 160.858 162.627 161.399C163.104 162.164 162.581 162.992 161.804 163.266C161.758 163.285 161.707 163.297 161.661 163.309C160.959 163.471 160.251 163.029 160.119 162.314C160.021 161.741 160.292 161.02 160.844 160.764C160.872 160.752 160.901 160.74 160.936 160.727Z" fill="#D8BF66"/>
<path d="M159.274 140.988C159.033 140.372 159.343 139.675 159.953 139.433C160.562 139.196 161.264 139.489 161.511 140.098C161.753 140.714 161.442 141.404 160.838 141.653C160.223 141.883 159.522 141.597 159.274 140.988Z" fill="#D8BF66"/>
<path d="M158.584 161.232C158.026 161.201 157.514 161.711 157.347 162.209C157.112 162.949 157.692 163.583 158.423 163.639C158.756 163.664 159.101 163.565 159.36 163.353C159.647 163.104 159.791 162.75 159.739 162.37C159.688 162.016 159.481 161.699 159.182 161.493C159.009 161.356 158.808 161.251 158.584 161.232Z" fill="#D8BF66"/>
<path d="M158.417 138.468C158.635 139.022 159.262 139.295 159.82 139.084C160.366 138.866 160.654 138.25 160.447 137.691C160.228 137.137 159.607 136.869 159.055 137.068C158.497 137.286 158.21 137.908 158.417 138.468Z" fill="#D8BF66"/>
<path d="M156.679 160.672C157.105 160.977 157.18 161.624 156.996 162.078C156.725 162.712 155.972 162.818 155.437 162.451C155.225 162.302 155.058 162.09 154.983 161.842C154.88 161.487 154.983 161.114 155.248 160.859C155.489 160.629 155.828 160.51 156.162 160.51C156.346 160.523 156.53 160.566 156.679 160.672Z" fill="#D8BF66"/>
<path d="M157.669 136.141C157.491 135.631 157.761 135.078 158.267 134.897C158.767 134.729 159.325 134.984 159.509 135.488C159.682 135.992 159.411 136.54 158.923 136.726C158.417 136.907 157.853 136.645 157.669 136.141Z" fill="#D8BF66"/>
<path d="M155.31 159.303C155.276 159.247 155.235 159.191 155.189 159.142C154.908 158.856 154.436 158.781 154.062 158.905C153.614 159.067 153.384 159.527 153.499 159.988C153.522 160.081 153.556 160.168 153.602 160.249C153.89 160.753 154.528 160.958 155 160.579C155.362 160.286 155.54 159.733 155.31 159.303Z" fill="#D8BF66"/>
<path d="M157.042 133.983C157.192 134.443 157.692 134.698 158.152 134.543C158.6 134.387 158.853 133.896 158.715 133.442C158.664 133.28 158.56 133.131 158.428 133.025C158.204 132.832 157.893 132.751 157.606 132.838C157.318 132.932 157.111 133.174 157.036 133.46C156.985 133.635 156.985 133.815 157.042 133.983Z" fill="#D8BF66"/>
<path d="M154.654 157.593C154.7 158.034 154.367 158.445 153.953 158.563C153.43 158.706 152.975 158.314 152.906 157.798C152.901 157.729 152.895 157.661 152.901 157.599C152.935 157.151 153.28 156.79 153.74 156.803C154.125 156.821 154.499 157.076 154.62 157.45C154.637 157.493 154.649 157.543 154.654 157.593Z" fill="#D8BF66"/>
<path d="M156.479 131.849C156.358 131.42 156.559 130.935 157.008 130.81C157.445 130.692 157.876 130.991 157.997 131.407C158.117 131.83 157.916 132.315 157.479 132.452C157.036 132.583 156.605 132.272 156.479 131.849Z" fill="#D8BF66"/>
<path d="M154.672 155.857C154.689 155.776 154.695 155.695 154.683 155.614C154.643 155.309 154.424 155.035 154.143 154.924C153.821 154.793 153.47 154.911 153.269 155.191C153.205 155.278 153.159 155.378 153.136 155.477C153.033 155.925 153.309 156.373 153.775 156.429C154.148 156.466 154.574 156.242 154.672 155.857Z" fill="#D8BF66"/>
<path d="M156.018 129.864C156.122 130.25 156.501 130.524 156.898 130.424C157.289 130.318 157.49 129.895 157.393 129.516C157.295 129.136 156.915 128.875 156.524 128.962C156.128 129.056 155.921 129.479 156.018 129.864Z" fill="#D8BF66"/>
<path d="M155.236 154.363C155.034 154.662 154.609 154.73 154.293 154.581C153.913 154.394 153.821 153.922 154.045 153.579C154.143 153.43 154.298 153.312 154.477 153.268C154.684 153.219 154.902 153.268 155.063 153.412C155.218 153.548 155.31 153.741 155.328 153.946C155.345 154.09 155.316 154.239 155.236 154.363Z" fill="#D8BF66"/>
<path d="M155.662 128.066C155.587 127.718 155.794 127.357 156.15 127.282C156.501 127.214 156.835 127.444 156.915 127.792C156.99 128.135 156.783 128.495 156.438 128.576C156.081 128.657 155.742 128.414 155.662 128.066Z" fill="#D8BF66"/>
<path d="M156.185 153.231C156.438 153.032 156.472 152.64 156.317 152.366C156.122 152.037 155.696 151.987 155.403 152.211C155.11 152.441 155.052 152.864 155.317 153.138C155.541 153.362 155.926 153.43 156.185 153.231Z" fill="#D8BF66"/>
<path d="M155.403 126.443C155.46 126.754 155.765 126.972 156.075 126.916C156.386 126.853 156.587 126.549 156.535 126.244C156.478 125.933 156.179 125.727 155.868 125.777C155.558 125.827 155.345 126.126 155.403 126.443Z" fill="#D8BF66"/>
<path d="M157.352 152.522C157.076 152.615 156.766 152.447 156.639 152.192C156.496 151.887 156.657 151.539 156.967 151.433C157.283 151.327 157.628 151.489 157.709 151.825C157.766 152.105 157.628 152.422 157.352 152.522Z" fill="#D8BF66"/>
<path d="M155.224 124.974C155.19 124.688 155.397 124.439 155.673 124.408C155.943 124.377 156.213 124.558 156.254 124.837C156.288 125.117 156.087 125.366 155.811 125.41C155.535 125.447 155.265 125.254 155.224 124.974Z" fill="#D8BF66"/>
<path d="M158.606 152.235C158.865 152.235 159.078 152.005 159.118 151.756C159.164 151.439 158.911 151.197 158.606 151.197C158.491 151.197 158.382 151.228 158.284 151.29C158.135 151.396 158.054 151.57 158.083 151.756C158.106 151.924 158.215 152.08 158.365 152.167C158.434 152.21 158.52 152.235 158.606 152.235Z" fill="#D8BF66"/>
<path d="M155.126 123.655C155.149 123.91 155.391 124.078 155.638 124.053C155.88 124.028 156.081 123.817 156.058 123.568C156.035 123.319 155.793 123.158 155.558 123.176C155.305 123.195 155.103 123.4 155.126 123.655Z" fill="#D8BF66"/>
<path d="M159.716 152.422C159.636 152.385 159.573 152.323 159.527 152.254C159.458 152.13 159.435 151.981 159.475 151.844C159.515 151.695 159.63 151.583 159.774 151.545C159.883 151.52 159.992 151.533 160.09 151.576C160.337 151.688 160.452 151.981 160.309 152.223C160.194 152.404 159.935 152.516 159.716 152.422Z" fill="#D8BF66"/>
<path d="M155.086 122.467C155.08 122.237 155.276 122.075 155.494 122.069C155.707 122.063 155.914 122.206 155.926 122.43C155.931 122.654 155.736 122.815 155.529 122.834C155.31 122.84 155.098 122.691 155.086 122.467Z" fill="#D8BF66"/>
<path d="M160.631 153.001C160.786 153.15 161.039 153.138 161.2 153.013C161.39 152.858 161.39 152.578 161.223 152.41C161.172 152.354 161.103 152.317 161.028 152.298C160.873 152.255 160.712 152.304 160.614 152.435C160.522 152.553 160.493 152.709 160.539 152.852C160.556 152.901 160.591 152.957 160.631 153.001Z" fill="#D8BF66"/>
<path d="M155.103 121.397C155.103 121.602 155.293 121.733 155.483 121.733C155.667 121.727 155.857 121.596 155.862 121.403C155.862 121.204 155.673 121.074 155.489 121.067C155.299 121.061 155.109 121.192 155.103 121.397Z" fill="#D8BF66"/>
<path d="M161.27 153.81C161.183 153.629 161.258 153.412 161.419 153.312C161.609 153.194 161.839 153.275 161.942 153.468L161.942 153.474C162.034 153.667 161.954 153.897 161.753 153.978C161.586 154.04 161.362 153.984 161.27 153.81Z" fill="#D8BF66"/>
<path d="M155.172 120.433C155.184 120.252 155.368 120.153 155.529 120.165C155.69 120.178 155.857 120.296 155.851 120.47C155.839 120.644 155.661 120.744 155.494 120.738C155.333 120.738 155.161 120.613 155.172 120.433Z" fill="#D8BF66"/>
<path d="M161.609 154.718C161.644 154.892 161.816 155.016 161.989 155.004C162.19 154.985 162.311 154.793 162.276 154.6C162.242 154.407 162.058 154.276 161.868 154.326C161.707 154.376 161.58 154.544 161.609 154.718Z" fill="#D8BF66"/>
<path d="M146.509 65.8161C146.32 66.9795 145.612 67.8753 144.715 68.6095C142.914 70.0652 140.729 70.8678 138.646 71.8258C136.449 72.8399 134.229 74.0406 132.567 75.8323C129.696 78.9616 130.145 83.528 133.205 86.2903C136.656 89.376 141.379 88.3993 142.103 83.6089C142.201 82.9494 142.201 82.2775 142.057 81.6243C141.58 79.4842 139.411 78.0098 137.295 78.6817C136.087 79.0736 135.27 80.1188 135 81.3257C134.902 81.7799 135.017 82.8188 135.684 82.7877C136.518 82.7317 136.553 81.1577 137.105 80.604C137.295 80.4174 137.525 80.2743 137.778 80.1934C139.015 79.8015 140.228 80.7409 140.499 81.9603C140.596 82.4206 140.591 82.8997 140.522 83.3663C139.987 86.9062 136.771 87.3479 134.258 85.102C131.842 82.9246 131.456 79.3847 133.728 76.9086C135.247 75.2724 137.306 74.1899 139.308 73.2629C141.517 72.2489 143.8 71.3841 145.71 69.8412C146.912 68.8583 147.821 67.6141 148.068 66.065C148.316 64.5408 146.763 64.2546 146.509 65.8161Z" fill="#D8BF66"/>
<path fill-rule="evenodd" clip-rule="evenodd" d="M135.005 82.5076C135.023 83.7832 136.098 84.8099 137.404 84.7913C138.71 84.7788 139.757 83.7272 139.745 82.4516C139.728 81.176 138.652 80.1493 137.347 80.168C136.035 80.1804 134.988 81.232 135.005 82.5076Z" fill="#D8BF66"/>
<path fill-rule="evenodd" clip-rule="evenodd" d="M147.62 70.42C146.734 72.7156 145.854 75.3659 145.67 77.674C142.115 74.9304 136.915 76.355 133.723 78.5325C133.901 77.8855 135.938 76.2804 137.721 75.2788C139.837 74.0905 142.196 73.3688 144.324 72.3548C145.791 71.6642 147.304 70.955 147.62 70.42Z" fill="#D8BF66"/>
<path d="M140.89 79.024C141.735 79.4532 142.265 79.9758 142.621 80.8717C144.991 86.9001 138.612 92.3997 141.304 98.708C142.322 101.085 143.432 102.889 143.317 105.564C143.283 106.41 142.075 107.629 142.5 108.301C142.788 108.749 143.421 108.643 143.754 108.314C144.468 107.598 144.859 106.646 144.899 105.639C145.026 102.677 143.881 100.705 142.759 98.0859C140.154 91.9953 146.533 86.5019 144.088 80.2931C143.593 79.0551 142.708 78.041 141.459 77.5495C139.97 76.9523 139.343 78.2401 140.89 79.024Z" fill="#D8BF66"/>
<path d="M143.214 108.936C146.717 108.594 150.962 102.124 152.354 102.366C152.699 102.385 153.165 100.836 152.475 100.78C149.599 100.537 147.039 106.827 143.03 107.213C141.816 107.368 142.132 109.023 143.214 108.936Z" fill="#D8BF66"/>
<path d="M151.848 100.929C147.246 104.942 152.216 115.891 151.951 121.186C151.94 121.503 152.48 121.64 152.705 121.665C152.981 121.696 153.51 121.646 153.533 121.273C153.757 116.768 149.317 104.985 153.13 101.856C153.918 101.06 152.429 100.425 151.848 100.929Z" fill="#D8BF66"/>
<path d="M153.568 121.527C154.488 120.041 154.81 118.386 155.356 116.749C155.598 116.028 155.857 115.095 156.098 114.373C156.398 113.49 157.163 113.178 157.393 114.348C157.738 116.084 157.824 117.757 157.876 119.412C158.014 124.028 158.566 127.767 160.516 131.942C162.506 136.197 165.083 140.26 168.183 143.613C168.5 143.949 169.109 144.204 169.495 143.824C169.852 143.451 169.656 142.866 169.351 142.53C166.36 139.289 163.875 135.351 161.954 131.239C160.09 127.245 159.912 123.798 159.797 119.381C159.722 116.575 159.521 114.037 158.411 112.843C157.525 111.891 155.753 111.524 154.902 113.135C154.39 114.099 154.206 115.207 153.861 116.239C153.355 117.745 153.079 119.313 152.227 120.681C151.307 122.15 152.664 122.946 153.568 121.527Z" fill="#D8BF66"/>
<path d="M169.621 142.337C167.861 138.543 167.597 134.25 167.729 130.125C167.907 124.831 168.77 119.593 169.408 114.342C169.943 109.844 169.828 105.19 168.367 100.86C167.683 98.8758 166.711 97.0032 165.411 95.3546C164.381 94.0668 163.167 92.9407 161.81 92.0075C160.343 91.0183 159.434 92.3062 160.918 93.3202C162.144 94.1601 163.242 95.1804 164.168 96.3437C165.359 97.8493 166.245 99.5601 166.866 101.371C168.252 105.47 168.344 109.887 167.832 114.143C167.188 119.437 166.32 124.725 166.141 130.063C166.003 134.437 166.314 138.978 168.183 143.003C168.873 144.478 170.306 143.824 169.621 142.337Z" fill="#D8BF66"/>
<path d="M151.163 61.7972C150.818 62.2887 150.605 62.861 150.479 63.452C150.323 64.1737 150.318 64.9203 150.41 65.6544C150.6 67.1848 151.18 68.6468 151.882 70.0093C152.532 71.266 153.314 72.4666 154.195 73.574C154.528 73.9908 154.873 74.3952 155.253 74.7685C155.42 74.9365 155.598 75.092 155.782 75.2351C156.098 75.4591 157.243 75.4031 157.335 75.1791C157.611 74.5134 156.84 74.1028 156.363 73.6362C156.029 73.3065 155.725 72.9519 155.431 72.5848C154.614 71.5583 153.89 70.4447 153.286 69.2814C152.67 68.0869 152.147 66.7991 151.98 65.4615C151.911 64.9078 151.911 64.3417 152.026 63.7942C152.112 63.4023 152.262 63.0228 152.486 62.6868C153.355 61.3493 151.842 60.8329 151.163 61.7972Z" fill="#D8BF66"/>
<path d="M156.024 73.8727C155.851 73.8478 155.673 73.8291 155.5 73.8229C154.672 73.8105 153.878 74.0718 153.211 74.5632C152.481 75.1107 151.963 75.8821 151.618 76.7158C151.186 77.7672 151.019 78.9119 150.991 80.0379C150.899 84.4053 151.877 88.4615 154.333 92.1009C156.311 95.0187 158.704 97.6005 160.159 100.854C164.491 110.734 165.141 121.795 164.031 132.402C163.985 132.863 163.933 134.157 164.612 134.256C165.307 134.331 165.561 133.037 165.607 132.576C166.746 121.689 166.055 110.348 161.609 100.213C160.108 96.8664 157.68 94.2162 155.644 91.2113C153.372 87.8456 152.492 84.1191 152.578 80.0815C152.601 79.1483 152.734 78.1964 153.084 77.3255C153.32 76.7593 153.66 76.2119 154.16 75.8386C154.54 75.5586 154.994 75.4031 155.466 75.4093C155.569 75.4093 155.673 75.4218 155.776 75.4404C156.196 75.5088 157.145 75.7141 157.439 75.2849C157.887 74.5943 156.478 73.9535 156.024 73.8727Z" fill="#D8BF66"/>
<path fill-rule="evenodd" clip-rule="evenodd" d="M164.916 78.4207C164.939 80.1004 166.314 81.4442 167.988 81.4193C169.662 81.4007 171.002 80.0258 170.979 78.346C170.956 76.6663 169.581 75.3225 167.907 75.3474C166.234 75.366 164.893 76.7472 164.916 78.4207Z" fill="#D8BF66"/>
<path fill-rule="evenodd" clip-rule="evenodd" d="M163.098 84.9587C163.116 86.3276 164.237 87.4227 165.6 87.4041C166.964 87.3854 168.056 86.2654 168.039 84.9027C168.022 83.5337 166.9 82.4386 165.537 82.4572C164.174 82.4697 163.081 83.5897 163.098 84.9587Z" fill="#D8BF66"/>
<path fill-rule="evenodd" clip-rule="evenodd" d="M159.578 88.9527C159.59 89.9981 160.447 90.8319 161.488 90.8194C162.529 90.807 163.363 89.9545 163.351 88.9092C163.34 87.87 162.483 87.03 161.442 87.0424C160.395 87.0549 159.567 87.9136 159.578 88.9527Z" fill="#D8BF66"/>
<path fill-rule="evenodd" clip-rule="evenodd" d="M155.603 88.1815C155.615 89.0651 156.34 89.7745 157.22 89.762C158.1 89.7496 158.807 89.0278 158.796 88.1442C158.784 87.2606 158.06 86.5575 157.179 86.5637C156.299 86.5762 155.592 87.298 155.603 88.1815Z" fill="#D8BF66"/>
<path fill-rule="evenodd" clip-rule="evenodd" d="M153.694 84.8655C153.706 85.5997 154.304 86.1846 155.034 86.1784C155.765 86.1722 156.352 85.5686 156.34 84.8344C156.329 84.1001 155.73 83.5152 155 83.5215C154.269 83.5277 153.688 84.1313 153.694 84.8655Z" fill="#D8BF66"/>
<path fill-rule="evenodd" clip-rule="evenodd" d="M155.15 81.5686C155.162 82.2466 155.714 82.794 156.392 82.7815C157.071 82.7753 157.617 82.2155 157.605 81.5375C157.594 80.8595 157.042 80.3121 156.363 80.3245C155.685 80.3308 155.144 80.8844 155.15 81.5686Z" fill="#D8BF66"/>
<path fill-rule="evenodd" clip-rule="evenodd" d="M157.836 79.9884C157.842 80.5358 158.29 80.9712 158.837 80.965C159.383 80.9588 159.82 80.511 159.808 79.9636C159.803 79.4162 159.354 78.9808 158.808 78.987C158.267 78.9932 157.83 79.4411 157.836 79.9884Z" fill="#D8BF66"/>
<path d="M149.495 70.5195C148.92 73.8977 148.207 77.2758 148.12 80.7099C148.034 84.7973 149.052 88.698 151.468 92.0264C154.085 95.6161 156.426 99.2804 158.066 103.43C159.596 107.356 160.286 111.592 160.775 115.76C160.827 116.215 161.085 117.378 161.741 117.322C162.408 117.247 162.403 116.034 162.351 115.574C161.85 111.269 161.126 106.901 159.544 102.845C157.859 98.5649 155.448 94.7824 152.751 91.087C150.536 88.0386 149.633 84.48 149.708 80.7472C149.788 77.3878 150.496 74.0843 151.06 70.787C151.134 70.3329 151.077 69.4868 150.484 69.3872C149.904 69.3001 149.57 70.0654 149.495 70.5195Z" fill="#D8BF66"/>
<path d="M149.351 70.9614C147.424 76.1064 146.613 81.7802 146.682 87.2673C146.717 89.9362 147.016 92.5989 146.981 95.2679C146.941 97.7066 146.63 100.176 145.607 102.416C145.434 102.802 145.572 103.293 145.952 103.505C146.372 103.729 146.86 103.499 147.05 103.088C148.166 100.643 148.523 97.9617 148.569 95.2927C148.603 92.6052 148.304 89.93 148.27 87.2424C148.206 81.9606 148.983 76.4797 150.835 71.5213C150.985 71.1232 150.755 70.6877 150.375 70.5259C149.972 70.3704 149.512 70.5508 149.351 70.9614Z" fill="#D8BF66"/>
<path d="M147.2 83.13C147.01 86.3028 147.804 89.3139 149.294 92.101C150.83 94.969 152.854 97.5446 154.488 100.35C155.414 101.968 155.863 103.853 155.799 105.713C155.765 106.565 155.621 107.418 155.333 108.22C155.149 108.724 154.902 109.21 154.586 109.639C154.356 109.956 154.488 110.416 154.747 110.678C155.08 110.995 155.592 110.945 155.868 110.584C156.277 110.031 156.587 109.415 156.823 108.768C157.174 107.81 157.347 106.789 157.387 105.769C157.462 103.61 156.944 101.427 155.863 99.5479C154.235 96.7545 152.222 94.1976 150.697 91.3421C149.351 88.81 148.621 86.0975 148.793 83.2171C148.816 82.7878 148.523 82.3461 148.08 82.2901C147.591 82.2528 147.229 82.6821 147.2 83.13Z" fill="#D8BF66"/>
<path fill-rule="evenodd" clip-rule="evenodd" d="M19.1313 19.9407C19.9135 20.0153 20.5175 20.1335 21.0007 20.289C22.3696 20.737 23.6006 22.1368 24.5497 23.1695C25.7001 24.4262 26.9483 26.1059 25.3262 26.2552C24.3656 26.3423 23.428 26.5414 22.0418 27.4248C22.8931 27.0764 23.6754 26.8213 24.7395 26.7654C25.6771 26.7156 26.908 26.8462 27.4774 26.728C27.9203 26.84 29.0592 26.7156 31.1932 27.0702C27.8686 26.1246 23.0541 21.1476 20.9719 18.1427C20.6383 17.6637 20.5348 17.3899 19.718 16.7616C20.7246 18.0183 21.1675 18.8395 21.0179 19.3372C20.8569 19.9033 19.9826 20.0526 19.1313 19.9407Z" fill="#D8BF66"/>
<path fill-rule="evenodd" clip-rule="evenodd" d="M11.7227 33.3347C12.2116 32.2895 13.4023 32.2896 14.5009 32.3891C18.1822 32.725 18.7171 33.6396 22.3409 32.1029C23.5316 31.599 25.1536 30.4232 25.9704 30.249C29.0247 29.602 32.3839 30.6098 36.3413 29.2722C37.4802 29.1478 38.6594 29.0918 39.5567 29.0047C41.5296 28.8119 42.2199 28.3888 37.9806 26.8833C34.6099 25.6079 29.5942 22.7088 25.562 18.7459C21.8635 15.1126 18.8379 11.4297 14.8978 8.64255C9.85902 5.07155 4.88928 4.64849 6.60983e-05 4.77913C3.52605 6.47754 6.48832 12.1762 8.95594 14.5714C11.4293 16.9728 16.7557 16.2325 16.5083 18.3228C16.2898 20.1394 12.6487 17.9869 10.7621 17.4332C8.13916 16.668 5.33793 18.1237 3.07164 19.1814C6.31578 18.6712 9.63468 21.7196 11.8895 23.6109C13.1434 24.6623 15.7491 23.7353 16.3185 23.6793C17.3999 23.5736 19.4304 22.2547 20.8338 23.5114C22.9966 25.4462 18.0614 25.4213 16.9167 26.031C14.7482 27.1757 12.4704 30.0934 11.7227 33.3347ZM14.2018 14.9385C12.2116 14.3972 11.4408 13.9244 10.624 13.041C8.86966 11.1435 7.32812 8.10131 5.59101 6.51489C7.34537 6.89438 9.48513 7.43564 11.2567 8.46215C16.1575 11.3053 20.9086 16.3569 24.2045 19.8781C25.5218 21.2841 27.1553 22.771 28.7774 23.9406C30.7388 25.3529 33.2179 26.6966 35.0413 27.7045C33.1432 28.2084 31.5671 28.7745 28.5531 28.3079C23.267 28.2955 23.1922 29.9317 19.971 30.952C18.7171 31.3253 16.6751 30.9582 14.8863 30.6471C16.0654 28.9985 16.9628 27.5987 18.8724 27.0264C20.4772 26.5473 22.5997 26.5535 23.2727 25.4773C24.682 23.2127 21.0927 21.3339 19.0967 21.1659C17.7738 21.054 16.192 22.1924 14.6965 22.2795C10.7736 22.547 11.5156 19.8657 7.06928 18.7583C9.54265 17.7878 10.555 18.7521 12.804 19.7413C15.0531 20.7367 17.7623 20.4381 18.2224 19.001C18.6941 17.5701 18.0844 16.0023 14.2018 14.9385Z" fill="#D8BF66"/>
<path fill-rule="evenodd" clip-rule="evenodd" d="M165.532 13.1406C165.382 15.3119 163.403 16.9481 161.108 16.7863C158.813 16.6308 157.076 14.7395 157.22 12.5621C157.369 10.3909 159.348 8.75467 161.637 8.91643C163.938 9.07196 165.681 10.9632 165.532 13.1406Z" fill="#D8BF66"/>
<path d="M162.627 19.6606C163.513 19.5238 164.37 19.2189 165.135 18.7461C165.877 18.2857 166.515 17.6761 167.033 16.9731C168.126 15.4924 168.666 13.6509 168.678 11.8156C168.684 5.92412 162.08 0.928449 156.599 4.6612C153.625 6.68933 151.871 12.3071 154.936 15.0009C155.529 15.5235 156.265 15.8532 157.047 15.9776C156.616 15.4426 156.265 14.8516 156.058 14.1984C155.253 11.8218 156.397 8.74235 158.416 7.30524C162.006 4.79807 166.613 7.89003 167.269 11.9214C167.533 13.5265 167.303 15.2187 166.538 16.662C166.153 17.3837 165.629 18.0307 164.985 18.5408C164.301 19.0883 163.49 19.4678 162.627 19.6606Z" fill="#D8BF66"/>
<path d="M164.053 12.7368C164.007 13.3775 163.835 13.9997 163.541 14.5658C163.248 15.1195 162.851 15.611 162.368 16.0154C161.879 16.426 161.31 16.7433 160.706 16.9423C160.067 17.1539 159.388 17.2347 158.715 17.1849C157.674 17.1103 156.65 16.8428 155.707 16.3762C154.827 15.9345 154.039 15.3248 153.389 14.5845C152.751 13.8441 152.256 12.9918 151.945 12.0649C151.623 11.1006 151.497 10.0803 151.56 9.0662C151.635 8.02725 151.94 7.02562 152.423 6.10488C152.923 5.17169 153.602 4.34426 154.401 3.6537C155.212 2.95692 156.144 2.40948 157.151 2.04865C158.163 1.68781 159.239 1.53226 160.314 1.6007C161.764 1.70646 163.167 2.11086 164.456 2.78898C165.71 3.45465 166.82 4.36296 167.74 5.43924C168.655 6.52174 169.368 7.75973 169.828 9.0973C170.288 10.4411 170.496 11.8658 170.398 13.2842C170.288 14.8209 169.777 16.3078 169.006 17.6329C168.074 19.2255 166.791 20.5755 165.307 21.6642C163.576 22.9334 159.164 24.0906 154.971 20.0094L163.219 28.968L162.178 26.9959C161.528 25.7578 161.937 25.341 163.052 24.8247C164.174 24.3083 165.244 23.6862 166.245 22.9521C167.901 21.7389 169.334 20.2209 170.375 18.4416C171.266 16.905 171.853 15.1817 171.974 13.4024C172.083 11.7725 171.847 10.1363 171.318 8.58719C170.789 7.06298 169.978 5.65075 168.937 4.41894C167.884 3.18713 166.613 2.14819 165.186 1.38919C163.708 0.611538 162.08 0.138713 160.412 0.0205092C159.118 -0.066588 157.824 0.126262 156.604 0.555528C155.414 0.978574 154.309 1.6318 153.349 2.453C152.4 3.27421 151.6 4.2572 151.008 5.35836C150.415 6.47196 150.047 7.69754 149.961 8.96045C149.88 10.186 150.036 11.4116 150.427 12.575C150.806 13.6948 151.405 14.7338 152.181 15.6296C152.963 16.5255 153.918 17.2658 154.988 17.8009C156.116 18.3608 157.341 18.6843 158.595 18.7714C159.469 18.8336 160.355 18.7216 161.189 18.4479C161.988 18.1866 162.736 17.7697 163.38 17.2347C164.019 16.6997 164.554 16.0403 164.939 15.3061C165.336 14.5471 165.572 13.7073 165.629 12.8487C165.112 12.8114 164.582 12.7741 164.053 12.7368Z" fill="#D8BF66"/>
<path fill-rule="evenodd" clip-rule="evenodd" d="M145.267 27.929C146.883 28.2401 148.356 28.0721 149.644 28.2712C150.904 28.4641 154.516 29.6585 156.765 30.9277C155.557 29.6461 154.752 28.8373 152.325 27.6739C150.409 26.7532 152.244 27.1514 154.804 28.041C159.308 29.6025 162.166 32.0413 163.858 35.5936C164.421 36.7756 164.749 38.0759 164.755 39.4881C164.761 41.5909 166.388 43.0031 166.124 44.2412C165.859 45.473 165.089 46.3937 164.462 45.1494C163.535 42.8103 162.621 40.0791 161.689 37.7399C159.037 35.351 156.386 32.962 153.728 30.5668C150.91 29.5403 148.08 28.9493 145.267 27.929Z" fill="#D8BF66"/>
</g>
</svg>
