<svg width="172" height="320" viewBox="0 0 172 320" fill="none" xmlns="http://www.w3.org/2000/svg">
<g opacity="0.4">
<path d="M130.89 305.428C130.879 304.787 130.741 304.153 130.476 303.574C130.217 303.002 129.843 302.492 129.383 302.056C128.917 301.621 128.365 301.272 127.772 301.036C127.146 300.793 126.473 300.669 125.8 300.675C124.753 300.687 123.717 300.899 122.757 301.31C121.854 301.702 121.037 302.261 120.347 302.964C119.668 303.667 119.127 304.495 118.765 305.397C118.391 306.343 118.207 307.35 118.218 308.371C118.236 309.41 118.489 310.43 118.92 311.376C119.369 312.334 120.002 313.198 120.761 313.939C121.537 314.679 122.435 315.283 123.424 315.699C124.419 316.116 125.483 316.334 126.559 316.328C128.008 316.309 129.435 315.979 130.758 315.382C132.046 314.791 133.202 313.951 134.18 312.925C135.152 311.898 135.929 310.697 136.47 309.391C137.004 308.078 137.286 306.666 137.269 305.241C137.246 303.699 136.815 302.187 136.119 300.818C135.279 299.176 134.065 297.751 132.644 296.581C130.879 295.132 128.819 294.074 126.662 293.346C123.867 292.413 120.916 292.009 117.977 291.959C111.851 291.866 105.236 292.475 99.7544 295.431C97.7815 296.507 95.9639 297.95 94.7962 299.897C93.6746 301.795 93.3409 303.972 93.6228 306.144C93.0993 306.212 92.5702 306.28 92.0467 306.349C91.7189 303.823 92.133 301.285 93.433 299.082C94.7502 296.893 96.7691 295.244 98.9952 294.031C104.724 290.945 111.598 290.267 118.006 290.366C121.106 290.422 124.218 290.845 127.169 291.835C129.51 292.625 131.741 293.769 133.657 295.35C135.244 296.662 136.596 298.255 137.534 300.09C138.339 301.677 138.834 303.431 138.857 305.217C138.874 306.853 138.552 308.47 137.942 309.988C137.332 311.481 136.441 312.844 135.336 314.013C134.221 315.183 132.898 316.147 131.425 316.825C129.906 317.516 128.256 317.895 126.588 317.914C125.293 317.927 124.011 317.659 122.814 317.161C121.647 316.67 120.582 315.961 119.668 315.083C118.765 314.212 118.017 313.186 117.488 312.047C116.959 310.897 116.654 309.659 116.637 308.389C116.625 307.164 116.844 305.944 117.298 304.806C117.741 303.711 118.391 302.703 119.213 301.857C120.048 301.005 121.037 300.32 122.136 299.848C123.292 299.356 124.534 299.101 125.788 299.082C126.668 299.07 127.542 299.232 128.359 299.549C129.141 299.86 129.866 300.314 130.476 300.887C131.086 301.459 131.58 302.143 131.925 302.902C132.282 303.686 132.472 304.538 132.483 305.397C131.948 305.416 131.419 305.422 130.89 305.428Z" fill="#D8BF66"/>
<path fill-rule="evenodd" clip-rule="evenodd" d="M132.392 305.117C132.363 302.94 130.476 301.198 128.175 301.223C125.875 301.247 124.034 303.039 124.063 305.217C124.091 307.394 125.978 309.136 128.279 309.111C130.58 309.08 132.42 307.294 132.392 305.117Z" fill="#D8BF66"/>
<path d="M129.849 298.435C130.729 298.622 131.569 298.977 132.305 299.493C133.019 299.997 133.622 300.638 134.106 301.372C136.746 305.409 135.457 311.245 131.172 313.615C126.927 315.905 121.808 313.814 120.376 309.192C119.484 306.199 120.548 302.143 124.08 301.789C122.452 303.587 122.297 305.969 123.24 308.184C124.977 312.234 129.918 312.713 132.656 309.36C134.387 307.263 134.727 304.115 133.594 301.658C133.249 300.918 132.76 300.24 132.15 299.692C131.488 299.101 130.7 298.678 129.849 298.435Z" fill="#D8BF66"/>
<path fill-rule="evenodd" clip-rule="evenodd" d="M127.577 296.444C127.566 295.405 126.709 294.571 125.673 294.583C124.638 294.596 123.804 295.448 123.815 296.488C123.827 297.527 124.684 298.36 125.719 298.348C126.76 298.336 127.589 297.483 127.577 296.444Z" fill="#D8BF66"/>
<path fill-rule="evenodd" clip-rule="evenodd" d="M121.434 295.965C121.417 294.689 120.37 293.663 119.093 293.681C117.816 293.694 116.798 294.745 116.815 296.021C116.832 297.296 117.879 298.323 119.156 298.304C120.427 298.292 121.451 297.24 121.434 295.965Z" fill="#D8BF66"/>
<path fill-rule="evenodd" clip-rule="evenodd" d="M114.825 296.631C114.808 295.144 113.588 293.956 112.104 293.975C110.62 293.993 109.435 295.213 109.452 296.693C109.47 298.18 110.689 299.369 112.173 299.35C113.657 299.331 114.842 298.118 114.825 296.631Z" fill="#D8BF66"/>
<path fill-rule="evenodd" clip-rule="evenodd" d="M108.107 298.516C108.084 296.768 106.646 295.362 104.897 295.387C103.148 295.405 101.751 296.842 101.774 298.591C101.797 300.339 103.235 301.745 104.983 301.72C106.732 301.701 108.13 300.264 108.107 298.516Z" fill="#D8BF66"/>
<path fill-rule="evenodd" clip-rule="evenodd" d="M102.107 303.325C102.084 301.421 100.52 299.897 98.6158 299.916C96.7118 299.941 95.1933 301.502 95.2163 303.406C95.2393 305.31 96.8039 306.834 98.7078 306.815C100.612 306.79 102.136 305.229 102.107 303.325Z" fill="#D8BF66"/>
<path fill-rule="evenodd" clip-rule="evenodd" d="M93.5425 306.616C85.9614 304.725 82.3319 308.625 71.2592 311.101C64.1613 312.688 55.585 313.714 45.8238 312.433C34.2738 310.23 23.9029 306.025 15.3784 298.479C9.71841 294.043 7.21054 289.856 6.46853 285.663C5.89332 282.403 8.09635 282.484 6.64684 275.466C14.4006 305.807 47.9751 317.528 75.2972 306.174C81.354 303.655 87.2268 299.978 94.089 300.289C93.5541 302.224 93.4448 304.687 93.5425 306.616Z" fill="#D8BF66"/>
<path d="M137.752 294.771C128.204 289.906 117.499 289.203 107.083 291.063C96.5679 292.973 86.6111 297.122 76.988 301.645C63.1199 308.115 47.2328 310.822 32.1108 307.817C32.2143 307.3 21.5961 300.308 21.6996 299.791C21.8492 303.02 39.9968 309.36 53.0884 306.94C61.0434 305.471 69.0099 303.624 76.315 300.202C86.0704 295.629 96.1537 291.43 106.806 289.495C117.568 287.573 128.624 288.326 138.483 293.352C138.235 293.831 137.994 294.298 137.752 294.771Z" fill="#D8BF66"/>
<path d="M73.4392 271.566C72.7317 271.634 71.9954 271.752 71.2994 271.566C70.8968 271.454 70.5402 271.23 70.2871 270.894C70.0168 270.527 69.896 270.079 69.8499 269.637C69.7924 269.065 69.7694 268.492 69.8269 267.92C69.8845 267.404 70.0168 266.893 70.2813 266.439C70.5459 265.985 70.9371 265.618 71.403 265.369C71.9149 265.102 72.4844 264.971 73.0596 264.915C73.7096 264.853 74.3653 264.928 74.9865 265.127C75.5847 265.326 76.1426 265.643 76.6201 266.054C77.1032 266.47 77.5059 266.974 77.805 267.541C78.1156 268.132 78.3054 268.779 78.3744 269.438C78.4665 270.346 78.3572 271.267 78.1041 272.144C77.8337 273.053 77.4081 273.905 76.8329 274.658C76.2404 275.429 75.4984 276.076 74.6356 276.53C73.7038 277.015 72.6684 277.239 71.6216 277.208C70.5114 277.171 69.4243 276.903 68.4177 276.437C67.4053 275.964 66.485 275.323 65.6395 274.595C63.7586 272.965 62.2113 270.981 60.6582 269.046C57.1322 264.617 53.4164 260.175 48.1016 257.86C44.2937 256.224 40.1465 255.117 35.9878 255.017C34.3945 254.986 32.7725 255.098 31.2367 255.558C30.1495 255.888 29.0624 256.417 28.3377 257.325C27.9235 256.995 27.5094 256.666 27.0952 256.336C28.0213 255.179 29.373 254.47 30.7765 254.04C32.4676 253.53 34.2622 253.393 36.0223 253.431C40.3881 253.53 44.7309 254.681 48.7285 256.398C54.2965 258.825 58.2021 263.41 61.8949 268.057C63.3789 269.917 64.863 271.827 66.6691 273.395C67.3996 274.023 68.1934 274.589 69.0734 274.994C69.8902 275.367 70.7645 275.585 71.6618 275.616C72.4384 275.634 73.2034 275.473 73.8994 275.112C74.5551 274.77 75.1188 274.266 75.5675 273.681C76.0219 273.084 76.3612 272.406 76.5741 271.684C76.7696 271.006 76.8617 270.29 76.7926 269.587C76.7466 269.127 76.6143 268.679 76.3957 268.268C76.1944 267.883 75.9183 267.534 75.5847 267.248C75.2626 266.974 74.8887 266.757 74.4861 266.626C74.0777 266.489 73.6463 266.446 73.2149 266.483C72.8525 266.52 72.4786 266.589 72.1508 266.763C71.9437 266.875 71.7711 267.03 71.6561 267.229C71.5065 267.485 71.4433 267.783 71.4087 268.082C71.3627 268.542 71.3857 269.009 71.4318 269.469C71.449 269.625 71.4663 269.811 71.564 269.936C71.6043 269.985 71.6561 270.004 71.7136 270.023C72.2083 270.153 72.795 270.023 73.2896 269.973C73.3357 270.508 73.3874 271.037 73.4392 271.566Z" fill="#D8BF66"/>
<path fill-rule="evenodd" clip-rule="evenodd" d="M75.6018 269.426C75.1474 267.852 73.5484 266.856 72.0298 267.198C70.5113 267.541 69.6427 269.096 70.0972 270.67C70.5516 272.244 72.1506 273.239 73.6692 272.897C75.1877 272.555 76.0562 271 75.6018 269.426Z" fill="#D8BF66"/>
<path fill-rule="evenodd" clip-rule="evenodd" d="M68.9066 283.909C65.4784 280.531 61.5556 275.734 59.0189 272.549C54.193 266.489 50.9718 261.574 46.0999 258.364C37.4489 252.653 28.7748 251.776 20.6357 259.136C19.4105 260.243 17.6677 261.749 16.9717 263.335C23.4772 257.991 44.1615 247.956 53.0426 280.07C58.0986 277.98 63.7701 279.541 68.9066 283.909Z" fill="#D8BF66"/>
<path d="M29.2866 286.049C27.9579 285.999 26.8995 285.943 25.427 285.29C24.3916 284.83 23.5115 284.083 22.8328 283.168C22.1943 282.304 21.7687 281.302 21.5501 280.251C21.3373 279.181 21.3315 278.079 21.4983 276.997C21.8665 274.701 22.9766 272.567 24.6102 270.925C26.4623 269.09 28.9012 268.013 31.4953 267.833C33.1002 267.727 34.7222 267.92 36.2465 268.443C37.6673 268.934 38.9902 269.706 40.1004 270.726C41.1932 271.734 42.0618 272.959 42.6427 274.328C43.2467 275.759 43.5171 277.308 43.471 278.857C43.402 280.873 42.9188 282.851 41.9928 284.649C41.107 286.36 39.8473 287.847 38.3402 289.041C36.7814 290.267 34.9983 291.169 33.1059 291.754C31.0754 292.37 28.9587 292.625 26.842 292.556C24.4836 292.469 22.1886 291.828 20.0258 290.901C17.7308 289.9 15.591 288.562 13.6468 286.976C11.7487 285.414 10.0403 283.623 8.66559 281.582C7.42315 279.722 6.45681 277.65 6.11169 275.429C6.63513 275.348 7.15856 275.274 7.682 275.193C7.98685 277.184 8.87266 279.038 9.9828 280.699C11.2713 282.609 12.8761 284.288 14.6534 285.75C16.4826 287.237 18.4958 288.506 20.6585 289.446C22.6315 290.298 24.7367 290.895 26.8937 290.97C28.8379 291.032 30.7763 290.802 32.64 290.236C34.3426 289.707 35.9532 288.898 37.3566 287.797C38.6854 286.739 39.7955 285.427 40.5835 283.921C41.4003 282.341 41.826 280.587 41.8835 278.814C41.9237 277.495 41.6937 276.176 41.1817 274.956C40.6928 273.799 39.9508 272.76 39.0305 271.908C38.0814 271.037 36.954 270.378 35.7403 269.961C34.4116 269.507 33.0081 269.345 31.6104 269.438C29.3959 269.594 27.3194 270.508 25.7376 272.07C24.3398 273.476 23.385 275.305 23.0686 277.264C22.9306 278.154 22.9306 279.069 23.1089 279.952C23.2757 280.773 23.6036 281.557 24.104 282.235C24.6274 282.938 25.3234 283.486 26.1115 283.871C27.1181 284.35 28.2282 284.556 29.3383 284.593C29.3153 285.103 29.3038 285.52 29.2866 286.049Z" fill="#D8BF66"/>
<path fill-rule="evenodd" clip-rule="evenodd" d="M32.7091 282.341C32.6803 280.288 30.8454 278.645 28.6079 278.67C26.3703 278.695 24.5757 280.381 24.6045 282.434C24.6332 284.487 26.4681 286.13 28.7057 286.105C30.9432 286.08 32.7378 284.394 32.7091 282.341Z" fill="#D8BF66"/>
<path fill-rule="evenodd" clip-rule="evenodd" d="M24.1963 289.377C27.8776 290.945 33.4513 289.67 36.0455 288.12C39.6002 285.999 41.1187 282.266 40.9577 278.658C40.8657 276.524 39.698 271.902 35.6141 271.13C31.881 270.427 25.0419 272.741 23.8052 278.297C25.5768 277.401 26.9343 277.071 28.2342 277.171C29.3789 277.258 30.4775 277.675 31.7717 278.334C33.7044 275.753 36.8738 276.916 38.0299 278.521C39.5369 280.611 39.1285 284.338 35.6946 287.249C34.2336 288.487 29.8563 290.13 24.1963 289.377Z" fill="#D8BF66"/>
<path fill-rule="evenodd" clip-rule="evenodd" d="M19.1 283.113C15.4475 278.764 16.2355 264.212 29.051 263.111C47.8313 261.5 49.6087 283.903 43.3793 288.506C45.4903 288.494 46.819 286.534 47.446 283.853C48.3663 279.927 47.7911 274.453 45.9907 271.242C42.9536 265.836 37.449 261.83 29.862 261.55C23.0401 261.295 18.7319 263.341 15.9019 266.57C14.2626 268.443 13.1237 270.72 12.2839 273.183C7.9066 270.77 18.0992 260.392 17.7713 254.731C17.4434 249.064 12.0193 246.034 9.05124 238.917C10.9322 244.068 7.67076 247.738 3.66736 246.619C6.16948 249.748 10.9034 252.044 11.7432 256.79C12.583 261.531 7.52121 266.651 9.21805 272.319C10.9322 277.98 14.9241 284.332 19.1 283.113Z" fill="#D8BF66"/>
<path d="M119.455 284.456C112.881 283.411 106.053 284.089 99.7835 286.304C88.2737 290.41 77.6152 296.544 66.1169 300.693C50.9834 306.087 35.4357 305.272 21.7861 296.625C17.5354 293.9 13.5722 290.596 10.4374 286.621C10.144 286.248 8.85559 284.456 8.19986 284.854C7.49236 285.339 8.90161 287.237 9.18921 287.604C12.4391 291.729 16.5288 295.15 20.9348 297.968C34.9985 306.884 51.0581 307.755 66.6576 302.199C78.1559 298.049 88.8144 291.915 100.324 287.815C106.341 285.694 112.898 285.041 119.214 286.042C119.685 286.117 122.257 286.658 122.475 285.912C122.653 285.028 119.921 284.531 119.455 284.456Z" fill="#D8BF66"/>
<path d="M86.6457 289.022C79.4269 293.091 71.8745 296.737 63.7929 298.74C51.6907 301.652 39.2491 299.574 27.5437 295.909C27.1123 295.773 25.7721 295.443 25.5535 296.102C25.3349 296.774 26.6349 297.291 27.0663 297.427C39.0535 301.185 51.7827 303.263 64.1725 300.283C72.3922 298.249 80.0769 294.547 87.4222 290.41C87.8248 290.18 89.0443 289.39 88.6934 288.767C88.331 288.158 87.0426 288.799 86.6457 289.022Z" fill="#D8BF66"/>
<path d="M88.6186 283.423C83.7697 289.433 77.4022 293.974 70.1891 296.712C69.8153 296.855 69.775 297.34 69.89 297.67C70.0108 298.006 70.3675 298.342 70.7528 298.199C78.2305 295.362 84.8338 290.652 89.861 284.418C90.7296 283.236 89.2973 282.596 88.6186 283.423Z" fill="#D8BF66"/>
<path d="M75.1934 283.834C74.158 286.416 73.1226 289.022 71.7537 291.449C70.6263 293.433 69.2285 295.256 67.3476 296.587C63.7814 299.07 59.1855 299.661 54.9635 300.028C54.5149 300.071 53.9627 300.382 53.9914 300.905C54.0375 301.428 54.6472 301.652 55.0958 301.614C59.6112 301.222 64.4428 300.544 68.2564 297.894C70.3329 296.432 71.886 294.435 73.1341 292.239C74.5376 289.75 75.6075 287.081 76.6659 284.431C77.2583 282.919 75.7686 282.428 75.1934 283.834Z" fill="#D8BF66"/>
<path d="M50.5576 294.896C49.4935 296.339 48.067 297.434 46.3816 298.056C44.4259 298.759 42.315 298.846 40.2557 298.69C35.7174 298.317 31.3516 296.855 26.9801 295.673C26.5832 295.567 26.2438 295.916 26.1518 296.27C26.0598 296.625 26.1748 297.092 26.5659 297.204C31.0352 298.417 35.4931 299.897 40.1292 300.277C42.4185 300.451 44.7481 300.333 46.9223 299.549C48.901 298.821 50.5863 297.54 51.8345 295.835C52.0934 295.48 52.1797 294.852 51.8115 294.622C51.4894 294.41 50.7992 294.566 50.5576 294.896Z" fill="#D8BF66"/>
<path d="M36.2468 294.167C35.0907 295.069 33.6296 295.573 32.2089 295.853C30.5581 296.171 28.8267 296.196 27.1989 295.735C26.9746 295.679 26.7732 296.289 26.733 296.426C26.6812 296.581 26.5029 297.185 26.7617 297.266C28.6311 297.795 30.6213 297.782 32.5137 297.415C34.1876 297.085 35.8729 296.476 37.2304 295.418C38.7144 294.192 37.3339 293.371 36.2468 294.167Z" fill="#D8BF66"/>
<path d="M15.2573 291.393C19.6634 293.676 22.4761 295.026 27.8312 295.038C32.3351 295.051 36.6663 293.744 40.3879 291.194C40.7445 290.945 40.8078 290.447 40.5547 290.099C40.3073 289.769 39.8357 289.651 39.4848 289.887C36.0336 292.251 32.0129 293.458 27.837 293.452C22.2863 293.439 18.2541 291.523 13.3764 288.997C12.9795 288.792 12.761 288.263 12.5309 288.686C12.0419 289.582 14.5728 291.038 15.2573 291.393Z" fill="#D8BF66"/>
<path d="M39.0708 290.764C38.6566 292.419 38.996 293.919 40.2212 295.169C41.2565 296.233 42.8844 296.55 44.2936 296.233C45.5475 295.947 46.6232 295.175 47.5147 294.273C48.4581 293.315 49.2231 292.195 49.8443 291.007C51.0465 288.705 52.3062 286.08 54.3309 284.375C56.3843 282.646 60.0484 282.297 62.0443 284.282C63.7124 285.949 63.5859 287.262 62.5275 289.078C62.2802 289.508 61.9178 289.893 61.4461 290.068C60.1462 290.559 60.6639 292.046 62.0041 291.561C63.1487 291.144 63.9252 290.074 64.3509 288.867C65.392 285.906 64.1956 283.206 61.3598 281.893C58.875 280.742 55.3777 281.432 53.307 283.162C51.1155 285.01 49.7408 287.784 48.4293 290.279C47.8771 291.324 47.2041 292.32 46.3758 293.166C45.7029 293.844 44.8861 294.472 43.937 294.69C43.0627 294.883 41.9986 294.733 41.3486 294.068C40.503 293.203 40.3247 292.289 40.6066 291.156C40.7734 290.59 40.6986 289.999 40.2269 289.8C39.669 289.557 39.1801 290.316 39.0708 290.764Z" fill="#D8BF66"/>
<path d="M62.5736 290.97C62.6772 290.851 62.7692 290.733 62.8612 290.603C63.2006 290.13 63.4479 289.582 63.5055 288.997C63.563 288.431 63.4479 287.859 63.1891 287.349C62.9418 286.87 62.5794 286.459 62.1537 286.136C61.7281 285.812 61.2392 285.576 60.7215 285.439C60.1923 285.302 59.6401 285.265 59.0994 285.358C58.2194 285.514 57.3738 285.843 56.6203 286.329C52.8642 288.755 52.8872 293.744 56.3097 296.643C60.3419 300.003 66.6403 298.143 68.9584 293.564C71.403 288.662 69.7522 284.947 74.7622 281.93C76.3612 280.972 78.0581 280.201 79.7492 279.423C80.1748 279.224 80.9858 278.695 80.7328 278.16C80.4797 277.631 79.5133 277.781 79.0877 277.98C77.3448 278.776 75.5904 279.578 73.9454 280.568C68.4177 283.896 70.1605 287.591 67.5376 292.848C65.697 296.494 60.5777 298.13 57.3335 295.424C54.7394 293.228 54.6013 289.526 57.4831 287.666C58.0583 287.299 58.7083 287.044 59.3813 286.926C59.6919 286.87 60.014 286.895 60.3188 286.976C60.6352 287.063 60.9401 287.206 61.1989 287.405C61.4347 287.585 61.6418 287.809 61.7741 288.077C61.8949 288.313 61.9467 288.574 61.9237 288.836C61.8892 289.141 61.7396 289.427 61.567 289.676C61.5038 289.763 61.4405 289.844 61.3715 289.924C61.0954 290.248 60.6064 290.957 60.9056 291.393C61.3197 291.94 62.2688 291.318 62.5736 290.97Z" fill="#D8BF66"/>
<path d="M79.7147 279.429C79.5939 281.955 78.8232 284.238 77.575 286.41C76.9077 287.573 75.9586 288.88 76.183 290.304C76.4821 292.146 78.3802 292.177 79.6514 291.119C80.2439 290.621 80.6926 289.987 81.101 289.334C82.0213 287.847 82.7863 286.279 83.8907 284.91C84.9088 283.666 86.111 282.559 87.5605 281.831C88.6246 281.302 89.7692 281.01 90.9369 280.823C92.024 280.649 93.3413 280.674 94.3996 280.356C95.1819 280.126 95.9066 279.753 96.5279 279.224C96.8787 278.919 97.1663 278.222 96.7062 277.874C96.3553 277.607 95.7974 277.756 95.4867 278.017C95.0381 278.403 94.5031 278.664 93.9395 278.832C92.9501 279.125 91.7019 279.093 90.6838 279.249C89.3551 279.461 88.0494 279.796 86.8415 280.406C85.1964 281.234 83.8159 282.484 82.654 283.902C81.5036 285.321 80.7041 286.945 79.7435 288.488C79.4271 288.998 79.082 289.508 78.6218 289.894C77.9201 290.478 77.5232 290.354 77.8108 289.39C78.0466 288.606 78.5413 287.903 78.9439 287.2C80.3187 284.805 81.1642 282.273 81.2965 279.498C81.3138 279.037 81.0894 277.824 80.1921 277.843C79.6342 277.862 79.7377 278.981 79.7147 279.429Z" fill="#D8BF66"/>
<path d="M95.55 278.745C95.4407 279.479 95.2739 280.164 94.8885 280.792C94.4341 281.532 93.8359 282.248 93.1111 282.733C92.2771 283.287 91.4488 283.921 90.7815 284.686C89.102 286.609 90.2351 288.637 92.835 287.704C93.6633 287.405 94.4513 287.001 95.2394 286.609C96.8672 285.8 98.5295 284.848 100.324 284.45C106.904 282.976 114.578 283.99 120.905 286.211C121.336 286.36 122.17 286.453 122.383 285.906C122.596 285.346 121.871 285.01 121.434 284.854C114.825 282.534 106.847 281.352 99.9733 282.895C98.0579 283.324 96.2862 284.313 94.5376 285.184C93.7956 285.551 93.0248 285.856 92.2828 286.217C91.7997 286.453 91.3855 286.235 91.7651 285.887C92.5014 285.203 93.1629 284.624 93.9969 284.07C94.9172 283.461 95.6305 282.546 96.246 281.638C96.5911 281.128 97.8968 277.831 96.246 277.638C95.78 277.575 95.6075 278.328 95.55 278.745Z" fill="#D8BF66"/>
<path d="M8.98202 166.501C8.79796 165.567 7.86038 164.939 6.92855 165.001C5.83567 165.095 5.18569 166.14 5.36976 167.185C5.40427 167.372 5.46754 167.552 5.55382 167.72C5.94496 168.461 6.779 168.84 7.59004 168.629C8.3378 168.423 8.92451 167.758 8.99928 166.974C9.02229 166.812 9.01078 166.656 8.98202 166.501Z" fill="#D8BF66"/>
<path d="M9.747 170.028C9.4594 169.188 8.53332 168.753 7.69353 168.977C6.80197 169.238 6.32455 170.19 6.61215 171.074C6.69268 171.316 6.83073 171.54 7.01479 171.727C7.4692 172.169 8.13068 172.306 8.72314 172.094C9.30409 171.882 9.72974 171.354 9.81027 170.744C9.84478 170.501 9.82177 170.258 9.747 170.028Z" fill="#D8BF66"/>
<path d="M8.59103 163.16C8.499 163.975 7.69372 164.585 6.90569 164.628C5.90484 164.666 5.20885 163.782 5.30088 162.818C5.3584 162.27 5.66326 161.754 6.16369 161.511C6.50306 161.331 6.89419 161.306 7.26232 161.424C7.61319 161.536 7.91805 161.76 8.15963 162.034C8.44148 162.339 8.6313 162.731 8.59103 163.16Z" fill="#D8BF66"/>
<path d="M10.7596 173.294C11.0415 174.054 10.6503 174.9 9.90256 175.199C9.14329 175.491 8.28049 175.118 7.97563 174.359C7.68803 173.593 8.07917 172.734 8.84419 172.442C9.60345 172.174 10.4605 172.535 10.7596 173.294Z" fill="#D8BF66"/>
<path d="M9.28116 160.678C9.33868 160.597 9.38469 160.51 9.4192 160.417C9.58026 159.894 9.40195 159.222 9.08559 158.793C8.64843 158.208 7.87766 158.108 7.28521 158.513C7.14141 158.618 7.00911 158.743 6.90557 158.886C6.36488 159.62 6.48568 160.703 7.3945 161.064C7.9697 161.294 8.87276 161.213 9.28116 160.678Z" fill="#D8BF66"/>
<path d="M11.7717 176.281C11.4956 175.602 10.7133 175.285 10.0404 175.546C9.36161 175.82 9.02225 176.592 9.28684 177.276C9.56294 177.954 10.3452 178.278 11.0239 178.01C11.6969 177.73 12.0421 176.959 11.7717 176.281Z" fill="#D8BF66"/>
<path d="M11.0643 159.266C10.4315 159.478 9.72403 159.135 9.37316 158.594C8.89574 157.829 9.41918 157.001 10.1957 156.727C10.2417 156.709 10.2935 156.696 10.3395 156.684C11.0412 156.528 11.7487 156.964 11.881 157.679C11.9788 158.252 11.7085 158.974 11.1563 159.229C11.1275 159.247 11.0988 159.26 11.0643 159.266Z" fill="#D8BF66"/>
<path d="M12.7257 179.012C12.9672 179.628 12.6567 180.325 12.0472 180.567C11.4377 180.804 10.7362 180.511 10.4889 179.902C10.2474 179.286 10.5579 178.596 11.1617 178.347C11.7769 178.11 12.4784 178.403 12.7257 179.012Z" fill="#D8BF66"/>
<path d="M13.4163 158.762C13.974 158.793 14.4858 158.283 14.6525 157.785C14.8883 157.045 14.3075 156.41 13.5773 156.354C13.2438 156.336 12.8988 156.429 12.64 156.64C12.3525 156.889 12.2088 157.244 12.2605 157.623C12.3123 157.978 12.5193 158.295 12.8183 158.5C12.9908 158.637 13.192 158.749 13.4163 158.762Z" fill="#D8BF66"/>
<path d="M13.583 181.532C13.3645 180.978 12.7378 180.705 12.18 180.916C11.6338 181.134 11.3463 181.75 11.5533 182.303C11.7718 182.857 12.3928 183.124 12.9448 182.925C13.5025 182.714 13.79 182.092 13.583 181.532Z" fill="#D8BF66"/>
<path d="M15.3206 159.328C14.8951 159.023 14.8204 158.376 15.0044 157.922C15.2746 157.294 16.0279 157.182 16.5626 157.549C16.7754 157.698 16.9421 157.91 17.0169 158.158C17.1204 158.513 17.0169 158.886 16.7524 159.141C16.5109 159.371 16.1716 159.49 15.8381 159.49C15.6541 159.477 15.4701 159.427 15.3206 159.328Z" fill="#D8BF66"/>
<path d="M14.3308 183.859C14.509 184.369 14.2388 184.922 13.7328 185.103C13.2325 185.271 12.6748 185.015 12.4908 184.512C12.3183 184.008 12.5885 183.46 13.0773 183.274C13.5833 183.093 14.1468 183.355 14.3308 183.859Z" fill="#D8BF66"/>
<path d="M16.6898 160.69C16.7243 160.746 16.7646 160.802 16.8105 160.852C17.0923 161.138 17.5638 161.213 17.9375 161.089C18.386 160.927 18.616 160.467 18.501 160.006C18.478 159.913 18.4435 159.826 18.3975 159.745C18.11 159.241 17.4718 159.036 17.0003 159.415C16.6381 159.708 16.4598 160.267 16.6898 160.69Z" fill="#D8BF66"/>
<path d="M14.9579 186.017C14.8084 185.557 14.3081 185.302 13.8481 185.458C13.3996 185.613 13.1466 186.104 13.2846 186.559C13.3364 186.72 13.4399 186.863 13.5721 186.975C13.7964 187.168 14.1069 187.249 14.3944 187.162C14.6819 187.069 14.8889 186.826 14.9636 186.54C15.0154 186.366 15.0154 186.185 14.9579 186.017Z" fill="#D8BF66"/>
<path d="M17.3456 162.407C17.2996 161.966 17.6331 161.555 18.0471 161.437C18.5703 161.294 19.0246 161.686 19.0936 162.202C19.0993 162.271 19.1051 162.339 19.0993 162.401C19.0648 162.849 18.7198 163.21 18.2598 163.197C17.8746 163.179 17.5008 162.924 17.3801 162.551C17.3628 162.507 17.3513 162.457 17.3456 162.407Z" fill="#D8BF66"/>
<path d="M15.5214 188.151C15.6422 188.58 15.4409 189.065 14.9924 189.19C14.5554 189.308 14.1242 189.009 14.0034 188.593C13.8827 188.17 14.0839 187.684 14.5209 187.548C14.9637 187.417 15.3949 187.722 15.5214 188.151Z" fill="#D8BF66"/>
<path d="M17.3284 164.143C17.3111 164.224 17.3054 164.305 17.3169 164.386C17.3571 164.691 17.5756 164.964 17.8574 165.076C18.1794 165.207 18.5301 165.089 18.7314 164.809C18.7946 164.722 18.8406 164.622 18.8636 164.523C18.9671 164.075 18.6911 163.627 18.2254 163.571C17.8516 163.534 17.4261 163.758 17.3284 164.143Z" fill="#D8BF66"/>
<path d="M15.9817 190.136C15.8782 189.75 15.4987 189.476 15.102 189.576C14.711 189.682 14.5097 190.105 14.6075 190.484C14.7052 190.863 15.0847 191.125 15.4757 191.038C15.8725 190.938 16.0795 190.521 15.9817 190.136Z" fill="#D8BF66"/>
<path d="M16.7644 165.636C16.9657 165.338 17.3912 165.269 17.7074 165.419C18.0869 165.605 18.1789 166.078 17.9547 166.42C17.8569 166.569 17.7017 166.687 17.5234 166.731C17.3164 166.781 17.0979 166.731 16.9369 166.588C16.7817 166.451 16.6897 166.258 16.6724 166.053C16.6552 165.904 16.6839 165.761 16.7644 165.636Z" fill="#D8BF66"/>
<path d="M16.3383 191.933C16.4131 192.282 16.2061 192.643 15.8496 192.717C15.4988 192.786 15.1653 192.555 15.0848 192.207C15.0101 191.865 15.2171 191.504 15.5621 191.423C15.9186 191.343 16.2578 191.585 16.3383 191.933Z" fill="#D8BF66"/>
<path d="M15.8152 166.769C15.5622 166.968 15.5277 167.36 15.683 167.633C15.8785 167.963 16.304 168.013 16.5972 167.789C16.8905 167.559 16.948 167.136 16.6835 166.862C16.4592 166.638 16.074 166.57 15.8152 166.769Z" fill="#D8BF66"/>
<path d="M16.5973 193.557C16.5398 193.246 16.235 193.029 15.9245 193.085C15.614 193.147 15.4128 193.452 15.4645 193.757C15.522 194.068 15.821 194.273 16.1315 194.223C16.442 194.173 16.6548 193.875 16.5973 193.557Z" fill="#D8BF66"/>
<path d="M14.6477 167.472C14.9237 167.378 15.2342 167.546 15.3607 167.801C15.5044 168.106 15.3434 168.448 15.0329 168.567C14.7167 168.672 14.3717 168.511 14.2912 168.175C14.2337 167.895 14.3717 167.571 14.6477 167.472Z" fill="#D8BF66"/>
<path d="M16.7757 195.025C16.8102 195.305 16.6032 195.56 16.3272 195.591C16.0569 195.623 15.7867 195.442 15.7464 195.162C15.7119 194.882 15.9132 194.634 16.1892 194.59C16.4652 194.553 16.7354 194.739 16.7757 195.025Z" fill="#D8BF66"/>
<path d="M13.3935 167.758C13.1348 167.758 12.922 167.988 12.8818 168.237C12.8358 168.554 13.0888 168.797 13.3935 168.797C13.5085 168.797 13.6178 168.766 13.7155 168.704C13.865 168.598 13.9455 168.424 13.9168 168.237C13.8938 168.069 13.7845 167.914 13.635 167.827C13.566 167.789 13.4798 167.764 13.3935 167.758Z" fill="#D8BF66"/>
<path d="M16.8736 196.344C16.8506 196.089 16.6091 195.921 16.3618 195.946C16.1203 195.971 15.9191 196.183 15.9421 196.431C15.9651 196.68 16.2066 196.842 16.4423 196.823C16.6953 196.805 16.8966 196.599 16.8736 196.344Z" fill="#D8BF66"/>
<path d="M12.2836 167.571C12.3641 167.609 12.4273 167.671 12.4733 167.739C12.5423 167.864 12.5653 168.013 12.5251 168.15C12.4848 168.299 12.3698 168.411 12.2261 168.448C12.1168 168.473 12.0076 168.461 11.9098 168.417C11.6626 168.305 11.5476 168.013 11.6913 167.776C11.8063 167.596 12.0651 167.478 12.2836 167.571Z" fill="#D8BF66"/>
<path d="M16.914 197.533C16.9197 197.763 16.7242 197.924 16.5057 197.931C16.293 197.937 16.086 197.794 16.0745 197.57C16.0687 197.346 16.2642 197.184 16.4712 197.166C16.6897 197.159 16.9025 197.309 16.914 197.533Z" fill="#D8BF66"/>
<path d="M11.3689 166.999C11.2136 166.85 10.9606 166.862 10.7996 166.986C10.6099 167.142 10.6099 167.422 10.7766 167.596C10.8284 167.652 10.8974 167.689 10.9721 167.708C11.1274 167.752 11.2884 167.696 11.3861 167.571C11.4781 167.453 11.5069 167.297 11.4609 167.154C11.4436 167.098 11.4091 167.042 11.3689 166.999Z" fill="#D8BF66"/>
<path d="M16.8966 198.603C16.8966 198.398 16.7068 198.267 16.5171 198.267C16.3331 198.273 16.1433 198.404 16.1376 198.597C16.1376 198.796 16.3273 198.926 16.5113 198.926C16.7011 198.933 16.8908 198.808 16.8966 198.603Z" fill="#D8BF66"/>
<path d="M10.7305 166.184C10.7305 166.19 10.7305 166.19 10.7305 166.184C10.8167 166.364 10.742 166.582 10.581 166.681C10.3912 166.8 10.1612 166.719 10.0577 166.526L10.0577 166.52C9.96574 166.327 10.0462 166.097 10.2475 166.016C10.4142 165.954 10.6385 166.016 10.7305 166.184Z" fill="#D8BF66"/>
<path d="M16.8277 199.567C16.8162 199.747 16.6322 199.847 16.4712 199.834C16.3102 199.822 16.1434 199.704 16.1492 199.53C16.1607 199.355 16.3389 199.256 16.5057 199.262C16.6667 199.262 16.8392 199.387 16.8277 199.567Z" fill="#D8BF66"/>
<path d="M10.391 165.282C10.3565 165.107 10.184 164.983 10.0115 164.995C9.81025 165.014 9.6895 165.207 9.724 165.4C9.7585 165.593 9.94249 165.723 10.1322 165.673C10.2932 165.624 10.4197 165.456 10.391 165.282Z" fill="#D8BF66"/>
<path d="M25.4905 254.184C25.6803 253.02 26.3879 252.125 27.2852 251.39C29.0855 249.935 31.2713 249.132 33.3535 248.174C35.5508 247.16 37.7711 245.959 39.4334 244.168C42.3037 241.038 41.855 236.472 38.7949 233.71C35.3437 230.624 30.6213 231.601 29.8966 236.391C29.7988 237.05 29.7988 237.722 29.9426 238.376C30.42 240.516 32.5885 241.99 34.7053 241.318C35.9132 240.926 36.73 239.881 37.0003 238.674C37.0981 238.22 36.9831 237.181 36.3158 237.212C35.4818 237.268 35.4473 238.842 34.8951 239.396C34.7053 239.582 34.4752 239.726 34.2221 239.806C32.9854 240.198 31.7717 239.259 31.5014 238.04C31.4036 237.579 31.4094 237.1 31.4784 236.634C32.0133 233.094 35.2287 232.652 37.7423 234.898C40.1582 237.075 40.5436 240.615 38.2715 243.091C36.753 244.727 34.6938 245.81 32.6921 246.737C30.4833 247.751 28.1997 248.616 26.2901 250.159C25.0879 251.142 24.1791 252.386 23.9317 253.935C23.6844 255.459 25.2374 255.739 25.4905 254.184Z" fill="#D8BF66"/>
<path fill-rule="evenodd" clip-rule="evenodd" d="M36.9945 237.491C36.9773 236.216 35.9016 235.189 34.5959 235.208C33.2902 235.22 32.2434 236.272 32.2549 237.547C32.2721 238.823 33.3477 239.85 34.6534 239.831C35.9649 239.812 37.0118 238.767 36.9945 237.491Z" fill="#D8BF66"/>
<path fill-rule="evenodd" clip-rule="evenodd" d="M24.3802 249.574C25.2661 247.278 26.1461 244.628 26.3302 242.32C29.8849 245.063 35.0848 243.639 38.2771 241.461C38.0988 242.108 36.0626 243.713 34.2795 244.715C32.1627 245.903 29.8044 246.625 27.6762 247.639C26.2094 248.336 24.6966 249.045 24.3802 249.574Z" fill="#D8BF66"/>
<path d="M31.1101 240.976C30.2645 240.547 29.7353 240.024 29.3787 239.128C27.0089 233.1 33.3879 227.6 30.6959 221.292C29.6778 218.915 28.5677 217.111 28.6827 214.436C28.7172 213.59 29.9252 212.371 29.4995 211.699C29.2119 211.251 28.5792 211.356 28.2456 211.686C27.5323 212.402 27.1412 213.354 27.1009 214.361C26.9744 217.323 28.119 219.295 29.2407 221.914C31.8463 228.005 25.4674 233.498 27.912 239.707C28.4066 240.945 29.2924 241.959 30.5406 242.45C32.0304 243.041 32.6574 241.76 31.1101 240.976Z" fill="#D8BF66"/>
<path d="M28.7862 211.058C25.2832 211.4 21.0382 217.87 19.6462 217.627C19.3011 217.609 18.8352 219.158 19.5254 219.214C22.4014 219.456 24.9611 213.167 28.9702 212.781C30.1839 212.632 29.8676 210.977 28.7862 211.058Z" fill="#D8BF66"/>
<path d="M20.1524 219.071C24.754 215.058 19.7842 204.109 20.0488 198.814C20.0603 198.497 19.5196 198.367 19.2953 198.335C19.0192 198.304 18.49 198.354 18.467 198.727C18.2427 203.232 22.6832 215.015 18.8697 218.144C18.0816 218.934 19.5714 219.575 20.1524 219.071Z" fill="#D8BF66"/>
<path d="M18.4325 198.472C17.5121 199.959 17.19 201.62 16.6436 203.25C16.402 203.972 16.1432 204.905 15.9016 205.626C15.6025 206.51 14.8374 206.821 14.6074 205.651C14.2622 203.916 14.176 202.242 14.1242 200.587C13.9861 195.965 13.434 192.232 11.484 188.058C9.49382 183.802 6.91692 179.74 3.81658 176.387C3.50022 176.051 2.89051 175.796 2.50512 176.175C2.1485 176.548 2.34407 177.133 2.64892 177.463C5.63997 180.704 8.12484 184.642 10.046 188.754C11.9097 192.748 12.088 196.195 12.203 200.612C12.2778 203.418 12.4791 205.956 13.5893 207.151C14.4751 208.102 16.2467 208.47 17.098 206.858C17.6099 205.894 17.794 204.787 18.1391 203.754C18.6453 202.248 18.9214 200.681 19.7727 199.312C20.693 197.85 19.3355 197.047 18.4325 198.472Z" fill="#D8BF66"/>
<path d="M2.37877 177.662C4.13889 181.457 4.40348 185.756 4.27119 189.874C4.09288 195.169 3.23007 200.407 2.5916 205.658C2.05666 210.156 2.1717 214.809 3.63272 219.139C4.31721 221.124 5.2893 222.996 6.58925 224.645C7.61886 225.933 8.83254 227.059 10.19 227.992C11.6568 228.981 12.5656 227.7 11.0816 226.679C9.8564 225.839 8.75776 224.819 7.83168 223.656C6.64102 222.15 5.75521 220.439 5.13399 218.629C3.74776 214.529 3.65572 210.112 4.16765 205.857C4.81188 200.562 5.68043 195.274 5.85874 189.936C5.99679 185.563 5.68618 181.021 3.81678 176.996C3.12654 175.522 1.69428 176.175 2.37877 177.662Z" fill="#D8BF66"/>
<path d="M20.8368 258.202C21.1819 257.711 21.3947 257.138 21.5212 256.547C21.6766 255.826 21.6823 255.079 21.5903 254.345C21.4005 252.815 20.8195 251.353 20.1178 249.99C19.4678 248.734 18.6855 247.533 17.8054 246.425C17.4718 246.009 17.1267 245.604 16.7471 245.231C16.5803 245.063 16.402 244.908 16.2179 244.764C15.9015 244.54 14.7569 244.596 14.6648 244.82C14.3887 245.486 15.1595 245.897 15.6369 246.363C15.9706 246.693 16.2754 247.048 16.5688 247.415C17.3855 248.441 18.1103 249.555 18.7143 250.718C19.3297 251.913 19.8532 253.2 20.02 254.538C20.089 255.092 20.089 255.658 19.974 256.212C19.8877 256.603 19.7381 256.983 19.5138 257.319C18.6452 258.65 20.158 259.16 20.8368 258.202Z" fill="#D8BF66"/>
<path d="M15.9763 246.121C16.1488 246.146 16.3271 246.164 16.4997 246.17C17.328 246.183 18.1218 245.922 18.789 245.43C19.5195 244.883 20.0372 244.111 20.3823 243.278C20.8137 242.226 20.9805 241.081 21.0093 239.955C21.1013 235.588 20.1235 231.532 17.6674 227.892C15.6887 224.975 13.2958 222.393 11.8406 219.139C7.50929 209.26 6.85931 198.198 7.96945 187.591C8.01547 187.131 8.06723 185.837 7.3885 185.737C6.6925 185.663 6.43941 186.957 6.39339 187.417C5.2545 198.304 5.94474 209.645 10.3911 219.78C11.8923 223.127 14.3197 225.777 16.3559 228.782C18.6279 232.142 19.508 235.874 19.4217 239.912C19.3987 240.845 19.2664 241.797 18.9155 242.668C18.6797 243.234 18.3403 243.782 17.8399 244.155C17.4603 244.435 17.0059 244.59 16.5342 244.584C16.4307 244.584 16.3271 244.572 16.2236 244.553C15.8037 244.485 14.8546 244.279 14.5613 244.708C14.1126 245.405 15.5218 246.046 15.9763 246.121Z" fill="#D8BF66"/>
<path fill-rule="evenodd" clip-rule="evenodd" d="M7.08367 241.579C7.06066 239.899 5.68593 238.556 4.01209 238.581C2.33825 238.599 0.998036 239.974 1.02104 241.654C1.04405 243.334 2.41878 244.677 4.09262 244.652C5.76645 244.628 7.10668 243.253 7.08367 241.579Z" fill="#D8BF66"/>
<path fill-rule="evenodd" clip-rule="evenodd" d="M8.90175 235.04C8.8845 233.671 7.76285 232.576 6.39963 232.595C5.0364 232.613 3.94352 233.733 3.96077 235.096C3.97803 236.465 5.09967 237.56 6.4629 237.542C7.82613 237.529 8.91901 236.409 8.90175 235.04Z" fill="#D8BF66"/>
<path fill-rule="evenodd" clip-rule="evenodd" d="M12.4219 231.046C12.4104 230.001 11.5533 229.167 10.5122 229.18C9.47109 229.192 8.63705 230.045 8.64856 231.09C8.66006 232.135 9.51711 232.969 10.5582 232.957C11.6051 232.944 12.4334 232.086 12.4219 231.046Z" fill="#D8BF66"/>
<path fill-rule="evenodd" clip-rule="evenodd" d="M16.3966 231.818C16.3851 230.934 15.6603 230.225 14.7803 230.237C13.9002 230.25 13.1927 230.971 13.2042 231.855C13.2157 232.739 13.9405 233.442 14.8206 233.436C15.7006 233.423 16.4081 232.701 16.3966 231.818Z" fill="#D8BF66"/>
<path fill-rule="evenodd" clip-rule="evenodd" d="M18.3059 235.134C18.2944 234.4 17.6962 233.815 16.9657 233.821C16.2352 233.827 15.6485 234.431 15.66 235.165C15.6715 235.899 16.2697 236.484 17.0002 236.478C17.7307 236.472 18.3116 235.868 18.3059 235.134Z" fill="#D8BF66"/>
<path fill-rule="evenodd" clip-rule="evenodd" d="M16.8499 238.431C16.8384 237.753 16.2864 237.206 15.608 237.218C14.9295 237.225 14.3832 237.784 14.3947 238.462C14.4062 239.14 14.9582 239.688 15.6367 239.675C16.3152 239.669 16.8557 239.109 16.8499 238.431Z" fill="#D8BF66"/>
<path fill-rule="evenodd" clip-rule="evenodd" d="M14.1639 240.012C14.1581 239.464 13.7096 239.029 13.1634 239.035C12.6171 239.041 12.1801 239.489 12.1916 240.037C12.1974 240.584 12.6459 241.019 13.1921 241.013C13.7326 241.001 14.1696 240.553 14.1639 240.012Z" fill="#D8BF66"/>
<path d="M22.5049 249.474C23.0801 246.096 23.7933 242.718 23.8796 239.283C23.9659 235.196 22.9478 231.295 20.5319 227.967C17.9148 224.377 15.5737 220.713 13.9344 216.563C12.4043 212.638 11.7141 208.401 11.2252 204.233C11.1734 203.779 10.9146 202.615 10.2588 202.671C9.59159 202.746 9.59734 203.959 9.64911 204.42C10.1495 208.725 10.8743 213.092 12.4561 217.148C14.1414 221.428 16.5515 225.211 19.2492 228.906C21.4638 231.955 22.3668 235.513 22.292 239.246C22.2115 242.606 21.504 245.909 20.9403 249.206C20.8655 249.661 20.9231 250.507 21.5155 250.606C22.0965 250.693 22.4301 249.934 22.5049 249.474Z" fill="#D8BF66"/>
<path d="M22.6489 249.038C24.5758 243.893 25.3869 238.22 25.3179 232.739C25.2833 230.07 24.9842 227.407 25.0187 224.738C25.059 222.293 25.3696 219.83 26.3935 217.59C26.566 217.204 26.428 216.713 26.0484 216.501C25.6285 216.277 25.1395 216.507 24.9497 216.918C23.8338 219.363 23.4772 222.044 23.4312 224.713C23.3967 227.401 23.6958 230.076 23.7303 232.764C23.7936 238.045 23.017 243.526 21.1649 248.485C21.0153 248.883 21.2454 249.318 21.6251 249.48C22.0277 249.629 22.4879 249.443 22.6489 249.038Z" fill="#D8BF66"/>
<path d="M24.8 236.87C24.9898 233.697 24.196 230.686 22.7063 227.898C21.1705 225.03 19.1458 222.455 17.5122 219.649C16.5861 218.032 16.1374 216.147 16.2007 214.286C16.2352 213.434 16.379 212.582 16.6666 211.779C16.8507 211.275 17.098 210.79 17.4144 210.361C17.6445 210.043 17.5122 209.583 17.2533 209.322C16.9197 209.005 16.4078 209.054 16.1317 209.415C15.7233 209.969 15.4127 210.585 15.1769 211.232C14.826 212.19 14.6534 213.21 14.6132 214.23C14.5384 216.389 15.0561 218.573 16.1374 220.452C17.7653 223.245 19.7785 225.802 21.3028 228.657C22.6487 231.19 23.3792 233.902 23.2067 236.782C23.1837 237.212 23.477 237.653 23.9199 237.709C24.4088 237.747 24.7712 237.317 24.8 236.87Z" fill="#D8BF66"/>
<path fill-rule="evenodd" clip-rule="evenodd" d="M152.869 300.053C152.086 299.978 151.483 299.86 150.999 299.704C149.63 299.256 148.399 297.857 147.45 296.824C146.3 295.567 145.052 293.887 146.674 293.738C147.634 293.651 148.572 293.452 149.958 292.568C149.107 292.917 148.325 293.172 147.261 293.228C146.323 293.278 145.092 293.147 144.523 293.265C144.08 293.147 142.941 293.278 140.807 292.923C144.131 293.869 148.946 298.846 151.028 301.851C151.362 302.33 151.465 302.603 152.282 303.232C151.275 301.975 150.833 301.154 150.982 300.656C151.143 300.096 152.017 299.947 152.869 300.053Z" fill="#D8BF66"/>
<path fill-rule="evenodd" clip-rule="evenodd" d="M160.277 286.665C159.788 287.71 158.598 287.71 157.499 287.61C153.818 287.274 153.283 286.36 149.659 287.896C148.468 288.4 146.846 289.576 146.03 289.75C142.975 290.397 139.616 289.39 135.659 290.727C134.52 290.852 133.341 290.908 132.443 290.995C130.47 291.187 129.78 291.611 134.019 293.116C137.39 294.391 142.406 297.291 146.438 301.253C150.137 304.887 153.162 308.57 157.102 311.357C162.141 314.928 167.111 315.351 172 315.22C168.474 313.522 165.512 307.823 163.044 305.428C160.571 303.027 155.244 303.767 155.492 301.677C155.71 299.86 159.351 302.012 161.238 302.566C163.861 303.331 166.662 301.876 168.928 300.824C165.684 301.334 162.365 298.286 160.111 296.395C158.857 295.343 156.251 296.27 155.681 296.326C154.6 296.432 152.57 297.751 151.166 296.494C149.003 294.559 153.939 294.584 155.083 293.975C157.252 292.824 159.53 289.906 160.277 286.665ZM157.798 305.061C159.788 305.608 160.559 306.075 161.376 306.965C163.13 308.862 164.672 311.904 166.409 313.491C164.655 313.111 162.515 312.57 160.743 311.543C155.843 308.7 151.091 303.649 147.795 300.127C146.478 298.721 144.845 297.235 143.223 296.065C141.261 294.653 138.782 293.309 136.959 292.301C138.857 291.797 140.433 291.231 143.447 291.691C148.733 291.704 148.808 290.068 152.029 289.047C153.283 288.674 155.325 289.041 157.114 289.352C155.935 291.001 155.037 292.401 153.128 292.973C151.523 293.452 149.4 293.446 148.727 294.522C147.318 296.78 150.907 298.665 152.903 298.833C154.226 298.945 155.808 297.807 157.304 297.72C161.226 297.452 160.484 300.134 164.931 301.241C162.457 302.212 161.445 301.247 159.196 300.258C156.947 299.263 154.238 299.561 153.778 300.998C153.306 302.429 153.916 303.997 157.798 305.061Z" fill="#D8BF66"/>
<path fill-rule="evenodd" clip-rule="evenodd" d="M6.46842 306.859C6.61797 304.688 8.59666 303.051 10.8917 303.213C13.1868 303.375 14.9239 305.26 14.7801 307.437C14.6305 309.609 12.6518 311.245 10.3625 311.083C8.06173 310.921 6.31887 309.03 6.46842 306.859Z" fill="#D8BF66"/>
<path d="M9.37314 300.339C8.48733 300.476 7.63028 300.781 6.86526 301.253C6.12325 301.714 5.48478 302.324 4.9671 303.027C3.87422 304.507 3.33353 306.349 3.32202 308.184C3.31627 314.075 9.91959 319.071 15.4013 315.338C18.3751 313.31 20.1294 307.692 17.0636 304.999C16.4711 304.476 15.7349 304.146 14.9526 304.022C15.384 304.557 15.7349 305.148 15.9419 305.801C16.7472 308.178 15.6026 311.257 13.5836 312.694C9.99436 315.202 5.387 312.11 4.73127 308.078C4.46667 306.473 4.69676 304.781 5.46178 303.338C5.84716 302.616 6.37059 301.969 7.01482 301.459C7.69931 300.905 8.51034 300.532 9.37314 300.339Z" fill="#D8BF66"/>
<path d="M7.94669 307.263C7.99271 306.622 8.16527 306 8.45862 305.434C8.75198 304.881 9.14887 304.389 9.63203 303.985C10.121 303.574 10.6904 303.263 11.2944 303.058C11.9328 302.846 12.6116 302.765 13.2846 302.815C14.3257 302.89 15.3495 303.157 16.2929 303.624C17.1729 304.066 17.961 304.675 18.6109 305.416C19.2494 306.156 19.7441 307.008 20.0547 307.935C20.3768 308.899 20.5033 309.92 20.4401 310.934C20.3653 311.973 20.0604 312.974 19.5773 313.895C19.0768 314.828 18.3981 315.656 17.5986 316.346C16.7875 317.043 15.8557 317.591 14.8491 317.951C13.8368 318.306 12.7611 318.468 11.6855 318.399C10.236 318.294 8.8325 317.889 7.54405 317.211C6.29011 316.545 5.17997 315.637 4.25965 314.561C3.34508 313.478 2.63183 312.24 2.17167 310.903C1.71151 309.559 1.50444 308.134 1.60222 306.716C1.71151 305.179 2.22344 303.692 2.99421 302.367C3.92603 300.774 5.20873 299.424 6.69275 298.336C8.42411 297.067 12.8359 295.909 17.0291 299.991L8.78073 291.032L9.82185 293.004C10.4718 294.242 10.0634 294.659 8.94754 295.175C7.8259 295.692 6.75602 296.314 5.75517 297.048C4.09859 298.267 2.66634 299.779 1.62523 301.558C0.733666 303.095 0.146957 304.818 0.0261646 306.598C-0.0831236 308.228 0.152709 309.864 0.681894 311.413C1.21108 312.937 2.02212 314.349 3.06323 315.581C4.11585 316.813 5.38705 317.852 6.81355 318.611C8.29181 319.388 9.91964 319.861 11.5877 319.98C12.8819 320.067 14.1761 319.874 15.3956 319.444C16.5862 319.015 17.6906 318.368 18.6512 317.547C19.6003 316.726 20.3998 315.743 20.9923 314.642C21.5847 313.528 21.9529 312.302 22.0391 311.04C22.1197 309.814 21.9644 308.588 21.5732 307.425C21.1936 306.305 20.5954 305.266 19.8189 304.37C19.0366 303.475 18.0817 302.734 17.0119 302.199C15.8845 301.639 14.6593 301.316 13.4054 301.229C12.531 301.166 11.6452 301.278 10.8112 301.552C10.0117 301.813 9.2639 302.23 8.61968 302.765C7.9812 303.3 7.44627 303.96 7.06088 304.694C6.66399 305.453 6.42816 306.293 6.37064 307.151C6.88832 307.189 7.41751 307.226 7.94669 307.263Z" fill="#D8BF66"/>
<path fill-rule="evenodd" clip-rule="evenodd" d="M26.7329 292.071C25.1166 291.76 23.6441 291.928 22.3556 291.729C21.096 291.536 17.4837 290.341 15.2347 289.072C16.4426 290.354 17.2479 291.163 19.6752 292.326C21.5906 293.247 19.7557 292.849 17.1961 291.959C12.6923 290.397 9.83351 287.959 8.14242 284.406C7.57872 283.224 7.25086 281.924 7.24511 280.512C7.23935 278.409 5.61153 276.997 5.87613 275.759C6.14072 274.527 6.91149 273.606 7.53846 274.851C8.46453 277.19 9.3791 279.921 10.3109 282.26C12.9626 284.649 15.6143 287.038 18.2717 289.433C21.0902 290.46 23.9202 291.051 26.7329 292.071Z" fill="#D8BF66"/>
<path d="M130.89 14.5654C130.879 15.2062 130.741 15.8407 130.476 16.4193C130.217 16.9917 129.843 17.508 129.383 17.9373C128.917 18.3728 128.365 18.7212 127.772 18.9576C127.146 19.2002 126.473 19.3247 125.8 19.3185C124.753 19.306 123.717 19.0945 122.757 18.6839C121.854 18.2919 121.037 17.732 120.347 17.029C119.668 16.326 119.127 15.4986 118.765 14.5965C118.391 13.6509 118.207 12.643 118.218 11.6227C118.236 10.5838 118.489 9.56351 118.92 8.61788C119.369 7.65981 120.002 6.79506 120.761 6.05473C121.537 5.3144 122.435 4.71093 123.424 4.2941C124.419 3.87728 125.483 3.65953 126.559 3.66575C128.008 3.68441 129.435 4.01415 130.758 4.61139C132.046 5.20241 133.202 6.04229 134.18 7.06879C135.152 8.0953 135.929 9.296 136.47 10.6025C137.004 11.9151 137.286 13.3274 137.269 14.752C137.246 16.2949 136.815 17.8067 136.119 19.1753C135.279 20.8177 134.065 22.2362 132.644 23.412C130.879 24.8616 128.819 25.9192 126.662 26.6471C123.867 27.5803 120.916 27.9846 117.977 28.0344C111.851 28.1277 105.236 27.5181 99.7544 24.563C97.7815 23.4867 95.9639 22.0434 94.7962 20.0961C93.6746 18.1986 93.3409 16.0212 93.6228 13.8499C93.0993 13.7815 92.5702 13.7131 92.0467 13.6446C91.7189 16.1705 92.133 18.7088 93.433 20.9111C94.7502 23.1072 96.7691 24.7496 98.9952 25.9627C104.724 29.0485 111.598 29.7204 118.006 29.6271C121.106 29.5711 124.218 29.148 127.169 28.1588C129.51 27.3687 131.741 26.2178 133.657 24.6438C135.244 23.3312 136.596 21.7385 137.534 19.9033C138.339 18.3168 138.834 16.5624 138.857 14.7769C138.874 13.1407 138.552 11.5232 137.942 10.0114C137.332 8.51834 136.441 7.15586 135.336 5.98627C134.221 4.81667 132.898 3.85241 131.425 3.18051C129.906 2.48995 128.256 2.11045 126.588 2.09179C125.293 2.07935 124.011 2.34062 122.814 2.84454C121.647 3.33602 120.582 4.04526 119.668 4.92246C118.765 5.79343 118.017 6.81994 117.488 7.95843C116.959 9.10936 116.654 10.3474 116.637 11.6165C116.625 12.8421 116.844 14.0615 117.298 15.1999C117.741 16.2949 118.391 17.3028 119.213 18.1489C120.048 19.0012 121.037 19.6855 122.136 20.1583C123.292 20.6498 124.534 20.9048 125.788 20.9235C126.668 20.936 127.542 20.7742 128.359 20.4569C129.141 20.1459 129.866 19.6917 130.476 19.1194C131.086 18.547 131.58 17.8627 131.925 17.1037C132.282 16.3198 132.472 15.4675 132.483 14.609C131.948 14.5778 131.419 14.5716 130.89 14.5654Z" fill="#D8BF66"/>
<path fill-rule="evenodd" clip-rule="evenodd" d="M132.392 14.8828C132.363 17.0603 130.476 18.8022 128.175 18.7773C125.875 18.7524 124.034 16.9607 124.063 14.7833C124.091 12.6058 125.978 10.8639 128.279 10.8888C130.58 10.9199 132.42 12.7054 132.392 14.8828Z" fill="#D8BF66"/>
<path d="M129.849 21.5581C130.729 21.3715 131.569 21.0168 132.305 20.5005C133.019 19.9966 133.622 19.3558 134.106 18.6217C136.746 14.5841 135.457 8.74852 131.172 6.37822C126.927 4.0888 121.808 6.17917 120.376 10.8016C119.484 13.794 120.548 17.8502 124.08 18.2048C122.452 16.4069 122.297 14.0242 123.24 11.8094C124.977 7.75937 129.918 7.28032 132.656 10.6336C134.387 12.7301 134.727 15.8781 133.594 18.3355C133.249 19.0758 132.76 19.7539 132.15 20.3014C131.488 20.8986 130.7 21.3217 129.849 21.5581Z" fill="#D8BF66"/>
<path fill-rule="evenodd" clip-rule="evenodd" d="M127.577 23.5549C127.566 24.594 126.709 25.4278 125.673 25.4154C124.638 25.4029 123.804 24.5505 123.815 23.5113C123.827 22.4722 124.684 21.6384 125.719 21.6508C126.76 21.6633 127.589 22.5157 127.577 23.5549Z" fill="#D8BF66"/>
<path fill-rule="evenodd" clip-rule="evenodd" d="M121.434 24.0337C121.417 25.3093 120.37 26.336 119.093 26.3174C117.816 26.2987 116.798 25.2533 116.815 23.9777C116.832 22.7021 117.879 21.6754 119.156 21.6941C120.427 21.7065 121.451 22.7581 121.434 24.0337Z" fill="#D8BF66"/>
<path fill-rule="evenodd" clip-rule="evenodd" d="M114.825 23.3684C114.808 24.8553 113.588 26.0436 112.104 26.0249C110.62 26.0063 109.435 24.7869 109.452 23.3062C109.47 21.8194 110.689 20.6311 112.173 20.6498C113.657 20.6622 114.842 21.8816 114.825 23.3684Z" fill="#D8BF66"/>
<path fill-rule="evenodd" clip-rule="evenodd" d="M108.107 21.4835C108.084 23.2316 106.646 24.6376 104.897 24.619C103.148 24.6003 101.751 23.1632 101.774 21.415C101.797 19.6669 103.235 18.2608 104.983 18.2795C106.732 18.2982 108.13 19.7291 108.107 21.4835Z" fill="#D8BF66"/>
<path fill-rule="evenodd" clip-rule="evenodd" d="M102.107 16.6746C102.084 18.5783 100.52 20.1025 98.6158 20.0838C96.7118 20.0589 95.1933 18.4974 95.2163 16.5937C95.2393 14.69 96.8039 13.1658 98.7078 13.1844C100.612 13.2093 102.136 14.7709 102.107 16.6746Z" fill="#D8BF66"/>
<path fill-rule="evenodd" clip-rule="evenodd" d="M93.5425 13.3836C85.9614 15.2749 82.3319 11.3742 71.2592 8.89811C64.1612 7.31169 55.585 6.28517 45.8238 7.56675C34.2738 9.76908 23.9029 13.9746 15.3784 21.521C9.71841 25.9568 7.21054 30.1437 6.46853 34.3368C5.89333 37.5968 8.09635 37.5159 6.64684 44.5334C14.4006 14.1924 47.9751 2.47154 75.2972 13.8253C81.354 16.3449 87.2268 20.0217 94.089 19.7106C93.5541 17.7758 93.4448 15.3122 93.5425 13.3836Z" fill="#D8BF66"/>
<path d="M137.752 25.2289C128.204 30.0939 117.499 30.7969 107.083 28.9368C96.5679 27.0268 86.6111 22.8773 76.988 18.3544C63.1199 11.8843 47.2328 9.17806 32.1108 12.1829C32.2143 12.6993 21.5961 19.692 21.6996 20.2084C21.8492 16.9795 39.9968 10.6401 53.0884 13.0601C61.0434 14.5284 69.0099 16.376 76.315 19.7977C86.0704 24.3704 96.1537 28.5697 106.806 30.5045C117.568 32.4269 128.624 31.6741 138.483 26.6473C138.235 26.1683 137.994 25.6955 137.752 25.2289Z" fill="#D8BF66"/>
<path d="M73.4392 48.434C72.7317 48.3655 71.9954 48.2473 71.2994 48.434C70.8968 48.546 70.5402 48.7699 70.2871 49.1059C70.0168 49.4729 69.896 49.9208 69.8499 50.3625C69.7924 50.9349 69.7694 51.5073 69.8269 52.0796C69.8845 52.596 70.0168 53.1061 70.2813 53.5603C70.5459 54.0144 70.9371 54.3815 71.403 54.6303C71.9149 54.8979 72.4844 55.0285 73.0596 55.0845C73.7096 55.1467 74.3653 55.072 74.9865 54.873C75.5847 54.6739 76.1426 54.3566 76.6201 53.946C77.1032 53.5292 77.5059 53.0252 77.805 52.4591C78.1156 51.8681 78.3054 51.2211 78.3744 50.5616C78.4665 49.6533 78.3572 48.7326 78.1041 47.8554C77.8337 46.9471 77.4081 46.0948 76.8329 45.342C76.2404 44.5706 75.4984 43.9236 74.6356 43.4694C73.7038 42.9841 72.6684 42.7602 71.6216 42.7913C70.5114 42.8286 69.4243 43.0961 68.4177 43.5627C67.4053 44.0355 66.485 44.6763 65.6395 45.4042C63.7586 47.0342 62.2113 49.0188 60.6582 50.9536C57.1322 55.3831 53.4164 59.8251 48.1016 62.1394C44.2937 63.7756 40.1465 64.883 35.9878 64.9825C34.3945 65.0136 32.7725 64.9016 31.2367 64.4413C30.1495 64.1115 29.0624 63.5827 28.3377 62.6744C27.9235 63.0041 27.5094 63.3339 27.0952 63.6636C28.0213 64.8208 29.373 65.53 30.7765 65.9592C32.4676 66.4694 34.2622 66.6063 36.0223 66.5689C40.3881 66.4694 44.7309 65.3184 48.7285 63.6014C54.2965 61.1751 58.2021 56.59 61.8949 51.9428C63.3789 50.0826 64.863 48.1727 66.6691 46.6049C67.3996 45.9766 68.1934 45.4104 69.0734 45.0061C69.8902 44.6328 70.7645 44.4088 71.6618 44.3839C72.4383 44.3653 73.2034 44.527 73.8994 44.8878C74.5551 45.23 75.1188 45.7339 75.5675 46.3187C76.0219 46.916 76.3612 47.5941 76.5741 48.3158C76.7696 48.9939 76.8617 49.7093 76.7926 50.4123C76.7466 50.8727 76.6143 51.3206 76.3957 51.7312C76.1944 52.1169 75.9183 52.4653 75.5847 52.7515C75.2626 53.0252 74.8887 53.243 74.4861 53.3736C74.0777 53.5105 73.6463 53.5541 73.2149 53.5167C72.8525 53.4794 72.4786 53.411 72.1508 53.2368C71.9437 53.1248 71.7711 52.9692 71.6561 52.7702C71.5065 52.5089 71.4433 52.2165 71.4087 51.9179C71.3627 51.4575 71.3857 50.9909 71.4318 50.5367C71.449 50.3812 71.4663 50.1946 71.564 50.0701C71.6043 50.0204 71.6561 50.0017 71.7136 49.9831C72.2083 49.8524 72.795 49.983 73.2896 50.0328C73.3357 49.4916 73.3874 48.9628 73.4392 48.434Z" fill="#D8BF66"/>
<path fill-rule="evenodd" clip-rule="evenodd" d="M75.6018 50.5741C75.1474 52.1481 73.5484 53.1435 72.0298 52.8013C70.5113 52.4592 69.6427 50.9038 70.0972 49.3299C70.5516 47.7559 72.1506 46.7605 73.6692 47.1026C75.1877 47.4448 76.0562 49.0001 75.6018 50.5741Z" fill="#D8BF66"/>
<path fill-rule="evenodd" clip-rule="evenodd" d="M68.9066 36.0909C65.4784 39.4691 61.5556 44.2657 59.0189 47.451C54.193 53.5105 50.9718 58.4253 46.0999 61.6354C37.4489 67.3465 28.7748 68.2237 20.6357 60.864C19.4105 59.7566 17.6677 58.2511 16.9717 56.6647C23.4772 62.0087 44.1615 72.0436 53.0426 39.9295C58.0986 42.0198 63.7701 40.4583 68.9066 36.0909Z" fill="#D8BF66"/>
<path d="M29.2866 33.9508C27.9579 34.0006 26.8995 34.0566 25.427 34.7098C24.3916 35.1702 23.5115 35.9167 22.8328 36.8312C22.1943 37.696 21.7687 38.6976 21.5501 39.749C21.3373 40.8191 21.3315 41.9265 21.4983 43.0027C21.8665 45.2984 22.9766 47.4323 24.6102 49.0747C26.4623 50.91 28.9012 51.9862 31.4953 52.1667C33.1002 52.2724 34.7222 52.0796 36.2465 51.557C37.6673 51.0655 38.9902 50.294 40.1004 49.2738C41.1932 48.2659 42.0618 47.0403 42.6427 45.6717C43.2467 44.2408 43.5171 42.6917 43.471 41.1364C43.402 39.1207 42.9188 37.1423 41.9928 35.3506C41.107 33.6397 39.8473 32.1529 38.3402 30.9584C36.7814 29.7328 34.9983 28.8307 33.1059 28.2459C31.0754 27.63 28.9587 27.3749 26.842 27.4434C24.4836 27.5305 22.1886 28.1713 20.0258 29.0982C17.7308 30.0999 15.591 31.4374 13.6468 33.0238C11.7487 34.5854 10.0403 36.3771 8.66559 38.4177C7.42315 40.2778 6.45681 42.3495 6.11169 44.5705C6.63513 44.6514 7.15856 44.726 7.682 44.8069C7.98685 42.8161 8.87266 40.9622 9.9828 39.3011C11.2713 37.3912 12.8761 35.7114 14.6534 34.2494C16.4826 32.7625 18.4958 31.4996 20.6585 30.554C22.6315 29.7017 24.7367 29.1045 26.8937 29.0298C28.8379 28.9676 30.7763 29.1978 32.64 29.7639C34.3426 30.2927 35.9532 31.1015 37.3566 32.2026C38.6854 33.2602 39.7955 34.5729 40.5835 36.0785C41.4003 37.6587 41.826 39.4131 41.8835 41.1861C41.9237 42.505 41.6937 43.8239 41.1817 45.0433C40.6928 46.2005 39.9508 47.2394 39.0305 48.0917C38.0814 48.9627 36.954 49.6222 35.7403 50.039C34.4116 50.4931 33.0081 50.6549 31.6104 50.5616C29.3959 50.406 27.3194 49.4915 25.7376 47.93C24.3398 46.524 23.385 44.6949 23.0686 42.7352C22.9306 41.8456 22.9306 40.9311 23.1089 40.0476C23.2757 39.2264 23.6036 38.4426 24.104 37.7644C24.6274 37.0614 25.3234 36.514 26.1115 36.1282C27.1181 35.6492 28.2282 35.4439 29.3383 35.4066C29.3153 34.8964 29.3038 34.4796 29.2866 33.9508Z" fill="#D8BF66"/>
<path fill-rule="evenodd" clip-rule="evenodd" d="M32.7089 37.6527C32.6802 39.7057 30.8453 41.3481 28.6078 41.3232C26.3702 41.2983 24.5756 39.6124 24.6043 37.5594C24.6331 35.5063 26.468 33.8639 28.7055 33.8888C30.9431 33.9137 32.7377 35.5997 32.7089 37.6527Z" fill="#D8BF66"/>
<path fill-rule="evenodd" clip-rule="evenodd" d="M24.1963 30.6225C27.8776 29.0548 33.4513 30.3301 36.0455 31.8792C39.6002 34.0006 41.1187 37.7334 40.9577 41.3417C40.8657 43.4756 39.698 48.098 35.6141 48.8695C31.881 49.5725 25.0419 47.2582 23.8052 41.7026C25.5768 42.5984 26.9343 42.9282 28.2342 42.8286C29.3789 42.7415 30.4775 42.3247 31.7717 41.6652C33.7044 44.2471 36.8738 43.0837 38.0299 41.4786C39.5369 39.382 39.1285 35.6617 35.6946 32.7502C34.2336 31.5121 29.8563 29.8697 24.1963 30.6225Z" fill="#D8BF66"/>
<path fill-rule="evenodd" clip-rule="evenodd" d="M19.1 36.8874C15.4475 41.2361 16.2355 55.7876 29.051 56.8888C47.8313 58.5001 49.6087 36.0974 43.3793 31.4936C45.4903 31.5061 46.819 33.4658 47.446 36.1471C48.3663 40.0727 47.7911 45.5474 45.9907 48.7576C42.9536 54.1639 37.449 58.1704 29.862 58.4503C23.0401 58.7054 18.7319 56.6586 15.9019 53.4298C14.2626 51.5572 13.1237 49.2802 12.2839 46.8166C7.90659 49.2304 18.0992 59.6013 17.7713 65.2688C17.4434 70.9364 12.0193 73.9724 9.05125 81.0833C10.9322 75.9321 7.67076 72.2677 3.66736 73.3813C6.16948 70.252 10.9034 67.9564 11.7432 63.2158C12.583 58.4752 7.52121 53.3551 9.21805 47.6876C10.9322 42.0138 14.9241 35.6619 19.1 36.8874Z" fill="#D8BF66"/>
<path d="M119.455 35.5434C112.881 36.5886 106.053 35.9105 99.7835 33.6957C88.2737 29.5897 77.6152 23.4555 66.1169 19.3059C50.9834 13.9121 35.4357 14.7271 21.7861 23.3746C17.5354 26.0995 13.5722 29.403 10.4374 33.3784C10.144 33.7517 8.85559 35.5434 8.19986 35.1452C7.49236 34.66 8.90161 32.7625 9.18921 32.3954C12.4391 28.2707 16.5288 24.8553 20.9348 22.0308C34.9985 13.1158 51.0581 12.2386 66.6576 17.8004C78.1559 21.95 88.8144 28.0841 100.324 32.1839C106.341 34.3054 112.898 34.9586 119.214 33.957C119.685 33.8823 122.257 33.3411 122.475 34.0876C122.653 34.971 119.921 35.4688 119.455 35.5434Z" fill="#D8BF66"/>
<path d="M86.6457 30.9712C79.4269 26.9025 71.8745 23.2568 63.7929 21.2536C51.6907 18.342 39.2491 20.4199 27.5437 24.0842C27.1123 24.2211 25.7721 24.5508 25.5535 23.8914C25.3349 23.2195 26.6349 22.7031 27.0663 22.5662C39.0535 18.8086 51.7827 16.7307 64.1725 19.7107C72.3922 21.745 80.0769 25.4467 87.4222 29.5838C87.8248 29.814 89.0443 30.6041 88.6934 31.2262C88.331 31.8359 87.0426 31.2013 86.6457 30.9712Z" fill="#D8BF66"/>
<path d="M88.6186 36.5764C83.7697 30.5666 77.4022 26.0251 70.1891 23.2877C69.8153 23.1447 69.775 22.6594 69.89 22.3297C70.0108 21.9937 70.3675 21.6578 70.7528 21.8009C78.2305 24.6378 84.8338 29.3473 89.861 35.581C90.7296 36.7568 89.2973 37.4038 88.6186 36.5764Z" fill="#D8BF66"/>
<path d="M75.1934 36.1594C74.158 33.5775 73.1226 30.9708 71.7537 28.5446C70.6263 26.5538 69.2285 24.7371 67.3476 23.4058C63.7814 20.9235 59.1855 20.3325 54.9635 19.9654C54.5149 19.9219 53.9627 19.6108 53.9914 19.0882C54.0375 18.5656 54.6472 18.3417 55.0958 18.379C59.6112 18.771 64.4428 19.4491 68.2564 22.0993C70.3329 23.5613 71.886 25.5583 73.1341 27.7544C74.5376 30.2429 75.6075 32.9119 76.6659 35.5621C77.2583 37.0801 75.7686 37.5716 75.1934 36.1594Z" fill="#D8BF66"/>
<path d="M50.5576 25.1041C49.4935 23.6546 48.067 22.5659 46.3816 21.9437C44.4259 21.2407 42.315 21.1536 40.2557 21.3092C35.7174 21.6824 31.3516 23.1445 26.9801 24.3265C26.5832 24.4323 26.2438 24.0838 26.1518 23.7292C26.0598 23.3746 26.1748 22.908 26.5659 22.796C31.0352 21.5829 35.4931 20.1022 40.1292 19.7227C42.4185 19.5485 44.7481 19.6668 46.9223 20.4444C48.901 21.1723 50.5863 22.4601 51.8345 24.1585C52.0934 24.5131 52.1797 25.1415 51.8115 25.3717C51.4894 25.5832 50.7992 25.4277 50.5576 25.1041Z" fill="#D8BF66"/>
<path d="M36.2468 25.8258C35.0907 24.9235 33.6296 24.4195 32.2089 24.1395C30.5581 23.8222 28.8267 23.7973 27.1989 24.2578C26.9746 24.3138 26.7732 23.7039 26.733 23.567C26.6812 23.4115 26.5029 22.8079 26.7617 22.727C28.6311 22.1981 30.6213 22.2106 32.5137 22.5777C34.1876 22.9075 35.8729 23.5173 37.2304 24.5751C38.7144 25.8071 37.3339 26.6285 36.2468 25.8258Z" fill="#D8BF66"/>
<path d="M15.2573 28.607C19.6634 26.3238 22.4761 24.9738 27.8312 24.9614C32.3351 24.9489 36.6663 26.2554 40.3879 28.8061C40.7445 29.055 40.8078 29.5527 40.5547 29.9011C40.3074 30.2308 39.8357 30.349 39.4848 30.1126C36.0336 27.7485 32.0129 26.5416 27.837 26.5478C22.2863 26.5603 18.2541 28.4764 13.3764 31.0022C12.9795 31.2075 12.761 31.7363 12.5309 31.3133C12.0419 30.4174 14.5728 28.9617 15.2573 28.607Z" fill="#D8BF66"/>
<path d="M39.0708 29.2288C38.6566 27.574 38.996 26.0747 40.2212 24.8242C41.2565 23.7603 42.8844 23.443 44.2936 23.7603C45.5475 24.0465 46.6232 24.818 47.5147 25.72C48.4581 26.6781 49.2231 27.7979 49.8443 28.9862C51.0465 31.2881 52.3062 33.9134 54.3309 35.6181C56.3843 37.3476 60.0484 37.696 62.0443 35.7114C63.7124 34.0441 63.5859 32.7314 62.5275 30.9148C62.2802 30.4855 61.9178 30.0998 61.4461 29.9256C60.1462 29.4341 60.6639 27.9472 62.0041 28.4325C63.1487 28.8493 63.9252 29.9194 64.3509 31.1263C65.392 34.0876 64.1956 36.7877 61.3598 38.1003C58.875 39.2513 55.3777 38.5607 53.307 36.8312C51.1155 34.9835 49.7408 32.2088 48.4293 29.7141C47.8771 28.6689 47.2041 27.6735 46.3758 26.8274C45.7029 26.1493 44.8861 25.521 43.937 25.3032C43.0627 25.1104 41.9986 25.2597 41.3486 25.9254C40.503 26.7901 40.3247 27.6984 40.6066 28.8369C40.7734 29.403 40.6986 29.994 40.2269 30.1931C39.669 30.442 39.1801 29.6768 39.0708 29.2288Z" fill="#D8BF66"/>
<path d="M62.5736 29.03C62.6772 29.1482 62.7692 29.2664 62.8612 29.3971C63.2006 29.8699 63.4479 30.4174 63.5055 31.0022C63.563 31.5683 63.4479 32.1406 63.1891 32.6508C62.9418 33.1298 62.5794 33.5404 62.1537 33.8639C61.7281 34.1874 61.2392 34.4239 60.7215 34.5607C60.1923 34.6976 59.6401 34.7349 59.0994 34.6416C58.2194 34.4861 57.3738 34.1563 56.6203 33.6711C52.8642 31.2448 52.8872 26.2554 56.3097 23.3562C60.3419 19.9968 66.6403 21.8569 68.9584 26.4358C71.403 31.3381 69.7522 35.0522 74.7622 38.0695C76.3612 39.0276 78.0581 39.799 79.7492 40.5767C80.1748 40.7758 80.9858 41.3046 80.7328 41.8396C80.4797 42.3684 79.5133 42.2191 79.0877 42.02C77.3448 41.2237 75.5905 40.4212 73.9454 39.432C68.4177 36.0974 70.1605 32.4082 67.5376 27.1512C65.697 23.5055 60.5777 21.8693 57.3335 24.5756C54.7394 26.7717 54.6013 30.4734 57.4831 32.3335C58.0583 32.7006 58.7083 32.9556 59.3813 33.0738C59.6919 33.1298 60.014 33.1049 60.3188 33.0241C60.6352 32.937 60.9401 32.7939 61.1989 32.5948C61.4347 32.4144 61.6418 32.1904 61.7741 31.9229C61.8949 31.6865 61.9467 31.4252 61.9237 31.1639C61.8892 30.8591 61.7396 30.5729 61.567 30.324C61.5038 30.2369 61.4405 30.1561 61.3715 30.0814C61.0954 29.7579 60.6064 29.0487 60.9056 28.6132C61.3197 28.0595 62.2688 28.6816 62.5736 29.03Z" fill="#D8BF66"/>
<path d="M79.7147 40.5645C79.5939 38.0449 78.8232 35.7554 77.575 33.5842C76.9077 32.4208 75.9586 31.1144 76.183 29.6897C76.4821 27.8482 78.3802 27.8171 79.6514 28.8747C80.2439 29.3724 80.6926 30.007 81.101 30.6602C82.0213 32.1409 82.7863 33.7149 83.8907 35.0835C84.9088 36.3278 86.111 37.4352 87.5605 38.1631C88.6246 38.6919 89.7692 38.9843 90.9369 39.1709C92.024 39.3451 93.3413 39.3202 94.3996 39.6375C95.1819 39.8677 95.9066 40.241 96.5279 40.7698C96.8787 41.0746 97.1663 41.7714 96.7062 42.1198C96.3553 42.3873 95.7974 42.238 95.4867 41.9767C95.0381 41.591 94.5031 41.3297 93.9395 41.1617C92.9501 40.8693 91.7019 40.9004 90.6838 40.7449C89.3551 40.5334 88.0494 40.1974 86.8415 39.5878C85.1964 38.7603 83.8159 37.5098 82.654 36.0914C81.5036 34.6729 80.7041 33.0492 79.7435 31.5063C79.4271 30.9962 79.082 30.4861 78.6218 30.1003C77.9201 29.5155 77.5232 29.64 77.8108 30.6043C78.0466 31.3881 78.5413 32.0911 78.9439 32.7941C80.3187 35.1893 81.1642 37.7214 81.2965 40.496C81.3138 40.9564 81.0894 42.1696 80.1921 42.1509C79.6342 42.1385 79.7377 41.0124 79.7147 40.5645Z" fill="#D8BF66"/>
<path d="M95.55 41.255C95.4407 40.5208 95.2739 39.8365 94.8885 39.2019C94.4341 38.4616 93.8359 37.7462 93.1111 37.2609C92.2771 36.7072 91.4488 36.0727 90.7815 35.3074C89.102 33.3913 90.2351 31.3569 92.835 32.2901C93.6633 32.5887 94.4513 32.9931 95.2394 33.3851C96.8672 34.1938 98.5295 35.1457 100.324 35.5438C106.904 37.0183 114.578 36.0042 120.905 33.7832C121.336 33.6339 122.17 33.5406 122.383 34.0881C122.596 34.648 121.871 34.9839 121.434 35.1394C114.825 37.46 106.847 38.642 99.9733 37.0992C98.0579 36.6699 96.2862 35.6807 94.5376 34.816C93.7956 34.4489 93.0248 34.1441 92.2828 33.7832C91.7997 33.5468 91.3855 33.7646 91.7651 34.1129C92.5014 34.7973 93.1629 35.3759 93.9969 35.9296C94.9172 36.5392 95.6305 37.4538 96.246 38.3621C96.5911 38.8722 97.8968 42.1695 96.246 42.3623C95.78 42.4246 95.6075 41.6718 95.55 41.255Z" fill="#D8BF66"/>
<path d="M8.98202 153.498C8.79796 154.431 7.86038 155.06 6.92855 154.998C5.83567 154.911 5.18569 153.859 5.36976 152.814C5.40427 152.627 5.46754 152.447 5.55382 152.279C5.94496 151.538 6.779 151.158 7.59004 151.37C8.3378 151.575 8.92451 152.241 8.99928 153.025C9.02229 153.187 9.01078 153.343 8.98202 153.498Z" fill="#D8BF66"/>
<path d="M9.747 149.971C9.4594 150.811 8.53332 151.246 7.69353 151.022C6.80197 150.761 6.32455 149.809 6.61215 148.925C6.69268 148.683 6.83073 148.459 7.01479 148.278C7.4692 147.837 8.13068 147.7 8.72314 147.911C9.30409 148.123 9.72974 148.652 9.81027 149.261C9.84478 149.498 9.82177 149.741 9.747 149.971Z" fill="#D8BF66"/>
<path d="M8.59103 156.839C8.499 156.024 7.69372 155.414 6.90569 155.371C5.90484 155.333 5.20885 156.217 5.30088 157.181C5.3584 157.729 5.66326 158.245 6.16369 158.488C6.50306 158.668 6.89419 158.693 7.26232 158.575C7.61319 158.463 7.91805 158.239 8.15963 157.965C8.44148 157.66 8.6313 157.262 8.59103 156.839Z" fill="#D8BF66"/>
<path d="M10.7596 146.705C11.0415 145.946 10.6503 145.099 9.90256 144.801C9.14329 144.508 8.28049 144.882 7.97563 145.641C7.68803 146.412 8.07917 147.265 8.84419 147.557C9.60345 147.825 10.4605 147.464 10.7596 146.705Z" fill="#D8BF66"/>
<path d="M9.28116 159.315C9.33868 159.396 9.38469 159.483 9.4192 159.576C9.58026 160.099 9.40195 160.771 9.08559 161.2C8.64843 161.785 7.87766 161.885 7.28521 161.48C7.14141 161.374 7.00911 161.25 6.90557 161.107C6.36488 160.373 6.48568 159.29 7.3945 158.929C7.9697 158.705 8.87276 158.78 9.28116 159.315Z" fill="#D8BF66"/>
<path d="M11.7717 143.718C11.4956 144.397 10.7133 144.714 10.0404 144.453C9.36161 144.179 9.02225 143.407 9.28684 142.723C9.56294 142.045 10.3452 141.721 11.0239 141.989C11.6969 142.269 12.0421 143.04 11.7717 143.718Z" fill="#D8BF66"/>
<path d="M11.0643 160.727C10.4315 160.516 9.72403 160.858 9.37316 161.399C8.89574 162.164 9.41918 162.992 10.1957 163.266C10.2417 163.285 10.2935 163.297 10.3395 163.309C11.0412 163.471 11.7487 163.029 11.881 162.314C11.9788 161.741 11.7085 161.02 11.1563 160.764C11.1275 160.752 11.0988 160.74 11.0643 160.727Z" fill="#D8BF66"/>
<path d="M12.7257 140.988C12.9672 140.372 12.6567 139.675 12.0472 139.433C11.4377 139.196 10.7362 139.489 10.4889 140.098C10.2474 140.714 10.5579 141.404 11.1617 141.653C11.7769 141.883 12.4784 141.597 12.7257 140.988Z" fill="#D8BF66"/>
<path d="M13.4163 161.232C13.974 161.201 14.4858 161.711 14.6525 162.209C14.8883 162.949 14.3075 163.583 13.5773 163.639C13.2438 163.664 12.8988 163.565 12.64 163.353C12.3525 163.104 12.2088 162.75 12.2605 162.37C12.3123 162.016 12.5193 161.699 12.8183 161.493C12.9908 161.356 13.192 161.251 13.4163 161.232Z" fill="#D8BF66"/>
<path d="M13.583 138.468C13.3645 139.022 12.7378 139.295 12.18 139.084C11.6338 138.866 11.3463 138.25 11.5533 137.691C11.7718 137.137 12.3928 136.869 12.9448 137.068C13.5025 137.286 13.79 137.908 13.583 138.468Z" fill="#D8BF66"/>
<path d="M15.3206 160.672C14.8951 160.977 14.8204 161.624 15.0044 162.078C15.2746 162.712 16.0279 162.818 16.5626 162.451C16.7754 162.302 16.9421 162.09 17.0169 161.842C17.1204 161.487 17.0169 161.114 16.7524 160.859C16.5109 160.629 16.1716 160.51 15.8381 160.51C15.6541 160.523 15.4701 160.566 15.3206 160.672Z" fill="#D8BF66"/>
<path d="M14.3308 136.141C14.509 135.631 14.2388 135.078 13.7328 134.897C13.2325 134.729 12.6748 134.984 12.4908 135.488C12.3183 135.992 12.5885 136.54 13.0773 136.726C13.5833 136.907 14.1468 136.645 14.3308 136.141Z" fill="#D8BF66"/>
<path d="M16.6898 159.303C16.7243 159.247 16.7645 159.191 16.8105 159.142C17.0923 158.856 17.5638 158.781 17.9375 158.905C18.386 159.067 18.616 159.527 18.501 159.988C18.478 160.081 18.4435 160.168 18.3975 160.249C18.11 160.753 17.4718 160.958 17.0003 160.579C16.6381 160.286 16.4598 159.733 16.6898 159.303Z" fill="#D8BF66"/>
<path d="M14.9579 133.983C14.8084 134.443 14.3081 134.698 13.8481 134.543C13.3996 134.387 13.1466 133.896 13.2846 133.442C13.3364 133.28 13.4399 133.131 13.5721 133.025C13.7964 132.832 14.1069 132.751 14.3944 132.838C14.6819 132.932 14.8889 133.174 14.9636 133.46C15.0154 133.635 15.0154 133.815 14.9579 133.983Z" fill="#D8BF66"/>
<path d="M17.3456 157.593C17.2996 158.034 17.6331 158.445 18.0471 158.563C18.5703 158.706 19.0246 158.314 19.0936 157.798C19.0993 157.729 19.1051 157.661 19.0993 157.599C19.0648 157.151 18.7198 156.79 18.2598 156.803C17.8746 156.821 17.5008 157.076 17.3801 157.45C17.3628 157.493 17.3513 157.543 17.3456 157.593Z" fill="#D8BF66"/>
<path d="M15.5214 131.849C15.6422 131.42 15.4409 130.935 14.9924 130.81C14.5554 130.692 14.1242 130.991 14.0034 131.407C13.8827 131.83 14.0839 132.315 14.5209 132.452C14.9637 132.583 15.3949 132.272 15.5214 131.849Z" fill="#D8BF66"/>
<path d="M17.3284 155.857C17.3111 155.776 17.3054 155.695 17.3169 155.614C17.3571 155.309 17.5756 155.035 17.8574 154.924C18.1794 154.793 18.5301 154.911 18.7314 155.191C18.7946 155.278 18.8406 155.378 18.8636 155.477C18.9671 155.925 18.6911 156.373 18.2254 156.429C17.8516 156.466 17.4261 156.242 17.3284 155.857Z" fill="#D8BF66"/>
<path d="M15.9817 129.864C15.8782 130.25 15.4987 130.524 15.102 130.424C14.711 130.318 14.5097 129.895 14.6075 129.516C14.7052 129.136 15.0847 128.875 15.4757 128.962C15.8725 129.056 16.0795 129.479 15.9817 129.864Z" fill="#D8BF66"/>
<path d="M16.7644 154.363C16.9657 154.662 17.3912 154.73 17.7074 154.581C18.0869 154.394 18.1789 153.922 17.9547 153.579C17.8569 153.43 17.7017 153.312 17.5234 153.268C17.3164 153.219 17.0979 153.268 16.9369 153.412C16.7817 153.548 16.6897 153.741 16.6724 153.946C16.6552 154.09 16.6839 154.239 16.7644 154.363Z" fill="#D8BF66"/>
<path d="M16.3383 128.066C16.4131 127.718 16.2061 127.357 15.8496 127.282C15.4988 127.214 15.1653 127.444 15.0848 127.792C15.0101 128.135 15.2171 128.495 15.5621 128.576C15.9186 128.657 16.2578 128.414 16.3383 128.066Z" fill="#D8BF66"/>
<path d="M15.8152 153.231C15.5622 153.032 15.5277 152.64 15.683 152.366C15.8785 152.037 16.304 151.987 16.5972 152.211C16.8905 152.441 16.948 152.864 16.6835 153.138C16.4592 153.362 16.074 153.43 15.8152 153.231Z" fill="#D8BF66"/>
<path d="M16.5973 126.443C16.5398 126.754 16.235 126.972 15.9245 126.916C15.614 126.853 15.4128 126.549 15.4645 126.244C15.522 125.933 15.821 125.727 16.1315 125.777C16.442 125.827 16.6548 126.126 16.5973 126.443Z" fill="#D8BF66"/>
<path d="M14.6477 152.522C14.9237 152.615 15.2342 152.447 15.3607 152.192C15.5044 151.887 15.3434 151.539 15.0329 151.433C14.7167 151.327 14.3717 151.489 14.2912 151.825C14.2337 152.105 14.3717 152.422 14.6477 152.522Z" fill="#D8BF66"/>
<path d="M16.7757 124.974C16.8102 124.688 16.6032 124.439 16.3272 124.408C16.0569 124.377 15.7867 124.558 15.7464 124.837C15.7119 125.117 15.9132 125.366 16.1892 125.41C16.4652 125.447 16.7354 125.254 16.7757 124.974Z" fill="#D8BF66"/>
<path d="M13.3935 152.235C13.1348 152.235 12.922 152.005 12.8818 151.756C12.8358 151.439 13.0888 151.197 13.3935 151.197C13.5085 151.197 13.6178 151.228 13.7155 151.29C13.865 151.396 13.9455 151.57 13.9168 151.756C13.8938 151.924 13.7845 152.08 13.635 152.167C13.566 152.21 13.4798 152.235 13.3935 152.235Z" fill="#D8BF66"/>
<path d="M16.8736 123.655C16.8506 123.91 16.6091 124.078 16.3618 124.053C16.1203 124.028 15.9191 123.817 15.9421 123.568C15.9651 123.319 16.2066 123.158 16.4423 123.176C16.6953 123.195 16.8966 123.4 16.8736 123.655Z" fill="#D8BF66"/>
<path d="M12.2836 152.422C12.3641 152.385 12.4273 152.323 12.4733 152.254C12.5423 152.13 12.5653 151.981 12.5251 151.844C12.4848 151.695 12.3698 151.583 12.2261 151.545C12.1168 151.52 12.0076 151.533 11.9098 151.576C11.6626 151.688 11.5476 151.981 11.6913 152.223C11.8063 152.404 12.0651 152.516 12.2836 152.422Z" fill="#D8BF66"/>
<path d="M16.914 122.467C16.9197 122.237 16.7242 122.075 16.5057 122.069C16.293 122.063 16.086 122.206 16.0745 122.43C16.0687 122.654 16.2642 122.815 16.4712 122.834C16.6897 122.84 16.9025 122.691 16.914 122.467Z" fill="#D8BF66"/>
<path d="M11.3689 153.001C11.2136 153.15 10.9606 153.138 10.7996 153.013C10.6099 152.858 10.6099 152.578 10.7766 152.41C10.8284 152.354 10.8974 152.317 10.9721 152.298C11.1274 152.255 11.2884 152.304 11.3861 152.435C11.4781 152.553 11.5069 152.709 11.4609 152.852C11.4436 152.901 11.4091 152.957 11.3689 153.001Z" fill="#D8BF66"/>
<path d="M16.8966 121.397C16.8966 121.602 16.7068 121.733 16.5171 121.733C16.3331 121.727 16.1433 121.596 16.1376 121.403C16.1376 121.204 16.3273 121.074 16.5113 121.067C16.7011 121.061 16.8908 121.192 16.8966 121.397Z" fill="#D8BF66"/>
<path d="M10.7305 153.81C10.8167 153.629 10.742 153.412 10.581 153.312C10.3912 153.194 10.1612 153.275 10.0577 153.468L10.0577 153.474C9.96574 153.667 10.0462 153.897 10.2475 153.978C10.4142 154.04 10.6385 153.984 10.7305 153.81Z" fill="#D8BF66"/>
<path d="M16.8277 120.433C16.8162 120.252 16.6322 120.153 16.4712 120.165C16.3102 120.178 16.1434 120.296 16.1492 120.47C16.1607 120.644 16.3389 120.744 16.5057 120.738C16.6667 120.738 16.8392 120.613 16.8277 120.433Z" fill="#D8BF66"/>
<path d="M10.391 154.718C10.3565 154.892 10.184 155.016 10.0115 155.004C9.81025 154.985 9.6895 154.793 9.724 154.6C9.7585 154.407 9.94249 154.276 10.1322 154.326C10.2932 154.376 10.4197 154.544 10.391 154.718Z" fill="#D8BF66"/>
<path d="M25.4905 65.8161C25.6803 66.9795 26.3879 67.8753 27.2852 68.6095C29.0855 70.0652 31.2713 70.8678 33.3535 71.8258C35.5508 72.8399 37.7711 74.0406 39.4334 75.8323C42.3037 78.9616 41.855 83.528 38.795 86.2903C35.3437 89.376 30.6213 88.3993 29.8966 83.6089C29.7988 82.9494 29.7988 82.2775 29.9426 81.6243C30.42 79.4842 32.5885 78.0098 34.7053 78.6817C35.9132 79.0736 36.73 80.1188 37.0003 81.3257C37.0981 81.7799 36.9831 82.8188 36.3158 82.7877C35.4818 82.7317 35.4473 81.1577 34.8951 80.604C34.7053 80.4174 34.4752 80.2743 34.2221 80.1934C32.9854 79.8015 31.7717 80.7409 31.5014 81.9603C31.4036 82.4206 31.4094 82.8997 31.4784 83.3663C32.0133 86.9062 35.2287 87.3479 37.7423 85.102C40.1582 82.9246 40.5436 79.3847 38.2715 76.9086C36.753 75.2724 34.6938 74.1899 32.6921 73.2629C30.4833 72.2489 28.1997 71.3841 26.2901 69.8412C25.0879 68.8583 24.1791 67.6141 23.9317 66.065C23.6844 64.5408 25.2374 64.2546 25.4905 65.8161Z" fill="#D8BF66"/>
<path fill-rule="evenodd" clip-rule="evenodd" d="M36.9945 82.5076C36.9773 83.7832 35.9016 84.8099 34.5959 84.7913C33.2902 84.7788 32.2434 83.7272 32.2549 82.4516C32.2721 81.176 33.3477 80.1493 34.6534 80.168C35.9649 80.1804 37.0118 81.232 36.9945 82.5076Z" fill="#D8BF66"/>
<path fill-rule="evenodd" clip-rule="evenodd" d="M24.3801 70.42C25.2659 72.7156 26.146 75.3659 26.3301 77.674C29.8848 74.9304 35.0846 76.355 38.277 78.5325C38.0987 77.8855 36.0625 76.2804 34.2793 75.2788C32.1626 74.0905 29.8043 73.3688 27.676 72.3548C26.2093 71.6642 24.6965 70.955 24.3801 70.42Z" fill="#D8BF66"/>
<path d="M31.1101 79.024C30.2645 79.4532 29.7353 79.9758 29.3787 80.8717C27.0089 86.9001 33.3879 92.3997 30.6959 98.708C29.6778 101.085 28.5677 102.889 28.6827 105.564C28.7172 106.41 29.9252 107.629 29.4995 108.301C29.2119 108.749 28.5792 108.643 28.2456 108.314C27.5323 107.598 27.1412 106.646 27.1009 105.639C26.9744 102.677 28.119 100.705 29.2407 98.0859C31.8463 91.9953 25.4674 86.5019 27.912 80.2931C28.4066 79.0551 29.2924 78.041 30.5406 77.5495C32.0304 76.9523 32.6574 78.2401 31.1101 79.024Z" fill="#D8BF66"/>
<path d="M28.7862 108.936C25.2832 108.594 21.0382 102.124 19.6462 102.366C19.3011 102.385 18.8352 100.836 19.5254 100.78C22.4014 100.537 24.9611 106.827 28.9702 107.213C30.1839 107.368 29.8676 109.023 28.7862 108.936Z" fill="#D8BF66"/>
<path d="M20.1524 100.929C24.754 104.942 19.7842 115.891 20.0488 121.186C20.0603 121.503 19.5196 121.64 19.2953 121.665C19.0192 121.696 18.49 121.646 18.467 121.273C18.2427 116.768 22.6832 104.985 18.8697 101.856C18.0816 101.06 19.5714 100.425 20.1524 100.929Z" fill="#D8BF66"/>
<path d="M18.4325 121.527C17.5121 120.041 17.19 118.386 16.6436 116.749C16.402 116.028 16.1432 115.095 15.9016 114.373C15.6025 113.49 14.8374 113.178 14.6074 114.348C14.2622 116.084 14.176 117.757 14.1242 119.412C13.9861 124.028 13.434 127.767 11.484 131.942C9.49382 136.197 6.91692 140.26 3.81658 143.613C3.50022 143.949 2.89051 144.204 2.50512 143.824C2.1485 143.451 2.34407 142.866 2.64892 142.53C5.63997 139.289 8.12484 135.351 10.046 131.239C11.9097 127.245 12.088 123.798 12.203 119.381C12.2778 116.575 12.4791 114.037 13.5893 112.843C14.4751 111.891 16.2467 111.524 17.098 113.135C17.6099 114.099 17.794 115.207 18.1391 116.239C18.6453 117.745 18.9214 119.313 19.7727 120.681C20.693 122.15 19.3355 122.946 18.4325 121.527Z" fill="#D8BF66"/>
<path d="M2.37878 142.337C4.13889 138.543 4.40349 134.25 4.27119 130.125C4.09288 124.831 3.23007 119.593 2.5916 114.342C2.05666 109.844 2.1717 105.19 3.63271 100.86C4.3172 98.8758 5.28929 97.0032 6.58925 95.3546C7.61886 94.0668 8.83254 92.9407 10.19 92.0075C11.6568 91.0183 12.5656 92.3062 11.0816 93.3202C9.85639 94.1601 8.75776 95.1804 7.83168 96.3437C6.64102 97.8493 5.75521 99.5601 5.13399 101.371C3.74776 105.47 3.65572 109.887 4.16765 114.143C4.81188 119.437 5.68043 124.725 5.85874 130.063C5.99679 134.437 5.68619 138.978 3.81678 143.003C3.12654 144.478 1.69429 143.824 2.37878 142.337Z" fill="#D8BF66"/>
<path d="M20.8368 61.7972C21.1819 62.2887 21.3947 62.861 21.5212 63.452C21.6766 64.1737 21.6823 64.9203 21.5903 65.6544C21.4005 67.1848 20.8195 68.6468 20.1178 70.0093C19.4678 71.266 18.6855 72.4666 17.8054 73.574C17.4718 73.9908 17.1267 74.3952 16.7471 74.7685C16.5803 74.9365 16.402 75.092 16.2179 75.2351C15.9015 75.4591 14.7569 75.4031 14.6648 75.1791C14.3888 74.5134 15.1595 74.1028 15.6369 73.6362C15.9706 73.3065 16.2754 72.9519 16.5688 72.5848C17.3855 71.5583 18.1103 70.4447 18.7143 69.2814C19.3297 68.0869 19.8532 66.7991 20.02 65.4615C20.089 64.9078 20.089 64.3417 19.974 63.7942C19.8877 63.4023 19.7381 63.0228 19.5138 62.6868C18.6452 61.3493 20.158 60.8329 20.8368 61.7972Z" fill="#D8BF66"/>
<path d="M15.9763 73.8727C16.1488 73.8478 16.3271 73.8291 16.4997 73.8229C17.328 73.8105 18.1218 74.0718 18.789 74.5632C19.5195 75.1107 20.0372 75.8821 20.3823 76.7158C20.8137 77.7672 20.9805 78.9119 21.0093 80.0379C21.1013 84.4053 20.1235 88.4615 17.6674 92.1009C15.6887 95.0187 13.2958 97.6005 11.8406 100.854C7.50929 110.734 6.85931 121.795 7.96945 132.402C8.01547 132.863 8.06724 134.157 7.3885 134.256C6.6925 134.331 6.43941 133.037 6.3934 132.576C5.2545 121.689 5.94474 110.348 10.391 100.213C11.8923 96.8664 14.3197 94.2162 16.3559 91.2113C18.6279 87.8456 19.508 84.1191 19.4217 80.0815C19.3987 79.1483 19.2664 78.1964 18.9155 77.3255C18.6797 76.7593 18.3403 76.2119 17.8399 75.8386C17.4603 75.5586 17.0059 75.4031 16.5342 75.4093C16.4307 75.4093 16.3271 75.4218 16.2236 75.4404C15.8037 75.5088 14.8546 75.7141 14.5613 75.2849C14.1126 74.5943 15.5218 73.9535 15.9763 73.8727Z" fill="#D8BF66"/>
<path fill-rule="evenodd" clip-rule="evenodd" d="M7.08367 78.4207C7.06066 80.1004 5.68593 81.4442 4.01209 81.4193C2.33825 81.4007 0.998036 80.0258 1.02104 78.346C1.04405 76.6663 2.41878 75.3225 4.09262 75.3474C5.76645 75.366 7.10668 76.7472 7.08367 78.4207Z" fill="#D8BF66"/>
<path fill-rule="evenodd" clip-rule="evenodd" d="M8.90175 84.9587C8.8845 86.3276 7.76285 87.4227 6.39963 87.4041C5.0364 87.3854 3.94352 86.2654 3.96077 84.9027C3.97803 83.5337 5.09967 82.4386 6.4629 82.4572C7.82613 82.4697 8.91901 83.5897 8.90175 84.9587Z" fill="#D8BF66"/>
<path fill-rule="evenodd" clip-rule="evenodd" d="M12.4219 88.9527C12.4104 89.9981 11.5533 90.8319 10.5122 90.8194C9.47109 90.807 8.63705 89.9545 8.64856 88.9092C8.66006 87.87 9.51711 87.03 10.5582 87.0424C11.6051 87.0549 12.4334 87.9136 12.4219 88.9527Z" fill="#D8BF66"/>
<path fill-rule="evenodd" clip-rule="evenodd" d="M16.3966 88.1815C16.3851 89.0651 15.6603 89.7745 14.7803 89.762C13.9002 89.7496 13.1927 89.0278 13.2042 88.1442C13.2157 87.2606 13.9405 86.5575 14.8206 86.5637C15.7006 86.5762 16.4081 87.298 16.3966 88.1815Z" fill="#D8BF66"/>
<path fill-rule="evenodd" clip-rule="evenodd" d="M18.3059 84.8655C18.2944 85.5997 17.6962 86.1846 16.9657 86.1784C16.2352 86.1722 15.6485 85.5686 15.66 84.8344C15.6715 84.1001 16.2697 83.5152 17.0002 83.5215C17.7307 83.5277 18.3116 84.1313 18.3059 84.8655Z" fill="#D8BF66"/>
<path fill-rule="evenodd" clip-rule="evenodd" d="M16.8499 81.5686C16.8384 82.2466 16.2864 82.794 15.608 82.7815C14.9295 82.7753 14.3832 82.2155 14.3947 81.5375C14.4062 80.8595 14.9582 80.3121 15.6367 80.3245C16.3152 80.3308 16.8557 80.8844 16.8499 81.5686Z" fill="#D8BF66"/>
<path fill-rule="evenodd" clip-rule="evenodd" d="M14.1639 79.9884C14.1581 80.5358 13.7096 80.9712 13.1634 80.965C12.6171 80.9588 12.1801 80.511 12.1916 79.9636C12.1974 79.4162 12.6459 78.9808 13.1921 78.987C13.7326 78.9932 14.1696 79.4411 14.1639 79.9884Z" fill="#D8BF66"/>
<path d="M22.5049 70.5195C23.0801 73.8977 23.7933 77.2758 23.8796 80.7099C23.9659 84.7973 22.9478 88.698 20.5319 92.0264C17.9148 95.6161 15.5737 99.2804 13.9344 103.43C12.4043 107.356 11.7141 111.592 11.2252 115.76C11.1734 116.215 10.9146 117.378 10.2588 117.322C9.59159 117.247 9.59734 116.034 9.64911 115.574C10.1495 111.269 10.8743 106.901 12.4561 102.845C14.1414 98.5649 16.5515 94.7824 19.2492 91.087C21.4638 88.0386 22.3668 84.48 22.292 80.7472C22.2115 77.3878 21.504 74.0843 20.9403 70.787C20.8655 70.3329 20.9231 69.4868 21.5155 69.3872C22.0965 69.3001 22.4301 70.0654 22.5049 70.5195Z" fill="#D8BF66"/>
<path d="M22.6489 70.9614C24.5758 76.1064 25.3869 81.7802 25.3179 87.2673C25.2833 89.9362 24.9842 92.5989 25.0187 95.2679C25.059 97.7066 25.3696 100.176 26.3935 102.416C26.566 102.802 26.428 103.293 26.0484 103.505C25.6285 103.729 25.1395 103.499 24.9497 103.088C23.8338 100.643 23.4772 97.9617 23.4312 95.2927C23.3967 92.6052 23.6958 89.93 23.7303 87.2424C23.7936 81.9606 23.017 76.4797 21.1649 71.5213C21.0153 71.1232 21.2454 70.6877 21.6251 70.5259C22.0277 70.3704 22.4879 70.5508 22.6489 70.9614Z" fill="#D8BF66"/>
<path d="M24.8 83.13C24.9898 86.3028 24.196 89.3139 22.7063 92.101C21.1705 94.969 19.1458 97.5446 17.5122 100.35C16.5861 101.968 16.1374 103.853 16.2007 105.713C16.2352 106.565 16.379 107.418 16.6666 108.22C16.8507 108.724 17.098 109.21 17.4144 109.639C17.6445 109.956 17.5122 110.416 17.2533 110.678C16.9197 110.995 16.4078 110.945 16.1317 110.584C15.7233 110.031 15.4127 109.415 15.1769 108.768C14.826 107.81 14.6534 106.789 14.6132 105.769C14.5384 103.61 15.0561 101.427 16.1374 99.5479C17.7653 96.7545 19.7785 94.1976 21.3028 91.3421C22.6487 88.81 23.3792 86.0975 23.2067 83.2171C23.1837 82.7878 23.477 82.3461 23.9199 82.2901C24.4088 82.2528 24.7712 82.6821 24.8 83.13Z" fill="#D8BF66"/>
<path fill-rule="evenodd" clip-rule="evenodd" d="M152.869 19.9407C152.086 20.0153 151.483 20.1335 150.999 20.289C149.63 20.737 148.399 22.1368 147.45 23.1695C146.3 24.4262 145.052 26.1059 146.674 26.2552C147.634 26.3423 148.572 26.5414 149.958 27.4248C149.107 27.0764 148.325 26.8213 147.261 26.7654C146.323 26.7156 145.092 26.8462 144.523 26.728C144.08 26.84 142.941 26.7156 140.807 27.0702C144.131 26.1246 148.946 21.1476 151.028 18.1427C151.362 17.6637 151.465 17.3899 152.282 16.7616C151.275 18.0183 150.833 18.8395 150.982 19.3372C151.143 19.9033 152.017 20.0526 152.869 19.9407Z" fill="#D8BF66"/>
<path fill-rule="evenodd" clip-rule="evenodd" d="M160.277 33.3347C159.788 32.2895 158.598 32.2896 157.499 32.3891C153.818 32.725 153.283 33.6396 149.659 32.1029C148.468 31.599 146.846 30.4232 146.03 30.249C142.975 29.602 139.616 30.6098 135.659 29.2722C134.52 29.1478 133.341 29.0918 132.443 29.0047C130.47 28.8119 129.78 28.3888 134.019 26.8833C137.39 25.6079 142.406 22.7088 146.438 18.7459C150.137 15.1126 153.162 11.4297 157.102 8.64255C162.141 5.07155 167.111 4.64849 172 4.77913C168.474 6.47754 165.512 12.1762 163.044 14.5714C160.571 16.9728 155.244 16.2325 155.492 18.3228C155.71 20.1394 159.351 17.9869 161.238 17.4332C163.861 16.668 166.662 18.1237 168.928 19.1814C165.684 18.6712 162.365 21.7196 160.111 23.6109C158.857 24.6623 156.251 23.7353 155.681 23.6793C154.6 23.5736 152.57 22.2547 151.166 23.5114C149.003 25.4462 153.939 25.4213 155.083 26.031C157.252 27.1757 159.53 30.0934 160.277 33.3347ZM157.798 14.9385C159.788 14.3972 160.559 13.9244 161.376 13.041C163.13 11.1435 164.672 8.10131 166.409 6.51489C164.655 6.89438 162.515 7.43564 160.743 8.46215C155.843 11.3053 151.091 16.3569 147.795 19.8781C146.478 21.2841 144.845 22.771 143.223 23.9406C141.261 25.3529 138.782 26.6966 136.959 27.7045C138.857 28.2084 140.433 28.7745 143.447 28.3079C148.733 28.2955 148.808 29.9317 152.029 30.952C153.283 31.3253 155.325 30.9582 157.114 30.6471C155.935 28.9985 155.037 27.5987 153.128 27.0264C151.523 26.5473 149.4 26.5535 148.727 25.4773C147.318 23.2127 150.907 21.3339 152.903 21.1659C154.226 21.054 155.808 22.1924 157.304 22.2795C161.226 22.547 160.484 19.8657 164.931 18.7583C162.457 17.7878 161.445 18.7521 159.196 19.7413C156.947 20.7367 154.238 20.4381 153.778 19.001C153.306 17.5701 153.916 16.0023 157.798 14.9385Z" fill="#D8BF66"/>
<path fill-rule="evenodd" clip-rule="evenodd" d="M6.46842 13.1406C6.61797 15.3119 8.59666 16.9481 10.8917 16.7863C13.1868 16.6308 14.9239 14.7395 14.7801 12.5621C14.6305 10.3909 12.6518 8.75467 10.3625 8.91643C8.06173 9.07196 6.31887 10.9632 6.46842 13.1406Z" fill="#D8BF66"/>
<path d="M9.37314 19.6606C8.48733 19.5238 7.63028 19.2189 6.86527 18.7461C6.12325 18.2857 5.48478 17.6761 4.9671 16.9731C3.87422 15.4924 3.33353 13.6509 3.32202 11.8156C3.31627 5.92412 9.91959 0.928449 15.4013 4.6612C18.3751 6.68933 20.1294 12.3071 17.0636 15.0009C16.4711 15.5235 15.7349 15.8532 14.9526 15.9776C15.384 15.4426 15.7349 14.8516 15.9419 14.1984C16.7472 11.8218 15.6026 8.74235 13.5836 7.30524C9.99436 4.79807 5.387 7.89003 4.73127 11.9214C4.46667 13.5265 4.69676 15.2187 5.46178 16.662C5.84716 17.3837 6.37059 18.0307 7.01482 18.5408C7.69931 19.0883 8.51034 19.4678 9.37314 19.6606Z" fill="#D8BF66"/>
<path d="M7.94669 12.7368C7.99271 13.3775 8.16527 13.9997 8.45862 14.5658C8.75198 15.1195 9.14887 15.611 9.63203 16.0154C10.121 16.426 10.6904 16.7433 11.2944 16.9423C11.9328 17.1539 12.6116 17.2347 13.2846 17.1849C14.3257 17.1103 15.3495 16.8428 16.2929 16.3762C17.1729 15.9345 17.961 15.3248 18.6109 14.5845C19.2494 13.8441 19.7441 12.9918 20.0547 12.0649C20.3768 11.1006 20.5033 10.0803 20.4401 9.0662C20.3653 8.02725 20.0604 7.02562 19.5773 6.10488C19.0768 5.17169 18.3981 4.34426 17.5986 3.6537C16.7875 2.95692 15.8557 2.40948 14.8491 2.04865C13.8368 1.68781 12.7611 1.53226 11.6855 1.6007C10.236 1.70646 8.8325 2.11086 7.54405 2.78898C6.29011 3.45465 5.17997 4.36296 4.25965 5.43924C3.34508 6.52174 2.63183 7.75973 2.17167 9.0973C1.71151 10.4411 1.50444 11.8658 1.60222 13.2842C1.71151 14.8209 2.22344 16.3078 2.99421 17.6329C3.92603 19.2255 5.20873 20.5755 6.69275 21.6642C8.42411 22.9334 12.8359 24.0906 17.0291 20.0094L8.78073 28.968L9.82185 26.9959C10.4718 25.7578 10.0634 25.341 8.94754 24.8247C7.8259 24.3083 6.75602 23.6862 5.75517 22.9521C4.09859 21.7389 2.66634 20.2209 1.62523 18.4416C0.733666 16.905 0.146957 15.1817 0.0261646 13.4024C-0.0831238 11.7725 0.152708 10.1363 0.681894 8.58719C1.21108 7.06298 2.02212 5.65075 3.06323 4.41894C4.11585 3.18713 5.38704 2.14819 6.81354 1.38919C8.29181 0.611538 9.91964 0.138713 11.5877 0.0205092C12.8819 -0.066588 14.1761 0.126262 15.3956 0.555528C16.5862 0.978574 17.6906 1.6318 18.6512 2.453C19.6003 3.27421 20.3998 4.2572 20.9923 5.35836C21.5847 6.47196 21.9528 7.69754 22.0391 8.96045C22.1197 10.186 21.9644 11.4116 21.5732 12.575C21.1936 13.6948 20.5954 14.7338 19.8189 15.6296C19.0366 16.5255 18.0817 17.2658 17.0119 17.8009C15.8845 18.3608 14.6593 18.6843 13.4054 18.7714C12.531 18.8336 11.6452 18.7216 10.8112 18.4479C10.0117 18.1866 9.2639 17.7697 8.61968 17.2347C7.9812 16.6997 7.44627 16.0403 7.06088 15.3061C6.66399 14.5471 6.42816 13.7073 6.37064 12.8487C6.88832 12.8114 7.41751 12.7741 7.94669 12.7368Z" fill="#D8BF66"/>
<path fill-rule="evenodd" clip-rule="evenodd" d="M26.7329 27.929C25.1166 28.2401 23.6441 28.0721 22.3556 28.2712C21.096 28.4641 17.4837 29.6585 15.2347 30.9277C16.4426 29.6461 17.2479 28.8373 19.6752 27.6739C21.5906 26.7532 19.7557 27.1514 17.1961 28.041C12.6923 29.6025 9.83351 32.0413 8.14242 35.5936C7.57872 36.7756 7.25086 38.0759 7.24511 39.4881C7.23935 41.5909 5.61153 43.0031 5.87613 44.2412C6.14072 45.473 6.91149 46.3937 7.53846 45.1494C8.46453 42.8103 9.3791 40.0791 10.3109 37.7399C12.9626 35.351 15.6143 32.962 18.2717 30.5668C21.0902 29.5403 23.9202 28.9493 26.7329 27.929Z" fill="#D8BF66"/>
</g>
</svg>
