<svg width="18" height="18" viewBox="0 0 18 18" fill="none" xmlns="http://www.w3.org/2000/svg">
<g clip-path="url(#clip0)">
<path d="M10.8003 0H7.1998C3.72548 0 0.898987 2.82221 0.898987 6.29127V8.98753C0.898987 11.423 2.30573 13.6332 4.49945 14.6729V17.6755C4.49945 17.9362 4.82608 18.0725 5.01164 17.8873L7.62407 15.2788H10.8002C14.2745 15.2788 17.101 12.4566 17.101 8.98753V6.29127C17.101 2.82221 14.2745 0 10.8003 0Z" fill="#7A5F46"/>
<path d="M7.36771 6.45385L7.66105 6.16047L7.66137 6.16016L7.36768 6.45382L7.36771 6.45385Z" fill="#E5E5E5"/>
<path d="M10.6315 9.12588L10.3351 9.42188L10.3351 9.42192L10.6315 9.12593L10.6315 9.12588Z" fill="#E5E5E5"/>
<path d="M9.6001 5.09277C9.43441 5.09277 9.30008 5.2269 9.30008 5.39234C9.30008 5.55778 9.43441 5.69191 9.6001 5.69191C10.2619 5.69191 10.8003 6.22948 10.8003 6.89026C10.8003 7.05349 10.9368 7.18983 11.1003 7.18983C11.2638 7.18983 11.4003 7.05349 11.4003 6.89026C11.4003 5.89909 10.5928 5.09277 9.6001 5.09277Z" fill="white"/>
<path d="M9.6001 3.89453C9.48911 3.89453 9.3771 3.90067 9.26713 3.91278C9.10242 3.93093 8.98363 4.07896 9.00181 4.24346C9.01998 4.40795 9.16855 4.52625 9.33298 4.50838C9.42115 4.49865 9.51101 4.4937 9.6001 4.4937C10.9236 4.4937 12.0004 5.56884 12.0004 6.89036C12.0004 6.97935 11.9954 7.06907 11.9857 7.15711C11.9678 7.31932 12.0885 7.46991 12.251 7.48778C12.4135 7.50565 12.5642 7.38514 12.5822 7.22286C12.5943 7.11306 12.6005 7.00122 12.6005 6.89036C12.6005 5.23849 11.2545 3.89453 9.6001 3.89453Z" fill="white"/>
<path d="M9.60063 2.69629C9.4934 2.69629 9.3848 2.70036 9.27793 2.70847C9.1127 2.72097 8.98887 2.86489 9.00139 3.02984C9.01387 3.19482 9.1585 3.31846 9.32325 3.30596C9.41511 3.29897 9.50845 3.29546 9.60063 3.29546C11.5859 3.29546 13.2011 4.90817 13.2011 6.89047C13.2011 7.17094 13.1687 7.45015 13.1048 7.7203C13.0681 7.87511 13.1636 8.03602 13.3173 8.07807C13.4791 8.1223 13.6502 8.02103 13.6887 7.85812C13.7633 7.54286 13.8012 7.21731 13.8012 6.89047C13.8012 4.57778 11.9168 2.69629 9.60063 2.69629Z" fill="white"/>
<path d="M14.0623 11.4259C13.8484 12.0274 12.9995 12.5263 12.3224 12.672C11.8591 12.7702 11.254 12.8486 9.21703 12.0076C6.61152 10.9325 4.93362 8.29572 4.80284 8.12464C4.67761 7.95356 3.75 6.72842 3.75 5.46134C3.75 4.19426 4.39611 3.57727 4.65655 3.31238C4.87045 3.09494 5.22398 2.99561 5.56311 2.99561C5.67282 2.99561 5.77146 3.00112 5.86012 3.00554C6.12056 3.01658 6.25133 3.03203 6.42311 3.44151C6.63701 3.95475 7.15789 5.22183 7.21995 5.35207C7.28312 5.48231 7.34629 5.65891 7.25763 5.82999C7.17451 6.00658 7.10137 6.08495 6.97059 6.23505C6.83982 6.38516 6.71569 6.49995 6.58492 6.6611C6.46523 6.80127 6.33002 6.95138 6.48074 7.21075C6.63147 7.46461 7.15235 8.31117 7.91926 8.99107C8.90893 9.86854 9.71131 10.1489 9.99835 10.2681C10.2122 10.3564 10.4671 10.3354 10.6234 10.1699C10.8218 9.95684 11.0667 9.60364 11.3161 9.25597C11.4934 9.00652 11.7173 8.97562 11.9522 9.06392C12.1916 9.1467 13.4583 9.7703 13.7188 9.89944C13.9792 10.0297 14.151 10.0915 14.2142 10.2008C14.2762 10.31 14.2762 10.8233 14.0623 11.4259Z" fill="#FAFAFA"/>
</g>
<defs>
<clipPath id="clip0">
<rect width="18" height="17.9727" fill="white"/>
</clipPath>
</defs>
</svg>
