<svg width="16" height="16" viewBox="0 0 16 16" fill="none" xmlns="http://www.w3.org/2000/svg">
<g clip-path="url(#clip0)">
<path d="M15.9311 10.2148C14.5293 7.48153 11.4785 5 7.99998 5C4.49705 5 1.45511 7.51178 0.0688594 10.2148C-0.0229531 10.3938 -0.0229531 10.6062 0.0688594 10.7852C1.47064 13.5185 4.52145 16 7.99998 16C11.9387 16 14.8421 12.9087 15.9311 10.7852C16.0229 10.6062 16.0229 10.3938 15.9311 10.2148ZM7.99998 14.75C5.16323 14.75 2.78205 12.8654 1.34511 10.5C2.76614 8.16078 5.13973 6.25 7.99998 6.25C10.848 6.25 13.226 8.14797 14.6549 10.5C13.2113 12.8762 10.8206 14.75 7.99998 14.75ZM0.196953 3.47412C0.427891 3.21759 0.823109 3.19691 1.07964 3.42788L2.47164 4.68122C2.72814 4.91222 2.74886 5.30737 2.51789 5.56391C2.28692 5.82047 1.8917 5.84109 1.6352 5.61016L0.243203 4.35678C-0.0132969 4.12584 -0.0340156 3.73066 0.196953 3.47412ZM7.37498 3.125V0.625C7.37498 0.279844 7.6548 0 7.99998 0C8.34517 0 8.62498 0.279844 8.62498 0.625V3.125C8.62498 3.47016 8.34517 3.75 7.99998 3.75C7.6548 3.75 7.37498 3.47016 7.37498 3.125ZM3.41248 1.73297C3.27208 1.41763 3.41389 1.04819 3.72923 0.907781C4.04461 0.767375 4.41402 0.909188 4.55442 1.22453L5.51026 3.37141C5.65067 3.68672 5.50886 4.05619 5.19351 4.19659C4.87908 4.33656 4.5092 4.19616 4.36833 3.87984L3.41248 1.73297ZM13.4821 5.56391C13.2511 5.30741 13.2718 4.91222 13.5283 4.68122L14.9203 3.42788C15.1768 3.19691 15.572 3.21759 15.803 3.47412C16.034 3.73062 16.0133 4.12581 15.7568 4.35678L14.3648 5.61016C14.1082 5.84116 13.713 5.82037 13.4821 5.56391ZM10.4897 3.37141L11.4455 1.22453C11.5859 0.909188 11.9554 0.767375 12.2707 0.907781C12.586 1.04819 12.7279 1.41763 12.5875 1.73297L11.6316 3.87981C11.4906 4.19659 11.1204 4.33634 10.8064 4.19659C10.4911 4.05619 10.3493 3.68675 10.4897 3.37141ZM7.99998 7.42969C6.30701 7.42969 4.92967 8.80703 4.92967 10.5C4.92967 12.193 6.30701 13.5703 7.99998 13.5703C9.69295 13.5703 11.0703 12.193 11.0703 10.5C11.0703 8.80703 9.69295 7.42969 7.99998 7.42969ZM7.99998 12.3203C6.99626 12.3203 6.17967 11.5037 6.17967 10.5C6.17967 9.49628 6.99626 8.67969 7.99998 8.67969C9.0037 8.67969 9.8203 9.49628 9.8203 10.5C9.8203 11.5037 9.0037 12.3203 7.99998 12.3203Z" fill="#7A5F46"/>
</g>
<defs>
<clipPath id="clip0">
<rect width="16" height="16" fill="white"/>
</clipPath>
</defs>
</svg>
