<svg width="18" height="18" viewBox="0 0 18 18" fill="none" xmlns="http://www.w3.org/2000/svg">
<g clip-path="url(#clip0)">
<path d="M17.9046 13.1201C17.8828 13.0732 17.8625 13.0343 17.8436 13.0031C17.5313 12.4415 16.9345 11.7522 16.0536 10.9349L16.0349 10.9162L16.0256 10.907L16.0162 10.8976H16.0068C15.6069 10.5171 15.3538 10.2612 15.2477 10.1302C15.0537 9.88063 15.0103 9.62803 15.1163 9.37208C15.1912 9.17871 15.4726 8.77032 15.9598 8.14637C16.216 7.8157 16.419 7.55068 16.5689 7.35101C17.6499 5.9161 18.1185 4.99917 17.9747 4.59986L17.9189 4.50655C17.8814 4.45037 17.7845 4.39898 17.6285 4.35211C17.4721 4.30534 17.2723 4.29761 17.0285 4.32877L14.3295 4.34739C14.2858 4.33192 14.2234 4.33336 14.142 4.35211C14.0608 4.37086 14.0201 4.38026 14.0201 4.38026L13.9732 4.4037L13.9359 4.43185C13.9046 4.45047 13.8703 4.48321 13.8327 4.53002C13.7954 4.57666 13.7642 4.63139 13.7392 4.69376C13.4454 5.44862 13.1113 6.15044 12.7363 6.7992C12.5051 7.18605 12.2928 7.52131 12.0989 7.80518C11.9053 8.08895 11.7428 8.29803 11.6117 8.43205C11.4804 8.5662 11.3619 8.67367 11.2555 8.75485C11.1493 8.83607 11.0682 8.87039 11.012 8.85783C10.9557 8.84528 10.9027 8.83283 10.8525 8.82037C10.7651 8.76419 10.6948 8.68779 10.6418 8.59111C10.5885 8.49442 10.5527 8.37272 10.5339 8.22612C10.5153 8.07941 10.5043 7.95323 10.5011 7.84713C10.4982 7.74117 10.4995 7.59129 10.5059 7.39791C10.5124 7.20444 10.5153 7.07353 10.5153 7.0049C10.5153 6.7678 10.5199 6.51048 10.5292 6.23287C10.5387 5.95526 10.5463 5.73531 10.5527 5.57326C10.5591 5.41106 10.562 5.23944 10.562 5.05852C10.562 4.8776 10.551 4.73572 10.5292 4.63273C10.5077 4.52989 10.4746 4.43005 10.4311 4.33326C10.3872 4.23658 10.3231 4.16178 10.2389 4.10869C10.1546 4.05566 10.0498 4.01357 9.92498 3.9823C9.59381 3.90748 9.1721 3.867 8.65967 3.86071C7.49762 3.84825 6.75094 3.92318 6.4198 4.08538C6.2886 4.15392 6.16987 4.24756 6.06371 4.36601C5.95122 4.5033 5.93553 4.57823 6.01674 4.59055C6.39167 4.64663 6.6571 4.78078 6.81331 4.99287L6.86961 5.10526C6.9134 5.18635 6.95712 5.3299 7.00088 5.53574C7.04457 5.74157 7.07276 5.96926 7.08517 6.21868C7.11635 6.67416 7.11635 7.06406 7.08517 7.38841C7.05389 7.71289 7.02435 7.96549 6.99615 8.14641C6.96795 8.32733 6.9258 8.47393 6.86961 8.58619C6.81331 8.69848 6.77586 8.76711 6.75708 8.79202C6.73834 8.81693 6.72271 8.83263 6.71031 8.83879C6.6291 8.86986 6.54464 8.88569 6.45722 8.88569C6.36968 8.88569 6.26352 8.84197 6.13859 8.75459C6.01369 8.66721 5.88406 8.54719 5.74971 8.39432C5.61535 8.24142 5.46383 8.02776 5.29508 7.7533C5.12645 7.47883 4.9515 7.15446 4.7703 6.78016L4.62039 6.50871C4.52667 6.33408 4.39865 6.07981 4.2362 5.74612C4.07365 5.4123 3.92997 5.0894 3.80507 4.77747C3.75515 4.64647 3.68014 4.54673 3.58019 4.4781L3.53328 4.44995C3.5021 4.42504 3.45204 4.39859 3.38337 4.3704C3.3146 4.34225 3.24284 4.32206 3.1678 4.30963L0.599915 4.32825C0.337509 4.32825 0.159465 4.38761 0.0657162 4.50616L0.0281969 4.56223C0.00945368 4.59347 0 4.64335 0 4.71202C0 4.78065 0.0187432 4.86488 0.0562625 4.96462C0.431127 5.84432 0.838784 6.69271 1.27923 7.50994C1.71968 8.32717 2.10243 8.98546 2.42723 9.48424C2.7521 9.98338 3.08325 10.4545 3.42066 10.8973C3.75807 11.3402 3.98141 11.6241 4.09069 11.7488C4.20009 11.8737 4.28603 11.9672 4.3485 12.0295L4.58284 12.2541C4.73278 12.4038 4.95297 12.5832 5.24351 12.7921C5.53411 13.0012 5.85583 13.207 6.20883 13.4099C6.5619 13.6125 6.97265 13.7778 7.44129 13.9057C7.90987 14.0337 8.36595 14.085 8.80958 14.0603H9.88737C10.1059 14.0414 10.2716 13.9728 10.3841 13.8543L10.4214 13.8074C10.4465 13.7702 10.4699 13.7124 10.4916 13.6345C10.5135 13.5565 10.5244 13.4706 10.5244 13.3772C10.518 13.109 10.5385 12.8673 10.5852 12.6521C10.6319 12.4369 10.6852 12.2747 10.7447 12.1655C10.8042 12.0563 10.8714 11.9642 10.9461 11.8896C11.0211 11.8147 11.0744 11.7694 11.1057 11.7538C11.1369 11.7381 11.1617 11.7275 11.1805 11.7211C11.3304 11.6712 11.5069 11.7195 11.7101 11.8662C11.9132 12.0128 12.1037 12.1939 12.2819 12.409C12.4599 12.6243 12.6739 12.8659 12.9238 13.1341C13.1738 13.4024 13.3924 13.6019 13.5798 13.7331L13.7671 13.8454C13.8923 13.9203 14.0547 13.9889 14.2547 14.0513C14.4543 14.1136 14.6292 14.1292 14.7794 14.0981L17.1785 14.0607C17.4158 14.0607 17.6004 14.0215 17.7314 13.9436C17.8626 13.8656 17.9406 13.7797 17.9657 13.6863C17.9908 13.5928 17.9922 13.4866 17.9705 13.368C17.9483 13.2496 17.9264 13.1669 17.9046 13.1201Z" fill="#7A5F46"/>
</g>
<defs>
<clipPath id="clip0">
<rect width="18" height="17.9727" fill="white"/>
</clipPath>
</defs>
</svg>
