<svg width="18" height="18" viewBox="0 0 18 18" fill="none" xmlns="http://www.w3.org/2000/svg">
<g clip-path="url(#clip0)">
<path d="M9.00211 0.600098H8.99791C4.36636 0.600098 0.600006 4.36179 0.600006 8.98738C0.600006 10.8221 1.19221 12.5226 2.19916 13.9034L1.15231 17.0193L4.38106 15.9887C5.70931 16.8672 7.29376 17.3747 9.00211 17.3747C13.6337 17.3747 17.4 13.6119 17.4 8.98738C17.4 4.36284 13.6337 0.600098 9.00211 0.600098Z" fill="#7A5F46"/>
<path d="M14.2391 12.6901C14.022 13.3023 13.1602 13.81 12.4729 13.9583C12.0026 14.0583 11.3884 14.138 9.32062 13.2821C6.67575 12.188 4.9725 9.50442 4.83975 9.33031C4.71262 9.1562 3.771 7.90934 3.771 6.61979C3.771 5.33025 4.42687 4.70233 4.69125 4.43274C4.90837 4.21145 5.26725 4.11035 5.6115 4.11035C5.72287 4.11035 5.823 4.11597 5.913 4.12046C6.17737 4.13169 6.31012 4.14742 6.4845 4.56416C6.70162 5.0865 7.23037 6.37604 7.29337 6.50859C7.3575 6.64114 7.42162 6.82086 7.33162 6.99498C7.24725 7.1747 7.173 7.25446 7.04025 7.40722C6.9075 7.55999 6.7815 7.67682 6.64875 7.84082C6.52725 7.98348 6.39 8.13624 6.543 8.40022C6.696 8.65858 7.22475 9.52014 8.00325 10.2121C9.00787 11.1051 9.82237 11.3904 10.1137 11.5117C10.3309 11.6016 10.5896 11.5803 10.7482 11.4118C10.9496 11.195 11.1982 10.8355 11.4514 10.4817C11.6314 10.2278 11.8586 10.1964 12.0971 10.2862C12.3401 10.3705 13.626 11.0051 13.8904 11.1366C14.1547 11.2691 14.3291 11.332 14.3932 11.4432C14.4562 11.5544 14.4562 12.0768 14.2391 12.6901Z" fill="#FAFAFA"/>
</g>
<defs>
<clipPath id="clip0">
<rect width="18" height="17.9727" fill="white"/>
</clipPath>
</defs>
</svg>
