<svg width="98" height="20" viewBox="0 0 98 20" fill="none" xmlns="http://www.w3.org/2000/svg">
<path d="M6.43358 1.47931H5.32324C4.98048 1.47931 4.64944 1.55035 4.32875 1.69311C4.00737 1.83587 3.72186 2.06345 3.47358 2.37725C3.22393 2.69104 3.0253 3.09311 2.87358 3.58552C2.72462 4.07656 2.65013 4.66414 2.65013 5.34828C2.65013 6.01725 2.73289 6.58483 2.89634 7.04759C3.06048 7.51104 3.27772 7.89242 3.54875 8.19242C3.81979 8.49104 4.12599 8.70828 4.46806 8.84345C4.80944 8.97931 5.16599 9.0469 5.53703 9.0469H6.43358V1.47862V1.47931ZM2.15772 16.5517H0.212891L3.67634 10.1586C2.66461 9.67449 1.94117 9.02966 1.50668 8.22414C1.0722 7.41931 0.85427 6.46069 0.85427 5.34828C0.85427 4.49311 0.975649 3.73862 1.21772 3.08276C1.4591 2.42759 1.78806 1.87587 2.20117 1.42621C2.61496 0.976556 3.09565 0.638625 3.64393 0.410349C4.19358 0.182763 4.77358 0.0689697 5.38737 0.0689697H8.12393V16.5517H6.43358V10.4372H5.32324L2.15772 16.5517Z" fill="#FF0000"/>
<path fill-rule="evenodd" clip-rule="evenodd" d="M25.0347 18.6897H23.5174V16.531H18.7933V18.6897H17.2747V15.1407H17.9367C18.2795 14.4993 18.5464 13.8083 18.7395 13.0669C18.9326 12.3255 19.0774 11.5772 19.1774 10.8221C19.2774 10.0669 19.3374 9.31862 19.3595 8.57725C19.3816 7.83587 19.3919 7.13035 19.3919 6.46V5.52069H24.1809V15.1414H25.036V18.6897H25.0347ZM32.4326 16.0386C32.076 16.2386 31.6809 16.4124 31.2464 16.5628C30.8119 16.7124 30.3222 16.7869 29.7816 16.7869C28.6698 16.7869 27.7788 16.3248 27.1091 15.3979C26.4402 14.4717 26.1043 13.1676 26.1043 11.4855C26.1043 10.6731 26.1733 9.89242 26.3078 9.14483C26.4436 8.39518 26.6498 7.73311 26.9285 7.15587C27.2064 6.57794 27.5588 6.11449 27.9864 5.76621C28.414 5.41725 28.9264 5.24207 29.5243 5.24207C30.4085 5.24207 31.1216 5.68483 31.6622 6.56828C32.2043 7.45104 32.476 8.75587 32.476 10.4807V11.4214H27.8788C27.8788 12.6186 28.0816 13.5524 28.4878 14.2214C28.8947 14.8917 29.5319 15.2269 30.4016 15.2269C30.7291 15.2269 31.0678 15.1807 31.4167 15.089C31.7664 14.9952 32.0409 14.9062 32.2402 14.82L32.4333 16.0393L32.4326 16.0386ZM29.4602 6.61104C29.2188 6.61104 29.005 6.69587 28.8188 6.86621C28.634 7.03862 28.4774 7.27656 28.3498 7.58345C28.2209 7.88966 28.1209 8.24966 28.0498 8.66276C27.9788 9.07656 27.9285 9.52483 27.9002 10.0103H30.7222V9.77587C30.7222 9.70414 30.7188 9.62552 30.7119 9.54C30.705 9.45449 30.7009 9.36207 30.7009 9.26207C30.6436 8.42069 30.5078 7.76828 30.294 7.30483C30.0802 6.84276 29.8029 6.61035 29.4609 6.61035L29.4602 6.61104ZM22.4912 6.88828V15.1407H19.4347C19.7188 14.6703 19.954 14.1145 20.1395 13.4731C20.3257 12.8317 20.4747 12.151 20.5878 11.4317C20.7022 10.7117 20.7809 9.97793 20.8236 9.22897C20.8664 8.48069 20.8878 7.77173 20.8878 7.10207V6.88828H22.4912ZM16.2912 5.52V16.531H14.6016V11.271H12.0795V16.5303H10.3691V5.51931H12.0795V9.85931H14.6022V5.52H16.2919H16.2912ZM40.6002 16.531H38.6967L36.0671 11.1L35.874 10.8655V16.5303H34.1636V5.51931H35.874V10.5221L36.0671 10.3083L38.3981 5.51931H40.2147L37.5216 10.4793L40.6002 16.5297V16.531ZM42.8016 11.0572C42.8016 12.3538 43.0016 13.3731 43.4002 14.1145C43.8002 14.8559 44.4119 15.2262 45.2388 15.2262C45.5526 15.2262 45.8733 15.18 46.2009 15.0883C46.5291 14.9945 46.794 14.9055 46.9926 14.8193L47.1636 16.0386C46.836 16.2386 46.4691 16.4124 46.0629 16.5628C45.656 16.7124 45.1967 16.7869 44.6836 16.7869C43.5871 16.7869 42.6988 16.3317 42.0216 15.4193C41.3457 14.5069 41.0064 13.1959 41.0064 11.4855C41.0064 10.5448 41.1029 9.68966 41.296 8.92C41.4878 8.15035 41.7478 7.49449 42.0753 6.95311C42.4029 6.41242 42.7953 5.99173 43.2512 5.69242C43.7064 5.39311 44.1988 5.24414 44.7271 5.24414C45.196 5.24414 45.6209 5.30759 45.9988 5.43587C46.376 5.56414 46.7147 5.73518 47.014 5.94897L46.1367 7.42483C45.9367 7.19587 45.7126 7.00414 45.4629 6.8469C45.2147 6.69035 44.9616 6.61242 44.7043 6.61242C44.4057 6.61242 44.1347 6.74 43.8926 6.99656C43.6512 7.25311 43.4512 7.58828 43.294 8.00138C43.1374 8.41518 43.016 8.88828 42.9305 9.42345C42.845 9.95793 42.8022 10.5028 42.8022 11.0579L42.8016 11.0572ZM54.5464 13.9731H55.3781L57.6609 5.48483C57.8305 4.84483 57.9802 4.22621 58.1712 3.37311H58.2574C58.2147 4.14138 58.1719 4.90897 58.1719 5.63518V16.32H59.1954V1.06897H58.0009L55.4002 10.8166C55.2926 11.2007 55.1216 12.011 55.0367 12.5869H54.9726C54.9085 12.0117 54.7588 11.2228 54.6526 10.8172L52.0719 1.06897H50.8347V16.3193H51.7726V5.63449C51.7726 4.86552 51.7519 4.09793 51.7091 3.37242H51.7733C51.9016 4.07587 52.0726 4.75862 52.2857 5.54828L54.545 13.9724L54.5464 13.9731ZM63.7174 15.7228C64.7202 15.7228 65.4243 14.7641 65.8071 13.611V10.6469H64.6553C62.8857 10.6469 62.0326 11.4572 62.0326 13.3338C62.0326 14.8483 62.6947 15.7228 63.7174 15.7228ZM66.1064 16.32C66.0209 16.0428 65.9147 15.6372 65.8512 14.8697C65.3388 15.8938 64.5705 16.5338 63.5043 16.5338C62.0547 16.5338 61.0519 15.3821 61.0519 13.4193C61.0519 11.1159 62.3105 9.92138 64.6354 9.92138H65.8078V8.57793C65.8078 6.93518 65.1898 6.23104 64.0167 6.23104C63.0995 6.23104 62.2678 6.65862 61.756 7.40483L61.4788 6.44483C61.905 5.89035 62.8009 5.35656 64.0167 5.35656C65.7871 5.35656 66.7891 6.33793 66.7891 8.47104V14.3366C66.7891 15.0828 66.8967 15.9159 67.0236 16.32H66.1064ZM72.0788 15.7228C73.4443 15.7228 74.3395 14.1021 74.3395 10.7103C74.3395 7.89449 73.5719 6.23035 72.3347 6.23035C71.3747 6.23035 70.5643 7.25449 70.0953 8.40621V14.42C70.5216 15.2959 71.1188 15.7214 72.0788 15.7214V15.7228ZM72.0147 16.5124C71.205 16.5124 70.5009 16.1069 70.096 15.5745V19.6476H69.0933V5.56966H69.9678L70.0533 7.34C70.5223 6.31587 71.3119 5.35587 72.5057 5.35587C74.2974 5.35587 75.3429 7.51035 75.3429 10.6248C75.3429 14.5697 74.0202 16.5117 72.0153 16.5117L72.0147 16.5124ZM78.265 10.7538L81.9974 16.3193H83.1078L79.3098 10.5607L82.8505 5.57035H81.8698L78.265 10.6255V5.57035H77.2622V16.32H78.2643V10.7517L78.265 10.7538ZM89.3988 14.5069L89.7188 15.3179C89.7188 15.3179 88.9091 16.5338 87.2029 16.5338C84.9202 16.5338 83.8754 14.4648 83.8754 10.9448C83.8754 7.42483 85.1974 5.35587 87.0105 5.35587C88.8657 5.35587 90.0609 7.29724 89.7195 11.1145H84.8574C84.8988 14.0593 85.6678 15.6593 87.225 15.6593C88.6526 15.6593 89.3995 14.5076 89.4002 14.5062L89.3988 14.5069ZM87.0098 6.18966C85.8788 6.18966 84.9616 7.63931 84.8774 10.3276H88.7809C88.9519 7.46828 88.0981 6.18966 87.0105 6.18966H87.0098ZM96.8216 6.40207V5.56966H90.8491V6.40138H93.3457V16.3186H94.3471V6.40207H96.8216Z" fill="#333333"/>
</svg>
