<svg width="18" height="18" viewBox="0 0 18 18" fill="none" xmlns="http://www.w3.org/2000/svg">
<path d="M17.9899 7.48183C17.9834 7.12082 17.9547 6.66436 17.9047 6.11287C17.8543 5.56107 17.7823 5.06794 17.6886 4.63343C17.5815 4.14539 17.3487 3.73414 16.9906 3.39982C16.6324 3.06544 16.2155 2.8716 15.7399 2.81803C14.2532 2.65099 12.0065 2.56738 8.99996 2.56738C5.99335 2.56738 3.7467 2.65099 2.26009 2.81803C1.78457 2.87156 1.36932 3.06544 1.01451 3.39982C0.659556 3.73404 0.428516 4.14529 0.321352 4.63343C0.221013 5.06808 0.145583 5.56118 0.0953783 6.11287C0.045244 6.66436 0.0167466 7.12064 0.0100972 7.48183C0.0033071 7.84289 0 8.34431 0 8.98625C0 9.62812 0.0033071 10.1297 0.0101324 10.4907C0.0167818 10.8519 0.0452792 11.3081 0.0954134 11.8596C0.145618 12.4114 0.217636 12.9045 0.311395 13.3391C0.41856 13.8272 0.651218 14.2384 1.00948 14.5726C1.3678 14.9069 1.78474 15.1008 2.26012 15.1543C3.74674 15.3215 5.99325 15.4051 9 15.4051C12.0069 15.4051 14.2532 15.3215 15.7399 15.1543C16.2155 15.1008 16.6306 14.9069 16.9855 14.5726C17.3405 14.2384 17.5714 13.827 17.6785 13.3391C17.779 12.9045 17.8543 12.4114 17.9047 11.8596C17.9547 11.3082 17.9831 10.8517 17.9899 10.4907C17.9966 10.1297 18 9.62812 18 8.98625C18 8.34431 17.9967 7.84289 17.9899 7.48183ZM12.5558 9.52786L7.41305 12.7372C7.31925 12.804 7.2053 12.8374 7.07143 12.8374C6.97106 12.8374 6.86727 12.8106 6.76014 12.7571C6.5392 12.6369 6.42876 12.4496 6.42876 12.1956V5.77694C6.42876 5.523 6.53923 5.33569 6.76014 5.21537C6.98787 5.09485 7.20544 5.10159 7.41305 5.23543L12.5559 8.44478C12.7567 8.55824 12.8571 8.73888 12.8571 8.98629C12.8571 9.23359 12.7567 9.41429 12.5558 9.52786Z" fill="#7A5F46"/>
</svg>
